<?xml version="1.0" encoding="UTF-8" standalone="no"?>
<!DOCTYPE svg PUBLIC "-//W3C//DTD SVG 1.1//EN"
 "http://www.w3.org/Graphics/SVG/1.1/DTD/svg11.dtd">
<!-- Generated by graphviz version 6.0.1 (20220911.1526)
 -->
<!-- Pages: 1 -->
<svg width="421pt" height="374pt"
 viewBox="0.00 0.00 421.00 374.00" xmlns="http://www.w3.org/2000/svg" xmlns:xlink="http://www.w3.org/1999/xlink">
<g id="graph0" class="graph" transform="scale(1 1) rotate(0) translate(4 370)">
<polygon fill="white" stroke="none" points="-4,4 -4,-370 417,-370 417,4 -4,4"/>
<!-- elements -->
<g id="node1" class="node">
<title>elements</title>
<path fill="#afa7f4" stroke="black" d="M129.44,-218.61C129.44,-218.61 273.44,-218.61 273.44,-218.61 279.44,-218.61 285.44,-224.61 285.44,-230.61 285.44,-230.61 285.44,-242.61 285.44,-242.61 285.44,-248.61 279.44,-254.61 273.44,-254.61 273.44,-254.61 129.44,-254.61 129.44,-254.61 123.44,-254.61 117.44,-248.61 117.44,-242.61 117.44,-242.61 117.44,-230.61 117.44,-230.61 117.44,-224.61 123.44,-218.61 129.44,-218.61"/>
<text text-anchor="middle" x="185.44" y="-232.91" font-family="Arial" font-size="14.00">DITA map elements</text>
<polyline fill="none" stroke="black" points="253.44,-218.61 253.44,-254.61"/>
<text text-anchor="middle" x="269.44" y="-232.91" font-family="Arial" font-size="14.00">52</text>
</g>
<!-- baseMapElements -->
<g id="node2" class="node">
<title>baseMapElements</title>
<path fill="#1afabc" stroke="black" d="M144.77,-173.55C144.77,-173.55 256.77,-173.55 256.77,-173.55 262.77,-173.55 268.77,-179.55 268.77,-185.55 268.77,-185.55 268.77,-197.55 268.77,-197.55 268.77,-203.55 262.77,-209.55 256.77,-209.55 256.77,-209.55 144.77,-209.55 144.77,-209.55 138.77,-209.55 132.77,-203.55 132.77,-197.55 132.77,-197.55 132.77,-185.55 132.77,-185.55 132.77,-179.55 138.77,-173.55 144.77,-173.55"/>
<text text-anchor="middle" x="185.27" y="-187.85" font-family="Arial" font-size="14.00">base elements</text>
<polyline fill="none" stroke="black" points="237.77,-173.55 237.77,-209.55"/>
<text text-anchor="middle" x="253.27" y="-187.85" font-family="Arial" font-size="14.00">11</text>
</g>
<!-- elements&#45;&gt;baseMapElements -->
<g id="edge1" class="edge">
<title>elements&#45;&gt;baseMapElements</title>
<path fill="none" stroke="#1f78b4" d="M201.17,-218.54C201.17,-218.45 201.17,-218.36 201.17,-218.27"/>
<polygon fill="#a6cee3" stroke="#1f78b4" points="204.69,-219.57 201.04,-209.62 197.69,-219.68 204.69,-219.57"/>
</g>
<!-- otherElements -->
<g id="node14" class="node">
<title>otherElements</title>
<path fill="#1afabc" stroke="black" d="M126.51,-267.46C126.51,-267.46 277.51,-267.46 277.51,-267.46 283.51,-267.46 289.51,-273.46 289.51,-279.46 289.51,-279.46 289.51,-291.46 289.51,-291.46 289.51,-297.46 283.51,-303.46 277.51,-303.46 277.51,-303.46 126.51,-303.46 126.51,-303.46 120.51,-303.46 114.51,-297.46 114.51,-291.46 114.51,-291.46 114.51,-279.46 114.51,-279.46 114.51,-273.46 120.51,-267.46 126.51,-267.46"/>
<text text-anchor="middle" x="186.01" y="-281.76" font-family="Arial" font-size="14.00">specialized elements</text>
<polyline fill="none" stroke="black" points="257.51,-267.46 257.51,-303.46"/>
<text text-anchor="middle" x="273.51" y="-281.76" font-family="Arial" font-size="14.00">41</text>
</g>
<!-- elements&#45;&gt;otherElements -->
<g id="edge13" class="edge">
<title>elements&#45;&gt;otherElements</title>
<path fill="none" stroke="#1f78b4" d="M201.66,-254.8C201.66,-255.58 201.67,-256.36 201.68,-257.15"/>
<polygon fill="#a6cee3" stroke="#1f78b4" points="198.19,-257.46 201.8,-267.42 205.19,-257.38 198.19,-257.46"/>
</g>
<!-- map -->
<g id="node3" class="node">
<title>map</title>
<path fill="#bfcfff" stroke="black" d="M162.56,-6.33C162.56,-6.33 192.56,-6.33 192.56,-6.33 198.56,-6.33 204.56,-12.33 204.56,-18.33 204.56,-18.33 204.56,-30.33 204.56,-30.33 204.56,-36.33 198.56,-42.33 192.56,-42.33 192.56,-42.33 162.56,-42.33 162.56,-42.33 156.56,-42.33 150.56,-36.33 150.56,-30.33 150.56,-30.33 150.56,-18.33 150.56,-18.33 150.56,-12.33 156.56,-6.33 162.56,-6.33"/>
<text text-anchor="middle" x="177.56" y="-20.63" font-family="Arial" font-size="14.00">map</text>
</g>
<!-- baseMapElements&#45;&gt;map -->
<g id="edge2" class="edge">
<title>baseMapElements&#45;&gt;map</title>
<path fill="none" stroke="#1f78b4" d="M198.24,-173.34C194.21,-144.31 186.3,-87.33 181.52,-52.86"/>
<polygon fill="#a6cee3" stroke="#1f78b4" points="184.92,-51.95 180.08,-42.52 177.99,-52.91 184.92,-51.95"/>
</g>
<!-- navref -->
<g id="node4" class="node">
<title>navref</title>
<path fill="#bfcfff" stroke="black" d="M128.31,-329.18C128.31,-329.18 158.31,-329.18 158.31,-329.18 164.31,-329.18 170.31,-335.18 170.31,-341.18 170.31,-341.18 170.31,-353.18 170.31,-353.18 170.31,-359.18 164.31,-365.18 158.31,-365.18 158.31,-365.18 128.31,-365.18 128.31,-365.18 122.31,-365.18 116.31,-359.18 116.31,-353.18 116.31,-353.18 116.31,-341.18 116.31,-341.18 116.31,-335.18 122.31,-329.18 128.31,-329.18"/>
<text text-anchor="middle" x="143.31" y="-343.48" font-family="Arial" font-size="14.00">navref</text>
</g>
<!-- baseMapElements&#45;&gt;navref -->
<g id="edge3" class="edge">
<title>baseMapElements&#45;&gt;navref</title>
<path fill="none" stroke="#1f78b4" d="M194.07,-209.71C184.08,-236.77 165.2,-287.88 153.5,-319.58"/>
<polygon fill="#a6cee3" stroke="#1f78b4" points="150.15,-318.55 149.97,-329.14 156.72,-320.97 150.15,-318.55"/>
</g>
<!-- topicref -->
<g id="node5" class="node">
<title>topicref</title>
<path fill="#bfcfff" stroke="black" d="M310.42,-286.94C310.42,-286.94 347.42,-286.94 347.42,-286.94 353.42,-286.94 359.42,-292.94 359.42,-298.94 359.42,-298.94 359.42,-310.94 359.42,-310.94 359.42,-316.94 353.42,-322.94 347.42,-322.94 347.42,-322.94 310.42,-322.94 310.42,-322.94 304.42,-322.94 298.42,-316.94 298.42,-310.94 298.42,-310.94 298.42,-298.94 298.42,-298.94 298.42,-292.94 304.42,-286.94 310.42,-286.94"/>
<text text-anchor="middle" x="328.92" y="-301.24" font-family="Arial" font-size="14.00">topicref</text>
</g>
<!-- baseMapElements&#45;&gt;topicref -->
<g id="edge4" class="edge">
<title>baseMapElements&#45;&gt;topicref</title>
<path fill="none" stroke="#1f78b4" d="M221.36,-209.77C242.85,-228.78 276.68,-258.72 300.66,-279.93"/>
<polygon fill="#a6cee3" stroke="#1f78b4" points="298.57,-282.76 308.38,-286.77 303.21,-277.52 298.57,-282.76"/>
</g>
<!-- reltable -->
<g id="node6" class="node">
<title>reltable</title>
<path fill="#bfcfff" stroke="black" d="M11.76,-181.73C11.76,-181.73 48.76,-181.73 48.76,-181.73 54.76,-181.73 60.76,-187.73 60.76,-193.73 60.76,-193.73 60.76,-205.73 60.76,-205.73 60.76,-211.73 54.76,-217.73 48.76,-217.73 48.76,-217.73 11.76,-217.73 11.76,-217.73 5.76,-217.73 -0.24,-211.73 -0.24,-205.73 -0.24,-205.73 -0.24,-193.73 -0.24,-193.73 -0.24,-187.73 5.76,-181.73 11.76,-181.73"/>
<text text-anchor="middle" x="30.26" y="-196.03" font-family="Arial" font-size="14.00">reltable</text>
</g>
<!-- baseMapElements&#45;&gt;reltable -->
<g id="edge5" class="edge">
<title>baseMapElements&#45;&gt;reltable</title>
<path fill="none" stroke="#1f78b4" d="M132.4,-194.83C111.55,-195.83 89.29,-196.9 70.89,-197.78"/>
<polygon fill="#a6cee3" stroke="#1f78b4" points="70.64,-194.29 60.82,-198.27 70.98,-201.28 70.64,-194.29"/>
</g>
<!-- relheader -->
<g id="node7" class="node">
<title>relheader</title>
<path fill="#bfcfff" stroke="black" d="M69.81,-25.66C69.81,-25.66 119.81,-25.66 119.81,-25.66 125.81,-25.66 131.81,-31.66 131.81,-37.66 131.81,-37.66 131.81,-49.66 131.81,-49.66 131.81,-55.66 125.81,-61.66 119.81,-61.66 119.81,-61.66 69.81,-61.66 69.81,-61.66 63.81,-61.66 57.81,-55.66 57.81,-49.66 57.81,-49.66 57.81,-37.66 57.81,-37.66 57.81,-31.66 63.81,-25.66 69.81,-25.66"/>
<text text-anchor="middle" x="94.81" y="-39.96" font-family="Arial" font-size="14.00">relheader</text>
</g>
<!-- baseMapElements&#45;&gt;relheader -->
<g id="edge6" class="edge">
<title>baseMapElements&#45;&gt;relheader</title>
<path fill="none" stroke="#1f78b4" d="M187.78,-173.42C169.27,-147.58 135.19,-100.02 113.83,-70.21"/>
<polygon fill="#a6cee3" stroke="#1f78b4" points="116.58,-68.03 107.91,-61.94 110.89,-72.11 116.58,-68.03"/>
</g>
<!-- relcolspec -->
<g id="node8" class="node">
<title>relcolspec</title>
<path fill="#bfcfff" stroke="black" d="M236.31,-0.55C236.31,-0.55 289.31,-0.55 289.31,-0.55 295.31,-0.55 301.31,-6.55 301.31,-12.55 301.31,-12.55 301.31,-24.55 301.31,-24.55 301.31,-30.55 295.31,-36.55 289.31,-36.55 289.31,-36.55 236.31,-36.55 236.31,-36.55 230.31,-36.55 224.31,-30.55 224.31,-24.55 224.31,-24.55 224.31,-12.55 224.31,-12.55 224.31,-6.55 230.31,-0.55 236.31,-0.55"/>
<text text-anchor="middle" x="262.81" y="-14.85" font-family="Arial" font-size="14.00">relcolspec</text>
</g>
<!-- baseMapElements&#45;&gt;relcolspec -->
<g id="edge7" class="edge">
<title>baseMapElements&#45;&gt;relcolspec</title>
<path fill="none" stroke="#1f78b4" d="M207.29,-173.36C218.14,-143.12 239.95,-82.3 252.77,-46.55"/>
<polygon fill="#a6cee3" stroke="#1f78b4" points="256.2,-47.34 256.29,-36.75 249.62,-44.98 256.2,-47.34"/>
</g>
<!-- relrow -->
<g id="node9" class="node">
<title>relrow</title>
<path fill="#bfcfff" stroke="black" d="M35.36,-99.09C35.36,-99.09 65.36,-99.09 65.36,-99.09 71.36,-99.09 77.36,-105.09 77.36,-111.09 77.36,-111.09 77.36,-123.09 77.36,-123.09 77.36,-129.09 71.36,-135.09 65.36,-135.09 65.36,-135.09 35.36,-135.09 35.36,-135.09 29.36,-135.09 23.36,-129.09 23.36,-123.09 23.36,-123.09 23.36,-111.09 23.36,-111.09 23.36,-105.09 29.36,-99.09 35.36,-99.09"/>
<text text-anchor="middle" x="50.36" y="-113.39" font-family="Arial" font-size="14.00">relrow</text>
</g>
<!-- baseMapElements&#45;&gt;relrow -->
<g id="edge8" class="edge">
<title>baseMapElements&#45;&gt;relrow</title>
<path fill="none" stroke="#1f78b4" d="M164.36,-173.53C140.72,-161.83 110.04,-146.64 86.46,-134.96"/>
<polygon fill="#a6cee3" stroke="#1f78b4" points="88,-131.82 77.48,-130.52 84.89,-138.09 88,-131.82"/>
</g>
<!-- relcell -->
<g id="node10" class="node">
<title>relcell</title>
<path fill="#bfcfff" stroke="black" d="M308.07,-60.25C308.07,-60.25 338.07,-60.25 338.07,-60.25 344.07,-60.25 350.07,-66.25 350.07,-72.25 350.07,-72.25 350.07,-84.25 350.07,-84.25 350.07,-90.25 344.07,-96.25 338.07,-96.25 338.07,-96.25 308.07,-96.25 308.07,-96.25 302.07,-96.25 296.07,-90.25 296.07,-84.25 296.07,-84.25 296.07,-72.25 296.07,-72.25 296.07,-66.25 302.07,-60.25 308.07,-60.25"/>
<text text-anchor="middle" x="323.07" y="-74.55" font-family="Arial" font-size="14.00">relcell</text>
</g>
<!-- baseMapElements&#45;&gt;relcell -->
<g id="edge9" class="edge">
<title>baseMapElements&#45;&gt;relcell</title>
<path fill="none" stroke="#1f78b4" d="M220.42,-173.35C240.93,-154.35 273.22,-124.43 296.1,-103.23"/>
<polygon fill="#a6cee3" stroke="#1f78b4" points="298.52,-105.77 303.47,-96.41 293.76,-100.63 298.52,-105.77"/>
</g>
<!-- topicmeta -->
<g id="node11" class="node">
<title>topicmeta</title>
<path fill="#bfcfff" stroke="black" d="M347.44,-127.95C347.44,-127.95 399.44,-127.95 399.44,-127.95 405.44,-127.95 411.44,-133.95 411.44,-139.95 411.44,-139.95 411.44,-151.95 411.44,-151.95 411.44,-157.95 405.44,-163.95 399.44,-163.95 399.44,-163.95 347.44,-163.95 347.44,-163.95 341.44,-163.95 335.44,-157.95 335.44,-151.95 335.44,-151.95 335.44,-139.95 335.44,-139.95 335.44,-133.95 341.44,-127.95 347.44,-127.95"/>
<text text-anchor="middle" x="373.44" y="-142.25" font-family="Arial" font-size="14.00">topicmeta</text>
</g>
<!-- baseMapElements&#45;&gt;topicmeta -->
<g id="edge10" class="edge">
<title>baseMapElements&#45;&gt;topicmeta</title>
<path fill="none" stroke="#1f78b4" d="M269.02,-173.53C287.77,-168.58 307.72,-163.31 325.1,-158.72"/>
<polygon fill="#a6cee3" stroke="#1f78b4" points="326.23,-162.04 335.01,-156.1 324.45,-155.27 326.23,-162.04"/>
</g>
<!-- keytext -->
<g id="node12" class="node">
<title>keytext</title>
<path fill="#bfcfff" stroke="black" d="M43.65,-266.68C43.65,-266.68 78.65,-266.68 78.65,-266.68 84.65,-266.68 90.65,-272.68 90.65,-278.68 90.65,-278.68 90.65,-290.68 90.65,-290.68 90.65,-296.68 84.65,-302.68 78.65,-302.68 78.65,-302.68 43.65,-302.68 43.65,-302.68 37.65,-302.68 31.65,-296.68 31.65,-290.68 31.65,-290.68 31.65,-278.68 31.65,-278.68 31.65,-272.68 37.65,-266.68 43.65,-266.68"/>
<text text-anchor="middle" x="61.15" y="-280.98" font-family="Arial" font-size="14.00">keytext</text>
</g>
<!-- baseMapElements&#45;&gt;keytext -->
<g id="edge11" class="edge">
<title>baseMapElements&#45;&gt;keytext</title>
<path fill="none" stroke="#1f78b4" d="M173.52,-209.73C151.61,-224.34 120.65,-244.99 96.78,-260.92"/>
<polygon fill="#a6cee3" stroke="#1f78b4" points="94.71,-258.09 88.33,-266.55 98.59,-263.91 94.71,-258.09"/>
</g>
<!-- ux&#45;window -->
<g id="node13" class="node">
<title>ux&#45;window</title>
<path fill="#bfcfff" stroke="black" d="M345.4,-218.07C345.4,-218.07 401.4,-218.07 401.4,-218.07 407.4,-218.07 413.4,-224.07 413.4,-230.07 413.4,-230.07 413.4,-242.07 413.4,-242.07 413.4,-248.07 407.4,-254.07 401.4,-254.07 401.4,-254.07 345.4,-254.07 345.4,-254.07 339.4,-254.07 333.4,-248.07 333.4,-242.07 333.4,-242.07 333.4,-230.07 333.4,-230.07 333.4,-224.07 339.4,-218.07 345.4,-218.07"/>
<text text-anchor="middle" x="373.4" y="-232.37" font-family="Arial" font-size="14.00">ux&#45;window</text>
</g>
<!-- baseMapElements&#45;&gt;ux&#45;window -->
<g id="edge12" class="edge">
<title>baseMapElements&#45;&gt;ux&#45;window</title>
<path fill="none" stroke="#1f78b4" d="M269,-209.15C287.12,-213.82 306.35,-218.78 323.31,-223.15"/>
<polygon fill="#a6cee3" stroke="#1f78b4" points="322.45,-226.54 333,-225.65 324.19,-219.76 322.45,-226.54"/>
</g>
</g>
</svg>
