<?xml version="1.0" encoding="UTF-8" standalone="no"?>
<!DOCTYPE svg PUBLIC "-//W3C//DTD SVG 1.1//EN"
 "http://www.w3.org/Graphics/SVG/1.1/DTD/svg11.dtd">
<!-- Generated by graphviz version 6.0.1 (20220911.1526)
 -->
<!-- Pages: 1 -->
<svg width="1376pt" height="768pt"
 viewBox="0.00 0.00 1376.00 768.00" xmlns="http://www.w3.org/2000/svg" xmlns:xlink="http://www.w3.org/1999/xlink">
<g id="graph0" class="graph" transform="scale(1 1) rotate(0) translate(4 764)">
<polygon fill="white" stroke="none" points="-4,4 -4,-764 1372,-764 1372,4 -4,4"/>
<!-- elements -->
<g id="node1" class="node">
<title>elements</title>
<path fill="#afa7f4" stroke="black" d="M946.23,-243.57C946.23,-243.57 1098.23,-243.57 1098.23,-243.57 1104.23,-243.57 1110.23,-249.57 1110.23,-255.57 1110.23,-255.57 1110.23,-267.57 1110.23,-267.57 1110.23,-273.57 1104.23,-279.57 1098.23,-279.57 1098.23,-279.57 946.23,-279.57 946.23,-279.57 940.23,-279.57 934.23,-273.57 934.23,-267.57 934.23,-267.57 934.23,-255.57 934.23,-255.57 934.23,-249.57 940.23,-243.57 946.23,-243.57"/>
<text text-anchor="middle" x="1002.73" y="-257.87" font-family="Arial" font-size="14.00">DITA topic elements</text>
<polyline fill="none" stroke="black" points="1071.23,-243.57 1071.23,-279.57"/>
<text text-anchor="middle" x="1090.73" y="-257.87" font-family="Arial" font-size="14.00">336</text>
</g>
<!-- baseTopicElements -->
<g id="node2" class="node">
<title>baseTopicElements</title>
<path fill="#1afabc" stroke="black" d="M450.61,-362.31C450.61,-362.31 570.61,-362.31 570.61,-362.31 576.61,-362.31 582.61,-368.31 582.61,-374.31 582.61,-374.31 582.61,-386.31 582.61,-386.31 582.61,-392.31 576.61,-398.31 570.61,-398.31 570.61,-398.31 450.61,-398.31 450.61,-398.31 444.61,-398.31 438.61,-392.31 438.61,-386.31 438.61,-386.31 438.61,-374.31 438.61,-374.31 438.61,-368.31 444.61,-362.31 450.61,-362.31"/>
<text text-anchor="middle" x="491.11" y="-376.61" font-family="Arial" font-size="14.00">base elements</text>
<polyline fill="none" stroke="black" points="543.61,-362.31 543.61,-398.31"/>
<text text-anchor="middle" x="563.11" y="-376.61" font-family="Arial" font-size="14.00">104</text>
</g>
<!-- elements&#45;&gt;baseTopicElements -->
<g id="edge1" class="edge">
<title>elements&#45;&gt;baseTopicElements</title>
<path fill="none" stroke="#1f78b4" d="M944.53,-279.61C849.53,-301.65 689.48,-338.79 592.59,-361.28"/>
<polygon fill="#a6cee3" stroke="#1f78b4" points="591.78,-357.88 582.83,-363.55 593.36,-364.69 591.78,-357.88"/>
</g>
<!-- otherElements -->
<g id="node107" class="node">
<title>otherElements</title>
<path fill="#1afabc" stroke="black" d="M1198.25,-181.23C1198.25,-181.23 1356.25,-181.23 1356.25,-181.23 1362.25,-181.23 1368.25,-187.23 1368.25,-193.23 1368.25,-193.23 1368.25,-205.23 1368.25,-205.23 1368.25,-211.23 1362.25,-217.23 1356.25,-217.23 1356.25,-217.23 1198.25,-217.23 1198.25,-217.23 1192.25,-217.23 1186.25,-211.23 1186.25,-205.23 1186.25,-205.23 1186.25,-193.23 1186.25,-193.23 1186.25,-187.23 1192.25,-181.23 1198.25,-181.23"/>
<text text-anchor="middle" x="1257.75" y="-195.53" font-family="Arial" font-size="14.00">specialized elements</text>
<polyline fill="none" stroke="black" points="1329.25,-181.23 1329.25,-217.23"/>
<text text-anchor="middle" x="1348.75" y="-195.53" font-family="Arial" font-size="14.00">232</text>
</g>
<!-- elements&#45;&gt;otherElements -->
<g id="edge106" class="edge">
<title>elements&#45;&gt;otherElements</title>
<path fill="none" stroke="#1f78b4" d="M1095.99,-243.54C1126.39,-236.11 1161.77,-227.46 1193.17,-219.79"/>
<polygon fill="#a6cee3" stroke="#1f78b4" points="1194.33,-223.11 1203.21,-217.33 1192.67,-216.31 1194.33,-223.11"/>
</g>
<!-- author -->
<g id="node3" class="node">
<title>author</title>
<path fill="#bfcfff" stroke="black" d="M733.49,-124.52C733.49,-124.52 764.49,-124.52 764.49,-124.52 770.49,-124.52 776.49,-130.52 776.49,-136.52 776.49,-136.52 776.49,-148.52 776.49,-148.52 776.49,-154.52 770.49,-160.52 764.49,-160.52 764.49,-160.52 733.49,-160.52 733.49,-160.52 727.49,-160.52 721.49,-154.52 721.49,-148.52 721.49,-148.52 721.49,-136.52 721.49,-136.52 721.49,-130.52 727.49,-124.52 733.49,-124.52"/>
<text text-anchor="middle" x="748.99" y="-138.82" font-family="Arial" font-size="14.00">author</text>
</g>
<!-- baseTopicElements&#45;&gt;author -->
<g id="edge2" class="edge">
<title>baseTopicElements&#45;&gt;author</title>
<path fill="none" stroke="#1f78b4" d="M528.92,-362.04C571.14,-319.93 675.4,-215.92 723.69,-167.75"/>
<polygon fill="#a6cee3" stroke="#1f78b4" points="726.33,-170.06 730.94,-160.52 721.39,-165.11 726.33,-170.06"/>
</g>
<!-- source -->
<g id="node4" class="node">
<title>source</title>
<path fill="#bfcfff" stroke="black" d="M388.13,-63.93C388.13,-63.93 421.13,-63.93 421.13,-63.93 427.13,-63.93 433.13,-69.93 433.13,-75.93 433.13,-75.93 433.13,-87.93 433.13,-87.93 433.13,-93.93 427.13,-99.93 421.13,-99.93 421.13,-99.93 388.13,-99.93 388.13,-99.93 382.13,-99.93 376.13,-93.93 376.13,-87.93 376.13,-87.93 376.13,-75.93 376.13,-75.93 376.13,-69.93 382.13,-63.93 388.13,-63.93"/>
<text text-anchor="middle" x="404.63" y="-78.23" font-family="Arial" font-size="14.00">source</text>
</g>
<!-- baseTopicElements&#45;&gt;source -->
<g id="edge3" class="edge">
<title>baseTopicElements&#45;&gt;source</title>
<path fill="none" stroke="#1f78b4" d="M504.14,-362.09C486.26,-311.74 436.05,-170.39 414.58,-109.93"/>
<polygon fill="#a6cee3" stroke="#1f78b4" points="417.79,-108.54 411.15,-100.29 411.2,-110.88 417.79,-108.54"/>
</g>
<!-- publisher -->
<g id="node5" class="node">
<title>publisher</title>
<path fill="#bfcfff" stroke="black" d="M249.93,-621.3C249.93,-621.3 296.93,-621.3 296.93,-621.3 302.93,-621.3 308.93,-627.3 308.93,-633.3 308.93,-633.3 308.93,-645.3 308.93,-645.3 308.93,-651.3 302.93,-657.3 296.93,-657.3 296.93,-657.3 249.93,-657.3 249.93,-657.3 243.93,-657.3 237.93,-651.3 237.93,-645.3 237.93,-645.3 237.93,-633.3 237.93,-633.3 237.93,-627.3 243.93,-621.3 249.93,-621.3"/>
<text text-anchor="middle" x="273.43" y="-635.6" font-family="Arial" font-size="14.00">publisher</text>
</g>
<!-- baseTopicElements&#45;&gt;publisher -->
<g id="edge4" class="edge">
<title>baseTopicElements&#45;&gt;publisher</title>
<path fill="none" stroke="#1f78b4" d="M493.93,-398.52C452.51,-443.75 344.84,-561.32 296.97,-613.59"/>
<polygon fill="#a6cee3" stroke="#1f78b4" points="294.26,-611.37 290.09,-621.11 299.42,-616.1 294.26,-611.37"/>
</g>
<!-- copyright -->
<g id="node6" class="node">
<title>copyright</title>
<path fill="#bfcfff" stroke="black" d="M853.57,-253.75C853.57,-253.75 900.57,-253.75 900.57,-253.75 906.57,-253.75 912.57,-259.75 912.57,-265.75 912.57,-265.75 912.57,-277.75 912.57,-277.75 912.57,-283.75 906.57,-289.75 900.57,-289.75 900.57,-289.75 853.57,-289.75 853.57,-289.75 847.57,-289.75 841.57,-283.75 841.57,-277.75 841.57,-277.75 841.57,-265.75 841.57,-265.75 841.57,-259.75 847.57,-253.75 853.57,-253.75"/>
<text text-anchor="middle" x="877.07" y="-268.05" font-family="Arial" font-size="14.00">copyright</text>
</g>
<!-- baseTopicElements&#45;&gt;copyright -->
<g id="edge5" class="edge">
<title>baseTopicElements&#45;&gt;copyright</title>
<path fill="none" stroke="#1f78b4" d="M571.54,-362.26C644.91,-340.53 766.42,-304.53 831.92,-285.13"/>
<polygon fill="#a6cee3" stroke="#1f78b4" points="832.95,-288.47 841.55,-282.28 830.96,-281.76 832.95,-288.47"/>
</g>
<!-- copyryear -->
<g id="node7" class="node">
<title>copyryear</title>
<path fill="#bfcfff" stroke="black" d="M555.13,-575.33C555.13,-575.33 607.13,-575.33 607.13,-575.33 613.13,-575.33 619.13,-581.33 619.13,-587.33 619.13,-587.33 619.13,-599.33 619.13,-599.33 619.13,-605.33 613.13,-611.33 607.13,-611.33 607.13,-611.33 555.13,-611.33 555.13,-611.33 549.13,-611.33 543.13,-605.33 543.13,-599.33 543.13,-599.33 543.13,-587.33 543.13,-587.33 543.13,-581.33 549.13,-575.33 555.13,-575.33"/>
<text text-anchor="middle" x="581.13" y="-589.63" font-family="Arial" font-size="14.00">copyryear</text>
</g>
<!-- baseTopicElements&#45;&gt;copyryear -->
<g id="edge6" class="edge">
<title>baseTopicElements&#45;&gt;copyryear</title>
<path fill="none" stroke="#1f78b4" d="M516.62,-398.47C528.99,-435.81 557.32,-521.39 571.97,-565.66"/>
<polygon fill="#a6cee3" stroke="#1f78b4" points="568.67,-566.82 575.14,-575.21 575.32,-564.62 568.67,-566.82"/>
</g>
<!-- copyrholder -->
<g id="node8" class="node">
<title>copyrholder</title>
<path fill="#bfcfff" stroke="black" d="M63.02,-409.16C63.02,-409.16 126.02,-409.16 126.02,-409.16 132.02,-409.16 138.02,-415.16 138.02,-421.16 138.02,-421.16 138.02,-433.16 138.02,-433.16 138.02,-439.16 132.02,-445.16 126.02,-445.16 126.02,-445.16 63.02,-445.16 63.02,-445.16 57.02,-445.16 51.02,-439.16 51.02,-433.16 51.02,-433.16 51.02,-421.16 51.02,-421.16 51.02,-415.16 57.02,-409.16 63.02,-409.16"/>
<text text-anchor="middle" x="94.52" y="-423.46" font-family="Arial" font-size="14.00">copyrholder</text>
</g>
<!-- baseTopicElements&#45;&gt;copyrholder -->
<g id="edge7" class="edge">
<title>baseTopicElements&#45;&gt;copyrholder</title>
<path fill="none" stroke="#1f78b4" d="M438.61,-388.41C355.97,-397.72 222.33,-412.77 148.26,-421.11"/>
<polygon fill="#a6cee3" stroke="#1f78b4" points="147.76,-417.64 138.22,-422.24 148.55,-424.6 147.76,-417.64"/>
</g>
<!-- critdates -->
<g id="node9" class="node">
<title>critdates</title>
<path fill="#bfcfff" stroke="black" d="M150.47,-364.12C150.47,-364.12 194.47,-364.12 194.47,-364.12 200.47,-364.12 206.47,-370.12 206.47,-376.12 206.47,-376.12 206.47,-388.12 206.47,-388.12 206.47,-394.12 200.47,-400.12 194.47,-400.12 194.47,-400.12 150.47,-400.12 150.47,-400.12 144.47,-400.12 138.47,-394.12 138.47,-388.12 138.47,-388.12 138.47,-376.12 138.47,-376.12 138.47,-370.12 144.47,-364.12 150.47,-364.12"/>
<text text-anchor="middle" x="172.47" y="-378.42" font-family="Arial" font-size="14.00">critdates</text>
</g>
<!-- baseTopicElements&#45;&gt;critdates -->
<g id="edge8" class="edge">
<title>baseTopicElements&#45;&gt;critdates</title>
<path fill="none" stroke="#1f78b4" d="M438.49,-380.69C371.29,-381.05 273.24,-381.58 216.85,-381.88"/>
<polygon fill="#a6cee3" stroke="#1f78b4" points="216.8,-378.38 206.82,-381.93 216.84,-385.38 216.8,-378.38"/>
</g>
<!-- created -->
<g id="node10" class="node">
<title>created</title>
<path fill="#bfcfff" stroke="black" d="M604.52,-527.82C604.52,-527.82 642.52,-527.82 642.52,-527.82 648.52,-527.82 654.52,-533.82 654.52,-539.82 654.52,-539.82 654.52,-551.82 654.52,-551.82 654.52,-557.82 648.52,-563.82 642.52,-563.82 642.52,-563.82 604.52,-563.82 604.52,-563.82 598.52,-563.82 592.52,-557.82 592.52,-551.82 592.52,-551.82 592.52,-539.82 592.52,-539.82 592.52,-533.82 598.52,-527.82 604.52,-527.82"/>
<text text-anchor="middle" x="623.52" y="-542.12" font-family="Arial" font-size="14.00">created</text>
</g>
<!-- baseTopicElements&#45;&gt;created -->
<g id="edge9" class="edge">
<title>baseTopicElements&#45;&gt;created</title>
<path fill="none" stroke="#1f78b4" d="M522.91,-398.33C542.85,-427.56 582.32,-485.42 605.46,-519.34"/>
<polygon fill="#a6cee3" stroke="#1f78b4" points="602.71,-521.53 611.24,-527.82 608.5,-517.58 602.71,-521.53"/>
</g>
<!-- revised -->
<g id="node11" class="node">
<title>revised</title>
<path fill="#bfcfff" stroke="black" d="M786.46,-380.27C786.46,-380.27 822.46,-380.27 822.46,-380.27 828.46,-380.27 834.46,-386.27 834.46,-392.27 834.46,-392.27 834.46,-404.27 834.46,-404.27 834.46,-410.27 828.46,-416.27 822.46,-416.27 822.46,-416.27 786.46,-416.27 786.46,-416.27 780.46,-416.27 774.46,-410.27 774.46,-404.27 774.46,-404.27 774.46,-392.27 774.46,-392.27 774.46,-386.27 780.46,-380.27 786.46,-380.27"/>
<text text-anchor="middle" x="804.46" y="-394.57" font-family="Arial" font-size="14.00">revised</text>
</g>
<!-- baseTopicElements&#45;&gt;revised -->
<g id="edge10" class="edge">
<title>baseTopicElements&#45;&gt;revised</title>
<path fill="none" stroke="#1f78b4" d="M582.87,-384.72C640.06,-388.22 717.81,-392.97 764.38,-395.82"/>
<polygon fill="#a6cee3" stroke="#1f78b4" points="764.19,-399.31 774.39,-396.43 764.62,-392.33 764.19,-399.31"/>
</g>
<!-- permissions -->
<g id="node12" class="node">
<title>permissions</title>
<path fill="#bfcfff" stroke="black" d="M554.7,-143.7C554.7,-143.7 619.7,-143.7 619.7,-143.7 625.7,-143.7 631.7,-149.7 631.7,-155.7 631.7,-155.7 631.7,-167.7 631.7,-167.7 631.7,-173.7 625.7,-179.7 619.7,-179.7 619.7,-179.7 554.7,-179.7 554.7,-179.7 548.7,-179.7 542.7,-173.7 542.7,-167.7 542.7,-167.7 542.7,-155.7 542.7,-155.7 542.7,-149.7 548.7,-143.7 554.7,-143.7"/>
<text text-anchor="middle" x="587.2" y="-158" font-family="Arial" font-size="14.00">permissions</text>
</g>
<!-- baseTopicElements&#45;&gt;permissions -->
<g id="edge11" class="edge">
<title>baseTopicElements&#45;&gt;permissions</title>
<path fill="none" stroke="#1f78b4" d="M517.01,-362.04C530.45,-323.69 561.67,-234.58 577.55,-189.25"/>
<polygon fill="#a6cee3" stroke="#1f78b4" points="580.87,-190.35 580.87,-179.76 574.26,-188.04 580.87,-190.35"/>
</g>
<!-- category -->
<g id="node13" class="node">
<title>category</title>
<path fill="#bfcfff" stroke="black" d="M160.35,-544.26C160.35,-544.26 204.35,-544.26 204.35,-544.26 210.35,-544.26 216.35,-550.26 216.35,-556.26 216.35,-556.26 216.35,-568.26 216.35,-568.26 216.35,-574.26 210.35,-580.26 204.35,-580.26 204.35,-580.26 160.35,-580.26 160.35,-580.26 154.35,-580.26 148.35,-574.26 148.35,-568.26 148.35,-568.26 148.35,-556.26 148.35,-556.26 148.35,-550.26 154.35,-544.26 160.35,-544.26"/>
<text text-anchor="middle" x="182.35" y="-558.56" font-family="Arial" font-size="14.00">category</text>
</g>
<!-- baseTopicElements&#45;&gt;category -->
<g id="edge12" class="edge">
<title>baseTopicElements&#45;&gt;category</title>
<path fill="none" stroke="#1f78b4" d="M477.94,-398.42C417.84,-431.73 289.89,-502.65 223.79,-539.29"/>
<polygon fill="#a6cee3" stroke="#1f78b4" points="221.94,-536.31 214.89,-544.22 225.33,-542.44 221.94,-536.31"/>
</g>
<!-- metadata -->
<g id="node14" class="node">
<title>metadata</title>
<path fill="#bfcfff" stroke="black" d="M350.15,-713.21C350.15,-713.21 400.15,-713.21 400.15,-713.21 406.15,-713.21 412.15,-719.21 412.15,-725.21 412.15,-725.21 412.15,-737.21 412.15,-737.21 412.15,-743.21 406.15,-749.21 400.15,-749.21 400.15,-749.21 350.15,-749.21 350.15,-749.21 344.15,-749.21 338.15,-743.21 338.15,-737.21 338.15,-737.21 338.15,-725.21 338.15,-725.21 338.15,-719.21 344.15,-713.21 350.15,-713.21"/>
<text text-anchor="middle" x="375.15" y="-727.51" font-family="Arial" font-size="14.00">metadata</text>
</g>
<!-- baseTopicElements&#45;&gt;metadata -->
<g id="edge13" class="edge">
<title>baseTopicElements&#45;&gt;metadata</title>
<path fill="none" stroke="#1f78b4" d="M503.52,-398.68C481.21,-456.47 412.36,-634.82 385.78,-703.68"/>
<polygon fill="#a6cee3" stroke="#1f78b4" points="382.51,-702.43 382.17,-713.02 389.04,-704.95 382.51,-702.43"/>
</g>
<!-- audience -->
<g id="node15" class="node">
<title>audience</title>
<path fill="#bfcfff" stroke="black" d="M866.5,-343.79C866.5,-343.79 913.5,-343.79 913.5,-343.79 919.5,-343.79 925.5,-349.79 925.5,-355.79 925.5,-355.79 925.5,-367.79 925.5,-367.79 925.5,-373.79 919.5,-379.79 913.5,-379.79 913.5,-379.79 866.5,-379.79 866.5,-379.79 860.5,-379.79 854.5,-373.79 854.5,-367.79 854.5,-367.79 854.5,-355.79 854.5,-355.79 854.5,-349.79 860.5,-343.79 866.5,-343.79"/>
<text text-anchor="middle" x="890" y="-358.09" font-family="Arial" font-size="14.00">audience</text>
</g>
<!-- baseTopicElements&#45;&gt;audience -->
<g id="edge14" class="edge">
<title>baseTopicElements&#45;&gt;audience</title>
<path fill="none" stroke="#1f78b4" d="M582.86,-376.78C659.64,-373.03 778.74,-367.22 843.76,-364.05"/>
<polygon fill="#a6cee3" stroke="#1f78b4" points="844.29,-367.53 854.11,-363.54 843.95,-360.54 844.29,-367.53"/>
</g>
<!-- keywords -->
<g id="node16" class="node">
<title>keywords</title>
<path fill="#bfcfff" stroke="black" d="M869.83,-388.81C869.83,-388.81 919.83,-388.81 919.83,-388.81 925.83,-388.81 931.83,-394.81 931.83,-400.81 931.83,-400.81 931.83,-412.81 931.83,-412.81 931.83,-418.81 925.83,-424.81 919.83,-424.81 919.83,-424.81 869.83,-424.81 869.83,-424.81 863.83,-424.81 857.83,-418.81 857.83,-412.81 857.83,-412.81 857.83,-400.81 857.83,-400.81 857.83,-394.81 863.83,-388.81 869.83,-388.81"/>
<text text-anchor="middle" x="894.83" y="-403.11" font-family="Arial" font-size="14.00">keywords</text>
</g>
<!-- baseTopicElements&#45;&gt;keywords -->
<g id="edge15" class="edge">
<title>baseTopicElements&#45;&gt;keywords</title>
<path fill="none" stroke="#1f78b4" d="M582.88,-385.29C660.46,-390.64 781.46,-398.99 847.65,-403.55"/>
<polygon fill="#a6cee3" stroke="#1f78b4" points="847.57,-407.06 857.79,-404.25 848.05,-400.07 847.57,-407.06"/>
</g>
<!-- prodinfo -->
<g id="node17" class="node">
<title>prodinfo</title>
<path fill="#bfcfff" stroke="black" d="M246.24,-451.73C246.24,-451.73 287.24,-451.73 287.24,-451.73 293.24,-451.73 299.24,-457.73 299.24,-463.73 299.24,-463.73 299.24,-475.73 299.24,-475.73 299.24,-481.73 293.24,-487.73 287.24,-487.73 287.24,-487.73 246.24,-487.73 246.24,-487.73 240.24,-487.73 234.24,-481.73 234.24,-475.73 234.24,-475.73 234.24,-463.73 234.24,-463.73 234.24,-457.73 240.24,-451.73 246.24,-451.73"/>
<text text-anchor="middle" x="266.74" y="-466.03" font-family="Arial" font-size="14.00">prodinfo</text>
</g>
<!-- baseTopicElements&#45;&gt;prodinfo -->
<g id="edge16" class="edge">
<title>baseTopicElements&#45;&gt;prodinfo</title>
<path fill="none" stroke="#1f78b4" d="M461.26,-398.4C416.46,-414.83 351.09,-438.8 308.74,-454.33"/>
<polygon fill="#a6cee3" stroke="#1f78b4" points="307.46,-451.07 299.28,-457.8 309.87,-457.64 307.46,-451.07"/>
</g>
<!-- prodname -->
<g id="node18" class="node">
<title>prodname</title>
<path fill="#bfcfff" stroke="black" d="M860.04,-208.67C860.04,-208.67 914.04,-208.67 914.04,-208.67 920.04,-208.67 926.04,-214.67 926.04,-220.67 926.04,-220.67 926.04,-232.67 926.04,-232.67 926.04,-238.67 920.04,-244.67 914.04,-244.67 914.04,-244.67 860.04,-244.67 860.04,-244.67 854.04,-244.67 848.04,-238.67 848.04,-232.67 848.04,-232.67 848.04,-220.67 848.04,-220.67 848.04,-214.67 854.04,-208.67 860.04,-208.67"/>
<text text-anchor="middle" x="887.04" y="-222.97" font-family="Arial" font-size="14.00">prodname</text>
</g>
<!-- baseTopicElements&#45;&gt;prodname -->
<g id="edge17" class="edge">
<title>baseTopicElements&#45;&gt;prodname</title>
<path fill="none" stroke="#1f78b4" d="M554.9,-362.23C625.95,-333.23 764.88,-276.53 838.53,-246.47"/>
<polygon fill="#a6cee3" stroke="#1f78b4" points="840.1,-249.61 848.04,-242.59 837.46,-243.13 840.1,-249.61"/>
</g>
<!-- vrmlist -->
<g id="node19" class="node">
<title>vrmlist</title>
<path fill="#bfcfff" stroke="black" d="M727.06,-427.05C727.06,-427.05 759.06,-427.05 759.06,-427.05 765.06,-427.05 771.06,-433.05 771.06,-439.05 771.06,-439.05 771.06,-451.05 771.06,-451.05 771.06,-457.05 765.06,-463.05 759.06,-463.05 759.06,-463.05 727.06,-463.05 727.06,-463.05 721.06,-463.05 715.06,-457.05 715.06,-451.05 715.06,-451.05 715.06,-439.05 715.06,-439.05 715.06,-433.05 721.06,-427.05 727.06,-427.05"/>
<text text-anchor="middle" x="743.06" y="-441.35" font-family="Arial" font-size="14.00">vrmlist</text>
</g>
<!-- baseTopicElements&#45;&gt;vrmlist -->
<g id="edge18" class="edge">
<title>baseTopicElements&#45;&gt;vrmlist</title>
<path fill="none" stroke="#1f78b4" d="M575.36,-398.34C617.05,-409.95 669.82,-424.65 704.92,-434.43"/>
<polygon fill="#a6cee3" stroke="#1f78b4" points="704.19,-437.86 714.76,-437.17 706.07,-431.12 704.19,-437.86"/>
</g>
<!-- vrm -->
<g id="node20" class="node">
<title>vrm</title>
<path fill="#bfcfff" stroke="black" d="M237.35,-365.46C237.35,-365.46 267.35,-365.46 267.35,-365.46 273.35,-365.46 279.35,-371.46 279.35,-377.46 279.35,-377.46 279.35,-389.46 279.35,-389.46 279.35,-395.46 273.35,-401.46 267.35,-401.46 267.35,-401.46 237.35,-401.46 237.35,-401.46 231.35,-401.46 225.35,-395.46 225.35,-389.46 225.35,-389.46 225.35,-377.46 225.35,-377.46 225.35,-371.46 231.35,-365.46 237.35,-365.46"/>
<text text-anchor="middle" x="252.35" y="-379.76" font-family="Arial" font-size="14.00">vrm</text>
</g>
<!-- baseTopicElements&#45;&gt;vrm -->
<g id="edge19" class="edge">
<title>baseTopicElements&#45;&gt;vrm</title>
<path fill="none" stroke="#1f78b4" d="M438.33,-381.19C390.04,-381.78 328.5,-382.53 289.75,-383.01"/>
<polygon fill="#a6cee3" stroke="#1f78b4" points="289.41,-379.51 279.46,-383.13 289.5,-386.51 289.41,-379.51"/>
</g>
<!-- brand -->
<g id="node21" class="node">
<title>brand</title>
<path fill="#bfcfff" stroke="black" d="M319.78,-573.23C319.78,-573.23 349.78,-573.23 349.78,-573.23 355.78,-573.23 361.78,-579.23 361.78,-585.23 361.78,-585.23 361.78,-597.23 361.78,-597.23 361.78,-603.23 355.78,-609.23 349.78,-609.23 349.78,-609.23 319.78,-609.23 319.78,-609.23 313.78,-609.23 307.78,-603.23 307.78,-597.23 307.78,-597.23 307.78,-585.23 307.78,-585.23 307.78,-579.23 313.78,-573.23 319.78,-573.23"/>
<text text-anchor="middle" x="334.78" y="-587.53" font-family="Arial" font-size="14.00">brand</text>
</g>
<!-- baseTopicElements&#45;&gt;brand -->
<g id="edge20" class="edge">
<title>baseTopicElements&#45;&gt;brand</title>
<path fill="none" stroke="#1f78b4" d="M495.32,-398.66C464,-436.23 392.49,-522 356.43,-565.27"/>
<polygon fill="#a6cee3" stroke="#1f78b4" points="353.63,-563.15 349.92,-573.08 359.01,-567.64 353.63,-563.15"/>
</g>
<!-- series -->
<g id="node22" class="node">
<title>series</title>
<path fill="#bfcfff" stroke="black" d="M771.75,-267.1C771.75,-267.1 801.75,-267.1 801.75,-267.1 807.75,-267.1 813.75,-273.1 813.75,-279.1 813.75,-279.1 813.75,-291.1 813.75,-291.1 813.75,-297.1 807.75,-303.1 801.75,-303.1 801.75,-303.1 771.75,-303.1 771.75,-303.1 765.75,-303.1 759.75,-297.1 759.75,-291.1 759.75,-291.1 759.75,-279.1 759.75,-279.1 759.75,-273.1 765.75,-267.1 771.75,-267.1"/>
<text text-anchor="middle" x="786.75" y="-281.4" font-family="Arial" font-size="14.00">series</text>
</g>
<!-- baseTopicElements&#45;&gt;series -->
<g id="edge21" class="edge">
<title>baseTopicElements&#45;&gt;series</title>
<path fill="none" stroke="#1f78b4" d="M562.88,-362.29C617.47,-343.46 701.72,-314.41 749.78,-297.84"/>
<polygon fill="#a6cee3" stroke="#1f78b4" points="751.15,-301.07 759.47,-294.5 748.87,-294.45 751.15,-301.07"/>
</g>
<!-- platform -->
<g id="node23" class="node">
<title>platform</title>
<path fill="#bfcfff" stroke="black" d="M467.4,-160.16C467.4,-160.16 509.4,-160.16 509.4,-160.16 515.4,-160.16 521.4,-166.16 521.4,-172.16 521.4,-172.16 521.4,-184.16 521.4,-184.16 521.4,-190.16 515.4,-196.16 509.4,-196.16 509.4,-196.16 467.4,-196.16 467.4,-196.16 461.4,-196.16 455.4,-190.16 455.4,-184.16 455.4,-184.16 455.4,-172.16 455.4,-172.16 455.4,-166.16 461.4,-160.16 467.4,-160.16"/>
<text text-anchor="middle" x="488.4" y="-174.46" font-family="Arial" font-size="14.00">platform</text>
</g>
<!-- baseTopicElements&#45;&gt;platform -->
<g id="edge22" class="edge">
<title>baseTopicElements&#45;&gt;platform</title>
<path fill="none" stroke="#1f78b4" d="M508.6,-362.01C504.71,-326.61 496.13,-248.51 491.5,-206.4"/>
<polygon fill="#a6cee3" stroke="#1f78b4" points="494.96,-205.82 490.39,-196.27 488,-206.59 494.96,-205.82"/>
</g>
<!-- prognum -->
<g id="node24" class="node">
<title>prognum</title>
<path fill="#bfcfff" stroke="black" d="M358.76,-227.66C358.76,-227.66 405.76,-227.66 405.76,-227.66 411.76,-227.66 417.76,-233.66 417.76,-239.66 417.76,-239.66 417.76,-251.66 417.76,-251.66 417.76,-257.66 411.76,-263.66 405.76,-263.66 405.76,-263.66 358.76,-263.66 358.76,-263.66 352.76,-263.66 346.76,-257.66 346.76,-251.66 346.76,-251.66 346.76,-239.66 346.76,-239.66 346.76,-233.66 352.76,-227.66 358.76,-227.66"/>
<text text-anchor="middle" x="382.26" y="-241.96" font-family="Arial" font-size="14.00">prognum</text>
</g>
<!-- baseTopicElements&#45;&gt;prognum -->
<g id="edge23" class="edge">
<title>baseTopicElements&#45;&gt;prognum</title>
<path fill="none" stroke="#1f78b4" d="M493.3,-362.15C471.01,-338.76 432.11,-297.96 406.78,-271.38"/>
<polygon fill="#a6cee3" stroke="#1f78b4" points="409.14,-268.78 399.7,-263.96 404.07,-273.61 409.14,-268.78"/>
</g>
<!-- featnum -->
<g id="node25" class="node">
<title>featnum</title>
<path fill="#bfcfff" stroke="black" d="M843.12,-298.77C843.12,-298.77 885.12,-298.77 885.12,-298.77 891.12,-298.77 897.12,-304.77 897.12,-310.77 897.12,-310.77 897.12,-322.77 897.12,-322.77 897.12,-328.77 891.12,-334.77 885.12,-334.77 885.12,-334.77 843.12,-334.77 843.12,-334.77 837.12,-334.77 831.12,-328.77 831.12,-322.77 831.12,-322.77 831.12,-310.77 831.12,-310.77 831.12,-304.77 837.12,-298.77 843.12,-298.77"/>
<text text-anchor="middle" x="864.12" y="-313.07" font-family="Arial" font-size="14.00">featnum</text>
</g>
<!-- baseTopicElements&#45;&gt;featnum -->
<g id="edge24" class="edge">
<title>baseTopicElements&#45;&gt;featnum</title>
<path fill="none" stroke="#1f78b4" d="M583,-367.29C654.46,-354.45 761.38,-335.23 820.64,-324.58"/>
<polygon fill="#a6cee3" stroke="#1f78b4" points="821.56,-327.97 830.78,-322.76 820.32,-321.08 821.56,-327.97"/>
</g>
<!-- component -->
<g id="node26" class="node">
<title>component</title>
<path fill="#bfcfff" stroke="black" d="M463.11,-577.99C463.11,-577.99 523.11,-577.99 523.11,-577.99 529.11,-577.99 535.11,-583.99 535.11,-589.99 535.11,-589.99 535.11,-601.99 535.11,-601.99 535.11,-607.99 529.11,-613.99 523.11,-613.99 523.11,-613.99 463.11,-613.99 463.11,-613.99 457.11,-613.99 451.11,-607.99 451.11,-601.99 451.11,-601.99 451.11,-589.99 451.11,-589.99 451.11,-583.99 457.11,-577.99 463.11,-577.99"/>
<text text-anchor="middle" x="493.11" y="-592.29" font-family="Arial" font-size="14.00">component</text>
</g>
<!-- baseTopicElements&#45;&gt;component -->
<g id="edge25" class="edge">
<title>baseTopicElements&#45;&gt;component</title>
<path fill="none" stroke="#1f78b4" d="M509.15,-398.32C506.11,-435.83 499.07,-522.54 495.41,-567.62"/>
<polygon fill="#a6cee3" stroke="#1f78b4" points="491.9,-567.62 494.58,-577.87 498.88,-568.18 491.9,-567.62"/>
</g>
<!-- othermeta -->
<g id="node27" class="node">
<title>othermeta</title>
<path fill="#bfcfff" stroke="black" d="M373.76,-618.31C373.76,-618.31 427.76,-618.31 427.76,-618.31 433.76,-618.31 439.76,-624.31 439.76,-630.31 439.76,-630.31 439.76,-642.31 439.76,-642.31 439.76,-648.31 433.76,-654.31 427.76,-654.31 427.76,-654.31 373.76,-654.31 373.76,-654.31 367.76,-654.31 361.76,-648.31 361.76,-642.31 361.76,-642.31 361.76,-630.31 361.76,-630.31 361.76,-624.31 367.76,-618.31 373.76,-618.31"/>
<text text-anchor="middle" x="400.76" y="-632.61" font-family="Arial" font-size="14.00">othermeta</text>
</g>
<!-- baseTopicElements&#45;&gt;othermeta -->
<g id="edge26" class="edge">
<title>baseTopicElements&#45;&gt;othermeta</title>
<path fill="none" stroke="#1f78b4" d="M502.89,-398.31C483.98,-442.36 435.29,-555.82 412.66,-608.57"/>
<polygon fill="#a6cee3" stroke="#1f78b4" points="409.35,-607.41 408.62,-617.98 415.78,-610.17 409.35,-607.41"/>
</g>
<!-- resourceid -->
<g id="node28" class="node">
<title>resourceid</title>
<path fill="#bfcfff" stroke="black" d="M698.61,-218.84C698.61,-218.84 754.61,-218.84 754.61,-218.84 760.61,-218.84 766.61,-224.84 766.61,-230.84 766.61,-230.84 766.61,-242.84 766.61,-242.84 766.61,-248.84 760.61,-254.84 754.61,-254.84 754.61,-254.84 698.61,-254.84 698.61,-254.84 692.61,-254.84 686.61,-248.84 686.61,-242.84 686.61,-242.84 686.61,-230.84 686.61,-230.84 686.61,-224.84 692.61,-218.84 698.61,-218.84"/>
<text text-anchor="middle" x="726.61" y="-233.14" font-family="Arial" font-size="14.00">resourceid</text>
</g>
<!-- baseTopicElements&#45;&gt;resourceid -->
<g id="edge27" class="edge">
<title>baseTopicElements&#45;&gt;resourceid</title>
<path fill="none" stroke="#1f78b4" d="M537.97,-362.14C576.84,-336.32 648.09,-289 691.02,-260.48"/>
<polygon fill="#a6cee3" stroke="#1f78b4" points="693.08,-263.31 699.47,-254.87 689.21,-257.48 693.08,-263.31"/>
</g>
<!-- table -->
<g id="node29" class="node">
<title>table</title>
<path fill="#bfcfff" stroke="black" d="M212.56,-274.08C212.56,-274.08 242.56,-274.08 242.56,-274.08 248.56,-274.08 254.56,-280.08 254.56,-286.08 254.56,-286.08 254.56,-298.08 254.56,-298.08 254.56,-304.08 248.56,-310.08 242.56,-310.08 242.56,-310.08 212.56,-310.08 212.56,-310.08 206.56,-310.08 200.56,-304.08 200.56,-298.08 200.56,-298.08 200.56,-286.08 200.56,-286.08 200.56,-280.08 206.56,-274.08 212.56,-274.08"/>
<text text-anchor="middle" x="227.56" y="-288.38" font-family="Arial" font-size="14.00">table</text>
</g>
<!-- baseTopicElements&#45;&gt;table -->
<g id="edge28" class="edge">
<title>baseTopicElements&#45;&gt;table</title>
<path fill="none" stroke="#1f78b4" d="M452.65,-362.24C396.18,-344.64 312.04,-318.42 264.24,-303.52"/>
<polygon fill="#a6cee3" stroke="#1f78b4" points="265.21,-300.15 254.62,-300.52 263.12,-306.83 265.21,-300.15"/>
</g>
<!-- tgroup -->
<g id="node30" class="node">
<title>tgroup</title>
<path fill="#bfcfff" stroke="black" d="M734.16,-77.27C734.16,-77.27 765.16,-77.27 765.16,-77.27 771.16,-77.27 777.16,-83.27 777.16,-89.27 777.16,-89.27 777.16,-101.27 777.16,-101.27 777.16,-107.27 771.16,-113.27 765.16,-113.27 765.16,-113.27 734.16,-113.27 734.16,-113.27 728.16,-113.27 722.16,-107.27 722.16,-101.27 722.16,-101.27 722.16,-89.27 722.16,-89.27 722.16,-83.27 728.16,-77.27 734.16,-77.27"/>
<text text-anchor="middle" x="749.66" y="-91.57" font-family="Arial" font-size="14.00">tgroup</text>
</g>
<!-- baseTopicElements&#45;&gt;tgroup -->
<g id="edge29" class="edge">
<title>baseTopicElements&#45;&gt;tgroup</title>
<path fill="none" stroke="#1f78b4" d="M525.93,-362.04C567.08,-312.97 680.15,-178.15 727.91,-121.2"/>
<polygon fill="#a6cee3" stroke="#1f78b4" points="730.72,-123.3 734.47,-113.39 725.36,-118.8 730.72,-123.3"/>
</g>
<!-- colspec -->
<g id="node31" class="node">
<title>colspec</title>
<path fill="#bfcfff" stroke="black" d="M724.43,-169.56C724.43,-169.56 762.43,-169.56 762.43,-169.56 768.43,-169.56 774.43,-175.56 774.43,-181.56 774.43,-181.56 774.43,-193.56 774.43,-193.56 774.43,-199.56 768.43,-205.56 762.43,-205.56 762.43,-205.56 724.43,-205.56 724.43,-205.56 718.43,-205.56 712.43,-199.56 712.43,-193.56 712.43,-193.56 712.43,-181.56 712.43,-181.56 712.43,-175.56 718.43,-169.56 724.43,-169.56"/>
<text text-anchor="middle" x="743.43" y="-183.86" font-family="Arial" font-size="14.00">colspec</text>
</g>
<!-- baseTopicElements&#45;&gt;colspec -->
<g id="edge30" class="edge">
<title>baseTopicElements&#45;&gt;colspec</title>
<path fill="none" stroke="#1f78b4" d="M532.52,-362.17C574.46,-327.45 666.17,-251.52 713.64,-212.23"/>
<polygon fill="#a6cee3" stroke="#1f78b4" points="715.95,-214.86 721.42,-205.79 711.48,-209.47 715.95,-214.86"/>
</g>
<!-- thead -->
<g id="node32" class="node">
<title>thead</title>
<path fill="#bfcfff" stroke="black" d="M773.09,-333.5C773.09,-333.5 803.09,-333.5 803.09,-333.5 809.09,-333.5 815.09,-339.5 815.09,-345.5 815.09,-345.5 815.09,-357.5 815.09,-357.5 815.09,-363.5 809.09,-369.5 803.09,-369.5 803.09,-369.5 773.09,-369.5 773.09,-369.5 767.09,-369.5 761.09,-363.5 761.09,-357.5 761.09,-357.5 761.09,-345.5 761.09,-345.5 761.09,-339.5 767.09,-333.5 773.09,-333.5"/>
<text text-anchor="middle" x="788.09" y="-347.8" font-family="Arial" font-size="14.00">thead</text>
</g>
<!-- baseTopicElements&#45;&gt;thead -->
<g id="edge31" class="edge">
<title>baseTopicElements&#45;&gt;thead</title>
<path fill="none" stroke="#1f78b4" d="M582.79,-372.81C636.64,-367.22 708.02,-359.81 750.87,-355.37"/>
<polygon fill="#a6cee3" stroke="#1f78b4" points="751.27,-358.84 760.86,-354.33 750.55,-351.88 751.27,-358.84"/>
</g>
<!-- tbody -->
<g id="node33" class="node">
<title>tbody</title>
<path fill="#bfcfff" stroke="black" d="M784.25,-613.21C784.25,-613.21 814.25,-613.21 814.25,-613.21 820.25,-613.21 826.25,-619.21 826.25,-625.21 826.25,-625.21 826.25,-637.21 826.25,-637.21 826.25,-643.21 820.25,-649.21 814.25,-649.21 814.25,-649.21 784.25,-649.21 784.25,-649.21 778.25,-649.21 772.25,-643.21 772.25,-637.21 772.25,-637.21 772.25,-625.21 772.25,-625.21 772.25,-619.21 778.25,-613.21 784.25,-613.21"/>
<text text-anchor="middle" x="799.25" y="-627.51" font-family="Arial" font-size="14.00">tbody</text>
</g>
<!-- baseTopicElements&#45;&gt;tbody -->
<g id="edge32" class="edge">
<title>baseTopicElements&#45;&gt;tbody</title>
<path fill="none" stroke="#1f78b4" d="M531.37,-398.35C582.11,-442.46 712.51,-555.8 770.59,-606.3"/>
<polygon fill="#a6cee3" stroke="#1f78b4" points="768.45,-609.07 778.29,-612.99 773.04,-603.79 768.45,-609.07"/>
</g>
<!-- row -->
<g id="node34" class="node">
<title>row</title>
<path fill="#bfcfff" stroke="black" d="M509.84,-2.2C509.84,-2.2 539.84,-2.2 539.84,-2.2 545.84,-2.2 551.84,-8.2 551.84,-14.2 551.84,-14.2 551.84,-26.2 551.84,-26.2 551.84,-32.2 545.84,-38.2 539.84,-38.2 539.84,-38.2 509.84,-38.2 509.84,-38.2 503.84,-38.2 497.84,-32.2 497.84,-26.2 497.84,-26.2 497.84,-14.2 497.84,-14.2 497.84,-8.2 503.84,-2.2 509.84,-2.2"/>
<text text-anchor="middle" x="524.84" y="-16.5" font-family="Arial" font-size="14.00">row</text>
</g>
<!-- baseTopicElements&#45;&gt;row -->
<g id="edge33" class="edge">
<title>baseTopicElements&#45;&gt;row</title>
<path fill="none" stroke="#1f78b4" d="M511.34,-361.95C513.66,-303.2 520.92,-119.43 523.72,-48.52"/>
<polygon fill="#a6cee3" stroke="#1f78b4" points="527.22,-48.65 524.12,-38.52 520.23,-48.37 527.22,-48.65"/>
</g>
<!-- entry -->
<g id="node35" class="node">
<title>entry</title>
<path fill="#bfcfff" stroke="black" d="M219.79,-319.1C219.79,-319.1 249.79,-319.1 249.79,-319.1 255.79,-319.1 261.79,-325.1 261.79,-331.1 261.79,-331.1 261.79,-343.1 261.79,-343.1 261.79,-349.1 255.79,-355.1 249.79,-355.1 249.79,-355.1 219.79,-355.1 219.79,-355.1 213.79,-355.1 207.79,-349.1 207.79,-343.1 207.79,-343.1 207.79,-331.1 207.79,-331.1 207.79,-325.1 213.79,-319.1 219.79,-319.1"/>
<text text-anchor="middle" x="234.79" y="-333.4" font-family="Arial" font-size="14.00">entry</text>
</g>
<!-- baseTopicElements&#45;&gt;entry -->
<g id="edge34" class="edge">
<title>baseTopicElements&#45;&gt;entry</title>
<path fill="none" stroke="#1f78b4" d="M438.5,-369.01C385.12,-360.65 314.56,-349.6 272.04,-342.94"/>
<polygon fill="#a6cee3" stroke="#1f78b4" points="272.54,-339.47 262.12,-341.38 271.45,-346.39 272.54,-339.47"/>
</g>
<!-- data -->
<g id="node36" class="node">
<title>data</title>
<path fill="#bfcfff" stroke="black" d="M323.78,-43.48C323.78,-43.48 353.78,-43.48 353.78,-43.48 359.78,-43.48 365.78,-49.48 365.78,-55.48 365.78,-55.48 365.78,-67.48 365.78,-67.48 365.78,-73.48 359.78,-79.48 353.78,-79.48 353.78,-79.48 323.78,-79.48 323.78,-79.48 317.78,-79.48 311.78,-73.48 311.78,-67.48 311.78,-67.48 311.78,-55.48 311.78,-55.48 311.78,-49.48 317.78,-43.48 323.78,-43.48"/>
<text text-anchor="middle" x="338.78" y="-57.78" font-family="Arial" font-size="14.00">data</text>
</g>
<!-- baseTopicElements&#45;&gt;data -->
<g id="edge35" class="edge">
<title>baseTopicElements&#45;&gt;data</title>
<path fill="none" stroke="#1f78b4" d="M500.88,-362.25C472.18,-309 387.75,-152.34 353.48,-88.76"/>
<polygon fill="#a6cee3" stroke="#1f78b4" points="356.44,-86.88 348.61,-79.73 350.28,-90.2 356.44,-86.88"/>
</g>
<!-- unknown -->
<g id="node37" class="node">
<title>unknown</title>
<path fill="#bfcfff" stroke="black" d="M251.74,-667.83C251.74,-667.83 298.74,-667.83 298.74,-667.83 304.74,-667.83 310.74,-673.83 310.74,-679.83 310.74,-679.83 310.74,-691.83 310.74,-691.83 310.74,-697.83 304.74,-703.83 298.74,-703.83 298.74,-703.83 251.74,-703.83 251.74,-703.83 245.74,-703.83 239.74,-697.83 239.74,-691.83 239.74,-691.83 239.74,-679.83 239.74,-679.83 239.74,-673.83 245.74,-667.83 251.74,-667.83"/>
<text text-anchor="middle" x="275.24" y="-682.13" font-family="Arial" font-size="14.00">unknown</text>
</g>
<!-- baseTopicElements&#45;&gt;unknown -->
<g id="edge36" class="edge">
<title>baseTopicElements&#45;&gt;unknown</title>
<path fill="none" stroke="#1f78b4" d="M496.59,-398.5C456.61,-450.4 341.91,-599.29 295.3,-659.79"/>
<polygon fill="#a6cee3" stroke="#1f78b4" points="292.52,-657.67 289.19,-667.72 298.06,-661.94 292.52,-657.67"/>
</g>
<!-- foreign -->
<g id="node38" class="node">
<title>foreign</title>
<path fill="#bfcfff" stroke="black" d="M406.87,-668.06C406.87,-668.06 440.87,-668.06 440.87,-668.06 446.87,-668.06 452.87,-674.06 452.87,-680.06 452.87,-680.06 452.87,-692.06 452.87,-692.06 452.87,-698.06 446.87,-704.06 440.87,-704.06 440.87,-704.06 406.87,-704.06 406.87,-704.06 400.87,-704.06 394.87,-698.06 394.87,-692.06 394.87,-692.06 394.87,-680.06 394.87,-680.06 394.87,-674.06 400.87,-668.06 406.87,-668.06"/>
<text text-anchor="middle" x="423.87" y="-682.36" font-family="Arial" font-size="14.00">foreign</text>
</g>
<!-- baseTopicElements&#45;&gt;foreign -->
<g id="edge37" class="edge">
<title>baseTopicElements&#45;&gt;foreign</title>
<path fill="none" stroke="#1f78b4" d="M505.45,-398.52C490.86,-449.93 449.3,-596.42 431.8,-658.13"/>
<polygon fill="#a6cee3" stroke="#1f78b4" points="428.37,-657.37 429.01,-667.95 435.11,-659.28 428.37,-657.37"/>
</g>
<!-- title -->
<g id="node39" class="node">
<title>title</title>
<path fill="#bfcfff" stroke="black" d="M343.27,-667.57C343.27,-667.57 373.27,-667.57 373.27,-667.57 379.27,-667.57 385.27,-673.57 385.27,-679.57 385.27,-679.57 385.27,-691.57 385.27,-691.57 385.27,-697.57 379.27,-703.57 373.27,-703.57 373.27,-703.57 343.27,-703.57 343.27,-703.57 337.27,-703.57 331.27,-697.57 331.27,-691.57 331.27,-691.57 331.27,-679.57 331.27,-679.57 331.27,-673.57 337.27,-667.57 343.27,-667.57"/>
<text text-anchor="middle" x="358.27" y="-681.87" font-family="Arial" font-size="14.00">title</text>
</g>
<!-- baseTopicElements&#45;&gt;title -->
<g id="edge38" class="edge">
<title>baseTopicElements&#45;&gt;title</title>
<path fill="none" stroke="#1f78b4" d="M501.54,-398.49C475.82,-450.03 402.33,-597.29 371.81,-658.44"/>
<polygon fill="#a6cee3" stroke="#1f78b4" points="368.63,-656.97 367.3,-667.49 374.9,-660.1 368.63,-656.97"/>
</g>
<!-- titlealt -->
<g id="node40" class="node">
<title>titlealt</title>
<path fill="#bfcfff" stroke="black" d="M494.23,-723.31C494.23,-723.31 524.23,-723.31 524.23,-723.31 530.23,-723.31 536.23,-729.31 536.23,-735.31 536.23,-735.31 536.23,-747.31 536.23,-747.31 536.23,-753.31 530.23,-759.31 524.23,-759.31 524.23,-759.31 494.23,-759.31 494.23,-759.31 488.23,-759.31 482.23,-753.31 482.23,-747.31 482.23,-747.31 482.23,-735.31 482.23,-735.31 482.23,-729.31 488.23,-723.31 494.23,-723.31"/>
<text text-anchor="middle" x="509.23" y="-737.61" font-family="Arial" font-size="14.00">titlealt</text>
</g>
<!-- baseTopicElements&#45;&gt;titlealt -->
<g id="edge39" class="edge">
<title>baseTopicElements&#45;&gt;titlealt</title>
<path fill="none" stroke="#1f78b4" d="M510.54,-398.71C510.32,-457.61 509.61,-641.83 509.34,-712.93"/>
<polygon fill="#a6cee3" stroke="#1f78b4" points="505.84,-712.94 509.3,-722.95 512.84,-712.96 505.84,-712.94"/>
</g>
<!-- desc -->
<g id="node41" class="node">
<title>desc</title>
<path fill="#bfcfff" stroke="black" d="M257.74,-570.24C257.74,-570.24 287.74,-570.24 287.74,-570.24 293.74,-570.24 299.74,-576.24 299.74,-582.24 299.74,-582.24 299.74,-594.24 299.74,-594.24 299.74,-600.24 293.74,-606.24 287.74,-606.24 287.74,-606.24 257.74,-606.24 257.74,-606.24 251.74,-606.24 245.74,-600.24 245.74,-594.24 245.74,-594.24 245.74,-582.24 245.74,-582.24 245.74,-576.24 251.74,-570.24 257.74,-570.24"/>
<text text-anchor="middle" x="272.74" y="-584.54" font-family="Arial" font-size="14.00">desc</text>
</g>
<!-- baseTopicElements&#45;&gt;desc -->
<g id="edge40" class="edge">
<title>baseTopicElements&#45;&gt;desc</title>
<path fill="none" stroke="#1f78b4" d="M489.92,-398.4C447.3,-435.65 349.69,-520.98 301.18,-563.38"/>
<polygon fill="#a6cee3" stroke="#1f78b4" points="298.78,-560.83 293.55,-570.05 303.39,-566.1 298.78,-560.83"/>
</g>
<!-- shortdesc -->
<g id="node42" class="node">
<title>shortdesc</title>
<path fill="#bfcfff" stroke="black" d="M800.03,-122.43C800.03,-122.43 851.03,-122.43 851.03,-122.43 857.03,-122.43 863.03,-128.43 863.03,-134.43 863.03,-134.43 863.03,-146.43 863.03,-146.43 863.03,-152.43 857.03,-158.43 851.03,-158.43 851.03,-158.43 800.03,-158.43 800.03,-158.43 794.03,-158.43 788.03,-152.43 788.03,-146.43 788.03,-146.43 788.03,-134.43 788.03,-134.43 788.03,-128.43 794.03,-122.43 800.03,-122.43"/>
<text text-anchor="middle" x="825.53" y="-136.73" font-family="Arial" font-size="14.00">shortdesc</text>
</g>
<!-- baseTopicElements&#45;&gt;shortdesc -->
<g id="edge41" class="edge">
<title>baseTopicElements&#45;&gt;shortdesc</title>
<path fill="none" stroke="#1f78b4" d="M534.28,-362.28C590.13,-319.73 730.19,-213.05 793.53,-164.8"/>
<polygon fill="#a6cee3" stroke="#1f78b4" points="795.75,-167.51 801.58,-158.67 791.51,-161.94 795.75,-167.51"/>
</g>
<!-- p -->
<g id="node43" class="node">
<title>p</title>
<path fill="#bfcfff" stroke="black" d="M459.77,-623.03C459.77,-623.03 489.77,-623.03 489.77,-623.03 495.77,-623.03 501.77,-629.03 501.77,-635.03 501.77,-635.03 501.77,-647.03 501.77,-647.03 501.77,-653.03 495.77,-659.03 489.77,-659.03 489.77,-659.03 459.77,-659.03 459.77,-659.03 453.77,-659.03 447.77,-653.03 447.77,-647.03 447.77,-647.03 447.77,-635.03 447.77,-635.03 447.77,-629.03 453.77,-623.03 459.77,-623.03"/>
<text text-anchor="middle" x="474.77" y="-637.33" font-family="Arial" font-size="14.00">p</text>
</g>
<!-- baseTopicElements&#45;&gt;p -->
<g id="edge42" class="edge">
<title>baseTopicElements&#45;&gt;p</title>
<path fill="none" stroke="#1f78b4" d="M508.09,-398.64C501.94,-443.42 486.1,-558.65 478.69,-612.5"/>
<polygon fill="#a6cee3" stroke="#1f78b4" points="475.19,-612.33 477.29,-622.71 482.12,-613.28 475.19,-612.33"/>
</g>
<!-- note -->
<g id="node44" class="node">
<title>note</title>
<path fill="#bfcfff" stroke="black" d="M797.2,-167.51C797.2,-167.51 827.2,-167.51 827.2,-167.51 833.2,-167.51 839.2,-173.51 839.2,-179.51 839.2,-179.51 839.2,-191.51 839.2,-191.51 839.2,-197.51 833.2,-203.51 827.2,-203.51 827.2,-203.51 797.2,-203.51 797.2,-203.51 791.2,-203.51 785.2,-197.51 785.2,-191.51 785.2,-191.51 785.2,-179.51 785.2,-179.51 785.2,-173.51 791.2,-167.51 797.2,-167.51"/>
<text text-anchor="middle" x="812.2" y="-181.81" font-family="Arial" font-size="14.00">note</text>
</g>
<!-- baseTopicElements&#45;&gt;note -->
<g id="edge43" class="edge">
<title>baseTopicElements&#45;&gt;note</title>
<path fill="none" stroke="#1f78b4" d="M538.71,-362.15C593.77,-326.6 715.73,-247.82 776.44,-208.61"/>
<polygon fill="#a6cee3" stroke="#1f78b4" points="778.43,-211.48 784.94,-203.12 774.64,-205.6 778.43,-211.48"/>
</g>
<!-- lq -->
<g id="node45" class="node">
<title>lq</title>
<path fill="#bfcfff" stroke="black" d="M791.54,-214.58C791.54,-214.58 821.54,-214.58 821.54,-214.58 827.54,-214.58 833.54,-220.58 833.54,-226.58 833.54,-226.58 833.54,-238.58 833.54,-238.58 833.54,-244.58 827.54,-250.58 821.54,-250.58 821.54,-250.58 791.54,-250.58 791.54,-250.58 785.54,-250.58 779.54,-244.58 779.54,-238.58 779.54,-238.58 779.54,-226.58 779.54,-226.58 779.54,-220.58 785.54,-214.58 791.54,-214.58"/>
<text text-anchor="middle" x="806.54" y="-228.88" font-family="Arial" font-size="14.00">lq</text>
</g>
<!-- baseTopicElements&#45;&gt;lq -->
<g id="edge44" class="edge">
<title>baseTopicElements&#45;&gt;lq</title>
<path fill="none" stroke="#1f78b4" d="M546.9,-362.19C603.77,-333.8 713.27,-279.14 770.19,-250.73"/>
<polygon fill="#a6cee3" stroke="#1f78b4" points="771.8,-253.83 779.18,-246.23 768.67,-247.57 771.8,-253.83"/>
</g>
<!-- q -->
<g id="node46" class="node">
<title>q</title>
<path fill="#bfcfff" stroke="black" d="M453.2,-110.21C453.2,-110.21 483.2,-110.21 483.2,-110.21 489.2,-110.21 495.2,-116.21 495.2,-122.21 495.2,-122.21 495.2,-134.21 495.2,-134.21 495.2,-140.21 489.2,-146.21 483.2,-146.21 483.2,-146.21 453.2,-146.21 453.2,-146.21 447.2,-146.21 441.2,-140.21 441.2,-134.21 441.2,-134.21 441.2,-122.21 441.2,-122.21 441.2,-116.21 447.2,-110.21 453.2,-110.21"/>
<text text-anchor="middle" x="468.2" y="-124.51" font-family="Arial" font-size="14.00">q</text>
</g>
<!-- baseTopicElements&#45;&gt;q -->
<g id="edge45" class="edge">
<title>baseTopicElements&#45;&gt;q</title>
<path fill="none" stroke="#1f78b4" d="M507.56,-362.18C500.26,-318.77 481.73,-208.6 472.95,-156.43"/>
<polygon fill="#a6cee3" stroke="#1f78b4" points="476.39,-155.8 471.28,-146.52 469.49,-156.96 476.39,-155.8"/>
</g>
<!-- sl -->
<g id="node47" class="node">
<title>sl</title>
<path fill="#bfcfff" stroke="black" d="M618.53,-688.3C618.53,-688.3 648.53,-688.3 648.53,-688.3 654.53,-688.3 660.53,-694.3 660.53,-700.3 660.53,-700.3 660.53,-712.3 660.53,-712.3 660.53,-718.3 654.53,-724.3 648.53,-724.3 648.53,-724.3 618.53,-724.3 618.53,-724.3 612.53,-724.3 606.53,-718.3 606.53,-712.3 606.53,-712.3 606.53,-700.3 606.53,-700.3 606.53,-694.3 612.53,-688.3 618.53,-688.3"/>
<text text-anchor="middle" x="633.53" y="-702.6" font-family="Arial" font-size="14.00">sl</text>
</g>
<!-- baseTopicElements&#45;&gt;sl -->
<g id="edge46" class="edge">
<title>baseTopicElements&#45;&gt;sl</title>
<path fill="none" stroke="#1f78b4" d="M517.57,-398.77C538.11,-453.23 598.53,-613.49 623.03,-678.46"/>
<polygon fill="#a6cee3" stroke="#1f78b4" points="619.84,-679.92 626.64,-688.04 626.39,-677.45 619.84,-679.92"/>
</g>
<!-- sli -->
<g id="node48" class="node">
<title>sli</title>
<path fill="#bfcfff" stroke="black" d="M556.3,-722.03C556.3,-722.03 586.3,-722.03 586.3,-722.03 592.3,-722.03 598.3,-728.03 598.3,-734.03 598.3,-734.03 598.3,-746.03 598.3,-746.03 598.3,-752.03 592.3,-758.03 586.3,-758.03 586.3,-758.03 556.3,-758.03 556.3,-758.03 550.3,-758.03 544.3,-752.03 544.3,-746.03 544.3,-746.03 544.3,-734.03 544.3,-734.03 544.3,-728.03 550.3,-722.03 556.3,-722.03"/>
<text text-anchor="middle" x="571.3" y="-736.33" font-family="Arial" font-size="14.00">sli</text>
</g>
<!-- baseTopicElements&#45;&gt;sli -->
<g id="edge47" class="edge">
<title>baseTopicElements&#45;&gt;sli</title>
<path fill="none" stroke="#1f78b4" d="M513.7,-398.64C523.61,-457.33 554.58,-640.9 566.53,-711.74"/>
<polygon fill="#a6cee3" stroke="#1f78b4" points="563.1,-712.45 568.21,-721.73 570,-711.29 563.1,-712.45"/>
</g>
<!-- ul -->
<g id="node49" class="node">
<title>ul</title>
<path fill="#bfcfff" stroke="black" d="M671.49,-81.54C671.49,-81.54 701.49,-81.54 701.49,-81.54 707.49,-81.54 713.49,-87.54 713.49,-93.54 713.49,-93.54 713.49,-105.54 713.49,-105.54 713.49,-111.54 707.49,-117.54 701.49,-117.54 701.49,-117.54 671.49,-117.54 671.49,-117.54 665.49,-117.54 659.49,-111.54 659.49,-105.54 659.49,-105.54 659.49,-93.54 659.49,-93.54 659.49,-87.54 665.49,-81.54 671.49,-81.54"/>
<text text-anchor="middle" x="686.49" y="-95.84" font-family="Arial" font-size="14.00">ul</text>
</g>
<!-- baseTopicElements&#45;&gt;ul -->
<g id="edge48" class="edge">
<title>baseTopicElements&#45;&gt;ul</title>
<path fill="none" stroke="#1f78b4" d="M522.15,-361.88C552.41,-313.58 634.15,-183.08 669.65,-126.41"/>
<polygon fill="#a6cee3" stroke="#1f78b4" points="672.79,-127.99 675.13,-117.66 666.86,-124.28 672.79,-127.99"/>
</g>
<!-- ol -->
<g id="node50" class="node">
<title>ol</title>
<path fill="#bfcfff" stroke="black" d="M696.45,-378.77C696.45,-378.77 726.45,-378.77 726.45,-378.77 732.45,-378.77 738.45,-384.77 738.45,-390.77 738.45,-390.77 738.45,-402.77 738.45,-402.77 738.45,-408.77 732.45,-414.77 726.45,-414.77 726.45,-414.77 696.45,-414.77 696.45,-414.77 690.45,-414.77 684.45,-408.77 684.45,-402.77 684.45,-402.77 684.45,-390.77 684.45,-390.77 684.45,-384.77 690.45,-378.77 696.45,-378.77"/>
<text text-anchor="middle" x="711.45" y="-393.07" font-family="Arial" font-size="14.00">ol</text>
</g>
<!-- baseTopicElements&#45;&gt;ol -->
<g id="edge49" class="edge">
<title>baseTopicElements&#45;&gt;ol</title>
<path fill="none" stroke="#1f78b4" d="M582.84,-386.23C613.67,-388.75 648.37,-391.6 673.95,-393.69"/>
<polygon fill="#a6cee3" stroke="#1f78b4" points="673.72,-397.19 683.97,-394.52 674.29,-390.21 673.72,-397.19"/>
</g>
<!-- li -->
<g id="node51" class="node">
<title>li</title>
<path fill="#bfcfff" stroke="black" d="M544.1,-47.25C544.1,-47.25 574.1,-47.25 574.1,-47.25 580.1,-47.25 586.1,-53.25 586.1,-59.25 586.1,-59.25 586.1,-71.25 586.1,-71.25 586.1,-77.25 580.1,-83.25 574.1,-83.25 574.1,-83.25 544.1,-83.25 544.1,-83.25 538.1,-83.25 532.1,-77.25 532.1,-71.25 532.1,-71.25 532.1,-59.25 532.1,-59.25 532.1,-53.25 538.1,-47.25 544.1,-47.25"/>
<text text-anchor="middle" x="559.1" y="-61.55" font-family="Arial" font-size="14.00">li</text>
</g>
<!-- baseTopicElements&#45;&gt;li -->
<g id="edge50" class="edge">
<title>baseTopicElements&#45;&gt;li</title>
<path fill="none" stroke="#1f78b4" d="M513.43,-362.01C521.53,-309.37 544.94,-157.28 554.72,-93.71"/>
<polygon fill="#a6cee3" stroke="#1f78b4" points="558.22,-94.01 556.28,-83.6 551.3,-92.95 558.22,-94.01"/>
</g>
<!-- dl -->
<g id="node52" class="node">
<title>dl</title>
<path fill="#bfcfff" stroke="black" d="M655.23,-144.66C655.23,-144.66 685.23,-144.66 685.23,-144.66 691.23,-144.66 697.23,-150.66 697.23,-156.66 697.23,-156.66 697.23,-168.66 697.23,-168.66 697.23,-174.66 691.23,-180.66 685.23,-180.66 685.23,-180.66 655.23,-180.66 655.23,-180.66 649.23,-180.66 643.23,-174.66 643.23,-168.66 643.23,-168.66 643.23,-156.66 643.23,-156.66 643.23,-150.66 649.23,-144.66 655.23,-144.66"/>
<text text-anchor="middle" x="670.23" y="-158.96" font-family="Arial" font-size="14.00">dl</text>
</g>
<!-- baseTopicElements&#45;&gt;dl -->
<g id="edge51" class="edge">
<title>baseTopicElements&#45;&gt;dl</title>
<path fill="none" stroke="#1f78b4" d="M523.95,-362.12C552.17,-323.64 618.06,-233.8 650.9,-189.02"/>
<polygon fill="#a6cee3" stroke="#1f78b4" points="653.73,-191.08 656.82,-180.94 648.08,-186.94 653.73,-191.08"/>
</g>
<!-- dlhead -->
<g id="node53" class="node">
<title>dlhead</title>
<path fill="#bfcfff" stroke="black" d="M252.33,-525.06C252.33,-525.06 285.33,-525.06 285.33,-525.06 291.33,-525.06 297.33,-531.06 297.33,-537.06 297.33,-537.06 297.33,-549.06 297.33,-549.06 297.33,-555.06 291.33,-561.06 285.33,-561.06 285.33,-561.06 252.33,-561.06 252.33,-561.06 246.33,-561.06 240.33,-555.06 240.33,-549.06 240.33,-549.06 240.33,-537.06 240.33,-537.06 240.33,-531.06 246.33,-525.06 252.33,-525.06"/>
<text text-anchor="middle" x="268.83" y="-539.36" font-family="Arial" font-size="14.00">dlhead</text>
</g>
<!-- baseTopicElements&#45;&gt;dlhead -->
<g id="edge52" class="edge">
<title>baseTopicElements&#45;&gt;dlhead</title>
<path fill="none" stroke="#1f78b4" d="M483.81,-398.35C439.97,-427.86 352.92,-486.46 304.11,-519.31"/>
<polygon fill="#a6cee3" stroke="#1f78b4" points="302.09,-516.45 295.75,-524.94 306,-522.26 302.09,-516.45"/>
</g>
<!-- dthd -->
<g id="node54" class="node">
<title>dthd</title>
<path fill="#bfcfff" stroke="black" d="M673.86,-472.1C673.86,-472.1 703.86,-472.1 703.86,-472.1 709.86,-472.1 715.86,-478.1 715.86,-484.1 715.86,-484.1 715.86,-496.1 715.86,-496.1 715.86,-502.1 709.86,-508.1 703.86,-508.1 703.86,-508.1 673.86,-508.1 673.86,-508.1 667.86,-508.1 661.86,-502.1 661.86,-496.1 661.86,-496.1 661.86,-484.1 661.86,-484.1 661.86,-478.1 667.86,-472.1 673.86,-472.1"/>
<text text-anchor="middle" x="688.86" y="-486.4" font-family="Arial" font-size="14.00">dthd</text>
</g>
<!-- baseTopicElements&#45;&gt;dthd -->
<g id="edge53" class="edge">
<title>baseTopicElements&#45;&gt;dthd</title>
<path fill="none" stroke="#1f78b4" d="M540.05,-398.44C570.96,-417.48 619.6,-447.44 652.79,-467.88"/>
<polygon fill="#a6cee3" stroke="#1f78b4" points="651.37,-471.12 661.72,-473.38 655.04,-465.16 651.37,-471.12"/>
</g>
<!-- ddhd -->
<g id="node55" class="node">
<title>ddhd</title>
<path fill="#bfcfff" stroke="black" d="M385.8,-16.62C385.8,-16.62 415.8,-16.62 415.8,-16.62 421.8,-16.62 427.8,-22.62 427.8,-28.62 427.8,-28.62 427.8,-40.62 427.8,-40.62 427.8,-46.62 421.8,-52.62 415.8,-52.62 415.8,-52.62 385.8,-52.62 385.8,-52.62 379.8,-52.62 373.8,-46.62 373.8,-40.62 373.8,-40.62 373.8,-28.62 373.8,-28.62 373.8,-22.62 379.8,-16.62 385.8,-16.62"/>
<text text-anchor="middle" x="400.8" y="-30.92" font-family="Arial" font-size="14.00">ddhd</text>
</g>
<!-- baseTopicElements&#45;&gt;ddhd -->
<g id="edge54" class="edge">
<title>baseTopicElements&#45;&gt;ddhd</title>
<path fill="none" stroke="#1f78b4" d="M504.86,-362.21C486.86,-305.52 431.45,-131.11 409.7,-62.63"/>
<polygon fill="#a6cee3" stroke="#1f78b4" points="412.99,-61.42 406.63,-52.95 406.32,-63.54 412.99,-61.42"/>
</g>
<!-- dlentry -->
<g id="node56" class="node">
<title>dlentry</title>
<path fill="#bfcfff" stroke="black" d="M606.47,-45.11C606.47,-45.11 639.47,-45.11 639.47,-45.11 645.47,-45.11 651.47,-51.11 651.47,-57.11 651.47,-57.11 651.47,-69.11 651.47,-69.11 651.47,-75.11 645.47,-81.11 639.47,-81.11 639.47,-81.11 606.47,-81.11 606.47,-81.11 600.47,-81.11 594.47,-75.11 594.47,-69.11 594.47,-69.11 594.47,-57.11 594.47,-57.11 594.47,-51.11 600.47,-45.11 606.47,-45.11"/>
<text text-anchor="middle" x="622.97" y="-59.41" font-family="Arial" font-size="14.00">dlentry</text>
</g>
<!-- baseTopicElements&#45;&gt;dlentry -->
<g id="edge55" class="edge">
<title>baseTopicElements&#45;&gt;dlentry</title>
<path fill="none" stroke="#1f78b4" d="M517.14,-361.88C535.99,-308.65 590.63,-154.41 613.12,-90.92"/>
<polygon fill="#a6cee3" stroke="#1f78b4" points="616.53,-91.79 616.57,-81.19 609.93,-89.45 616.53,-91.79"/>
</g>
<!-- dt -->
<g id="node57" class="node">
<title>dt</title>
<path fill="#bfcfff" stroke="black" d="M552.74,-677C552.74,-677 582.74,-677 582.74,-677 588.74,-677 594.74,-683 594.74,-689 594.74,-689 594.74,-701 594.74,-701 594.74,-707 588.74,-713 582.74,-713 582.74,-713 552.74,-713 552.74,-713 546.74,-713 540.74,-707 540.74,-701 540.74,-701 540.74,-689 540.74,-689 540.74,-683 546.74,-677 552.74,-677"/>
<text text-anchor="middle" x="567.74" y="-691.3" font-family="Arial" font-size="14.00">dt</text>
</g>
<!-- baseTopicElements&#45;&gt;dt -->
<g id="edge56" class="edge">
<title>baseTopicElements&#45;&gt;dt</title>
<path fill="none" stroke="#1f78b4" d="M513.93,-398.59C523.48,-451.16 551.05,-603.08 562.58,-666.57"/>
<polygon fill="#a6cee3" stroke="#1f78b4" points="559.18,-667.46 564.41,-676.67 566.07,-666.21 559.18,-667.46"/>
</g>
<!-- dd -->
<g id="node58" class="node">
<title>dd</title>
<path fill="#bfcfff" stroke="black" d="M813.52,-568.16C813.52,-568.16 843.52,-568.16 843.52,-568.16 849.52,-568.16 855.52,-574.16 855.52,-580.16 855.52,-580.16 855.52,-592.16 855.52,-592.16 855.52,-598.16 849.52,-604.16 843.52,-604.16 843.52,-604.16 813.52,-604.16 813.52,-604.16 807.52,-604.16 801.52,-598.16 801.52,-592.16 801.52,-592.16 801.52,-580.16 801.52,-580.16 801.52,-574.16 807.52,-568.16 813.52,-568.16"/>
<text text-anchor="middle" x="828.52" y="-582.46" font-family="Arial" font-size="14.00">dd</text>
</g>
<!-- baseTopicElements&#45;&gt;dd -->
<g id="edge57" class="edge">
<title>baseTopicElements&#45;&gt;dd</title>
<path fill="none" stroke="#1f78b4" d="M538.55,-398.39C596.28,-435.78 728.71,-521.53 792.66,-562.94"/>
<polygon fill="#a6cee3" stroke="#1f78b4" points="790.92,-565.98 801.21,-568.48 794.72,-560.1 790.92,-565.98"/>
</g>
<!-- example -->
<g id="node59" class="node">
<title>example</title>
<path fill="#bfcfff" stroke="black" d="M681.61,-687.08C681.61,-687.08 725.61,-687.08 725.61,-687.08 731.61,-687.08 737.61,-693.08 737.61,-699.08 737.61,-699.08 737.61,-711.08 737.61,-711.08 737.61,-717.08 731.61,-723.08 725.61,-723.08 725.61,-723.08 681.61,-723.08 681.61,-723.08 675.61,-723.08 669.61,-717.08 669.61,-711.08 669.61,-711.08 669.61,-699.08 669.61,-699.08 669.61,-693.08 675.61,-687.08 681.61,-687.08"/>
<text text-anchor="middle" x="703.61" y="-701.38" font-family="Arial" font-size="14.00">example</text>
</g>
<!-- baseTopicElements&#45;&gt;example -->
<g id="edge58" class="edge">
<title>baseTopicElements&#45;&gt;example</title>
<path fill="none" stroke="#1f78b4" d="M521.54,-398.7C553.92,-453.18 649.45,-613.93 687.6,-678.14"/>
<polygon fill="#a6cee3" stroke="#1f78b4" points="684.68,-680.08 692.8,-686.89 690.7,-676.5 684.68,-680.08"/>
</g>
<!-- fig -->
<g id="node60" class="node">
<title>fig</title>
<path fill="#bfcfff" stroke="black" d="M453.25,-55.8C453.25,-55.8 483.25,-55.8 483.25,-55.8 489.25,-55.8 495.25,-61.8 495.25,-67.8 495.25,-67.8 495.25,-79.8 495.25,-79.8 495.25,-85.8 489.25,-91.8 483.25,-91.8 483.25,-91.8 453.25,-91.8 453.25,-91.8 447.25,-91.8 441.25,-85.8 441.25,-79.8 441.25,-79.8 441.25,-67.8 441.25,-67.8 441.25,-61.8 447.25,-55.8 453.25,-55.8"/>
<text text-anchor="middle" x="468.25" y="-70.1" font-family="Arial" font-size="14.00">fig</text>
</g>
<!-- baseTopicElements&#45;&gt;fig -->
<g id="edge59" class="edge">
<title>baseTopicElements&#45;&gt;fig</title>
<path fill="none" stroke="#1f78b4" d="M508.09,-362.05C500.98,-310.62 480.75,-164.27 472.18,-102.19"/>
<polygon fill="#a6cee3" stroke="#1f78b4" points="475.6,-101.39 470.76,-91.96 468.66,-102.35 475.6,-101.39"/>
</g>
<!-- figgroup -->
<g id="node61" class="node">
<title>figgroup</title>
<path fill="#bfcfff" stroke="black" d="M737.36,-523.63C737.36,-523.63 778.36,-523.63 778.36,-523.63 784.36,-523.63 790.36,-529.63 790.36,-535.63 790.36,-535.63 790.36,-547.63 790.36,-547.63 790.36,-553.63 784.36,-559.63 778.36,-559.63 778.36,-559.63 737.36,-559.63 737.36,-559.63 731.36,-559.63 725.36,-553.63 725.36,-547.63 725.36,-547.63 725.36,-535.63 725.36,-535.63 725.36,-529.63 731.36,-523.63 737.36,-523.63"/>
<text text-anchor="middle" x="757.86" y="-537.93" font-family="Arial" font-size="14.00">figgroup</text>
</g>
<!-- baseTopicElements&#45;&gt;figgroup -->
<g id="edge60" class="edge">
<title>baseTopicElements&#45;&gt;figgroup</title>
<path fill="none" stroke="#1f78b4" d="M538.49,-398.5C583.41,-427.81 671.77,-485.46 721.55,-517.94"/>
<polygon fill="#a6cee3" stroke="#1f78b4" points="719.79,-520.97 730.08,-523.51 723.62,-515.11 719.79,-520.97"/>
</g>
<!-- pre -->
<g id="node62" class="node">
<title>pre</title>
<path fill="#bfcfff" stroke="black" d="M297.13,-314.98C297.13,-314.98 327.13,-314.98 327.13,-314.98 333.13,-314.98 339.13,-320.98 339.13,-326.98 339.13,-326.98 339.13,-338.98 339.13,-338.98 339.13,-344.98 333.13,-350.98 327.13,-350.98 327.13,-350.98 297.13,-350.98 297.13,-350.98 291.13,-350.98 285.13,-344.98 285.13,-338.98 285.13,-338.98 285.13,-326.98 285.13,-326.98 285.13,-320.98 291.13,-314.98 297.13,-314.98"/>
<text text-anchor="middle" x="312.13" y="-329.28" font-family="Arial" font-size="14.00">pre</text>
</g>
<!-- baseTopicElements&#45;&gt;pre -->
<g id="edge61" class="edge">
<title>baseTopicElements&#45;&gt;pre</title>
<path fill="none" stroke="#1f78b4" d="M438.39,-363.09C408.19,-355.89 374.38,-347.82 349.35,-341.86"/>
<polygon fill="#a6cee3" stroke="#1f78b4" points="350.08,-338.43 339.54,-339.52 348.45,-345.24 350.08,-338.43"/>
</g>
<!-- lines -->
<g id="node63" class="node">
<title>lines</title>
<path fill="#bfcfff" stroke="black" d="M811.62,-523.16C811.62,-523.16 841.62,-523.16 841.62,-523.16 847.62,-523.16 853.62,-529.16 853.62,-535.16 853.62,-535.16 853.62,-547.16 853.62,-547.16 853.62,-553.16 847.62,-559.16 841.62,-559.16 841.62,-559.16 811.62,-559.16 811.62,-559.16 805.62,-559.16 799.62,-553.16 799.62,-547.16 799.62,-547.16 799.62,-535.16 799.62,-535.16 799.62,-529.16 805.62,-523.16 811.62,-523.16"/>
<text text-anchor="middle" x="826.62" y="-537.46" font-family="Arial" font-size="14.00">lines</text>
</g>
<!-- baseTopicElements&#45;&gt;lines -->
<g id="edge62" class="edge">
<title>baseTopicElements&#45;&gt;lines</title>
<path fill="none" stroke="#1f78b4" d="M546.25,-398.45C606.77,-429.25 729,-491.47 790.11,-522.57"/>
<polygon fill="#a6cee3" stroke="#1f78b4" points="788.87,-525.87 799.37,-527.29 792.05,-519.63 788.87,-525.87"/>
</g>
<!-- div -->
<g id="node64" class="node">
<title>div</title>
<path fill="#bfcfff" stroke="black" d="M338.48,-179.89C338.48,-179.89 368.48,-179.89 368.48,-179.89 374.48,-179.89 380.48,-185.89 380.48,-191.89 380.48,-191.89 380.48,-203.89 380.48,-203.89 380.48,-209.89 374.48,-215.89 368.48,-215.89 368.48,-215.89 338.48,-215.89 338.48,-215.89 332.48,-215.89 326.48,-209.89 326.48,-203.89 326.48,-203.89 326.48,-191.89 326.48,-191.89 326.48,-185.89 332.48,-179.89 338.48,-179.89"/>
<text text-anchor="middle" x="353.48" y="-194.19" font-family="Arial" font-size="14.00">div</text>
</g>
<!-- baseTopicElements&#45;&gt;div -->
<g id="edge63" class="edge">
<title>baseTopicElements&#45;&gt;div</title>
<path fill="none" stroke="#1f78b4" d="M494.97,-362.15C466.97,-329.64 408.19,-261.4 375.91,-223.92"/>
<polygon fill="#a6cee3" stroke="#1f78b4" points="378.24,-221.26 369.06,-215.97 372.93,-225.83 378.24,-221.26"/>
</g>
<!-- text -->
<g id="node65" class="node">
<title>text</title>
<path fill="#bfcfff" stroke="black" d="M722.23,-596.39C722.23,-596.39 752.23,-596.39 752.23,-596.39 758.23,-596.39 764.23,-602.39 764.23,-608.39 764.23,-608.39 764.23,-620.39 764.23,-620.39 764.23,-626.39 758.23,-632.39 752.23,-632.39 752.23,-632.39 722.23,-632.39 722.23,-632.39 716.23,-632.39 710.23,-626.39 710.23,-620.39 710.23,-620.39 710.23,-608.39 710.23,-608.39 710.23,-602.39 716.23,-596.39 722.23,-596.39"/>
<text text-anchor="middle" x="737.23" y="-610.69" font-family="Arial" font-size="14.00">text</text>
</g>
<!-- baseTopicElements&#45;&gt;text -->
<g id="edge64" class="edge">
<title>baseTopicElements&#45;&gt;text</title>
<path fill="none" stroke="#1f78b4" d="M528.39,-398.67C568.52,-440.12 666.2,-541.01 712.33,-588.66"/>
<polygon fill="#a6cee3" stroke="#1f78b4" points="710.06,-591.35 719.53,-596.1 715.09,-586.48 710.06,-591.35"/>
</g>
<!-- keyword -->
<g id="node66" class="node">
<title>keyword</title>
<path fill="#bfcfff" stroke="black" d="M319.27,-489.04C319.27,-489.04 362.27,-489.04 362.27,-489.04 368.27,-489.04 374.27,-495.04 374.27,-501.04 374.27,-501.04 374.27,-513.04 374.27,-513.04 374.27,-519.04 368.27,-525.04 362.27,-525.04 362.27,-525.04 319.27,-525.04 319.27,-525.04 313.27,-525.04 307.27,-519.04 307.27,-513.04 307.27,-513.04 307.27,-501.04 307.27,-501.04 307.27,-495.04 313.27,-489.04 319.27,-489.04"/>
<text text-anchor="middle" x="340.77" y="-503.34" font-family="Arial" font-size="14.00">keyword</text>
</g>
<!-- baseTopicElements&#45;&gt;keyword -->
<g id="edge65" class="edge">
<title>baseTopicElements&#45;&gt;keyword</title>
<path fill="none" stroke="#1f78b4" d="M486.28,-398.46C456.64,-420.58 406.46,-458.02 373.47,-482.64"/>
<polygon fill="#a6cee3" stroke="#1f78b4" points="370.98,-480.13 365.06,-488.91 375.17,-485.74 370.98,-480.13"/>
</g>
<!-- term -->
<g id="node67" class="node">
<title>term</title>
<path fill="#bfcfff" stroke="black" d="M299.58,-399.72C299.58,-399.72 329.58,-399.72 329.58,-399.72 335.58,-399.72 341.58,-405.72 341.58,-411.72 341.58,-411.72 341.58,-423.72 341.58,-423.72 341.58,-429.72 335.58,-435.72 329.58,-435.72 329.58,-435.72 299.58,-435.72 299.58,-435.72 293.58,-435.72 287.58,-429.72 287.58,-423.72 287.58,-423.72 287.58,-411.72 287.58,-411.72 287.58,-405.72 293.58,-399.72 299.58,-399.72"/>
<text text-anchor="middle" x="314.58" y="-414.02" font-family="Arial" font-size="14.00">term</text>
</g>
<!-- baseTopicElements&#45;&gt;term -->
<g id="edge66" class="edge">
<title>baseTopicElements&#45;&gt;term</title>
<path fill="none" stroke="#1f78b4" d="M438.45,-394.08C409.03,-399.69 376.26,-405.95 351.82,-410.61"/>
<polygon fill="#a6cee3" stroke="#1f78b4" points="351.05,-407.2 341.89,-412.51 352.37,-414.07 351.05,-407.2"/>
</g>
<!-- ph -->
<g id="node68" class="node">
<title>ph</title>
<path fill="#bfcfff" stroke="black" d="M187.88,-589.28C187.88,-589.28 217.88,-589.28 217.88,-589.28 223.88,-589.28 229.88,-595.28 229.88,-601.28 229.88,-601.28 229.88,-613.28 229.88,-613.28 229.88,-619.28 223.88,-625.28 217.88,-625.28 217.88,-625.28 187.88,-625.28 187.88,-625.28 181.88,-625.28 175.88,-619.28 175.88,-613.28 175.88,-613.28 175.88,-601.28 175.88,-601.28 175.88,-595.28 181.88,-589.28 187.88,-589.28"/>
<text text-anchor="middle" x="202.88" y="-603.58" font-family="Arial" font-size="14.00">ph</text>
</g>
<!-- baseTopicElements&#45;&gt;ph -->
<g id="edge67" class="edge">
<title>baseTopicElements&#45;&gt;ph</title>
<path fill="none" stroke="#1f78b4" d="M485.95,-398.5C430.92,-439.09 298.06,-537.07 235.94,-582.89"/>
<polygon fill="#a6cee3" stroke="#1f78b4" points="233.63,-580.25 227.66,-589 237.78,-585.88 233.63,-580.25"/>
</g>
<!-- tm -->
<g id="node69" class="node">
<title>tm</title>
<path fill="#bfcfff" stroke="black" d="M707.84,-286.26C707.84,-286.26 737.84,-286.26 737.84,-286.26 743.84,-286.26 749.84,-292.26 749.84,-298.26 749.84,-298.26 749.84,-310.26 749.84,-310.26 749.84,-316.26 743.84,-322.26 737.84,-322.26 737.84,-322.26 707.84,-322.26 707.84,-322.26 701.84,-322.26 695.84,-316.26 695.84,-310.26 695.84,-310.26 695.84,-298.26 695.84,-298.26 695.84,-292.26 701.84,-286.26 707.84,-286.26"/>
<text text-anchor="middle" x="722.84" y="-300.56" font-family="Arial" font-size="14.00">tm</text>
</g>
<!-- baseTopicElements&#45;&gt;tm -->
<g id="edge68" class="edge">
<title>baseTopicElements&#45;&gt;tm</title>
<path fill="none" stroke="#1f78b4" d="M560.91,-362.28C599.28,-348.53 651.28,-329.9 685.89,-317.5"/>
<polygon fill="#a6cee3" stroke="#1f78b4" points="687.36,-320.69 695.6,-314.02 685,-314.1 687.36,-320.69"/>
</g>
<!-- state -->
<g id="node70" class="node">
<title>state</title>
<path fill="#bfcfff" stroke="black" d="M485.39,-668.05C485.39,-668.05 515.39,-668.05 515.39,-668.05 521.39,-668.05 527.39,-674.05 527.39,-680.05 527.39,-680.05 527.39,-692.05 527.39,-692.05 527.39,-698.05 521.39,-704.05 515.39,-704.05 515.39,-704.05 485.39,-704.05 485.39,-704.05 479.39,-704.05 473.39,-698.05 473.39,-692.05 473.39,-692.05 473.39,-680.05 473.39,-680.05 473.39,-674.05 479.39,-668.05 485.39,-668.05"/>
<text text-anchor="middle" x="500.39" y="-682.35" font-family="Arial" font-size="14.00">state</text>
</g>
<!-- baseTopicElements&#45;&gt;state -->
<g id="edge69" class="edge">
<title>baseTopicElements&#45;&gt;state</title>
<path fill="none" stroke="#1f78b4" d="M510,-398.52C508.29,-449.81 503.41,-595.81 501.34,-657.73"/>
<polygon fill="#a6cee3" stroke="#1f78b4" points="497.83,-657.82 501,-667.93 504.83,-658.05 497.83,-657.82"/>
</g>
<!-- image -->
<g id="node71" class="node">
<title>image</title>
<path fill="#bfcfff" stroke="black" d="M674.64,-551.32C674.64,-551.32 704.64,-551.32 704.64,-551.32 710.64,-551.32 716.64,-557.32 716.64,-563.32 716.64,-563.32 716.64,-575.32 716.64,-575.32 716.64,-581.32 710.64,-587.32 704.64,-587.32 704.64,-587.32 674.64,-587.32 674.64,-587.32 668.64,-587.32 662.64,-581.32 662.64,-575.32 662.64,-575.32 662.64,-563.32 662.64,-563.32 662.64,-557.32 668.64,-551.32 674.64,-551.32"/>
<text text-anchor="middle" x="689.64" y="-565.62" font-family="Arial" font-size="14.00">image</text>
</g>
<!-- baseTopicElements&#45;&gt;image -->
<g id="edge70" class="edge">
<title>baseTopicElements&#45;&gt;image</title>
<path fill="none" stroke="#1f78b4" d="M527.78,-398.43C559.86,-432.3 628.97,-505.26 665.65,-543.98"/>
<polygon fill="#a6cee3" stroke="#1f78b4" points="663.11,-546.4 672.53,-551.25 668.19,-541.58 663.11,-546.4"/>
</g>
<!-- alt -->
<g id="node72" class="node">
<title>alt</title>
<path fill="#bfcfff" stroke="black" d="M273.99,-179.87C273.99,-179.87 303.99,-179.87 303.99,-179.87 309.99,-179.87 315.99,-185.87 315.99,-191.87 315.99,-191.87 315.99,-203.87 315.99,-203.87 315.99,-209.87 309.99,-215.87 303.99,-215.87 303.99,-215.87 273.99,-215.87 273.99,-215.87 267.99,-215.87 261.99,-209.87 261.99,-203.87 261.99,-203.87 261.99,-191.87 261.99,-191.87 261.99,-185.87 267.99,-179.87 273.99,-179.87"/>
<text text-anchor="middle" x="288.99" y="-194.17" font-family="Arial" font-size="14.00">alt</text>
</g>
<!-- baseTopicElements&#45;&gt;alt -->
<g id="edge71" class="edge">
<title>baseTopicElements&#45;&gt;alt</title>
<path fill="none" stroke="#1f78b4" d="M488.55,-362.15C448.56,-329.23 364.06,-259.67 318.91,-222.5"/>
<polygon fill="#a6cee3" stroke="#1f78b4" points="320.9,-219.61 310.96,-215.95 316.46,-225.01 320.9,-219.61"/>
</g>
<!-- longdescref -->
<g id="node73" class="node">
<title>longdescref</title>
<path fill="#bfcfff" stroke="black" d="M515.27,-98.66C515.27,-98.66 577.27,-98.66 577.27,-98.66 583.27,-98.66 589.27,-104.66 589.27,-110.66 589.27,-110.66 589.27,-122.66 589.27,-122.66 589.27,-128.66 583.27,-134.66 577.27,-134.66 577.27,-134.66 515.27,-134.66 515.27,-134.66 509.27,-134.66 503.27,-128.66 503.27,-122.66 503.27,-122.66 503.27,-110.66 503.27,-110.66 503.27,-104.66 509.27,-98.66 515.27,-98.66"/>
<text text-anchor="middle" x="546.27" y="-112.96" font-family="Arial" font-size="14.00">longdescref</text>
</g>
<!-- baseTopicElements&#45;&gt;longdescref -->
<g id="edge72" class="edge">
<title>baseTopicElements&#45;&gt;longdescref</title>
<path fill="none" stroke="#1f78b4" d="M513.06,-362.19C519.17,-317.03 535.1,-199.25 542.46,-144.9"/>
<polygon fill="#a6cee3" stroke="#1f78b4" points="545.93,-145.29 543.81,-134.91 539,-144.35 545.93,-145.29"/>
</g>
<!-- object -->
<g id="node74" class="node">
<title>object</title>
<path fill="#bfcfff" stroke="black" d="M278.31,-133.53C278.31,-133.53 308.31,-133.53 308.31,-133.53 314.31,-133.53 320.31,-139.53 320.31,-145.53 320.31,-145.53 320.31,-157.53 320.31,-157.53 320.31,-163.53 314.31,-169.53 308.31,-169.53 308.31,-169.53 278.31,-169.53 278.31,-169.53 272.31,-169.53 266.31,-163.53 266.31,-157.53 266.31,-157.53 266.31,-145.53 266.31,-145.53 266.31,-139.53 272.31,-133.53 278.31,-133.53"/>
<text text-anchor="middle" x="293.31" y="-147.83" font-family="Arial" font-size="14.00">object</text>
</g>
<!-- baseTopicElements&#45;&gt;object -->
<g id="edge73" class="edge">
<title>baseTopicElements&#45;&gt;object</title>
<path fill="none" stroke="#1f78b4" d="M493.2,-361.97C454.56,-321.29 361.6,-223.42 317.42,-176.9"/>
<polygon fill="#a6cee3" stroke="#1f78b4" points="319.93,-174.47 310.51,-169.63 314.86,-179.29 319.93,-174.47"/>
</g>
<!-- param -->
<g id="node75" class="node">
<title>param</title>
<path fill="#bfcfff" stroke="black" d="M209.73,-229.07C209.73,-229.07 241.73,-229.07 241.73,-229.07 247.73,-229.07 253.73,-235.07 253.73,-241.07 253.73,-241.07 253.73,-253.07 253.73,-253.07 253.73,-259.07 247.73,-265.07 241.73,-265.07 241.73,-265.07 209.73,-265.07 209.73,-265.07 203.73,-265.07 197.73,-259.07 197.73,-253.07 197.73,-253.07 197.73,-241.07 197.73,-241.07 197.73,-235.07 203.73,-229.07 209.73,-229.07"/>
<text text-anchor="middle" x="225.73" y="-243.37" font-family="Arial" font-size="14.00">param</text>
</g>
<!-- baseTopicElements&#45;&gt;param -->
<g id="edge74" class="edge">
<title>baseTopicElements&#45;&gt;param</title>
<path fill="none" stroke="#1f78b4" d="M471.9,-362.2C417.07,-336.56 317.48,-289.98 263.29,-264.64"/>
<polygon fill="#a6cee3" stroke="#1f78b4" points="264.58,-261.38 254.04,-260.31 261.62,-267.72 264.58,-261.38"/>
</g>
<!-- simpletable -->
<g id="node76" class="node">
<title>simpletable</title>
<path fill="#bfcfff" stroke="black" d="M113.86,-270.49C113.86,-270.49 175.86,-270.49 175.86,-270.49 181.86,-270.49 187.86,-276.49 187.86,-282.49 187.86,-282.49 187.86,-294.49 187.86,-294.49 187.86,-300.49 181.86,-306.49 175.86,-306.49 175.86,-306.49 113.86,-306.49 113.86,-306.49 107.86,-306.49 101.86,-300.49 101.86,-294.49 101.86,-294.49 101.86,-282.49 101.86,-282.49 101.86,-276.49 107.86,-270.49 113.86,-270.49"/>
<text text-anchor="middle" x="144.86" y="-284.79" font-family="Arial" font-size="14.00">simpletable</text>
</g>
<!-- baseTopicElements&#45;&gt;simpletable -->
<g id="edge75" class="edge">
<title>baseTopicElements&#45;&gt;simpletable</title>
<path fill="none" stroke="#1f78b4" d="M438.79,-362.28C367.89,-344.48 261.16,-317.69 197.71,-301.76"/>
<polygon fill="#a6cee3" stroke="#1f78b4" points="198.46,-298.34 187.91,-299.3 196.75,-305.13 198.46,-298.34"/>
</g>
<!-- sthead -->
<g id="node77" class="node">
<title>sthead</title>
<path fill="#bfcfff" stroke="black" d="M571.89,-0.08C571.89,-0.08 604.89,-0.08 604.89,-0.08 610.89,-0.08 616.89,-6.08 616.89,-12.08 616.89,-12.08 616.89,-24.08 616.89,-24.08 616.89,-30.08 610.89,-36.08 604.89,-36.08 604.89,-36.08 571.89,-36.08 571.89,-36.08 565.89,-36.08 559.89,-30.08 559.89,-24.08 559.89,-24.08 559.89,-12.08 559.89,-12.08 559.89,-6.08 565.89,-0.08 571.89,-0.08"/>
<text text-anchor="middle" x="588.39" y="-14.38" font-family="Arial" font-size="14.00">sthead</text>
</g>
<!-- baseTopicElements&#45;&gt;sthead -->
<g id="edge76" class="edge">
<title>baseTopicElements&#45;&gt;sthead</title>
<path fill="none" stroke="#1f78b4" d="M514.58,-361.85C527.27,-302.74 566.96,-117.89 582.27,-46.56"/>
<polygon fill="#a6cee3" stroke="#1f78b4" points="585.75,-47.01 584.43,-36.5 578.91,-45.54 585.75,-47.01"/>
</g>
<!-- strow -->
<g id="node78" class="node">
<title>strow</title>
<path fill="#bfcfff" stroke="black" d="M447.81,-7.54C447.81,-7.54 477.81,-7.54 477.81,-7.54 483.81,-7.54 489.81,-13.54 489.81,-19.54 489.81,-19.54 489.81,-31.54 489.81,-31.54 489.81,-37.54 483.81,-43.54 477.81,-43.54 477.81,-43.54 447.81,-43.54 447.81,-43.54 441.81,-43.54 435.81,-37.54 435.81,-31.54 435.81,-31.54 435.81,-19.54 435.81,-19.54 435.81,-13.54 441.81,-7.54 447.81,-7.54"/>
<text text-anchor="middle" x="462.81" y="-21.84" font-family="Arial" font-size="14.00">strow</text>
</g>
<!-- baseTopicElements&#45;&gt;strow -->
<g id="edge77" class="edge">
<title>baseTopicElements&#45;&gt;strow</title>
<path fill="none" stroke="#1f78b4" d="M508.18,-362.23C500.39,-304.46 476.08,-124.04 466.63,-53.86"/>
<polygon fill="#a6cee3" stroke="#1f78b4" points="470.04,-53.02 465.24,-43.58 463.11,-53.96 470.04,-53.02"/>
</g>
<!-- stentry -->
<g id="node79" class="node">
<title>stentry</title>
<path fill="#bfcfff" stroke="black" d="M208.57,-184.07C208.57,-184.07 241.57,-184.07 241.57,-184.07 247.57,-184.07 253.57,-190.07 253.57,-196.07 253.57,-196.07 253.57,-208.07 253.57,-208.07 253.57,-214.07 247.57,-220.07 241.57,-220.07 241.57,-220.07 208.57,-220.07 208.57,-220.07 202.57,-220.07 196.57,-214.07 196.57,-208.07 196.57,-208.07 196.57,-196.07 196.57,-196.07 196.57,-190.07 202.57,-184.07 208.57,-184.07"/>
<text text-anchor="middle" x="225.07" y="-198.37" font-family="Arial" font-size="14.00">stentry</text>
</g>
<!-- baseTopicElements&#45;&gt;stentry -->
<g id="edge78" class="edge">
<title>baseTopicElements&#45;&gt;stentry</title>
<path fill="none" stroke="#1f78b4" d="M481.66,-362.24C429.58,-329.72 320.15,-261.42 262.47,-225.41"/>
<polygon fill="#a6cee3" stroke="#1f78b4" points="264.01,-222.25 253.68,-219.92 260.31,-228.19 264.01,-222.25"/>
</g>
<!-- draft&#45;comment -->
<g id="node80" class="node">
<title>draft&#45;comment</title>
<path fill="#bfcfff" stroke="black" d="M900.1,-433.99C900.1,-433.99 981.1,-433.99 981.1,-433.99 987.1,-433.99 993.1,-439.99 993.1,-445.99 993.1,-445.99 993.1,-457.99 993.1,-457.99 993.1,-463.99 987.1,-469.99 981.1,-469.99 981.1,-469.99 900.1,-469.99 900.1,-469.99 894.1,-469.99 888.1,-463.99 888.1,-457.99 888.1,-457.99 888.1,-445.99 888.1,-445.99 888.1,-439.99 894.1,-433.99 900.1,-433.99"/>
<text text-anchor="middle" x="940.6" y="-448.29" font-family="Arial" font-size="14.00">draft&#45;comment</text>
</g>
<!-- baseTopicElements&#45;&gt;draft&#45;comment -->
<g id="edge79" class="edge">
<title>baseTopicElements&#45;&gt;draft&#45;comment</title>
<path fill="none" stroke="#1f78b4" d="M583.07,-392.38C665.64,-406.15 799.28,-428.43 877.66,-441.49"/>
<polygon fill="#a6cee3" stroke="#1f78b4" points="877.44,-445.01 887.88,-443.2 878.59,-438.1 877.44,-445.01"/>
</g>
<!-- required&#45;cleanup -->
<g id="node81" class="node">
<title>required&#45;cleanup</title>
<path fill="#bfcfff" stroke="black" d="M12.17,-362.39C12.17,-362.39 106.17,-362.39 106.17,-362.39 112.17,-362.39 118.17,-368.39 118.17,-374.39 118.17,-374.39 118.17,-386.39 118.17,-386.39 118.17,-392.39 112.17,-398.39 106.17,-398.39 106.17,-398.39 12.17,-398.39 12.17,-398.39 6.17,-398.39 0.17,-392.39 0.17,-386.39 0.17,-386.39 0.17,-374.39 0.17,-374.39 0.17,-368.39 6.17,-362.39 12.17,-362.39"/>
<text text-anchor="middle" x="59.17" y="-376.69" font-family="Arial" font-size="14.00">required&#45;cleanup</text>
</g>
<!-- baseTopicElements&#45;&gt;required&#45;cleanup -->
<g id="edge80" class="edge">
<title>baseTopicElements&#45;&gt;required&#45;cleanup</title>
<path fill="none" stroke="#1f78b4" d="M438.58,-380.32C353.39,-380.33 212.57,-380.36 128.56,-380.37"/>
<polygon fill="#a6cee3" stroke="#1f78b4" points="128.35,-376.87 118.35,-380.38 128.35,-383.87 128.35,-376.87"/>
</g>
<!-- fn -->
<g id="node82" class="node">
<title>fn</title>
<path fill="#bfcfff" stroke="black" d="M744.16,-478.27C744.16,-478.27 774.16,-478.27 774.16,-478.27 780.16,-478.27 786.16,-484.27 786.16,-490.27 786.16,-490.27 786.16,-502.27 786.16,-502.27 786.16,-508.27 780.16,-514.27 774.16,-514.27 774.16,-514.27 744.16,-514.27 744.16,-514.27 738.16,-514.27 732.16,-508.27 732.16,-502.27 732.16,-502.27 732.16,-490.27 732.16,-490.27 732.16,-484.27 738.16,-478.27 744.16,-478.27"/>
<text text-anchor="middle" x="759.16" y="-492.57" font-family="Arial" font-size="14.00">fn</text>
</g>
<!-- baseTopicElements&#45;&gt;fn -->
<g id="edge81" class="edge">
<title>baseTopicElements&#45;&gt;fn</title>
<path fill="none" stroke="#1f78b4" d="M549.45,-398.43C596.86,-420.55 676.45,-457.68 722.74,-479.28"/>
<polygon fill="#a6cee3" stroke="#1f78b4" points="721.55,-482.59 732.09,-483.64 724.51,-476.24 721.55,-482.59"/>
</g>
<!-- indexterm -->
<g id="node83" class="node">
<title>indexterm</title>
<path fill="#bfcfff" stroke="black" d="M273.74,-224.9C273.74,-224.9 326.74,-224.9 326.74,-224.9 332.74,-224.9 338.74,-230.9 338.74,-236.9 338.74,-236.9 338.74,-248.9 338.74,-248.9 338.74,-254.9 332.74,-260.9 326.74,-260.9 326.74,-260.9 273.74,-260.9 273.74,-260.9 267.74,-260.9 261.74,-254.9 261.74,-248.9 261.74,-248.9 261.74,-236.9 261.74,-236.9 261.74,-230.9 267.74,-224.9 273.74,-224.9"/>
<text text-anchor="middle" x="300.24" y="-239.2" font-family="Arial" font-size="14.00">indexterm</text>
</g>
<!-- baseTopicElements&#45;&gt;indexterm -->
<g id="edge82" class="edge">
<title>baseTopicElements&#45;&gt;indexterm</title>
<path fill="none" stroke="#1f78b4" d="M482.68,-362.06C445.01,-337.46 377.88,-293.61 336.4,-266.52"/>
<polygon fill="#a6cee3" stroke="#1f78b4" points="338.24,-263.54 327.96,-261 334.42,-269.4 338.24,-263.54"/>
</g>
<!-- index&#45;see -->
<g id="node84" class="node">
<title>index&#45;see</title>
<path fill="#bfcfff" stroke="black" d="M639.17,-597.05C639.17,-597.05 690.17,-597.05 690.17,-597.05 696.17,-597.05 702.17,-603.05 702.17,-609.05 702.17,-609.05 702.17,-621.05 702.17,-621.05 702.17,-627.05 696.17,-633.05 690.17,-633.05 690.17,-633.05 639.17,-633.05 639.17,-633.05 633.17,-633.05 627.17,-627.05 627.17,-621.05 627.17,-621.05 627.17,-609.05 627.17,-609.05 627.17,-603.05 633.17,-597.05 639.17,-597.05"/>
<text text-anchor="middle" x="664.67" y="-611.35" font-family="Arial" font-size="14.00">index&#45;see</text>
</g>
<!-- baseTopicElements&#45;&gt;index&#45;see -->
<g id="edge83" class="edge">
<title>baseTopicElements&#45;&gt;index&#45;see</title>
<path fill="none" stroke="#1f78b4" d="M522.44,-398.34C549.39,-439.39 615.41,-539.99 647.12,-588.3"/>
<polygon fill="#a6cee3" stroke="#1f78b4" points="644.39,-590.52 652.8,-596.96 650.24,-586.68 644.39,-590.52"/>
</g>
<!-- index&#45;see&#45;also -->
<g id="node85" class="node">
<title>index&#45;see&#45;also</title>
<path fill="#bfcfff" stroke="black" d="M394.36,-532.98C394.36,-532.98 474.36,-532.98 474.36,-532.98 480.36,-532.98 486.36,-538.98 486.36,-544.98 486.36,-544.98 486.36,-556.98 486.36,-556.98 486.36,-562.98 480.36,-568.98 474.36,-568.98 474.36,-568.98 394.36,-568.98 394.36,-568.98 388.36,-568.98 382.36,-562.98 382.36,-556.98 382.36,-556.98 382.36,-544.98 382.36,-544.98 382.36,-538.98 388.36,-532.98 394.36,-532.98"/>
<text text-anchor="middle" x="434.36" y="-547.28" font-family="Arial" font-size="14.00">index&#45;see&#45;also</text>
</g>
<!-- baseTopicElements&#45;&gt;index&#45;see&#45;also -->
<g id="edge84" class="edge">
<title>baseTopicElements&#45;&gt;index&#45;see&#45;also</title>
<path fill="none" stroke="#1f78b4" d="M502.45,-398.57C489.04,-428.6 462.25,-488.55 446.57,-523.65"/>
<polygon fill="#a6cee3" stroke="#1f78b4" points="443.35,-522.28 442.46,-532.84 449.74,-525.14 443.35,-522.28"/>
</g>
<!-- cite -->
<g id="node86" class="node">
<title>cite</title>
<path fill="#bfcfff" stroke="black" d="M340.37,-110.17C340.37,-110.17 370.37,-110.17 370.37,-110.17 376.37,-110.17 382.37,-116.17 382.37,-122.17 382.37,-122.17 382.37,-134.17 382.37,-134.17 382.37,-140.17 376.37,-146.17 370.37,-146.17 370.37,-146.17 340.37,-146.17 340.37,-146.17 334.37,-146.17 328.37,-140.17 328.37,-134.17 328.37,-134.17 328.37,-122.17 328.37,-122.17 328.37,-116.17 334.37,-110.17 340.37,-110.17"/>
<text text-anchor="middle" x="355.37" y="-124.47" font-family="Arial" font-size="14.00">cite</text>
</g>
<!-- baseTopicElements&#45;&gt;cite -->
<g id="edge85" class="edge">
<title>baseTopicElements&#45;&gt;cite</title>
<path fill="none" stroke="#1f78b4" d="M499.45,-362.17C472.49,-318.39 403.74,-206.73 371.95,-155.1"/>
<polygon fill="#a6cee3" stroke="#1f78b4" points="374.86,-153.16 366.64,-146.48 368.9,-156.83 374.86,-153.16"/>
</g>
<!-- xref -->
<g id="node87" class="node">
<title>xref</title>
<path fill="#bfcfff" stroke="black" d="M640.76,-642.06C640.76,-642.06 670.76,-642.06 670.76,-642.06 676.76,-642.06 682.76,-648.06 682.76,-654.06 682.76,-654.06 682.76,-666.06 682.76,-666.06 682.76,-672.06 676.76,-678.06 670.76,-678.06 670.76,-678.06 640.76,-678.06 640.76,-678.06 634.76,-678.06 628.76,-672.06 628.76,-666.06 628.76,-666.06 628.76,-654.06 628.76,-654.06 628.76,-648.06 634.76,-642.06 640.76,-642.06"/>
<text text-anchor="middle" x="655.76" y="-656.36" font-family="Arial" font-size="14.00">xref</text>
</g>
<!-- baseTopicElements&#45;&gt;xref -->
<g id="edge86" class="edge">
<title>baseTopicElements&#45;&gt;xref</title>
<path fill="none" stroke="#1f78b4" d="M520.14,-398.66C545.06,-446.7 612.29,-576.28 641.69,-632.93"/>
<polygon fill="#a6cee3" stroke="#1f78b4" points="638.68,-634.74 646.39,-642 644.89,-631.52 638.68,-634.74"/>
</g>
<!-- fallback -->
<g id="node88" class="node">
<title>fallback</title>
<path fill="#bfcfff" stroke="black" d="M208.28,-134.83C208.28,-134.83 246.28,-134.83 246.28,-134.83 252.28,-134.83 258.28,-140.83 258.28,-146.83 258.28,-146.83 258.28,-158.83 258.28,-158.83 258.28,-164.83 252.28,-170.83 246.28,-170.83 246.28,-170.83 208.28,-170.83 208.28,-170.83 202.28,-170.83 196.28,-164.83 196.28,-158.83 196.28,-158.83 196.28,-146.83 196.28,-146.83 196.28,-140.83 202.28,-134.83 208.28,-134.83"/>
<text text-anchor="middle" x="227.28" y="-149.13" font-family="Arial" font-size="14.00">fallback</text>
</g>
<!-- baseTopicElements&#45;&gt;fallback -->
<g id="edge87" class="edge">
<title>baseTopicElements&#45;&gt;fallback</title>
<path fill="none" stroke="#1f78b4" d="M487.91,-362.08C437.22,-321.38 314.82,-223.11 257.65,-177.21"/>
<polygon fill="#a6cee3" stroke="#1f78b4" points="259.7,-174.37 249.71,-170.84 255.31,-179.83 259.7,-174.37"/>
</g>
<!-- include -->
<g id="node89" class="node">
<title>include</title>
<path fill="#bfcfff" stroke="black" d="M166.17,-409.13C166.17,-409.13 201.17,-409.13 201.17,-409.13 207.17,-409.13 213.17,-415.13 213.17,-421.13 213.17,-421.13 213.17,-433.13 213.17,-433.13 213.17,-439.13 207.17,-445.13 201.17,-445.13 201.17,-445.13 166.17,-445.13 166.17,-445.13 160.17,-445.13 154.17,-439.13 154.17,-433.13 154.17,-433.13 154.17,-421.13 154.17,-421.13 154.17,-415.13 160.17,-409.13 166.17,-409.13"/>
<text text-anchor="middle" x="183.67" y="-423.43" font-family="Arial" font-size="14.00">include</text>
</g>
<!-- baseTopicElements&#45;&gt;include -->
<g id="edge88" class="edge">
<title>baseTopicElements&#45;&gt;include</title>
<path fill="none" stroke="#1f78b4" d="M438.46,-390.64C372.35,-400.11 276.9,-413.78 223.57,-421.42"/>
<polygon fill="#a6cee3" stroke="#1f78b4" points="222.89,-417.98 213.49,-422.86 223.89,-424.91 222.89,-417.98"/>
</g>
<!-- audio -->
<g id="node90" class="node">
<title>audio</title>
<path fill="#bfcfff" stroke="black" d="M719.8,-642.07C719.8,-642.07 749.8,-642.07 749.8,-642.07 755.8,-642.07 761.8,-648.07 761.8,-654.07 761.8,-654.07 761.8,-666.07 761.8,-666.07 761.8,-672.07 755.8,-678.07 749.8,-678.07 749.8,-678.07 719.8,-678.07 719.8,-678.07 713.8,-678.07 707.8,-672.07 707.8,-666.07 707.8,-666.07 707.8,-654.07 707.8,-654.07 707.8,-648.07 713.8,-642.07 719.8,-642.07"/>
<text text-anchor="middle" x="734.8" y="-656.37" font-family="Arial" font-size="14.00">audio</text>
</g>
<!-- baseTopicElements&#45;&gt;audio -->
<g id="edge89" class="edge">
<title>baseTopicElements&#45;&gt;audio</title>
<path fill="none" stroke="#1f78b4" d="M525.32,-398.66C564.05,-446.99 668.95,-577.89 713.9,-633.98"/>
<polygon fill="#a6cee3" stroke="#1f78b4" points="711.34,-636.39 720.33,-642.01 716.81,-632.02 711.34,-636.39"/>
</g>
<!-- video -->
<g id="node91" class="node">
<title>video</title>
<path fill="#bfcfff" stroke="black" d="M272.28,-88.5C272.28,-88.5 302.28,-88.5 302.28,-88.5 308.28,-88.5 314.28,-94.5 314.28,-100.5 314.28,-100.5 314.28,-112.5 314.28,-112.5 314.28,-118.5 308.28,-124.5 302.28,-124.5 302.28,-124.5 272.28,-124.5 272.28,-124.5 266.28,-124.5 260.28,-118.5 260.28,-112.5 260.28,-112.5 260.28,-100.5 260.28,-100.5 260.28,-94.5 266.28,-88.5 272.28,-88.5"/>
<text text-anchor="middle" x="287.28" y="-102.8" font-family="Arial" font-size="14.00">video</text>
</g>
<!-- baseTopicElements&#45;&gt;video -->
<g id="edge90" class="edge">
<title>baseTopicElements&#45;&gt;video</title>
<path fill="none" stroke="#1f78b4" d="M495.61,-361.92C456.91,-314.47 353.6,-187.81 308.66,-132.71"/>
<polygon fill="#a6cee3" stroke="#1f78b4" points="311.25,-130.34 302.21,-124.81 305.82,-134.77 311.25,-130.34"/>
</g>
<!-- media&#45;source -->
<g id="node92" class="node">
<title>media&#45;source</title>
<path fill="#bfcfff" stroke="black" d="M99.99,-225.35C99.99,-225.35 174.99,-225.35 174.99,-225.35 180.99,-225.35 186.99,-231.35 186.99,-237.35 186.99,-237.35 186.99,-249.35 186.99,-249.35 186.99,-255.35 180.99,-261.35 174.99,-261.35 174.99,-261.35 99.99,-261.35 99.99,-261.35 93.99,-261.35 87.99,-255.35 87.99,-249.35 87.99,-249.35 87.99,-237.35 87.99,-237.35 87.99,-231.35 93.99,-225.35 99.99,-225.35"/>
<text text-anchor="middle" x="137.49" y="-239.65" font-family="Arial" font-size="14.00">media&#45;source</text>
</g>
<!-- baseTopicElements&#45;&gt;media&#45;source -->
<g id="edge91" class="edge">
<title>baseTopicElements&#45;&gt;media&#45;source</title>
<path fill="none" stroke="#1f78b4" d="M461.45,-362.26C393.08,-337.17 269.47,-291.79 196.3,-264.94"/>
<polygon fill="#a6cee3" stroke="#1f78b4" points="197.36,-261.6 186.76,-261.44 194.94,-268.17 197.36,-261.6"/>
</g>
<!-- media&#45;track -->
<g id="node93" class="node">
<title>media&#45;track</title>
<path fill="#bfcfff" stroke="black" d="M115.65,-315.59C115.65,-315.59 179.65,-315.59 179.65,-315.59 185.65,-315.59 191.65,-321.59 191.65,-327.59 191.65,-327.59 191.65,-339.59 191.65,-339.59 191.65,-345.59 185.65,-351.59 179.65,-351.59 179.65,-351.59 115.65,-351.59 115.65,-351.59 109.65,-351.59 103.65,-345.59 103.65,-339.59 103.65,-339.59 103.65,-327.59 103.65,-327.59 103.65,-321.59 109.65,-315.59 115.65,-315.59"/>
<text text-anchor="middle" x="147.65" y="-329.89" font-family="Arial" font-size="14.00">media&#45;track</text>
</g>
<!-- baseTopicElements&#45;&gt;media&#45;track -->
<g id="edge92" class="edge">
<title>baseTopicElements&#45;&gt;media&#45;track</title>
<path fill="none" stroke="#1f78b4" d="M438.47,-371.02C368.75,-362.05 264.71,-348.66 201.81,-340.56"/>
<polygon fill="#a6cee3" stroke="#1f78b4" points="202.06,-337.06 191.7,-339.26 201.17,-344.01 202.06,-337.06"/>
</g>
<!-- topic -->
<g id="node94" class="node">
<title>topic</title>
<path fill="#bfcfff" stroke="black" d="M671.64,-35.35C671.64,-35.35 701.64,-35.35 701.64,-35.35 707.64,-35.35 713.64,-41.35 713.64,-47.35 713.64,-47.35 713.64,-59.35 713.64,-59.35 713.64,-65.35 707.64,-71.35 701.64,-71.35 701.64,-71.35 671.64,-71.35 671.64,-71.35 665.64,-71.35 659.64,-65.35 659.64,-59.35 659.64,-59.35 659.64,-47.35 659.64,-47.35 659.64,-41.35 665.64,-35.35 671.64,-35.35"/>
<text text-anchor="middle" x="686.64" y="-49.65" font-family="Arial" font-size="14.00">topic</text>
</g>
<!-- baseTopicElements&#45;&gt;topic -->
<g id="edge93" class="edge">
<title>baseTopicElements&#45;&gt;topic</title>
<path fill="none" stroke="#1f78b4" d="M520.33,-362.26C549.59,-307.9 637.03,-145.49 671.97,-80.58"/>
<polygon fill="#a6cee3" stroke="#1f78b4" points="675.08,-82.2 676.74,-71.74 668.91,-78.88 675.08,-82.2"/>
</g>
<!-- abstract -->
<g id="node95" class="node">
<title>abstract</title>
<path fill="#bfcfff" stroke="black" d="M617.66,-199.2C617.66,-199.2 658.66,-199.2 658.66,-199.2 664.66,-199.2 670.66,-205.2 670.66,-211.2 670.66,-211.2 670.66,-223.2 670.66,-223.2 670.66,-229.2 664.66,-235.2 658.66,-235.2 658.66,-235.2 617.66,-235.2 617.66,-235.2 611.66,-235.2 605.66,-229.2 605.66,-223.2 605.66,-223.2 605.66,-211.2 605.66,-211.2 605.66,-205.2 611.66,-199.2 617.66,-199.2"/>
<text text-anchor="middle" x="638.16" y="-213.5" font-family="Arial" font-size="14.00">abstract</text>
</g>
<!-- baseTopicElements&#45;&gt;abstract -->
<g id="edge94" class="edge">
<title>baseTopicElements&#45;&gt;abstract</title>
<path fill="none" stroke="#1f78b4" d="M524.75,-362.23C547.35,-333.32 591.72,-276.58 617.76,-243.28"/>
<polygon fill="#a6cee3" stroke="#1f78b4" points="620.56,-245.39 623.96,-235.36 615.05,-241.08 620.56,-245.39"/>
</g>
<!-- body -->
<g id="node96" class="node">
<title>body</title>
<path fill="#bfcfff" stroke="black" d="M184.24,-454.13C184.24,-454.13 214.24,-454.13 214.24,-454.13 220.24,-454.13 226.24,-460.13 226.24,-466.13 226.24,-466.13 226.24,-478.13 226.24,-478.13 226.24,-484.13 220.24,-490.13 214.24,-490.13 214.24,-490.13 184.24,-490.13 184.24,-490.13 178.24,-490.13 172.24,-484.13 172.24,-478.13 172.24,-478.13 172.24,-466.13 172.24,-466.13 172.24,-460.13 178.24,-454.13 184.24,-454.13"/>
<text text-anchor="middle" x="199.24" y="-468.43" font-family="Arial" font-size="14.00">body</text>
</g>
<!-- baseTopicElements&#45;&gt;body -->
<g id="edge95" class="edge">
<title>baseTopicElements&#45;&gt;body</title>
<path fill="none" stroke="#1f78b4" d="M449.47,-398.34C386.04,-417.04 288.92,-445.69 236.27,-461.21"/>
<polygon fill="#a6cee3" stroke="#1f78b4" points="234.96,-457.95 226.35,-464.14 236.94,-464.66 234.96,-457.95"/>
</g>
<!-- bodydiv -->
<g id="node97" class="node">
<title>bodydiv</title>
<path fill="#bfcfff" stroke="black" d="M798.8,-433.15C798.8,-433.15 837.8,-433.15 837.8,-433.15 843.8,-433.15 849.8,-439.15 849.8,-445.15 849.8,-445.15 849.8,-457.15 849.8,-457.15 849.8,-463.15 843.8,-469.15 837.8,-469.15 837.8,-469.15 798.8,-469.15 798.8,-469.15 792.8,-469.15 786.8,-463.15 786.8,-457.15 786.8,-457.15 786.8,-445.15 786.8,-445.15 786.8,-439.15 792.8,-433.15 798.8,-433.15"/>
<text text-anchor="middle" x="818.3" y="-447.45" font-family="Arial" font-size="14.00">bodydiv</text>
</g>
<!-- baseTopicElements&#45;&gt;bodydiv -->
<g id="edge96" class="edge">
<title>baseTopicElements&#45;&gt;bodydiv</title>
<path fill="none" stroke="#1f78b4" d="M582.75,-396.92C643.07,-410.8 727,-430.13 776.68,-441.57"/>
<polygon fill="#a6cee3" stroke="#1f78b4" points="775.91,-444.98 786.44,-443.81 777.48,-438.16 775.91,-444.98"/>
</g>
<!-- no&#45;topic&#45;nesting -->
<g id="node98" class="node">
<title>no&#45;topic&#45;nesting</title>
<path fill="#bfcfff" stroke="black" d="M56.75,-454.2C56.75,-454.2 145.75,-454.2 145.75,-454.2 151.75,-454.2 157.75,-460.2 157.75,-466.2 157.75,-466.2 157.75,-478.2 157.75,-478.2 157.75,-484.2 151.75,-490.2 145.75,-490.2 145.75,-490.2 56.75,-490.2 56.75,-490.2 50.75,-490.2 44.75,-484.2 44.75,-478.2 44.75,-478.2 44.75,-466.2 44.75,-466.2 44.75,-460.2 50.75,-454.2 56.75,-454.2"/>
<text text-anchor="middle" x="101.25" y="-468.5" font-family="Arial" font-size="14.00">no&#45;topic&#45;nesting</text>
</g>
<!-- baseTopicElements&#45;&gt;no&#45;topic&#45;nesting -->
<g id="edge97" class="edge">
<title>baseTopicElements&#45;&gt;no&#45;topic&#45;nesting</title>
<path fill="none" stroke="#1f78b4" d="M438.37,-396.52C361.97,-413.67 242.43,-440.51 168.13,-457.19"/>
<polygon fill="#a6cee3" stroke="#1f78b4" points="166.94,-453.87 157.95,-459.47 168.48,-460.7 166.94,-453.87"/>
</g>
<!-- section -->
<g id="node99" class="node">
<title>section</title>
<path fill="#bfcfff" stroke="black" d="M572.1,-631.98C572.1,-631.98 607.1,-631.98 607.1,-631.98 613.1,-631.98 619.1,-637.98 619.1,-643.98 619.1,-643.98 619.1,-655.98 619.1,-655.98 619.1,-661.98 613.1,-667.98 607.1,-667.98 607.1,-667.98 572.1,-667.98 572.1,-667.98 566.1,-667.98 560.1,-661.98 560.1,-655.98 560.1,-655.98 560.1,-643.98 560.1,-643.98 560.1,-637.98 566.1,-631.98 572.1,-631.98"/>
<text text-anchor="middle" x="589.6" y="-646.28" font-family="Arial" font-size="14.00">section</text>
</g>
<!-- baseTopicElements&#45;&gt;section -->
<g id="edge98" class="edge">
<title>baseTopicElements&#45;&gt;section</title>
<path fill="none" stroke="#1f78b4" d="M515.92,-398.42C529.44,-444.57 565.25,-566.83 581.44,-622.12"/>
<polygon fill="#a6cee3" stroke="#1f78b4" points="578.15,-623.33 584.32,-631.94 584.87,-621.36 578.15,-623.33"/>
</g>
<!-- prolog -->
<g id="node100" class="node">
<title>prolog</title>
<path fill="#bfcfff" stroke="black" d="M400.52,-155.25C400.52,-155.25 430.52,-155.25 430.52,-155.25 436.52,-155.25 442.52,-161.25 442.52,-167.25 442.52,-167.25 442.52,-179.25 442.52,-179.25 442.52,-185.25 436.52,-191.25 430.52,-191.25 430.52,-191.25 400.52,-191.25 400.52,-191.25 394.52,-191.25 388.52,-185.25 388.52,-179.25 388.52,-179.25 388.52,-167.25 388.52,-167.25 388.52,-161.25 394.52,-155.25 400.52,-155.25"/>
<text text-anchor="middle" x="415.52" y="-169.55" font-family="Arial" font-size="14.00">prolog</text>
</g>
<!-- baseTopicElements&#45;&gt;prolog -->
<g id="edge99" class="edge">
<title>baseTopicElements&#45;&gt;prolog</title>
<path fill="none" stroke="#1f78b4" d="M502.34,-362.29C485.66,-325.96 447.88,-243.71 428.12,-200.67"/>
<polygon fill="#a6cee3" stroke="#1f78b4" points="431.2,-198.99 423.84,-191.37 424.84,-201.92 431.2,-198.99"/>
</g>
<!-- related&#45;links -->
<g id="node101" class="node">
<title>related&#45;links</title>
<path fill="#bfcfff" stroke="black" d="M82.85,-499.24C82.85,-499.24 147.85,-499.24 147.85,-499.24 153.85,-499.24 159.85,-505.24 159.85,-511.24 159.85,-511.24 159.85,-523.24 159.85,-523.24 159.85,-529.24 153.85,-535.24 147.85,-535.24 147.85,-535.24 82.85,-535.24 82.85,-535.24 76.85,-535.24 70.85,-529.24 70.85,-523.24 70.85,-523.24 70.85,-511.24 70.85,-511.24 70.85,-505.24 76.85,-499.24 82.85,-499.24"/>
<text text-anchor="middle" x="115.35" y="-513.54" font-family="Arial" font-size="14.00">related&#45;links</text>
</g>
<!-- baseTopicElements&#45;&gt;related&#45;links -->
<g id="edge100" class="edge">
<title>baseTopicElements&#45;&gt;related&#45;links</title>
<path fill="none" stroke="#1f78b4" d="M458.53,-398.35C383.6,-424.31 246.03,-471.97 169.8,-498.38"/>
<polygon fill="#a6cee3" stroke="#1f78b4" points="168.22,-495.22 159.91,-501.8 170.51,-501.84 168.22,-495.22"/>
</g>
<!-- link -->
<g id="node102" class="node">
<title>link</title>
<path fill="#bfcfff" stroke="black" d="M609.34,-90.15C609.34,-90.15 639.34,-90.15 639.34,-90.15 645.34,-90.15 651.34,-96.15 651.34,-102.15 651.34,-102.15 651.34,-114.15 651.34,-114.15 651.34,-120.15 645.34,-126.15 639.34,-126.15 639.34,-126.15 609.34,-126.15 609.34,-126.15 603.34,-126.15 597.34,-120.15 597.34,-114.15 597.34,-114.15 597.34,-102.15 597.34,-102.15 597.34,-96.15 603.34,-90.15 609.34,-90.15"/>
<text text-anchor="middle" x="624.34" y="-104.45" font-family="Arial" font-size="14.00">link</text>
</g>
<!-- baseTopicElements&#45;&gt;link -->
<g id="edge101" class="edge">
<title>baseTopicElements&#45;&gt;link</title>
<path fill="none" stroke="#1f78b4" d="M518.25,-362.03C537.76,-315.35 589.49,-191.55 612.74,-135.91"/>
<polygon fill="#a6cee3" stroke="#1f78b4" points="616.11,-136.93 616.74,-126.35 609.65,-134.23 616.11,-136.93"/>
</g>
<!-- linklist -->
<g id="node103" class="node">
<title>linklist</title>
<path fill="#bfcfff" stroke="black" d="M432.21,-713.11C432.21,-713.11 462.21,-713.11 462.21,-713.11 468.21,-713.11 474.21,-719.11 474.21,-725.11 474.21,-725.11 474.21,-737.11 474.21,-737.11 474.21,-743.11 468.21,-749.11 462.21,-749.11 462.21,-749.11 432.21,-749.11 432.21,-749.11 426.21,-749.11 420.21,-743.11 420.21,-737.11 420.21,-737.11 420.21,-725.11 420.21,-725.11 420.21,-719.11 426.21,-713.11 432.21,-713.11"/>
<text text-anchor="middle" x="447.21" y="-727.41" font-family="Arial" font-size="14.00">linklist</text>
</g>
<!-- baseTopicElements&#45;&gt;linklist -->
<g id="edge102" class="edge">
<title>baseTopicElements&#45;&gt;linklist</title>
<path fill="none" stroke="#1f78b4" d="M507.29,-398.67C496.89,-456.22 464.89,-633.29 452.33,-702.74"/>
<polygon fill="#a6cee3" stroke="#1f78b4" points="448.83,-702.47 450.49,-712.93 455.72,-703.71 448.83,-702.47"/>
</g>
<!-- linkinfo -->
<g id="node104" class="node">
<title>linkinfo</title>
<path fill="#bfcfff" stroke="black" d="M185.02,-499.2C185.02,-499.2 220.02,-499.2 220.02,-499.2 226.02,-499.2 232.02,-505.2 232.02,-511.2 232.02,-511.2 232.02,-523.2 232.02,-523.2 232.02,-529.2 226.02,-535.2 220.02,-535.2 220.02,-535.2 185.02,-535.2 185.02,-535.2 179.02,-535.2 173.02,-529.2 173.02,-523.2 173.02,-523.2 173.02,-511.2 173.02,-511.2 173.02,-505.2 179.02,-499.2 185.02,-499.2"/>
<text text-anchor="middle" x="202.52" y="-513.5" font-family="Arial" font-size="14.00">linkinfo</text>
</g>
<!-- baseTopicElements&#45;&gt;linkinfo -->
<g id="edge103" class="edge">
<title>baseTopicElements&#45;&gt;linkinfo</title>
<path fill="none" stroke="#1f78b4" d="M470.02,-398.34C410.43,-424.82 300.01,-473.88 241.4,-499.92"/>
<polygon fill="#a6cee3" stroke="#1f78b4" points="239.83,-496.79 232.11,-504.05 242.67,-503.19 239.83,-496.79"/>
</g>
<!-- linkpool -->
<g id="node105" class="node">
<title>linkpool</title>
<path fill="#bfcfff" stroke="black" d="M278.61,-269.94C278.61,-269.94 316.61,-269.94 316.61,-269.94 322.61,-269.94 328.61,-275.94 328.61,-281.94 328.61,-281.94 328.61,-293.94 328.61,-293.94 328.61,-299.94 322.61,-305.94 316.61,-305.94 316.61,-305.94 278.61,-305.94 278.61,-305.94 272.61,-305.94 266.61,-299.94 266.61,-293.94 266.61,-293.94 266.61,-281.94 266.61,-281.94 266.61,-275.94 272.61,-269.94 278.61,-269.94"/>
<text text-anchor="middle" x="297.61" y="-284.24" font-family="Arial" font-size="14.00">linkpool</text>
</g>
<!-- baseTopicElements&#45;&gt;linkpool -->
<g id="edge104" class="edge">
<title>baseTopicElements&#45;&gt;linkpool</title>
<path fill="none" stroke="#1f78b4" d="M469.04,-362.28C431.25,-345.89 375.83,-321.86 338.32,-305.59"/>
<polygon fill="#a6cee3" stroke="#1f78b4" points="339.28,-302.2 328.72,-301.43 336.5,-308.62 339.28,-302.2"/>
</g>
<!-- linktext -->
<g id="node106" class="node">
<title>linktext</title>
<path fill="#bfcfff" stroke="black" d="M818.02,-478.15C818.02,-478.15 853.02,-478.15 853.02,-478.15 859.02,-478.15 865.02,-484.15 865.02,-490.15 865.02,-490.15 865.02,-502.15 865.02,-502.15 865.02,-508.15 859.02,-514.15 853.02,-514.15 853.02,-514.15 818.02,-514.15 818.02,-514.15 812.02,-514.15 806.02,-508.15 806.02,-502.15 806.02,-502.15 806.02,-490.15 806.02,-490.15 806.02,-484.15 812.02,-478.15 818.02,-478.15"/>
<text text-anchor="middle" x="835.52" y="-492.45" font-family="Arial" font-size="14.00">linktext</text>
</g>
<!-- baseTopicElements&#45;&gt;linktext -->
<g id="edge105" class="edge">
<title>baseTopicElements&#45;&gt;linktext</title>
<path fill="none" stroke="#1f78b4" d="M561.38,-398.41C626.33,-421.57 737.46,-461.19 796.3,-482.17"/>
<polygon fill="#a6cee3" stroke="#1f78b4" points="795.37,-485.55 805.97,-485.62 797.72,-478.96 795.37,-485.55"/>
</g>
</g>
</svg>
