<?xml version="1.0" encoding="UTF-8" standalone="no"?>
<!DOCTYPE svg PUBLIC "-//W3C//DTD SVG 1.1//EN"
 "http://www.w3.org/Graphics/SVG/1.1/DTD/svg11.dtd">
<!-- Generated by graphviz version 6.0.1 (20220911.1526)
 -->
<!-- Pages: 1 -->
<svg width="1136pt" height="750pt"
 viewBox="0.00 0.00 1136.00 750.00" xmlns="http://www.w3.org/2000/svg" xmlns:xlink="http://www.w3.org/1999/xlink">
<g id="graph0" class="graph" transform="scale(1 1) rotate(0) translate(4 746)">
<polygon fill="white" stroke="none" points="-4,4 -4,-746 1132,-746 1132,4 -4,4"/>
<!-- map -->
<g id="node1" class="node">
<title>map</title>
<path fill="#afa7f4" stroke="black" d="M233.34,-188.18C233.34,-188.18 263.34,-188.18 263.34,-188.18 269.34,-188.18 275.34,-194.18 275.34,-200.18 275.34,-200.18 275.34,-212.18 275.34,-212.18 275.34,-218.18 269.34,-224.18 263.34,-224.18 263.34,-224.18 233.34,-224.18 233.34,-224.18 227.34,-224.18 221.34,-218.18 221.34,-212.18 221.34,-212.18 221.34,-200.18 221.34,-200.18 221.34,-194.18 227.34,-188.18 233.34,-188.18"/>
<text text-anchor="middle" x="248.34" y="-202.48" font-family="Arial" font-size="14.00">map</text>
</g>
<!-- bookmap -->
<g id="node2" class="node">
<title>bookmap</title>
<path fill="#1afabc" stroke="black" d="M402.98,-293.18C402.98,-293.18 451.98,-293.18 451.98,-293.18 457.98,-293.18 463.98,-299.18 463.98,-305.18 463.98,-305.18 463.98,-317.18 463.98,-317.18 463.98,-323.18 457.98,-329.18 451.98,-329.18 451.98,-329.18 402.98,-329.18 402.98,-329.18 396.98,-329.18 390.98,-323.18 390.98,-317.18 390.98,-317.18 390.98,-305.18 390.98,-305.18 390.98,-299.18 396.98,-293.18 402.98,-293.18"/>
<text text-anchor="middle" x="427.48" y="-307.48" font-family="Arial" font-size="14.00">bookmap</text>
</g>
<!-- map&#45;&gt;bookmap -->
<g id="edge1" class="edge">
<title>map&#45;&gt;bookmap</title>
<path fill="none" stroke="#1f78b4" d="M275.55,-222.13C305.47,-239.67 353.82,-268 387.93,-288"/>
<polygon fill="#a6cee3" stroke="#1f78b4" points="386.31,-291.11 396.71,-293.14 389.85,-285.07 386.31,-291.11"/>
</g>
<!-- glossref&#45;d -->
<g id="node3" class="node">
<title>glossref&#45;d</title>
<path fill="#1afabc" stroke="black" d="M152.42,-0.83C152.42,-0.83 204.42,-0.83 204.42,-0.83 210.42,-0.83 216.42,-6.83 216.42,-12.83 216.42,-12.83 216.42,-24.83 216.42,-24.83 216.42,-30.83 210.42,-36.83 204.42,-36.83 204.42,-36.83 152.42,-36.83 152.42,-36.83 146.42,-36.83 140.42,-30.83 140.42,-24.83 140.42,-24.83 140.42,-12.83 140.42,-12.83 140.42,-6.83 146.42,-0.83 152.42,-0.83"/>
<text text-anchor="middle" x="178.42" y="-15.13" font-family="Arial" font-size="14.00">glossref&#45;d</text>
</g>
<!-- map&#45;&gt;glossref&#45;d -->
<g id="edge2" class="edge">
<title>map&#45;&gt;glossref&#45;d</title>
<path fill="none" stroke="#1f78b4" d="M241.51,-187.88C229.21,-154.91 203.26,-85.4 188.77,-46.57"/>
<polygon fill="#a6cee3" stroke="#1f78b4" points="191.95,-45.08 185.17,-36.94 185.39,-47.53 191.95,-45.08"/>
</g>
<!-- ditavalref&#45;d -->
<g id="node4" class="node">
<title>ditavalref&#45;d</title>
<path fill="#1afabc" stroke="black" d="M342.95,-354.8C342.95,-354.8 401.95,-354.8 401.95,-354.8 407.95,-354.8 413.95,-360.8 413.95,-366.8 413.95,-366.8 413.95,-378.8 413.95,-378.8 413.95,-384.8 407.95,-390.8 401.95,-390.8 401.95,-390.8 342.95,-390.8 342.95,-390.8 336.95,-390.8 330.95,-384.8 330.95,-378.8 330.95,-378.8 330.95,-366.8 330.95,-366.8 330.95,-360.8 336.95,-354.8 342.95,-354.8"/>
<text text-anchor="middle" x="372.45" y="-369.1" font-family="Arial" font-size="14.00">ditavalref&#45;d</text>
</g>
<!-- map&#45;&gt;ditavalref&#45;d -->
<g id="edge3" class="edge">
<title>map&#45;&gt;ditavalref&#45;d</title>
<path fill="none" stroke="#1f78b4" d="M261.86,-224.33C283.87,-253.88 327.53,-312.49 352.91,-346.57"/>
<polygon fill="#a6cee3" stroke="#1f78b4" points="350.16,-348.74 358.95,-354.67 355.78,-344.56 350.16,-348.74"/>
</g>
<!-- mapgroup&#45;d -->
<g id="node5" class="node">
<title>mapgroup&#45;d</title>
<path fill="#1afabc" stroke="black" d="M11.64,-144.13C11.64,-144.13 77.64,-144.13 77.64,-144.13 83.64,-144.13 89.64,-150.13 89.64,-156.13 89.64,-156.13 89.64,-168.13 89.64,-168.13 89.64,-174.13 83.64,-180.13 77.64,-180.13 77.64,-180.13 11.64,-180.13 11.64,-180.13 5.64,-180.13 -0.36,-174.13 -0.36,-168.13 -0.36,-168.13 -0.36,-156.13 -0.36,-156.13 -0.36,-150.13 5.64,-144.13 11.64,-144.13"/>
<text text-anchor="middle" x="44.64" y="-158.43" font-family="Arial" font-size="14.00">mapgroup&#45;d</text>
</g>
<!-- map&#45;&gt;mapgroup&#45;d -->
<g id="edge4" class="edge">
<title>map&#45;&gt;mapgroup&#45;d</title>
<path fill="none" stroke="#1f78b4" d="M221.29,-200.33C190.43,-193.66 139.14,-182.56 99.76,-174.05"/>
<polygon fill="#a6cee3" stroke="#1f78b4" points="100.28,-170.58 89.77,-171.89 98.8,-177.42 100.28,-170.58"/>
</g>
<!-- classify&#45;d -->
<g id="node6" class="node">
<title>classify&#45;d</title>
<path fill="#1afabc" stroke="black" d="M72.45,-58.06C72.45,-58.06 121.45,-58.06 121.45,-58.06 127.45,-58.06 133.45,-64.06 133.45,-70.06 133.45,-70.06 133.45,-82.06 133.45,-82.06 133.45,-88.06 127.45,-94.06 121.45,-94.06 121.45,-94.06 72.45,-94.06 72.45,-94.06 66.45,-94.06 60.45,-88.06 60.45,-82.06 60.45,-82.06 60.45,-70.06 60.45,-70.06 60.45,-64.06 66.45,-58.06 72.45,-58.06"/>
<text text-anchor="middle" x="96.95" y="-72.36" font-family="Arial" font-size="14.00">classify&#45;d</text>
</g>
<!-- map&#45;&gt;classify&#45;d -->
<g id="edge5" class="edge">
<title>map&#45;&gt;classify&#45;d</title>
<path fill="none" stroke="#1f78b4" d="M227.29,-188.09C201,-165.49 155.88,-126.71 126.24,-101.23"/>
<polygon fill="#a6cee3" stroke="#1f78b4" points="128.18,-98.28 118.31,-94.42 123.62,-103.59 128.18,-98.28"/>
</g>
<!-- topic -->
<g id="node7" class="node">
<title>topic</title>
<path fill="#afa7f4" stroke="black" d="M575.74,-493.98C575.74,-493.98 605.74,-493.98 605.74,-493.98 611.74,-493.98 617.74,-499.98 617.74,-505.98 617.74,-505.98 617.74,-517.98 617.74,-517.98 617.74,-523.98 611.74,-529.98 605.74,-529.98 605.74,-529.98 575.74,-529.98 575.74,-529.98 569.74,-529.98 563.74,-523.98 563.74,-517.98 563.74,-517.98 563.74,-505.98 563.74,-505.98 563.74,-499.98 569.74,-493.98 575.74,-493.98"/>
<text text-anchor="middle" x="590.74" y="-508.28" font-family="Arial" font-size="14.00">topic</text>
</g>
<!-- topic&#45;&gt;bookmap -->
<g id="edge6" class="edge">
<title>topic&#45;&gt;bookmap</title>
<path fill="none" stroke="#1f78b4" d="M575.96,-493.81C546.96,-458.13 482.47,-378.82 448.83,-337.44"/>
<polygon fill="#a6cee3" stroke="#1f78b4" points="451.37,-335.01 442.34,-329.46 445.94,-339.42 451.37,-335.01"/>
</g>
<!-- topic&#45;&gt;ditavalref&#45;d -->
<g id="edge26" class="edge">
<title>topic&#45;&gt;ditavalref&#45;d</title>
<path fill="none" stroke="#1f78b4" d="M563.53,-494.63C524.61,-469.82 452.93,-424.12 409.29,-396.29"/>
<polygon fill="#a6cee3" stroke="#1f78b4" points="411,-393.23 400.69,-390.81 407.24,-399.13 411,-393.23"/>
</g>
<!-- abbrev&#45;d -->
<g id="node8" class="node">
<title>abbrev&#45;d</title>
<path fill="#1afabc" stroke="black" d="M717.18,-533.73C717.18,-533.73 763.18,-533.73 763.18,-533.73 769.18,-533.73 775.18,-539.73 775.18,-545.73 775.18,-545.73 775.18,-557.73 775.18,-557.73 775.18,-563.73 769.18,-569.73 763.18,-569.73 763.18,-569.73 717.18,-569.73 717.18,-569.73 711.18,-569.73 705.18,-563.73 705.18,-557.73 705.18,-557.73 705.18,-545.73 705.18,-545.73 705.18,-539.73 711.18,-533.73 717.18,-533.73"/>
<text text-anchor="middle" x="740.18" y="-548.03" font-family="Arial" font-size="14.00">abbrev&#45;d</text>
</g>
<!-- topic&#45;&gt;abbrev&#45;d -->
<g id="edge7" class="edge">
<title>topic&#45;&gt;abbrev&#45;d</title>
<path fill="none" stroke="#1f78b4" d="M617.8,-519.18C639.41,-524.93 670.14,-533.1 695.4,-539.82"/>
<polygon fill="#a6cee3" stroke="#1f78b4" points="694.58,-543.23 705.14,-542.41 696.38,-536.46 694.58,-543.23"/>
</g>
<!-- markup&#45;d -->
<g id="node9" class="node">
<title>markup&#45;d</title>
<path fill="#1afabc" stroke="black" d="M788,-364.47C788,-364.47 838,-364.47 838,-364.47 844,-364.47 850,-370.47 850,-376.47 850,-376.47 850,-388.47 850,-388.47 850,-394.47 844,-400.47 838,-400.47 838,-400.47 788,-400.47 788,-400.47 782,-400.47 776,-394.47 776,-388.47 776,-388.47 776,-376.47 776,-376.47 776,-370.47 782,-364.47 788,-364.47"/>
<text text-anchor="middle" x="813" y="-378.77" font-family="Arial" font-size="14.00">markup&#45;d</text>
</g>
<!-- topic&#45;&gt;markup&#45;d -->
<g id="edge8" class="edge">
<title>topic&#45;&gt;markup&#45;d</title>
<path fill="none" stroke="#1f78b4" d="M617.99,-496.1C656.81,-473.48 728.29,-431.83 773.09,-405.72"/>
<polygon fill="#a6cee3" stroke="#1f78b4" points="775.07,-408.62 781.95,-400.56 771.54,-402.57 775.07,-408.62"/>
</g>
<!-- mathml&#45;d -->
<g id="node11" class="node">
<title>mathml&#45;d</title>
<path fill="#1afabc" stroke="black" d="M510.28,-705.64C510.28,-705.64 560.28,-705.64 560.28,-705.64 566.28,-705.64 572.28,-711.64 572.28,-717.64 572.28,-717.64 572.28,-729.64 572.28,-729.64 572.28,-735.64 566.28,-741.64 560.28,-741.64 560.28,-741.64 510.28,-741.64 510.28,-741.64 504.28,-741.64 498.28,-735.64 498.28,-729.64 498.28,-729.64 498.28,-717.64 498.28,-717.64 498.28,-711.64 504.28,-705.64 510.28,-705.64"/>
<text text-anchor="middle" x="535.28" y="-719.94" font-family="Arial" font-size="14.00">mathml&#45;d</text>
</g>
<!-- topic&#45;&gt;mathml&#45;d -->
<g id="edge10" class="edge">
<title>topic&#45;&gt;mathml&#45;d</title>
<path fill="none" stroke="#1f78b4" d="M586.01,-530.03C576.31,-567.05 554.1,-651.8 542.56,-695.87"/>
<polygon fill="#a6cee3" stroke="#1f78b4" points="539.15,-695.08 540,-705.64 545.92,-696.85 539.15,-695.08"/>
</g>
<!-- troubleshooting -->
<g id="node12" class="node">
<title>troubleshooting</title>
<path fill="#1afabc" stroke="black" d="M304.78,-541.35C304.78,-541.35 389.78,-541.35 389.78,-541.35 395.78,-541.35 401.78,-547.35 401.78,-553.35 401.78,-553.35 401.78,-565.35 401.78,-565.35 401.78,-571.35 395.78,-577.35 389.78,-577.35 389.78,-577.35 304.78,-577.35 304.78,-577.35 298.78,-577.35 292.78,-571.35 292.78,-565.35 292.78,-565.35 292.78,-553.35 292.78,-553.35 292.78,-547.35 298.78,-541.35 304.78,-541.35"/>
<text text-anchor="middle" x="347.28" y="-555.65" font-family="Arial" font-size="14.00">troubleshooting</text>
</g>
<!-- topic&#45;&gt;troubleshooting -->
<g id="edge11" class="edge">
<title>topic&#45;&gt;troubleshooting</title>
<path fill="none" stroke="#1f78b4" d="M563.28,-517.32C526.87,-524.41 461.45,-537.14 412.12,-546.74"/>
<polygon fill="#a6cee3" stroke="#1f78b4" points="411.32,-543.33 402.17,-548.67 412.65,-550.2 411.32,-543.33"/>
</g>
<!-- pr&#45;d -->
<g id="node13" class="node">
<title>pr&#45;d</title>
<path fill="#1afabc" stroke="black" d="M805.39,-506.4C805.39,-506.4 835.39,-506.4 835.39,-506.4 841.39,-506.4 847.39,-512.4 847.39,-518.4 847.39,-518.4 847.39,-530.4 847.39,-530.4 847.39,-536.4 841.39,-542.4 835.39,-542.4 835.39,-542.4 805.39,-542.4 805.39,-542.4 799.39,-542.4 793.39,-536.4 793.39,-530.4 793.39,-530.4 793.39,-518.4 793.39,-518.4 793.39,-512.4 799.39,-506.4 805.39,-506.4"/>
<text text-anchor="middle" x="820.39" y="-520.7" font-family="Arial" font-size="14.00">pr&#45;d</text>
</g>
<!-- topic&#45;&gt;pr&#45;d -->
<g id="edge12" class="edge">
<title>topic&#45;&gt;pr&#45;d</title>
<path fill="none" stroke="#1f78b4" d="M617.98,-513.45C658.99,-515.67 736.68,-519.88 782.97,-522.38"/>
<polygon fill="#a6cee3" stroke="#1f78b4" points="783.01,-525.89 793.18,-522.93 783.39,-518.9 783.01,-525.89"/>
</g>
<!-- hw&#45;d -->
<g id="node15" class="node">
<title>hw&#45;d</title>
<path fill="#1afabc" stroke="black" d="M637.37,-311.65C637.37,-311.65 667.37,-311.65 667.37,-311.65 673.37,-311.65 679.37,-317.65 679.37,-323.65 679.37,-323.65 679.37,-335.65 679.37,-335.65 679.37,-341.65 673.37,-347.65 667.37,-347.65 667.37,-347.65 637.37,-347.65 637.37,-347.65 631.37,-347.65 625.37,-341.65 625.37,-335.65 625.37,-335.65 625.37,-323.65 625.37,-323.65 625.37,-317.65 631.37,-311.65 637.37,-311.65"/>
<text text-anchor="middle" x="652.37" y="-325.95" font-family="Arial" font-size="14.00">hw&#45;d</text>
</g>
<!-- topic&#45;&gt;hw&#45;d -->
<g id="edge14" class="edge">
<title>topic&#45;&gt;hw&#45;d</title>
<path fill="none" stroke="#1f78b4" d="M596.87,-493.83C607.67,-461.89 630.14,-395.42 642.93,-357.58"/>
<polygon fill="#a6cee3" stroke="#1f78b4" points="646.38,-358.32 646.26,-347.72 639.74,-356.08 646.38,-358.32"/>
</g>
<!-- svg&#45;d -->
<g id="node16" class="node">
<title>svg&#45;d</title>
<path fill="#1afabc" stroke="black" d="M652.26,-618.13C652.26,-618.13 682.26,-618.13 682.26,-618.13 688.26,-618.13 694.26,-624.13 694.26,-630.13 694.26,-630.13 694.26,-642.13 694.26,-642.13 694.26,-648.13 688.26,-654.13 682.26,-654.13 682.26,-654.13 652.26,-654.13 652.26,-654.13 646.26,-654.13 640.26,-648.13 640.26,-642.13 640.26,-642.13 640.26,-630.13 640.26,-630.13 640.26,-624.13 646.26,-618.13 652.26,-618.13"/>
<text text-anchor="middle" x="667.26" y="-632.43" font-family="Arial" font-size="14.00">svg&#45;d</text>
</g>
<!-- topic&#45;&gt;svg&#45;d -->
<g id="edge15" class="edge">
<title>topic&#45;&gt;svg&#45;d</title>
<path fill="none" stroke="#1f78b4" d="M601.86,-530.03C614.73,-550.9 636.03,-585.45 650.81,-609.43"/>
<polygon fill="#a6cee3" stroke="#1f78b4" points="647.9,-611.38 656.12,-618.05 653.85,-607.7 647.9,-611.38"/>
</g>
<!-- ui&#45;d -->
<g id="node17" class="node">
<title>ui&#45;d</title>
<path fill="#1afabc" stroke="black" d="M565.55,-284.13C565.55,-284.13 595.55,-284.13 595.55,-284.13 601.55,-284.13 607.55,-290.13 607.55,-296.13 607.55,-296.13 607.55,-308.13 607.55,-308.13 607.55,-314.13 601.55,-320.13 595.55,-320.13 595.55,-320.13 565.55,-320.13 565.55,-320.13 559.55,-320.13 553.55,-314.13 553.55,-308.13 553.55,-308.13 553.55,-296.13 553.55,-296.13 553.55,-290.13 559.55,-284.13 565.55,-284.13"/>
<text text-anchor="middle" x="580.55" y="-298.43" font-family="Arial" font-size="14.00">ui&#45;d</text>
</g>
<!-- topic&#45;&gt;ui&#45;d -->
<g id="edge16" class="edge">
<title>topic&#45;&gt;ui&#45;d</title>
<path fill="none" stroke="#1f78b4" d="M589.85,-493.72C588.07,-457.05 584.05,-374.18 581.92,-330.43"/>
<polygon fill="#a6cee3" stroke="#1f78b4" points="585.41,-330.01 581.42,-320.2 578.41,-330.35 585.41,-330.01"/>
</g>
<!-- reference -->
<g id="node18" class="node">
<title>reference</title>
<path fill="#1afabc" stroke="black" d="M370.49,-606.8C370.49,-606.8 420.49,-606.8 420.49,-606.8 426.49,-606.8 432.49,-612.8 432.49,-618.8 432.49,-618.8 432.49,-630.8 432.49,-630.8 432.49,-636.8 426.49,-642.8 420.49,-642.8 420.49,-642.8 370.49,-642.8 370.49,-642.8 364.49,-642.8 358.49,-636.8 358.49,-630.8 358.49,-630.8 358.49,-618.8 358.49,-618.8 358.49,-612.8 364.49,-606.8 370.49,-606.8"/>
<text text-anchor="middle" x="395.49" y="-621.1" font-family="Arial" font-size="14.00">reference</text>
</g>
<!-- topic&#45;&gt;reference -->
<g id="edge17" class="edge">
<title>topic&#45;&gt;reference</title>
<path fill="none" stroke="#1f78b4" d="M563.59,-527.67C530.41,-546.84 473.98,-579.44 435.75,-601.54"/>
<polygon fill="#a6cee3" stroke="#1f78b4" points="433.83,-598.6 426.93,-606.64 437.34,-604.66 433.83,-598.6"/>
</g>
<!-- equation&#45;d -->
<g id="node19" class="node">
<title>equation&#45;d</title>
<path fill="#1afabc" stroke="black" d="M370.33,-427.93C370.33,-427.93 426.33,-427.93 426.33,-427.93 432.33,-427.93 438.33,-433.93 438.33,-439.93 438.33,-439.93 438.33,-451.93 438.33,-451.93 438.33,-457.93 432.33,-463.93 426.33,-463.93 426.33,-463.93 370.33,-463.93 370.33,-463.93 364.33,-463.93 358.33,-457.93 358.33,-451.93 358.33,-451.93 358.33,-439.93 358.33,-439.93 358.33,-433.93 364.33,-427.93 370.33,-427.93"/>
<text text-anchor="middle" x="398.33" y="-442.23" font-family="Arial" font-size="14.00">equation&#45;d</text>
</g>
<!-- topic&#45;&gt;equation&#45;d -->
<g id="edge18" class="edge">
<title>topic&#45;&gt;equation&#45;d</title>
<path fill="none" stroke="#1f78b4" d="M563.58,-502.66C533.62,-492.37 484.79,-475.61 447.96,-462.97"/>
<polygon fill="#a6cee3" stroke="#1f78b4" points="449,-459.62 438.4,-459.68 446.72,-466.24 449,-459.62"/>
</g>
<!-- task -->
<g id="node20" class="node">
<title>task</title>
<path fill="#1afabc" stroke="black" d="M469.32,-583.52C469.32,-583.52 499.32,-583.52 499.32,-583.52 505.32,-583.52 511.32,-589.52 511.32,-595.52 511.32,-595.52 511.32,-607.52 511.32,-607.52 511.32,-613.52 505.32,-619.52 499.32,-619.52 499.32,-619.52 469.32,-619.52 469.32,-619.52 463.32,-619.52 457.32,-613.52 457.32,-607.52 457.32,-607.52 457.32,-595.52 457.32,-595.52 457.32,-589.52 463.32,-583.52 469.32,-583.52"/>
<text text-anchor="middle" x="484.32" y="-597.82" font-family="Arial" font-size="14.00">task</text>
</g>
<!-- topic&#45;&gt;task -->
<g id="edge19" class="edge">
<title>topic&#45;&gt;task</title>
<path fill="none" stroke="#1f78b4" d="M569.2,-530.1C553.19,-543.57 531.16,-562.11 513.56,-576.92"/>
<polygon fill="#a6cee3" stroke="#1f78b4" points="511.22,-574.31 505.82,-583.43 515.73,-579.67 511.22,-574.31"/>
</g>
<!-- concept -->
<g id="node21" class="node">
<title>concept</title>
<path fill="#1afabc" stroke="black" d="M794.4,-428.43C794.4,-428.43 834.4,-428.43 834.4,-428.43 840.4,-428.43 846.4,-434.43 846.4,-440.43 846.4,-440.43 846.4,-452.43 846.4,-452.43 846.4,-458.43 840.4,-464.43 834.4,-464.43 834.4,-464.43 794.4,-464.43 794.4,-464.43 788.4,-464.43 782.4,-458.43 782.4,-452.43 782.4,-452.43 782.4,-440.43 782.4,-440.43 782.4,-434.43 788.4,-428.43 794.4,-428.43"/>
<text text-anchor="middle" x="814.4" y="-442.73" font-family="Arial" font-size="14.00">concept</text>
</g>
<!-- topic&#45;&gt;concept -->
<g id="edge20" class="edge">
<title>topic&#45;&gt;concept</title>
<path fill="none" stroke="#1f78b4" d="M618.16,-503.94C656.66,-492.66 727.07,-472.03 772.25,-458.79"/>
<polygon fill="#a6cee3" stroke="#1f78b4" points="773.43,-462.09 782.04,-455.92 771.46,-455.37 773.43,-462.09"/>
</g>
<!-- sw&#45;d -->
<g id="node24" class="node">
<title>sw&#45;d</title>
<path fill="#1afabc" stroke="black" d="M531.51,-650.18C531.51,-650.18 561.51,-650.18 561.51,-650.18 567.51,-650.18 573.51,-656.18 573.51,-662.18 573.51,-662.18 573.51,-674.18 573.51,-674.18 573.51,-680.18 567.51,-686.18 561.51,-686.18 561.51,-686.18 531.51,-686.18 531.51,-686.18 525.51,-686.18 519.51,-680.18 519.51,-674.18 519.51,-674.18 519.51,-662.18 519.51,-662.18 519.51,-656.18 525.51,-650.18 531.51,-650.18"/>
<text text-anchor="middle" x="546.51" y="-664.48" font-family="Arial" font-size="14.00">sw&#45;d</text>
</g>
<!-- topic&#45;&gt;sw&#45;d -->
<g id="edge23" class="edge">
<title>topic&#45;&gt;sw&#45;d</title>
<path fill="none" stroke="#1f78b4" d="M585.58,-530.2C577.92,-557.24 563.49,-608.22 554.47,-640.06"/>
<polygon fill="#a6cee3" stroke="#1f78b4" points="551,-639.49 551.64,-650.07 557.73,-641.4 551,-639.49"/>
</g>
<!-- relmgmt&#45;d -->
<g id="node25" class="node">
<title>relmgmt&#45;d</title>
<path fill="#1afabc" stroke="black" d="M678.9,-691.39C678.9,-691.39 733.9,-691.39 733.9,-691.39 739.9,-691.39 745.9,-697.39 745.9,-703.39 745.9,-703.39 745.9,-715.39 745.9,-715.39 745.9,-721.39 739.9,-727.39 733.9,-727.39 733.9,-727.39 678.9,-727.39 678.9,-727.39 672.9,-727.39 666.9,-721.39 666.9,-715.39 666.9,-715.39 666.9,-703.39 666.9,-703.39 666.9,-697.39 672.9,-691.39 678.9,-691.39"/>
<text text-anchor="middle" x="706.4" y="-705.69" font-family="Arial" font-size="14.00">relmgmt&#45;d</text>
</g>
<!-- topic&#45;&gt;relmgmt&#45;d -->
<g id="edge24" class="edge">
<title>topic&#45;&gt;relmgmt&#45;d</title>
<path fill="none" stroke="#1f78b4" d="M601.41,-530.2C621.85,-565.09 666.62,-641.49 690.56,-682.35"/>
<polygon fill="#a6cee3" stroke="#1f78b4" points="687.68,-684.36 695.76,-691.22 693.72,-680.82 687.68,-684.36"/>
</g>
<!-- xnal&#45;d -->
<g id="node26" class="node">
<title>xnal&#45;d</title>
<path fill="#1afabc" stroke="black" d="M407.6,-495.37C407.6,-495.37 437.6,-495.37 437.6,-495.37 443.6,-495.37 449.6,-501.37 449.6,-507.37 449.6,-507.37 449.6,-519.37 449.6,-519.37 449.6,-525.37 443.6,-531.37 437.6,-531.37 437.6,-531.37 407.6,-531.37 407.6,-531.37 401.6,-531.37 395.6,-525.37 395.6,-519.37 395.6,-519.37 395.6,-507.37 395.6,-507.37 395.6,-501.37 401.6,-495.37 407.6,-495.37"/>
<text text-anchor="middle" x="422.6" y="-509.67" font-family="Arial" font-size="14.00">xnal&#45;d</text>
</g>
<!-- topic&#45;&gt;xnal&#45;d -->
<g id="edge25" class="edge">
<title>topic&#45;&gt;xnal&#45;d</title>
<path fill="none" stroke="#1f78b4" d="M563.72,-512.2C535.62,-512.44 491.4,-512.8 459.96,-513.06"/>
<polygon fill="#a6cee3" stroke="#1f78b4" points="459.79,-509.56 449.82,-513.15 459.85,-516.56 459.79,-509.56"/>
</g>
<!-- hazard&#45;d -->
<g id="node27" class="node">
<title>hazard&#45;d</title>
<path fill="#1afabc" stroke="black" d="M719.43,-614.95C719.43,-614.95 765.43,-614.95 765.43,-614.95 771.43,-614.95 777.43,-620.95 777.43,-626.95 777.43,-626.95 777.43,-638.95 777.43,-638.95 777.43,-644.95 771.43,-650.95 765.43,-650.95 765.43,-650.95 719.43,-650.95 719.43,-650.95 713.43,-650.95 707.43,-644.95 707.43,-638.95 707.43,-638.95 707.43,-626.95 707.43,-626.95 707.43,-620.95 713.43,-614.95 719.43,-614.95"/>
<text text-anchor="middle" x="742.43" y="-629.25" font-family="Arial" font-size="14.00">hazard&#45;d</text>
</g>
<!-- topic&#45;&gt;hazard&#45;d -->
<g id="edge27" class="edge">
<title>topic&#45;&gt;hazard&#45;d</title>
<path fill="none" stroke="#1f78b4" d="M613.45,-530.09C639.47,-550.85 682.28,-584.99 711.38,-608.19"/>
<polygon fill="#a6cee3" stroke="#1f78b4" points="709.56,-611.22 719.57,-614.72 713.93,-605.75 709.56,-611.22"/>
</g>
<!-- emphasis&#45;d -->
<g id="node28" class="node">
<title>emphasis&#45;d</title>
<path fill="#1afabc" stroke="black" d="M491.81,-350.59C491.81,-350.59 554.81,-350.59 554.81,-350.59 560.81,-350.59 566.81,-356.59 566.81,-362.59 566.81,-362.59 566.81,-374.59 566.81,-374.59 566.81,-380.59 560.81,-386.59 554.81,-386.59 554.81,-386.59 491.81,-386.59 491.81,-386.59 485.81,-386.59 479.81,-380.59 479.81,-374.59 479.81,-374.59 479.81,-362.59 479.81,-362.59 479.81,-356.59 485.81,-350.59 491.81,-350.59"/>
<text text-anchor="middle" x="523.31" y="-364.89" font-family="Arial" font-size="14.00">emphasis&#45;d</text>
</g>
<!-- topic&#45;&gt;emphasis&#45;d -->
<g id="edge28" class="edge">
<title>topic&#45;&gt;emphasis&#45;d</title>
<path fill="none" stroke="#1f78b4" d="M582.2,-493.82C570.54,-469.04 549.57,-424.44 536.05,-395.69"/>
<polygon fill="#a6cee3" stroke="#1f78b4" points="539.2,-394.17 531.78,-386.61 532.87,-397.14 539.2,-394.17"/>
</g>
<!-- hi&#45;d -->
<g id="node29" class="node">
<title>hi&#45;d</title>
<path fill="#1afabc" stroke="black" d="M450.05,-660.6C450.05,-660.6 480.05,-660.6 480.05,-660.6 486.05,-660.6 492.05,-666.6 492.05,-672.6 492.05,-672.6 492.05,-684.6 492.05,-684.6 492.05,-690.6 486.05,-696.6 480.05,-696.6 480.05,-696.6 450.05,-696.6 450.05,-696.6 444.05,-696.6 438.05,-690.6 438.05,-684.6 438.05,-684.6 438.05,-672.6 438.05,-672.6 438.05,-666.6 444.05,-660.6 450.05,-660.6"/>
<text text-anchor="middle" x="465.05" y="-674.9" font-family="Arial" font-size="14.00">hi&#45;d</text>
</g>
<!-- topic&#45;&gt;hi&#45;d -->
<g id="edge29" class="edge">
<title>topic&#45;&gt;hi&#45;d</title>
<path fill="none" stroke="#1f78b4" d="M577.05,-530.13C554.76,-559.68 510.54,-618.3 484.84,-652.37"/>
<polygon fill="#a6cee3" stroke="#1f78b4" points="481.95,-650.38 478.72,-660.48 487.54,-654.6 481.95,-650.38"/>
</g>
<!-- alternativeTitles&#45;d -->
<g id="node30" class="node">
<title>alternativeTitles&#45;d</title>
<path fill="#1afabc" stroke="black" d="M656.49,-369.91C656.49,-369.91 755.49,-369.91 755.49,-369.91 761.49,-369.91 767.49,-375.91 767.49,-381.91 767.49,-381.91 767.49,-393.91 767.49,-393.91 767.49,-399.91 761.49,-405.91 755.49,-405.91 755.49,-405.91 656.49,-405.91 656.49,-405.91 650.49,-405.91 644.49,-399.91 644.49,-393.91 644.49,-393.91 644.49,-381.91 644.49,-381.91 644.49,-375.91 650.49,-369.91 656.49,-369.91"/>
<text text-anchor="middle" x="705.99" y="-384.21" font-family="Arial" font-size="14.00">alternativeTitles&#45;d</text>
</g>
<!-- topic&#45;&gt;alternativeTitles&#45;d -->
<g id="edge30" class="edge">
<title>topic&#45;&gt;alternativeTitles&#45;d</title>
<path fill="none" stroke="#1f78b4" d="M607.5,-493.94C627.21,-472.71 660.08,-437.33 682.37,-413.33"/>
<polygon fill="#a6cee3" stroke="#1f78b4" points="684.97,-415.68 689.21,-405.97 679.84,-410.92 684.97,-415.68"/>
</g>
<!-- ut&#45;d -->
<g id="node31" class="node">
<title>ut&#45;d</title>
<path fill="#1afabc" stroke="black" d="M596.83,-687.84C596.83,-687.84 626.83,-687.84 626.83,-687.84 632.83,-687.84 638.83,-693.84 638.83,-699.84 638.83,-699.84 638.83,-711.84 638.83,-711.84 638.83,-717.84 632.83,-723.84 626.83,-723.84 626.83,-723.84 596.83,-723.84 596.83,-723.84 590.83,-723.84 584.83,-717.84 584.83,-711.84 584.83,-711.84 584.83,-699.84 584.83,-699.84 584.83,-693.84 590.83,-687.84 596.83,-687.84"/>
<text text-anchor="middle" x="611.83" y="-702.14" font-family="Arial" font-size="14.00">ut&#45;d</text>
</g>
<!-- topic&#45;&gt;ut&#45;d -->
<g id="edge31" class="edge">
<title>topic&#45;&gt;ut&#45;d</title>
<path fill="none" stroke="#1f78b4" d="M592.72,-530.22C596.42,-564.22 604.4,-637.5 608.79,-677.82"/>
<polygon fill="#a6cee3" stroke="#1f78b4" points="605.31,-678.23 609.87,-687.79 612.27,-677.47 605.31,-678.23"/>
</g>
<!-- xml&#45;d -->
<g id="node10" class="node">
<title>xml&#45;d</title>
<path fill="#bfcfff" stroke="black" d="M994.82,-286.85C994.82,-286.85 1024.82,-286.85 1024.82,-286.85 1030.82,-286.85 1036.82,-292.85 1036.82,-298.85 1036.82,-298.85 1036.82,-310.85 1036.82,-310.85 1036.82,-316.85 1030.82,-322.85 1024.82,-322.85 1024.82,-322.85 994.82,-322.85 994.82,-322.85 988.82,-322.85 982.82,-316.85 982.82,-310.85 982.82,-310.85 982.82,-298.85 982.82,-298.85 982.82,-292.85 988.82,-286.85 994.82,-286.85"/>
<text text-anchor="middle" x="1009.82" y="-301.15" font-family="Arial" font-size="14.00">xml&#45;d</text>
</g>
<!-- markup&#45;d&#45;&gt;xml&#45;d -->
<g id="edge9" class="edge">
<title>markup&#45;d&#45;&gt;xml&#45;d</title>
<path fill="none" stroke="#1f78b4" d="M850.02,-367.87C885.34,-353.94 938.22,-333.08 973.36,-319.23"/>
<polygon fill="#a6cee3" stroke="#1f78b4" points="974.75,-322.44 982.76,-315.52 972.18,-315.93 974.75,-322.44"/>
</g>
<!-- syntaxdiagram&#45;d -->
<g id="node14" class="node">
<title>syntaxdiagram&#45;d</title>
<path fill="#bfcfff" stroke="black" d="M1022.85,-478.12C1022.85,-478.12 1115.85,-478.12 1115.85,-478.12 1121.85,-478.12 1127.85,-484.12 1127.85,-490.12 1127.85,-490.12 1127.85,-502.12 1127.85,-502.12 1127.85,-508.12 1121.85,-514.12 1115.85,-514.12 1115.85,-514.12 1022.85,-514.12 1022.85,-514.12 1016.85,-514.12 1010.85,-508.12 1010.85,-502.12 1010.85,-502.12 1010.85,-490.12 1010.85,-490.12 1010.85,-484.12 1016.85,-478.12 1022.85,-478.12"/>
<text text-anchor="middle" x="1069.35" y="-492.42" font-family="Arial" font-size="14.00">syntaxdiagram&#45;d</text>
</g>
<!-- pr&#45;d&#45;&gt;syntaxdiagram&#45;d -->
<g id="edge13" class="edge">
<title>pr&#45;d&#45;&gt;syntaxdiagram&#45;d</title>
<path fill="none" stroke="#1f78b4" d="M847.51,-521.32C883.94,-517.19 949.96,-509.69 1000.53,-503.94"/>
<polygon fill="#a6cee3" stroke="#1f78b4" points="1001.21,-507.38 1010.75,-502.78 1000.42,-500.43 1001.21,-507.38"/>
</g>
<!-- glossentry -->
<g id="node22" class="node">
<title>glossentry</title>
<path fill="#bfcfff" stroke="black" d="M890.6,-250.78C890.6,-250.78 944.6,-250.78 944.6,-250.78 950.6,-250.78 956.6,-256.78 956.6,-262.78 956.6,-262.78 956.6,-274.78 956.6,-274.78 956.6,-280.78 950.6,-286.78 944.6,-286.78 944.6,-286.78 890.6,-286.78 890.6,-286.78 884.6,-286.78 878.6,-280.78 878.6,-274.78 878.6,-274.78 878.6,-262.78 878.6,-262.78 878.6,-256.78 884.6,-250.78 890.6,-250.78"/>
<text text-anchor="middle" x="917.6" y="-265.08" font-family="Arial" font-size="14.00">glossentry</text>
</g>
<!-- concept&#45;&gt;glossentry -->
<g id="edge21" class="edge">
<title>concept&#45;&gt;glossentry</title>
<path fill="none" stroke="#1f78b4" d="M824.87,-428.42C843.1,-397.03 880.78,-332.16 902.07,-295.51"/>
<polygon fill="#a6cee3" stroke="#1f78b4" points="905.11,-297.24 907.11,-286.84 899.06,-293.73 905.11,-297.24"/>
</g>
<!-- glossgroup -->
<g id="node23" class="node">
<title>glossgroup</title>
<path fill="#bfcfff" stroke="black" d="M958.32,-530.63C958.32,-530.63 1017.32,-530.63 1017.32,-530.63 1023.32,-530.63 1029.32,-536.63 1029.32,-542.63 1029.32,-542.63 1029.32,-554.63 1029.32,-554.63 1029.32,-560.63 1023.32,-566.63 1017.32,-566.63 1017.32,-566.63 958.32,-566.63 958.32,-566.63 952.32,-566.63 946.32,-560.63 946.32,-554.63 946.32,-554.63 946.32,-542.63 946.32,-542.63 946.32,-536.63 952.32,-530.63 958.32,-530.63"/>
<text text-anchor="middle" x="987.82" y="-544.93" font-family="Arial" font-size="14.00">glossgroup</text>
</g>
<!-- concept&#45;&gt;glossgroup -->
<g id="edge22" class="edge">
<title>concept&#45;&gt;glossgroup</title>
<path fill="none" stroke="#1f78b4" d="M845.01,-464.47C873.77,-481.42 916.97,-506.88 948.32,-525.35"/>
<polygon fill="#a6cee3" stroke="#1f78b4" points="946.84,-528.55 957.23,-530.61 950.39,-522.51 946.84,-528.55"/>
</g>
</g>
</svg>
