<?xml version="1.0" encoding="UTF-8" standalone="no"?>
<!DOCTYPE svg PUBLIC "-//W3C//DTD SVG 1.1//EN"
 "http://www.w3.org/Graphics/SVG/1.1/DTD/svg11.dtd">
<!-- Generated by graphviz version 6.0.1 (20220911.1526)
 -->
<!-- Pages: 1 -->
<svg width="162pt" height="185pt"
 viewBox="0.00 0.00 162.00 185.00" xmlns="http://www.w3.org/2000/svg" xmlns:xlink="http://www.w3.org/1999/xlink">
<g id="graph0" class="graph" transform="scale(1 1) rotate(0) translate(4 181)">
<polygon fill="white" stroke="none" points="-4,4 -4,-181 158,-181 158,4 -4,4"/>
<!-- mathml&#45;d -->
<g id="node1" class="node">
<title>mathml&#45;d</title>
<path fill="#dddddd" stroke="black" d="M12.49,-82.47C12.49,-82.47 62.49,-82.47 62.49,-82.47 68.49,-82.47 74.49,-88.47 74.49,-94.47 74.49,-94.47 74.49,-106.47 74.49,-106.47 74.49,-112.47 68.49,-118.47 62.49,-118.47 62.49,-118.47 12.49,-118.47 12.49,-118.47 6.49,-118.47 0.49,-112.47 0.49,-106.47 0.49,-106.47 0.49,-94.47 0.49,-94.47 0.49,-88.47 6.49,-82.47 12.49,-82.47"/>
<text text-anchor="middle" x="37.49" y="-96.77" font-family="Arial" font-size="14.00">mathml&#45;d</text>
</g>
<!-- xref -->
<g id="node2" class="node">
<title>xref</title>
<path fill="#afa7f4" stroke="black" d="M100.18,-46.45C100.18,-46.45 130.18,-46.45 130.18,-46.45 136.18,-46.45 142.18,-52.45 142.18,-58.45 142.18,-58.45 142.18,-70.45 142.18,-70.45 142.18,-76.45 136.18,-82.45 130.18,-82.45 130.18,-82.45 100.18,-82.45 100.18,-82.45 94.18,-82.45 88.18,-76.45 88.18,-70.45 88.18,-70.45 88.18,-58.45 88.18,-58.45 88.18,-52.45 94.18,-46.45 100.18,-46.45"/>
<text text-anchor="middle" x="115.18" y="-60.75" font-family="Arial" font-size="14.00">xref</text>
</g>
<!-- mathml&#45;d&#45;&gt;xref -->
<g id="edge1" class="edge">
<title>mathml&#45;d&#45;&gt;xref</title>
<path fill="none" stroke="#1f78b4" d="M74.51,-83.3C75.93,-82.64 77.35,-81.99 78.77,-81.33"/>
<polygon fill="#a6cee3" stroke="#1f78b4" points="80.37,-84.45 87.97,-77.06 77.42,-78.09 80.37,-84.45"/>
</g>
<!-- foreign -->
<g id="node4" class="node">
<title>foreign</title>
<path fill="#afa7f4" stroke="black" d="M18.02,-127.82C18.02,-127.82 52.02,-127.82 52.02,-127.82 58.02,-127.82 64.02,-133.82 64.02,-139.82 64.02,-139.82 64.02,-151.82 64.02,-151.82 64.02,-157.82 58.02,-163.82 52.02,-163.82 52.02,-163.82 18.02,-163.82 18.02,-163.82 12.02,-163.82 6.02,-157.82 6.02,-151.82 6.02,-151.82 6.02,-139.82 6.02,-139.82 6.02,-133.82 12.02,-127.82 18.02,-127.82"/>
<text text-anchor="middle" x="35.02" y="-142.12" font-family="Arial" font-size="14.00">foreign</text>
</g>
<!-- mathml&#45;d&#45;&gt;foreign -->
<g id="edge3" class="edge">
<title>mathml&#45;d&#45;&gt;foreign</title>
<path fill="none" stroke="#1f78b4" d="M36.5,-118.65C36.49,-118.75 36.49,-118.84 36.48,-118.93"/>
<polygon fill="#a6cee3" stroke="#1f78b4" points="33.06,-117.46 36.01,-127.63 40.05,-117.83 33.06,-117.46"/>
</g>
<!-- mathmlref -->
<g id="node3" class="node">
<title>mathmlref</title>
<path fill="#1afabc" stroke="black" d="M84.43,-0.96C84.43,-0.96 138.43,-0.96 138.43,-0.96 144.43,-0.96 150.43,-6.96 150.43,-12.96 150.43,-12.96 150.43,-24.96 150.43,-24.96 150.43,-30.96 144.43,-36.96 138.43,-36.96 138.43,-36.96 84.43,-36.96 84.43,-36.96 78.43,-36.96 72.43,-30.96 72.43,-24.96 72.43,-24.96 72.43,-12.96 72.43,-12.96 72.43,-6.96 78.43,-0.96 84.43,-0.96"/>
<text text-anchor="middle" x="111.43" y="-15.26" font-family="Arial" font-size="14.00">mathmlref</text>
</g>
<!-- xref&#45;&gt;mathmlref -->
<g id="edge2" class="edge">
<title>xref&#45;&gt;mathmlref</title>
<path fill="none" stroke="#1f78b4" d="M113.68,-46.21C113.67,-46.11 113.66,-46.02 113.65,-45.93"/>
<polygon fill="#a6cee3" stroke="#1f78b4" points="117.24,-46.88 112.93,-37.2 110.27,-47.46 117.24,-46.88"/>
</g>
<!-- mathml -->
<g id="node5" class="node">
<title>mathml</title>
<path fill="#1afabc" stroke="black" d="M104.36,-140.05C104.36,-140.05 142.36,-140.05 142.36,-140.05 148.36,-140.05 154.36,-146.05 154.36,-152.05 154.36,-152.05 154.36,-164.05 154.36,-164.05 154.36,-170.05 148.36,-176.05 142.36,-176.05 142.36,-176.05 104.36,-176.05 104.36,-176.05 98.36,-176.05 92.36,-170.05 92.36,-164.05 92.36,-164.05 92.36,-152.05 92.36,-152.05 92.36,-146.05 98.36,-140.05 104.36,-140.05"/>
<text text-anchor="middle" x="123.36" y="-154.35" font-family="Arial" font-size="14.00">mathml</text>
</g>
<!-- foreign&#45;&gt;mathml -->
<g id="edge4" class="edge">
<title>foreign&#45;&gt;mathml</title>
<path fill="none" stroke="#1f78b4" d="M64.44,-149.89C70.16,-150.68 76.26,-151.53 82.28,-152.36"/>
<polygon fill="#a6cee3" stroke="#1f78b4" points="81.87,-155.84 92.26,-153.74 82.83,-148.91 81.87,-155.84"/>
</g>
</g>
</svg>
