<?xml version="1.0" encoding="UTF-8" standalone="no"?>
<!DOCTYPE svg PUBLIC "-//W3C//DTD SVG 1.1//EN"
 "http://www.w3.org/Graphics/SVG/1.1/DTD/svg11.dtd">
<!-- Generated by graphviz version 6.0.1 (20220911.1526)
 -->
<!-- Pages: 1 -->
<svg width="746pt" height="597pt"
 viewBox="0.00 0.00 746.00 597.00" xmlns="http://www.w3.org/2000/svg" xmlns:xlink="http://www.w3.org/1999/xlink">
<g id="graph0" class="graph" transform="scale(1 1) rotate(0) translate(4 593)">
<polygon fill="white" stroke="none" points="-4,4 -4,-593 742,-593 742,4 -4,4"/>
<!-- learningBaseModule -->
<g id="node1" class="node">
<title>learningBaseModule</title>
<path fill="#dddddd" stroke="black" d="M306.91,-243.54C306.91,-243.54 422.91,-243.54 422.91,-243.54 428.91,-243.54 434.91,-249.54 434.91,-255.54 434.91,-255.54 434.91,-267.54 434.91,-267.54 434.91,-273.54 428.91,-279.54 422.91,-279.54 422.91,-279.54 306.91,-279.54 306.91,-279.54 300.91,-279.54 294.91,-273.54 294.91,-267.54 294.91,-267.54 294.91,-255.54 294.91,-255.54 294.91,-249.54 300.91,-243.54 306.91,-243.54"/>
<text text-anchor="middle" x="364.91" y="-257.84" font-family="Arial" font-size="14.00">learningBaseModule</text>
</g>
<!-- topic -->
<g id="node2" class="node">
<title>topic</title>
<path fill="#afa7f4" stroke="black" d="M247.72,-105.73C247.72,-105.73 277.72,-105.73 277.72,-105.73 283.72,-105.73 289.72,-111.73 289.72,-117.73 289.72,-117.73 289.72,-129.73 289.72,-129.73 289.72,-135.73 283.72,-141.73 277.72,-141.73 277.72,-141.73 247.72,-141.73 247.72,-141.73 241.72,-141.73 235.72,-135.73 235.72,-129.73 235.72,-129.73 235.72,-117.73 235.72,-117.73 235.72,-111.73 241.72,-105.73 247.72,-105.73"/>
<text text-anchor="middle" x="262.72" y="-120.03" font-family="Arial" font-size="14.00">topic</text>
</g>
<!-- learningBaseModule&#45;&gt;topic -->
<g id="edge1" class="edge">
<title>learningBaseModule&#45;&gt;topic</title>
<path fill="none" stroke="#1f78b4" d="M351.55,-243.53C333.88,-219.69 302.6,-177.51 282.27,-150.09"/>
<polygon fill="#a6cee3" stroke="#1f78b4" points="284.85,-147.7 276.08,-141.75 279.23,-151.87 284.85,-147.7"/>
</g>
<!-- body -->
<g id="node4" class="node">
<title>body</title>
<path fill="#afa7f4" stroke="black" d="M411.77,-377.91C411.77,-377.91 441.77,-377.91 441.77,-377.91 447.77,-377.91 453.77,-383.91 453.77,-389.91 453.77,-389.91 453.77,-401.91 453.77,-401.91 453.77,-407.91 447.77,-413.91 441.77,-413.91 441.77,-413.91 411.77,-413.91 411.77,-413.91 405.77,-413.91 399.77,-407.91 399.77,-401.91 399.77,-401.91 399.77,-389.91 399.77,-389.91 399.77,-383.91 405.77,-377.91 411.77,-377.91"/>
<text text-anchor="middle" x="426.77" y="-392.21" font-family="Arial" font-size="14.00">body</text>
</g>
<!-- learningBaseModule&#45;&gt;body -->
<g id="edge3" class="edge">
<title>learningBaseModule&#45;&gt;body</title>
<path fill="none" stroke="#1f78b4" d="M373.26,-279.66C383.77,-302.51 401.94,-341.98 414.16,-368.51"/>
<polygon fill="#a6cee3" stroke="#1f78b4" points="411,-370.03 418.36,-377.65 417.36,-367.1 411,-370.03"/>
</g>
<!-- section -->
<g id="node6" class="node">
<title>section</title>
<path fill="#afa7f4" stroke="black" d="M552.41,-150.45C552.41,-150.45 587.41,-150.45 587.41,-150.45 593.41,-150.45 599.41,-156.45 599.41,-162.45 599.41,-162.45 599.41,-174.45 599.41,-174.45 599.41,-180.45 593.41,-186.45 587.41,-186.45 587.41,-186.45 552.41,-186.45 552.41,-186.45 546.41,-186.45 540.41,-180.45 540.41,-174.45 540.41,-174.45 540.41,-162.45 540.41,-162.45 540.41,-156.45 546.41,-150.45 552.41,-150.45"/>
<text text-anchor="middle" x="569.91" y="-164.75" font-family="Arial" font-size="14.00">section</text>
</g>
<!-- learningBaseModule&#45;&gt;section -->
<g id="edge5" class="edge">
<title>learningBaseModule&#45;&gt;section</title>
<path fill="none" stroke="#1f78b4" d="M404.93,-243.37C441.4,-226.81 494.94,-202.49 531.05,-186.1"/>
<polygon fill="#a6cee3" stroke="#1f78b4" points="532.63,-189.22 540.29,-181.9 529.74,-182.85 532.63,-189.22"/>
</g>
<!-- ph -->
<g id="node19" class="node">
<title>ph</title>
<path fill="#afa7f4" stroke="black" d="M255.27,-371.8C255.27,-371.8 285.27,-371.8 285.27,-371.8 291.27,-371.8 297.27,-377.8 297.27,-383.8 297.27,-383.8 297.27,-395.8 297.27,-395.8 297.27,-401.8 291.27,-407.8 285.27,-407.8 285.27,-407.8 255.27,-407.8 255.27,-407.8 249.27,-407.8 243.27,-401.8 243.27,-395.8 243.27,-395.8 243.27,-383.8 243.27,-383.8 243.27,-377.8 249.27,-371.8 255.27,-371.8"/>
<text text-anchor="middle" x="270.27" y="-386.1" font-family="Arial" font-size="14.00">ph</text>
</g>
<!-- learningBaseModule&#45;&gt;ph -->
<g id="edge18" class="edge">
<title>learningBaseModule&#45;&gt;ph</title>
<path fill="none" stroke="#1f78b4" d="M351.55,-279.65C335.42,-301.51 308.15,-338.46 289.69,-363.48"/>
<polygon fill="#a6cee3" stroke="#1f78b4" points="286.68,-361.66 283.56,-371.78 292.32,-365.82 286.68,-361.66"/>
</g>
<!-- ul -->
<g id="node21" class="node">
<title>ul</title>
<path fill="#afa7f4" stroke="black" d="M197.5,-298.05C197.5,-298.05 227.5,-298.05 227.5,-298.05 233.5,-298.05 239.5,-304.05 239.5,-310.05 239.5,-310.05 239.5,-322.05 239.5,-322.05 239.5,-328.05 233.5,-334.05 227.5,-334.05 227.5,-334.05 197.5,-334.05 197.5,-334.05 191.5,-334.05 185.5,-328.05 185.5,-322.05 185.5,-322.05 185.5,-310.05 185.5,-310.05 185.5,-304.05 191.5,-298.05 197.5,-298.05"/>
<text text-anchor="middle" x="212.5" y="-312.35" font-family="Arial" font-size="14.00">ul</text>
</g>
<!-- learningBaseModule&#45;&gt;ul -->
<g id="edge20" class="edge">
<title>learningBaseModule&#45;&gt;ul</title>
<path fill="none" stroke="#1f78b4" d="M314.16,-279.69C292.83,-287.32 268.48,-296.03 248.97,-303.01"/>
<polygon fill="#a6cee3" stroke="#1f78b4" points="247.76,-299.72 239.53,-306.38 250.12,-306.31 247.76,-299.72"/>
</g>
<!-- li -->
<g id="node23" class="node">
<title>li</title>
<path fill="#afa7f4" stroke="black" d="M340.87,-415.14C340.87,-415.14 370.87,-415.14 370.87,-415.14 376.87,-415.14 382.87,-421.14 382.87,-427.14 382.87,-427.14 382.87,-439.14 382.87,-439.14 382.87,-445.14 376.87,-451.14 370.87,-451.14 370.87,-451.14 340.87,-451.14 340.87,-451.14 334.87,-451.14 328.87,-445.14 328.87,-439.14 328.87,-439.14 328.87,-427.14 328.87,-427.14 328.87,-421.14 334.87,-415.14 340.87,-415.14"/>
<text text-anchor="middle" x="355.87" y="-429.44" font-family="Arial" font-size="14.00">li</text>
</g>
<!-- learningBaseModule&#45;&gt;li -->
<g id="edge22" class="edge">
<title>learningBaseModule&#45;&gt;li</title>
<path fill="none" stroke="#1f78b4" d="M363.96,-279.58C362.39,-309.45 359.23,-369.4 357.36,-404.91"/>
<polygon fill="#a6cee3" stroke="#1f78b4" points="353.85,-404.92 356.82,-415.09 360.84,-405.29 353.85,-404.92"/>
</g>
<!-- data -->
<g id="node25" class="node">
<title>data</title>
<path fill="#afa7f4" stroke="black" d="M193.1,-196.75C193.1,-196.75 223.1,-196.75 223.1,-196.75 229.1,-196.75 235.1,-202.75 235.1,-208.75 235.1,-208.75 235.1,-220.75 235.1,-220.75 235.1,-226.75 229.1,-232.75 223.1,-232.75 223.1,-232.75 193.1,-232.75 193.1,-232.75 187.1,-232.75 181.1,-226.75 181.1,-220.75 181.1,-220.75 181.1,-208.75 181.1,-208.75 181.1,-202.75 187.1,-196.75 193.1,-196.75"/>
<text text-anchor="middle" x="208.1" y="-211.05" font-family="Arial" font-size="14.00">data</text>
</g>
<!-- learningBaseModule&#45;&gt;data -->
<g id="edge24" class="edge">
<title>learningBaseModule&#45;&gt;data</title>
<path fill="none" stroke="#1f78b4" d="M304.29,-243.45C284.4,-237.52 262.91,-231.1 245.29,-225.85"/>
<polygon fill="#a6cee3" stroke="#1f78b4" points="245.99,-222.4 235.41,-222.9 243.99,-229.11 245.99,-222.4"/>
</g>
<!-- learningBase -->
<g id="node3" class="node">
<title>learningBase</title>
<path fill="#1afabc" stroke="black" d="M143.56,-0.06C143.56,-0.06 214.56,-0.06 214.56,-0.06 220.56,-0.06 226.56,-6.06 226.56,-12.06 226.56,-12.06 226.56,-24.06 226.56,-24.06 226.56,-30.06 220.56,-36.06 214.56,-36.06 214.56,-36.06 143.56,-36.06 143.56,-36.06 137.56,-36.06 131.56,-30.06 131.56,-24.06 131.56,-24.06 131.56,-12.06 131.56,-12.06 131.56,-6.06 137.56,-0.06 143.56,-0.06"/>
<text text-anchor="middle" x="179.06" y="-14.36" font-family="Arial" font-size="14.00">learningBase</text>
</g>
<!-- topic&#45;&gt;learningBase -->
<g id="edge2" class="edge">
<title>topic&#45;&gt;learningBase</title>
<path fill="none" stroke="#1f78b4" d="M248.14,-105.32C234.77,-88.43 214.81,-63.21 199.78,-44.23"/>
<polygon fill="#a6cee3" stroke="#1f78b4" points="202.42,-41.92 193.47,-36.25 196.93,-46.27 202.42,-41.92"/>
</g>
<!-- learningBasebody -->
<g id="node5" class="node">
<title>learningBasebody</title>
<path fill="#1afabc" stroke="black" d="M448.2,-493.65C448.2,-493.65 549.2,-493.65 549.2,-493.65 555.2,-493.65 561.2,-499.65 561.2,-505.65 561.2,-505.65 561.2,-517.65 561.2,-517.65 561.2,-523.65 555.2,-529.65 549.2,-529.65 549.2,-529.65 448.2,-529.65 448.2,-529.65 442.2,-529.65 436.2,-523.65 436.2,-517.65 436.2,-517.65 436.2,-505.65 436.2,-505.65 436.2,-499.65 442.2,-493.65 448.2,-493.65"/>
<text text-anchor="middle" x="498.7" y="-507.95" font-family="Arial" font-size="14.00">learningBasebody</text>
</g>
<!-- body&#45;&gt;learningBasebody -->
<g id="edge4" class="edge">
<title>body&#45;&gt;learningBasebody</title>
<path fill="none" stroke="#1f78b4" d="M438.01,-414C449.76,-432.91 468.35,-462.81 481.86,-484.55"/>
<polygon fill="#a6cee3" stroke="#1f78b4" points="479.05,-486.66 487.3,-493.31 485,-482.97 479.05,-486.66"/>
</g>
<!-- lcIntro -->
<g id="node7" class="node">
<title>lcIntro</title>
<path fill="#1afabc" stroke="black" d="M480.96,-49.82C480.96,-49.82 510.96,-49.82 510.96,-49.82 516.96,-49.82 522.96,-55.82 522.96,-61.82 522.96,-61.82 522.96,-73.82 522.96,-73.82 522.96,-79.82 516.96,-85.82 510.96,-85.82 510.96,-85.82 480.96,-85.82 480.96,-85.82 474.96,-85.82 468.96,-79.82 468.96,-73.82 468.96,-73.82 468.96,-61.82 468.96,-61.82 468.96,-55.82 474.96,-49.82 480.96,-49.82"/>
<text text-anchor="middle" x="495.96" y="-64.12" font-family="Arial" font-size="14.00">lcIntro</text>
</g>
<!-- section&#45;&gt;lcIntro -->
<g id="edge6" class="edge">
<title>section&#45;&gt;lcIntro</title>
<path fill="none" stroke="#1f78b4" d="M556.34,-149.99C544.81,-134.29 528.1,-111.56 515.18,-93.98"/>
<polygon fill="#a6cee3" stroke="#1f78b4" points="517.93,-91.81 509.19,-85.82 512.29,-95.95 517.93,-91.81"/>
</g>
<!-- lcObjectives -->
<g id="node8" class="node">
<title>lcObjectives</title>
<path fill="#1afabc" stroke="black" d="M637.59,-43C637.59,-43 703.59,-43 703.59,-43 709.59,-43 715.59,-49 715.59,-55 715.59,-55 715.59,-67 715.59,-67 715.59,-73 709.59,-79 703.59,-79 703.59,-79 637.59,-79 637.59,-79 631.59,-79 625.59,-73 625.59,-67 625.59,-67 625.59,-55 625.59,-55 625.59,-49 631.59,-43 637.59,-43"/>
<text text-anchor="middle" x="670.59" y="-57.3" font-family="Arial" font-size="14.00">lcObjectives</text>
</g>
<!-- section&#45;&gt;lcObjectives -->
<g id="edge7" class="edge">
<title>section&#45;&gt;lcObjectives</title>
<path fill="none" stroke="#1f78b4" d="M586.99,-150.22C603.33,-132.78 628.15,-106.3 646.5,-86.72"/>
<polygon fill="#a6cee3" stroke="#1f78b4" points="649.15,-89.01 653.43,-79.32 644.04,-84.22 649.15,-89.01"/>
</g>
<!-- lcAudience -->
<g id="node9" class="node">
<title>lcAudience</title>
<path fill="#1afabc" stroke="black" d="M546.04,-94.04C546.04,-94.04 605.04,-94.04 605.04,-94.04 611.04,-94.04 617.04,-100.04 617.04,-106.04 617.04,-106.04 617.04,-118.04 617.04,-118.04 617.04,-124.04 611.04,-130.04 605.04,-130.04 605.04,-130.04 546.04,-130.04 546.04,-130.04 540.04,-130.04 534.04,-124.04 534.04,-118.04 534.04,-118.04 534.04,-106.04 534.04,-106.04 534.04,-100.04 540.04,-94.04 546.04,-94.04"/>
<text text-anchor="middle" x="575.54" y="-108.34" font-family="Arial" font-size="14.00">lcAudience</text>
</g>
<!-- section&#45;&gt;lcAudience -->
<g id="edge8" class="edge">
<title>section&#45;&gt;lcAudience</title>
<path fill="none" stroke="#1f78b4" d="M571.72,-150.29C572.04,-147.07 572.39,-143.65 572.73,-140.23"/>
<polygon fill="#a6cee3" stroke="#1f78b4" points="576.22,-140.47 573.73,-130.17 569.26,-139.77 576.22,-140.47"/>
</g>
<!-- lcDuration -->
<g id="node10" class="node">
<title>lcDuration</title>
<path fill="#1afabc" stroke="black" d="M672.16,-142.61C672.16,-142.61 725.16,-142.61 725.16,-142.61 731.16,-142.61 737.16,-148.61 737.16,-154.61 737.16,-154.61 737.16,-166.61 737.16,-166.61 737.16,-172.61 731.16,-178.61 725.16,-178.61 725.16,-178.61 672.16,-178.61 672.16,-178.61 666.16,-178.61 660.16,-172.61 660.16,-166.61 660.16,-166.61 660.16,-154.61 660.16,-154.61 660.16,-148.61 666.16,-142.61 672.16,-142.61"/>
<text text-anchor="middle" x="698.66" y="-156.91" font-family="Arial" font-size="14.00">lcDuration</text>
</g>
<!-- section&#45;&gt;lcDuration -->
<g id="edge9" class="edge">
<title>section&#45;&gt;lcDuration</title>
<path fill="none" stroke="#1f78b4" d="M599.45,-166.65C614.32,-165.74 632.75,-164.62 649.68,-163.59"/>
<polygon fill="#a6cee3" stroke="#1f78b4" points="650.21,-167.07 659.97,-162.96 649.78,-160.08 650.21,-167.07"/>
</g>
<!-- lcPrereqs -->
<g id="node11" class="node">
<title>lcPrereqs</title>
<path fill="#1afabc" stroke="black" d="M659.41,-91.73C659.41,-91.73 709.41,-91.73 709.41,-91.73 715.41,-91.73 721.41,-97.73 721.41,-103.73 721.41,-103.73 721.41,-115.73 721.41,-115.73 721.41,-121.73 715.41,-127.73 709.41,-127.73 709.41,-127.73 659.41,-127.73 659.41,-127.73 653.41,-127.73 647.41,-121.73 647.41,-115.73 647.41,-115.73 647.41,-103.73 647.41,-103.73 647.41,-97.73 653.41,-91.73 659.41,-91.73"/>
<text text-anchor="middle" x="684.41" y="-106.03" font-family="Arial" font-size="14.00">lcPrereqs</text>
</g>
<!-- section&#45;&gt;lcPrereqs -->
<g id="edge10" class="edge">
<title>section&#45;&gt;lcPrereqs</title>
<path fill="none" stroke="#1f78b4" d="M599.69,-153.18C611.97,-146.88 626.45,-139.45 639.94,-132.54"/>
<polygon fill="#a6cee3" stroke="#1f78b4" points="641.78,-135.53 649.08,-127.85 638.58,-129.3 641.78,-135.53"/>
</g>
<!-- lcSummary -->
<g id="node12" class="node">
<title>lcSummary</title>
<path fill="#1afabc" stroke="black" d="M415.79,-96.86C415.79,-96.86 477.79,-96.86 477.79,-96.86 483.79,-96.86 489.79,-102.86 489.79,-108.86 489.79,-108.86 489.79,-120.86 489.79,-120.86 489.79,-126.86 483.79,-132.86 477.79,-132.86 477.79,-132.86 415.79,-132.86 415.79,-132.86 409.79,-132.86 403.79,-126.86 403.79,-120.86 403.79,-120.86 403.79,-108.86 403.79,-108.86 403.79,-102.86 409.79,-96.86 415.79,-96.86"/>
<text text-anchor="middle" x="446.79" y="-111.16" font-family="Arial" font-size="14.00">lcSummary</text>
</g>
<!-- section&#45;&gt;lcSummary -->
<g id="edge11" class="edge">
<title>section&#45;&gt;lcSummary</title>
<path fill="none" stroke="#1f78b4" d="M540.1,-155.48C527.38,-149.94 512.16,-143.32 497.74,-137.04"/>
<polygon fill="#a6cee3" stroke="#1f78b4" points="498.98,-133.76 488.41,-132.98 496.18,-140.18 498.98,-133.76"/>
</g>
<!-- lcNextSteps -->
<g id="node13" class="node">
<title>lcNextSteps</title>
<path fill="#1afabc" stroke="black" d="M645.52,-247.62C645.52,-247.62 710.52,-247.62 710.52,-247.62 716.52,-247.62 722.52,-253.62 722.52,-259.62 722.52,-259.62 722.52,-271.62 722.52,-271.62 722.52,-277.62 716.52,-283.62 710.52,-283.62 710.52,-283.62 645.52,-283.62 645.52,-283.62 639.52,-283.62 633.52,-277.62 633.52,-271.62 633.52,-271.62 633.52,-259.62 633.52,-259.62 633.52,-253.62 639.52,-247.62 645.52,-247.62"/>
<text text-anchor="middle" x="678.02" y="-261.92" font-family="Arial" font-size="14.00">lcNextSteps</text>
</g>
<!-- section&#45;&gt;lcNextSteps -->
<g id="edge12" class="edge">
<title>section&#45;&gt;lcNextSteps</title>
<path fill="none" stroke="#1f78b4" d="M589.99,-186.5C606.87,-201.67 631.2,-223.53 650,-240.43"/>
<polygon fill="#a6cee3" stroke="#1f78b4" points="647.9,-243.25 657.68,-247.34 652.58,-238.05 647.9,-243.25"/>
</g>
<!-- lcReview -->
<g id="node14" class="node">
<title>lcReview</title>
<path fill="#1afabc" stroke="black" d="M546.4,-276.14C546.4,-276.14 593.4,-276.14 593.4,-276.14 599.4,-276.14 605.4,-282.14 605.4,-288.14 605.4,-288.14 605.4,-300.14 605.4,-300.14 605.4,-306.14 599.4,-312.14 593.4,-312.14 593.4,-312.14 546.4,-312.14 546.4,-312.14 540.4,-312.14 534.4,-306.14 534.4,-300.14 534.4,-300.14 534.4,-288.14 534.4,-288.14 534.4,-282.14 540.4,-276.14 546.4,-276.14"/>
<text text-anchor="middle" x="569.9" y="-290.44" font-family="Arial" font-size="14.00">lcReview</text>
</g>
<!-- section&#45;&gt;lcReview -->
<g id="edge13" class="edge">
<title>section&#45;&gt;lcReview</title>
<path fill="none" stroke="#1f78b4" d="M569.91,-186.46C569.91,-207.16 569.9,-241.39 569.9,-265.7"/>
<polygon fill="#a6cee3" stroke="#1f78b4" points="566.4,-265.76 569.9,-275.76 573.4,-265.76 566.4,-265.76"/>
</g>
<!-- lcResources -->
<g id="node15" class="node">
<title>lcResources</title>
<path fill="#1afabc" stroke="black" d="M531.5,-199.63C531.5,-199.63 598.5,-199.63 598.5,-199.63 604.5,-199.63 610.5,-205.63 610.5,-211.63 610.5,-211.63 610.5,-223.63 610.5,-223.63 610.5,-229.63 604.5,-235.63 598.5,-235.63 598.5,-235.63 531.5,-235.63 531.5,-235.63 525.5,-235.63 519.5,-229.63 519.5,-223.63 519.5,-223.63 519.5,-211.63 519.5,-211.63 519.5,-205.63 525.5,-199.63 531.5,-199.63"/>
<text text-anchor="middle" x="565" y="-213.93" font-family="Arial" font-size="14.00">lcResources</text>
</g>
<!-- section&#45;&gt;lcResources -->
<g id="edge14" class="edge">
<title>section&#45;&gt;lcResources</title>
<path fill="none" stroke="#1f78b4" d="M568.11,-186.48C568.01,-187.42 567.92,-188.37 567.82,-189.33"/>
<polygon fill="#a6cee3" stroke="#1f78b4" points="564.31,-189.3 566.8,-199.6 571.27,-190 564.31,-189.3"/>
</g>
<!-- lcChallenge -->
<g id="node16" class="node">
<title>lcChallenge</title>
<path fill="#1afabc" stroke="black" d="M662.97,-195.88C662.97,-195.88 725.97,-195.88 725.97,-195.88 731.97,-195.88 737.97,-201.88 737.97,-207.88 737.97,-207.88 737.97,-219.88 737.97,-219.88 737.97,-225.88 731.97,-231.88 725.97,-231.88 725.97,-231.88 662.97,-231.88 662.97,-231.88 656.97,-231.88 650.97,-225.88 650.97,-219.88 650.97,-219.88 650.97,-207.88 650.97,-207.88 650.97,-201.88 656.97,-195.88 662.97,-195.88"/>
<text text-anchor="middle" x="694.47" y="-210.18" font-family="Arial" font-size="14.00">lcChallenge</text>
</g>
<!-- section&#45;&gt;lcChallenge -->
<g id="edge15" class="edge">
<title>section&#45;&gt;lcChallenge</title>
<path fill="none" stroke="#1f78b4" d="M599.43,-179.22C611.82,-183.74 626.63,-189.14 640.83,-194.31"/>
<polygon fill="#a6cee3" stroke="#1f78b4" points="639.93,-197.71 650.52,-197.85 642.33,-191.14 639.93,-197.71"/>
</g>
<!-- lcInstruction -->
<g id="node17" class="node">
<title>lcInstruction</title>
<path fill="#1afabc" stroke="black" d="M533.83,-0.3C533.83,-0.3 598.83,-0.3 598.83,-0.3 604.83,-0.3 610.83,-6.3 610.83,-12.3 610.83,-12.3 610.83,-24.3 610.83,-24.3 610.83,-30.3 604.83,-36.3 598.83,-36.3 598.83,-36.3 533.83,-36.3 533.83,-36.3 527.83,-36.3 521.83,-30.3 521.83,-24.3 521.83,-24.3 521.83,-12.3 521.83,-12.3 521.83,-6.3 527.83,-0.3 533.83,-0.3"/>
<text text-anchor="middle" x="566.33" y="-14.6" font-family="Arial" font-size="14.00">lcInstruction</text>
</g>
<!-- section&#45;&gt;lcInstruction -->
<g id="edge16" class="edge">
<title>section&#45;&gt;lcInstruction</title>
<path fill="none" stroke="#1f78b4" d="M569.48,-150.34C568.86,-124.64 567.74,-77.32 567.01,-46.86"/>
<polygon fill="#a6cee3" stroke="#1f78b4" points="570.5,-46.39 566.77,-36.48 563.5,-46.56 570.5,-46.39"/>
</g>
<!-- lcInteraction -->
<g id="node18" class="node">
<title>lcInteraction</title>
<path fill="#1afabc" stroke="black" d="M417.25,-167.87C417.25,-167.87 482.25,-167.87 482.25,-167.87 488.25,-167.87 494.25,-173.87 494.25,-179.87 494.25,-179.87 494.25,-191.87 494.25,-191.87 494.25,-197.87 488.25,-203.87 482.25,-203.87 482.25,-203.87 417.25,-203.87 417.25,-203.87 411.25,-203.87 405.25,-197.87 405.25,-191.87 405.25,-191.87 405.25,-179.87 405.25,-179.87 405.25,-173.87 411.25,-167.87 417.25,-167.87"/>
<text text-anchor="middle" x="449.75" y="-182.17" font-family="Arial" font-size="14.00">lcInteraction</text>
</g>
<!-- section&#45;&gt;lcInteraction -->
<g id="edge17" class="edge">
<title>section&#45;&gt;lcInteraction</title>
<path fill="none" stroke="#1f78b4" d="M540.2,-172.76C529.45,-174.32 516.94,-176.13 504.72,-177.9"/>
<polygon fill="#a6cee3" stroke="#1f78b4" points="503.95,-174.48 494.56,-179.38 504.96,-181.41 503.95,-174.48"/>
</g>
<!-- lcObjectivesStem -->
<g id="node20" class="node">
<title>lcObjectivesStem</title>
<path fill="#1afabc" stroke="black" d="M126.43,-492.01C126.43,-492.01 224.43,-492.01 224.43,-492.01 230.43,-492.01 236.43,-498.01 236.43,-504.01 236.43,-504.01 236.43,-516.01 236.43,-516.01 236.43,-522.01 230.43,-528.01 224.43,-528.01 224.43,-528.01 126.43,-528.01 126.43,-528.01 120.43,-528.01 114.43,-522.01 114.43,-516.01 114.43,-516.01 114.43,-504.01 114.43,-504.01 114.43,-498.01 120.43,-492.01 126.43,-492.01"/>
<text text-anchor="middle" x="175.43" y="-506.31" font-family="Arial" font-size="14.00">lcObjectivesStem</text>
</g>
<!-- ph&#45;&gt;lcObjectivesStem -->
<g id="edge19" class="edge">
<title>ph&#45;&gt;lcObjectivesStem</title>
<path fill="none" stroke="#1f78b4" d="M255.87,-408.05C239.9,-428.29 214.01,-461.11 195.93,-484.02"/>
<polygon fill="#a6cee3" stroke="#1f78b4" points="193.1,-481.96 189.66,-491.98 198.6,-486.29 193.1,-481.96"/>
</g>
<!-- lcObjectivesGroup -->
<g id="node22" class="node">
<title>lcObjectivesGroup</title>
<path fill="#1afabc" stroke="black" d="M11.68,-353.3C11.68,-353.3 115.68,-353.3 115.68,-353.3 121.68,-353.3 127.68,-359.3 127.68,-365.3 127.68,-365.3 127.68,-377.3 127.68,-377.3 127.68,-383.3 121.68,-389.3 115.68,-389.3 115.68,-389.3 11.68,-389.3 11.68,-389.3 5.68,-389.3 -0.32,-383.3 -0.32,-377.3 -0.32,-377.3 -0.32,-365.3 -0.32,-365.3 -0.32,-359.3 5.68,-353.3 11.68,-353.3"/>
<text text-anchor="middle" x="63.68" y="-367.6" font-family="Arial" font-size="14.00">lcObjectivesGroup</text>
</g>
<!-- ul&#45;&gt;lcObjectivesGroup -->
<g id="edge21" class="edge">
<title>ul&#45;&gt;lcObjectivesGroup</title>
<path fill="none" stroke="#1f78b4" d="M185.2,-326.18C167.44,-332.78 143.59,-341.63 121.73,-349.75"/>
<polygon fill="#a6cee3" stroke="#1f78b4" points="120.34,-346.53 112.18,-353.3 122.77,-353.1 120.34,-346.53"/>
</g>
<!-- lcObjective -->
<g id="node24" class="node">
<title>lcObjective</title>
<path fill="#1afabc" stroke="black" d="M315.92,-552.86C315.92,-552.86 374.92,-552.86 374.92,-552.86 380.92,-552.86 386.92,-558.86 386.92,-564.86 386.92,-564.86 386.92,-576.86 386.92,-576.86 386.92,-582.86 380.92,-588.86 374.92,-588.86 374.92,-588.86 315.92,-588.86 315.92,-588.86 309.92,-588.86 303.92,-582.86 303.92,-576.86 303.92,-576.86 303.92,-564.86 303.92,-564.86 303.92,-558.86 309.92,-552.86 315.92,-552.86"/>
<text text-anchor="middle" x="345.42" y="-567.16" font-family="Arial" font-size="14.00">lcObjective</text>
</g>
<!-- li&#45;&gt;lcObjective -->
<g id="edge23" class="edge">
<title>li&#45;&gt;lcObjective</title>
<path fill="none" stroke="#1f78b4" d="M354.5,-451.15C352.74,-474.45 349.64,-515.3 347.56,-542.72"/>
<polygon fill="#a6cee3" stroke="#1f78b4" points="344.05,-542.62 346.79,-552.85 351.03,-543.15 344.05,-542.62"/>
</g>
<!-- lcTime -->
<g id="node26" class="node">
<title>lcTime</title>
<path fill="#1afabc" stroke="black" d="M75.16,-164.87C75.16,-164.87 108.16,-164.87 108.16,-164.87 114.16,-164.87 120.16,-170.87 120.16,-176.87 120.16,-176.87 120.16,-188.87 120.16,-188.87 120.16,-194.87 114.16,-200.87 108.16,-200.87 108.16,-200.87 75.16,-200.87 75.16,-200.87 69.16,-200.87 63.16,-194.87 63.16,-188.87 63.16,-188.87 63.16,-176.87 63.16,-176.87 63.16,-170.87 69.16,-164.87 75.16,-164.87"/>
<text text-anchor="middle" x="91.66" y="-179.17" font-family="Arial" font-size="14.00">lcTime</text>
</g>
<!-- data&#45;&gt;lcTime -->
<g id="edge25" class="edge">
<title>data&#45;&gt;lcTime</title>
<path fill="none" stroke="#1f78b4" d="M181.1,-207.36C166.07,-203.24 147.12,-198.05 130.52,-193.51"/>
<polygon fill="#a6cee3" stroke="#1f78b4" points="131.12,-190.05 120.56,-190.78 129.28,-196.8 131.12,-190.05"/>
</g>
</g>
</svg>
