<?xml version="1.0" encoding="UTF-8" standalone="no"?>
<!DOCTYPE svg PUBLIC "-//W3C//DTD SVG 1.1//EN"
 "http://www.w3.org/Graphics/SVG/1.1/DTD/svg11.dtd">
<!-- Generated by graphviz version 6.0.1 (20220911.1526)
 -->
<!-- Pages: 1 -->
<svg width="247pt" height="209pt"
 viewBox="0.00 0.00 247.00 209.00" xmlns="http://www.w3.org/2000/svg" xmlns:xlink="http://www.w3.org/1999/xlink">
<g id="graph0" class="graph" transform="scale(1 1) rotate(0) translate(4 205)">
<polygon fill="white" stroke="none" points="-4,4 -4,-205 243,-205 243,4 -4,4"/>
<!-- alternativeTitles&#45;d -->
<g id="node1" class="node">
<title>alternativeTitles&#45;d</title>
<path fill="#dddddd" stroke="black" d="M12.19,-49.98C12.19,-49.98 111.19,-49.98 111.19,-49.98 117.19,-49.98 123.19,-55.98 123.19,-61.98 123.19,-61.98 123.19,-73.98 123.19,-73.98 123.19,-79.98 117.19,-85.98 111.19,-85.98 111.19,-85.98 12.19,-85.98 12.19,-85.98 6.19,-85.98 0.19,-79.98 0.19,-73.98 0.19,-73.98 0.19,-61.98 0.19,-61.98 0.19,-55.98 6.19,-49.98 12.19,-49.98"/>
<text text-anchor="middle" x="61.69" y="-64.28" font-family="Arial" font-size="14.00">alternativeTitles&#45;d</text>
</g>
<!-- titlealt -->
<g id="node2" class="node">
<title>titlealt</title>
<path fill="#afa7f4" stroke="black" d="M119.43,-103.19C119.43,-103.19 149.43,-103.19 149.43,-103.19 155.43,-103.19 161.43,-109.19 161.43,-115.19 161.43,-115.19 161.43,-127.19 161.43,-127.19 161.43,-133.19 155.43,-139.19 149.43,-139.19 149.43,-139.19 119.43,-139.19 119.43,-139.19 113.43,-139.19 107.43,-133.19 107.43,-127.19 107.43,-127.19 107.43,-115.19 107.43,-115.19 107.43,-109.19 113.43,-103.19 119.43,-103.19"/>
<text text-anchor="middle" x="134.43" y="-117.49" font-family="Arial" font-size="14.00">titlealt</text>
</g>
<!-- alternativeTitles&#45;d&#45;&gt;titlealt -->
<g id="edge1" class="edge">
<title>alternativeTitles&#45;d&#45;&gt;titlealt</title>
<path fill="none" stroke="#1f78b4" d="M86.32,-86C91.07,-89.47 96.12,-93.17 101.1,-96.81"/>
<polygon fill="#a6cee3" stroke="#1f78b4" points="99.2,-99.76 109.33,-102.84 103.33,-94.11 99.2,-99.76"/>
</g>
<!-- navtitle -->
<g id="node3" class="node">
<title>navtitle</title>
<path fill="#1afabc" stroke="black" d="M192.33,-41.08C192.33,-41.08 227.33,-41.08 227.33,-41.08 233.33,-41.08 239.33,-47.08 239.33,-53.08 239.33,-53.08 239.33,-65.08 239.33,-65.08 239.33,-71.08 233.33,-77.08 227.33,-77.08 227.33,-77.08 192.33,-77.08 192.33,-77.08 186.33,-77.08 180.33,-71.08 180.33,-65.08 180.33,-65.08 180.33,-53.08 180.33,-53.08 180.33,-47.08 186.33,-41.08 192.33,-41.08"/>
<text text-anchor="middle" x="209.83" y="-55.38" font-family="Arial" font-size="14.00">navtitle</text>
</g>
<!-- titlealt&#45;&gt;navtitle -->
<g id="edge2" class="edge">
<title>titlealt&#45;&gt;navtitle</title>
<path fill="none" stroke="#1f78b4" d="M156.65,-102.89C163.86,-96.95 171.98,-90.26 179.67,-83.93"/>
<polygon fill="#a6cee3" stroke="#1f78b4" points="182.28,-86.31 187.78,-77.25 177.83,-80.91 182.28,-86.31"/>
</g>
<!-- searchtitle -->
<g id="node4" class="node">
<title>searchtitle</title>
<path fill="#1afabc" stroke="black" d="M114.7,-164.54C114.7,-164.54 168.7,-164.54 168.7,-164.54 174.7,-164.54 180.7,-170.54 180.7,-176.54 180.7,-176.54 180.7,-188.54 180.7,-188.54 180.7,-194.54 174.7,-200.54 168.7,-200.54 168.7,-200.54 114.7,-200.54 114.7,-200.54 108.7,-200.54 102.7,-194.54 102.7,-188.54 102.7,-188.54 102.7,-176.54 102.7,-176.54 102.7,-170.54 108.7,-164.54 114.7,-164.54"/>
<text text-anchor="middle" x="141.7" y="-178.84" font-family="Arial" font-size="14.00">searchtitle</text>
</g>
<!-- titlealt&#45;&gt;searchtitle -->
<g id="edge3" class="edge">
<title>titlealt&#45;&gt;searchtitle</title>
<path fill="none" stroke="#1f78b4" d="M136.57,-139.27C137.13,-143.97 137.74,-149.15 138.35,-154.24"/>
<polygon fill="#a6cee3" stroke="#1f78b4" points="134.89,-154.86 139.55,-164.38 141.85,-154.04 134.89,-154.86"/>
</g>
<!-- linktitle -->
<g id="node5" class="node">
<title>linktitle</title>
<path fill="#1afabc" stroke="black" d="M192.27,-116.91C192.27,-116.91 226.27,-116.91 226.27,-116.91 232.27,-116.91 238.27,-122.91 238.27,-128.91 238.27,-128.91 238.27,-140.91 238.27,-140.91 238.27,-146.91 232.27,-152.91 226.27,-152.91 226.27,-152.91 192.27,-152.91 192.27,-152.91 186.27,-152.91 180.27,-146.91 180.27,-140.91 180.27,-140.91 180.27,-128.91 180.27,-128.91 180.27,-122.91 186.27,-116.91 192.27,-116.91"/>
<text text-anchor="middle" x="209.27" y="-131.21" font-family="Arial" font-size="14.00">linktitle</text>
</g>
<!-- titlealt&#45;&gt;linktitle -->
<g id="edge4" class="edge">
<title>titlealt&#45;&gt;linktitle</title>
<path fill="none" stroke="#1f78b4" d="M161.45,-126.15C164.32,-126.67 167.27,-127.21 170.24,-127.76"/>
<polygon fill="#a6cee3" stroke="#1f78b4" points="169.8,-131.24 180.27,-129.6 171.06,-124.35 169.8,-131.24"/>
</g>
<!-- subtitle -->
<g id="node6" class="node">
<title>subtitle</title>
<path fill="#1afabc" stroke="black" d="M46.98,-118.63C46.98,-118.63 81.98,-118.63 81.98,-118.63 87.98,-118.63 93.98,-124.63 93.98,-130.63 93.98,-130.63 93.98,-142.63 93.98,-142.63 93.98,-148.63 87.98,-154.63 81.98,-154.63 81.98,-154.63 46.98,-154.63 46.98,-154.63 40.98,-154.63 34.98,-148.63 34.98,-142.63 34.98,-142.63 34.98,-130.63 34.98,-130.63 34.98,-124.63 40.98,-118.63 46.98,-118.63"/>
<text text-anchor="middle" x="64.48" y="-132.93" font-family="Arial" font-size="14.00">subtitle</text>
</g>
<!-- titlealt&#45;&gt;subtitle -->
<g id="edge5" class="edge">
<title>titlealt&#45;&gt;subtitle</title>
<path fill="none" stroke="#1f78b4" d="M107.19,-127.21C106.11,-127.44 105.03,-127.68 103.94,-127.92"/>
<polygon fill="#a6cee3" stroke="#1f78b4" points="103.09,-124.53 94.08,-130.1 104.6,-131.36 103.09,-124.53"/>
</g>
<!-- titlehint -->
<g id="node7" class="node">
<title>titlehint</title>
<path fill="#1afabc" stroke="black" d="M117.39,-0.4C117.39,-0.4 152.39,-0.4 152.39,-0.4 158.39,-0.4 164.39,-6.4 164.39,-12.4 164.39,-12.4 164.39,-24.4 164.39,-24.4 164.39,-30.4 158.39,-36.4 152.39,-36.4 152.39,-36.4 117.39,-36.4 117.39,-36.4 111.39,-36.4 105.39,-30.4 105.39,-24.4 105.39,-24.4 105.39,-12.4 105.39,-12.4 105.39,-6.4 111.39,-0.4 117.39,-0.4"/>
<text text-anchor="middle" x="134.89" y="-14.7" font-family="Arial" font-size="14.00">titlehint</text>
</g>
<!-- titlealt&#45;&gt;titlehint -->
<g id="edge6" class="edge">
<title>titlealt&#45;&gt;titlehint</title>
<path fill="none" stroke="#1f78b4" d="M134.51,-102.82C134.58,-87.25 134.68,-64.67 134.76,-46.78"/>
<polygon fill="#a6cee3" stroke="#1f78b4" points="138.26,-46.63 134.81,-36.62 131.26,-46.6 138.26,-46.63"/>
</g>
</g>
</svg>
