<?xml version="1.0" encoding="UTF-8" standalone="no"?>
<!DOCTYPE svg PUBLIC "-//W3C//DTD SVG 1.1//EN"
 "http://www.w3.org/Graphics/SVG/1.1/DTD/svg11.dtd">
<!-- Generated by graphviz version 6.0.1 (20220911.1526)
 -->
<!-- Pages: 1 -->
<svg width="215pt" height="156pt"
 viewBox="0.00 0.00 215.00 156.00" xmlns="http://www.w3.org/2000/svg" xmlns:xlink="http://www.w3.org/1999/xlink">
<g id="graph0" class="graph" transform="scale(1 1) rotate(0) translate(4 152)">
<polygon fill="white" stroke="none" points="-4,4 -4,-152 211,-152 211,4 -4,4"/>
<!-- emphasis&#45;d -->
<g id="node1" class="node">
<title>emphasis&#45;d</title>
<path fill="#dddddd" stroke="black" d="M12,-34.6C12,-34.6 75,-34.6 75,-34.6 81,-34.6 87,-40.6 87,-46.6 87,-46.6 87,-58.6 87,-58.6 87,-64.6 81,-70.6 75,-70.6 75,-70.6 12,-70.6 12,-70.6 6,-70.6 0,-64.6 0,-58.6 0,-58.6 0,-46.6 0,-46.6 0,-40.6 6,-34.6 12,-34.6"/>
<text text-anchor="middle" x="43.5" y="-48.9" font-family="Arial" font-size="14.00">emphasis&#45;d</text>
</g>
<!-- ph -->
<g id="node2" class="node">
<title>ph</title>
<path fill="#afa7f4" stroke="black" d="M108.81,-59.46C108.81,-59.46 138.81,-59.46 138.81,-59.46 144.81,-59.46 150.81,-65.46 150.81,-71.46 150.81,-71.46 150.81,-83.46 150.81,-83.46 150.81,-89.46 144.81,-95.46 138.81,-95.46 138.81,-95.46 108.81,-95.46 108.81,-95.46 102.81,-95.46 96.81,-89.46 96.81,-83.46 96.81,-83.46 96.81,-71.46 96.81,-71.46 96.81,-65.46 102.81,-59.46 108.81,-59.46"/>
<text text-anchor="middle" x="123.81" y="-73.76" font-family="Arial" font-size="14.00">ph</text>
</g>
<!-- emphasis&#45;d&#45;&gt;ph -->
<g id="edge1" class="edge">
<title>emphasis&#45;d&#45;&gt;ph</title>
<path fill="none" stroke="#1f78b4" d="M87.41,-66.2C87.51,-66.23 87.6,-66.26 87.7,-66.28"/>
<polygon fill="#a6cee3" stroke="#1f78b4" points="85.89,-69.39 96.48,-69 87.96,-62.7 85.89,-69.39"/>
</g>
<!-- strong -->
<g id="node3" class="node">
<title>strong</title>
<path fill="#1afabc" stroke="black" d="M164.8,-0.09C164.8,-0.09 194.8,-0.09 194.8,-0.09 200.8,-0.09 206.8,-6.09 206.8,-12.09 206.8,-12.09 206.8,-24.09 206.8,-24.09 206.8,-30.09 200.8,-36.09 194.8,-36.09 194.8,-36.09 164.8,-36.09 164.8,-36.09 158.8,-36.09 152.8,-30.09 152.8,-24.09 152.8,-24.09 152.8,-12.09 152.8,-12.09 152.8,-6.09 158.8,-0.09 164.8,-0.09"/>
<text text-anchor="middle" x="179.8" y="-14.39" font-family="Arial" font-size="14.00">strong</text>
</g>
<!-- ph&#45;&gt;strong -->
<g id="edge2" class="edge">
<title>ph&#45;&gt;strong</title>
<path fill="none" stroke="#1f78b4" d="M140.91,-59.32C145.58,-54.37 150.73,-48.92 155.71,-43.64"/>
<polygon fill="#a6cee3" stroke="#1f78b4" points="158.49,-45.79 162.8,-36.11 153.4,-40.99 158.49,-45.79"/>
</g>
<!-- em -->
<g id="node4" class="node">
<title>em</title>
<path fill="#1afabc" stroke="black" d="M131.75,-111.24C131.75,-111.24 161.75,-111.24 161.75,-111.24 167.75,-111.24 173.75,-117.24 173.75,-123.24 173.75,-123.24 173.75,-135.24 173.75,-135.24 173.75,-141.24 167.75,-147.24 161.75,-147.24 161.75,-147.24 131.75,-147.24 131.75,-147.24 125.75,-147.24 119.75,-141.24 119.75,-135.24 119.75,-135.24 119.75,-123.24 119.75,-123.24 119.75,-117.24 125.75,-111.24 131.75,-111.24"/>
<text text-anchor="middle" x="146.75" y="-125.54" font-family="Arial" font-size="14.00">em</text>
</g>
<!-- ph&#45;&gt;em -->
<g id="edge3" class="edge">
<title>ph&#45;&gt;em</title>
<path fill="none" stroke="#1f78b4" d="M131.83,-95.57C132.74,-97.61 133.67,-99.72 134.61,-101.84"/>
<polygon fill="#a6cee3" stroke="#1f78b4" points="131.44,-103.33 138.7,-111.05 137.84,-100.49 131.44,-103.33"/>
</g>
</g>
</svg>
