<?xml version="1.0" encoding="UTF-8" standalone="no"?>
<!DOCTYPE svg PUBLIC "-//W3C//DTD SVG 1.1//EN"
 "http://www.w3.org/Graphics/SVG/1.1/DTD/svg11.dtd">
<!-- Generated by graphviz version 6.0.1 (20220911.1526)
 -->
<!-- Pages: 1 -->
<svg width="469pt" height="288pt"
 viewBox="0.00 0.00 469.00 288.00" xmlns="http://www.w3.org/2000/svg" xmlns:xlink="http://www.w3.org/1999/xlink">
<g id="graph0" class="graph" transform="scale(1 1) rotate(0) translate(4 284)">
<polygon fill="white" stroke="none" points="-4,4 -4,-284 465,-284 465,4 -4,4"/>
<!-- hazard&#45;d -->
<g id="node1" class="node">
<title>hazard&#45;d</title>
<path fill="#dddddd" stroke="black" d="M237.47,-140.06C237.47,-140.06 283.47,-140.06 283.47,-140.06 289.47,-140.06 295.47,-146.06 295.47,-152.06 295.47,-152.06 295.47,-164.06 295.47,-164.06 295.47,-170.06 289.47,-176.06 283.47,-176.06 283.47,-176.06 237.47,-176.06 237.47,-176.06 231.47,-176.06 225.47,-170.06 225.47,-164.06 225.47,-164.06 225.47,-152.06 225.47,-152.06 225.47,-146.06 231.47,-140.06 237.47,-140.06"/>
<text text-anchor="middle" x="260.47" y="-154.36" font-family="Arial" font-size="14.00">hazard&#45;d</text>
</g>
<!-- note -->
<g id="node2" class="node">
<title>note</title>
<path fill="#afa7f4" stroke="black" d="M325.46,-210.22C325.46,-210.22 355.46,-210.22 355.46,-210.22 361.46,-210.22 367.46,-216.22 367.46,-222.22 367.46,-222.22 367.46,-234.22 367.46,-234.22 367.46,-240.22 361.46,-246.22 355.46,-246.22 355.46,-246.22 325.46,-246.22 325.46,-246.22 319.46,-246.22 313.46,-240.22 313.46,-234.22 313.46,-234.22 313.46,-222.22 313.46,-222.22 313.46,-216.22 319.46,-210.22 325.46,-210.22"/>
<text text-anchor="middle" x="340.46" y="-224.52" font-family="Arial" font-size="14.00">note</text>
</g>
<!-- hazard&#45;d&#45;&gt;note -->
<g id="edge1" class="edge">
<title>hazard&#45;d&#45;&gt;note</title>
<path fill="none" stroke="#1f78b4" d="M281.07,-176.13C290.59,-184.48 302.04,-194.52 312.33,-203.55"/>
<polygon fill="#a6cee3" stroke="#1f78b4" points="310.1,-206.25 319.93,-210.22 314.72,-200.99 310.1,-206.25"/>
</g>
<!-- image -->
<g id="node4" class="node">
<title>image</title>
<path fill="#afa7f4" stroke="black" d="M190.27,-197.18C190.27,-197.18 220.27,-197.18 220.27,-197.18 226.27,-197.18 232.27,-203.18 232.27,-209.18 232.27,-209.18 232.27,-221.18 232.27,-221.18 232.27,-227.18 226.27,-233.18 220.27,-233.18 220.27,-233.18 190.27,-233.18 190.27,-233.18 184.27,-233.18 178.27,-227.18 178.27,-221.18 178.27,-221.18 178.27,-209.18 178.27,-209.18 178.27,-203.18 184.27,-197.18 190.27,-197.18"/>
<text text-anchor="middle" x="205.27" y="-211.48" font-family="Arial" font-size="14.00">image</text>
</g>
<!-- hazard&#45;d&#45;&gt;image -->
<g id="edge3" class="edge">
<title>hazard&#45;d&#45;&gt;image</title>
<path fill="none" stroke="#1f78b4" d="M243,-176.13C238.88,-180.4 234.4,-185.04 230.01,-189.58"/>
<polygon fill="#a6cee3" stroke="#1f78b4" points="227.24,-187.41 222.81,-197.03 232.27,-192.27 227.24,-187.41"/>
</g>
<!-- div -->
<g id="node6" class="node">
<title>div</title>
<path fill="#afa7f4" stroke="black" d="M151.49,-90.81C151.49,-90.81 181.49,-90.81 181.49,-90.81 187.49,-90.81 193.49,-96.81 193.49,-102.81 193.49,-102.81 193.49,-114.81 193.49,-114.81 193.49,-120.81 187.49,-126.81 181.49,-126.81 181.49,-126.81 151.49,-126.81 151.49,-126.81 145.49,-126.81 139.49,-120.81 139.49,-114.81 139.49,-114.81 139.49,-102.81 139.49,-102.81 139.49,-96.81 145.49,-90.81 151.49,-90.81"/>
<text text-anchor="middle" x="166.49" y="-105.11" font-family="Arial" font-size="14.00">div</text>
</g>
<!-- hazard&#45;d&#45;&gt;div -->
<g id="edge5" class="edge">
<title>hazard&#45;d&#45;&gt;div</title>
<path fill="none" stroke="#1f78b4" d="M226.01,-140C218.41,-136.02 210.34,-131.79 202.68,-127.77"/>
<polygon fill="#a6cee3" stroke="#1f78b4" points="204.07,-124.55 193.59,-123.01 200.82,-130.75 204.07,-124.55"/>
</g>
<!-- hazardstatement -->
<g id="node3" class="node">
<title>hazardstatement</title>
<path fill="#1afabc" stroke="black" d="M354.55,-159.98C354.55,-159.98 448.55,-159.98 448.55,-159.98 454.55,-159.98 460.55,-165.98 460.55,-171.98 460.55,-171.98 460.55,-183.98 460.55,-183.98 460.55,-189.98 454.55,-195.98 448.55,-195.98 448.55,-195.98 354.55,-195.98 354.55,-195.98 348.55,-195.98 342.55,-189.98 342.55,-183.98 342.55,-183.98 342.55,-171.98 342.55,-171.98 342.55,-165.98 348.55,-159.98 354.55,-159.98"/>
<text text-anchor="middle" x="401.55" y="-174.28" font-family="Arial" font-size="14.00">hazardstatement</text>
</g>
<!-- note&#45;&gt;hazardstatement -->
<g id="edge2" class="edge">
<title>note&#45;&gt;hazardstatement</title>
<path fill="none" stroke="#1f78b4" d="M362.51,-210.08C365.42,-207.69 368.44,-205.21 371.45,-202.74"/>
<polygon fill="#a6cee3" stroke="#1f78b4" points="373.82,-205.32 379.32,-196.26 369.38,-199.91 373.82,-205.32"/>
</g>
<!-- hazardsymbol -->
<g id="node5" class="node">
<title>hazardsymbol</title>
<path fill="#1afabc" stroke="black" d="M167.91,-243.77C167.91,-243.77 244.91,-243.77 244.91,-243.77 250.91,-243.77 256.91,-249.77 256.91,-255.77 256.91,-255.77 256.91,-267.77 256.91,-267.77 256.91,-273.77 250.91,-279.77 244.91,-279.77 244.91,-279.77 167.91,-279.77 167.91,-279.77 161.91,-279.77 155.91,-273.77 155.91,-267.77 155.91,-267.77 155.91,-255.77 155.91,-255.77 155.91,-249.77 161.91,-243.77 167.91,-243.77"/>
<text text-anchor="middle" x="206.41" y="-258.07" font-family="Arial" font-size="14.00">hazardsymbol</text>
</g>
<!-- image&#45;&gt;hazardsymbol -->
<g id="edge4" class="edge">
<title>image&#45;&gt;hazardsymbol</title>
<path fill="none" stroke="#1f78b4" d="M205.71,-233.33C205.71,-233.43 205.72,-233.54 205.72,-233.64"/>
<polygon fill="#a6cee3" stroke="#1f78b4" points="202.22,-233.69 205.96,-243.6 209.22,-233.51 202.22,-233.69"/>
</g>
<!-- messagepanel -->
<g id="node7" class="node">
<title>messagepanel</title>
<path fill="#1afabc" stroke="black" d="M16.1,-150.45C16.1,-150.45 97.1,-150.45 97.1,-150.45 103.1,-150.45 109.1,-156.45 109.1,-162.45 109.1,-162.45 109.1,-174.45 109.1,-174.45 109.1,-180.45 103.1,-186.45 97.1,-186.45 97.1,-186.45 16.1,-186.45 16.1,-186.45 10.1,-186.45 4.1,-180.45 4.1,-174.45 4.1,-174.45 4.1,-162.45 4.1,-162.45 4.1,-156.45 10.1,-150.45 16.1,-150.45"/>
<text text-anchor="middle" x="56.6" y="-164.75" font-family="Arial" font-size="14.00">messagepanel</text>
</g>
<!-- div&#45;&gt;messagepanel -->
<g id="edge6" class="edge">
<title>div&#45;&gt;messagepanel</title>
<path fill="none" stroke="#1f78b4" d="M139.33,-123.55C127.24,-130.11 112.73,-137.99 99.25,-145.3"/>
<polygon fill="#a6cee3" stroke="#1f78b4" points="97.25,-142.4 90.13,-150.25 100.59,-148.56 97.25,-142.4"/>
</g>
<!-- typeofhazard -->
<g id="node8" class="node">
<title>typeofhazard</title>
<path fill="#1afabc" stroke="black" d="M214.91,-0.65C214.91,-0.65 285.91,-0.65 285.91,-0.65 291.91,-0.65 297.91,-6.65 297.91,-12.65 297.91,-12.65 297.91,-24.65 297.91,-24.65 297.91,-30.65 291.91,-36.65 285.91,-36.65 285.91,-36.65 214.91,-36.65 214.91,-36.65 208.91,-36.65 202.91,-30.65 202.91,-24.65 202.91,-24.65 202.91,-12.65 202.91,-12.65 202.91,-6.65 208.91,-0.65 214.91,-0.65"/>
<text text-anchor="middle" x="250.41" y="-14.95" font-family="Arial" font-size="14.00">typeofhazard</text>
</g>
<!-- div&#45;&gt;typeofhazard -->
<g id="edge7" class="edge">
<title>div&#45;&gt;typeofhazard</title>
<path fill="none" stroke="#1f78b4" d="M183.47,-90.56C195.87,-77.24 212.84,-59.01 226.59,-44.24"/>
<polygon fill="#a6cee3" stroke="#1f78b4" points="229.2,-46.57 233.45,-36.87 224.08,-41.81 229.2,-46.57"/>
</g>
<!-- consequence -->
<g id="node9" class="node">
<title>consequence</title>
<path fill="#1afabc" stroke="black" d="M12.28,-41.8C12.28,-41.8 85.28,-41.8 85.28,-41.8 91.28,-41.8 97.28,-47.8 97.28,-53.8 97.28,-53.8 97.28,-65.8 97.28,-65.8 97.28,-71.8 91.28,-77.8 85.28,-77.8 85.28,-77.8 12.28,-77.8 12.28,-77.8 6.28,-77.8 0.28,-71.8 0.28,-65.8 0.28,-65.8 0.28,-53.8 0.28,-53.8 0.28,-47.8 6.28,-41.8 12.28,-41.8"/>
<text text-anchor="middle" x="48.78" y="-56.1" font-family="Arial" font-size="14.00">consequence</text>
</g>
<!-- div&#45;&gt;consequence -->
<g id="edge8" class="edge">
<title>div&#45;&gt;consequence</title>
<path fill="none" stroke="#1f78b4" d="M139.49,-97.56C128.24,-92.88 114.76,-87.27 101.68,-81.82"/>
<polygon fill="#a6cee3" stroke="#1f78b4" points="102.85,-78.52 92.27,-77.9 100.16,-84.98 102.85,-78.52"/>
</g>
<!-- howtoavoid -->
<g id="node10" class="node">
<title>howtoavoid</title>
<path fill="#1afabc" stroke="black" d="M121.49,-43.24C121.49,-43.24 182.49,-43.24 182.49,-43.24 188.49,-43.24 194.49,-49.24 194.49,-55.24 194.49,-55.24 194.49,-67.24 194.49,-67.24 194.49,-73.24 188.49,-79.24 182.49,-79.24 182.49,-79.24 121.49,-79.24 121.49,-79.24 115.49,-79.24 109.49,-73.24 109.49,-67.24 109.49,-67.24 109.49,-55.24 109.49,-55.24 109.49,-49.24 115.49,-43.24 121.49,-43.24"/>
<text text-anchor="middle" x="151.99" y="-57.54" font-family="Arial" font-size="14.00">howtoavoid</text>
</g>
<!-- div&#45;&gt;howtoavoid -->
<g id="edge9" class="edge">
<title>div&#45;&gt;howtoavoid</title>
<path fill="none" stroke="#1f78b4" d="M160.93,-90.55C160.79,-90.09 160.65,-89.63 160.51,-89.17"/>
<polygon fill="#a6cee3" stroke="#1f78b4" points="163.78,-87.91 157.52,-79.37 157.09,-89.95 163.78,-87.91"/>
</g>
</g>
</svg>
