<?xml version="1.0" encoding="UTF-8" standalone="no"?>
<!DOCTYPE svg PUBLIC "-//W3C//DTD SVG 1.1//EN"
 "http://www.w3.org/Graphics/SVG/1.1/DTD/svg11.dtd">
<!-- Generated by graphviz version 6.0.1 (20220911.1526)
 -->
<!-- Pages: 1 -->
<svg width="261pt" height="233pt"
 viewBox="0.00 0.00 261.00 233.00" xmlns="http://www.w3.org/2000/svg" xmlns:xlink="http://www.w3.org/1999/xlink">
<g id="graph0" class="graph" transform="scale(1 1) rotate(0) translate(4 229)">
<polygon fill="white" stroke="none" points="-4,4 -4,-229 257,-229 257,4 -4,4"/>
<!-- mapgroup&#45;d -->
<g id="node1" class="node">
<title>mapgroup&#45;d</title>
<path fill="#dddddd" stroke="black" d="M12.34,-56.74C12.34,-56.74 78.34,-56.74 78.34,-56.74 84.34,-56.74 90.34,-62.74 90.34,-68.74 90.34,-68.74 90.34,-80.74 90.34,-80.74 90.34,-86.74 84.34,-92.74 78.34,-92.74 78.34,-92.74 12.34,-92.74 12.34,-92.74 6.34,-92.74 0.34,-86.74 0.34,-80.74 0.34,-80.74 0.34,-68.74 0.34,-68.74 0.34,-62.74 6.34,-56.74 12.34,-56.74"/>
<text text-anchor="middle" x="45.34" y="-71.04" font-family="Arial" font-size="14.00">mapgroup&#45;d</text>
</g>
<!-- topicref -->
<g id="node2" class="node">
<title>topicref</title>
<path fill="#afa7f4" stroke="black" d="M117.5,-96.99C117.5,-96.99 154.5,-96.99 154.5,-96.99 160.5,-96.99 166.5,-102.99 166.5,-108.99 166.5,-108.99 166.5,-120.99 166.5,-120.99 166.5,-126.99 160.5,-132.99 154.5,-132.99 154.5,-132.99 117.5,-132.99 117.5,-132.99 111.5,-132.99 105.5,-126.99 105.5,-120.99 105.5,-120.99 105.5,-108.99 105.5,-108.99 105.5,-102.99 111.5,-96.99 117.5,-96.99"/>
<text text-anchor="middle" x="136" y="-111.29" font-family="Arial" font-size="14.00">topicref</text>
</g>
<!-- mapgroup&#45;d&#45;&gt;topicref -->
<g id="edge1" class="edge">
<title>mapgroup&#45;d&#45;&gt;topicref</title>
<path fill="none" stroke="#1f78b4" d="M85.9,-92.74C89.25,-94.23 92.64,-95.74 95.99,-97.23"/>
<polygon fill="#a6cee3" stroke="#1f78b4" points="94.71,-100.49 105.27,-101.34 97.55,-94.09 94.71,-100.49"/>
</g>
<!-- topichead -->
<g id="node3" class="node">
<title>topichead</title>
<path fill="#1afabc" stroke="black" d="M190.22,-51.59C190.22,-51.59 241.22,-51.59 241.22,-51.59 247.22,-51.59 253.22,-57.59 253.22,-63.59 253.22,-63.59 253.22,-75.59 253.22,-75.59 253.22,-81.59 247.22,-87.59 241.22,-87.59 241.22,-87.59 190.22,-87.59 190.22,-87.59 184.22,-87.59 178.22,-81.59 178.22,-75.59 178.22,-75.59 178.22,-63.59 178.22,-63.59 178.22,-57.59 184.22,-51.59 190.22,-51.59"/>
<text text-anchor="middle" x="215.72" y="-65.89" font-family="Arial" font-size="14.00">topichead</text>
</g>
<!-- topicref&#45;&gt;topichead -->
<g id="edge2" class="edge">
<title>topicref&#45;&gt;topichead</title>
<path fill="none" stroke="#1f78b4" d="M166.6,-97.57C169.45,-95.94 172.37,-94.28 175.3,-92.61"/>
<polygon fill="#a6cee3" stroke="#1f78b4" points="177.06,-95.63 184.02,-87.64 173.6,-89.55 177.06,-95.63"/>
</g>
<!-- topicgroup -->
<g id="node4" class="node">
<title>topicgroup</title>
<path fill="#1afabc" stroke="black" d="M104.18,-188.44C104.18,-188.44 160.18,-188.44 160.18,-188.44 166.18,-188.44 172.18,-194.44 172.18,-200.44 172.18,-200.44 172.18,-212.44 172.18,-212.44 172.18,-218.44 166.18,-224.44 160.18,-224.44 160.18,-224.44 104.18,-224.44 104.18,-224.44 98.18,-224.44 92.18,-218.44 92.18,-212.44 92.18,-212.44 92.18,-200.44 92.18,-200.44 92.18,-194.44 98.18,-188.44 104.18,-188.44"/>
<text text-anchor="middle" x="132.18" y="-202.74" font-family="Arial" font-size="14.00">topicgroup</text>
</g>
<!-- topicref&#45;&gt;topicgroup -->
<g id="edge3" class="edge">
<title>topicref&#45;&gt;topicgroup</title>
<path fill="none" stroke="#1f78b4" d="M135.25,-133.06C134.71,-145.96 133.97,-163.57 133.36,-178.3"/>
<polygon fill="#a6cee3" stroke="#1f78b4" points="129.85,-178.27 132.93,-188.41 136.85,-178.57 129.85,-178.27"/>
</g>
<!-- mapref -->
<g id="node5" class="node">
<title>mapref</title>
<path fill="#1afabc" stroke="black" d="M195.67,-133.42C195.67,-133.42 230.67,-133.42 230.67,-133.42 236.67,-133.42 242.67,-139.42 242.67,-145.42 242.67,-145.42 242.67,-157.42 242.67,-157.42 242.67,-163.42 236.67,-169.42 230.67,-169.42 230.67,-169.42 195.67,-169.42 195.67,-169.42 189.67,-169.42 183.67,-163.42 183.67,-157.42 183.67,-157.42 183.67,-145.42 183.67,-145.42 183.67,-139.42 189.67,-133.42 195.67,-133.42"/>
<text text-anchor="middle" x="213.17" y="-147.72" font-family="Arial" font-size="14.00">mapref</text>
</g>
<!-- topicref&#45;&gt;mapref -->
<g id="edge4" class="edge">
<title>topicref&#45;&gt;mapref</title>
<path fill="none" stroke="#1f78b4" d="M166.95,-129.6C169.29,-130.7 171.68,-131.83 174.07,-132.96"/>
<polygon fill="#a6cee3" stroke="#1f78b4" points="172.69,-136.18 183.23,-137.28 175.68,-129.85 172.69,-136.18"/>
</g>
<!-- keydef -->
<g id="node6" class="node">
<title>keydef</title>
<path fill="#1afabc" stroke="black" d="M33.21,-136.7C33.21,-136.7 65.21,-136.7 65.21,-136.7 71.21,-136.7 77.21,-142.7 77.21,-148.7 77.21,-148.7 77.21,-160.7 77.21,-160.7 77.21,-166.7 71.21,-172.7 65.21,-172.7 65.21,-172.7 33.21,-172.7 33.21,-172.7 27.21,-172.7 21.21,-166.7 21.21,-160.7 21.21,-160.7 21.21,-148.7 21.21,-148.7 21.21,-142.7 27.21,-136.7 33.21,-136.7"/>
<text text-anchor="middle" x="49.21" y="-151" font-family="Arial" font-size="14.00">keydef</text>
</g>
<!-- topicref&#45;&gt;keydef -->
<g id="edge5" class="edge">
<title>topicref&#45;&gt;keydef</title>
<path fill="none" stroke="#1f78b4" d="M105.16,-129.1C99.21,-131.82 92.92,-134.7 86.79,-137.51"/>
<polygon fill="#a6cee3" stroke="#1f78b4" points="84.99,-134.48 77.35,-141.82 87.9,-140.85 84.99,-134.48"/>
</g>
<!-- mapresources -->
<g id="node7" class="node">
<title>mapresources</title>
<path fill="#1afabc" stroke="black" d="M80.99,-0.91C80.99,-0.91 159.99,-0.91 159.99,-0.91 165.99,-0.91 171.99,-6.91 171.99,-12.91 171.99,-12.91 171.99,-24.91 171.99,-24.91 171.99,-30.91 165.99,-36.91 159.99,-36.91 159.99,-36.91 80.99,-36.91 80.99,-36.91 74.99,-36.91 68.99,-30.91 68.99,-24.91 68.99,-24.91 68.99,-12.91 68.99,-12.91 68.99,-6.91 74.99,-0.91 80.99,-0.91"/>
<text text-anchor="middle" x="120.49" y="-15.21" font-family="Arial" font-size="14.00">mapresources</text>
</g>
<!-- topicref&#45;&gt;mapresources -->
<g id="edge6" class="edge">
<title>topicref&#45;&gt;mapresources</title>
<path fill="none" stroke="#1f78b4" d="M133.09,-96.92C130.83,-82.92 127.65,-63.26 125.06,-47.18"/>
<polygon fill="#a6cee3" stroke="#1f78b4" points="128.5,-46.54 123.45,-37.23 121.59,-47.66 128.5,-46.54"/>
</g>
</g>
</svg>
