<?xml version="1.0" encoding="UTF-8" standalone="no"?>
<!DOCTYPE svg PUBLIC "-//W3C//DTD SVG 1.1//EN"
 "http://www.w3.org/Graphics/SVG/1.1/DTD/svg11.dtd">
<!-- Generated by graphviz version 6.0.1 (20220911.1526)
 -->
<!-- Pages: 1 -->
<svg width="156pt" height="178pt"
 viewBox="0.00 0.00 156.00 178.00" xmlns="http://www.w3.org/2000/svg" xmlns:xlink="http://www.w3.org/1999/xlink">
<g id="graph0" class="graph" transform="scale(1 1) rotate(0) translate(4 174)">
<polygon fill="white" stroke="none" points="-4,4 -4,-174 152,-174 152,4 -4,4"/>
<!-- svg&#45;d -->
<g id="node1" class="node">
<title>svg&#45;d</title>
<path fill="#dddddd" stroke="black" d="M18.18,-80.43C18.18,-80.43 48.18,-80.43 48.18,-80.43 54.18,-80.43 60.18,-86.43 60.18,-92.43 60.18,-92.43 60.18,-104.43 60.18,-104.43 60.18,-110.43 54.18,-116.43 48.18,-116.43 48.18,-116.43 18.18,-116.43 18.18,-116.43 12.18,-116.43 6.18,-110.43 6.18,-104.43 6.18,-104.43 6.18,-92.43 6.18,-92.43 6.18,-86.43 12.18,-80.43 18.18,-80.43"/>
<text text-anchor="middle" x="33.18" y="-94.73" font-family="Arial" font-size="14.00">svg&#45;d</text>
</g>
<!-- foreign -->
<g id="node2" class="node">
<title>foreign</title>
<path fill="#afa7f4" stroke="black" d="M89.58,-54.15C89.58,-54.15 123.58,-54.15 123.58,-54.15 129.58,-54.15 135.58,-60.15 135.58,-66.15 135.58,-66.15 135.58,-78.15 135.58,-78.15 135.58,-84.15 129.58,-90.15 123.58,-90.15 123.58,-90.15 89.58,-90.15 89.58,-90.15 83.58,-90.15 77.58,-84.15 77.58,-78.15 77.58,-78.15 77.58,-66.15 77.58,-66.15 77.58,-60.15 83.58,-54.15 89.58,-54.15"/>
<text text-anchor="middle" x="106.58" y="-68.45" font-family="Arial" font-size="14.00">foreign</text>
</g>
<!-- svg&#45;d&#45;&gt;foreign -->
<g id="edge1" class="edge">
<title>svg&#45;d&#45;&gt;foreign</title>
<path fill="none" stroke="#1f78b4" d="M60.51,-88.65C62.94,-87.78 65.42,-86.89 67.91,-86"/>
<polygon fill="#a6cee3" stroke="#1f78b4" points="69.27,-89.23 77.5,-82.56 66.91,-82.64 69.27,-89.23"/>
</g>
<!-- include -->
<g id="node4" class="node">
<title>include</title>
<path fill="#afa7f4" stroke="black" d="M11.88,-129.44C11.88,-129.44 46.88,-129.44 46.88,-129.44 52.88,-129.44 58.88,-135.44 58.88,-141.44 58.88,-141.44 58.88,-153.44 58.88,-153.44 58.88,-159.44 52.88,-165.44 46.88,-165.44 46.88,-165.44 11.88,-165.44 11.88,-165.44 5.88,-165.44 -0.12,-159.44 -0.12,-153.44 -0.12,-153.44 -0.12,-141.44 -0.12,-141.44 -0.12,-135.44 5.88,-129.44 11.88,-129.44"/>
<text text-anchor="middle" x="29.38" y="-143.74" font-family="Arial" font-size="14.00">include</text>
</g>
<!-- svg&#45;d&#45;&gt;include -->
<g id="edge3" class="edge">
<title>svg&#45;d&#45;&gt;include</title>
<path fill="none" stroke="#1f78b4" d="M31.76,-116.68C31.7,-117.46 31.64,-118.24 31.58,-119.03"/>
<polygon fill="#a6cee3" stroke="#1f78b4" points="28.07,-119.1 30.78,-129.34 35.04,-119.64 28.07,-119.1"/>
</g>
<!-- svg&#45;container -->
<g id="node3" class="node">
<title>svg&#45;container</title>
<path fill="#1afabc" stroke="black" d="M62.19,-0.62C62.19,-0.62 136.19,-0.62 136.19,-0.62 142.19,-0.62 148.19,-6.62 148.19,-12.62 148.19,-12.62 148.19,-24.62 148.19,-24.62 148.19,-30.62 142.19,-36.62 136.19,-36.62 136.19,-36.62 62.19,-36.62 62.19,-36.62 56.19,-36.62 50.19,-30.62 50.19,-24.62 50.19,-24.62 50.19,-12.62 50.19,-12.62 50.19,-6.62 56.19,-0.62 62.19,-0.62"/>
<text text-anchor="middle" x="99.19" y="-14.92" font-family="Arial" font-size="14.00">svg&#45;container</text>
</g>
<!-- foreign&#45;&gt;svg&#45;container -->
<g id="edge2" class="edge">
<title>foreign&#45;&gt;svg&#45;container</title>
<path fill="none" stroke="#1f78b4" d="M104.08,-54.03C103.75,-51.67 103.42,-49.22 103.07,-46.75"/>
<polygon fill="#a6cee3" stroke="#1f78b4" points="106.53,-46.15 101.69,-36.72 99.59,-47.11 106.53,-46.15"/>
</g>
<!-- svgref -->
<g id="node5" class="node">
<title>svgref</title>
<path fill="#1afabc" stroke="black" d="M99.48,-133.25C99.48,-133.25 129.48,-133.25 129.48,-133.25 135.48,-133.25 141.48,-139.25 141.48,-145.25 141.48,-145.25 141.48,-157.25 141.48,-157.25 141.48,-163.25 135.48,-169.25 129.48,-169.25 129.48,-169.25 99.48,-169.25 99.48,-169.25 93.48,-169.25 87.48,-163.25 87.48,-157.25 87.48,-157.25 87.48,-145.25 87.48,-145.25 87.48,-139.25 93.48,-133.25 99.48,-133.25"/>
<text text-anchor="middle" x="114.48" y="-147.55" font-family="Arial" font-size="14.00">svgref</text>
</g>
<!-- include&#45;&gt;svgref -->
<g id="edge4" class="edge">
<title>include&#45;&gt;svgref</title>
<path fill="none" stroke="#1f78b4" d="M59.14,-148.77C65.04,-149.04 71.29,-149.32 77.4,-149.59"/>
<polygon fill="#a6cee3" stroke="#1f78b4" points="77.29,-153.09 87.43,-150.04 77.6,-146.1 77.29,-153.09"/>
</g>
</g>
</svg>
