<?xml version="1.0" encoding="UTF-8" standalone="no"?>
<!DOCTYPE svg PUBLIC "-//W3C//DTD SVG 1.1//EN"
 "http://www.w3.org/Graphics/SVG/1.1/DTD/svg11.dtd">
<!-- Generated by graphviz version 6.0.1 (20220911.1526)
 -->
<!-- Pages: 1 -->
<svg width="258pt" height="271pt"
 viewBox="0.00 0.00 258.00 271.00" xmlns="http://www.w3.org/2000/svg" xmlns:xlink="http://www.w3.org/1999/xlink">
<g id="graph0" class="graph" transform="scale(1 1) rotate(0) translate(4 267)">
<polygon fill="white" stroke="none" points="-4,4 -4,-267 254,-267 254,4 -4,4"/>
<!-- ut&#45;d -->
<g id="node1" class="node">
<title>ut&#45;d</title>
<path fill="#dddddd" stroke="black" d="M42.03,-117.24C42.03,-117.24 72.03,-117.24 72.03,-117.24 78.03,-117.24 84.03,-123.24 84.03,-129.24 84.03,-129.24 84.03,-141.24 84.03,-141.24 84.03,-147.24 78.03,-153.24 72.03,-153.24 72.03,-153.24 42.03,-153.24 42.03,-153.24 36.03,-153.24 30.03,-147.24 30.03,-141.24 30.03,-141.24 30.03,-129.24 30.03,-129.24 30.03,-123.24 36.03,-117.24 42.03,-117.24"/>
<text text-anchor="middle" x="57.03" y="-131.54" font-family="Arial" font-size="14.00">ut&#45;d</text>
</g>
<!-- div -->
<g id="node2" class="node">
<title>div</title>
<path fill="#afa7f4" stroke="black" d="M112.03,-167.77C112.03,-167.77 142.03,-167.77 142.03,-167.77 148.03,-167.77 154.03,-173.77 154.03,-179.77 154.03,-179.77 154.03,-191.77 154.03,-191.77 154.03,-197.77 148.03,-203.77 142.03,-203.77 142.03,-203.77 112.03,-203.77 112.03,-203.77 106.03,-203.77 100.03,-197.77 100.03,-191.77 100.03,-191.77 100.03,-179.77 100.03,-179.77 100.03,-173.77 106.03,-167.77 112.03,-167.77"/>
<text text-anchor="middle" x="127.03" y="-182.07" font-family="Arial" font-size="14.00">div</text>
</g>
<!-- ut&#45;d&#45;&gt;div -->
<g id="edge1" class="edge">
<title>ut&#45;d&#45;&gt;div</title>
<path fill="none" stroke="#1f78b4" d="M82.3,-153.48C86.02,-156.16 89.89,-158.96 93.73,-161.73"/>
<polygon fill="#a6cee3" stroke="#1f78b4" points="91.88,-164.71 102.03,-167.73 95.97,-159.03 91.88,-164.71"/>
</g>
<!-- keyword -->
<g id="node5" class="node">
<title>keyword</title>
<path fill="#afa7f4" stroke="black" d="M15.91,-180.22C15.91,-180.22 58.91,-180.22 58.91,-180.22 64.91,-180.22 70.91,-186.22 70.91,-192.22 70.91,-192.22 70.91,-204.22 70.91,-204.22 70.91,-210.22 64.91,-216.22 58.91,-216.22 58.91,-216.22 15.91,-216.22 15.91,-216.22 9.91,-216.22 3.91,-210.22 3.91,-204.22 3.91,-204.22 3.91,-192.22 3.91,-192.22 3.91,-186.22 9.91,-180.22 15.91,-180.22"/>
<text text-anchor="middle" x="37.41" y="-194.52" font-family="Arial" font-size="14.00">keyword</text>
</g>
<!-- ut&#45;d&#45;&gt;keyword -->
<g id="edge4" class="edge">
<title>ut&#45;d&#45;&gt;keyword</title>
<path fill="none" stroke="#1f78b4" d="M51.35,-153.46C49.74,-158.63 47.95,-164.4 46.2,-170.02"/>
<polygon fill="#a6cee3" stroke="#1f78b4" points="42.77,-169.24 43.14,-179.83 49.46,-171.32 42.77,-169.24"/>
</g>
<!-- ph -->
<g id="node7" class="node">
<title>ph</title>
<path fill="#afa7f4" stroke="black" d="M43.69,-61.73C43.69,-61.73 73.69,-61.73 73.69,-61.73 79.69,-61.73 85.69,-67.73 85.69,-73.73 85.69,-73.73 85.69,-85.73 85.69,-85.73 85.69,-91.73 79.69,-97.73 73.69,-97.73 73.69,-97.73 43.69,-97.73 43.69,-97.73 37.69,-97.73 31.69,-91.73 31.69,-85.73 31.69,-85.73 31.69,-73.73 31.69,-73.73 31.69,-67.73 37.69,-61.73 43.69,-61.73"/>
<text text-anchor="middle" x="58.69" y="-76.03" font-family="Arial" font-size="14.00">ph</text>
</g>
<!-- ut&#45;d&#45;&gt;ph -->
<g id="edge6" class="edge">
<title>ut&#45;d&#45;&gt;ph</title>
<path fill="none" stroke="#1f78b4" d="M57.57,-117.06C57.66,-114.16 57.75,-111.09 57.84,-108.02"/>
<polygon fill="#a6cee3" stroke="#1f78b4" points="61.35,-107.86 58.15,-97.76 54.35,-107.65 61.35,-107.86"/>
</g>
<!-- data -->
<g id="node9" class="node">
<title>data</title>
<path fill="#afa7f4" stroke="black" d="M116.93,-83.67C116.93,-83.67 146.93,-83.67 146.93,-83.67 152.93,-83.67 158.93,-89.67 158.93,-95.67 158.93,-95.67 158.93,-107.67 158.93,-107.67 158.93,-113.67 152.93,-119.67 146.93,-119.67 146.93,-119.67 116.93,-119.67 116.93,-119.67 110.93,-119.67 104.93,-113.67 104.93,-107.67 104.93,-107.67 104.93,-95.67 104.93,-95.67 104.93,-89.67 110.93,-83.67 116.93,-83.67"/>
<text text-anchor="middle" x="131.93" y="-97.97" font-family="Arial" font-size="14.00">data</text>
</g>
<!-- ut&#45;d&#45;&gt;data -->
<g id="edge8" class="edge">
<title>ut&#45;d&#45;&gt;data</title>
<path fill="none" stroke="#1f78b4" d="M84.07,-123.12C87.78,-121.46 91.64,-119.73 95.49,-118"/>
<polygon fill="#a6cee3" stroke="#1f78b4" points="97.23,-121.06 104.93,-113.77 94.37,-114.67 97.23,-121.06"/>
</g>
<!-- imagemap -->
<g id="node3" class="node">
<title>imagemap</title>
<path fill="#1afabc" stroke="black" d="M181.49,-110.71C181.49,-110.71 238.49,-110.71 238.49,-110.71 244.49,-110.71 250.49,-116.71 250.49,-122.71 250.49,-122.71 250.49,-134.71 250.49,-134.71 250.49,-140.71 244.49,-146.71 238.49,-146.71 238.49,-146.71 181.49,-146.71 181.49,-146.71 175.49,-146.71 169.49,-140.71 169.49,-134.71 169.49,-134.71 169.49,-122.71 169.49,-122.71 169.49,-116.71 175.49,-110.71 181.49,-110.71"/>
<text text-anchor="middle" x="209.99" y="-125.01" font-family="Arial" font-size="14.00">imagemap</text>
</g>
<!-- div&#45;&gt;imagemap -->
<g id="edge2" class="edge">
<title>div&#45;&gt;imagemap</title>
<path fill="none" stroke="#1f78b4" d="M153.28,-167.72C160.24,-162.93 167.87,-157.69 175.21,-152.64"/>
<polygon fill="#a6cee3" stroke="#1f78b4" points="177.38,-155.39 183.63,-146.84 173.41,-149.63 177.38,-155.39"/>
</g>
<!-- area -->
<g id="node4" class="node">
<title>area</title>
<path fill="#1afabc" stroke="black" d="M114.11,-220.99C114.11,-220.99 144.11,-220.99 144.11,-220.99 150.11,-220.99 156.11,-226.99 156.11,-232.99 156.11,-232.99 156.11,-244.99 156.11,-244.99 156.11,-250.99 150.11,-256.99 144.11,-256.99 144.11,-256.99 114.11,-256.99 114.11,-256.99 108.11,-256.99 102.11,-250.99 102.11,-244.99 102.11,-244.99 102.11,-232.99 102.11,-232.99 102.11,-226.99 108.11,-220.99 114.11,-220.99"/>
<text text-anchor="middle" x="129.11" y="-235.29" font-family="Arial" font-size="14.00">area</text>
</g>
<!-- div&#45;&gt;area -->
<g id="edge3" class="edge">
<title>div&#45;&gt;area</title>
<path fill="none" stroke="#1f78b4" d="M127.74,-203.79C127.82,-206 127.91,-208.29 128,-210.6"/>
<polygon fill="#a6cee3" stroke="#1f78b4" points="124.5,-210.77 128.39,-220.63 131.5,-210.5 124.5,-210.77"/>
</g>
<!-- shape -->
<g id="node6" class="node">
<title>shape</title>
<path fill="#1afabc" stroke="black" d="M12.08,-226.64C12.08,-226.64 42.08,-226.64 42.08,-226.64 48.08,-226.64 54.08,-232.64 54.08,-238.64 54.08,-238.64 54.08,-250.64 54.08,-250.64 54.08,-256.64 48.08,-262.64 42.08,-262.64 42.08,-262.64 12.08,-262.64 12.08,-262.64 6.08,-262.64 0.08,-256.64 0.08,-250.64 0.08,-250.64 0.08,-238.64 0.08,-238.64 0.08,-232.64 6.08,-226.64 12.08,-226.64"/>
<text text-anchor="middle" x="27.08" y="-240.94" font-family="Arial" font-size="14.00">shape</text>
</g>
<!-- keyword&#45;&gt;shape -->
<g id="edge5" class="edge">
<title>keyword&#45;&gt;shape</title>
<path fill="none" stroke="#1f78b4" d="M33.39,-216.3C33.37,-216.41 33.34,-216.51 33.32,-216.62"/>
<polygon fill="#a6cee3" stroke="#1f78b4" points="29.87,-216.01 31.11,-226.54 36.7,-217.53 29.87,-216.01"/>
</g>
<!-- coords -->
<g id="node8" class="node">
<title>coords</title>
<path fill="#1afabc" stroke="black" d="M67.2,-0.26C67.2,-0.26 100.2,-0.26 100.2,-0.26 106.2,-0.26 112.2,-6.26 112.2,-12.26 112.2,-12.26 112.2,-24.26 112.2,-24.26 112.2,-30.26 106.2,-36.26 100.2,-36.26 100.2,-36.26 67.2,-36.26 67.2,-36.26 61.2,-36.26 55.2,-30.26 55.2,-24.26 55.2,-24.26 55.2,-12.26 55.2,-12.26 55.2,-6.26 61.2,-0.26 67.2,-0.26"/>
<text text-anchor="middle" x="83.7" y="-14.56" font-family="Arial" font-size="14.00">coords</text>
</g>
<!-- ph&#45;&gt;coords -->
<g id="edge7" class="edge">
<title>ph&#45;&gt;coords</title>
<path fill="none" stroke="#1f78b4" d="M66.06,-61.62C68.08,-56.66 70.31,-51.17 72.49,-45.81"/>
<polygon fill="#a6cee3" stroke="#1f78b4" points="75.77,-47.03 76.3,-36.45 69.29,-44.39 75.77,-47.03"/>
</g>
<!-- sort&#45;as -->
<g id="node10" class="node">
<title>sort&#45;as</title>
<path fill="#1afabc" stroke="black" d="M184.28,-163.41C184.28,-163.41 218.28,-163.41 218.28,-163.41 224.28,-163.41 230.28,-169.41 230.28,-175.41 230.28,-175.41 230.28,-187.41 230.28,-187.41 230.28,-193.41 224.28,-199.41 218.28,-199.41 218.28,-199.41 184.28,-199.41 184.28,-199.41 178.28,-199.41 172.28,-193.41 172.28,-187.41 172.28,-187.41 172.28,-175.41 172.28,-175.41 172.28,-169.41 178.28,-163.41 184.28,-163.41"/>
<text text-anchor="middle" x="201.28" y="-177.71" font-family="Arial" font-size="14.00">sort&#45;as</text>
</g>
<!-- data&#45;&gt;sort&#45;as -->
<g id="edge9" class="edge">
<title>data&#45;&gt;sort&#45;as</title>
<path fill="none" stroke="#1f78b4" d="M147.66,-119.76C156.89,-130.37 168.69,-143.93 178.87,-155.64"/>
<polygon fill="#a6cee3" stroke="#1f78b4" points="176.4,-158.14 185.61,-163.38 181.69,-153.54 176.4,-158.14"/>
</g>
</g>
</svg>
