<?xml version="1.0" encoding="UTF-8" standalone="no"?>
<!DOCTYPE svg PUBLIC "-//W3C//DTD SVG 1.1//EN"
 "http://www.w3.org/Graphics/SVG/1.1/DTD/svg11.dtd">
<!-- Generated by graphviz version 6.0.1 (20220911.1526)
 -->
<!-- Pages: 1 -->
<svg width="1344pt" height="730pt"
 viewBox="0.00 0.00 1344.00 730.00" xmlns="http://www.w3.org/2000/svg" xmlns:xlink="http://www.w3.org/1999/xlink">
<g id="graph0" class="graph" transform="scale(1 1) rotate(0) translate(4 726)">
<polygon fill="white" stroke="none" points="-4,4 -4,-726 1340,-726 1340,4 -4,4"/>
<!-- elements -->
<g id="node1" class="node">
<title>elements</title>
<path fill="#afa7f4" stroke="black" d="M919.84,-185.89C919.84,-185.89 1071.84,-185.89 1071.84,-185.89 1077.84,-185.89 1083.84,-191.89 1083.84,-197.89 1083.84,-197.89 1083.84,-209.89 1083.84,-209.89 1083.84,-215.89 1077.84,-221.89 1071.84,-221.89 1071.84,-221.89 919.84,-221.89 919.84,-221.89 913.84,-221.89 907.84,-215.89 907.84,-209.89 907.84,-209.89 907.84,-197.89 907.84,-197.89 907.84,-191.89 913.84,-185.89 919.84,-185.89"/>
<text text-anchor="middle" x="976.34" y="-200.19" font-family="Arial" font-size="14.00">DITA topic elements</text>
<polyline fill="none" stroke="black" points="1044.84,-185.89 1044.84,-221.89"/>
<text text-anchor="middle" x="1064.34" y="-200.19" font-family="Arial" font-size="14.00">336</text>
</g>
<!-- baseTopicElements -->
<g id="node2" class="node">
<title>baseTopicElements</title>
<path fill="#1afabc" stroke="black" d="M465.72,-329.5C465.72,-329.5 585.72,-329.5 585.72,-329.5 591.72,-329.5 597.72,-335.5 597.72,-341.5 597.72,-341.5 597.72,-353.5 597.72,-353.5 597.72,-359.5 591.72,-365.5 585.72,-365.5 585.72,-365.5 465.72,-365.5 465.72,-365.5 459.72,-365.5 453.72,-359.5 453.72,-353.5 453.72,-353.5 453.72,-341.5 453.72,-341.5 453.72,-335.5 459.72,-329.5 465.72,-329.5"/>
<text text-anchor="middle" x="506.22" y="-343.8" font-family="Arial" font-size="14.00">base elements</text>
<polyline fill="none" stroke="black" points="558.72,-329.5 558.72,-365.5"/>
<text text-anchor="middle" x="578.22" y="-343.8" font-family="Arial" font-size="14.00">104</text>
</g>
<!-- elements&#45;&gt;baseTopicElements -->
<g id="edge1" class="edge">
<title>elements&#45;&gt;baseTopicElements</title>
<path fill="none" stroke="#1f78b4" d="M936.77,-221.94C849.69,-248.54 687.19,-298.17 594.73,-326.42"/>
<polygon fill="#a6cee3" stroke="#1f78b4" points="593.45,-323.15 584.91,-329.42 595.5,-329.84 593.45,-323.15"/>
</g>
<!-- otherElements -->
<g id="node107" class="node">
<title>otherElements</title>
<path fill="#1afabc" stroke="black" d="M1165.7,-80.21C1165.7,-80.21 1323.7,-80.21 1323.7,-80.21 1329.7,-80.21 1335.7,-86.21 1335.7,-92.21 1335.7,-92.21 1335.7,-104.21 1335.7,-104.21 1335.7,-110.21 1329.7,-116.21 1323.7,-116.21 1323.7,-116.21 1165.7,-116.21 1165.7,-116.21 1159.7,-116.21 1153.7,-110.21 1153.7,-104.21 1153.7,-104.21 1153.7,-92.21 1153.7,-92.21 1153.7,-86.21 1159.7,-80.21 1165.7,-80.21"/>
<text text-anchor="middle" x="1225.2" y="-94.51" font-family="Arial" font-size="14.00">specialized elements</text>
<polyline fill="none" stroke="black" points="1296.7,-80.21 1296.7,-116.21"/>
<text text-anchor="middle" x="1316.2" y="-94.51" font-family="Arial" font-size="14.00">232</text>
</g>
<!-- elements&#45;&gt;otherElements -->
<g id="edge106" class="edge">
<title>elements&#45;&gt;otherElements</title>
<path fill="none" stroke="#1f78b4" d="M1038.34,-185.85C1080.98,-167.74 1146.73,-139.81 1192.51,-120.37"/>
<polygon fill="#a6cee3" stroke="#1f78b4" points="1194.13,-123.49 1201.96,-116.36 1191.39,-117.04 1194.13,-123.49"/>
</g>
<!-- author -->
<g id="node3" class="node">
<title>author</title>
<path fill="#bfcfff" stroke="black" d="M717.22,-312.68C717.22,-312.68 748.22,-312.68 748.22,-312.68 754.22,-312.68 760.22,-318.68 760.22,-324.68 760.22,-324.68 760.22,-336.68 760.22,-336.68 760.22,-342.68 754.22,-348.68 748.22,-348.68 748.22,-348.68 717.22,-348.68 717.22,-348.68 711.22,-348.68 705.22,-342.68 705.22,-336.68 705.22,-336.68 705.22,-324.68 705.22,-324.68 705.22,-318.68 711.22,-312.68 717.22,-312.68"/>
<text text-anchor="middle" x="732.72" y="-326.98" font-family="Arial" font-size="14.00">author</text>
</g>
<!-- baseTopicElements&#45;&gt;author -->
<g id="edge2" class="edge">
<title>baseTopicElements&#45;&gt;author</title>
<path fill="none" stroke="#1f78b4" d="M597.82,-341.64C630.48,-338.98 667.73,-335.96 694.81,-333.76"/>
<polygon fill="#a6cee3" stroke="#1f78b4" points="695.33,-337.23 705.02,-332.93 694.76,-330.25 695.33,-337.23"/>
</g>
<!-- source -->
<g id="node4" class="node">
<title>source</title>
<path fill="#bfcfff" stroke="black" d="M221.57,-171C221.57,-171 254.57,-171 254.57,-171 260.57,-171 266.57,-177 266.57,-183 266.57,-183 266.57,-195 266.57,-195 266.57,-201 260.57,-207 254.57,-207 254.57,-207 221.57,-207 221.57,-207 215.57,-207 209.57,-201 209.57,-195 209.57,-195 209.57,-183 209.57,-183 209.57,-177 215.57,-171 221.57,-171"/>
<text text-anchor="middle" x="238.07" y="-185.3" font-family="Arial" font-size="14.00">source</text>
</g>
<!-- baseTopicElements&#45;&gt;source -->
<g id="edge3" class="edge">
<title>baseTopicElements&#45;&gt;source</title>
<path fill="none" stroke="#1f78b4" d="M493,-329.47C439.3,-299.88 332.75,-241.17 275.89,-209.84"/>
<polygon fill="#a6cee3" stroke="#1f78b4" points="277.32,-206.64 266.88,-204.88 273.95,-212.77 277.32,-206.64"/>
</g>
<!-- publisher -->
<g id="node5" class="node">
<title>publisher</title>
<path fill="#bfcfff" stroke="black" d="M142.86,-460.65C142.86,-460.65 189.86,-460.65 189.86,-460.65 195.86,-460.65 201.86,-466.65 201.86,-472.65 201.86,-472.65 201.86,-484.65 201.86,-484.65 201.86,-490.65 195.86,-496.65 189.86,-496.65 189.86,-496.65 142.86,-496.65 142.86,-496.65 136.86,-496.65 130.86,-490.65 130.86,-484.65 130.86,-484.65 130.86,-472.65 130.86,-472.65 130.86,-466.65 136.86,-460.65 142.86,-460.65"/>
<text text-anchor="middle" x="166.36" y="-474.95" font-family="Arial" font-size="14.00">publisher</text>
</g>
<!-- baseTopicElements&#45;&gt;publisher -->
<g id="edge4" class="edge">
<title>baseTopicElements&#45;&gt;publisher</title>
<path fill="none" stroke="#1f78b4" d="M476.13,-365.59C406.02,-391.18 278.98,-437.55 211.43,-462.2"/>
<polygon fill="#a6cee3" stroke="#1f78b4" points="210.1,-458.96 201.91,-465.68 212.5,-465.54 210.1,-458.96"/>
</g>
<!-- copyright -->
<g id="node6" class="node">
<title>copyright</title>
<path fill="#bfcfff" stroke="black" d="M623.3,-99.69C623.3,-99.69 670.3,-99.69 670.3,-99.69 676.3,-99.69 682.3,-105.69 682.3,-111.69 682.3,-111.69 682.3,-123.69 682.3,-123.69 682.3,-129.69 676.3,-135.69 670.3,-135.69 670.3,-135.69 623.3,-135.69 623.3,-135.69 617.3,-135.69 611.3,-129.69 611.3,-123.69 611.3,-123.69 611.3,-111.69 611.3,-111.69 611.3,-105.69 617.3,-99.69 623.3,-99.69"/>
<text text-anchor="middle" x="646.8" y="-113.99" font-family="Arial" font-size="14.00">copyright</text>
</g>
<!-- baseTopicElements&#45;&gt;copyright -->
<g id="edge5" class="edge">
<title>baseTopicElements&#45;&gt;copyright</title>
<path fill="none" stroke="#1f78b4" d="M535.22,-329.46C556.34,-289.37 607.31,-192.64 632.38,-145.06"/>
<polygon fill="#a6cee3" stroke="#1f78b4" points="635.61,-146.44 637.18,-135.96 629.42,-143.18 635.61,-146.44"/>
</g>
<!-- copyryear -->
<g id="node7" class="node">
<title>copyryear</title>
<path fill="#bfcfff" stroke="black" d="M850.8,-266.75C850.8,-266.75 902.8,-266.75 902.8,-266.75 908.8,-266.75 914.8,-272.75 914.8,-278.75 914.8,-278.75 914.8,-290.75 914.8,-290.75 914.8,-296.75 908.8,-302.75 902.8,-302.75 902.8,-302.75 850.8,-302.75 850.8,-302.75 844.8,-302.75 838.8,-296.75 838.8,-290.75 838.8,-290.75 838.8,-278.75 838.8,-278.75 838.8,-272.75 844.8,-266.75 850.8,-266.75"/>
<text text-anchor="middle" x="876.8" y="-281.05" font-family="Arial" font-size="14.00">copyryear</text>
</g>
<!-- baseTopicElements&#45;&gt;copyryear -->
<g id="edge6" class="edge">
<title>baseTopicElements&#45;&gt;copyryear</title>
<path fill="none" stroke="#1f78b4" d="M598.03,-334.57C667.11,-322.23 769.24,-303.97 828.81,-293.33"/>
<polygon fill="#a6cee3" stroke="#1f78b4" points="829.47,-296.77 838.7,-291.56 828.24,-289.87 829.47,-296.77"/>
</g>
<!-- copyrholder -->
<g id="node8" class="node">
<title>copyrholder</title>
<path fill="#bfcfff" stroke="black" d="M28.63,-331.84C28.63,-331.84 91.63,-331.84 91.63,-331.84 97.63,-331.84 103.63,-337.84 103.63,-343.84 103.63,-343.84 103.63,-355.84 103.63,-355.84 103.63,-361.84 97.63,-367.84 91.63,-367.84 91.63,-367.84 28.63,-367.84 28.63,-367.84 22.63,-367.84 16.63,-361.84 16.63,-355.84 16.63,-355.84 16.63,-343.84 16.63,-343.84 16.63,-337.84 22.63,-331.84 28.63,-331.84"/>
<text text-anchor="middle" x="60.13" y="-346.14" font-family="Arial" font-size="14.00">copyrholder</text>
</g>
<!-- baseTopicElements&#45;&gt;copyrholder -->
<g id="edge7" class="edge">
<title>baseTopicElements&#45;&gt;copyrholder</title>
<path fill="none" stroke="#1f78b4" d="M453.48,-347.86C359.57,-348.33 197.7,-349.15 113.89,-349.57"/>
<polygon fill="#a6cee3" stroke="#1f78b4" points="113.81,-346.07 103.82,-349.62 113.84,-353.07 113.81,-346.07"/>
</g>
<!-- critdates -->
<g id="node9" class="node">
<title>critdates</title>
<path fill="#bfcfff" stroke="black" d="M458.16,-683.88C458.16,-683.88 502.16,-683.88 502.16,-683.88 508.16,-683.88 514.16,-689.88 514.16,-695.88 514.16,-695.88 514.16,-707.88 514.16,-707.88 514.16,-713.88 508.16,-719.88 502.16,-719.88 502.16,-719.88 458.16,-719.88 458.16,-719.88 452.16,-719.88 446.16,-713.88 446.16,-707.88 446.16,-707.88 446.16,-695.88 446.16,-695.88 446.16,-689.88 452.16,-683.88 458.16,-683.88"/>
<text text-anchor="middle" x="480.16" y="-698.18" font-family="Arial" font-size="14.00">critdates</text>
</g>
<!-- baseTopicElements&#45;&gt;critdates -->
<g id="edge8" class="edge">
<title>baseTopicElements&#45;&gt;critdates</title>
<path fill="none" stroke="#1f78b4" d="M523.39,-365.56C515.98,-423.26 492.81,-603.48 483.8,-673.58"/>
<polygon fill="#a6cee3" stroke="#1f78b4" points="480.28,-673.49 482.48,-683.85 487.23,-674.38 480.28,-673.49"/>
</g>
<!-- created -->
<g id="node10" class="node">
<title>created</title>
<path fill="#bfcfff" stroke="black" d="M738.44,-539.45C738.44,-539.45 776.44,-539.45 776.44,-539.45 782.44,-539.45 788.44,-545.45 788.44,-551.45 788.44,-551.45 788.44,-563.45 788.44,-563.45 788.44,-569.45 782.44,-575.45 776.44,-575.45 776.44,-575.45 738.44,-575.45 738.44,-575.45 732.44,-575.45 726.44,-569.45 726.44,-563.45 726.44,-563.45 726.44,-551.45 726.44,-551.45 726.44,-545.45 732.44,-539.45 738.44,-539.45"/>
<text text-anchor="middle" x="757.44" y="-553.75" font-family="Arial" font-size="14.00">created</text>
</g>
<!-- baseTopicElements&#45;&gt;created -->
<g id="edge9" class="edge">
<title>baseTopicElements&#45;&gt;created</title>
<path fill="none" stroke="#1f78b4" d="M545.87,-365.76C587.41,-403.39 682.56,-489.61 729.8,-532.4"/>
<polygon fill="#a6cee3" stroke="#1f78b4" points="727.73,-535.25 737.49,-539.38 732.43,-530.07 727.73,-535.25"/>
</g>
<!-- revised -->
<g id="node11" class="node">
<title>revised</title>
<path fill="#bfcfff" stroke="black" d="M878.66,-440.28C878.66,-440.28 914.66,-440.28 914.66,-440.28 920.66,-440.28 926.66,-446.28 926.66,-452.28 926.66,-452.28 926.66,-464.28 926.66,-464.28 926.66,-470.28 920.66,-476.28 914.66,-476.28 914.66,-476.28 878.66,-476.28 878.66,-476.28 872.66,-476.28 866.66,-470.28 866.66,-464.28 866.66,-464.28 866.66,-452.28 866.66,-452.28 866.66,-446.28 872.66,-440.28 878.66,-440.28"/>
<text text-anchor="middle" x="896.66" y="-454.58" font-family="Arial" font-size="14.00">revised</text>
</g>
<!-- baseTopicElements&#45;&gt;revised -->
<g id="edge10" class="edge">
<title>baseTopicElements&#45;&gt;revised</title>
<path fill="none" stroke="#1f78b4" d="M586.14,-365.54C662.33,-388.3 791.23,-426.8 856.38,-446.25"/>
<polygon fill="#a6cee3" stroke="#1f78b4" points="855.69,-449.7 866.28,-449.21 857.7,-442.99 855.69,-449.7"/>
</g>
<!-- permissions -->
<g id="node12" class="node">
<title>permissions</title>
<path fill="#bfcfff" stroke="black" d="M401.08,-593.79C401.08,-593.79 466.08,-593.79 466.08,-593.79 472.08,-593.79 478.08,-599.79 478.08,-605.79 478.08,-605.79 478.08,-617.79 478.08,-617.79 478.08,-623.79 472.08,-629.79 466.08,-629.79 466.08,-629.79 401.08,-629.79 401.08,-629.79 395.08,-629.79 389.08,-623.79 389.08,-617.79 389.08,-617.79 389.08,-605.79 389.08,-605.79 389.08,-599.79 395.08,-593.79 401.08,-593.79"/>
<text text-anchor="middle" x="433.58" y="-608.09" font-family="Arial" font-size="14.00">permissions</text>
</g>
<!-- baseTopicElements&#45;&gt;permissions -->
<g id="edge11" class="edge">
<title>baseTopicElements&#45;&gt;permissions</title>
<path fill="none" stroke="#1f78b4" d="M519.38,-365.66C503.57,-411.02 462.27,-529.5 443.33,-583.83"/>
<polygon fill="#a6cee3" stroke="#1f78b4" points="439.94,-582.91 439.96,-593.5 446.55,-585.21 439.94,-582.91"/>
</g>
<!-- category -->
<g id="node13" class="node">
<title>category</title>
<path fill="#bfcfff" stroke="black" d="M782.02,-401.8C782.02,-401.8 826.02,-401.8 826.02,-401.8 832.02,-401.8 838.02,-407.8 838.02,-413.8 838.02,-413.8 838.02,-425.8 838.02,-425.8 838.02,-431.8 832.02,-437.8 826.02,-437.8 826.02,-437.8 782.02,-437.8 782.02,-437.8 776.02,-437.8 770.02,-431.8 770.02,-425.8 770.02,-425.8 770.02,-413.8 770.02,-413.8 770.02,-407.8 776.02,-401.8 782.02,-401.8"/>
<text text-anchor="middle" x="804.02" y="-416.1" font-family="Arial" font-size="14.00">category</text>
</g>
<!-- baseTopicElements&#45;&gt;category -->
<g id="edge12" class="edge">
<title>baseTopicElements&#45;&gt;category</title>
<path fill="none" stroke="#1f78b4" d="M595.23,-365.55C646.91,-378.98 715.85,-396.89 760.1,-408.39"/>
<polygon fill="#a6cee3" stroke="#1f78b4" points="759.41,-411.83 769.97,-410.95 761.17,-405.05 759.41,-411.83"/>
</g>
<!-- metadata -->
<g id="node14" class="node">
<title>metadata</title>
<path fill="#bfcfff" stroke="black" d="M230.85,-351.09C230.85,-351.09 280.85,-351.09 280.85,-351.09 286.85,-351.09 292.85,-357.09 292.85,-363.09 292.85,-363.09 292.85,-375.09 292.85,-375.09 292.85,-381.09 286.85,-387.09 280.85,-387.09 280.85,-387.09 230.85,-387.09 230.85,-387.09 224.85,-387.09 218.85,-381.09 218.85,-375.09 218.85,-375.09 218.85,-363.09 218.85,-363.09 218.85,-357.09 224.85,-351.09 230.85,-351.09"/>
<text text-anchor="middle" x="255.85" y="-365.39" font-family="Arial" font-size="14.00">metadata</text>
</g>
<!-- baseTopicElements&#45;&gt;metadata -->
<g id="edge13" class="edge">
<title>baseTopicElements&#45;&gt;metadata</title>
<path fill="none" stroke="#1f78b4" d="M453.4,-353.28C405.76,-357.09 344.73,-361.98 303.2,-365.3"/>
<polygon fill="#a6cee3" stroke="#1f78b4" points="302.77,-361.82 293.08,-366.11 303.33,-368.8 302.77,-361.82"/>
</g>
<!-- audience -->
<g id="node15" class="node">
<title>audience</title>
<path fill="#bfcfff" stroke="black" d="M858.48,-393.91C858.48,-393.91 905.48,-393.91 905.48,-393.91 911.48,-393.91 917.48,-399.91 917.48,-405.91 917.48,-405.91 917.48,-417.91 917.48,-417.91 917.48,-423.91 911.48,-429.91 905.48,-429.91 905.48,-429.91 858.48,-429.91 858.48,-429.91 852.48,-429.91 846.48,-423.91 846.48,-417.91 846.48,-417.91 846.48,-405.91 846.48,-405.91 846.48,-399.91 852.48,-393.91 858.48,-393.91"/>
<text text-anchor="middle" x="881.98" y="-408.21" font-family="Arial" font-size="14.00">audience</text>
</g>
<!-- baseTopicElements&#45;&gt;audience -->
<g id="edge14" class="edge">
<title>baseTopicElements&#45;&gt;audience</title>
<path fill="none" stroke="#1f78b4" d="M597.81,-360.53C669.12,-373.43 776.07,-392.76 836.37,-403.67"/>
<polygon fill="#a6cee3" stroke="#1f78b4" points="835.89,-407.14 846.35,-405.47 837.14,-400.25 835.89,-407.14"/>
</g>
<!-- keywords -->
<g id="node16" class="node">
<title>keywords</title>
<path fill="#bfcfff" stroke="black" d="M847.28,-135.38C847.28,-135.38 897.28,-135.38 897.28,-135.38 903.28,-135.38 909.28,-141.38 909.28,-147.38 909.28,-147.38 909.28,-159.38 909.28,-159.38 909.28,-165.38 903.28,-171.38 897.28,-171.38 897.28,-171.38 847.28,-171.38 847.28,-171.38 841.28,-171.38 835.28,-165.38 835.28,-159.38 835.28,-159.38 835.28,-147.38 835.28,-147.38 835.28,-141.38 841.28,-135.38 847.28,-135.38"/>
<text text-anchor="middle" x="872.28" y="-149.68" font-family="Arial" font-size="14.00">keywords</text>
</g>
<!-- baseTopicElements&#45;&gt;keywords -->
<g id="edge15" class="edge">
<title>baseTopicElements&#45;&gt;keywords</title>
<path fill="none" stroke="#1f78b4" d="M558.01,-329.41C621.21,-294.01 761.15,-215.63 830.98,-176.52"/>
<polygon fill="#a6cee3" stroke="#1f78b4" points="832.93,-179.44 839.95,-171.5 829.51,-173.33 832.93,-179.44"/>
</g>
<!-- prodinfo -->
<g id="node17" class="node">
<title>prodinfo</title>
<path fill="#bfcfff" stroke="black" d="M383.57,-548.75C383.57,-548.75 424.57,-548.75 424.57,-548.75 430.57,-548.75 436.57,-554.75 436.57,-560.75 436.57,-560.75 436.57,-572.75 436.57,-572.75 436.57,-578.75 430.57,-584.75 424.57,-584.75 424.57,-584.75 383.57,-584.75 383.57,-584.75 377.57,-584.75 371.57,-578.75 371.57,-572.75 371.57,-572.75 371.57,-560.75 371.57,-560.75 371.57,-554.75 377.57,-548.75 383.57,-548.75"/>
<text text-anchor="middle" x="404.07" y="-563.05" font-family="Arial" font-size="14.00">prodinfo</text>
</g>
<!-- baseTopicElements&#45;&gt;prodinfo -->
<g id="edge16" class="edge">
<title>baseTopicElements&#45;&gt;prodinfo</title>
<path fill="none" stroke="#1f78b4" d="M515.55,-365.81C494.12,-404.44 444.21,-494.41 419.09,-539.69"/>
<polygon fill="#a6cee3" stroke="#1f78b4" points="415.91,-538.2 414.12,-548.64 422.03,-541.6 415.91,-538.2"/>
</g>
<!-- prodname -->
<g id="node18" class="node">
<title>prodname</title>
<path fill="#bfcfff" stroke="black" d="M855.89,-316.34C855.89,-316.34 909.89,-316.34 909.89,-316.34 915.89,-316.34 921.89,-322.34 921.89,-328.34 921.89,-328.34 921.89,-340.34 921.89,-340.34 921.89,-346.34 915.89,-352.34 909.89,-352.34 909.89,-352.34 855.89,-352.34 855.89,-352.34 849.89,-352.34 843.89,-346.34 843.89,-340.34 843.89,-340.34 843.89,-328.34 843.89,-328.34 843.89,-322.34 849.89,-316.34 855.89,-316.34"/>
<text text-anchor="middle" x="882.89" y="-330.64" font-family="Arial" font-size="14.00">prodname</text>
</g>
<!-- baseTopicElements&#45;&gt;prodname -->
<g id="edge17" class="edge">
<title>baseTopicElements&#45;&gt;prodname</title>
<path fill="none" stroke="#1f78b4" d="M598,-344.83C668.14,-342.25 772.68,-338.4 833.7,-336.16"/>
<polygon fill="#a6cee3" stroke="#1f78b4" points="833.98,-339.65 843.84,-335.78 833.72,-332.65 833.98,-339.65"/>
</g>
<!-- vrmlist -->
<g id="node19" class="node">
<title>vrmlist</title>
<path fill="#bfcfff" stroke="black" d="M272.71,-551.57C272.71,-551.57 304.71,-551.57 304.71,-551.57 310.71,-551.57 316.71,-557.57 316.71,-563.57 316.71,-563.57 316.71,-575.57 316.71,-575.57 316.71,-581.57 310.71,-587.57 304.71,-587.57 304.71,-587.57 272.71,-587.57 272.71,-587.57 266.71,-587.57 260.71,-581.57 260.71,-575.57 260.71,-575.57 260.71,-563.57 260.71,-563.57 260.71,-557.57 266.71,-551.57 272.71,-551.57"/>
<text text-anchor="middle" x="288.71" y="-565.87" font-family="Arial" font-size="14.00">vrmlist</text>
</g>
<!-- baseTopicElements&#45;&gt;vrmlist -->
<g id="edge18" class="edge">
<title>baseTopicElements&#45;&gt;vrmlist</title>
<path fill="none" stroke="#1f78b4" d="M506.32,-365.67C464.12,-405.22 363.88,-499.14 315.6,-544.38"/>
<polygon fill="#a6cee3" stroke="#1f78b4" points="312.95,-542.07 308.04,-551.46 317.73,-547.18 312.95,-542.07"/>
</g>
<!-- vrm -->
<g id="node20" class="node">
<title>vrm</title>
<path fill="#bfcfff" stroke="black" d="M304.76,-102.12C304.76,-102.12 334.76,-102.12 334.76,-102.12 340.76,-102.12 346.76,-108.12 346.76,-114.12 346.76,-114.12 346.76,-126.12 346.76,-126.12 346.76,-132.12 340.76,-138.12 334.76,-138.12 334.76,-138.12 304.76,-138.12 304.76,-138.12 298.76,-138.12 292.76,-132.12 292.76,-126.12 292.76,-126.12 292.76,-114.12 292.76,-114.12 292.76,-108.12 298.76,-102.12 304.76,-102.12"/>
<text text-anchor="middle" x="319.76" y="-116.42" font-family="Arial" font-size="14.00">vrm</text>
</g>
<!-- baseTopicElements&#45;&gt;vrm -->
<g id="edge19" class="edge">
<title>baseTopicElements&#45;&gt;vrm</title>
<path fill="none" stroke="#1f78b4" d="M509.21,-329.27C472.76,-289.03 385.28,-192.45 343.18,-145.97"/>
<polygon fill="#a6cee3" stroke="#1f78b4" points="345.65,-143.49 336.35,-138.43 340.46,-148.19 345.65,-143.49"/>
</g>
<!-- brand -->
<g id="node21" class="node">
<title>brand</title>
<path fill="#bfcfff" stroke="black" d="M338.55,-595.24C338.55,-595.24 368.55,-595.24 368.55,-595.24 374.55,-595.24 380.55,-601.24 380.55,-607.24 380.55,-607.24 380.55,-619.24 380.55,-619.24 380.55,-625.24 374.55,-631.24 368.55,-631.24 368.55,-631.24 338.55,-631.24 338.55,-631.24 332.55,-631.24 326.55,-625.24 326.55,-619.24 326.55,-619.24 326.55,-607.24 326.55,-607.24 326.55,-601.24 332.55,-595.24 338.55,-595.24"/>
<text text-anchor="middle" x="353.55" y="-609.54" font-family="Arial" font-size="14.00">brand</text>
</g>
<!-- baseTopicElements&#45;&gt;brand -->
<g id="edge20" class="edge">
<title>baseTopicElements&#45;&gt;brand</title>
<path fill="none" stroke="#1f78b4" d="M513.88,-365.76C484.08,-411.77 405.82,-532.57 370.85,-586.53"/>
<polygon fill="#a6cee3" stroke="#1f78b4" points="367.74,-584.9 365.24,-595.2 373.61,-588.71 367.74,-584.9"/>
</g>
<!-- series -->
<g id="node22" class="node">
<title>series</title>
<path fill="#bfcfff" stroke="black" d="M569.37,-1.1C569.37,-1.1 599.37,-1.1 599.37,-1.1 605.37,-1.1 611.37,-7.1 611.37,-13.1 611.37,-13.1 611.37,-25.1 611.37,-25.1 611.37,-31.1 605.37,-37.1 599.37,-37.1 599.37,-37.1 569.37,-37.1 569.37,-37.1 563.37,-37.1 557.37,-31.1 557.37,-25.1 557.37,-25.1 557.37,-13.1 557.37,-13.1 557.37,-7.1 563.37,-1.1 569.37,-1.1"/>
<text text-anchor="middle" x="584.37" y="-15.4" font-family="Arial" font-size="14.00">series</text>
</g>
<!-- baseTopicElements&#45;&gt;series -->
<g id="edge21" class="edge">
<title>baseTopicElements&#45;&gt;series</title>
<path fill="none" stroke="#1f78b4" d="M528.95,-329.37C538.67,-274.98 567.62,-112.88 579.35,-47.2"/>
<polygon fill="#a6cee3" stroke="#1f78b4" points="582.83,-47.62 581.14,-37.16 575.94,-46.39 582.83,-47.62"/>
</g>
<!-- platform -->
<g id="node23" class="node">
<title>platform</title>
<path fill="#bfcfff" stroke="black" d="M705.52,-37.35C705.52,-37.35 747.52,-37.35 747.52,-37.35 753.52,-37.35 759.52,-43.35 759.52,-49.35 759.52,-49.35 759.52,-61.35 759.52,-61.35 759.52,-67.35 753.52,-73.35 747.52,-73.35 747.52,-73.35 705.52,-73.35 705.52,-73.35 699.52,-73.35 693.52,-67.35 693.52,-61.35 693.52,-61.35 693.52,-49.35 693.52,-49.35 693.52,-43.35 699.52,-37.35 705.52,-37.35"/>
<text text-anchor="middle" x="726.52" y="-51.65" font-family="Arial" font-size="14.00">platform</text>
</g>
<!-- baseTopicElements&#45;&gt;platform -->
<g id="edge22" class="edge">
<title>baseTopicElements&#45;&gt;platform</title>
<path fill="none" stroke="#1f78b4" d="M538.28,-329.22C572.58,-279.32 667.96,-140.55 708.22,-81.98"/>
<polygon fill="#a6cee3" stroke="#1f78b4" points="711.19,-83.84 713.97,-73.61 705.42,-79.87 711.19,-83.84"/>
</g>
<!-- prognum -->
<g id="node24" class="node">
<title>prognum</title>
<path fill="#bfcfff" stroke="black" d="M236.35,-306.06C236.35,-306.06 283.35,-306.06 283.35,-306.06 289.35,-306.06 295.35,-312.06 295.35,-318.06 295.35,-318.06 295.35,-330.06 295.35,-330.06 295.35,-336.06 289.35,-342.06 283.35,-342.06 283.35,-342.06 236.35,-342.06 236.35,-342.06 230.35,-342.06 224.35,-336.06 224.35,-330.06 224.35,-330.06 224.35,-318.06 224.35,-318.06 224.35,-312.06 230.35,-306.06 236.35,-306.06"/>
<text text-anchor="middle" x="259.85" y="-320.36" font-family="Arial" font-size="14.00">prognum</text>
</g>
<!-- baseTopicElements&#45;&gt;prognum -->
<g id="edge23" class="edge">
<title>baseTopicElements&#45;&gt;prognum</title>
<path fill="none" stroke="#1f78b4" d="M453.42,-341.12C406.32,-336.97 346.29,-331.68 305.66,-328.09"/>
<polygon fill="#a6cee3" stroke="#1f78b4" points="305.78,-324.59 295.51,-327.2 305.17,-331.56 305.78,-324.59"/>
</g>
<!-- featnum -->
<g id="node25" class="node">
<title>featnum</title>
<path fill="#bfcfff" stroke="black" d="M834.73,-221.69C834.73,-221.69 876.73,-221.69 876.73,-221.69 882.73,-221.69 888.73,-227.69 888.73,-233.69 888.73,-233.69 888.73,-245.69 888.73,-245.69 888.73,-251.69 882.73,-257.69 876.73,-257.69 876.73,-257.69 834.73,-257.69 834.73,-257.69 828.73,-257.69 822.73,-251.69 822.73,-245.69 822.73,-245.69 822.73,-233.69 822.73,-233.69 822.73,-227.69 828.73,-221.69 834.73,-221.69"/>
<text text-anchor="middle" x="855.73" y="-235.99" font-family="Arial" font-size="14.00">featnum</text>
</g>
<!-- baseTopicElements&#45;&gt;featnum -->
<g id="edge24" class="edge">
<title>baseTopicElements&#45;&gt;featnum</title>
<path fill="none" stroke="#1f78b4" d="M580.95,-329.45C646.17,-308.15 753.27,-273.16 812.66,-253.76"/>
<polygon fill="#a6cee3" stroke="#1f78b4" points="814.06,-256.98 822.48,-250.55 811.88,-250.33 814.06,-256.98"/>
</g>
<!-- component -->
<g id="node26" class="node">
<title>component</title>
<path fill="#bfcfff" stroke="black" d="M941.99,-356.47C941.99,-356.47 1001.99,-356.47 1001.99,-356.47 1007.99,-356.47 1013.99,-362.47 1013.99,-368.47 1013.99,-368.47 1013.99,-380.47 1013.99,-380.47 1013.99,-386.47 1007.99,-392.47 1001.99,-392.47 1001.99,-392.47 941.99,-392.47 941.99,-392.47 935.99,-392.47 929.99,-386.47 929.99,-380.47 929.99,-380.47 929.99,-368.47 929.99,-368.47 929.99,-362.47 935.99,-356.47 941.99,-356.47"/>
<text text-anchor="middle" x="971.99" y="-370.77" font-family="Arial" font-size="14.00">component</text>
</g>
<!-- baseTopicElements&#45;&gt;component -->
<g id="edge25" class="edge">
<title>baseTopicElements&#45;&gt;component</title>
<path fill="none" stroke="#1f78b4" d="M597.91,-351.86C687.98,-357.3 839.82,-366.48 919.53,-371.3"/>
<polygon fill="#a6cee3" stroke="#1f78b4" points="919.62,-374.81 929.81,-371.92 920.04,-367.82 919.62,-374.81"/>
</g>
<!-- othermeta -->
<g id="node27" class="node">
<title>othermeta</title>
<path fill="#bfcfff" stroke="black" d="M138.09,-415.12C138.09,-415.12 192.09,-415.12 192.09,-415.12 198.09,-415.12 204.09,-421.12 204.09,-427.12 204.09,-427.12 204.09,-439.12 204.09,-439.12 204.09,-445.12 198.09,-451.12 192.09,-451.12 192.09,-451.12 138.09,-451.12 138.09,-451.12 132.09,-451.12 126.09,-445.12 126.09,-439.12 126.09,-439.12 126.09,-427.12 126.09,-427.12 126.09,-421.12 132.09,-415.12 138.09,-415.12"/>
<text text-anchor="middle" x="165.09" y="-429.42" font-family="Arial" font-size="14.00">othermeta</text>
</g>
<!-- baseTopicElements&#45;&gt;othermeta -->
<g id="edge26" class="edge">
<title>baseTopicElements&#45;&gt;othermeta</title>
<path fill="none" stroke="#1f78b4" d="M453.6,-364.62C382.54,-381.49 275.88,-406.82 214.11,-421.48"/>
<polygon fill="#a6cee3" stroke="#1f78b4" points="213.15,-418.11 204.23,-423.83 214.76,-424.92 213.15,-418.11"/>
</g>
<!-- resourceid -->
<g id="node28" class="node">
<title>resourceid</title>
<path fill="#bfcfff" stroke="black" d="M677.27,-494.41C677.27,-494.41 733.27,-494.41 733.27,-494.41 739.27,-494.41 745.27,-500.41 745.27,-506.41 745.27,-506.41 745.27,-518.41 745.27,-518.41 745.27,-524.41 739.27,-530.41 733.27,-530.41 733.27,-530.41 677.27,-530.41 677.27,-530.41 671.27,-530.41 665.27,-524.41 665.27,-518.41 665.27,-518.41 665.27,-506.41 665.27,-506.41 665.27,-500.41 671.27,-494.41 677.27,-494.41"/>
<text text-anchor="middle" x="705.27" y="-508.71" font-family="Arial" font-size="14.00">resourceid</text>
</g>
<!-- baseTopicElements&#45;&gt;resourceid -->
<g id="edge27" class="edge">
<title>baseTopicElements&#45;&gt;resourceid</title>
<path fill="none" stroke="#1f78b4" d="M545.62,-365.78C577.79,-395.33 641.3,-453.65 677.77,-487.15"/>
<polygon fill="#a6cee3" stroke="#1f78b4" points="675.82,-490.12 685.56,-494.3 680.56,-484.96 675.82,-490.12"/>
</g>
<!-- table -->
<g id="node29" class="node">
<title>table</title>
<path fill="#bfcfff" stroke="black" d="M176.36,-125.99C176.36,-125.99 206.36,-125.99 206.36,-125.99 212.36,-125.99 218.36,-131.99 218.36,-137.99 218.36,-137.99 218.36,-149.99 218.36,-149.99 218.36,-155.99 212.36,-161.99 206.36,-161.99 206.36,-161.99 176.36,-161.99 176.36,-161.99 170.36,-161.99 164.36,-155.99 164.36,-149.99 164.36,-149.99 164.36,-137.99 164.36,-137.99 164.36,-131.99 170.36,-125.99 176.36,-125.99"/>
<text text-anchor="middle" x="191.36" y="-140.29" font-family="Arial" font-size="14.00">table</text>
</g>
<!-- baseTopicElements&#45;&gt;table -->
<g id="edge28" class="edge">
<title>baseTopicElements&#45;&gt;table</title>
<path fill="none" stroke="#1f78b4" d="M496.04,-329.44C434.68,-292.09 294.02,-206.47 227.49,-165.98"/>
<polygon fill="#a6cee3" stroke="#1f78b4" points="228.98,-162.78 218.61,-160.57 225.34,-168.76 228.98,-162.78"/>
</g>
<!-- tgroup -->
<g id="node30" class="node">
<title>tgroup</title>
<path fill="#bfcfff" stroke="black" d="M712.53,-176.73C712.53,-176.73 743.53,-176.73 743.53,-176.73 749.53,-176.73 755.53,-182.73 755.53,-188.73 755.53,-188.73 755.53,-200.73 755.53,-200.73 755.53,-206.73 749.53,-212.73 743.53,-212.73 743.53,-212.73 712.53,-212.73 712.53,-212.73 706.53,-212.73 700.53,-206.73 700.53,-200.73 700.53,-200.73 700.53,-188.73 700.53,-188.73 700.53,-182.73 706.53,-176.73 712.53,-176.73"/>
<text text-anchor="middle" x="728.03" y="-191.03" font-family="Arial" font-size="14.00">tgroup</text>
</g>
<!-- baseTopicElements&#45;&gt;tgroup -->
<g id="edge29" class="edge">
<title>baseTopicElements&#45;&gt;tgroup</title>
<path fill="none" stroke="#1f78b4" d="M549.72,-329.37C586.07,-301.92 655.15,-249.76 695.83,-219.04"/>
<polygon fill="#a6cee3" stroke="#1f78b4" points="698.19,-221.65 704.06,-212.83 693.97,-216.06 698.19,-221.65"/>
</g>
<!-- colspec -->
<g id="node31" class="node">
<title>colspec</title>
<path fill="#bfcfff" stroke="black" d="M808.61,-538.57C808.61,-538.57 846.61,-538.57 846.61,-538.57 852.61,-538.57 858.61,-544.57 858.61,-550.57 858.61,-550.57 858.61,-562.57 858.61,-562.57 858.61,-568.57 852.61,-574.57 846.61,-574.57 846.61,-574.57 808.61,-574.57 808.61,-574.57 802.61,-574.57 796.61,-568.57 796.61,-562.57 796.61,-562.57 796.61,-550.57 796.61,-550.57 796.61,-544.57 802.61,-538.57 808.61,-538.57"/>
<text text-anchor="middle" x="827.61" y="-552.87" font-family="Arial" font-size="14.00">colspec</text>
</g>
<!-- baseTopicElements&#45;&gt;colspec -->
<g id="edge30" class="edge">
<title>baseTopicElements&#45;&gt;colspec</title>
<path fill="none" stroke="#1f78b4" d="M551.72,-365.5C606.11,-403.17 731.91,-490.29 793.03,-532.62"/>
<polygon fill="#a6cee3" stroke="#1f78b4" points="791.35,-535.72 801.57,-538.53 795.34,-529.96 791.35,-535.72"/>
</g>
<!-- thead -->
<g id="node32" class="node">
<title>thead</title>
<path fill="#bfcfff" stroke="black" d="M310.4,-56.9C310.4,-56.9 340.4,-56.9 340.4,-56.9 346.4,-56.9 352.4,-62.9 352.4,-68.9 352.4,-68.9 352.4,-80.9 352.4,-80.9 352.4,-86.9 346.4,-92.9 340.4,-92.9 340.4,-92.9 310.4,-92.9 310.4,-92.9 304.4,-92.9 298.4,-86.9 298.4,-80.9 298.4,-80.9 298.4,-68.9 298.4,-68.9 298.4,-62.9 304.4,-56.9 310.4,-56.9"/>
<text text-anchor="middle" x="325.4" y="-71.2" font-family="Arial" font-size="14.00">thead</text>
</g>
<!-- baseTopicElements&#45;&gt;thead -->
<g id="edge31" class="edge">
<title>baseTopicElements&#45;&gt;thead</title>
<path fill="none" stroke="#1f78b4" d="M512.26,-329.19C477.62,-282.05 385.27,-156.37 344.83,-101.34"/>
<polygon fill="#a6cee3" stroke="#1f78b4" points="347.54,-99.12 338.8,-93.13 341.9,-103.26 347.54,-99.12"/>
</g>
<!-- tbody -->
<g id="node33" class="node">
<title>tbody</title>
<path fill="#bfcfff" stroke="black" d="M599.76,-627.51C599.76,-627.51 629.76,-627.51 629.76,-627.51 635.76,-627.51 641.76,-633.51 641.76,-639.51 641.76,-639.51 641.76,-651.51 641.76,-651.51 641.76,-657.51 635.76,-663.51 629.76,-663.51 629.76,-663.51 599.76,-663.51 599.76,-663.51 593.76,-663.51 587.76,-657.51 587.76,-651.51 587.76,-651.51 587.76,-639.51 587.76,-639.51 587.76,-633.51 593.76,-627.51 599.76,-627.51"/>
<text text-anchor="middle" x="614.76" y="-641.81" font-family="Arial" font-size="14.00">tbody</text>
</g>
<!-- baseTopicElements&#45;&gt;tbody -->
<g id="edge32" class="edge">
<title>baseTopicElements&#45;&gt;tbody</title>
<path fill="none" stroke="#1f78b4" d="M531.15,-365.69C546.18,-415.98 588.36,-557.16 606.4,-617.54"/>
<polygon fill="#a6cee3" stroke="#1f78b4" points="603.06,-618.6 609.28,-627.18 609.77,-616.59 603.06,-618.6"/>
</g>
<!-- row -->
<g id="node34" class="node">
<title>row</title>
<path fill="#bfcfff" stroke="black" d="M216.75,-216.03C216.75,-216.03 246.75,-216.03 246.75,-216.03 252.75,-216.03 258.75,-222.03 258.75,-228.03 258.75,-228.03 258.75,-240.03 258.75,-240.03 258.75,-246.03 252.75,-252.03 246.75,-252.03 246.75,-252.03 216.75,-252.03 216.75,-252.03 210.75,-252.03 204.75,-246.03 204.75,-240.03 204.75,-240.03 204.75,-228.03 204.75,-228.03 204.75,-222.03 210.75,-216.03 216.75,-216.03"/>
<text text-anchor="middle" x="231.75" y="-230.33" font-family="Arial" font-size="14.00">row</text>
</g>
<!-- baseTopicElements&#45;&gt;row -->
<g id="edge33" class="edge">
<title>baseTopicElements&#45;&gt;row</title>
<path fill="none" stroke="#1f78b4" d="M478.81,-329.39C420.37,-306.83 321.71,-268.76 268.47,-248.21"/>
<polygon fill="#a6cee3" stroke="#1f78b4" points="269.67,-244.92 259.08,-244.58 267.14,-251.45 269.67,-244.92"/>
</g>
<!-- entry -->
<g id="node35" class="node">
<title>entry</title>
<path fill="#bfcfff" stroke="black" d="M289.75,-261.04C289.75,-261.04 319.75,-261.04 319.75,-261.04 325.75,-261.04 331.75,-267.04 331.75,-273.04 331.75,-273.04 331.75,-285.04 331.75,-285.04 331.75,-291.04 325.75,-297.04 319.75,-297.04 319.75,-297.04 289.75,-297.04 289.75,-297.04 283.75,-297.04 277.75,-291.04 277.75,-285.04 277.75,-285.04 277.75,-273.04 277.75,-273.04 277.75,-267.04 283.75,-261.04 289.75,-261.04"/>
<text text-anchor="middle" x="304.75" y="-275.34" font-family="Arial" font-size="14.00">entry</text>
</g>
<!-- baseTopicElements&#45;&gt;entry -->
<g id="edge34" class="edge">
<title>baseTopicElements&#45;&gt;entry</title>
<path fill="none" stroke="#1f78b4" d="M467.37,-329.42C427.45,-317.05 375.75,-301.03 341.48,-290.42"/>
<polygon fill="#a6cee3" stroke="#1f78b4" points="342.46,-287.05 331.87,-287.44 340.38,-293.74 342.46,-287.05"/>
</g>
<!-- data -->
<g id="node36" class="node">
<title>data</title>
<path fill="#bfcfff" stroke="black" d="M722.69,-131.72C722.69,-131.72 752.69,-131.72 752.69,-131.72 758.69,-131.72 764.69,-137.72 764.69,-143.72 764.69,-143.72 764.69,-155.72 764.69,-155.72 764.69,-161.72 758.69,-167.72 752.69,-167.72 752.69,-167.72 722.69,-167.72 722.69,-167.72 716.69,-167.72 710.69,-161.72 710.69,-155.72 710.69,-155.72 710.69,-143.72 710.69,-143.72 710.69,-137.72 716.69,-131.72 722.69,-131.72"/>
<text text-anchor="middle" x="737.69" y="-146.02" font-family="Arial" font-size="14.00">data</text>
</g>
<!-- baseTopicElements&#45;&gt;data -->
<g id="edge35" class="edge">
<title>baseTopicElements&#45;&gt;data</title>
<path fill="none" stroke="#1f78b4" d="M545.28,-329.24C583.37,-293.7 667.56,-215.15 710.84,-174.77"/>
<polygon fill="#a6cee3" stroke="#1f78b4" points="713.25,-177.31 718.17,-167.93 708.47,-172.19 713.25,-177.31"/>
</g>
<!-- unknown -->
<g id="node37" class="node">
<title>unknown</title>
<path fill="#bfcfff" stroke="black" d="M233.32,-396.13C233.32,-396.13 280.32,-396.13 280.32,-396.13 286.32,-396.13 292.32,-402.13 292.32,-408.13 292.32,-408.13 292.32,-420.13 292.32,-420.13 292.32,-426.13 286.32,-432.13 280.32,-432.13 280.32,-432.13 233.32,-432.13 233.32,-432.13 227.32,-432.13 221.32,-426.13 221.32,-420.13 221.32,-420.13 221.32,-408.13 221.32,-408.13 221.32,-402.13 227.32,-396.13 233.32,-396.13"/>
<text text-anchor="middle" x="256.82" y="-410.43" font-family="Arial" font-size="14.00">unknown</text>
</g>
<!-- baseTopicElements&#45;&gt;unknown -->
<g id="edge36" class="edge">
<title>baseTopicElements&#45;&gt;unknown</title>
<path fill="none" stroke="#1f78b4" d="M453.66,-365.35C405.51,-377.28 343.65,-392.61 302.25,-402.87"/>
<polygon fill="#a6cee3" stroke="#1f78b4" points="301.31,-399.5 292.44,-405.3 302.99,-406.3 301.31,-399.5"/>
</g>
<!-- foreign -->
<g id="node38" class="node">
<title>foreign</title>
<path fill="#bfcfff" stroke="black" d="M334.28,-640.28C334.28,-640.28 368.28,-640.28 368.28,-640.28 374.28,-640.28 380.28,-646.28 380.28,-652.28 380.28,-652.28 380.28,-664.28 380.28,-664.28 380.28,-670.28 374.28,-676.28 368.28,-676.28 368.28,-676.28 334.28,-676.28 334.28,-676.28 328.28,-676.28 322.28,-670.28 322.28,-664.28 322.28,-664.28 322.28,-652.28 322.28,-652.28 322.28,-646.28 328.28,-640.28 334.28,-640.28"/>
<text text-anchor="middle" x="351.28" y="-654.58" font-family="Arial" font-size="14.00">foreign</text>
</g>
<!-- baseTopicElements&#45;&gt;foreign -->
<g id="edge37" class="edge">
<title>baseTopicElements&#45;&gt;foreign</title>
<path fill="none" stroke="#1f78b4" d="M515.58,-365.55C486.26,-417.8 401.19,-569.36 366.39,-631.36"/>
<polygon fill="#a6cee3" stroke="#1f78b4" points="363.29,-629.74 361.44,-640.18 369.39,-633.17 363.29,-629.74"/>
</g>
<!-- title -->
<g id="node39" class="node">
<title>title</title>
<path fill="#bfcfff" stroke="black" d="M393.62,-685.91C393.62,-685.91 423.62,-685.91 423.62,-685.91 429.62,-685.91 435.62,-691.91 435.62,-697.91 435.62,-697.91 435.62,-709.91 435.62,-709.91 435.62,-715.91 429.62,-721.91 423.62,-721.91 423.62,-721.91 393.62,-721.91 393.62,-721.91 387.62,-721.91 381.62,-715.91 381.62,-709.91 381.62,-709.91 381.62,-697.91 381.62,-697.91 381.62,-691.91 387.62,-685.91 393.62,-685.91"/>
<text text-anchor="middle" x="408.62" y="-700.21" font-family="Arial" font-size="14.00">title</text>
</g>
<!-- baseTopicElements&#45;&gt;title -->
<g id="edge38" class="edge">
<title>baseTopicElements&#45;&gt;title</title>
<path fill="none" stroke="#1f78b4" d="M519.75,-365.66C500.64,-423.82 440.89,-605.7 417.83,-675.89"/>
<polygon fill="#a6cee3" stroke="#1f78b4" points="414.37,-675.19 414.58,-685.79 421.02,-677.38 414.37,-675.19"/>
</g>
<!-- titlealt -->
<g id="node40" class="node">
<title>titlealt</title>
<path fill="#bfcfff" stroke="black" d="M640.13,-54.23C640.13,-54.23 670.13,-54.23 670.13,-54.23 676.13,-54.23 682.13,-60.23 682.13,-66.23 682.13,-66.23 682.13,-78.23 682.13,-78.23 682.13,-84.23 676.13,-90.23 670.13,-90.23 670.13,-90.23 640.13,-90.23 640.13,-90.23 634.13,-90.23 628.13,-84.23 628.13,-78.23 628.13,-78.23 628.13,-66.23 628.13,-66.23 628.13,-60.23 634.13,-54.23 640.13,-54.23"/>
<text text-anchor="middle" x="655.13" y="-68.53" font-family="Arial" font-size="14.00">titlealt</text>
</g>
<!-- baseTopicElements&#45;&gt;titlealt -->
<g id="edge39" class="edge">
<title>baseTopicElements&#45;&gt;titlealt</title>
<path fill="none" stroke="#1f78b4" d="M534.21,-329.44C556.33,-282.38 615.84,-155.8 642.23,-99.67"/>
<polygon fill="#a6cee3" stroke="#1f78b4" points="645.52,-100.9 646.61,-90.36 639.19,-97.92 645.52,-100.9"/>
</g>
<!-- desc -->
<g id="node41" class="node">
<title>desc</title>
<path fill="#bfcfff" stroke="black" d="M210.44,-551.89C210.44,-551.89 240.44,-551.89 240.44,-551.89 246.44,-551.89 252.44,-557.89 252.44,-563.89 252.44,-563.89 252.44,-575.89 252.44,-575.89 252.44,-581.89 246.44,-587.89 240.44,-587.89 240.44,-587.89 210.44,-587.89 210.44,-587.89 204.44,-587.89 198.44,-581.89 198.44,-575.89 198.44,-575.89 198.44,-563.89 198.44,-563.89 198.44,-557.89 204.44,-551.89 210.44,-551.89"/>
<text text-anchor="middle" x="225.44" y="-566.19" font-family="Arial" font-size="14.00">desc</text>
</g>
<!-- baseTopicElements&#45;&gt;desc -->
<g id="edge40" class="edge">
<title>baseTopicElements&#45;&gt;desc</title>
<path fill="none" stroke="#1f78b4" d="M501.4,-365.51C447.66,-405.31 318.76,-500.77 258.08,-545.72"/>
<polygon fill="#a6cee3" stroke="#1f78b4" points="255.94,-542.95 249.98,-551.71 260.1,-548.58 255.94,-542.95"/>
</g>
<!-- shortdesc -->
<g id="node42" class="node">
<title>shortdesc</title>
<path fill="#bfcfff" stroke="black" d="M369.95,-161.95C369.95,-161.95 420.95,-161.95 420.95,-161.95 426.95,-161.95 432.95,-167.95 432.95,-173.95 432.95,-173.95 432.95,-185.95 432.95,-185.95 432.95,-191.95 426.95,-197.95 420.95,-197.95 420.95,-197.95 369.95,-197.95 369.95,-197.95 363.95,-197.95 357.95,-191.95 357.95,-185.95 357.95,-185.95 357.95,-173.95 357.95,-173.95 357.95,-167.95 363.95,-161.95 369.95,-161.95"/>
<text text-anchor="middle" x="395.45" y="-176.25" font-family="Arial" font-size="14.00">shortdesc</text>
</g>
<!-- baseTopicElements&#45;&gt;shortdesc -->
<g id="edge41" class="edge">
<title>baseTopicElements&#45;&gt;shortdesc</title>
<path fill="none" stroke="#1f78b4" d="M511.53,-329.25C488.43,-299.54 442.6,-240.59 415.95,-206.32"/>
<polygon fill="#a6cee3" stroke="#1f78b4" points="418.52,-203.92 409.62,-198.17 413,-208.22 418.52,-203.92"/>
</g>
<!-- p -->
<g id="node43" class="node">
<title>p</title>
<path fill="#bfcfff" stroke="black" d="M532.4,-637.68C532.4,-637.68 562.4,-637.68 562.4,-637.68 568.4,-637.68 574.4,-643.68 574.4,-649.68 574.4,-649.68 574.4,-661.68 574.4,-661.68 574.4,-667.68 568.4,-673.68 562.4,-673.68 562.4,-673.68 532.4,-673.68 532.4,-673.68 526.4,-673.68 520.4,-667.68 520.4,-661.68 520.4,-661.68 520.4,-649.68 520.4,-649.68 520.4,-643.68 526.4,-637.68 532.4,-637.68"/>
<text text-anchor="middle" x="547.4" y="-651.98" font-family="Arial" font-size="14.00">p</text>
</g>
<!-- baseTopicElements&#45;&gt;p -->
<g id="edge42" class="edge">
<title>baseTopicElements&#45;&gt;p</title>
<path fill="none" stroke="#1f78b4" d="M527.01,-365.85C530.65,-417.56 541,-564.72 545.39,-627.14"/>
<polygon fill="#a6cee3" stroke="#1f78b4" points="541.92,-627.69 546.11,-637.42 548.9,-627.2 541.92,-627.69"/>
</g>
<!-- note -->
<g id="node44" class="node">
<title>note</title>
<path fill="#bfcfff" stroke="black" d="M784.85,-176.57C784.85,-176.57 814.85,-176.57 814.85,-176.57 820.85,-176.57 826.85,-182.57 826.85,-188.57 826.85,-188.57 826.85,-200.57 826.85,-200.57 826.85,-206.57 820.85,-212.57 814.85,-212.57 814.85,-212.57 784.85,-212.57 784.85,-212.57 778.85,-212.57 772.85,-206.57 772.85,-200.57 772.85,-200.57 772.85,-188.57 772.85,-188.57 772.85,-182.57 778.85,-176.57 784.85,-176.57"/>
<text text-anchor="middle" x="799.85" y="-190.87" font-family="Arial" font-size="14.00">note</text>
</g>
<!-- baseTopicElements&#45;&gt;note -->
<g id="edge43" class="edge">
<title>baseTopicElements&#45;&gt;note</title>
<path fill="none" stroke="#1f78b4" d="M558.24,-329.35C609.86,-300.56 710.17,-244.6 763.87,-214.64"/>
<polygon fill="#a6cee3" stroke="#1f78b4" points="765.68,-217.64 772.71,-209.71 762.27,-211.53 765.68,-217.64"/>
</g>
<!-- lq -->
<g id="node45" class="node">
<title>lq</title>
<path fill="#bfcfff" stroke="black" d="M729.82,-446.81C729.82,-446.81 759.82,-446.81 759.82,-446.81 765.82,-446.81 771.82,-452.81 771.82,-458.81 771.82,-458.81 771.82,-470.81 771.82,-470.81 771.82,-476.81 765.82,-482.81 759.82,-482.81 759.82,-482.81 729.82,-482.81 729.82,-482.81 723.82,-482.81 717.82,-476.81 717.82,-470.81 717.82,-470.81 717.82,-458.81 717.82,-458.81 717.82,-452.81 723.82,-446.81 729.82,-446.81"/>
<text text-anchor="middle" x="744.82" y="-461.11" font-family="Arial" font-size="14.00">lq</text>
</g>
<!-- baseTopicElements&#45;&gt;lq -->
<g id="edge44" class="edge">
<title>baseTopicElements&#45;&gt;lq</title>
<path fill="none" stroke="#1f78b4" d="M559.47,-365.57C599.87,-387.2 667.24,-423.28 708.67,-445.46"/>
<polygon fill="#a6cee3" stroke="#1f78b4" points="707.14,-448.61 717.6,-450.24 710.44,-442.44 707.14,-448.61"/>
</g>
<!-- q -->
<g id="node46" class="node">
<title>q</title>
<path fill="#bfcfff" stroke="black" d="M286.61,-201.91C286.61,-201.91 316.61,-201.91 316.61,-201.91 322.61,-201.91 328.61,-207.91 328.61,-213.91 328.61,-213.91 328.61,-225.91 328.61,-225.91 328.61,-231.91 322.61,-237.91 316.61,-237.91 316.61,-237.91 286.61,-237.91 286.61,-237.91 280.61,-237.91 274.61,-231.91 274.61,-225.91 274.61,-225.91 274.61,-213.91 274.61,-213.91 274.61,-207.91 280.61,-201.91 286.61,-201.91"/>
<text text-anchor="middle" x="301.61" y="-216.21" font-family="Arial" font-size="14.00">q</text>
</g>
<!-- baseTopicElements&#45;&gt;q -->
<g id="edge45" class="edge">
<title>baseTopicElements&#45;&gt;q</title>
<path fill="none" stroke="#1f78b4" d="M494.08,-329.49C452.86,-306.02 380.93,-265.07 337.65,-240.42"/>
<polygon fill="#a6cee3" stroke="#1f78b4" points="339.29,-237.33 328.87,-235.42 335.83,-243.41 339.29,-237.33"/>
</g>
<!-- sl -->
<g id="node47" class="node">
<title>sl</title>
<path fill="#bfcfff" stroke="black" d="M296.43,-461.5C296.43,-461.5 326.43,-461.5 326.43,-461.5 332.43,-461.5 338.43,-467.5 338.43,-473.5 338.43,-473.5 338.43,-485.5 338.43,-485.5 338.43,-491.5 332.43,-497.5 326.43,-497.5 326.43,-497.5 296.43,-497.5 296.43,-497.5 290.43,-497.5 284.43,-491.5 284.43,-485.5 284.43,-485.5 284.43,-473.5 284.43,-473.5 284.43,-467.5 290.43,-461.5 296.43,-461.5"/>
<text text-anchor="middle" x="311.43" y="-475.8" font-family="Arial" font-size="14.00">sl</text>
</g>
<!-- baseTopicElements&#45;&gt;sl -->
<g id="edge46" class="edge">
<title>baseTopicElements&#45;&gt;sl</title>
<path fill="none" stroke="#1f78b4" d="M496.37,-365.57C457.61,-389.45 389.37,-431.49 347.5,-457.28"/>
<polygon fill="#a6cee3" stroke="#1f78b4" points="345.41,-454.46 338.73,-462.68 349.08,-460.42 345.41,-454.46"/>
</g>
<!-- sli -->
<g id="node48" class="node">
<title>sli</title>
<path fill="#bfcfff" stroke="black" d="M765.49,-491.85C765.49,-491.85 795.49,-491.85 795.49,-491.85 801.49,-491.85 807.49,-497.85 807.49,-503.85 807.49,-503.85 807.49,-515.85 807.49,-515.85 807.49,-521.85 801.49,-527.85 795.49,-527.85 795.49,-527.85 765.49,-527.85 765.49,-527.85 759.49,-527.85 753.49,-521.85 753.49,-515.85 753.49,-515.85 753.49,-503.85 753.49,-503.85 753.49,-497.85 759.49,-491.85 765.49,-491.85"/>
<text text-anchor="middle" x="780.49" y="-506.15" font-family="Arial" font-size="14.00">sli</text>
</g>
<!-- baseTopicElements&#45;&gt;sli -->
<g id="edge47" class="edge">
<title>baseTopicElements&#45;&gt;sli</title>
<path fill="none" stroke="#1f78b4" d="M554.45,-365.8C601.22,-395.61 693.72,-454.55 744.69,-487.03"/>
<polygon fill="#a6cee3" stroke="#1f78b4" points="743.09,-490.17 753.4,-492.59 746.85,-484.26 743.09,-490.17"/>
</g>
<!-- ul -->
<g id="node49" class="node">
<title>ul</title>
<path fill="#bfcfff" stroke="black" d="M561.3,-92.94C561.3,-92.94 591.3,-92.94 591.3,-92.94 597.3,-92.94 603.3,-98.94 603.3,-104.94 603.3,-104.94 603.3,-116.94 603.3,-116.94 603.3,-122.94 597.3,-128.94 591.3,-128.94 591.3,-128.94 561.3,-128.94 561.3,-128.94 555.3,-128.94 549.3,-122.94 549.3,-116.94 549.3,-116.94 549.3,-104.94 549.3,-104.94 549.3,-98.94 555.3,-92.94 561.3,-92.94"/>
<text text-anchor="middle" x="576.3" y="-107.24" font-family="Arial" font-size="14.00">ul</text>
</g>
<!-- baseTopicElements&#45;&gt;ul -->
<g id="edge48" class="edge">
<title>baseTopicElements&#45;&gt;ul</title>
<path fill="none" stroke="#1f78b4" d="M529.6,-329.33C538.37,-288.3 559.77,-188.27 570.27,-139.12"/>
<polygon fill="#a6cee3" stroke="#1f78b4" points="573.73,-139.68 572.4,-129.17 566.89,-138.22 573.73,-139.68"/>
</g>
<!-- ol -->
<g id="node50" class="node">
<title>ol</title>
<path fill="#bfcfff" stroke="black" d="M766.78,-221.73C766.78,-221.73 796.78,-221.73 796.78,-221.73 802.78,-221.73 808.78,-227.73 808.78,-233.73 808.78,-233.73 808.78,-245.73 808.78,-245.73 808.78,-251.73 802.78,-257.73 796.78,-257.73 796.78,-257.73 766.78,-257.73 766.78,-257.73 760.78,-257.73 754.78,-251.73 754.78,-245.73 754.78,-245.73 754.78,-233.73 754.78,-233.73 754.78,-227.73 760.78,-221.73 766.78,-221.73"/>
<text text-anchor="middle" x="781.78" y="-236.03" font-family="Arial" font-size="14.00">ol</text>
</g>
<!-- baseTopicElements&#45;&gt;ol -->
<g id="edge49" class="edge">
<title>baseTopicElements&#45;&gt;ol</title>
<path fill="none" stroke="#1f78b4" d="M568.58,-329.46C618.02,-308.65 698.49,-274.79 745.14,-255.15"/>
<polygon fill="#a6cee3" stroke="#1f78b4" points="746.7,-258.29 754.56,-251.19 743.98,-251.84 746.7,-258.29"/>
</g>
<!-- li -->
<g id="node51" class="node">
<title>li</title>
<path fill="#bfcfff" stroke="black" d="M828.64,-491.84C828.64,-491.84 858.64,-491.84 858.64,-491.84 864.64,-491.84 870.64,-497.84 870.64,-503.84 870.64,-503.84 870.64,-515.84 870.64,-515.84 870.64,-521.84 864.64,-527.84 858.64,-527.84 858.64,-527.84 828.64,-527.84 828.64,-527.84 822.64,-527.84 816.64,-521.84 816.64,-515.84 816.64,-515.84 816.64,-503.84 816.64,-503.84 816.64,-497.84 822.64,-491.84 828.64,-491.84"/>
<text text-anchor="middle" x="843.64" y="-506.14" font-family="Arial" font-size="14.00">li</text>
</g>
<!-- baseTopicElements&#45;&gt;li -->
<g id="edge50" class="edge">
<title>baseTopicElements&#45;&gt;li</title>
<path fill="none" stroke="#1f78b4" d="M561.26,-365.65C622.29,-396.81 746.35,-460.16 807.68,-491.48"/>
<polygon fill="#a6cee3" stroke="#1f78b4" points="806.11,-494.61 816.61,-496.04 809.29,-488.37 806.11,-494.61"/>
</g>
<!-- dl -->
<g id="node52" class="node">
<title>dl</title>
<path fill="#bfcfff" stroke="black" d="M503.54,-0.93C503.54,-0.93 533.54,-0.93 533.54,-0.93 539.54,-0.93 545.54,-6.93 545.54,-12.93 545.54,-12.93 545.54,-24.93 545.54,-24.93 545.54,-30.93 539.54,-36.93 533.54,-36.93 533.54,-36.93 503.54,-36.93 503.54,-36.93 497.54,-36.93 491.54,-30.93 491.54,-24.93 491.54,-24.93 491.54,-12.93 491.54,-12.93 491.54,-6.93 497.54,-0.93 503.54,-0.93"/>
<text text-anchor="middle" x="518.54" y="-15.23" font-family="Arial" font-size="14.00">dl</text>
</g>
<!-- baseTopicElements&#45;&gt;dl -->
<g id="edge51" class="edge">
<title>baseTopicElements&#45;&gt;dl</title>
<path fill="none" stroke="#1f78b4" d="M525.32,-329.36C524.13,-274.95 520.59,-112.76 519.15,-47.05"/>
<polygon fill="#a6cee3" stroke="#1f78b4" points="522.65,-46.93 518.93,-37.01 515.65,-47.08 522.65,-46.93"/>
</g>
<!-- dlhead -->
<g id="node53" class="node">
<title>dlhead</title>
<path fill="#bfcfff" stroke="black" d="M240.51,-506.54C240.51,-506.54 273.51,-506.54 273.51,-506.54 279.51,-506.54 285.51,-512.54 285.51,-518.54 285.51,-518.54 285.51,-530.54 285.51,-530.54 285.51,-536.54 279.51,-542.54 273.51,-542.54 273.51,-542.54 240.51,-542.54 240.51,-542.54 234.51,-542.54 228.51,-536.54 228.51,-530.54 228.51,-530.54 228.51,-518.54 228.51,-518.54 228.51,-512.54 234.51,-506.54 240.51,-506.54"/>
<text text-anchor="middle" x="257.01" y="-520.84" font-family="Arial" font-size="14.00">dlhead</text>
</g>
<!-- baseTopicElements&#45;&gt;dlhead -->
<g id="edge52" class="edge">
<title>baseTopicElements&#45;&gt;dlhead</title>
<path fill="none" stroke="#1f78b4" d="M498.22,-365.61C449.44,-397.75 347.77,-464.74 293.31,-500.63"/>
<polygon fill="#a6cee3" stroke="#1f78b4" points="291.09,-497.9 284.67,-506.32 294.94,-503.74 291.09,-497.9"/>
</g>
<!-- dthd -->
<g id="node54" class="node">
<title>dthd</title>
<path fill="#bfcfff" stroke="black" d="M679.95,-400.52C679.95,-400.52 709.95,-400.52 709.95,-400.52 715.95,-400.52 721.95,-406.52 721.95,-412.52 721.95,-412.52 721.95,-424.52 721.95,-424.52 721.95,-430.52 715.95,-436.52 709.95,-436.52 709.95,-436.52 679.95,-436.52 679.95,-436.52 673.95,-436.52 667.95,-430.52 667.95,-424.52 667.95,-424.52 667.95,-412.52 667.95,-412.52 667.95,-406.52 673.95,-400.52 679.95,-400.52"/>
<text text-anchor="middle" x="694.95" y="-414.82" font-family="Arial" font-size="14.00">dthd</text>
</g>
<!-- baseTopicElements&#45;&gt;dthd -->
<g id="edge53" class="edge">
<title>baseTopicElements&#45;&gt;dthd</title>
<path fill="none" stroke="#1f78b4" d="M568.86,-365.6C596.59,-377.24 632.23,-392.2 658.54,-403.24"/>
<polygon fill="#a6cee3" stroke="#1f78b4" points="657.2,-406.47 667.77,-407.11 659.91,-400.02 657.2,-406.47"/>
</g>
<!-- ddhd -->
<g id="node55" class="node">
<title>ddhd</title>
<path fill="#bfcfff" stroke="black" d="M587.51,-167.32C587.51,-167.32 617.51,-167.32 617.51,-167.32 623.51,-167.32 629.51,-173.32 629.51,-179.32 629.51,-179.32 629.51,-191.32 629.51,-191.32 629.51,-197.32 623.51,-203.32 617.51,-203.32 617.51,-203.32 587.51,-203.32 587.51,-203.32 581.51,-203.32 575.51,-197.32 575.51,-191.32 575.51,-191.32 575.51,-179.32 575.51,-179.32 575.51,-173.32 581.51,-167.32 587.51,-167.32"/>
<text text-anchor="middle" x="602.51" y="-181.62" font-family="Arial" font-size="14.00">ddhd</text>
</g>
<!-- baseTopicElements&#45;&gt;ddhd -->
<g id="edge54" class="edge">
<title>baseTopicElements&#45;&gt;ddhd</title>
<path fill="none" stroke="#1f78b4" d="M534.38,-329.21C547.8,-300.86 573.72,-246.12 589.43,-212.94"/>
<polygon fill="#a6cee3" stroke="#1f78b4" points="592.65,-214.33 593.76,-203.79 586.32,-211.33 592.65,-214.33"/>
</g>
<!-- dlentry -->
<g id="node56" class="node">
<title>dlentry</title>
<path fill="#bfcfff" stroke="black" d="M784.66,-266.74C784.66,-266.74 817.66,-266.74 817.66,-266.74 823.66,-266.74 829.66,-272.74 829.66,-278.74 829.66,-278.74 829.66,-290.74 829.66,-290.74 829.66,-296.74 823.66,-302.74 817.66,-302.74 817.66,-302.74 784.66,-302.74 784.66,-302.74 778.66,-302.74 772.66,-296.74 772.66,-290.74 772.66,-290.74 772.66,-278.74 772.66,-278.74 772.66,-272.74 778.66,-266.74 784.66,-266.74"/>
<text text-anchor="middle" x="801.16" y="-281.04" font-family="Arial" font-size="14.00">dlentry</text>
</g>
<!-- baseTopicElements&#45;&gt;dlentry -->
<g id="edge55" class="edge">
<title>baseTopicElements&#45;&gt;dlentry</title>
<path fill="none" stroke="#1f78b4" d="M597.73,-331.09C650.44,-319.08 719.94,-303.24 762.54,-293.54"/>
<polygon fill="#a6cee3" stroke="#1f78b4" points="763.53,-296.9 772.5,-291.27 761.98,-290.07 763.53,-296.9"/>
</g>
<!-- dt -->
<g id="node57" class="node">
<title>dt</title>
<path fill="#bfcfff" stroke="black" d="M669.82,-592.38C669.82,-592.38 699.82,-592.38 699.82,-592.38 705.82,-592.38 711.82,-598.38 711.82,-604.38 711.82,-604.38 711.82,-616.38 711.82,-616.38 711.82,-622.38 705.82,-628.38 699.82,-628.38 699.82,-628.38 669.82,-628.38 669.82,-628.38 663.82,-628.38 657.82,-622.38 657.82,-616.38 657.82,-616.38 657.82,-604.38 657.82,-604.38 657.82,-598.38 663.82,-592.38 669.82,-592.38"/>
<text text-anchor="middle" x="684.82" y="-606.68" font-family="Arial" font-size="14.00">dt</text>
</g>
<!-- baseTopicElements&#45;&gt;dt -->
<g id="edge56" class="edge">
<title>baseTopicElements&#45;&gt;dt</title>
<path fill="none" stroke="#1f78b4" d="M536.65,-365.57C564.13,-410.96 636.17,-530 668.6,-583.57"/>
<polygon fill="#a6cee3" stroke="#1f78b4" points="665.64,-585.44 673.81,-592.19 671.63,-581.82 665.64,-585.44"/>
</g>
<!-- dd -->
<g id="node58" class="node">
<title>dd</title>
<path fill="#bfcfff" stroke="black" d="M665.5,-643.55C665.5,-643.55 695.5,-643.55 695.5,-643.55 701.5,-643.55 707.5,-649.55 707.5,-655.55 707.5,-655.55 707.5,-667.55 707.5,-667.55 707.5,-673.55 701.5,-679.55 695.5,-679.55 695.5,-679.55 665.5,-679.55 665.5,-679.55 659.5,-679.55 653.5,-673.55 653.5,-667.55 653.5,-667.55 653.5,-655.55 653.5,-655.55 653.5,-649.55 659.5,-643.55 665.5,-643.55"/>
<text text-anchor="middle" x="680.5" y="-657.85" font-family="Arial" font-size="14.00">dd</text>
</g>
<!-- baseTopicElements&#45;&gt;dd -->
<g id="edge57" class="edge">
<title>baseTopicElements&#45;&gt;dd</title>
<path fill="none" stroke="#1f78b4" d="M534.71,-365.74C560.68,-418.43 635.91,-571.07 666.9,-633.97"/>
<polygon fill="#a6cee3" stroke="#1f78b4" points="663.93,-635.84 671.49,-643.26 670.2,-632.74 663.93,-635.84"/>
</g>
<!-- example -->
<g id="node59" class="node">
<title>example</title>
<path fill="#bfcfff" stroke="black" d="M163.28,-506.68C163.28,-506.68 207.28,-506.68 207.28,-506.68 213.28,-506.68 219.28,-512.68 219.28,-518.68 219.28,-518.68 219.28,-530.68 219.28,-530.68 219.28,-536.68 213.28,-542.68 207.28,-542.68 207.28,-542.68 163.28,-542.68 163.28,-542.68 157.28,-542.68 151.28,-536.68 151.28,-530.68 151.28,-530.68 151.28,-518.68 151.28,-518.68 151.28,-512.68 157.28,-506.68 163.28,-506.68"/>
<text text-anchor="middle" x="185.28" y="-520.98" font-family="Arial" font-size="14.00">example</text>
</g>
<!-- baseTopicElements&#45;&gt;example -->
<g id="edge58" class="edge">
<title>baseTopicElements&#45;&gt;example</title>
<path fill="none" stroke="#1f78b4" d="M490.88,-365.63C428.25,-398.23 296.78,-466.65 228.5,-502.18"/>
<polygon fill="#a6cee3" stroke="#1f78b4" points="226.56,-499.25 219.3,-506.97 229.79,-505.46 226.56,-499.25"/>
</g>
<!-- fig -->
<g id="node60" class="node">
<title>fig</title>
<path fill="#bfcfff" stroke="black" d="M784.89,-130.14C784.89,-130.14 814.89,-130.14 814.89,-130.14 820.89,-130.14 826.89,-136.14 826.89,-142.14 826.89,-142.14 826.89,-154.14 826.89,-154.14 826.89,-160.14 820.89,-166.14 814.89,-166.14 814.89,-166.14 784.89,-166.14 784.89,-166.14 778.89,-166.14 772.89,-160.14 772.89,-154.14 772.89,-154.14 772.89,-142.14 772.89,-142.14 772.89,-136.14 778.89,-130.14 784.89,-130.14"/>
<text text-anchor="middle" x="799.89" y="-144.44" font-family="Arial" font-size="14.00">fig</text>
</g>
<!-- baseTopicElements&#45;&gt;fig -->
<g id="edge59" class="edge">
<title>baseTopicElements&#45;&gt;fig</title>
<path fill="none" stroke="#1f78b4" d="M550.53,-329.45C600.06,-293.44 711.17,-212.65 766.82,-172.19"/>
<polygon fill="#a6cee3" stroke="#1f78b4" points="768.9,-175 774.93,-166.29 764.78,-169.34 768.9,-175"/>
</g>
<!-- figgroup -->
<g id="node61" class="node">
<title>figgroup</title>
<path fill="#bfcfff" stroke="black" d="M448.52,-638.84C448.52,-638.84 489.52,-638.84 489.52,-638.84 495.52,-638.84 501.52,-644.84 501.52,-650.84 501.52,-650.84 501.52,-662.84 501.52,-662.84 501.52,-668.84 495.52,-674.84 489.52,-674.84 489.52,-674.84 448.52,-674.84 448.52,-674.84 442.52,-674.84 436.52,-668.84 436.52,-662.84 436.52,-662.84 436.52,-650.84 436.52,-650.84 436.52,-644.84 442.52,-638.84 448.52,-638.84"/>
<text text-anchor="middle" x="469.02" y="-653.14" font-family="Arial" font-size="14.00">figgroup</text>
</g>
<!-- baseTopicElements&#45;&gt;figgroup -->
<g id="edge60" class="edge">
<title>baseTopicElements&#45;&gt;figgroup</title>
<path fill="none" stroke="#1f78b4" d="M522.34,-365.92C512.81,-417.93 485.64,-566.15 474.2,-628.58"/>
<polygon fill="#a6cee3" stroke="#1f78b4" points="470.74,-628.05 472.38,-638.51 477.63,-629.31 470.74,-628.05"/>
</g>
<!-- pre -->
<g id="node62" class="node">
<title>pre</title>
<path fill="#bfcfff" stroke="black" d="M453.73,-91.97C453.73,-91.97 483.73,-91.97 483.73,-91.97 489.73,-91.97 495.73,-97.97 495.73,-103.97 495.73,-103.97 495.73,-115.97 495.73,-115.97 495.73,-121.97 489.73,-127.97 483.73,-127.97 483.73,-127.97 453.73,-127.97 453.73,-127.97 447.73,-127.97 441.73,-121.97 441.73,-115.97 441.73,-115.97 441.73,-103.97 441.73,-103.97 441.73,-97.97 447.73,-91.97 453.73,-91.97"/>
<text text-anchor="middle" x="468.73" y="-106.27" font-family="Arial" font-size="14.00">pre</text>
</g>
<!-- baseTopicElements&#45;&gt;pre -->
<g id="edge61" class="edge">
<title>baseTopicElements&#45;&gt;pre</title>
<path fill="none" stroke="#1f78b4" d="M521.34,-329.25C511.46,-288.06 487.36,-187.61 475.52,-138.27"/>
<polygon fill="#a6cee3" stroke="#1f78b4" points="478.86,-137.18 473.12,-128.27 472.05,-138.81 478.86,-137.18"/>
</g>
<!-- lines -->
<g id="node63" class="node">
<title>lines</title>
<path fill="#bfcfff" stroke="black" d="M741.06,-584.48C741.06,-584.48 771.06,-584.48 771.06,-584.48 777.06,-584.48 783.06,-590.48 783.06,-596.48 783.06,-596.48 783.06,-608.48 783.06,-608.48 783.06,-614.48 777.06,-620.48 771.06,-620.48 771.06,-620.48 741.06,-620.48 741.06,-620.48 735.06,-620.48 729.06,-614.48 729.06,-608.48 729.06,-608.48 729.06,-596.48 729.06,-596.48 729.06,-590.48 735.06,-584.48 741.06,-584.48"/>
<text text-anchor="middle" x="756.06" y="-598.78" font-family="Arial" font-size="14.00">lines</text>
</g>
<!-- baseTopicElements&#45;&gt;lines -->
<g id="edge62" class="edge">
<title>baseTopicElements&#45;&gt;lines</title>
<path fill="none" stroke="#1f78b4" d="M542.28,-365.83C582.62,-410.49 686.06,-525 732.67,-576.59"/>
<polygon fill="#a6cee3" stroke="#1f78b4" points="730.34,-579.24 739.64,-584.31 735.53,-574.54 730.34,-579.24"/>
</g>
<!-- div -->
<g id="node64" class="node">
<title>div</title>
<path fill="#bfcfff" stroke="black" d="M317.85,-317.23C317.85,-317.23 347.85,-317.23 347.85,-317.23 353.85,-317.23 359.85,-323.23 359.85,-329.23 359.85,-329.23 359.85,-341.23 359.85,-341.23 359.85,-347.23 353.85,-353.23 347.85,-353.23 347.85,-353.23 317.85,-353.23 317.85,-353.23 311.85,-353.23 305.85,-347.23 305.85,-341.23 305.85,-341.23 305.85,-329.23 305.85,-329.23 305.85,-323.23 311.85,-317.23 317.85,-317.23"/>
<text text-anchor="middle" x="332.85" y="-331.53" font-family="Arial" font-size="14.00">div</text>
</g>
<!-- baseTopicElements&#45;&gt;div -->
<g id="edge63" class="edge">
<title>baseTopicElements&#45;&gt;div</title>
<path fill="none" stroke="#1f78b4" d="M453.63,-342.91C425.23,-341.11 393.83,-339.11 370.16,-337.61"/>
<polygon fill="#a6cee3" stroke="#1f78b4" points="370.07,-334.09 359.87,-336.95 369.63,-341.08 370.07,-334.09"/>
</g>
<!-- text -->
<g id="node65" class="node">
<title>text</title>
<path fill="#bfcfff" stroke="black" d="M650.51,-156.45C650.51,-156.45 680.51,-156.45 680.51,-156.45 686.51,-156.45 692.51,-162.45 692.51,-168.45 692.51,-168.45 692.51,-180.45 692.51,-180.45 692.51,-186.45 686.51,-192.45 680.51,-192.45 680.51,-192.45 650.51,-192.45 650.51,-192.45 644.51,-192.45 638.51,-186.45 638.51,-180.45 638.51,-180.45 638.51,-168.45 638.51,-168.45 638.51,-162.45 644.51,-156.45 650.51,-156.45"/>
<text text-anchor="middle" x="665.51" y="-170.75" font-family="Arial" font-size="14.00">text</text>
</g>
<!-- baseTopicElements&#45;&gt;text -->
<g id="edge64" class="edge">
<title>baseTopicElements&#45;&gt;text</title>
<path fill="none" stroke="#1f78b4" d="M540.41,-329.3C565.27,-298.54 615.69,-236.12 644.35,-200.64"/>
<polygon fill="#a6cee3" stroke="#1f78b4" points="647.24,-202.64 650.8,-192.66 641.79,-198.24 647.24,-202.64"/>
</g>
<!-- keyword -->
<g id="node66" class="node">
<title>keyword</title>
<path fill="#bfcfff" stroke="black" d="M780.3,-356.79C780.3,-356.79 823.3,-356.79 823.3,-356.79 829.3,-356.79 835.3,-362.79 835.3,-368.79 835.3,-368.79 835.3,-380.79 835.3,-380.79 835.3,-386.79 829.3,-392.79 823.3,-392.79 823.3,-392.79 780.3,-392.79 780.3,-392.79 774.3,-392.79 768.3,-386.79 768.3,-380.79 768.3,-380.79 768.3,-368.79 768.3,-368.79 768.3,-362.79 774.3,-356.79 780.3,-356.79"/>
<text text-anchor="middle" x="801.8" y="-371.09" font-family="Arial" font-size="14.00">keyword</text>
</g>
<!-- baseTopicElements&#45;&gt;keyword -->
<g id="edge65" class="edge">
<title>baseTopicElements&#45;&gt;keyword</title>
<path fill="none" stroke="#1f78b4" d="M597.89,-354.63C648.67,-359.65 714.97,-366.21 757.96,-370.46"/>
<polygon fill="#a6cee3" stroke="#1f78b4" points="757.8,-373.96 768.1,-371.46 758.49,-366.99 757.8,-373.96"/>
</g>
<!-- term -->
<g id="node67" class="node">
<title>term</title>
<path fill="#bfcfff" stroke="black" d="M312.57,-402.1C312.57,-402.1 342.57,-402.1 342.57,-402.1 348.57,-402.1 354.57,-408.1 354.57,-414.1 354.57,-414.1 354.57,-426.1 354.57,-426.1 354.57,-432.1 348.57,-438.1 342.57,-438.1 342.57,-438.1 312.57,-438.1 312.57,-438.1 306.57,-438.1 300.57,-432.1 300.57,-426.1 300.57,-426.1 300.57,-414.1 300.57,-414.1 300.57,-408.1 306.57,-402.1 312.57,-402.1"/>
<text text-anchor="middle" x="327.57" y="-416.4" font-family="Arial" font-size="14.00">term</text>
</g>
<!-- baseTopicElements&#45;&gt;term -->
<g id="edge66" class="edge">
<title>baseTopicElements&#45;&gt;term</title>
<path fill="none" stroke="#1f78b4" d="M476.48,-365.54C441.73,-378.27 395.92,-395.05 364.33,-406.63"/>
<polygon fill="#a6cee3" stroke="#1f78b4" points="362.79,-403.46 354.61,-410.19 365.2,-410.04 362.79,-403.46"/>
</g>
<!-- ph -->
<g id="node68" class="node">
<title>ph</title>
<path fill="#bfcfff" stroke="black" d="M272.21,-596.92C272.21,-596.92 302.21,-596.92 302.21,-596.92 308.21,-596.92 314.21,-602.92 314.21,-608.92 314.21,-608.92 314.21,-620.92 314.21,-620.92 314.21,-626.92 308.21,-632.92 302.21,-632.92 302.21,-632.92 272.21,-632.92 272.21,-632.92 266.21,-632.92 260.21,-626.92 260.21,-620.92 260.21,-620.92 260.21,-608.92 260.21,-608.92 260.21,-602.92 266.21,-596.92 272.21,-596.92"/>
<text text-anchor="middle" x="287.21" y="-611.22" font-family="Arial" font-size="14.00">ph</text>
</g>
<!-- baseTopicElements&#45;&gt;ph -->
<g id="edge67" class="edge">
<title>baseTopicElements&#45;&gt;ph</title>
<path fill="none" stroke="#1f78b4" d="M509.32,-365.88C467.78,-412.46 358.27,-535.24 310.28,-589.04"/>
<polygon fill="#a6cee3" stroke="#1f78b4" points="307.44,-586.97 303.4,-596.76 312.67,-591.63 307.44,-586.97"/>
</g>
<!-- tm -->
<g id="node69" class="node">
<title>tm</title>
<path fill="#bfcfff" stroke="black" d="M702.32,-86.68C702.32,-86.68 732.32,-86.68 732.32,-86.68 738.32,-86.68 744.32,-92.68 744.32,-98.68 744.32,-98.68 744.32,-110.68 744.32,-110.68 744.32,-116.68 738.32,-122.68 732.32,-122.68 732.32,-122.68 702.32,-122.68 702.32,-122.68 696.32,-122.68 690.32,-116.68 690.32,-110.68 690.32,-110.68 690.32,-98.68 690.32,-98.68 690.32,-92.68 696.32,-86.68 702.32,-86.68"/>
<text text-anchor="middle" x="717.32" y="-100.98" font-family="Arial" font-size="14.00">tm</text>
</g>
<!-- baseTopicElements&#45;&gt;tm -->
<g id="edge68" class="edge">
<title>baseTopicElements&#45;&gt;tm</title>
<path fill="none" stroke="#1f78b4" d="M540.12,-329.25C573.77,-286.6 657.64,-180.31 696.7,-130.81"/>
<polygon fill="#a6cee3" stroke="#1f78b4" points="699.56,-132.83 703.01,-122.81 694.07,-128.5 699.56,-132.83"/>
</g>
<!-- state -->
<g id="node70" class="node">
<title>state</title>
<path fill="#bfcfff" stroke="black" d="M534.18,-683.59C534.18,-683.59 564.18,-683.59 564.18,-683.59 570.18,-683.59 576.18,-689.59 576.18,-695.59 576.18,-695.59 576.18,-707.59 576.18,-707.59 576.18,-713.59 570.18,-719.59 564.18,-719.59 564.18,-719.59 534.18,-719.59 534.18,-719.59 528.18,-719.59 522.18,-713.59 522.18,-707.59 522.18,-707.59 522.18,-695.59 522.18,-695.59 522.18,-689.59 528.18,-683.59 534.18,-683.59"/>
<text text-anchor="middle" x="549.18" y="-697.89" font-family="Arial" font-size="14.00">state</text>
</g>
<!-- baseTopicElements&#45;&gt;state -->
<g id="edge69" class="edge">
<title>baseTopicElements&#45;&gt;state</title>
<path fill="none" stroke="#1f78b4" d="M526.91,-365.54C530.73,-423.2 542.67,-603.27 547.31,-673.31"/>
<polygon fill="#a6cee3" stroke="#1f78b4" points="543.84,-673.83 547.99,-683.58 550.82,-673.37 543.84,-673.83"/>
</g>
<!-- image -->
<g id="node71" class="node">
<title>image</title>
<path fill="#bfcfff" stroke="black" d="M592.35,-500.87C592.35,-500.87 622.35,-500.87 622.35,-500.87 628.35,-500.87 634.35,-506.87 634.35,-512.87 634.35,-512.87 634.35,-524.87 634.35,-524.87 634.35,-530.87 628.35,-536.87 622.35,-536.87 622.35,-536.87 592.35,-536.87 592.35,-536.87 586.35,-536.87 580.35,-530.87 580.35,-524.87 580.35,-524.87 580.35,-512.87 580.35,-512.87 580.35,-506.87 586.35,-500.87 592.35,-500.87"/>
<text text-anchor="middle" x="607.35" y="-515.17" font-family="Arial" font-size="14.00">image</text>
</g>
<!-- baseTopicElements&#45;&gt;image -->
<g id="edge70" class="edge">
<title>baseTopicElements&#45;&gt;image</title>
<path fill="none" stroke="#1f78b4" d="M534.3,-365.51C548.63,-395.6 577.51,-456.24 594.35,-491.59"/>
<polygon fill="#a6cee3" stroke="#1f78b4" points="591.3,-493.31 598.76,-500.84 597.62,-490.3 591.3,-493.31"/>
</g>
<!-- alt -->
<g id="node72" class="node">
<title>alt</title>
<path fill="#bfcfff" stroke="black" d="M376.86,-20.23C376.86,-20.23 406.86,-20.23 406.86,-20.23 412.86,-20.23 418.86,-26.23 418.86,-32.23 418.86,-32.23 418.86,-44.23 418.86,-44.23 418.86,-50.23 412.86,-56.23 406.86,-56.23 406.86,-56.23 376.86,-56.23 376.86,-56.23 370.86,-56.23 364.86,-50.23 364.86,-44.23 364.86,-44.23 364.86,-32.23 364.86,-32.23 364.86,-26.23 370.86,-20.23 376.86,-20.23"/>
<text text-anchor="middle" x="391.86" y="-34.53" font-family="Arial" font-size="14.00">alt</text>
</g>
<!-- baseTopicElements&#45;&gt;alt -->
<g id="edge71" class="edge">
<title>baseTopicElements&#45;&gt;alt</title>
<path fill="none" stroke="#1f78b4" d="M517.74,-329.08C495.19,-276.97 430.84,-128.29 403.93,-66.1"/>
<polygon fill="#a6cee3" stroke="#1f78b4" points="406.98,-64.34 399.79,-56.55 400.55,-67.12 406.98,-64.34"/>
</g>
<!-- longdescref -->
<g id="node73" class="node">
<title>longdescref</title>
<path fill="#bfcfff" stroke="black" d="M494.47,-546.71C494.47,-546.71 556.47,-546.71 556.47,-546.71 562.47,-546.71 568.47,-552.71 568.47,-558.71 568.47,-558.71 568.47,-570.71 568.47,-570.71 568.47,-576.71 562.47,-582.71 556.47,-582.71 556.47,-582.71 494.47,-582.71 494.47,-582.71 488.47,-582.71 482.47,-576.71 482.47,-570.71 482.47,-570.71 482.47,-558.71 482.47,-558.71 482.47,-552.71 488.47,-546.71 494.47,-546.71"/>
<text text-anchor="middle" x="525.47" y="-561.01" font-family="Arial" font-size="14.00">longdescref</text>
</g>
<!-- baseTopicElements&#45;&gt;longdescref -->
<g id="edge72" class="edge">
<title>baseTopicElements&#45;&gt;longdescref</title>
<path fill="none" stroke="#1f78b4" d="M525.7,-365.64C525.65,-403.49 525.56,-491.11 525.5,-536.43"/>
<polygon fill="#a6cee3" stroke="#1f78b4" points="522,-536.46 525.49,-546.46 529,-536.47 522,-536.46"/>
</g>
<!-- object -->
<g id="node74" class="node">
<title>object</title>
<path fill="#bfcfff" stroke="black" d="M351.78,-228.46C351.78,-228.46 381.78,-228.46 381.78,-228.46 387.78,-228.46 393.78,-234.46 393.78,-240.46 393.78,-240.46 393.78,-252.46 393.78,-252.46 393.78,-258.46 387.78,-264.46 381.78,-264.46 381.78,-264.46 351.78,-264.46 351.78,-264.46 345.78,-264.46 339.78,-258.46 339.78,-252.46 339.78,-252.46 339.78,-240.46 339.78,-240.46 339.78,-234.46 345.78,-228.46 351.78,-228.46"/>
<text text-anchor="middle" x="366.78" y="-242.76" font-family="Arial" font-size="14.00">object</text>
</g>
<!-- baseTopicElements&#45;&gt;object -->
<g id="edge73" class="edge">
<title>baseTopicElements&#45;&gt;object</title>
<path fill="none" stroke="#1f78b4" d="M497.3,-329.43C470.76,-312.56 431.04,-287.31 402.39,-269.1"/>
<polygon fill="#a6cee3" stroke="#1f78b4" points="404.2,-266.1 393.88,-263.69 400.45,-272.01 404.2,-266.1"/>
</g>
<!-- param -->
<g id="node75" class="node">
<title>param</title>
<path fill="#bfcfff" stroke="black" d="M305.11,-156.85C305.11,-156.85 337.11,-156.85 337.11,-156.85 343.11,-156.85 349.11,-162.85 349.11,-168.85 349.11,-168.85 349.11,-180.85 349.11,-180.85 349.11,-186.85 343.11,-192.85 337.11,-192.85 337.11,-192.85 305.11,-192.85 305.11,-192.85 299.11,-192.85 293.11,-186.85 293.11,-180.85 293.11,-180.85 293.11,-168.85 293.11,-168.85 293.11,-162.85 299.11,-156.85 305.11,-156.85"/>
<text text-anchor="middle" x="321.11" y="-171.15" font-family="Arial" font-size="14.00">param</text>
</g>
<!-- baseTopicElements&#45;&gt;param -->
<g id="edge74" class="edge">
<title>baseTopicElements&#45;&gt;param</title>
<path fill="none" stroke="#1f78b4" d="M504.21,-329.35C467.37,-298.26 392.15,-234.8 350.5,-199.65"/>
<polygon fill="#a6cee3" stroke="#1f78b4" points="352.54,-196.79 342.64,-193.02 348.02,-202.14 352.54,-196.79"/>
</g>
<!-- simpletable -->
<g id="node76" class="node">
<title>simpletable</title>
<path fill="#bfcfff" stroke="black" d="M128.77,-312.4C128.77,-312.4 190.77,-312.4 190.77,-312.4 196.77,-312.4 202.77,-318.4 202.77,-324.4 202.77,-324.4 202.77,-336.4 202.77,-336.4 202.77,-342.4 196.77,-348.4 190.77,-348.4 190.77,-348.4 128.77,-348.4 128.77,-348.4 122.77,-348.4 116.77,-342.4 116.77,-336.4 116.77,-336.4 116.77,-324.4 116.77,-324.4 116.77,-318.4 122.77,-312.4 128.77,-312.4"/>
<text text-anchor="middle" x="159.77" y="-326.7" font-family="Arial" font-size="14.00">simpletable</text>
</g>
<!-- baseTopicElements&#45;&gt;simpletable -->
<g id="edge75" class="edge">
<title>baseTopicElements&#45;&gt;simpletable</title>
<path fill="none" stroke="#1f78b4" d="M453.42,-344.12C382.68,-340.81 276.59,-335.86 213.17,-332.89"/>
<polygon fill="#a6cee3" stroke="#1f78b4" points="213.14,-329.39 202.99,-332.42 212.81,-336.38 213.14,-329.39"/>
</g>
<!-- sthead -->
<g id="node77" class="node">
<title>sthead</title>
<path fill="#bfcfff" stroke="black" d="M764.48,-82.39C764.48,-82.39 797.48,-82.39 797.48,-82.39 803.48,-82.39 809.48,-88.39 809.48,-94.39 809.48,-94.39 809.48,-106.39 809.48,-106.39 809.48,-112.39 803.48,-118.39 797.48,-118.39 797.48,-118.39 764.48,-118.39 764.48,-118.39 758.48,-118.39 752.48,-112.39 752.48,-106.39 752.48,-106.39 752.48,-94.39 752.48,-94.39 752.48,-88.39 758.48,-82.39 764.48,-82.39"/>
<text text-anchor="middle" x="780.98" y="-96.69" font-family="Arial" font-size="14.00">sthead</text>
</g>
<!-- baseTopicElements&#45;&gt;sthead -->
<g id="edge76" class="edge">
<title>baseTopicElements&#45;&gt;sthead</title>
<path fill="none" stroke="#1f78b4" d="M544.49,-329.33C589.39,-285.86 703.09,-175.79 754.73,-125.8"/>
<polygon fill="#a6cee3" stroke="#1f78b4" points="757.43,-128.06 762.18,-118.59 752.56,-123.03 757.43,-128.06"/>
</g>
<!-- strow -->
<g id="node78" class="node">
<title>strow</title>
<path fill="#bfcfff" stroke="black" d="M636.88,-9.2C636.88,-9.2 666.88,-9.2 666.88,-9.2 672.88,-9.2 678.88,-15.2 678.88,-21.2 678.88,-21.2 678.88,-33.2 678.88,-33.2 678.88,-39.2 672.88,-45.2 666.88,-45.2 666.88,-45.2 636.88,-45.2 636.88,-45.2 630.88,-45.2 624.88,-39.2 624.88,-33.2 624.88,-33.2 624.88,-21.2 624.88,-21.2 624.88,-15.2 630.88,-9.2 636.88,-9.2"/>
<text text-anchor="middle" x="651.88" y="-23.5" font-family="Arial" font-size="14.00">strow</text>
</g>
<!-- baseTopicElements&#45;&gt;strow -->
<g id="edge77" class="edge">
<title>baseTopicElements&#45;&gt;strow</title>
<path fill="none" stroke="#1f78b4" d="M532.86,-329.36C553.89,-275.97 615.67,-119.13 640.93,-55.01"/>
<polygon fill="#a6cee3" stroke="#1f78b4" points="644.25,-56.13 644.65,-45.54 637.73,-53.56 644.25,-56.13"/>
</g>
<!-- stentry -->
<g id="node79" class="node">
<title>stentry</title>
<path fill="#bfcfff" stroke="black" d="M785.68,-311.76C785.68,-311.76 818.68,-311.76 818.68,-311.76 824.68,-311.76 830.68,-317.76 830.68,-323.76 830.68,-323.76 830.68,-335.76 830.68,-335.76 830.68,-341.76 824.68,-347.76 818.68,-347.76 818.68,-347.76 785.68,-347.76 785.68,-347.76 779.68,-347.76 773.68,-341.76 773.68,-335.76 773.68,-335.76 773.68,-323.76 773.68,-323.76 773.68,-317.76 779.68,-311.76 785.68,-311.76"/>
<text text-anchor="middle" x="802.18" y="-326.06" font-family="Arial" font-size="14.00">stentry</text>
</g>
<!-- baseTopicElements&#45;&gt;stentry -->
<g id="edge78" class="edge">
<title>baseTopicElements&#45;&gt;stentry</title>
<path fill="none" stroke="#1f78b4" d="M597.99,-342.86C650.9,-339.46 720.66,-334.99 763.42,-332.25"/>
<polygon fill="#a6cee3" stroke="#1f78b4" points="763.66,-335.74 773.42,-331.6 763.21,-328.75 763.66,-335.74"/>
</g>
<!-- draft&#45;comment -->
<g id="node80" class="node">
<title>draft&#45;comment</title>
<path fill="#bfcfff" stroke="black" d="M942.14,-277.41C942.14,-277.41 1023.14,-277.41 1023.14,-277.41 1029.14,-277.41 1035.14,-283.41 1035.14,-289.41 1035.14,-289.41 1035.14,-301.41 1035.14,-301.41 1035.14,-307.41 1029.14,-313.41 1023.14,-313.41 1023.14,-313.41 942.14,-313.41 942.14,-313.41 936.14,-313.41 930.14,-307.41 930.14,-301.41 930.14,-301.41 930.14,-289.41 930.14,-289.41 930.14,-283.41 936.14,-277.41 942.14,-277.41"/>
<text text-anchor="middle" x="982.64" y="-291.71" font-family="Arial" font-size="14.00">draft&#45;comment</text>
</g>
<!-- baseTopicElements&#45;&gt;draft&#45;comment -->
<g id="edge79" class="edge">
<title>baseTopicElements&#45;&gt;draft&#45;comment</title>
<path fill="none" stroke="#1f78b4" d="M597.87,-339.27C686.58,-329.16 835.72,-312.16 919.9,-302.57"/>
<polygon fill="#a6cee3" stroke="#1f78b4" points="920.54,-306.02 930.08,-301.41 919.75,-299.06 920.54,-306.02"/>
</g>
<!-- required&#45;cleanup -->
<g id="node81" class="node">
<title>required&#45;cleanup</title>
<path fill="#bfcfff" stroke="black" d="M453.46,-138.12C453.46,-138.12 547.46,-138.12 547.46,-138.12 553.46,-138.12 559.46,-144.12 559.46,-150.12 559.46,-150.12 559.46,-162.12 559.46,-162.12 559.46,-168.12 553.46,-174.12 547.46,-174.12 547.46,-174.12 453.46,-174.12 453.46,-174.12 447.46,-174.12 441.46,-168.12 441.46,-162.12 441.46,-162.12 441.46,-150.12 441.46,-150.12 441.46,-144.12 447.46,-138.12 453.46,-138.12"/>
<text text-anchor="middle" x="500.46" y="-152.42" font-family="Arial" font-size="14.00">required&#45;cleanup</text>
</g>
<!-- baseTopicElements&#45;&gt;required&#45;cleanup -->
<g id="edge80" class="edge">
<title>baseTopicElements&#45;&gt;required&#45;cleanup</title>
<path fill="none" stroke="#1f78b4" d="M523.34,-329.49C518.93,-296.08 509.45,-224.26 504.18,-184.34"/>
<polygon fill="#a6cee3" stroke="#1f78b4" points="507.62,-183.67 502.85,-174.21 500.68,-184.58 507.62,-183.67"/>
</g>
<!-- fn -->
<g id="node82" class="node">
<title>fn</title>
<path fill="#bfcfff" stroke="black" d="M597.71,-674.25C597.71,-674.25 627.71,-674.25 627.71,-674.25 633.71,-674.25 639.71,-680.25 639.71,-686.25 639.71,-686.25 639.71,-698.25 639.71,-698.25 639.71,-704.25 633.71,-710.25 627.71,-710.25 627.71,-710.25 597.71,-710.25 597.71,-710.25 591.71,-710.25 585.71,-704.25 585.71,-698.25 585.71,-698.25 585.71,-686.25 585.71,-686.25 585.71,-680.25 591.71,-674.25 597.71,-674.25"/>
<text text-anchor="middle" x="612.71" y="-688.55" font-family="Arial" font-size="14.00">fn</text>
</g>
<!-- baseTopicElements&#45;&gt;fn -->
<g id="edge81" class="edge">
<title>baseTopicElements&#45;&gt;fn</title>
<path fill="none" stroke="#1f78b4" d="M530.27,-365.55C544.51,-421.96 588.24,-595.3 605.55,-663.89"/>
<polygon fill="#a6cee3" stroke="#1f78b4" points="602.25,-665.12 608.09,-673.96 609.04,-663.41 602.25,-665.12"/>
</g>
<!-- indexterm -->
<g id="node83" class="node">
<title>indexterm</title>
<path fill="#bfcfff" stroke="black" d="M368.38,-111.77C368.38,-111.77 421.38,-111.77 421.38,-111.77 427.38,-111.77 433.38,-117.77 433.38,-123.77 433.38,-123.77 433.38,-135.77 433.38,-135.77 433.38,-141.77 427.38,-147.77 421.38,-147.77 421.38,-147.77 368.38,-147.77 368.38,-147.77 362.38,-147.77 356.38,-141.77 356.38,-135.77 356.38,-135.77 356.38,-123.77 356.38,-123.77 356.38,-117.77 362.38,-111.77 368.38,-111.77"/>
<text text-anchor="middle" x="394.88" y="-126.07" font-family="Arial" font-size="14.00">indexterm</text>
</g>
<!-- baseTopicElements&#45;&gt;indexterm -->
<g id="edge82" class="edge">
<title>baseTopicElements&#45;&gt;indexterm</title>
<path fill="none" stroke="#1f78b4" d="M514.79,-329.31C491.75,-290.97 438.1,-201.68 411.06,-156.69"/>
<polygon fill="#a6cee3" stroke="#1f78b4" points="414.02,-154.83 405.87,-148.06 408.02,-158.43 414.02,-154.83"/>
</g>
<!-- index&#45;see -->
<g id="node84" class="node">
<title>index&#45;see</title>
<path fill="#bfcfff" stroke="black" d="M511.31,-591.76C511.31,-591.76 562.31,-591.76 562.31,-591.76 568.31,-591.76 574.31,-597.76 574.31,-603.76 574.31,-603.76 574.31,-615.76 574.31,-615.76 574.31,-621.76 568.31,-627.76 562.31,-627.76 562.31,-627.76 511.31,-627.76 511.31,-627.76 505.31,-627.76 499.31,-621.76 499.31,-615.76 499.31,-615.76 499.31,-603.76 499.31,-603.76 499.31,-597.76 505.31,-591.76 511.31,-591.76"/>
<text text-anchor="middle" x="536.81" y="-606.06" font-family="Arial" font-size="14.00">index&#45;see</text>
</g>
<!-- baseTopicElements&#45;&gt;index&#45;see -->
<g id="edge83" class="edge">
<title>baseTopicElements&#45;&gt;index&#45;see</title>
<path fill="none" stroke="#1f78b4" d="M526.48,-365.52C528.37,-410.35 533.31,-527.12 535.61,-581.34"/>
<polygon fill="#a6cee3" stroke="#1f78b4" points="532.12,-581.76 536.04,-591.61 539.11,-581.47 532.12,-581.76"/>
</g>
<!-- index&#45;see&#45;also -->
<g id="node85" class="node">
<title>index&#45;see&#45;also</title>
<path fill="#bfcfff" stroke="black" d="M450.63,-501.65C450.63,-501.65 530.63,-501.65 530.63,-501.65 536.63,-501.65 542.63,-507.65 542.63,-513.65 542.63,-513.65 542.63,-525.65 542.63,-525.65 542.63,-531.65 536.63,-537.65 530.63,-537.65 530.63,-537.65 450.63,-537.65 450.63,-537.65 444.63,-537.65 438.63,-531.65 438.63,-525.65 438.63,-525.65 438.63,-513.65 438.63,-513.65 438.63,-507.65 444.63,-501.65 450.63,-501.65"/>
<text text-anchor="middle" x="490.63" y="-515.95" font-family="Arial" font-size="14.00">index&#45;see&#45;also</text>
</g>
<!-- baseTopicElements&#45;&gt;index&#45;see&#45;also -->
<g id="edge84" class="edge">
<title>baseTopicElements&#45;&gt;index&#45;see&#45;also</title>
<path fill="none" stroke="#1f78b4" d="M522.03,-365.59C515.92,-395.56 503.67,-455.7 496.4,-491.33"/>
<polygon fill="#a6cee3" stroke="#1f78b4" points="492.89,-491.04 494.32,-501.54 499.75,-492.44 492.89,-491.04"/>
</g>
<!-- cite -->
<g id="node86" class="node">
<title>cite</title>
<path fill="#bfcfff" stroke="black" d="M441.03,-46.86C441.03,-46.86 471.03,-46.86 471.03,-46.86 477.03,-46.86 483.03,-52.86 483.03,-58.86 483.03,-58.86 483.03,-70.86 483.03,-70.86 483.03,-76.86 477.03,-82.86 471.03,-82.86 471.03,-82.86 441.03,-82.86 441.03,-82.86 435.03,-82.86 429.03,-76.86 429.03,-70.86 429.03,-70.86 429.03,-58.86 429.03,-58.86 429.03,-52.86 435.03,-46.86 441.03,-46.86"/>
<text text-anchor="middle" x="456.03" y="-61.16" font-family="Arial" font-size="14.00">cite</text>
</g>
<!-- baseTopicElements&#45;&gt;cite -->
<g id="edge85" class="edge">
<title>baseTopicElements&#45;&gt;cite</title>
<path fill="none" stroke="#1f78b4" d="M521.25,-329.39C509.43,-281.44 477.26,-150.94 463,-93.1"/>
<polygon fill="#a6cee3" stroke="#1f78b4" points="466.34,-92.06 460.55,-83.19 459.55,-93.73 466.34,-92.06"/>
</g>
<!-- xref -->
<g id="node87" class="node">
<title>xref</title>
<path fill="#bfcfff" stroke="black" d="M806.66,-585.7C806.66,-585.7 836.66,-585.7 836.66,-585.7 842.66,-585.7 848.66,-591.7 848.66,-597.7 848.66,-597.7 848.66,-609.7 848.66,-609.7 848.66,-615.7 842.66,-621.7 836.66,-621.7 836.66,-621.7 806.66,-621.7 806.66,-621.7 800.66,-621.7 794.66,-615.7 794.66,-609.7 794.66,-609.7 794.66,-597.7 794.66,-597.7 794.66,-591.7 800.66,-585.7 806.66,-585.7"/>
<text text-anchor="middle" x="821.66" y="-600" font-family="Arial" font-size="14.00">xref</text>
</g>
<!-- baseTopicElements&#45;&gt;xref -->
<g id="edge86" class="edge">
<title>baseTopicElements&#45;&gt;xref</title>
<path fill="none" stroke="#1f78b4" d="M546.53,-365.51C598.3,-410.33 733,-526.94 792.58,-578.53"/>
<polygon fill="#a6cee3" stroke="#1f78b4" points="790.63,-581.46 800.48,-585.36 795.21,-576.17 790.63,-581.46"/>
</g>
<!-- fallback -->
<g id="node88" class="node">
<title>fallback</title>
<path fill="#bfcfff" stroke="black" d="M191.32,-261.04C191.32,-261.04 229.32,-261.04 229.32,-261.04 235.32,-261.04 241.32,-267.04 241.32,-273.04 241.32,-273.04 241.32,-285.04 241.32,-285.04 241.32,-291.04 235.32,-297.04 229.32,-297.04 229.32,-297.04 191.32,-297.04 191.32,-297.04 185.32,-297.04 179.32,-291.04 179.32,-285.04 179.32,-285.04 179.32,-273.04 179.32,-273.04 179.32,-267.04 185.32,-261.04 191.32,-261.04"/>
<text text-anchor="middle" x="210.32" y="-275.34" font-family="Arial" font-size="14.00">fallback</text>
</g>
<!-- baseTopicElements&#45;&gt;fallback -->
<g id="edge87" class="edge">
<title>baseTopicElements&#45;&gt;fallback</title>
<path fill="none" stroke="#1f78b4" d="M453.36,-331.79C390.92,-318.24 302.93,-299.14 251.74,-288.03"/>
<polygon fill="#a6cee3" stroke="#1f78b4" points="252.21,-284.56 241.7,-285.85 250.73,-291.4 252.21,-284.56"/>
</g>
<!-- include -->
<g id="node89" class="node">
<title>include</title>
<path fill="#bfcfff" stroke="black" d="M737.44,-629.5C737.44,-629.5 772.44,-629.5 772.44,-629.5 778.44,-629.5 784.44,-635.5 784.44,-641.5 784.44,-641.5 784.44,-653.5 784.44,-653.5 784.44,-659.5 778.44,-665.5 772.44,-665.5 772.44,-665.5 737.44,-665.5 737.44,-665.5 731.44,-665.5 725.44,-659.5 725.44,-653.5 725.44,-653.5 725.44,-641.5 725.44,-641.5 725.44,-635.5 731.44,-629.5 737.44,-629.5"/>
<text text-anchor="middle" x="754.94" y="-643.8" font-family="Arial" font-size="14.00">include</text>
</g>
<!-- baseTopicElements&#45;&gt;include -->
<g id="edge88" class="edge">
<title>baseTopicElements&#45;&gt;include</title>
<path fill="none" stroke="#1f78b4" d="M539.71,-365.81C578.81,-416.98 689.3,-561.59 734.89,-621.26"/>
<polygon fill="#a6cee3" stroke="#1f78b4" points="732.28,-623.6 741.13,-629.42 737.84,-619.35 732.28,-623.6"/>
</g>
<!-- audio -->
<g id="node90" class="node">
<title>audio</title>
<path fill="#bfcfff" stroke="black" d="M704.51,-239.26C704.51,-239.26 734.51,-239.26 734.51,-239.26 740.51,-239.26 746.51,-245.26 746.51,-251.26 746.51,-251.26 746.51,-263.26 746.51,-263.26 746.51,-269.26 740.51,-275.26 734.51,-275.26 734.51,-275.26 704.51,-275.26 704.51,-275.26 698.51,-275.26 692.51,-269.26 692.51,-263.26 692.51,-263.26 692.51,-251.26 692.51,-251.26 692.51,-245.26 698.51,-239.26 704.51,-239.26"/>
<text text-anchor="middle" x="719.51" y="-253.56" font-family="Arial" font-size="14.00">audio</text>
</g>
<!-- baseTopicElements&#45;&gt;audio -->
<g id="edge89" class="edge">
<title>baseTopicElements&#45;&gt;audio</title>
<path fill="none" stroke="#1f78b4" d="M564.47,-329.45C599.1,-313.33 649.45,-289.88 683.29,-274.12"/>
<polygon fill="#a6cee3" stroke="#1f78b4" points="684.78,-277.29 692.37,-269.9 681.82,-270.94 684.78,-277.29"/>
</g>
<!-- video -->
<g id="node91" class="node">
<title>video</title>
<path fill="#bfcfff" stroke="black" d="M441.2,-1.82C441.2,-1.82 471.2,-1.82 471.2,-1.82 477.2,-1.82 483.2,-7.82 483.2,-13.82 483.2,-13.82 483.2,-25.82 483.2,-25.82 483.2,-31.82 477.2,-37.82 471.2,-37.82 471.2,-37.82 441.2,-37.82 441.2,-37.82 435.2,-37.82 429.2,-31.82 429.2,-25.82 429.2,-25.82 429.2,-13.82 429.2,-13.82 429.2,-7.82 435.2,-1.82 441.2,-1.82"/>
<text text-anchor="middle" x="456.2" y="-16.12" font-family="Arial" font-size="14.00">video</text>
</g>
<!-- baseTopicElements&#45;&gt;video -->
<g id="edge90" class="edge">
<title>baseTopicElements&#45;&gt;video</title>
<path fill="none" stroke="#1f78b4" d="M521.88,-329.41C510.37,-275.14 476.05,-113.4 462.15,-47.86"/>
<polygon fill="#a6cee3" stroke="#1f78b4" points="465.52,-46.9 460.02,-37.85 458.67,-48.36 465.52,-46.9"/>
</g>
<!-- media&#45;source -->
<g id="node92" class="node">
<title>media&#45;source</title>
<path fill="#bfcfff" stroke="black" d="M123.73,-366.79C123.73,-366.79 198.73,-366.79 198.73,-366.79 204.73,-366.79 210.73,-372.79 210.73,-378.79 210.73,-378.79 210.73,-390.79 210.73,-390.79 210.73,-396.79 204.73,-402.79 198.73,-402.79 198.73,-402.79 123.73,-402.79 123.73,-402.79 117.73,-402.79 111.73,-396.79 111.73,-390.79 111.73,-390.79 111.73,-378.79 111.73,-378.79 111.73,-372.79 117.73,-366.79 123.73,-366.79"/>
<text text-anchor="middle" x="161.23" y="-381.09" font-family="Arial" font-size="14.00">media&#45;source</text>
</g>
<!-- baseTopicElements&#45;&gt;media&#45;source -->
<g id="edge91" class="edge">
<title>baseTopicElements&#45;&gt;media&#45;source</title>
<path fill="none" stroke="#1f78b4" d="M453.7,-354.86C385.71,-361.82 284.91,-372.14 221.18,-378.66"/>
<polygon fill="#a6cee3" stroke="#1f78b4" points="220.48,-375.21 210.89,-379.71 221.19,-382.17 220.48,-375.21"/>
</g>
<!-- media&#45;track -->
<g id="node93" class="node">
<title>media&#45;track</title>
<path fill="#bfcfff" stroke="black" d="M95.24,-266.19C95.24,-266.19 159.24,-266.19 159.24,-266.19 165.24,-266.19 171.24,-272.19 171.24,-278.19 171.24,-278.19 171.24,-290.19 171.24,-290.19 171.24,-296.19 165.24,-302.19 159.24,-302.19 159.24,-302.19 95.24,-302.19 95.24,-302.19 89.24,-302.19 83.24,-296.19 83.24,-290.19 83.24,-290.19 83.24,-278.19 83.24,-278.19 83.24,-272.19 89.24,-266.19 95.24,-266.19"/>
<text text-anchor="middle" x="127.24" y="-280.49" font-family="Arial" font-size="14.00">media&#45;track</text>
</g>
<!-- baseTopicElements&#45;&gt;media&#45;track -->
<g id="edge92" class="edge">
<title>baseTopicElements&#45;&gt;media&#45;track</title>
<path fill="none" stroke="#1f78b4" d="M453.56,-336.03C375.21,-323.58 251.88,-303.99 181.41,-292.79"/>
<polygon fill="#a6cee3" stroke="#1f78b4" points="181.84,-289.32 171.41,-291.2 180.74,-296.23 181.84,-289.32"/>
</g>
<!-- topic -->
<g id="node94" class="node">
<title>topic</title>
<path fill="#bfcfff" stroke="black" d="M508.97,-46.29C508.97,-46.29 538.97,-46.29 538.97,-46.29 544.97,-46.29 550.97,-52.29 550.97,-58.29 550.97,-58.29 550.97,-70.29 550.97,-70.29 550.97,-76.29 544.97,-82.29 538.97,-82.29 538.97,-82.29 508.97,-82.29 508.97,-82.29 502.97,-82.29 496.97,-76.29 496.97,-70.29 496.97,-70.29 496.97,-58.29 496.97,-58.29 496.97,-52.29 502.97,-46.29 508.97,-46.29"/>
<text text-anchor="middle" x="523.97" y="-60.59" font-family="Arial" font-size="14.00">topic</text>
</g>
<!-- baseTopicElements&#45;&gt;topic -->
<g id="edge93" class="edge">
<title>baseTopicElements&#45;&gt;topic</title>
<path fill="none" stroke="#1f78b4" d="M525.6,-329.35C525.31,-281.41 524.51,-151.09 524.15,-92.95"/>
<polygon fill="#a6cee3" stroke="#1f78b4" points="527.65,-92.63 524.09,-82.65 520.65,-92.67 527.65,-92.63"/>
</g>
<!-- abstract -->
<g id="node95" class="node">
<title>abstract</title>
<path fill="#bfcfff" stroke="black" d="M594.36,-582.42C594.36,-582.42 635.36,-582.42 635.36,-582.42 641.36,-582.42 647.36,-588.42 647.36,-594.42 647.36,-594.42 647.36,-606.42 647.36,-606.42 647.36,-612.42 641.36,-618.42 635.36,-618.42 635.36,-618.42 594.36,-618.42 594.36,-618.42 588.36,-618.42 582.36,-612.42 582.36,-606.42 582.36,-606.42 582.36,-594.42 582.36,-594.42 582.36,-588.42 588.36,-582.42 594.36,-582.42"/>
<text text-anchor="middle" x="614.86" y="-596.72" font-family="Arial" font-size="14.00">abstract</text>
</g>
<!-- baseTopicElements&#45;&gt;abstract -->
<g id="edge94" class="edge">
<title>baseTopicElements&#45;&gt;abstract</title>
<path fill="none" stroke="#1f78b4" d="M532.13,-365.69C547.55,-409.43 586.79,-520.76 605.13,-572.81"/>
<polygon fill="#a6cee3" stroke="#1f78b4" points="601.89,-574.12 608.51,-582.39 608.49,-571.8 601.89,-574.12"/>
</g>
<!-- body -->
<g id="node96" class="node">
<title>body</title>
<path fill="#bfcfff" stroke="black" d="M321.55,-506.54C321.55,-506.54 351.55,-506.54 351.55,-506.54 357.55,-506.54 363.55,-512.54 363.55,-518.54 363.55,-518.54 363.55,-530.54 363.55,-530.54 363.55,-536.54 357.55,-542.54 351.55,-542.54 351.55,-542.54 321.55,-542.54 321.55,-542.54 315.55,-542.54 309.55,-536.54 309.55,-530.54 309.55,-530.54 309.55,-518.54 309.55,-518.54 309.55,-512.54 315.55,-506.54 321.55,-506.54"/>
<text text-anchor="middle" x="336.55" y="-520.84" font-family="Arial" font-size="14.00">body</text>
</g>
<!-- baseTopicElements&#45;&gt;body -->
<g id="edge95" class="edge">
<title>baseTopicElements&#45;&gt;body</title>
<path fill="none" stroke="#1f78b4" d="M506.18,-365.78C472.26,-397.53 402.36,-462.94 363.73,-499.11"/>
<polygon fill="#a6cee3" stroke="#1f78b4" points="360.89,-496.97 355.98,-506.36 365.67,-502.08 360.89,-496.97"/>
</g>
<!-- bodydiv -->
<g id="node97" class="node">
<title>bodydiv</title>
<path fill="#bfcfff" stroke="black" d="M667.41,-542.12C667.41,-542.12 706.41,-542.12 706.41,-542.12 712.41,-542.12 718.41,-548.12 718.41,-554.12 718.41,-554.12 718.41,-566.12 718.41,-566.12 718.41,-572.12 712.41,-578.12 706.41,-578.12 706.41,-578.12 667.41,-578.12 667.41,-578.12 661.41,-578.12 655.41,-572.12 655.41,-566.12 655.41,-566.12 655.41,-554.12 655.41,-554.12 655.41,-548.12 661.41,-542.12 667.41,-542.12"/>
<text text-anchor="middle" x="686.91" y="-556.42" font-family="Arial" font-size="14.00">bodydiv</text>
</g>
<!-- baseTopicElements&#45;&gt;bodydiv -->
<g id="edge96" class="edge">
<title>baseTopicElements&#45;&gt;bodydiv</title>
<path fill="none" stroke="#1f78b4" d="M539.46,-365.62C568.01,-403.28 633.84,-490.11 667.02,-533.88"/>
<polygon fill="#a6cee3" stroke="#1f78b4" points="664.37,-536.18 673.2,-542.04 669.95,-531.95 664.37,-536.18"/>
</g>
<!-- no&#45;topic&#45;nesting -->
<g id="node98" class="node">
<title>no&#45;topic&#45;nesting</title>
<path fill="#bfcfff" stroke="black" d="M11.68,-412.44C11.68,-412.44 100.68,-412.44 100.68,-412.44 106.68,-412.44 112.68,-418.44 112.68,-424.44 112.68,-424.44 112.68,-436.44 112.68,-436.44 112.68,-442.44 106.68,-448.44 100.68,-448.44 100.68,-448.44 11.68,-448.44 11.68,-448.44 5.68,-448.44 -0.32,-442.44 -0.32,-436.44 -0.32,-436.44 -0.32,-424.44 -0.32,-424.44 -0.32,-418.44 5.68,-412.44 11.68,-412.44"/>
<text text-anchor="middle" x="56.18" y="-426.74" font-family="Arial" font-size="14.00">no&#45;topic&#45;nesting</text>
</g>
<!-- baseTopicElements&#45;&gt;no&#45;topic&#45;nesting -->
<g id="edge97" class="edge">
<title>baseTopicElements&#45;&gt;no&#45;topic&#45;nesting</title>
<path fill="none" stroke="#1f78b4" d="M453.64,-360.23C363.5,-376.15 210.43,-403.2 122.88,-418.66"/>
<polygon fill="#a6cee3" stroke="#1f78b4" points="122.04,-415.26 112.8,-420.44 123.26,-422.15 122.04,-415.26"/>
</g>
<!-- section -->
<g id="node99" class="node">
<title>section</title>
<path fill="#bfcfff" stroke="black" d="M811.63,-446.82C811.63,-446.82 846.63,-446.82 846.63,-446.82 852.63,-446.82 858.63,-452.82 858.63,-458.82 858.63,-458.82 858.63,-470.82 858.63,-470.82 858.63,-476.82 852.63,-482.82 846.63,-482.82 846.63,-482.82 811.63,-482.82 811.63,-482.82 805.63,-482.82 799.63,-476.82 799.63,-470.82 799.63,-470.82 799.63,-458.82 799.63,-458.82 799.63,-452.82 805.63,-446.82 811.63,-446.82"/>
<text text-anchor="middle" x="829.13" y="-461.12" font-family="Arial" font-size="14.00">section</text>
</g>
<!-- baseTopicElements&#45;&gt;section -->
<g id="edge98" class="edge">
<title>baseTopicElements&#45;&gt;section</title>
<path fill="none" stroke="#1f78b4" d="M572.46,-365.57C632.05,-388.61 734.02,-428.04 789.81,-449.61"/>
<polygon fill="#a6cee3" stroke="#1f78b4" points="788.75,-452.96 799.34,-453.3 791.28,-446.43 788.75,-452.96"/>
</g>
<!-- prolog -->
<g id="node100" class="node">
<title>prolog</title>
<path fill="#bfcfff" stroke="black" d="M241.53,-125.99C241.53,-125.99 271.53,-125.99 271.53,-125.99 277.53,-125.99 283.53,-131.99 283.53,-137.99 283.53,-137.99 283.53,-149.99 283.53,-149.99 283.53,-155.99 277.53,-161.99 271.53,-161.99 271.53,-161.99 241.53,-161.99 241.53,-161.99 235.53,-161.99 229.53,-155.99 229.53,-149.99 229.53,-149.99 229.53,-137.99 229.53,-137.99 229.53,-131.99 235.53,-125.99 241.53,-125.99"/>
<text text-anchor="middle" x="256.53" y="-140.29" font-family="Arial" font-size="14.00">prolog</text>
</g>
<!-- baseTopicElements&#45;&gt;prolog -->
<g id="edge99" class="edge">
<title>baseTopicElements&#45;&gt;prolog</title>
<path fill="none" stroke="#1f78b4" d="M501.83,-329.44C453.34,-292.78 343.34,-209.62 288.65,-168.27"/>
<polygon fill="#a6cee3" stroke="#1f78b4" points="290.45,-165.25 280.36,-162.01 286.23,-170.83 290.45,-165.25"/>
</g>
<!-- related&#45;links -->
<g id="node101" class="node">
<title>related&#45;links</title>
<path fill="#bfcfff" stroke="black" d="M119.47,-186.83C119.47,-186.83 184.47,-186.83 184.47,-186.83 190.47,-186.83 196.47,-192.83 196.47,-198.83 196.47,-198.83 196.47,-210.83 196.47,-210.83 196.47,-216.83 190.47,-222.83 184.47,-222.83 184.47,-222.83 119.47,-222.83 119.47,-222.83 113.47,-222.83 107.47,-216.83 107.47,-210.83 107.47,-210.83 107.47,-198.83 107.47,-198.83 107.47,-192.83 113.47,-186.83 119.47,-186.83"/>
<text text-anchor="middle" x="151.97" y="-201.13" font-family="Arial" font-size="14.00">related&#45;links</text>
</g>
<!-- baseTopicElements&#45;&gt;related&#45;links -->
<g id="edge100" class="edge">
<title>baseTopicElements&#45;&gt;related&#45;links</title>
<path fill="none" stroke="#1f78b4" d="M478.38,-329.43C408.83,-302.88 279.35,-253.45 206.11,-225.49"/>
<polygon fill="#a6cee3" stroke="#1f78b4" points="207.19,-222.16 196.6,-221.86 204.69,-228.7 207.19,-222.16"/>
</g>
<!-- link -->
<g id="node102" class="node">
<title>link</title>
<path fill="#bfcfff" stroke="black" d="M574.8,-47.81C574.8,-47.81 604.8,-47.81 604.8,-47.81 610.8,-47.81 616.8,-53.81 616.8,-59.81 616.8,-59.81 616.8,-71.81 616.8,-71.81 616.8,-77.81 610.8,-83.81 604.8,-83.81 604.8,-83.81 574.8,-83.81 574.8,-83.81 568.8,-83.81 562.8,-77.81 562.8,-71.81 562.8,-71.81 562.8,-59.81 562.8,-59.81 562.8,-53.81 568.8,-47.81 574.8,-47.81"/>
<text text-anchor="middle" x="589.8" y="-62.11" font-family="Arial" font-size="14.00">link</text>
</g>
<!-- baseTopicElements&#45;&gt;link -->
<g id="edge101" class="edge">
<title>baseTopicElements&#45;&gt;link</title>
<path fill="none" stroke="#1f78b4" d="M529.82,-329.45C540.69,-281.66 570.29,-151.6 583.4,-93.96"/>
<polygon fill="#a6cee3" stroke="#1f78b4" points="586.84,-94.6 585.65,-84.07 580.02,-93.05 586.84,-94.6"/>
</g>
<!-- linklist -->
<g id="node103" class="node">
<title>linklist</title>
<path fill="#bfcfff" stroke="black" d="M234.4,-441.14C234.4,-441.14 264.4,-441.14 264.4,-441.14 270.4,-441.14 276.4,-447.14 276.4,-453.14 276.4,-453.14 276.4,-465.14 276.4,-465.14 276.4,-471.14 270.4,-477.14 264.4,-477.14 264.4,-477.14 234.4,-477.14 234.4,-477.14 228.4,-477.14 222.4,-471.14 222.4,-465.14 222.4,-465.14 222.4,-453.14 222.4,-453.14 222.4,-447.14 228.4,-441.14 234.4,-441.14"/>
<text text-anchor="middle" x="249.4" y="-455.44" font-family="Arial" font-size="14.00">linklist</text>
</g>
<!-- baseTopicElements&#45;&gt;linklist -->
<g id="edge102" class="edge">
<title>baseTopicElements&#45;&gt;linklist</title>
<path fill="none" stroke="#1f78b4" d="M481.01,-365.56C426.74,-387.49 336.25,-424.05 285.95,-444.38"/>
<polygon fill="#a6cee3" stroke="#1f78b4" points="284.41,-441.22 276.45,-448.21 287.03,-447.71 284.41,-441.22"/>
</g>
<!-- linkinfo -->
<g id="node104" class="node">
<title>linkinfo</title>
<path fill="#bfcfff" stroke="black" d="M373.89,-66.76C373.89,-66.76 408.89,-66.76 408.89,-66.76 414.89,-66.76 420.89,-72.76 420.89,-78.76 420.89,-78.76 420.89,-90.76 420.89,-90.76 420.89,-96.76 414.89,-102.76 408.89,-102.76 408.89,-102.76 373.89,-102.76 373.89,-102.76 367.89,-102.76 361.89,-96.76 361.89,-90.76 361.89,-90.76 361.89,-78.76 361.89,-78.76 361.89,-72.76 367.89,-66.76 373.89,-66.76"/>
<text text-anchor="middle" x="391.39" y="-81.06" font-family="Arial" font-size="14.00">linkinfo</text>
</g>
<!-- baseTopicElements&#45;&gt;linkinfo -->
<g id="edge103" class="edge">
<title>baseTopicElements&#45;&gt;linkinfo</title>
<path fill="none" stroke="#1f78b4" d="M516.48,-329.44C493.33,-284.16 432.71,-165.59 405.26,-111.89"/>
<polygon fill="#a6cee3" stroke="#1f78b4" points="408.36,-110.26 400.69,-102.95 402.12,-113.44 408.36,-110.26"/>
</g>
<!-- linkpool -->
<g id="node105" class="node">
<title>linkpool</title>
<path fill="#bfcfff" stroke="black" d="M232.93,-80.95C232.93,-80.95 270.93,-80.95 270.93,-80.95 276.93,-80.95 282.93,-86.95 282.93,-92.95 282.93,-92.95 282.93,-104.95 282.93,-104.95 282.93,-110.95 276.93,-116.95 270.93,-116.95 270.93,-116.95 232.93,-116.95 232.93,-116.95 226.93,-116.95 220.93,-110.95 220.93,-104.95 220.93,-104.95 220.93,-92.95 220.93,-92.95 220.93,-86.95 226.93,-80.95 232.93,-80.95"/>
<text text-anchor="middle" x="251.93" y="-95.25" font-family="Arial" font-size="14.00">linkpool</text>
</g>
<!-- baseTopicElements&#45;&gt;linkpool -->
<g id="edge104" class="edge">
<title>baseTopicElements&#45;&gt;linkpool</title>
<path fill="none" stroke="#1f78b4" d="M505.58,-329.22C457.33,-285.41 334.97,-174.34 279.74,-124.2"/>
<polygon fill="#a6cee3" stroke="#1f78b4" points="281.85,-121.39 272.09,-117.26 277.14,-126.57 281.85,-121.39"/>
</g>
<!-- linktext -->
<g id="node106" class="node">
<title>linktext</title>
<path fill="#bfcfff" stroke="black" d="M383.58,-481.63C383.58,-481.63 418.58,-481.63 418.58,-481.63 424.58,-481.63 430.58,-487.63 430.58,-493.63 430.58,-493.63 430.58,-505.63 430.58,-505.63 430.58,-511.63 424.58,-517.63 418.58,-517.63 418.58,-517.63 383.58,-517.63 383.58,-517.63 377.58,-517.63 371.58,-511.63 371.58,-505.63 371.58,-505.63 371.58,-493.63 371.58,-493.63 371.58,-487.63 377.58,-481.63 383.58,-481.63"/>
<text text-anchor="middle" x="401.08" y="-495.93" font-family="Arial" font-size="14.00">linktext</text>
</g>
<!-- baseTopicElements&#45;&gt;linktext -->
<g id="edge105" class="edge">
<title>baseTopicElements&#45;&gt;linktext</title>
<path fill="none" stroke="#1f78b4" d="M510.93,-365.55C488.91,-392.42 447.4,-443.09 422.19,-473.86"/>
<polygon fill="#a6cee3" stroke="#1f78b4" points="419.48,-471.65 415.85,-481.6 424.89,-476.09 419.48,-471.65"/>
</g>
</g>
</svg>
