<?xml version="1.0" encoding="UTF-8" standalone="no"?>
<!DOCTYPE svg PUBLIC "-//W3C//DTD SVG 1.1//EN"
 "http://www.w3.org/Graphics/SVG/1.1/DTD/svg11.dtd">
<!-- Generated by graphviz version 6.0.1 (20220911.1526)
 -->
<!-- Pages: 1 -->
<svg width="365pt" height="188pt"
 viewBox="0.00 0.00 365.00 188.00" xmlns="http://www.w3.org/2000/svg" xmlns:xlink="http://www.w3.org/1999/xlink">
<g id="graph0" class="graph" transform="scale(1 1) rotate(0) translate(4 184)">
<polygon fill="white" stroke="none" points="-4,4 -4,-184 361,-184 361,4 -4,4"/>
<!-- specializations -->
<g id="node1" class="node">
<title>specializations</title>
<path fill="#afa7f4" stroke="black" d="M143.95,-47.86C143.95,-47.86 250.95,-47.86 250.95,-47.86 256.95,-47.86 262.95,-53.86 262.95,-59.86 262.95,-59.86 262.95,-71.86 262.95,-71.86 262.95,-77.86 256.95,-83.86 250.95,-83.86 250.95,-83.86 143.95,-83.86 143.95,-83.86 137.95,-83.86 131.95,-77.86 131.95,-71.86 131.95,-71.86 131.95,-59.86 131.95,-59.86 131.95,-53.86 137.95,-47.86 143.95,-47.86"/>
<text text-anchor="middle" x="185.45" y="-62.16" font-family="Arial" font-size="14.00">Specializations</text>
<polyline fill="none" stroke="black" points="238.95,-47.86 238.95,-83.86"/>
<text text-anchor="middle" x="250.95" y="-62.16" font-family="Arial" font-size="14.00">7</text>
</g>
<!-- bookmap -->
<g id="node2" class="node">
<title>bookmap</title>
<path fill="#1afabc" stroke="black" d="M282.93,-143.1C282.93,-143.1 331.93,-143.1 331.93,-143.1 337.93,-143.1 343.93,-149.1 343.93,-155.1 343.93,-155.1 343.93,-167.1 343.93,-167.1 343.93,-173.1 337.93,-179.1 331.93,-179.1 331.93,-179.1 282.93,-179.1 282.93,-179.1 276.93,-179.1 270.93,-173.1 270.93,-167.1 270.93,-167.1 270.93,-155.1 270.93,-155.1 270.93,-149.1 276.93,-143.1 282.93,-143.1"/>
<text text-anchor="middle" x="307.43" y="-157.4" font-family="Arial" font-size="14.00">bookmap</text>
</g>
<!-- specializations&#45;&gt;bookmap -->
<g id="edge1" class="edge">
<title>specializations&#45;&gt;bookmap</title>
<path fill="none" stroke="#1f78b4" d="M218.4,-83.99C235.52,-98.82 259.9,-119.94 278.83,-136.33"/>
<polygon fill="#a6cee3" stroke="#1f78b4" points="276.71,-139.13 286.56,-143.03 281.29,-133.83 276.71,-139.13"/>
</g>
<!-- troubleshooting -->
<g id="node3" class="node">
<title>troubleshooting</title>
<path fill="#1afabc" stroke="black" d="M108.7,-1.74C108.7,-1.74 193.7,-1.74 193.7,-1.74 199.7,-1.74 205.7,-7.74 205.7,-13.74 205.7,-13.74 205.7,-25.74 205.7,-25.74 205.7,-31.74 199.7,-37.74 193.7,-37.74 193.7,-37.74 108.7,-37.74 108.7,-37.74 102.7,-37.74 96.7,-31.74 96.7,-25.74 96.7,-25.74 96.7,-13.74 96.7,-13.74 96.7,-7.74 102.7,-1.74 108.7,-1.74"/>
<text text-anchor="middle" x="151.2" y="-16.04" font-family="Arial" font-size="14.00">troubleshooting</text>
</g>
<!-- specializations&#45;&gt;troubleshooting -->
<g id="edge2" class="edge">
<title>specializations&#45;&gt;troubleshooting</title>
<path fill="none" stroke="#1f78b4" d="M179.17,-47.63C178.36,-46.82 177.55,-46.01 176.73,-45.19"/>
<polygon fill="#a6cee3" stroke="#1f78b4" points="178.9,-42.42 169.35,-37.83 173.96,-47.37 178.9,-42.42"/>
</g>
<!-- reference -->
<g id="node4" class="node">
<title>reference</title>
<path fill="#1afabc" stroke="black" d="M50.14,-141.72C50.14,-141.72 100.14,-141.72 100.14,-141.72 106.14,-141.72 112.14,-147.72 112.14,-153.72 112.14,-153.72 112.14,-165.72 112.14,-165.72 112.14,-171.72 106.14,-177.72 100.14,-177.72 100.14,-177.72 50.14,-177.72 50.14,-177.72 44.14,-177.72 38.14,-171.72 38.14,-165.72 38.14,-165.72 38.14,-153.72 38.14,-153.72 38.14,-147.72 44.14,-141.72 50.14,-141.72"/>
<text text-anchor="middle" x="75.14" y="-156.02" font-family="Arial" font-size="14.00">reference</text>
</g>
<!-- specializations&#45;&gt;reference -->
<g id="edge3" class="edge">
<title>specializations&#45;&gt;reference</title>
<path fill="none" stroke="#1f78b4" d="M173.87,-83.95C154.75,-98.63 127.63,-119.44 106.65,-135.54"/>
<polygon fill="#a6cee3" stroke="#1f78b4" points="104.45,-132.82 98.65,-141.68 108.71,-138.37 104.45,-132.82"/>
</g>
<!-- task -->
<g id="node5" class="node">
<title>task</title>
<path fill="#1afabc" stroke="black" d="M315.33,-18.49C315.33,-18.49 345.33,-18.49 345.33,-18.49 351.33,-18.49 357.33,-24.49 357.33,-30.49 357.33,-30.49 357.33,-42.49 357.33,-42.49 357.33,-48.49 351.33,-54.49 345.33,-54.49 345.33,-54.49 315.33,-54.49 315.33,-54.49 309.33,-54.49 303.33,-48.49 303.33,-42.49 303.33,-42.49 303.33,-30.49 303.33,-30.49 303.33,-24.49 309.33,-18.49 315.33,-18.49"/>
<text text-anchor="middle" x="330.33" y="-32.79" font-family="Arial" font-size="14.00">task</text>
</g>
<!-- specializations&#45;&gt;task -->
<g id="edge4" class="edge">
<title>specializations&#45;&gt;task</title>
<path fill="none" stroke="#1f78b4" d="M263.11,-51.35C273.48,-49.06 283.88,-46.76 293.29,-44.68"/>
<polygon fill="#a6cee3" stroke="#1f78b4" points="294.06,-48.09 303.07,-42.52 292.55,-41.26 294.06,-48.09"/>
</g>
<!-- glossentry -->
<g id="node6" class="node">
<title>glossentry</title>
<path fill="#1afabc" stroke="black" d="M162.38,-99.78C162.38,-99.78 216.38,-99.78 216.38,-99.78 222.38,-99.78 228.38,-105.78 228.38,-111.78 228.38,-111.78 228.38,-123.78 228.38,-123.78 228.38,-129.78 222.38,-135.78 216.38,-135.78 216.38,-135.78 162.38,-135.78 162.38,-135.78 156.38,-135.78 150.38,-129.78 150.38,-123.78 150.38,-123.78 150.38,-111.78 150.38,-111.78 150.38,-105.78 156.38,-99.78 162.38,-99.78"/>
<text text-anchor="middle" x="189.38" y="-114.08" font-family="Arial" font-size="14.00">glossentry</text>
</g>
<!-- specializations&#45;&gt;glossentry -->
<g id="edge5" class="edge">
<title>specializations&#45;&gt;glossentry</title>
<path fill="none" stroke="#1f78b4" d="M194.63,-84.01C194.36,-85.74 194.08,-87.52 193.8,-89.32"/>
<polygon fill="#a6cee3" stroke="#1f78b4" points="190.29,-89.12 192.22,-99.54 197.21,-90.19 190.29,-89.12"/>
</g>
<!-- glossgroup -->
<g id="node7" class="node">
<title>glossgroup</title>
<path fill="#1afabc" stroke="black" d="M11.55,-20.87C11.55,-20.87 70.55,-20.87 70.55,-20.87 76.55,-20.87 82.55,-26.87 82.55,-32.87 82.55,-32.87 82.55,-44.87 82.55,-44.87 82.55,-50.87 76.55,-56.87 70.55,-56.87 70.55,-56.87 11.55,-56.87 11.55,-56.87 5.55,-56.87 -0.45,-50.87 -0.45,-44.87 -0.45,-44.87 -0.45,-32.87 -0.45,-32.87 -0.45,-26.87 5.55,-20.87 11.55,-20.87"/>
<text text-anchor="middle" x="41.05" y="-35.17" font-family="Arial" font-size="14.00">glossgroup</text>
</g>
<!-- specializations&#45;&gt;glossgroup -->
<g id="edge6" class="edge">
<title>specializations&#45;&gt;glossgroup</title>
<path fill="none" stroke="#1f78b4" d="M131.58,-54.49C118.66,-52.26 105.29,-49.96 92.91,-47.82"/>
<polygon fill="#a6cee3" stroke="#1f78b4" points="93.23,-44.32 82.78,-46.07 92.04,-51.22 93.23,-44.32"/>
</g>
<!-- concept -->
<g id="node8" class="node">
<title>concept</title>
<path fill="#1afabc" stroke="black" d="M228.21,-0.01C228.21,-0.01 268.21,-0.01 268.21,-0.01 274.21,-0.01 280.21,-6.01 280.21,-12.01 280.21,-12.01 280.21,-24.01 280.21,-24.01 280.21,-30.01 274.21,-36.01 268.21,-36.01 268.21,-36.01 228.21,-36.01 228.21,-36.01 222.21,-36.01 216.21,-30.01 216.21,-24.01 216.21,-24.01 216.21,-12.01 216.21,-12.01 216.21,-6.01 222.21,-0.01 228.21,-0.01"/>
<text text-anchor="middle" x="248.21" y="-14.31" font-family="Arial" font-size="14.00">concept</text>
</g>
<!-- specializations&#45;&gt;concept -->
<g id="edge7" class="edge">
<title>specializations&#45;&gt;concept</title>
<path fill="none" stroke="#1f78b4" d="M216.64,-47.77C218.28,-46.22 219.96,-44.64 221.65,-43.05"/>
<polygon fill="#a6cee3" stroke="#1f78b4" points="224.12,-45.53 228.99,-36.12 219.32,-40.44 224.12,-45.53"/>
</g>
</g>
</svg>
