<?xml version="1.0" encoding="UTF-8" standalone="no"?>
<!DOCTYPE svg PUBLIC "-//W3C//DTD SVG 1.1//EN"
 "http://www.w3.org/Graphics/SVG/1.1/DTD/svg11.dtd">
<!-- Generated by graphviz version 6.0.1 (20220911.1526)
 -->
<!-- Pages: 1 -->
<svg width="1168pt" height="1207pt"
 viewBox="0.00 0.00 1168.00 1207.00" xmlns="http://www.w3.org/2000/svg" xmlns:xlink="http://www.w3.org/1999/xlink">
<g id="graph0" class="graph" transform="scale(1 1) rotate(0) translate(4 1203)">
<polygon fill="white" stroke="none" points="-4,4 -4,-1203 1164,-1203 1164,4 -4,4"/>
<!-- bookmapModule -->
<g id="node1" class="node">
<title>bookmapModule</title>
<path fill="#dddddd" stroke="black" d="M488.45,-604.14C488.45,-604.14 582.45,-604.14 582.45,-604.14 588.45,-604.14 594.45,-610.14 594.45,-616.14 594.45,-616.14 594.45,-628.14 594.45,-628.14 594.45,-634.14 588.45,-640.14 582.45,-640.14 582.45,-640.14 488.45,-640.14 488.45,-640.14 482.45,-640.14 476.45,-634.14 476.45,-628.14 476.45,-628.14 476.45,-616.14 476.45,-616.14 476.45,-610.14 482.45,-604.14 488.45,-604.14"/>
<text text-anchor="middle" x="535.45" y="-618.44" font-family="Arial" font-size="14.00">bookmapModule</text>
</g>
<!-- map -->
<g id="node2" class="node">
<title>map</title>
<path fill="#afa7f4" stroke="black" d="M572.03,-445.34C572.03,-445.34 602.03,-445.34 602.03,-445.34 608.03,-445.34 614.03,-451.34 614.03,-457.34 614.03,-457.34 614.03,-469.34 614.03,-469.34 614.03,-475.34 608.03,-481.34 602.03,-481.34 602.03,-481.34 572.03,-481.34 572.03,-481.34 566.03,-481.34 560.03,-475.34 560.03,-469.34 560.03,-469.34 560.03,-457.34 560.03,-457.34 560.03,-451.34 566.03,-445.34 572.03,-445.34"/>
<text text-anchor="middle" x="587.03" y="-459.64" font-family="Arial" font-size="14.00">map</text>
</g>
<!-- bookmapModule&#45;&gt;map -->
<g id="edge1" class="edge">
<title>bookmapModule&#45;&gt;map</title>
<path fill="none" stroke="#1f78b4" d="M541.37,-603.93C550.35,-576.29 567.48,-523.54 578.01,-491.11"/>
<polygon fill="#a6cee3" stroke="#1f78b4" points="581.42,-491.94 581.18,-481.34 574.77,-489.77 581.42,-491.94"/>
</g>
<!-- topicmeta -->
<g id="node4" class="node">
<title>topicmeta</title>
<path fill="#afa7f4" stroke="black" d="M637.4,-444.27C637.4,-444.27 689.4,-444.27 689.4,-444.27 695.4,-444.27 701.4,-450.27 701.4,-456.27 701.4,-456.27 701.4,-468.27 701.4,-468.27 701.4,-474.27 695.4,-480.27 689.4,-480.27 689.4,-480.27 637.4,-480.27 637.4,-480.27 631.4,-480.27 625.4,-474.27 625.4,-468.27 625.4,-468.27 625.4,-456.27 625.4,-456.27 625.4,-450.27 631.4,-444.27 637.4,-444.27"/>
<text text-anchor="middle" x="663.4" y="-458.57" font-family="Arial" font-size="14.00">topicmeta</text>
</g>
<!-- bookmapModule&#45;&gt;topicmeta -->
<g id="edge3" class="edge">
<title>bookmapModule&#45;&gt;topicmeta</title>
<path fill="none" stroke="#1f78b4" d="M549.88,-604.12C572.44,-575.93 616.18,-521.28 642.28,-488.66"/>
<polygon fill="#a6cee3" stroke="#1f78b4" points="645.32,-490.47 648.83,-480.48 639.85,-486.1 645.32,-490.47"/>
</g>
<!-- topicref -->
<g id="node6" class="node">
<title>topicref</title>
<path fill="#afa7f4" stroke="black" d="M277.22,-234.99C277.22,-234.99 314.22,-234.99 314.22,-234.99 320.22,-234.99 326.22,-240.99 326.22,-246.99 326.22,-246.99 326.22,-258.99 326.22,-258.99 326.22,-264.99 320.22,-270.99 314.22,-270.99 314.22,-270.99 277.22,-270.99 277.22,-270.99 271.22,-270.99 265.22,-264.99 265.22,-258.99 265.22,-258.99 265.22,-246.99 265.22,-246.99 265.22,-240.99 271.22,-234.99 277.22,-234.99"/>
<text text-anchor="middle" x="295.72" y="-249.29" font-family="Arial" font-size="14.00">topicref</text>
</g>
<!-- bookmapModule&#45;&gt;topicref -->
<g id="edge5" class="edge">
<title>bookmapModule&#45;&gt;topicref</title>
<path fill="none" stroke="#1f78b4" d="M523.73,-604.09C484.69,-543.98 359,-350.44 312.89,-279.43"/>
<polygon fill="#a6cee3" stroke="#1f78b4" points="315.8,-277.49 307.42,-271.01 309.93,-281.31 315.8,-277.49"/>
</g>
<!-- publisher -->
<g id="node30" class="node">
<title>publisher</title>
<path fill="#afa7f4" stroke="black" d="M698.96,-550.78C698.96,-550.78 745.96,-550.78 745.96,-550.78 751.96,-550.78 757.96,-556.78 757.96,-562.78 757.96,-562.78 757.96,-574.78 757.96,-574.78 757.96,-580.78 751.96,-586.78 745.96,-586.78 745.96,-586.78 698.96,-586.78 698.96,-586.78 692.96,-586.78 686.96,-580.78 686.96,-574.78 686.96,-574.78 686.96,-562.78 686.96,-562.78 686.96,-556.78 692.96,-550.78 698.96,-550.78"/>
<text text-anchor="middle" x="722.46" y="-565.08" font-family="Arial" font-size="14.00">publisher</text>
</g>
<!-- bookmapModule&#45;&gt;publisher -->
<g id="edge29" class="edge">
<title>bookmapModule&#45;&gt;publisher</title>
<path fill="none" stroke="#1f78b4" d="M594.62,-605.26C621.24,-597.66 652.16,-588.84 676.93,-581.77"/>
<polygon fill="#a6cee3" stroke="#1f78b4" points="678.13,-585.07 686.79,-578.96 676.21,-578.34 678.13,-585.07"/>
</g>
<!-- data -->
<g id="node32" class="node">
<title>data</title>
<path fill="#afa7f4" stroke="black" d="M832.72,-902.86C832.72,-902.86 862.72,-902.86 862.72,-902.86 868.72,-902.86 874.72,-908.86 874.72,-914.86 874.72,-914.86 874.72,-926.86 874.72,-926.86 874.72,-932.86 868.72,-938.86 862.72,-938.86 862.72,-938.86 832.72,-938.86 832.72,-938.86 826.72,-938.86 820.72,-932.86 820.72,-926.86 820.72,-926.86 820.72,-914.86 820.72,-914.86 820.72,-908.86 826.72,-902.86 832.72,-902.86"/>
<text text-anchor="middle" x="847.72" y="-917.16" font-family="Arial" font-size="14.00">data</text>
</g>
<!-- bookmapModule&#45;&gt;data -->
<g id="edge31" class="edge">
<title>bookmapModule&#45;&gt;data</title>
<path fill="none" stroke="#1f78b4" d="M554.52,-640.38C607.98,-691.52 759.44,-836.41 821.1,-895.4"/>
<polygon fill="#a6cee3" stroke="#1f78b4" points="818.86,-898.1 828.51,-902.48 823.7,-893.04 818.86,-898.1"/>
</g>
<!-- ph -->
<g id="node57" class="node">
<title>ph</title>
<path fill="#afa7f4" stroke="black" d="M259.02,-829.83C259.02,-829.83 289.02,-829.83 289.02,-829.83 295.02,-829.83 301.02,-835.83 301.02,-841.83 301.02,-841.83 301.02,-853.83 301.02,-853.83 301.02,-859.83 295.02,-865.83 289.02,-865.83 289.02,-865.83 259.02,-865.83 259.02,-865.83 253.02,-865.83 247.02,-859.83 247.02,-853.83 247.02,-853.83 247.02,-841.83 247.02,-841.83 247.02,-835.83 253.02,-829.83 259.02,-829.83"/>
<text text-anchor="middle" x="274.02" y="-844.13" font-family="Arial" font-size="14.00">ph</text>
</g>
<!-- bookmapModule&#45;&gt;ph -->
<g id="edge56" class="edge">
<title>bookmapModule&#45;&gt;ph</title>
<path fill="none" stroke="#1f78b4" d="M514.5,-640.23C467.94,-680.43 355.8,-777.23 302.75,-823.02"/>
<polygon fill="#a6cee3" stroke="#1f78b4" points="300.35,-820.47 295.07,-829.66 304.93,-825.77 300.35,-820.47"/>
</g>
<!-- title -->
<g id="node68" class="node">
<title>title</title>
<path fill="#afa7f4" stroke="black" d="M661.87,-505.77C661.87,-505.77 691.87,-505.77 691.87,-505.77 697.87,-505.77 703.87,-511.77 703.87,-517.77 703.87,-517.77 703.87,-529.77 703.87,-529.77 703.87,-535.77 697.87,-541.77 691.87,-541.77 691.87,-541.77 661.87,-541.77 661.87,-541.77 655.87,-541.77 649.87,-535.77 649.87,-529.77 649.87,-529.77 649.87,-517.77 649.87,-517.77 649.87,-511.77 655.87,-505.77 661.87,-505.77"/>
<text text-anchor="middle" x="676.87" y="-520.07" font-family="Arial" font-size="14.00">title</text>
</g>
<!-- bookmapModule&#45;&gt;title -->
<g id="edge67" class="edge">
<title>bookmapModule&#45;&gt;title</title>
<path fill="none" stroke="#1f78b4" d="M561.39,-604.1C584.08,-588.32 617.2,-565.28 642.16,-547.91"/>
<polygon fill="#a6cee3" stroke="#1f78b4" points="644.41,-550.61 650.62,-542.03 640.41,-544.87 644.41,-550.61"/>
</g>
<!-- bookmap -->
<g id="node3" class="node">
<title>bookmap</title>
<path fill="#1afabc" stroke="black" d="M637.15,-320.58C637.15,-320.58 686.15,-320.58 686.15,-320.58 692.15,-320.58 698.15,-326.58 698.15,-332.58 698.15,-332.58 698.15,-344.58 698.15,-344.58 698.15,-350.58 692.15,-356.58 686.15,-356.58 686.15,-356.58 637.15,-356.58 637.15,-356.58 631.15,-356.58 625.15,-350.58 625.15,-344.58 625.15,-344.58 625.15,-332.58 625.15,-332.58 625.15,-326.58 631.15,-320.58 637.15,-320.58"/>
<text text-anchor="middle" x="661.65" y="-334.88" font-family="Arial" font-size="14.00">bookmap</text>
</g>
<!-- map&#45;&gt;bookmap -->
<g id="edge2" class="edge">
<title>map&#45;&gt;bookmap</title>
<path fill="none" stroke="#1f78b4" d="M597.88,-445.2C610.43,-424.23 631.19,-389.5 645.61,-365.41"/>
<polygon fill="#a6cee3" stroke="#1f78b4" points="648.66,-367.12 650.79,-356.74 642.65,-363.53 648.66,-367.12"/>
</g>
<!-- bookmeta -->
<g id="node5" class="node">
<title>bookmeta</title>
<path fill="#1afabc" stroke="black" d="M750.41,-319.46C750.41,-319.46 803.41,-319.46 803.41,-319.46 809.41,-319.46 815.41,-325.46 815.41,-331.46 815.41,-331.46 815.41,-343.46 815.41,-343.46 815.41,-349.46 809.41,-355.46 803.41,-355.46 803.41,-355.46 750.41,-355.46 750.41,-355.46 744.41,-355.46 738.41,-349.46 738.41,-343.46 738.41,-343.46 738.41,-331.46 738.41,-331.46 738.41,-325.46 744.41,-319.46 750.41,-319.46"/>
<text text-anchor="middle" x="776.91" y="-333.76" font-family="Arial" font-size="14.00">bookmeta</text>
</g>
<!-- topicmeta&#45;&gt;bookmeta -->
<g id="edge4" class="edge">
<title>topicmeta&#45;&gt;bookmeta</title>
<path fill="none" stroke="#1f78b4" d="M679.91,-444.12C699.33,-422.77 731.7,-387.18 753.65,-363.04"/>
<polygon fill="#a6cee3" stroke="#1f78b4" points="756.25,-365.39 760.39,-355.63 751.07,-360.68 756.25,-365.39"/>
</g>
<!-- frontmatter -->
<g id="node7" class="node">
<title>frontmatter</title>
<path fill="#1afabc" stroke="black" d="M42.4,-129.69C42.4,-129.69 101.4,-129.69 101.4,-129.69 107.4,-129.69 113.4,-135.69 113.4,-141.69 113.4,-141.69 113.4,-153.69 113.4,-153.69 113.4,-159.69 107.4,-165.69 101.4,-165.69 101.4,-165.69 42.4,-165.69 42.4,-165.69 36.4,-165.69 30.4,-159.69 30.4,-153.69 30.4,-153.69 30.4,-141.69 30.4,-141.69 30.4,-135.69 36.4,-129.69 42.4,-129.69"/>
<text text-anchor="middle" x="71.9" y="-143.99" font-family="Arial" font-size="14.00">frontmatter</text>
</g>
<!-- topicref&#45;&gt;frontmatter -->
<g id="edge6" class="edge">
<title>topicref&#45;&gt;frontmatter</title>
<path fill="none" stroke="#1f78b4" d="M265.07,-238.57C227.51,-220.9 163.47,-190.77 119.49,-170.08"/>
<polygon fill="#a6cee3" stroke="#1f78b4" points="120.96,-166.9 110.42,-165.81 117.98,-173.24 120.96,-166.9"/>
</g>
<!-- backmatter -->
<g id="node8" class="node">
<title>backmatter</title>
<path fill="#1afabc" stroke="black" d="M403.99,-67.65C403.99,-67.65 463.99,-67.65 463.99,-67.65 469.99,-67.65 475.99,-73.65 475.99,-79.65 475.99,-79.65 475.99,-91.65 475.99,-91.65 475.99,-97.65 469.99,-103.65 463.99,-103.65 463.99,-103.65 403.99,-103.65 403.99,-103.65 397.99,-103.65 391.99,-97.65 391.99,-91.65 391.99,-91.65 391.99,-79.65 391.99,-79.65 391.99,-73.65 397.99,-67.65 403.99,-67.65"/>
<text text-anchor="middle" x="433.99" y="-81.95" font-family="Arial" font-size="14.00">backmatter</text>
</g>
<!-- topicref&#45;&gt;backmatter -->
<g id="edge7" class="edge">
<title>topicref&#45;&gt;backmatter</title>
<path fill="none" stroke="#1f78b4" d="M310.78,-234.77C335.3,-205.09 383.95,-146.22 412.23,-111.99"/>
<polygon fill="#a6cee3" stroke="#1f78b4" points="415.28,-113.79 418.95,-103.85 409.88,-109.33 415.28,-113.79"/>
</g>
<!-- draftintro -->
<g id="node9" class="node">
<title>draftintro</title>
<path fill="#1afabc" stroke="black" d="M161.52,-91.18C161.52,-91.18 207.52,-91.18 207.52,-91.18 213.52,-91.18 219.52,-97.18 219.52,-103.18 219.52,-103.18 219.52,-115.18 219.52,-115.18 219.52,-121.18 213.52,-127.18 207.52,-127.18 207.52,-127.18 161.52,-127.18 161.52,-127.18 155.52,-127.18 149.52,-121.18 149.52,-115.18 149.52,-115.18 149.52,-103.18 149.52,-103.18 149.52,-97.18 155.52,-91.18 161.52,-91.18"/>
<text text-anchor="middle" x="184.52" y="-105.48" font-family="Arial" font-size="14.00">draftintro</text>
</g>
<!-- topicref&#45;&gt;draftintro -->
<g id="edge8" class="edge">
<title>topicref&#45;&gt;draftintro</title>
<path fill="none" stroke="#1f78b4" d="M281.63,-234.78C262.17,-209.6 226.92,-164.02 204.67,-135.24"/>
<polygon fill="#a6cee3" stroke="#1f78b4" points="207.38,-133.01 198.49,-127.24 201.84,-137.3 207.38,-133.01"/>
</g>
<!-- bookabstract -->
<g id="node10" class="node">
<title>bookabstract</title>
<path fill="#1afabc" stroke="black" d="M11.99,-174.97C11.99,-174.97 81.99,-174.97 81.99,-174.97 87.99,-174.97 93.99,-180.97 93.99,-186.97 93.99,-186.97 93.99,-198.97 93.99,-198.97 93.99,-204.97 87.99,-210.97 81.99,-210.97 81.99,-210.97 11.99,-210.97 11.99,-210.97 5.99,-210.97 -0.01,-204.97 -0.01,-198.97 -0.01,-198.97 -0.01,-186.97 -0.01,-186.97 -0.01,-180.97 5.99,-174.97 11.99,-174.97"/>
<text text-anchor="middle" x="46.99" y="-189.27" font-family="Arial" font-size="14.00">bookabstract</text>
</g>
<!-- topicref&#45;&gt;bookabstract -->
<g id="edge9" class="edge">
<title>topicref&#45;&gt;bookabstract</title>
<path fill="none" stroke="#1f78b4" d="M264.97,-245.57C224.96,-235.92 154.28,-218.86 104.26,-206.79"/>
<polygon fill="#a6cee3" stroke="#1f78b4" points="104.78,-203.32 94.24,-204.37 103.14,-210.12 104.78,-203.32"/>
</g>
<!-- dedication -->
<g id="node11" class="node">
<title>dedication</title>
<path fill="#1afabc" stroke="black" d="M72.05,-84.32C72.05,-84.32 126.05,-84.32 126.05,-84.32 132.05,-84.32 138.05,-90.32 138.05,-96.32 138.05,-96.32 138.05,-108.32 138.05,-108.32 138.05,-114.32 132.05,-120.32 126.05,-120.32 126.05,-120.32 72.05,-120.32 72.05,-120.32 66.05,-120.32 60.05,-114.32 60.05,-108.32 60.05,-108.32 60.05,-96.32 60.05,-96.32 60.05,-90.32 66.05,-84.32 72.05,-84.32"/>
<text text-anchor="middle" x="99.05" y="-98.62" font-family="Arial" font-size="14.00">dedication</text>
</g>
<!-- topicref&#45;&gt;dedication -->
<g id="edge10" class="edge">
<title>topicref&#45;&gt;dedication</title>
<path fill="none" stroke="#1f78b4" d="M271.99,-234.82C236.61,-207.71 169.95,-156.64 130.53,-126.44"/>
<polygon fill="#a6cee3" stroke="#1f78b4" points="132.62,-123.63 122.55,-120.32 128.36,-129.18 132.62,-123.63"/>
</g>
<!-- preface -->
<g id="node12" class="node">
<title>preface</title>
<path fill="#1afabc" stroke="black" d="M239.85,-104.01C239.85,-104.01 277.85,-104.01 277.85,-104.01 283.85,-104.01 289.85,-110.01 289.85,-116.01 289.85,-116.01 289.85,-128.01 289.85,-128.01 289.85,-134.01 283.85,-140.01 277.85,-140.01 277.85,-140.01 239.85,-140.01 239.85,-140.01 233.85,-140.01 227.85,-134.01 227.85,-128.01 227.85,-128.01 227.85,-116.01 227.85,-116.01 227.85,-110.01 233.85,-104.01 239.85,-104.01"/>
<text text-anchor="middle" x="258.85" y="-118.31" font-family="Arial" font-size="14.00">preface</text>
</g>
<!-- topicref&#45;&gt;preface -->
<g id="edge11" class="edge">
<title>topicref&#45;&gt;preface</title>
<path fill="none" stroke="#1f78b4" d="M290.59,-234.78C284.4,-212.79 273.92,-175.56 266.71,-149.93"/>
<polygon fill="#a6cee3" stroke="#1f78b4" points="270.01,-148.74 263.94,-140.07 263.28,-150.64 270.01,-148.74"/>
</g>
<!-- chapter -->
<g id="node13" class="node">
<title>chapter</title>
<path fill="#1afabc" stroke="black" d="M126.28,-206.3C126.28,-206.3 164.28,-206.3 164.28,-206.3 170.28,-206.3 176.28,-212.3 176.28,-218.3 176.28,-218.3 176.28,-230.3 176.28,-230.3 176.28,-236.3 170.28,-242.3 164.28,-242.3 164.28,-242.3 126.28,-242.3 126.28,-242.3 120.28,-242.3 114.28,-236.3 114.28,-230.3 114.28,-230.3 114.28,-218.3 114.28,-218.3 114.28,-212.3 120.28,-206.3 126.28,-206.3"/>
<text text-anchor="middle" x="145.28" y="-220.6" font-family="Arial" font-size="14.00">chapter</text>
</g>
<!-- topicref&#45;&gt;chapter -->
<g id="edge12" class="edge">
<title>topicref&#45;&gt;chapter</title>
<path fill="none" stroke="#1f78b4" d="M264.91,-247.12C242.17,-242.78 210.99,-236.84 186.17,-232.1"/>
<polygon fill="#a6cee3" stroke="#1f78b4" points="186.78,-228.66 176.31,-230.22 185.47,-235.53 186.78,-228.66"/>
</g>
<!-- part -->
<g id="node14" class="node">
<title>part</title>
<path fill="#1afabc" stroke="black" d="M134.78,-157.22C134.78,-157.22 164.78,-157.22 164.78,-157.22 170.78,-157.22 176.78,-163.22 176.78,-169.22 176.78,-169.22 176.78,-181.22 176.78,-181.22 176.78,-187.22 170.78,-193.22 164.78,-193.22 164.78,-193.22 134.78,-193.22 134.78,-193.22 128.78,-193.22 122.78,-187.22 122.78,-181.22 122.78,-181.22 122.78,-169.22 122.78,-169.22 122.78,-163.22 128.78,-157.22 134.78,-157.22"/>
<text text-anchor="middle" x="149.78" y="-171.52" font-family="Arial" font-size="14.00">part</text>
</g>
<!-- topicref&#45;&gt;part -->
<g id="edge13" class="edge">
<title>topicref&#45;&gt;part</title>
<path fill="none" stroke="#1f78b4" d="M265.12,-236.69C242,-224.37 210.19,-207.41 185.83,-194.43"/>
<polygon fill="#a6cee3" stroke="#1f78b4" points="187.36,-191.28 176.89,-189.67 184.07,-197.46 187.36,-191.28"/>
</g>
<!-- appendix -->
<g id="node15" class="node">
<title>appendix</title>
<path fill="#1afabc" stroke="black" d="M216.47,-392.46C216.47,-392.46 263.47,-392.46 263.47,-392.46 269.47,-392.46 275.47,-398.46 275.47,-404.46 275.47,-404.46 275.47,-416.46 275.47,-416.46 275.47,-422.46 269.47,-428.46 263.47,-428.46 263.47,-428.46 216.47,-428.46 216.47,-428.46 210.47,-428.46 204.47,-422.46 204.47,-416.46 204.47,-416.46 204.47,-404.46 204.47,-404.46 204.47,-398.46 210.47,-392.46 216.47,-392.46"/>
<text text-anchor="middle" x="239.97" y="-406.76" font-family="Arial" font-size="14.00">appendix</text>
</g>
<!-- topicref&#45;&gt;appendix -->
<g id="edge14" class="edge">
<title>topicref&#45;&gt;appendix</title>
<path fill="none" stroke="#1f78b4" d="M289.32,-271.06C279.67,-298.32 261.3,-350.21 249.9,-382.42"/>
<polygon fill="#a6cee3" stroke="#1f78b4" points="246.5,-381.53 246.46,-392.13 253.1,-383.87 246.5,-381.53"/>
</g>
<!-- appendices -->
<g id="node16" class="node">
<title>appendices</title>
<path fill="#1afabc" stroke="black" d="M202.76,-45.84C202.76,-45.84 264.76,-45.84 264.76,-45.84 270.76,-45.84 276.76,-51.84 276.76,-57.84 276.76,-57.84 276.76,-69.84 276.76,-69.84 276.76,-75.84 270.76,-81.84 264.76,-81.84 264.76,-81.84 202.76,-81.84 202.76,-81.84 196.76,-81.84 190.76,-75.84 190.76,-69.84 190.76,-69.84 190.76,-57.84 190.76,-57.84 190.76,-51.84 196.76,-45.84 202.76,-45.84"/>
<text text-anchor="middle" x="233.76" y="-60.14" font-family="Arial" font-size="14.00">appendices</text>
</g>
<!-- topicref&#45;&gt;appendices -->
<g id="edge15" class="edge">
<title>topicref&#45;&gt;appendices</title>
<path fill="none" stroke="#1f78b4" d="M289.78,-234.86C278.91,-201.67 255.75,-130.97 242.87,-91.66"/>
<polygon fill="#a6cee3" stroke="#1f78b4" points="246.12,-90.34 239.69,-81.92 239.47,-92.52 246.12,-90.34"/>
</g>
<!-- notices -->
<g id="node17" class="node">
<title>notices</title>
<path fill="#1afabc" stroke="black" d="M143.95,-282.64C143.95,-282.64 178.95,-282.64 178.95,-282.64 184.95,-282.64 190.95,-288.64 190.95,-294.64 190.95,-294.64 190.95,-306.64 190.95,-306.64 190.95,-312.64 184.95,-318.64 178.95,-318.64 178.95,-318.64 143.95,-318.64 143.95,-318.64 137.95,-318.64 131.95,-312.64 131.95,-306.64 131.95,-306.64 131.95,-294.64 131.95,-294.64 131.95,-288.64 137.95,-282.64 143.95,-282.64"/>
<text text-anchor="middle" x="161.45" y="-296.94" font-family="Arial" font-size="14.00">notices</text>
</g>
<!-- topicref&#45;&gt;notices -->
<g id="edge16" class="edge">
<title>topicref&#45;&gt;notices</title>
<path fill="none" stroke="#1f78b4" d="M264.91,-263.93C245.89,-270.68 221.28,-279.41 200.85,-286.66"/>
<polygon fill="#a6cee3" stroke="#1f78b4" points="199.44,-283.44 191.19,-290.09 201.78,-290.04 199.44,-283.44"/>
</g>
<!-- amendments -->
<g id="node18" class="node">
<title>amendments</title>
<path fill="#1afabc" stroke="black" d="M442.43,-113.3C442.43,-113.3 514.43,-113.3 514.43,-113.3 520.43,-113.3 526.43,-119.3 526.43,-125.3 526.43,-125.3 526.43,-137.3 526.43,-137.3 526.43,-143.3 520.43,-149.3 514.43,-149.3 514.43,-149.3 442.43,-149.3 442.43,-149.3 436.43,-149.3 430.43,-143.3 430.43,-137.3 430.43,-137.3 430.43,-125.3 430.43,-125.3 430.43,-119.3 436.43,-113.3 442.43,-113.3"/>
<text text-anchor="middle" x="478.43" y="-127.6" font-family="Arial" font-size="14.00">amendments</text>
</g>
<!-- topicref&#45;&gt;amendments -->
<g id="edge17" class="edge">
<title>topicref&#45;&gt;amendments</title>
<path fill="none" stroke="#1f78b4" d="M323.07,-234.78C354.92,-213.57 407.62,-178.47 442.68,-155.11"/>
<polygon fill="#a6cee3" stroke="#1f78b4" points="444.81,-157.9 451.19,-149.45 440.93,-152.08 444.81,-157.9"/>
</g>
<!-- colophon -->
<g id="node19" class="node">
<title>colophon</title>
<path fill="#1afabc" stroke="black" d="M369.83,-18.87C369.83,-18.87 416.83,-18.87 416.83,-18.87 422.83,-18.87 428.83,-24.87 428.83,-30.87 428.83,-30.87 428.83,-42.87 428.83,-42.87 428.83,-48.87 422.83,-54.87 416.83,-54.87 416.83,-54.87 369.83,-54.87 369.83,-54.87 363.83,-54.87 357.83,-48.87 357.83,-42.87 357.83,-42.87 357.83,-30.87 357.83,-30.87 357.83,-24.87 363.83,-18.87 369.83,-18.87"/>
<text text-anchor="middle" x="393.33" y="-33.17" font-family="Arial" font-size="14.00">colophon</text>
</g>
<!-- topicref&#45;&gt;colophon -->
<g id="edge18" class="edge">
<title>topicref&#45;&gt;colophon</title>
<path fill="none" stroke="#1f78b4" d="M303.87,-234.94C320.99,-197.04 360.76,-108.99 381.01,-64.16"/>
<polygon fill="#a6cee3" stroke="#1f78b4" points="384.21,-65.58 385.13,-55.02 377.83,-62.7 384.21,-65.58"/>
</g>
<!-- booklists -->
<g id="node20" class="node">
<title>booklists</title>
<path fill="#1afabc" stroke="black" d="M125.71,-39.28C125.71,-39.28 170.71,-39.28 170.71,-39.28 176.71,-39.28 182.71,-45.28 182.71,-51.28 182.71,-51.28 182.71,-63.28 182.71,-63.28 182.71,-69.28 176.71,-75.28 170.71,-75.28 170.71,-75.28 125.71,-75.28 125.71,-75.28 119.71,-75.28 113.71,-69.28 113.71,-63.28 113.71,-63.28 113.71,-51.28 113.71,-51.28 113.71,-45.28 119.71,-39.28 125.71,-39.28"/>
<text text-anchor="middle" x="148.21" y="-53.58" font-family="Arial" font-size="14.00">booklists</text>
</g>
<!-- topicref&#45;&gt;booklists -->
<g id="edge19" class="edge">
<title>topicref&#45;&gt;booklists</title>
<path fill="none" stroke="#1f78b4" d="M282.11,-234.93C255.87,-200.12 198.22,-123.64 167.84,-83.32"/>
<polygon fill="#a6cee3" stroke="#1f78b4" points="170.61,-81.18 161.79,-75.3 165.02,-85.39 170.61,-81.18"/>
</g>
<!-- toc -->
<g id="node21" class="node">
<title>toc</title>
<path fill="#1afabc" stroke="black" d="M378.8,-126.75C378.8,-126.75 408.8,-126.75 408.8,-126.75 414.8,-126.75 420.8,-132.75 420.8,-138.75 420.8,-138.75 420.8,-150.75 420.8,-150.75 420.8,-156.75 414.8,-162.75 408.8,-162.75 408.8,-162.75 378.8,-162.75 378.8,-162.75 372.8,-162.75 366.8,-156.75 366.8,-150.75 366.8,-150.75 366.8,-138.75 366.8,-138.75 366.8,-132.75 372.8,-126.75 378.8,-126.75"/>
<text text-anchor="middle" x="393.8" y="-141.05" font-family="Arial" font-size="14.00">toc</text>
</g>
<!-- topicref&#45;&gt;toc -->
<g id="edge20" class="edge">
<title>topicref&#45;&gt;toc</title>
<path fill="none" stroke="#1f78b4" d="M312.36,-234.63C328.38,-216.95 352.74,-190.06 370.65,-170.3"/>
<polygon fill="#a6cee3" stroke="#1f78b4" points="373.29,-172.6 377.41,-162.84 368.1,-167.9 373.29,-172.6"/>
</g>
<!-- figurelist -->
<g id="node22" class="node">
<title>figurelist</title>
<path fill="#1afabc" stroke="black" d="M407.55,-246.85C407.55,-246.85 450.55,-246.85 450.55,-246.85 456.55,-246.85 462.55,-252.85 462.55,-258.85 462.55,-258.85 462.55,-270.85 462.55,-270.85 462.55,-276.85 456.55,-282.85 450.55,-282.85 450.55,-282.85 407.55,-282.85 407.55,-282.85 401.55,-282.85 395.55,-276.85 395.55,-270.85 395.55,-270.85 395.55,-258.85 395.55,-258.85 395.55,-252.85 401.55,-246.85 407.55,-246.85"/>
<text text-anchor="middle" x="429.05" y="-261.15" font-family="Arial" font-size="14.00">figurelist</text>
</g>
<!-- topicref&#45;&gt;figurelist -->
<g id="edge21" class="edge">
<title>topicref&#45;&gt;figurelist</title>
<path fill="none" stroke="#1f78b4" d="M326.31,-255.71C343.77,-257.27 365.97,-259.24 385.25,-260.95"/>
<polygon fill="#a6cee3" stroke="#1f78b4" points="385.06,-264.45 395.33,-261.85 385.68,-257.48 385.06,-264.45"/>
</g>
<!-- tablelist -->
<g id="node23" class="node">
<title>tablelist</title>
<path fill="#1afabc" stroke="black" d="M431.9,-175.54C431.9,-175.54 469.9,-175.54 469.9,-175.54 475.9,-175.54 481.9,-181.54 481.9,-187.54 481.9,-187.54 481.9,-199.54 481.9,-199.54 481.9,-205.54 475.9,-211.54 469.9,-211.54 469.9,-211.54 431.9,-211.54 431.9,-211.54 425.9,-211.54 419.9,-205.54 419.9,-199.54 419.9,-199.54 419.9,-187.54 419.9,-187.54 419.9,-181.54 425.9,-175.54 431.9,-175.54"/>
<text text-anchor="middle" x="450.9" y="-189.84" font-family="Arial" font-size="14.00">tablelist</text>
</g>
<!-- topicref&#45;&gt;tablelist -->
<g id="edge22" class="edge">
<title>topicref&#45;&gt;tablelist</title>
<path fill="none" stroke="#1f78b4" d="M326.38,-241.25C350.34,-232.07 383.88,-219.22 410.11,-209.17"/>
<polygon fill="#a6cee3" stroke="#1f78b4" points="411.69,-212.31 419.78,-205.47 409.19,-205.78 411.69,-212.31"/>
</g>
<!-- abbrevlist -->
<g id="node24" class="node">
<title>abbrevlist</title>
<path fill="#1afabc" stroke="black" d="M285.95,-0.81C285.95,-0.81 335.95,-0.81 335.95,-0.81 341.95,-0.81 347.95,-6.81 347.95,-12.81 347.95,-12.81 347.95,-24.81 347.95,-24.81 347.95,-30.81 341.95,-36.81 335.95,-36.81 335.95,-36.81 285.95,-36.81 285.95,-36.81 279.95,-36.81 273.95,-30.81 273.95,-24.81 273.95,-24.81 273.95,-12.81 273.95,-12.81 273.95,-6.81 279.95,-0.81 285.95,-0.81"/>
<text text-anchor="middle" x="310.95" y="-15.11" font-family="Arial" font-size="14.00">abbrevlist</text>
</g>
<!-- topicref&#45;&gt;abbrevlist -->
<g id="edge23" class="edge">
<title>topicref&#45;&gt;abbrevlist</title>
<path fill="none" stroke="#1f78b4" d="M296.91,-234.62C299.56,-193.92 305.93,-95.94 309.1,-47.26"/>
<polygon fill="#a6cee3" stroke="#1f78b4" points="312.6,-47.31 309.76,-37.1 305.62,-46.85 312.6,-47.31"/>
</g>
<!-- trademarklist -->
<g id="node25" class="node">
<title>trademarklist</title>
<path fill="#1afabc" stroke="black" d="M40.86,-315.59C40.86,-315.59 111.86,-315.59 111.86,-315.59 117.86,-315.59 123.86,-321.59 123.86,-327.59 123.86,-327.59 123.86,-339.59 123.86,-339.59 123.86,-345.59 117.86,-351.59 111.86,-351.59 111.86,-351.59 40.86,-351.59 40.86,-351.59 34.86,-351.59 28.86,-345.59 28.86,-339.59 28.86,-339.59 28.86,-327.59 28.86,-327.59 28.86,-321.59 34.86,-315.59 40.86,-315.59"/>
<text text-anchor="middle" x="76.36" y="-329.89" font-family="Arial" font-size="14.00">trademarklist</text>
</g>
<!-- topicref&#45;&gt;trademarklist -->
<g id="edge24" class="edge">
<title>topicref&#45;&gt;trademarklist</title>
<path fill="none" stroke="#1f78b4" d="M265.22,-264.2C231.25,-276.68 175.6,-297.13 133.48,-312.61"/>
<polygon fill="#a6cee3" stroke="#1f78b4" points="132.08,-309.39 123.9,-316.12 134.49,-315.96 132.08,-309.39"/>
</g>
<!-- bibliolist -->
<g id="node26" class="node">
<title>bibliolist</title>
<path fill="#1afabc" stroke="black" d="M296.77,-58.93C296.77,-58.93 337.77,-58.93 337.77,-58.93 343.77,-58.93 349.77,-64.93 349.77,-70.93 349.77,-70.93 349.77,-82.93 349.77,-82.93 349.77,-88.93 343.77,-94.93 337.77,-94.93 337.77,-94.93 296.77,-94.93 296.77,-94.93 290.77,-94.93 284.77,-88.93 284.77,-82.93 284.77,-82.93 284.77,-70.93 284.77,-70.93 284.77,-64.93 290.77,-58.93 296.77,-58.93"/>
<text text-anchor="middle" x="317.27" y="-73.23" font-family="Arial" font-size="14.00">bibliolist</text>
</g>
<!-- topicref&#45;&gt;bibliolist -->
<g id="edge25" class="edge">
<title>topicref&#45;&gt;bibliolist</title>
<path fill="none" stroke="#1f78b4" d="M297.94,-234.82C301.71,-204.03 309.38,-141.43 313.84,-104.98"/>
<polygon fill="#a6cee3" stroke="#1f78b4" points="317.32,-105.36 315.06,-95.01 310.37,-104.51 317.32,-105.36"/>
</g>
<!-- glossarylist -->
<g id="node27" class="node">
<title>glossarylist</title>
<path fill="#1afabc" stroke="black" d="M38.63,-251.36C38.63,-251.36 97.63,-251.36 97.63,-251.36 103.63,-251.36 109.63,-257.36 109.63,-263.36 109.63,-263.36 109.63,-275.36 109.63,-275.36 109.63,-281.36 103.63,-287.36 97.63,-287.36 97.63,-287.36 38.63,-287.36 38.63,-287.36 32.63,-287.36 26.63,-281.36 26.63,-275.36 26.63,-275.36 26.63,-263.36 26.63,-263.36 26.63,-257.36 32.63,-251.36 38.63,-251.36"/>
<text text-anchor="middle" x="68.13" y="-265.66" font-family="Arial" font-size="14.00">glossarylist</text>
</g>
<!-- topicref&#45;&gt;glossarylist -->
<g id="edge26" class="edge">
<title>topicref&#45;&gt;glossarylist</title>
<path fill="none" stroke="#1f78b4" d="M265.02,-255.2C227.88,-257.87 164.76,-262.41 120.01,-265.63"/>
<polygon fill="#a6cee3" stroke="#1f78b4" points="119.63,-262.15 109.9,-266.36 120.13,-269.13 119.63,-262.15"/>
</g>
<!-- indexlist -->
<g id="node28" class="node">
<title>indexlist</title>
<path fill="#1afabc" stroke="black" d="M298.71,-360.92C298.71,-360.92 339.71,-360.92 339.71,-360.92 345.71,-360.92 351.71,-366.92 351.71,-372.92 351.71,-372.92 351.71,-384.92 351.71,-384.92 351.71,-390.92 345.71,-396.92 339.71,-396.92 339.71,-396.92 298.71,-396.92 298.71,-396.92 292.71,-396.92 286.71,-390.92 286.71,-384.92 286.71,-384.92 286.71,-372.92 286.71,-372.92 286.71,-366.92 292.71,-360.92 298.71,-360.92"/>
<text text-anchor="middle" x="319.21" y="-375.22" font-family="Arial" font-size="14.00">indexlist</text>
</g>
<!-- topicref&#45;&gt;indexlist -->
<g id="edge27" class="edge">
<title>topicref&#45;&gt;indexlist</title>
<path fill="none" stroke="#1f78b4" d="M299.08,-271.04C302.98,-291.89 309.43,-326.46 313.97,-350.84"/>
<polygon fill="#a6cee3" stroke="#1f78b4" points="310.58,-351.73 315.85,-360.92 317.46,-350.44 310.58,-351.73"/>
</g>
<!-- booklist -->
<g id="node29" class="node">
<title>booklist</title>
<path fill="#1afabc" stroke="black" d="M144.4,-359.54C144.4,-359.54 182.4,-359.54 182.4,-359.54 188.4,-359.54 194.4,-365.54 194.4,-371.54 194.4,-371.54 194.4,-383.54 194.4,-383.54 194.4,-389.54 188.4,-395.54 182.4,-395.54 182.4,-395.54 144.4,-395.54 144.4,-395.54 138.4,-395.54 132.4,-389.54 132.4,-383.54 132.4,-383.54 132.4,-371.54 132.4,-371.54 132.4,-365.54 138.4,-359.54 144.4,-359.54"/>
<text text-anchor="middle" x="163.4" y="-373.84" font-family="Arial" font-size="14.00">booklist</text>
</g>
<!-- topicref&#45;&gt;booklist -->
<g id="edge28" class="edge">
<title>topicref&#45;&gt;booklist</title>
<path fill="none" stroke="#1f78b4" d="M276.48,-271.1C253.74,-292.5 215.78,-328.24 190.18,-352.33"/>
<polygon fill="#a6cee3" stroke="#1f78b4" points="187.55,-350 182.66,-359.4 192.34,-355.1 187.55,-350"/>
</g>
<!-- publisherinformation -->
<g id="node31" class="node">
<title>publisherinformation</title>
<path fill="#1afabc" stroke="black" d="M829.09,-466.11C829.09,-466.11 944.09,-466.11 944.09,-466.11 950.09,-466.11 956.09,-472.11 956.09,-478.11 956.09,-478.11 956.09,-490.11 956.09,-490.11 956.09,-496.11 950.09,-502.11 944.09,-502.11 944.09,-502.11 829.09,-502.11 829.09,-502.11 823.09,-502.11 817.09,-496.11 817.09,-490.11 817.09,-490.11 817.09,-478.11 817.09,-478.11 817.09,-472.11 823.09,-466.11 829.09,-466.11"/>
<text text-anchor="middle" x="886.59" y="-480.41" font-family="Arial" font-size="14.00">publisherinformation</text>
</g>
<!-- publisher&#45;&gt;publisherinformation -->
<g id="edge30" class="edge">
<title>publisher&#45;&gt;publisherinformation</title>
<path fill="none" stroke="#1f78b4" d="M757.67,-550.62C782.44,-537.84 815.78,-520.64 842.35,-506.93"/>
<polygon fill="#a6cee3" stroke="#1f78b4" points="844.15,-509.94 851.44,-502.24 840.94,-503.72 844.15,-509.94"/>
</g>
<!-- person -->
<g id="node33" class="node">
<title>person</title>
<path fill="#1afabc" stroke="black" d="M1002.29,-876.31C1002.29,-876.31 1036.29,-876.31 1036.29,-876.31 1042.29,-876.31 1048.29,-882.31 1048.29,-888.31 1048.29,-888.31 1048.29,-900.31 1048.29,-900.31 1048.29,-906.31 1042.29,-912.31 1036.29,-912.31 1036.29,-912.31 1002.29,-912.31 1002.29,-912.31 996.29,-912.31 990.29,-906.31 990.29,-900.31 990.29,-900.31 990.29,-888.31 990.29,-888.31 990.29,-882.31 996.29,-876.31 1002.29,-876.31"/>
<text text-anchor="middle" x="1019.29" y="-890.61" font-family="Arial" font-size="14.00">person</text>
</g>
<!-- data&#45;&gt;person -->
<g id="edge32" class="edge">
<title>data&#45;&gt;person</title>
<path fill="none" stroke="#1f78b4" d="M874.91,-916.65C903.3,-912.26 948.09,-905.33 980.26,-900.35"/>
<polygon fill="#a6cee3" stroke="#1f78b4" points="980.87,-903.79 990.22,-898.81 979.8,-896.88 980.87,-903.79"/>
</g>
<!-- organization -->
<g id="node34" class="node">
<title>organization</title>
<path fill="#1afabc" stroke="black" d="M792.97,-1099.05C792.97,-1099.05 858.97,-1099.05 858.97,-1099.05 864.97,-1099.05 870.97,-1105.05 870.97,-1111.05 870.97,-1111.05 870.97,-1123.05 870.97,-1123.05 870.97,-1129.05 864.97,-1135.05 858.97,-1135.05 858.97,-1135.05 792.97,-1135.05 792.97,-1135.05 786.97,-1135.05 780.97,-1129.05 780.97,-1123.05 780.97,-1123.05 780.97,-1111.05 780.97,-1111.05 780.97,-1105.05 786.97,-1099.05 792.97,-1099.05"/>
<text text-anchor="middle" x="825.97" y="-1113.35" font-family="Arial" font-size="14.00">organization</text>
</g>
<!-- data&#45;&gt;organization -->
<g id="edge33" class="edge">
<title>data&#45;&gt;organization</title>
<path fill="none" stroke="#1f78b4" d="M845.71,-938.97C841.91,-973.28 833.63,-1047.98 829.09,-1088.89"/>
<polygon fill="#a6cee3" stroke="#1f78b4" points="825.6,-1088.67 827.97,-1098.99 832.55,-1089.44 825.6,-1088.67"/>
</g>
<!-- bookchangehistory -->
<g id="node35" class="node">
<title>bookchangehistory</title>
<path fill="#1afabc" stroke="black" d="M714.11,-1162.45C714.11,-1162.45 820.11,-1162.45 820.11,-1162.45 826.11,-1162.45 832.11,-1168.45 832.11,-1174.45 832.11,-1174.45 832.11,-1186.45 832.11,-1186.45 832.11,-1192.45 826.11,-1198.45 820.11,-1198.45 820.11,-1198.45 714.11,-1198.45 714.11,-1198.45 708.11,-1198.45 702.11,-1192.45 702.11,-1186.45 702.11,-1186.45 702.11,-1174.45 702.11,-1174.45 702.11,-1168.45 708.11,-1162.45 714.11,-1162.45"/>
<text text-anchor="middle" x="767.11" y="-1176.75" font-family="Arial" font-size="14.00">bookchangehistory</text>
</g>
<!-- data&#45;&gt;bookchangehistory -->
<g id="edge34" class="edge">
<title>data&#45;&gt;bookchangehistory</title>
<path fill="none" stroke="#1f78b4" d="M842.05,-939.11C828.18,-983.8 792.43,-1098.91 775.82,-1152.38"/>
<polygon fill="#a6cee3" stroke="#1f78b4" points="772.39,-1151.63 772.77,-1162.22 779.08,-1153.7 772.39,-1151.63"/>
</g>
<!-- bookid -->
<g id="node36" class="node">
<title>bookid</title>
<path fill="#1afabc" stroke="black" d="M1004.55,-922.19C1004.55,-922.19 1036.55,-922.19 1036.55,-922.19 1042.55,-922.19 1048.55,-928.19 1048.55,-934.19 1048.55,-934.19 1048.55,-946.19 1048.55,-946.19 1048.55,-952.19 1042.55,-958.19 1036.55,-958.19 1036.55,-958.19 1004.55,-958.19 1004.55,-958.19 998.55,-958.19 992.55,-952.19 992.55,-946.19 992.55,-946.19 992.55,-934.19 992.55,-934.19 992.55,-928.19 998.55,-922.19 1004.55,-922.19"/>
<text text-anchor="middle" x="1020.55" y="-936.49" font-family="Arial" font-size="14.00">bookid</text>
</g>
<!-- data&#45;&gt;bookid -->
<g id="edge35" class="edge">
<title>data&#45;&gt;bookid</title>
<path fill="none" stroke="#1f78b4" d="M874.72,-923.88C903.59,-927.11 949.61,-932.25 982.22,-935.9"/>
<polygon fill="#a6cee3" stroke="#1f78b4" points="981.97,-939.39 992.3,-937.03 982.75,-932.44 981.97,-939.39"/>
</g>
<!-- printlocation -->
<g id="node37" class="node">
<title>printlocation</title>
<path fill="#1afabc" stroke="black" d="M1068.62,-897.74C1068.62,-897.74 1133.62,-897.74 1133.62,-897.74 1139.62,-897.74 1145.62,-903.74 1145.62,-909.74 1145.62,-909.74 1145.62,-921.74 1145.62,-921.74 1145.62,-927.74 1139.62,-933.74 1133.62,-933.74 1133.62,-933.74 1068.62,-933.74 1068.62,-933.74 1062.62,-933.74 1056.62,-927.74 1056.62,-921.74 1056.62,-921.74 1056.62,-909.74 1056.62,-909.74 1056.62,-903.74 1062.62,-897.74 1068.62,-897.74"/>
<text text-anchor="middle" x="1101.12" y="-912.04" font-family="Arial" font-size="14.00">printlocation</text>
</g>
<!-- data&#45;&gt;printlocation -->
<g id="edge36" class="edge">
<title>data&#45;&gt;printlocation</title>
<path fill="none" stroke="#1f78b4" d="M874.84,-920.31C915.53,-919.49 993.26,-917.92 1046.14,-916.85"/>
<polygon fill="#a6cee3" stroke="#1f78b4" points="1046.43,-920.34 1056.36,-916.64 1046.29,-913.34 1046.43,-920.34"/>
</g>
<!-- published -->
<g id="node38" class="node">
<title>published</title>
<path fill="#1afabc" stroke="black" d="M819.36,-751.39C819.36,-751.39 869.36,-751.39 869.36,-751.39 875.36,-751.39 881.36,-757.39 881.36,-763.39 881.36,-763.39 881.36,-775.39 881.36,-775.39 881.36,-781.39 875.36,-787.39 869.36,-787.39 869.36,-787.39 819.36,-787.39 819.36,-787.39 813.36,-787.39 807.36,-781.39 807.36,-775.39 807.36,-775.39 807.36,-763.39 807.36,-763.39 807.36,-757.39 813.36,-751.39 819.36,-751.39"/>
<text text-anchor="middle" x="844.36" y="-765.69" font-family="Arial" font-size="14.00">published</text>
</g>
<!-- data&#45;&gt;published -->
<g id="edge37" class="edge">
<title>data&#45;&gt;published</title>
<path fill="none" stroke="#1f78b4" d="M847.31,-902.59C846.74,-876.55 845.67,-828.51 844.99,-797.8"/>
<polygon fill="#a6cee3" stroke="#1f78b4" points="848.49,-797.64 844.76,-787.72 841.49,-797.8 848.49,-797.64"/>
</g>
<!-- publishtype -->
<g id="node39" class="node">
<title>publishtype</title>
<path fill="#1afabc" stroke="black" d="M943.15,-1122.84C943.15,-1122.84 1004.15,-1122.84 1004.15,-1122.84 1010.15,-1122.84 1016.15,-1128.84 1016.15,-1134.84 1016.15,-1134.84 1016.15,-1146.84 1016.15,-1146.84 1016.15,-1152.84 1010.15,-1158.84 1004.15,-1158.84 1004.15,-1158.84 943.15,-1158.84 943.15,-1158.84 937.15,-1158.84 931.15,-1152.84 931.15,-1146.84 931.15,-1146.84 931.15,-1134.84 931.15,-1134.84 931.15,-1128.84 937.15,-1122.84 943.15,-1122.84"/>
<text text-anchor="middle" x="973.65" y="-1137.14" font-family="Arial" font-size="14.00">publishtype</text>
</g>
<!-- data&#45;&gt;publishtype -->
<g id="edge38" class="edge">
<title>data&#45;&gt;publishtype</title>
<path fill="none" stroke="#1f78b4" d="M858.03,-938.86C880.12,-977.45 932.14,-1068.33 958.21,-1113.85"/>
<polygon fill="#a6cee3" stroke="#1f78b4" points="955.2,-1115.65 963.2,-1122.59 961.27,-1112.17 955.2,-1115.65"/>
</g>
<!-- reviewed -->
<g id="node40" class="node">
<title>reviewed</title>
<path fill="#1afabc" stroke="black" d="M901.4,-793.91C901.4,-793.91 948.4,-793.91 948.4,-793.91 954.4,-793.91 960.4,-799.91 960.4,-805.91 960.4,-805.91 960.4,-817.91 960.4,-817.91 960.4,-823.91 954.4,-829.91 948.4,-829.91 948.4,-829.91 901.4,-829.91 901.4,-829.91 895.4,-829.91 889.4,-823.91 889.4,-817.91 889.4,-817.91 889.4,-805.91 889.4,-805.91 889.4,-799.91 895.4,-793.91 901.4,-793.91"/>
<text text-anchor="middle" x="924.9" y="-808.21" font-family="Arial" font-size="14.00">reviewed</text>
</g>
<!-- data&#45;&gt;reviewed -->
<g id="edge39" class="edge">
<title>data&#45;&gt;reviewed</title>
<path fill="none" stroke="#1f78b4" d="M860.81,-902.38C873.25,-884.82 892.09,-858.23 906.12,-838.42"/>
<polygon fill="#a6cee3" stroke="#1f78b4" points="909.08,-840.3 912,-830.12 903.37,-836.26 909.08,-840.3"/>
</g>
<!-- edited -->
<g id="node41" class="node">
<title>edited</title>
<path fill="#1afabc" stroke="black" d="M682.23,-895.26C682.23,-895.26 712.23,-895.26 712.23,-895.26 718.23,-895.26 724.23,-901.26 724.23,-907.26 724.23,-907.26 724.23,-919.26 724.23,-919.26 724.23,-925.26 718.23,-931.26 712.23,-931.26 712.23,-931.26 682.23,-931.26 682.23,-931.26 676.23,-931.26 670.23,-925.26 670.23,-919.26 670.23,-919.26 670.23,-907.26 670.23,-907.26 670.23,-901.26 676.23,-895.26 682.23,-895.26"/>
<text text-anchor="middle" x="697.23" y="-909.56" font-family="Arial" font-size="14.00">edited</text>
</g>
<!-- data&#45;&gt;edited -->
<g id="edge40" class="edge">
<title>data&#45;&gt;edited</title>
<path fill="none" stroke="#1f78b4" d="M820.47,-919.49C796.39,-918.27 761.06,-916.49 734.39,-915.14"/>
<polygon fill="#a6cee3" stroke="#1f78b4" points="734.44,-911.64 724.28,-914.63 734.09,-918.63 734.44,-911.64"/>
</g>
<!-- tested -->
<g id="node42" class="node">
<title>tested</title>
<path fill="#1afabc" stroke="black" d="M763.64,-804.23C763.64,-804.23 793.64,-804.23 793.64,-804.23 799.64,-804.23 805.64,-810.23 805.64,-816.23 805.64,-816.23 805.64,-828.23 805.64,-828.23 805.64,-834.23 799.64,-840.23 793.64,-840.23 793.64,-840.23 763.64,-840.23 763.64,-840.23 757.64,-840.23 751.64,-834.23 751.64,-828.23 751.64,-828.23 751.64,-816.23 751.64,-816.23 751.64,-810.23 757.64,-804.23 763.64,-804.23"/>
<text text-anchor="middle" x="778.64" y="-818.53" font-family="Arial" font-size="14.00">tested</text>
</g>
<!-- data&#45;&gt;tested -->
<g id="edge41" class="edge">
<title>data&#45;&gt;tested</title>
<path fill="none" stroke="#1f78b4" d="M835.05,-902.77C824.5,-887.71 809.33,-866.05 797.38,-848.99"/>
<polygon fill="#a6cee3" stroke="#1f78b4" points="800.07,-846.73 791.47,-840.54 794.34,-850.74 800.07,-846.73"/>
</g>
<!-- approved -->
<g id="node43" class="node">
<title>approved</title>
<path fill="#1afabc" stroke="black" d="M983.71,-826.22C983.71,-826.22 1032.71,-826.22 1032.71,-826.22 1038.71,-826.22 1044.71,-832.22 1044.71,-838.22 1044.71,-838.22 1044.71,-850.22 1044.71,-850.22 1044.71,-856.22 1038.71,-862.22 1032.71,-862.22 1032.71,-862.22 983.71,-862.22 983.71,-862.22 977.71,-862.22 971.71,-856.22 971.71,-850.22 971.71,-850.22 971.71,-838.22 971.71,-838.22 971.71,-832.22 977.71,-826.22 983.71,-826.22"/>
<text text-anchor="middle" x="1008.21" y="-840.52" font-family="Arial" font-size="14.00">approved</text>
</g>
<!-- data&#45;&gt;approved -->
<g id="edge42" class="edge">
<title>data&#45;&gt;approved</title>
<path fill="none" stroke="#1f78b4" d="M874.94,-907.86C898.81,-896.46 933.99,-879.66 962.22,-866.18"/>
<polygon fill="#a6cee3" stroke="#1f78b4" points="963.98,-869.22 971.5,-861.75 960.97,-862.9 963.98,-869.22"/>
</g>
<!-- bookevent -->
<g id="node44" class="node">
<title>bookevent</title>
<path fill="#1afabc" stroke="black" d="M980.5,-781.21C980.5,-781.21 1035.5,-781.21 1035.5,-781.21 1041.5,-781.21 1047.5,-787.21 1047.5,-793.21 1047.5,-793.21 1047.5,-805.21 1047.5,-805.21 1047.5,-811.21 1041.5,-817.21 1035.5,-817.21 1035.5,-817.21 980.5,-817.21 980.5,-817.21 974.5,-817.21 968.5,-811.21 968.5,-805.21 968.5,-805.21 968.5,-793.21 968.5,-793.21 968.5,-787.21 974.5,-781.21 980.5,-781.21"/>
<text text-anchor="middle" x="1008" y="-795.51" font-family="Arial" font-size="14.00">bookevent</text>
</g>
<!-- data&#45;&gt;bookevent -->
<g id="edge43" class="edge">
<title>data&#45;&gt;bookevent</title>
<path fill="none" stroke="#1f78b4" d="M871.72,-902.65C899.41,-881.62 945.1,-846.95 975.85,-823.61"/>
<polygon fill="#a6cee3" stroke="#1f78b4" points="978.25,-826.18 984.1,-817.35 974.02,-820.6 978.25,-826.18"/>
</g>
<!-- bookeventtype -->
<g id="node45" class="node">
<title>bookeventtype</title>
<path fill="#1afabc" stroke="black" d="M601.88,-1017.02C601.88,-1017.02 681.88,-1017.02 681.88,-1017.02 687.88,-1017.02 693.88,-1023.02 693.88,-1029.02 693.88,-1029.02 693.88,-1041.02 693.88,-1041.02 693.88,-1047.02 687.88,-1053.02 681.88,-1053.02 681.88,-1053.02 601.88,-1053.02 601.88,-1053.02 595.88,-1053.02 589.88,-1047.02 589.88,-1041.02 589.88,-1041.02 589.88,-1029.02 589.88,-1029.02 589.88,-1023.02 595.88,-1017.02 601.88,-1017.02"/>
<text text-anchor="middle" x="641.88" y="-1031.32" font-family="Arial" font-size="14.00">bookeventtype</text>
</g>
<!-- data&#45;&gt;bookeventtype -->
<g id="edge44" class="edge">
<title>data&#45;&gt;bookeventtype</title>
<path fill="none" stroke="#1f78b4" d="M820.39,-936.02C785.31,-955.47 724.13,-989.41 683.31,-1012.04"/>
<polygon fill="#a6cee3" stroke="#1f78b4" points="681.47,-1009.06 674.42,-1016.97 684.87,-1015.18 681.47,-1009.06"/>
</g>
<!-- bookpartno -->
<g id="node46" class="node">
<title>bookpartno</title>
<path fill="#1afabc" stroke="black" d="M1054.56,-987.77C1054.56,-987.77 1114.56,-987.77 1114.56,-987.77 1120.56,-987.77 1126.56,-993.77 1126.56,-999.77 1126.56,-999.77 1126.56,-1011.77 1126.56,-1011.77 1126.56,-1017.77 1120.56,-1023.77 1114.56,-1023.77 1114.56,-1023.77 1054.56,-1023.77 1054.56,-1023.77 1048.56,-1023.77 1042.56,-1017.77 1042.56,-1011.77 1042.56,-1011.77 1042.56,-999.77 1042.56,-999.77 1042.56,-993.77 1048.56,-987.77 1054.56,-987.77"/>
<text text-anchor="middle" x="1084.56" y="-1002.07" font-family="Arial" font-size="14.00">bookpartno</text>
</g>
<!-- data&#45;&gt;bookpartno -->
<g id="edge45" class="edge">
<title>data&#45;&gt;bookpartno</title>
<path fill="none" stroke="#1f78b4" d="M874.89,-930.6C913.28,-944.36 984.12,-969.77 1032.76,-987.2"/>
<polygon fill="#a6cee3" stroke="#1f78b4" points="1031.57,-990.5 1042.17,-990.58 1033.94,-983.91 1031.57,-990.5"/>
</g>
<!-- edition -->
<g id="node47" class="node">
<title>edition</title>
<path fill="#1afabc" stroke="black" d="M771.8,-1014.89C771.8,-1014.89 803.8,-1014.89 803.8,-1014.89 809.8,-1014.89 815.8,-1020.89 815.8,-1026.89 815.8,-1026.89 815.8,-1038.89 815.8,-1038.89 815.8,-1044.89 809.8,-1050.89 803.8,-1050.89 803.8,-1050.89 771.8,-1050.89 771.8,-1050.89 765.8,-1050.89 759.8,-1044.89 759.8,-1038.89 759.8,-1038.89 759.8,-1026.89 759.8,-1026.89 759.8,-1020.89 765.8,-1014.89 771.8,-1014.89"/>
<text text-anchor="middle" x="787.8" y="-1029.19" font-family="Arial" font-size="14.00">edition</text>
</g>
<!-- data&#45;&gt;edition -->
<g id="edge46" class="edge">
<title>data&#45;&gt;edition</title>
<path fill="none" stroke="#1f78b4" d="M837.83,-939.36C828.14,-957.47 813.28,-985.26 802.27,-1005.84"/>
<polygon fill="#a6cee3" stroke="#1f78b4" points="799.14,-1004.27 797.51,-1014.74 805.31,-1007.57 799.14,-1004.27"/>
</g>
<!-- isbn -->
<g id="node48" class="node">
<title>isbn</title>
<path fill="#1afabc" stroke="black" d="M676.99,-964.24C676.99,-964.24 706.99,-964.24 706.99,-964.24 712.99,-964.24 718.99,-970.24 718.99,-976.24 718.99,-976.24 718.99,-988.24 718.99,-988.24 718.99,-994.24 712.99,-1000.24 706.99,-1000.24 706.99,-1000.24 676.99,-1000.24 676.99,-1000.24 670.99,-1000.24 664.99,-994.24 664.99,-988.24 664.99,-988.24 664.99,-976.24 664.99,-976.24 664.99,-970.24 670.99,-964.24 676.99,-964.24"/>
<text text-anchor="middle" x="691.99" y="-978.54" font-family="Arial" font-size="14.00">isbn</text>
</g>
<!-- data&#45;&gt;isbn -->
<g id="edge47" class="edge">
<title>data&#45;&gt;isbn</title>
<path fill="none" stroke="#1f78b4" d="M820.59,-931.55C795.1,-941.6 756.76,-956.71 728.58,-967.82"/>
<polygon fill="#a6cee3" stroke="#1f78b4" points="727.09,-964.64 719.07,-971.57 729.66,-971.15 727.09,-964.64"/>
</g>
<!-- booknumber -->
<g id="node49" class="node">
<title>booknumber</title>
<path fill="#1afabc" stroke="black" d="M1073.08,-942.75C1073.08,-942.75 1141.08,-942.75 1141.08,-942.75 1147.08,-942.75 1153.08,-948.75 1153.08,-954.75 1153.08,-954.75 1153.08,-966.75 1153.08,-966.75 1153.08,-972.75 1147.08,-978.75 1141.08,-978.75 1141.08,-978.75 1073.08,-978.75 1073.08,-978.75 1067.08,-978.75 1061.08,-972.75 1061.08,-966.75 1061.08,-966.75 1061.08,-954.75 1061.08,-954.75 1061.08,-948.75 1067.08,-942.75 1073.08,-942.75"/>
<text text-anchor="middle" x="1107.08" y="-957.05" font-family="Arial" font-size="14.00">booknumber</text>
</g>
<!-- data&#45;&gt;booknumber -->
<g id="edge48" class="edge">
<title>data&#45;&gt;booknumber</title>
<path fill="none" stroke="#1f78b4" d="M874.99,-925.05C916.53,-931.44 996.57,-943.75 1050.9,-952.11"/>
<polygon fill="#a6cee3" stroke="#1f78b4" points="1050.65,-955.61 1061.07,-953.68 1051.72,-948.7 1050.65,-955.61"/>
</g>
<!-- volume -->
<g id="node50" class="node">
<title>volume</title>
<path fill="#1afabc" stroke="black" d="M955.15,-1011.4C955.15,-1011.4 992.15,-1011.4 992.15,-1011.4 998.15,-1011.4 1004.15,-1017.4 1004.15,-1023.4 1004.15,-1023.4 1004.15,-1035.4 1004.15,-1035.4 1004.15,-1041.4 998.15,-1047.4 992.15,-1047.4 992.15,-1047.4 955.15,-1047.4 955.15,-1047.4 949.15,-1047.4 943.15,-1041.4 943.15,-1035.4 943.15,-1035.4 943.15,-1023.4 943.15,-1023.4 943.15,-1017.4 949.15,-1011.4 955.15,-1011.4"/>
<text text-anchor="middle" x="973.65" y="-1025.7" font-family="Arial" font-size="14.00">volume</text>
</g>
<!-- data&#45;&gt;volume -->
<g id="edge49" class="edge">
<title>data&#45;&gt;volume</title>
<path fill="none" stroke="#1f78b4" d="M868.8,-939.03C889.59,-956.95 921.54,-984.49 944.7,-1004.45"/>
<polygon fill="#a6cee3" stroke="#1f78b4" points="942.64,-1007.29 952.5,-1011.17 947.21,-1001.99 942.64,-1007.29"/>
</g>
<!-- maintainer -->
<g id="node51" class="node">
<title>maintainer</title>
<path fill="#1afabc" stroke="black" d="M1038.67,-1032.81C1038.67,-1032.81 1094.67,-1032.81 1094.67,-1032.81 1100.67,-1032.81 1106.67,-1038.81 1106.67,-1044.81 1106.67,-1044.81 1106.67,-1056.81 1106.67,-1056.81 1106.67,-1062.81 1100.67,-1068.81 1094.67,-1068.81 1094.67,-1068.81 1038.67,-1068.81 1038.67,-1068.81 1032.67,-1068.81 1026.67,-1062.81 1026.67,-1056.81 1026.67,-1056.81 1026.67,-1044.81 1026.67,-1044.81 1026.67,-1038.81 1032.67,-1032.81 1038.67,-1032.81"/>
<text text-anchor="middle" x="1066.67" y="-1047.11" font-family="Arial" font-size="14.00">maintainer</text>
</g>
<!-- data&#45;&gt;maintainer -->
<g id="edge50" class="edge">
<title>data&#45;&gt;maintainer</title>
<path fill="none" stroke="#1f78b4" d="M875.01,-937.06C913.4,-959.84 983.58,-1001.49 1027.53,-1027.58"/>
<polygon fill="#a6cee3" stroke="#1f78b4" points="1025.83,-1030.64 1036.22,-1032.73 1029.41,-1024.62 1025.83,-1030.64"/>
</g>
<!-- bookrights -->
<g id="node52" class="node">
<title>bookrights</title>
<path fill="#1afabc" stroke="black" d="M991.79,-1077.81C991.79,-1077.81 1046.79,-1077.81 1046.79,-1077.81 1052.79,-1077.81 1058.79,-1083.81 1058.79,-1089.81 1058.79,-1089.81 1058.79,-1101.81 1058.79,-1101.81 1058.79,-1107.81 1052.79,-1113.81 1046.79,-1113.81 1046.79,-1113.81 991.79,-1113.81 991.79,-1113.81 985.79,-1113.81 979.79,-1107.81 979.79,-1101.81 979.79,-1101.81 979.79,-1089.81 979.79,-1089.81 979.79,-1083.81 985.79,-1077.81 991.79,-1077.81"/>
<text text-anchor="middle" x="1019.29" y="-1092.11" font-family="Arial" font-size="14.00">bookrights</text>
</g>
<!-- data&#45;&gt;bookrights -->
<g id="edge51" class="edge">
<title>data&#45;&gt;bookrights</title>
<path fill="none" stroke="#1f78b4" d="M865.43,-938.93C896.13,-970.22 959.27,-1034.61 994.37,-1070.4"/>
<polygon fill="#a6cee3" stroke="#1f78b4" points="991.92,-1072.9 1001.42,-1077.59 996.91,-1068 991.92,-1072.9"/>
</g>
<!-- copyrfirst -->
<g id="node53" class="node">
<title>copyrfirst</title>
<path fill="#1afabc" stroke="black" d="M898.68,-1067.75C898.68,-1067.75 945.68,-1067.75 945.68,-1067.75 951.68,-1067.75 957.68,-1073.75 957.68,-1079.75 957.68,-1079.75 957.68,-1091.75 957.68,-1091.75 957.68,-1097.75 951.68,-1103.75 945.68,-1103.75 945.68,-1103.75 898.68,-1103.75 898.68,-1103.75 892.68,-1103.75 886.68,-1097.75 886.68,-1091.75 886.68,-1091.75 886.68,-1079.75 886.68,-1079.75 886.68,-1073.75 892.68,-1067.75 898.68,-1067.75"/>
<text text-anchor="middle" x="922.18" y="-1082.05" font-family="Arial" font-size="14.00">copyrfirst</text>
</g>
<!-- data&#45;&gt;copyrfirst -->
<g id="edge52" class="edge">
<title>data&#45;&gt;copyrfirst</title>
<path fill="none" stroke="#1f78b4" d="M855.97,-939.14C869.03,-968.06 894.55,-1024.56 909.8,-1058.35"/>
<polygon fill="#a6cee3" stroke="#1f78b4" points="906.7,-1059.97 914,-1067.64 913.08,-1057.09 906.7,-1059.97"/>
</g>
<!-- copyrlast -->
<g id="node54" class="node">
<title>copyrlast</title>
<path fill="#1afabc" stroke="black" d="M713.92,-1059.99C713.92,-1059.99 760.92,-1059.99 760.92,-1059.99 766.92,-1059.99 772.92,-1065.99 772.92,-1071.99 772.92,-1071.99 772.92,-1083.99 772.92,-1083.99 772.92,-1089.99 766.92,-1095.99 760.92,-1095.99 760.92,-1095.99 713.92,-1095.99 713.92,-1095.99 707.92,-1095.99 701.92,-1089.99 701.92,-1083.99 701.92,-1083.99 701.92,-1071.99 701.92,-1071.99 701.92,-1065.99 707.92,-1059.99 713.92,-1059.99"/>
<text text-anchor="middle" x="737.42" y="-1074.29" font-family="Arial" font-size="14.00">copyrlast</text>
</g>
<!-- data&#45;&gt;copyrlast -->
<g id="edge53" class="edge">
<title>data&#45;&gt;copyrlast</title>
<path fill="none" stroke="#1f78b4" d="M835.07,-938.89C815.72,-966.44 778.68,-1019.22 756.19,-1051.25"/>
<polygon fill="#a6cee3" stroke="#1f78b4" points="753.14,-1049.5 750.26,-1059.69 758.87,-1053.52 753.14,-1049.5"/>
</g>
<!-- bookowner -->
<g id="node55" class="node">
<title>bookowner</title>
<path fill="#1afabc" stroke="black" d="M852.13,-1158.51C852.13,-1158.51 911.13,-1158.51 911.13,-1158.51 917.13,-1158.51 923.13,-1164.51 923.13,-1170.51 923.13,-1170.51 923.13,-1182.51 923.13,-1182.51 923.13,-1188.51 917.13,-1194.51 911.13,-1194.51 911.13,-1194.51 852.13,-1194.51 852.13,-1194.51 846.13,-1194.51 840.13,-1188.51 840.13,-1182.51 840.13,-1182.51 840.13,-1170.51 840.13,-1170.51 840.13,-1164.51 846.13,-1158.51 852.13,-1158.51"/>
<text text-anchor="middle" x="881.63" y="-1172.81" font-family="Arial" font-size="14.00">bookowner</text>
</g>
<!-- data&#45;&gt;bookowner -->
<g id="edge54" class="edge">
<title>data&#45;&gt;bookowner</title>
<path fill="none" stroke="#1f78b4" d="M850.16,-939.25C856.01,-983.37 870.89,-1095.53 877.89,-1148.27"/>
<polygon fill="#a6cee3" stroke="#1f78b4" points="874.43,-1148.83 879.22,-1158.29 881.37,-1147.91 874.43,-1148.83"/>
</g>
<!-- bookrestriction -->
<g id="node56" class="node">
<title>bookrestriction</title>
<path fill="#1afabc" stroke="black" d="M1068.34,-836.48C1068.34,-836.48 1148.34,-836.48 1148.34,-836.48 1154.34,-836.48 1160.34,-842.48 1160.34,-848.48 1160.34,-848.48 1160.34,-860.48 1160.34,-860.48 1160.34,-866.48 1154.34,-872.48 1148.34,-872.48 1148.34,-872.48 1068.34,-872.48 1068.34,-872.48 1062.34,-872.48 1056.34,-866.48 1056.34,-860.48 1056.34,-860.48 1056.34,-848.48 1056.34,-848.48 1056.34,-842.48 1062.34,-836.48 1068.34,-836.48"/>
<text text-anchor="middle" x="1108.34" y="-850.78" font-family="Arial" font-size="14.00">bookrestriction</text>
</g>
<!-- data&#45;&gt;bookrestriction -->
<g id="edge55" class="edge">
<title>data&#45;&gt;bookrestriction</title>
<path fill="none" stroke="#1f78b4" d="M875.12,-913.88C915.47,-903.61 991.98,-884.12 1046.36,-870.27"/>
<polygon fill="#a6cee3" stroke="#1f78b4" points="1047.41,-873.61 1056.24,-867.75 1045.68,-866.83 1047.41,-873.61"/>
</g>
<!-- summary -->
<g id="node58" class="node">
<title>summary</title>
<path fill="#1afabc" stroke="black" d="M104.94,-767.4C104.94,-767.4 154.94,-767.4 154.94,-767.4 160.94,-767.4 166.94,-773.4 166.94,-779.4 166.94,-779.4 166.94,-791.4 166.94,-791.4 166.94,-797.4 160.94,-803.4 154.94,-803.4 154.94,-803.4 104.94,-803.4 104.94,-803.4 98.94,-803.4 92.94,-797.4 92.94,-791.4 92.94,-791.4 92.94,-779.4 92.94,-779.4 92.94,-773.4 98.94,-767.4 104.94,-767.4"/>
<text text-anchor="middle" x="129.94" y="-781.7" font-family="Arial" font-size="14.00">summary</text>
</g>
<!-- ph&#45;&gt;summary -->
<g id="edge57" class="edge">
<title>ph&#45;&gt;summary</title>
<path fill="none" stroke="#1f78b4" d="M246.92,-836.09C227.07,-827.49 199.65,-815.61 176.35,-805.51"/>
<polygon fill="#a6cee3" stroke="#1f78b4" points="177.55,-802.21 166.98,-801.45 174.76,-808.64 177.55,-802.21"/>
</g>
<!-- revisionid -->
<g id="node59" class="node">
<title>revisionid</title>
<path fill="#1afabc" stroke="black" d="M181.1,-1008.76C181.1,-1008.76 231.1,-1008.76 231.1,-1008.76 237.1,-1008.76 243.1,-1014.76 243.1,-1020.76 243.1,-1020.76 243.1,-1032.76 243.1,-1032.76 243.1,-1038.76 237.1,-1044.76 231.1,-1044.76 231.1,-1044.76 181.1,-1044.76 181.1,-1044.76 175.1,-1044.76 169.1,-1038.76 169.1,-1032.76 169.1,-1032.76 169.1,-1020.76 169.1,-1020.76 169.1,-1014.76 175.1,-1008.76 181.1,-1008.76"/>
<text text-anchor="middle" x="206.1" y="-1023.06" font-family="Arial" font-size="14.00">revisionid</text>
</g>
<!-- ph&#45;&gt;revisionid -->
<g id="edge58" class="edge">
<title>ph&#45;&gt;revisionid</title>
<path fill="none" stroke="#1f78b4" d="M267.13,-865.97C255.23,-897.32 230.75,-961.82 216.67,-998.89"/>
<polygon fill="#a6cee3" stroke="#1f78b4" points="213.28,-997.98 213,-1008.57 219.82,-1000.47 213.28,-997.98"/>
</g>
<!-- started -->
<g id="node60" class="node">
<title>started</title>
<path fill="#1afabc" stroke="black" d="M277.35,-994.93C277.35,-994.93 311.35,-994.93 311.35,-994.93 317.35,-994.93 323.35,-1000.93 323.35,-1006.93 323.35,-1006.93 323.35,-1018.93 323.35,-1018.93 323.35,-1024.93 317.35,-1030.93 311.35,-1030.93 311.35,-1030.93 277.35,-1030.93 277.35,-1030.93 271.35,-1030.93 265.35,-1024.93 265.35,-1018.93 265.35,-1018.93 265.35,-1006.93 265.35,-1006.93 265.35,-1000.93 271.35,-994.93 277.35,-994.93"/>
<text text-anchor="middle" x="294.35" y="-1009.23" font-family="Arial" font-size="14.00">started</text>
</g>
<!-- ph&#45;&gt;started -->
<g id="edge59" class="edge">
<title>ph&#45;&gt;started</title>
<path fill="none" stroke="#1f78b4" d="M276.27,-866.13C279.81,-894.84 286.69,-950.69 290.87,-984.61"/>
<polygon fill="#a6cee3" stroke="#1f78b4" points="287.42,-985.3 292.12,-994.8 294.37,-984.44 287.42,-985.3"/>
</g>
<!-- completed -->
<g id="node61" class="node">
<title>completed</title>
<path fill="#1afabc" stroke="black" d="M195.26,-949.9C195.26,-949.9 251.26,-949.9 251.26,-949.9 257.26,-949.9 263.26,-955.9 263.26,-961.9 263.26,-961.9 263.26,-973.9 263.26,-973.9 263.26,-979.9 257.26,-985.9 251.26,-985.9 251.26,-985.9 195.26,-985.9 195.26,-985.9 189.26,-985.9 183.26,-979.9 183.26,-973.9 183.26,-973.9 183.26,-961.9 183.26,-961.9 183.26,-955.9 189.26,-949.9 195.26,-949.9"/>
<text text-anchor="middle" x="223.26" y="-964.2" font-family="Arial" font-size="14.00">completed</text>
</g>
<!-- ph&#45;&gt;completed -->
<g id="edge60" class="edge">
<title>ph&#45;&gt;completed</title>
<path fill="none" stroke="#1f78b4" d="M266.31,-866.06C257.95,-885.84 244.52,-917.62 234.88,-940.42"/>
<polygon fill="#a6cee3" stroke="#1f78b4" points="231.55,-939.31 230.88,-949.89 237.99,-942.04 231.55,-939.31"/>
</g>
<!-- year -->
<g id="node62" class="node">
<title>year</title>
<path fill="#1afabc" stroke="black" d="M343.4,-950.41C343.4,-950.41 373.4,-950.41 373.4,-950.41 379.4,-950.41 385.4,-956.41 385.4,-962.41 385.4,-962.41 385.4,-974.41 385.4,-974.41 385.4,-980.41 379.4,-986.41 373.4,-986.41 373.4,-986.41 343.4,-986.41 343.4,-986.41 337.4,-986.41 331.4,-980.41 331.4,-974.41 331.4,-974.41 331.4,-962.41 331.4,-962.41 331.4,-956.41 337.4,-950.41 343.4,-950.41"/>
<text text-anchor="middle" x="358.4" y="-964.71" font-family="Arial" font-size="14.00">year</text>
</g>
<!-- ph&#45;&gt;year -->
<g id="edge61" class="edge">
<title>ph&#45;&gt;year</title>
<path fill="none" stroke="#1f78b4" d="M286.65,-865.88C300.75,-886.04 323.72,-918.85 339.86,-941.92"/>
<polygon fill="#a6cee3" stroke="#1f78b4" points="337.08,-944.05 345.68,-950.24 342.81,-940.04 337.08,-944.05"/>
</g>
<!-- month -->
<g id="node63" class="node">
<title>month</title>
<path fill="#1afabc" stroke="black" d="M132.23,-963.72C132.23,-963.72 163.23,-963.72 163.23,-963.72 169.23,-963.72 175.23,-969.72 175.23,-975.72 175.23,-975.72 175.23,-987.72 175.23,-987.72 175.23,-993.72 169.23,-999.72 163.23,-999.72 163.23,-999.72 132.23,-999.72 132.23,-999.72 126.23,-999.72 120.23,-993.72 120.23,-987.72 120.23,-987.72 120.23,-975.72 120.23,-975.72 120.23,-969.72 126.23,-963.72 132.23,-963.72"/>
<text text-anchor="middle" x="147.73" y="-978.02" font-family="Arial" font-size="14.00">month</text>
</g>
<!-- ph&#45;&gt;month -->
<g id="edge62" class="edge">
<title>ph&#45;&gt;month</title>
<path fill="none" stroke="#1f78b4" d="M256.98,-865.89C235.05,-889.15 196.78,-929.72 171.85,-956.14"/>
<polygon fill="#a6cee3" stroke="#1f78b4" points="169.21,-953.85 164.89,-963.53 174.3,-958.65 169.21,-953.85"/>
</g>
<!-- day -->
<g id="node64" class="node">
<title>day</title>
<path fill="#1afabc" stroke="black" d="M125.78,-857.48C125.78,-857.48 155.78,-857.48 155.78,-857.48 161.78,-857.48 167.78,-863.48 167.78,-869.48 167.78,-869.48 167.78,-881.48 167.78,-881.48 167.78,-887.48 161.78,-893.48 155.78,-893.48 155.78,-893.48 125.78,-893.48 125.78,-893.48 119.78,-893.48 113.78,-887.48 113.78,-881.48 113.78,-881.48 113.78,-869.48 113.78,-869.48 113.78,-863.48 119.78,-857.48 125.78,-857.48"/>
<text text-anchor="middle" x="140.78" y="-871.78" font-family="Arial" font-size="14.00">day</text>
</g>
<!-- ph&#45;&gt;day -->
<g id="edge63" class="edge">
<title>ph&#45;&gt;day</title>
<path fill="none" stroke="#1f78b4" d="M246.73,-853.49C226.88,-857.61 199.78,-863.23 177.95,-867.76"/>
<polygon fill="#a6cee3" stroke="#1f78b4" points="177.11,-864.36 168.03,-869.82 178.53,-871.22 177.11,-864.36"/>
</g>
<!-- booklibrary -->
<g id="node65" class="node">
<title>booklibrary</title>
<path fill="#1afabc" stroke="black" d="M53.35,-812.44C53.35,-812.44 112.35,-812.44 112.35,-812.44 118.35,-812.44 124.35,-818.44 124.35,-824.44 124.35,-824.44 124.35,-836.44 124.35,-836.44 124.35,-842.44 118.35,-848.44 112.35,-848.44 112.35,-848.44 53.35,-848.44 53.35,-848.44 47.35,-848.44 41.35,-842.44 41.35,-836.44 41.35,-836.44 41.35,-824.44 41.35,-824.44 41.35,-818.44 47.35,-812.44 53.35,-812.44"/>
<text text-anchor="middle" x="82.85" y="-826.74" font-family="Arial" font-size="14.00">booklibrary</text>
</g>
<!-- ph&#45;&gt;booklibrary -->
<g id="edge64" class="edge">
<title>ph&#45;&gt;booklibrary</title>
<path fill="none" stroke="#1f78b4" d="M246.63,-845.34C217.59,-842.7 171.04,-838.46 134.97,-835.18"/>
<polygon fill="#a6cee3" stroke="#1f78b4" points="134.9,-831.66 124.63,-834.24 134.27,-838.63 134.9,-831.66"/>
</g>
<!-- mainbooktitle -->
<g id="node66" class="node">
<title>mainbooktitle</title>
<path fill="#1afabc" stroke="black" d="M20.35,-873.65C20.35,-873.65 93.35,-873.65 93.35,-873.65 99.35,-873.65 105.35,-879.65 105.35,-885.65 105.35,-885.65 105.35,-897.65 105.35,-897.65 105.35,-903.65 99.35,-909.65 93.35,-909.65 93.35,-909.65 20.35,-909.65 20.35,-909.65 14.35,-909.65 8.35,-903.65 8.35,-897.65 8.35,-897.65 8.35,-885.65 8.35,-885.65 8.35,-879.65 14.35,-873.65 20.35,-873.65"/>
<text text-anchor="middle" x="56.85" y="-887.95" font-family="Arial" font-size="14.00">mainbooktitle</text>
</g>
<!-- ph&#45;&gt;mainbooktitle -->
<g id="edge65" class="edge">
<title>ph&#45;&gt;mainbooktitle</title>
<path fill="none" stroke="#1f78b4" d="M246.95,-853.29C214.21,-859.9 158.18,-871.2 115.4,-879.83"/>
<polygon fill="#a6cee3" stroke="#1f78b4" points="114.5,-876.44 105.39,-881.85 115.88,-883.31 114.5,-876.44"/>
</g>
<!-- booktitlealt -->
<g id="node67" class="node">
<title>booktitlealt</title>
<path fill="#1afabc" stroke="black" d="M52.54,-918.69C52.54,-918.69 109.54,-918.69 109.54,-918.69 115.54,-918.69 121.54,-924.69 121.54,-930.69 121.54,-930.69 121.54,-942.69 121.54,-942.69 121.54,-948.69 115.54,-954.69 109.54,-954.69 109.54,-954.69 52.54,-954.69 52.54,-954.69 46.54,-954.69 40.54,-948.69 40.54,-942.69 40.54,-942.69 40.54,-930.69 40.54,-930.69 40.54,-924.69 46.54,-918.69 52.54,-918.69"/>
<text text-anchor="middle" x="81.04" y="-932.99" font-family="Arial" font-size="14.00">booktitlealt</text>
</g>
<!-- ph&#45;&gt;booktitlealt -->
<g id="edge66" class="edge">
<title>ph&#45;&gt;booktitlealt</title>
<path fill="none" stroke="#1f78b4" d="M246.78,-860.37C216.32,-874.4 166.4,-897.38 129.3,-914.47"/>
<polygon fill="#a6cee3" stroke="#1f78b4" points="127.78,-911.31 120.16,-918.68 130.71,-917.67 127.78,-911.31"/>
</g>
<!-- booktitle -->
<g id="node69" class="node">
<title>booktitle</title>
<path fill="#1afabc" stroke="black" d="M772.22,-421.07C772.22,-421.07 815.22,-421.07 815.22,-421.07 821.22,-421.07 827.22,-427.07 827.22,-433.07 827.22,-433.07 827.22,-445.07 827.22,-445.07 827.22,-451.07 821.22,-457.07 815.22,-457.07 815.22,-457.07 772.22,-457.07 772.22,-457.07 766.22,-457.07 760.22,-451.07 760.22,-445.07 760.22,-445.07 760.22,-433.07 760.22,-433.07 760.22,-427.07 766.22,-421.07 772.22,-421.07"/>
<text text-anchor="middle" x="793.72" y="-435.37" font-family="Arial" font-size="14.00">booktitle</text>
</g>
<!-- title&#45;&gt;booktitle -->
<g id="edge68" class="edge">
<title>title&#45;&gt;booktitle</title>
<path fill="none" stroke="#1f78b4" d="M701.94,-505.6C719.04,-493.2 741.86,-476.66 760.48,-463.17"/>
<polygon fill="#a6cee3" stroke="#1f78b4" points="762.65,-465.91 768.69,-457.21 758.54,-460.24 762.65,-465.91"/>
</g>
</g>
</svg>
