<?xml version="1.0" encoding="UTF-8" standalone="no"?>
<!DOCTYPE svg PUBLIC "-//W3C//DTD SVG 1.1//EN"
 "http://www.w3.org/Graphics/SVG/1.1/DTD/svg11.dtd">
<!-- Generated by graphviz version 6.0.1 (20220911.1526)
 -->
<!-- Pages: 1 -->
<svg width="882pt" height="731pt"
 viewBox="0.00 0.00 882.00 731.00" xmlns="http://www.w3.org/2000/svg" xmlns:xlink="http://www.w3.org/1999/xlink">
<g id="graph0" class="graph" transform="scale(1 1) rotate(0) translate(4 727)">
<polygon fill="white" stroke="none" points="-4,4 -4,-727 878,-727 878,4 -4,4"/>
<!-- taskModule -->
<g id="node1" class="node">
<title>taskModule</title>
<path fill="#dddddd" stroke="black" d="M357.33,-378.36C357.33,-378.36 419.33,-378.36 419.33,-378.36 425.33,-378.36 431.33,-384.36 431.33,-390.36 431.33,-390.36 431.33,-402.36 431.33,-402.36 431.33,-408.36 425.33,-414.36 419.33,-414.36 419.33,-414.36 357.33,-414.36 357.33,-414.36 351.33,-414.36 345.33,-408.36 345.33,-402.36 345.33,-402.36 345.33,-390.36 345.33,-390.36 345.33,-384.36 351.33,-378.36 357.33,-378.36"/>
<text text-anchor="middle" x="388.33" y="-392.66" font-family="Arial" font-size="14.00">taskModule</text>
</g>
<!-- topic -->
<g id="node2" class="node">
<title>topic</title>
<path fill="#afa7f4" stroke="black" d="M445.23,-258.48C445.23,-258.48 475.23,-258.48 475.23,-258.48 481.23,-258.48 487.23,-264.48 487.23,-270.48 487.23,-270.48 487.23,-282.48 487.23,-282.48 487.23,-288.48 481.23,-294.48 475.23,-294.48 475.23,-294.48 445.23,-294.48 445.23,-294.48 439.23,-294.48 433.23,-288.48 433.23,-282.48 433.23,-282.48 433.23,-270.48 433.23,-270.48 433.23,-264.48 439.23,-258.48 445.23,-258.48"/>
<text text-anchor="middle" x="460.23" y="-272.78" font-family="Arial" font-size="14.00">topic</text>
</g>
<!-- taskModule&#45;&gt;topic -->
<g id="edge1" class="edge">
<title>taskModule&#45;&gt;topic</title>
<path fill="none" stroke="#1f78b4" d="M399.25,-378.15C411.13,-358.35 430.24,-326.48 443.9,-303.7"/>
<polygon fill="#a6cee3" stroke="#1f78b4" points="447.07,-305.23 449.21,-294.86 441.06,-301.63 447.07,-305.23"/>
</g>
<!-- body -->
<g id="node4" class="node">
<title>body</title>
<path fill="#afa7f4" stroke="black" d="M406.69,-517.99C406.69,-517.99 436.69,-517.99 436.69,-517.99 442.69,-517.99 448.69,-523.99 448.69,-529.99 448.69,-529.99 448.69,-541.99 448.69,-541.99 448.69,-547.99 442.69,-553.99 436.69,-553.99 436.69,-553.99 406.69,-553.99 406.69,-553.99 400.69,-553.99 394.69,-547.99 394.69,-541.99 394.69,-541.99 394.69,-529.99 394.69,-529.99 394.69,-523.99 400.69,-517.99 406.69,-517.99"/>
<text text-anchor="middle" x="421.69" y="-532.29" font-family="Arial" font-size="14.00">body</text>
</g>
<!-- taskModule&#45;&gt;body -->
<g id="edge3" class="edge">
<title>taskModule&#45;&gt;body</title>
<path fill="none" stroke="#1f78b4" d="M392.69,-414.61C398.36,-438.34 408.32,-480.02 414.96,-507.82"/>
<polygon fill="#a6cee3" stroke="#1f78b4" points="411.6,-508.82 417.33,-517.73 418.41,-507.19 411.6,-508.82"/>
</g>
<!-- section -->
<g id="node6" class="node">
<title>section</title>
<path fill="#afa7f4" stroke="black" d="M360.85,-180.57C360.85,-180.57 395.85,-180.57 395.85,-180.57 401.85,-180.57 407.85,-186.57 407.85,-192.57 407.85,-192.57 407.85,-204.57 407.85,-204.57 407.85,-210.57 401.85,-216.57 395.85,-216.57 395.85,-216.57 360.85,-216.57 360.85,-216.57 354.85,-216.57 348.85,-210.57 348.85,-204.57 348.85,-204.57 348.85,-192.57 348.85,-192.57 348.85,-186.57 354.85,-180.57 360.85,-180.57"/>
<text text-anchor="middle" x="378.35" y="-194.87" font-family="Arial" font-size="14.00">section</text>
</g>
<!-- taskModule&#45;&gt;section -->
<g id="edge5" class="edge">
<title>taskModule&#45;&gt;section</title>
<path fill="none" stroke="#1f78b4" d="M387.4,-378.11C385.66,-343.52 381.86,-268.21 379.78,-226.97"/>
<polygon fill="#a6cee3" stroke="#1f78b4" points="383.27,-226.59 379.27,-216.78 376.28,-226.94 383.27,-226.59"/>
</g>
<!-- ol -->
<g id="node13" class="node">
<title>ol</title>
<path fill="#afa7f4" stroke="black" d="M483.08,-516.15C483.08,-516.15 513.08,-516.15 513.08,-516.15 519.08,-516.15 525.08,-522.15 525.08,-528.15 525.08,-528.15 525.08,-540.15 525.08,-540.15 525.08,-546.15 519.08,-552.15 513.08,-552.15 513.08,-552.15 483.08,-552.15 483.08,-552.15 477.08,-552.15 471.08,-546.15 471.08,-540.15 471.08,-540.15 471.08,-528.15 471.08,-528.15 471.08,-522.15 477.08,-516.15 483.08,-516.15"/>
<text text-anchor="middle" x="498.08" y="-530.45" font-family="Arial" font-size="14.00">ol</text>
</g>
<!-- taskModule&#45;&gt;ol -->
<g id="edge12" class="edge">
<title>taskModule&#45;&gt;ol</title>
<path fill="none" stroke="#1f78b4" d="M402.67,-414.37C421.74,-438.3 455.54,-480.74 477.36,-508.14"/>
<polygon fill="#a6cee3" stroke="#1f78b4" points="474.76,-510.49 483.72,-516.13 480.23,-506.13 474.76,-510.49"/>
</g>
<!-- ul -->
<g id="node16" class="node">
<title>ul</title>
<path fill="#afa7f4" stroke="black" d="M505.12,-370.55C505.12,-370.55 535.12,-370.55 535.12,-370.55 541.12,-370.55 547.12,-376.55 547.12,-382.55 547.12,-382.55 547.12,-394.55 547.12,-394.55 547.12,-400.55 541.12,-406.55 535.12,-406.55 535.12,-406.55 505.12,-406.55 505.12,-406.55 499.12,-406.55 493.12,-400.55 493.12,-394.55 493.12,-394.55 493.12,-382.55 493.12,-382.55 493.12,-376.55 499.12,-370.55 505.12,-370.55"/>
<text text-anchor="middle" x="520.12" y="-384.85" font-family="Arial" font-size="14.00">ul</text>
</g>
<!-- taskModule&#45;&gt;ul -->
<g id="edge15" class="edge">
<title>taskModule&#45;&gt;ul</title>
<path fill="none" stroke="#1f78b4" d="M431.48,-393.8C448.11,-392.82 466.94,-391.7 482.95,-390.75"/>
<polygon fill="#a6cee3" stroke="#1f78b4" points="483.24,-394.24 493.02,-390.16 482.83,-387.25 483.24,-394.24"/>
</g>
<!-- li -->
<g id="node19" class="node">
<title>li</title>
<path fill="#afa7f4" stroke="black" d="M193.21,-332.06C193.21,-332.06 223.21,-332.06 223.21,-332.06 229.21,-332.06 235.21,-338.06 235.21,-344.06 235.21,-344.06 235.21,-356.06 235.21,-356.06 235.21,-362.06 229.21,-368.06 223.21,-368.06 223.21,-368.06 193.21,-368.06 193.21,-368.06 187.21,-368.06 181.21,-362.06 181.21,-356.06 181.21,-356.06 181.21,-344.06 181.21,-344.06 181.21,-338.06 187.21,-332.06 193.21,-332.06"/>
<text text-anchor="middle" x="208.21" y="-346.36" font-family="Arial" font-size="14.00">li</text>
</g>
<!-- taskModule&#45;&gt;li -->
<g id="edge18" class="edge">
<title>taskModule&#45;&gt;li</title>
<path fill="none" stroke="#1f78b4" d="M345.18,-385.27C314.65,-377.42 274.13,-367 245.1,-359.54"/>
<polygon fill="#a6cee3" stroke="#1f78b4" points="245.9,-356.13 235.34,-357.03 244.15,-362.91 245.9,-356.13"/>
</g>
<!-- ph -->
<g id="node24" class="node">
<title>ph</title>
<path fill="#afa7f4" stroke="black" d="M342.27,-554.37C342.27,-554.37 372.27,-554.37 372.27,-554.37 378.27,-554.37 384.27,-560.37 384.27,-566.37 384.27,-566.37 384.27,-578.37 384.27,-578.37 384.27,-584.37 378.27,-590.37 372.27,-590.37 372.27,-590.37 342.27,-590.37 342.27,-590.37 336.27,-590.37 330.27,-584.37 330.27,-578.37 330.27,-578.37 330.27,-566.37 330.27,-566.37 330.27,-560.37 336.27,-554.37 342.27,-554.37"/>
<text text-anchor="middle" x="357.27" y="-568.67" font-family="Arial" font-size="14.00">ph</text>
</g>
<!-- taskModule&#45;&gt;ph -->
<g id="edge23" class="edge">
<title>taskModule&#45;&gt;ph</title>
<path fill="none" stroke="#1f78b4" d="M385.12,-414.53C379.69,-445.31 368.65,-507.89 362.22,-544.33"/>
<polygon fill="#a6cee3" stroke="#1f78b4" points="358.75,-543.84 360.46,-554.3 365.64,-545.06 358.75,-543.84"/>
</g>
<!-- itemgroup -->
<g id="node26" class="node">
<title>itemgroup</title>
<path fill="#afa7f4" stroke="black" d="M567.17,-351.96C567.17,-351.96 620.17,-351.96 620.17,-351.96 626.17,-351.96 632.17,-357.96 632.17,-363.96 632.17,-363.96 632.17,-375.96 632.17,-375.96 632.17,-381.96 626.17,-387.96 620.17,-387.96 620.17,-387.96 567.17,-387.96 567.17,-387.96 561.17,-387.96 555.17,-381.96 555.17,-375.96 555.17,-375.96 555.17,-363.96 555.17,-363.96 555.17,-357.96 561.17,-351.96 567.17,-351.96"/>
<text text-anchor="middle" x="593.67" y="-366.26" font-family="Arial" font-size="14.00">itemgroup</text>
</g>
<!-- taskModule&#45;&gt;itemgroup -->
<g id="edge25" class="edge">
<title>taskModule&#45;&gt;itemgroup</title>
<path fill="none" stroke="#1f78b4" d="M431.37,-390.82C464.41,-386.58 510.06,-380.71 544.53,-376.28"/>
<polygon fill="#a6cee3" stroke="#1f78b4" points="545.37,-379.7 554.84,-374.95 544.48,-372.75 545.37,-379.7"/>
</g>
<!-- simpletable -->
<g id="node32" class="node">
<title>simpletable</title>
<path fill="#afa7f4" stroke="black" d="M221.82,-268.73C221.82,-268.73 283.82,-268.73 283.82,-268.73 289.82,-268.73 295.82,-274.73 295.82,-280.73 295.82,-280.73 295.82,-292.73 295.82,-292.73 295.82,-298.73 289.82,-304.73 283.82,-304.73 283.82,-304.73 221.82,-304.73 221.82,-304.73 215.82,-304.73 209.82,-298.73 209.82,-292.73 209.82,-292.73 209.82,-280.73 209.82,-280.73 209.82,-274.73 215.82,-268.73 221.82,-268.73"/>
<text text-anchor="middle" x="252.82" y="-283.03" font-family="Arial" font-size="14.00">simpletable</text>
</g>
<!-- taskModule&#45;&gt;simpletable -->
<g id="edge31" class="edge">
<title>taskModule&#45;&gt;simpletable</title>
<path fill="none" stroke="#1f78b4" d="M365.95,-378.26C343.39,-360.01 308.42,-331.71 283.33,-311.41"/>
<polygon fill="#a6cee3" stroke="#1f78b4" points="285.2,-308.43 275.23,-304.86 280.8,-313.87 285.2,-308.43"/>
</g>
<!-- sthead -->
<g id="node34" class="node">
<title>sthead</title>
<path fill="#afa7f4" stroke="black" d="M504.26,-465.87C504.26,-465.87 537.26,-465.87 537.26,-465.87 543.26,-465.87 549.26,-471.87 549.26,-477.87 549.26,-477.87 549.26,-489.87 549.26,-489.87 549.26,-495.87 543.26,-501.87 537.26,-501.87 537.26,-501.87 504.26,-501.87 504.26,-501.87 498.26,-501.87 492.26,-495.87 492.26,-489.87 492.26,-489.87 492.26,-477.87 492.26,-477.87 492.26,-471.87 498.26,-465.87 504.26,-465.87"/>
<text text-anchor="middle" x="520.76" y="-480.17" font-family="Arial" font-size="14.00">sthead</text>
</g>
<!-- taskModule&#45;&gt;sthead -->
<g id="edge33" class="edge">
<title>taskModule&#45;&gt;sthead</title>
<path fill="none" stroke="#1f78b4" d="M415.77,-414.49C435.83,-427.75 463.23,-445.86 485.01,-460.25"/>
<polygon fill="#a6cee3" stroke="#1f78b4" points="483.08,-463.17 493.35,-465.76 486.94,-457.33 483.08,-463.17"/>
</g>
<!-- stentry -->
<g id="node36" class="node">
<title>stentry</title>
<path fill="#afa7f4" stroke="black" d="M187.76,-468.22C187.76,-468.22 220.76,-468.22 220.76,-468.22 226.76,-468.22 232.76,-474.22 232.76,-480.22 232.76,-480.22 232.76,-492.22 232.76,-492.22 232.76,-498.22 226.76,-504.22 220.76,-504.22 220.76,-504.22 187.76,-504.22 187.76,-504.22 181.76,-504.22 175.76,-498.22 175.76,-492.22 175.76,-492.22 175.76,-480.22 175.76,-480.22 175.76,-474.22 181.76,-468.22 187.76,-468.22"/>
<text text-anchor="middle" x="204.26" y="-482.52" font-family="Arial" font-size="14.00">stentry</text>
</g>
<!-- taskModule&#45;&gt;stentry -->
<g id="edge35" class="edge">
<title>taskModule&#45;&gt;stentry</title>
<path fill="none" stroke="#1f78b4" d="M351.08,-414.54C319.33,-430.04 273.92,-452.21 242.03,-467.78"/>
<polygon fill="#a6cee3" stroke="#1f78b4" points="240.45,-464.65 233,-472.18 243.53,-470.94 240.45,-464.65"/>
</g>
<!-- strow -->
<g id="node41" class="node">
<title>strow</title>
<path fill="#afa7f4" stroke="black" d="M275.91,-509.35C275.91,-509.35 305.91,-509.35 305.91,-509.35 311.91,-509.35 317.91,-515.35 317.91,-521.35 317.91,-521.35 317.91,-533.35 317.91,-533.35 317.91,-539.35 311.91,-545.35 305.91,-545.35 305.91,-545.35 275.91,-545.35 275.91,-545.35 269.91,-545.35 263.91,-539.35 263.91,-533.35 263.91,-533.35 263.91,-521.35 263.91,-521.35 263.91,-515.35 269.91,-509.35 275.91,-509.35"/>
<text text-anchor="middle" x="290.91" y="-523.65" font-family="Arial" font-size="14.00">strow</text>
</g>
<!-- taskModule&#45;&gt;strow -->
<g id="edge40" class="edge">
<title>taskModule&#45;&gt;strow</title>
<path fill="none" stroke="#1f78b4" d="M374.78,-414.57C358.06,-437.06 329.5,-475.46 310.42,-501.12"/>
<polygon fill="#a6cee3" stroke="#1f78b4" points="307.5,-499.18 304.34,-509.29 313.12,-503.36 307.5,-499.18"/>
</g>
<!-- task -->
<g id="node3" class="node">
<title>task</title>
<path fill="#1afabc" stroke="black" d="M530.79,-150.13C530.79,-150.13 560.79,-150.13 560.79,-150.13 566.79,-150.13 572.79,-156.13 572.79,-162.13 572.79,-162.13 572.79,-174.13 572.79,-174.13 572.79,-180.13 566.79,-186.13 560.79,-186.13 560.79,-186.13 530.79,-186.13 530.79,-186.13 524.79,-186.13 518.79,-180.13 518.79,-174.13 518.79,-174.13 518.79,-162.13 518.79,-162.13 518.79,-156.13 524.79,-150.13 530.79,-150.13"/>
<text text-anchor="middle" x="545.79" y="-164.43" font-family="Arial" font-size="14.00">task</text>
</g>
<!-- topic&#45;&gt;task -->
<g id="edge2" class="edge">
<title>topic&#45;&gt;task</title>
<path fill="none" stroke="#1f78b4" d="M474.75,-258.1C488.59,-240.56 509.6,-213.96 525.18,-194.23"/>
<polygon fill="#a6cee3" stroke="#1f78b4" points="528.04,-196.26 531.49,-186.24 522.54,-191.92 528.04,-196.26"/>
</g>
<!-- taskbody -->
<g id="node5" class="node">
<title>taskbody</title>
<path fill="#1afabc" stroke="black" d="M405.8,-660.06C405.8,-660.06 452.8,-660.06 452.8,-660.06 458.8,-660.06 464.8,-666.06 464.8,-672.06 464.8,-672.06 464.8,-684.06 464.8,-684.06 464.8,-690.06 458.8,-696.06 452.8,-696.06 452.8,-696.06 405.8,-696.06 405.8,-696.06 399.8,-696.06 393.8,-690.06 393.8,-684.06 393.8,-684.06 393.8,-672.06 393.8,-672.06 393.8,-666.06 399.8,-660.06 405.8,-660.06"/>
<text text-anchor="middle" x="429.3" y="-674.36" font-family="Arial" font-size="14.00">taskbody</text>
</g>
<!-- body&#45;&gt;taskbody -->
<g id="edge4" class="edge">
<title>body&#45;&gt;taskbody</title>
<path fill="none" stroke="#1f78b4" d="M422.67,-554.27C423.96,-578.46 426.26,-621.34 427.78,-649.74"/>
<polygon fill="#a6cee3" stroke="#1f78b4" points="424.3,-650.05 428.33,-659.85 431.29,-649.67 424.3,-650.05"/>
</g>
<!-- prereq -->
<g id="node7" class="node">
<title>prereq</title>
<path fill="#1afabc" stroke="black" d="M306.66,-96.77C306.66,-96.77 338.66,-96.77 338.66,-96.77 344.66,-96.77 350.66,-102.77 350.66,-108.77 350.66,-108.77 350.66,-120.77 350.66,-120.77 350.66,-126.77 344.66,-132.77 338.66,-132.77 338.66,-132.77 306.66,-132.77 306.66,-132.77 300.66,-132.77 294.66,-126.77 294.66,-120.77 294.66,-120.77 294.66,-108.77 294.66,-108.77 294.66,-102.77 300.66,-96.77 306.66,-96.77"/>
<text text-anchor="middle" x="322.66" y="-111.07" font-family="Arial" font-size="14.00">prereq</text>
</g>
<!-- section&#45;&gt;prereq -->
<g id="edge6" class="edge">
<title>section&#45;&gt;prereq</title>
<path fill="none" stroke="#1f78b4" d="M366.27,-180.39C358.68,-168.97 348.76,-154.04 340.3,-141.31"/>
<polygon fill="#a6cee3" stroke="#1f78b4" points="343.17,-139.31 334.72,-132.92 337.34,-143.18 343.17,-139.31"/>
</g>
<!-- context -->
<g id="node8" class="node">
<title>context</title>
<path fill="#1afabc" stroke="black" d="M380.37,-54.69C380.37,-54.69 416.37,-54.69 416.37,-54.69 422.37,-54.69 428.37,-60.69 428.37,-66.69 428.37,-66.69 428.37,-78.69 428.37,-78.69 428.37,-84.69 422.37,-90.69 416.37,-90.69 416.37,-90.69 380.37,-90.69 380.37,-90.69 374.37,-90.69 368.37,-84.69 368.37,-78.69 368.37,-78.69 368.37,-66.69 368.37,-66.69 368.37,-60.69 374.37,-54.69 380.37,-54.69"/>
<text text-anchor="middle" x="398.37" y="-68.99" font-family="Arial" font-size="14.00">context</text>
</g>
<!-- section&#45;&gt;context -->
<g id="edge7" class="edge">
<title>section&#45;&gt;context</title>
<path fill="none" stroke="#1f78b4" d="M381.22,-180.53C384.53,-159.69 390.03,-125.13 393.9,-100.76"/>
<polygon fill="#a6cee3" stroke="#1f78b4" points="397.39,-101.11 395.51,-90.69 390.48,-100.01 397.39,-101.11"/>
</g>
<!-- steps&#45;informal -->
<g id="node9" class="node">
<title>steps&#45;informal</title>
<path fill="#1afabc" stroke="black" d="M375.48,-0.78C375.48,-0.78 453.48,-0.78 453.48,-0.78 459.48,-0.78 465.48,-6.78 465.48,-12.78 465.48,-12.78 465.48,-24.78 465.48,-24.78 465.48,-30.78 459.48,-36.78 453.48,-36.78 453.48,-36.78 375.48,-36.78 375.48,-36.78 369.48,-36.78 363.48,-30.78 363.48,-24.78 363.48,-24.78 363.48,-12.78 363.48,-12.78 363.48,-6.78 369.48,-0.78 375.48,-0.78"/>
<text text-anchor="middle" x="414.48" y="-15.08" font-family="Arial" font-size="14.00">steps&#45;informal</text>
</g>
<!-- section&#45;&gt;steps&#45;informal -->
<g id="edge8" class="edge">
<title>section&#45;&gt;steps&#45;informal</title>
<path fill="none" stroke="#1f78b4" d="M382.01,-180.34C388.33,-148.9 401.32,-84.26 408.82,-46.98"/>
<polygon fill="#a6cee3" stroke="#1f78b4" points="412.32,-47.29 410.86,-36.79 405.46,-45.91 412.32,-47.29"/>
</g>
<!-- tasktroubleshooting -->
<g id="node10" class="node">
<title>tasktroubleshooting</title>
<path fill="#1afabc" stroke="black" d="M460.02,-50.56C460.02,-50.56 570.02,-50.56 570.02,-50.56 576.02,-50.56 582.02,-56.56 582.02,-62.56 582.02,-62.56 582.02,-74.56 582.02,-74.56 582.02,-80.56 576.02,-86.56 570.02,-86.56 570.02,-86.56 460.02,-86.56 460.02,-86.56 454.02,-86.56 448.02,-80.56 448.02,-74.56 448.02,-74.56 448.02,-62.56 448.02,-62.56 448.02,-56.56 454.02,-50.56 460.02,-50.56"/>
<text text-anchor="middle" x="515.02" y="-64.86" font-family="Arial" font-size="14.00">tasktroubleshooting</text>
</g>
<!-- section&#45;&gt;tasktroubleshooting -->
<g id="edge9" class="edge">
<title>section&#45;&gt;tasktroubleshooting</title>
<path fill="none" stroke="#1f78b4" d="M397.35,-180.49C420.99,-158.01 461.47,-119.5 488.24,-94.03"/>
<polygon fill="#a6cee3" stroke="#1f78b4" points="490.91,-96.33 495.74,-86.9 486.08,-91.26 490.91,-96.33"/>
</g>
<!-- result -->
<g id="node11" class="node">
<title>result</title>
<path fill="#1afabc" stroke="black" d="M309.81,-32.87C309.81,-32.87 339.81,-32.87 339.81,-32.87 345.81,-32.87 351.81,-38.87 351.81,-44.87 351.81,-44.87 351.81,-56.87 351.81,-56.87 351.81,-62.87 345.81,-68.87 339.81,-68.87 339.81,-68.87 309.81,-68.87 309.81,-68.87 303.81,-68.87 297.81,-62.87 297.81,-56.87 297.81,-56.87 297.81,-44.87 297.81,-44.87 297.81,-38.87 303.81,-32.87 309.81,-32.87"/>
<text text-anchor="middle" x="324.81" y="-47.17" font-family="Arial" font-size="14.00">result</text>
</g>
<!-- section&#45;&gt;result -->
<g id="edge10" class="edge">
<title>section&#45;&gt;result</title>
<path fill="none" stroke="#1f78b4" d="M371.79,-180.46C362.55,-154.99 345.66,-108.38 334.84,-78.55"/>
<polygon fill="#a6cee3" stroke="#1f78b4" points="338.13,-77.34 331.43,-69.13 331.55,-79.72 338.13,-77.34"/>
</g>
<!-- postreq -->
<g id="node12" class="node">
<title>postreq</title>
<path fill="#1afabc" stroke="black" d="M234.51,-110.95C234.51,-110.95 272.51,-110.95 272.51,-110.95 278.51,-110.95 284.51,-116.95 284.51,-122.95 284.51,-122.95 284.51,-134.95 284.51,-134.95 284.51,-140.95 278.51,-146.95 272.51,-146.95 272.51,-146.95 234.51,-146.95 234.51,-146.95 228.51,-146.95 222.51,-140.95 222.51,-134.95 222.51,-134.95 222.51,-122.95 222.51,-122.95 222.51,-116.95 228.51,-110.95 234.51,-110.95"/>
<text text-anchor="middle" x="253.51" y="-125.25" font-family="Arial" font-size="14.00">postreq</text>
</g>
<!-- section&#45;&gt;postreq -->
<g id="edge11" class="edge">
<title>section&#45;&gt;postreq</title>
<path fill="none" stroke="#1f78b4" d="M348.76,-182.07C332.31,-172.89 311.6,-161.34 293.69,-151.36"/>
<polygon fill="#a6cee3" stroke="#1f78b4" points="295.06,-148.12 284.62,-146.3 291.65,-154.23 295.06,-148.12"/>
</g>
<!-- steps -->
<g id="node14" class="node">
<title>steps</title>
<path fill="#1afabc" stroke="black" d="M577.25,-599.35C577.25,-599.35 607.25,-599.35 607.25,-599.35 613.25,-599.35 619.25,-605.35 619.25,-611.35 619.25,-611.35 619.25,-623.35 619.25,-623.35 619.25,-629.35 613.25,-635.35 607.25,-635.35 607.25,-635.35 577.25,-635.35 577.25,-635.35 571.25,-635.35 565.25,-629.35 565.25,-623.35 565.25,-623.35 565.25,-611.35 565.25,-611.35 565.25,-605.35 571.25,-599.35 577.25,-599.35"/>
<text text-anchor="middle" x="592.25" y="-613.65" font-family="Arial" font-size="14.00">steps</text>
</g>
<!-- ol&#45;&gt;steps -->
<g id="edge13" class="edge">
<title>ol&#45;&gt;steps</title>
<path fill="none" stroke="#1f78b4" d="M518.51,-552.2C531.84,-563.97 549.42,-579.5 564.06,-592.44"/>
<polygon fill="#a6cee3" stroke="#1f78b4" points="562.05,-595.33 571.86,-599.33 566.68,-590.08 562.05,-595.33"/>
</g>
<!-- substeps -->
<g id="node15" class="node">
<title>substeps</title>
<path fill="#1afabc" stroke="black" d="M509.28,-651.19C509.28,-651.19 556.28,-651.19 556.28,-651.19 562.28,-651.19 568.28,-657.19 568.28,-663.19 568.28,-663.19 568.28,-675.19 568.28,-675.19 568.28,-681.19 562.28,-687.19 556.28,-687.19 556.28,-687.19 509.28,-687.19 509.28,-687.19 503.28,-687.19 497.28,-681.19 497.28,-675.19 497.28,-675.19 497.28,-663.19 497.28,-663.19 497.28,-657.19 503.28,-651.19 509.28,-651.19"/>
<text text-anchor="middle" x="532.78" y="-665.49" font-family="Arial" font-size="14.00">substeps</text>
</g>
<!-- ol&#45;&gt;substeps -->
<g id="edge14" class="edge">
<title>ol&#45;&gt;substeps</title>
<path fill="none" stroke="#1f78b4" d="M502.76,-552.36C508.6,-575.11 518.67,-614.29 525.52,-640.95"/>
<polygon fill="#a6cee3" stroke="#1f78b4" points="522.18,-642.02 528.06,-650.84 528.96,-640.28 522.18,-642.02"/>
</g>
<!-- steps&#45;unordered -->
<g id="node17" class="node">
<title>steps&#45;unordered</title>
<path fill="#1afabc" stroke="black" d="M543.01,-269.69C543.01,-269.69 634.01,-269.69 634.01,-269.69 640.01,-269.69 646.01,-275.69 646.01,-281.69 646.01,-281.69 646.01,-293.69 646.01,-293.69 646.01,-299.69 640.01,-305.69 634.01,-305.69 634.01,-305.69 543.01,-305.69 543.01,-305.69 537.01,-305.69 531.01,-299.69 531.01,-293.69 531.01,-293.69 531.01,-281.69 531.01,-281.69 531.01,-275.69 537.01,-269.69 543.01,-269.69"/>
<text text-anchor="middle" x="588.51" y="-283.99" font-family="Arial" font-size="14.00">steps&#45;unordered</text>
</g>
<!-- ul&#45;&gt;steps&#45;unordered -->
<g id="edge16" class="edge">
<title>ul&#45;&gt;steps&#45;unordered</title>
<path fill="none" stroke="#1f78b4" d="M532.35,-370.52C542.88,-354.98 558.24,-332.33 570.23,-314.64"/>
<polygon fill="#a6cee3" stroke="#1f78b4" points="573.44,-316.14 576.16,-305.9 567.65,-312.22 573.44,-316.14"/>
</g>
<!-- choices -->
<g id="node18" class="node">
<title>choices</title>
<path fill="#1afabc" stroke="black" d="M626.09,-417.33C626.09,-417.33 664.09,-417.33 664.09,-417.33 670.09,-417.33 676.09,-423.33 676.09,-429.33 676.09,-429.33 676.09,-441.33 676.09,-441.33 676.09,-447.33 670.09,-453.33 664.09,-453.33 664.09,-453.33 626.09,-453.33 626.09,-453.33 620.09,-453.33 614.09,-447.33 614.09,-441.33 614.09,-441.33 614.09,-429.33 614.09,-429.33 614.09,-423.33 620.09,-417.33 626.09,-417.33"/>
<text text-anchor="middle" x="645.09" y="-431.63" font-family="Arial" font-size="14.00">choices</text>
</g>
<!-- ul&#45;&gt;choices -->
<g id="edge17" class="edge">
<title>ul&#45;&gt;choices</title>
<path fill="none" stroke="#1f78b4" d="M547.24,-398.7C563.99,-404.97 585.79,-413.13 604.57,-420.16"/>
<polygon fill="#a6cee3" stroke="#1f78b4" points="603.47,-423.49 614.06,-423.72 605.93,-416.93 603.47,-423.49"/>
</g>
<!-- stepsection -->
<g id="node20" class="node">
<title>stepsection</title>
<path fill="#1afabc" stroke="black" d="M23.7,-312.32C23.7,-312.32 84.7,-312.32 84.7,-312.32 90.7,-312.32 96.7,-318.32 96.7,-324.32 96.7,-324.32 96.7,-336.32 96.7,-336.32 96.7,-342.32 90.7,-348.32 84.7,-348.32 84.7,-348.32 23.7,-348.32 23.7,-348.32 17.7,-348.32 11.7,-342.32 11.7,-336.32 11.7,-336.32 11.7,-324.32 11.7,-324.32 11.7,-318.32 17.7,-312.32 23.7,-312.32"/>
<text text-anchor="middle" x="54.2" y="-326.62" font-family="Arial" font-size="14.00">stepsection</text>
</g>
<!-- li&#45;&gt;stepsection -->
<g id="edge19" class="edge">
<title>li&#45;&gt;stepsection</title>
<path fill="none" stroke="#1f78b4" d="M181.03,-346.57C160.54,-343.95 131.8,-340.27 106.86,-337.07"/>
<polygon fill="#a6cee3" stroke="#1f78b4" points="107.16,-333.58 96.79,-335.78 106.27,-340.52 107.16,-333.58"/>
</g>
<!-- step -->
<g id="node21" class="node">
<title>step</title>
<path fill="#1afabc" stroke="black" d="M102.21,-261.59C102.21,-261.59 132.21,-261.59 132.21,-261.59 138.21,-261.59 144.21,-267.59 144.21,-273.59 144.21,-273.59 144.21,-285.59 144.21,-285.59 144.21,-291.59 138.21,-297.59 132.21,-297.59 132.21,-297.59 102.21,-297.59 102.21,-297.59 96.21,-297.59 90.21,-291.59 90.21,-285.59 90.21,-285.59 90.21,-273.59 90.21,-273.59 90.21,-267.59 96.21,-261.59 102.21,-261.59"/>
<text text-anchor="middle" x="117.21" y="-275.89" font-family="Arial" font-size="14.00">step</text>
</g>
<!-- li&#45;&gt;step -->
<g id="edge20" class="edge">
<title>li&#45;&gt;step</title>
<path fill="none" stroke="#1f78b4" d="M184.78,-331.91C173.74,-323.36 160.41,-313.04 148.52,-303.84"/>
<polygon fill="#a6cee3" stroke="#1f78b4" points="150.62,-301.03 140.57,-297.68 146.33,-306.57 150.62,-301.03"/>
</g>
<!-- substep -->
<g id="node22" class="node">
<title>substep</title>
<path fill="#1afabc" stroke="black" d="M181.81,-211.44C181.81,-211.44 221.81,-211.44 221.81,-211.44 227.81,-211.44 233.81,-217.44 233.81,-223.44 233.81,-223.44 233.81,-235.44 233.81,-235.44 233.81,-241.44 227.81,-247.44 221.81,-247.44 221.81,-247.44 181.81,-247.44 181.81,-247.44 175.81,-247.44 169.81,-241.44 169.81,-235.44 169.81,-235.44 169.81,-223.44 169.81,-223.44 169.81,-217.44 175.81,-211.44 181.81,-211.44"/>
<text text-anchor="middle" x="201.81" y="-225.74" font-family="Arial" font-size="14.00">substep</text>
</g>
<!-- li&#45;&gt;substep -->
<g id="edge21" class="edge">
<title>li&#45;&gt;substep</title>
<path fill="none" stroke="#1f78b4" d="M207.25,-332C206.21,-312.37 204.53,-280.74 203.31,-257.79"/>
<polygon fill="#a6cee3" stroke="#1f78b4" points="206.8,-257.42 202.77,-247.62 199.81,-257.79 206.8,-257.42"/>
</g>
<!-- choice -->
<g id="node23" class="node">
<title>choice</title>
<path fill="#1afabc" stroke="black" d="M84.41,-368.17C84.41,-368.17 116.41,-368.17 116.41,-368.17 122.41,-368.17 128.41,-374.17 128.41,-380.17 128.41,-380.17 128.41,-392.17 128.41,-392.17 128.41,-398.17 122.41,-404.17 116.41,-404.17 116.41,-404.17 84.41,-404.17 84.41,-404.17 78.41,-404.17 72.41,-398.17 72.41,-392.17 72.41,-392.17 72.41,-380.17 72.41,-380.17 72.41,-374.17 78.41,-368.17 84.41,-368.17"/>
<text text-anchor="middle" x="100.41" y="-382.47" font-family="Arial" font-size="14.00">choice</text>
</g>
<!-- li&#45;&gt;choice -->
<g id="edge22" class="edge">
<title>li&#45;&gt;choice</title>
<path fill="none" stroke="#1f78b4" d="M181.01,-359.17C168.16,-363.47 152.6,-368.68 138.6,-373.38"/>
<polygon fill="#a6cee3" stroke="#1f78b4" points="137.11,-370.18 128.73,-376.68 139.33,-376.82 137.11,-370.18"/>
</g>
<!-- cmd -->
<g id="node25" class="node">
<title>cmd</title>
<path fill="#1afabc" stroke="black" d="M321.4,-686.92C321.4,-686.92 351.4,-686.92 351.4,-686.92 357.4,-686.92 363.4,-692.92 363.4,-698.92 363.4,-698.92 363.4,-710.92 363.4,-710.92 363.4,-716.92 357.4,-722.92 351.4,-722.92 351.4,-722.92 321.4,-722.92 321.4,-722.92 315.4,-722.92 309.4,-716.92 309.4,-710.92 309.4,-710.92 309.4,-698.92 309.4,-698.92 309.4,-692.92 315.4,-686.92 321.4,-686.92"/>
<text text-anchor="middle" x="336.4" y="-701.22" font-family="Arial" font-size="14.00">cmd</text>
</g>
<!-- ph&#45;&gt;cmd -->
<g id="edge24" class="edge">
<title>ph&#45;&gt;cmd</title>
<path fill="none" stroke="#1f78b4" d="M354.41,-590.52C350.92,-612.71 344.97,-650.5 340.87,-676.54"/>
<polygon fill="#a6cee3" stroke="#1f78b4" points="337.39,-676.14 339.29,-686.56 344.3,-677.23 337.39,-676.14"/>
</g>
<!-- info -->
<g id="node27" class="node">
<title>info</title>
<path fill="#1afabc" stroke="black" d="M675.08,-344.48C675.08,-344.48 705.08,-344.48 705.08,-344.48 711.08,-344.48 717.08,-350.48 717.08,-356.48 717.08,-356.48 717.08,-368.48 717.08,-368.48 717.08,-374.48 711.08,-380.48 705.08,-380.48 705.08,-380.48 675.08,-380.48 675.08,-380.48 669.08,-380.48 663.08,-374.48 663.08,-368.48 663.08,-368.48 663.08,-356.48 663.08,-356.48 663.08,-350.48 669.08,-344.48 675.08,-344.48"/>
<text text-anchor="middle" x="690.08" y="-358.78" font-family="Arial" font-size="14.00">info</text>
</g>
<!-- itemgroup&#45;&gt;info -->
<g id="edge26" class="edge">
<title>itemgroup&#45;&gt;info</title>
<path fill="none" stroke="#1f78b4" d="M632.33,-366.96C639.07,-366.44 646.07,-365.9 652.77,-365.38"/>
<polygon fill="#a6cee3" stroke="#1f78b4" points="653.28,-368.85 662.97,-364.58 652.73,-361.87 653.28,-368.85"/>
</g>
<!-- tutorialinfo -->
<g id="node28" class="node">
<title>tutorialinfo</title>
<path fill="#1afabc" stroke="black" d="M726.17,-414.94C726.17,-414.94 781.17,-414.94 781.17,-414.94 787.17,-414.94 793.17,-420.94 793.17,-426.94 793.17,-426.94 793.17,-438.94 793.17,-438.94 793.17,-444.94 787.17,-450.94 781.17,-450.94 781.17,-450.94 726.17,-450.94 726.17,-450.94 720.17,-450.94 714.17,-444.94 714.17,-438.94 714.17,-438.94 714.17,-426.94 714.17,-426.94 714.17,-420.94 720.17,-414.94 726.17,-414.94"/>
<text text-anchor="middle" x="753.67" y="-429.24" font-family="Arial" font-size="14.00">tutorialinfo</text>
</g>
<!-- itemgroup&#45;&gt;tutorialinfo -->
<g id="edge27" class="edge">
<title>itemgroup&#45;&gt;tutorialinfo</title>
<path fill="none" stroke="#1f78b4" d="M632.4,-385.2C654.11,-393.75 681.39,-404.49 704.58,-413.62"/>
<polygon fill="#a6cee3" stroke="#1f78b4" points="703.32,-416.88 713.9,-417.29 705.88,-410.37 703.32,-416.88"/>
</g>
<!-- stepxmp -->
<g id="node29" class="node">
<title>stepxmp</title>
<path fill="#1afabc" stroke="black" d="M692.45,-238.37C692.45,-238.37 736.45,-238.37 736.45,-238.37 742.45,-238.37 748.45,-244.37 748.45,-250.37 748.45,-250.37 748.45,-262.37 748.45,-262.37 748.45,-268.37 742.45,-274.37 736.45,-274.37 736.45,-274.37 692.45,-274.37 692.45,-274.37 686.45,-274.37 680.45,-268.37 680.45,-262.37 680.45,-262.37 680.45,-250.37 680.45,-250.37 680.45,-244.37 686.45,-238.37 692.45,-238.37"/>
<text text-anchor="middle" x="714.45" y="-252.67" font-family="Arial" font-size="14.00">stepxmp</text>
</g>
<!-- itemgroup&#45;&gt;stepxmp -->
<g id="edge28" class="edge">
<title>itemgroup&#45;&gt;stepxmp</title>
<path fill="none" stroke="#1f78b4" d="M613.08,-351.71C633.24,-332.75 664.94,-302.93 687.52,-281.69"/>
<polygon fill="#a6cee3" stroke="#1f78b4" points="690.2,-283.97 695.09,-274.57 685.41,-278.87 690.2,-283.97"/>
</g>
<!-- stepresult -->
<g id="node30" class="node">
<title>stepresult</title>
<path fill="#1afabc" stroke="black" d="M729.98,-291.65C729.98,-291.65 780.98,-291.65 780.98,-291.65 786.98,-291.65 792.98,-297.65 792.98,-303.65 792.98,-303.65 792.98,-315.65 792.98,-315.65 792.98,-321.65 786.98,-327.65 780.98,-327.65 780.98,-327.65 729.98,-327.65 729.98,-327.65 723.98,-327.65 717.98,-321.65 717.98,-315.65 717.98,-315.65 717.98,-303.65 717.98,-303.65 717.98,-297.65 723.98,-291.65 729.98,-291.65"/>
<text text-anchor="middle" x="755.48" y="-305.95" font-family="Arial" font-size="14.00">stepresult</text>
</g>
<!-- itemgroup&#45;&gt;stepresult -->
<g id="edge29" class="edge">
<title>itemgroup&#45;&gt;stepresult</title>
<path fill="none" stroke="#1f78b4" d="M632.43,-355.51C655.19,-347.03 684.13,-336.25 708.22,-327.27"/>
<polygon fill="#a6cee3" stroke="#1f78b4" points="709.73,-330.44 717.88,-323.67 707.29,-323.88 709.73,-330.44"/>
</g>
<!-- steptroubleshooting -->
<g id="node31" class="node">
<title>steptroubleshooting</title>
<path fill="#1afabc" stroke="black" d="M751.56,-348.16C751.56,-348.16 861.56,-348.16 861.56,-348.16 867.56,-348.16 873.56,-354.16 873.56,-360.16 873.56,-360.16 873.56,-372.16 873.56,-372.16 873.56,-378.16 867.56,-384.16 861.56,-384.16 861.56,-384.16 751.56,-384.16 751.56,-384.16 745.56,-384.16 739.56,-378.16 739.56,-372.16 739.56,-372.16 739.56,-360.16 739.56,-360.16 739.56,-354.16 745.56,-348.16 751.56,-348.16"/>
<text text-anchor="middle" x="806.56" y="-362.46" font-family="Arial" font-size="14.00">steptroubleshooting</text>
</g>
<!-- itemgroup&#45;&gt;steptroubleshooting -->
<g id="edge30" class="edge">
<title>itemgroup&#45;&gt;steptroubleshooting</title>
<path fill="none" stroke="#1f78b4" d="M632.23,-369.27C659.26,-368.79 696.33,-368.13 729.34,-367.54"/>
<polygon fill="#a6cee3" stroke="#1f78b4" points="729.5,-371.03 739.44,-367.36 729.38,-364.03 729.5,-371.03"/>
</g>
<!-- choicetable -->
<g id="node33" class="node">
<title>choicetable</title>
<path fill="#1afabc" stroke="black" d="M85.64,-164.39C85.64,-164.39 146.64,-164.39 146.64,-164.39 152.64,-164.39 158.64,-170.39 158.64,-176.39 158.64,-176.39 158.64,-188.39 158.64,-188.39 158.64,-194.39 152.64,-200.39 146.64,-200.39 146.64,-200.39 85.64,-200.39 85.64,-200.39 79.64,-200.39 73.64,-194.39 73.64,-188.39 73.64,-188.39 73.64,-176.39 73.64,-176.39 73.64,-170.39 79.64,-164.39 85.64,-164.39"/>
<text text-anchor="middle" x="116.14" y="-178.69" font-family="Arial" font-size="14.00">choicetable</text>
</g>
<!-- simpletable&#45;&gt;choicetable -->
<g id="edge32" class="edge">
<title>simpletable&#45;&gt;choicetable</title>
<path fill="none" stroke="#1f78b4" d="M229.01,-268.56C206.61,-251.46 172.9,-225.72 148.16,-206.83"/>
<polygon fill="#a6cee3" stroke="#1f78b4" points="150.21,-203.99 140.14,-200.71 145.96,-209.56 150.21,-203.99"/>
</g>
<!-- chhead -->
<g id="node35" class="node">
<title>chhead</title>
<path fill="#1afabc" stroke="black" d="M615.41,-540.08C615.41,-540.08 652.41,-540.08 652.41,-540.08 658.41,-540.08 664.41,-546.08 664.41,-552.08 664.41,-552.08 664.41,-564.08 664.41,-564.08 664.41,-570.08 658.41,-576.08 652.41,-576.08 652.41,-576.08 615.41,-576.08 615.41,-576.08 609.41,-576.08 603.41,-570.08 603.41,-564.08 603.41,-564.08 603.41,-552.08 603.41,-552.08 603.41,-546.08 609.41,-540.08 615.41,-540.08"/>
<text text-anchor="middle" x="633.91" y="-554.38" font-family="Arial" font-size="14.00">chhead</text>
</g>
<!-- sthead&#45;&gt;chhead -->
<g id="edge34" class="edge">
<title>sthead&#45;&gt;chhead</title>
<path fill="none" stroke="#1f78b4" d="M548.44,-502.03C563.23,-511.73 581.63,-523.8 597.56,-534.25"/>
<polygon fill="#a6cee3" stroke="#1f78b4" points="595.84,-537.3 606.12,-539.86 599.68,-531.45 595.84,-537.3"/>
</g>
<!-- choptionhd -->
<g id="node37" class="node">
<title>choptionhd</title>
<path fill="#1afabc" stroke="black" d="M12.33,-488.91C12.33,-488.91 71.33,-488.91 71.33,-488.91 77.33,-488.91 83.33,-494.91 83.33,-500.91 83.33,-500.91 83.33,-512.91 83.33,-512.91 83.33,-518.91 77.33,-524.91 71.33,-524.91 71.33,-524.91 12.33,-524.91 12.33,-524.91 6.33,-524.91 0.33,-518.91 0.33,-512.91 0.33,-512.91 0.33,-500.91 0.33,-500.91 0.33,-494.91 6.33,-488.91 12.33,-488.91"/>
<text text-anchor="middle" x="41.83" y="-503.21" font-family="Arial" font-size="14.00">choptionhd</text>
</g>
<!-- stentry&#45;&gt;choptionhd -->
<g id="edge36" class="edge">
<title>stentry&#45;&gt;choptionhd</title>
<path fill="none" stroke="#1f78b4" d="M175.59,-489.87C152.98,-492.75 120.84,-496.85 93.74,-500.3"/>
<polygon fill="#a6cee3" stroke="#1f78b4" points="93.11,-496.85 83.63,-501.59 93.99,-503.8 93.11,-496.85"/>
</g>
<!-- chdeschd -->
<g id="node38" class="node">
<title>chdeschd</title>
<path fill="#1afabc" stroke="black" d="M120.7,-591.87C120.7,-591.87 170.7,-591.87 170.7,-591.87 176.7,-591.87 182.7,-597.87 182.7,-603.87 182.7,-603.87 182.7,-615.87 182.7,-615.87 182.7,-621.87 176.7,-627.87 170.7,-627.87 170.7,-627.87 120.7,-627.87 120.7,-627.87 114.7,-627.87 108.7,-621.87 108.7,-615.87 108.7,-615.87 108.7,-603.87 108.7,-603.87 108.7,-597.87 114.7,-591.87 120.7,-591.87"/>
<text text-anchor="middle" x="145.7" y="-606.17" font-family="Arial" font-size="14.00">chdeschd</text>
</g>
<!-- stentry&#45;&gt;chdeschd -->
<g id="edge37" class="edge">
<title>stentry&#45;&gt;chdeschd</title>
<path fill="none" stroke="#1f78b4" d="M195.61,-504.46C185.88,-525.01 169.97,-558.63 158.73,-582.36"/>
<polygon fill="#a6cee3" stroke="#1f78b4" points="155.49,-581.02 154.37,-591.55 161.82,-584.01 155.49,-581.02"/>
</g>
<!-- choption -->
<g id="node39" class="node">
<title>choption</title>
<path fill="#1afabc" stroke="black" d="M72.46,-435.18C72.46,-435.18 116.46,-435.18 116.46,-435.18 122.46,-435.18 128.46,-441.18 128.46,-447.18 128.46,-447.18 128.46,-459.18 128.46,-459.18 128.46,-465.18 122.46,-471.18 116.46,-471.18 116.46,-471.18 72.46,-471.18 72.46,-471.18 66.46,-471.18 60.46,-465.18 60.46,-459.18 60.46,-459.18 60.46,-447.18 60.46,-447.18 60.46,-441.18 66.46,-435.18 72.46,-435.18"/>
<text text-anchor="middle" x="94.46" y="-449.48" font-family="Arial" font-size="14.00">choption</text>
</g>
<!-- stentry&#45;&gt;choption -->
<g id="edge38" class="edge">
<title>stentry&#45;&gt;choption</title>
<path fill="none" stroke="#1f78b4" d="M175.69,-477.62C164.36,-474.21 151.07,-470.21 138.56,-466.45"/>
<polygon fill="#a6cee3" stroke="#1f78b4" points="139.32,-463.03 128.74,-463.5 137.31,-469.73 139.32,-463.03"/>
</g>
<!-- chdesc -->
<g id="node40" class="node">
<title>chdesc</title>
<path fill="#1afabc" stroke="black" d="M110.81,-526.09C110.81,-526.09 145.81,-526.09 145.81,-526.09 151.81,-526.09 157.81,-532.09 157.81,-538.09 157.81,-538.09 157.81,-550.09 157.81,-550.09 157.81,-556.09 151.81,-562.09 145.81,-562.09 145.81,-562.09 110.81,-562.09 110.81,-562.09 104.81,-562.09 98.81,-556.09 98.81,-550.09 98.81,-550.09 98.81,-538.09 98.81,-538.09 98.81,-532.09 104.81,-526.09 110.81,-526.09"/>
<text text-anchor="middle" x="128.31" y="-540.39" font-family="Arial" font-size="14.00">chdesc</text>
</g>
<!-- stentry&#45;&gt;chdesc -->
<g id="edge39" class="edge">
<title>stentry&#45;&gt;chdesc</title>
<path fill="none" stroke="#1f78b4" d="M180.22,-504.53C173.93,-509.33 167.04,-514.58 160.4,-519.64"/>
<polygon fill="#a6cee3" stroke="#1f78b4" points="158.01,-517.05 152.18,-525.9 162.26,-522.62 158.01,-517.05"/>
</g>
<!-- chrow -->
<g id="node42" class="node">
<title>chrow</title>
<path fill="#1afabc" stroke="black" d="M229.27,-619.86C229.27,-619.86 259.27,-619.86 259.27,-619.86 265.27,-619.86 271.27,-625.86 271.27,-631.86 271.27,-631.86 271.27,-643.86 271.27,-643.86 271.27,-649.86 265.27,-655.86 259.27,-655.86 259.27,-655.86 229.27,-655.86 229.27,-655.86 223.27,-655.86 217.27,-649.86 217.27,-643.86 217.27,-643.86 217.27,-631.86 217.27,-631.86 217.27,-625.86 223.27,-619.86 229.27,-619.86"/>
<text text-anchor="middle" x="244.27" y="-634.16" font-family="Arial" font-size="14.00">chrow</text>
</g>
<!-- strow&#45;&gt;chrow -->
<g id="edge41" class="edge">
<title>strow&#45;&gt;chrow</title>
<path fill="none" stroke="#1f78b4" d="M283.21,-545.6C275.78,-563.19 264.44,-590.06 255.92,-610.27"/>
<polygon fill="#a6cee3" stroke="#1f78b4" points="252.65,-609.01 251.98,-619.58 259.1,-611.73 252.65,-609.01"/>
</g>
</g>
</svg>
