<?xml version="1.0" encoding="UTF-8" standalone="no"?>
<!DOCTYPE svg PUBLIC "-//W3C//DTD SVG 1.1//EN"
 "http://www.w3.org/Graphics/SVG/1.1/DTD/svg11.dtd">
<!-- Generated by graphviz version 6.0.1 (20220911.1526)
 -->
<!-- Pages: 1 -->
<svg width="384pt" height="376pt"
 viewBox="0.00 0.00 384.00 376.00" xmlns="http://www.w3.org/2000/svg" xmlns:xlink="http://www.w3.org/1999/xlink">
<g id="graph0" class="graph" transform="scale(1 1) rotate(0) translate(4 372)">
<polygon fill="white" stroke="none" points="-4,4 -4,-372 380,-372 380,4 -4,4"/>
<!-- pr&#45;d -->
<g id="node1" class="node">
<title>pr&#45;d</title>
<path fill="#dddddd" stroke="black" d="M184.74,-163.56C184.74,-163.56 214.74,-163.56 214.74,-163.56 220.74,-163.56 226.74,-169.56 226.74,-175.56 226.74,-175.56 226.74,-187.56 226.74,-187.56 226.74,-193.56 220.74,-199.56 214.74,-199.56 214.74,-199.56 184.74,-199.56 184.74,-199.56 178.74,-199.56 172.74,-193.56 172.74,-187.56 172.74,-187.56 172.74,-175.56 172.74,-175.56 172.74,-169.56 178.74,-163.56 184.74,-163.56"/>
<text text-anchor="middle" x="199.74" y="-177.86" font-family="Arial" font-size="14.00">pr&#45;d</text>
</g>
<!-- ph -->
<g id="node2" class="node">
<title>ph</title>
<path fill="#afa7f4" stroke="black" d="M168.99,-104.98C168.99,-104.98 198.99,-104.98 198.99,-104.98 204.99,-104.98 210.99,-110.98 210.99,-116.98 210.99,-116.98 210.99,-128.98 210.99,-128.98 210.99,-134.98 204.99,-140.98 198.99,-140.98 198.99,-140.98 168.99,-140.98 168.99,-140.98 162.99,-140.98 156.99,-134.98 156.99,-128.98 156.99,-128.98 156.99,-116.98 156.99,-116.98 156.99,-110.98 162.99,-104.98 168.99,-104.98"/>
<text text-anchor="middle" x="183.99" y="-119.28" font-family="Arial" font-size="14.00">ph</text>
</g>
<!-- pr&#45;d&#45;&gt;ph -->
<g id="edge1" class="edge">
<title>pr&#45;d&#45;&gt;ph</title>
<path fill="none" stroke="#1f78b4" d="M194.85,-163.35C193.77,-159.34 192.61,-155.01 191.45,-150.73"/>
<polygon fill="#a6cee3" stroke="#1f78b4" points="194.81,-149.73 188.83,-140.98 188.05,-151.55 194.81,-149.73"/>
</g>
<!-- pre -->
<g id="node4" class="node">
<title>pre</title>
<path fill="#afa7f4" stroke="black" d="M159.69,-239.13C159.69,-239.13 189.69,-239.13 189.69,-239.13 195.69,-239.13 201.69,-245.13 201.69,-251.13 201.69,-251.13 201.69,-263.13 201.69,-263.13 201.69,-269.13 195.69,-275.13 189.69,-275.13 189.69,-275.13 159.69,-275.13 159.69,-275.13 153.69,-275.13 147.69,-269.13 147.69,-263.13 147.69,-263.13 147.69,-251.13 147.69,-251.13 147.69,-245.13 153.69,-239.13 159.69,-239.13"/>
<text text-anchor="middle" x="174.69" y="-253.43" font-family="Arial" font-size="14.00">pre</text>
</g>
<!-- pr&#45;d&#45;&gt;pre -->
<g id="edge3" class="edge">
<title>pr&#45;d&#45;&gt;pre</title>
<path fill="none" stroke="#1f78b4" d="M193.68,-199.86C190.76,-208.67 187.19,-219.44 183.94,-229.25"/>
<polygon fill="#a6cee3" stroke="#1f78b4" points="180.53,-228.41 180.7,-239.01 187.17,-230.62 180.53,-228.41"/>
</g>
<!-- include -->
<g id="node6" class="node">
<title>include</title>
<path fill="#afa7f4" stroke="black" d="M93.26,-130.88C93.26,-130.88 128.26,-130.88 128.26,-130.88 134.26,-130.88 140.26,-136.88 140.26,-142.88 140.26,-142.88 140.26,-154.88 140.26,-154.88 140.26,-160.88 134.26,-166.88 128.26,-166.88 128.26,-166.88 93.26,-166.88 93.26,-166.88 87.26,-166.88 81.26,-160.88 81.26,-154.88 81.26,-154.88 81.26,-142.88 81.26,-142.88 81.26,-136.88 87.26,-130.88 93.26,-130.88"/>
<text text-anchor="middle" x="110.76" y="-145.18" font-family="Arial" font-size="14.00">include</text>
</g>
<!-- pr&#45;d&#45;&gt;include -->
<g id="edge5" class="edge">
<title>pr&#45;d&#45;&gt;include</title>
<path fill="none" stroke="#1f78b4" d="M172.56,-171.58C165.45,-168.97 157.63,-166.1 150.02,-163.3"/>
<polygon fill="#a6cee3" stroke="#1f78b4" points="151.16,-159.99 140.56,-159.83 148.74,-166.56 151.16,-159.99"/>
</g>
<!-- keyword -->
<g id="node8" class="node">
<title>keyword</title>
<path fill="#afa7f4" stroke="black" d="M202.38,-53.29C202.38,-53.29 245.38,-53.29 245.38,-53.29 251.38,-53.29 257.38,-59.29 257.38,-65.29 257.38,-65.29 257.38,-77.29 257.38,-77.29 257.38,-83.29 251.38,-89.29 245.38,-89.29 245.38,-89.29 202.38,-89.29 202.38,-89.29 196.38,-89.29 190.38,-83.29 190.38,-77.29 190.38,-77.29 190.38,-65.29 190.38,-65.29 190.38,-59.29 196.38,-53.29 202.38,-53.29"/>
<text text-anchor="middle" x="223.88" y="-67.59" font-family="Arial" font-size="14.00">keyword</text>
</g>
<!-- pr&#45;d&#45;&gt;keyword -->
<g id="edge7" class="edge">
<title>pr&#45;d&#45;&gt;keyword</title>
<path fill="none" stroke="#1f78b4" d="M203.73,-163.35C207.54,-145.95 213.33,-119.48 217.73,-99.37"/>
<polygon fill="#a6cee3" stroke="#1f78b4" points="221.17,-100.04 219.89,-89.53 214.33,-98.55 221.17,-100.04"/>
</g>
<!-- dl -->
<g id="node12" class="node">
<title>dl</title>
<path fill="#afa7f4" stroke="black" d="M247.68,-195.73C247.68,-195.73 277.68,-195.73 277.68,-195.73 283.68,-195.73 289.68,-201.73 289.68,-207.73 289.68,-207.73 289.68,-219.73 289.68,-219.73 289.68,-225.73 283.68,-231.73 277.68,-231.73 277.68,-231.73 247.68,-231.73 247.68,-231.73 241.68,-231.73 235.68,-225.73 235.68,-219.73 235.68,-219.73 235.68,-207.73 235.68,-207.73 235.68,-201.73 241.68,-195.73 247.68,-195.73"/>
<text text-anchor="middle" x="262.68" y="-210.03" font-family="Arial" font-size="14.00">dl</text>
</g>
<!-- pr&#45;d&#45;&gt;dl -->
<g id="edge11" class="edge">
<title>pr&#45;d&#45;&gt;dl</title>
<path fill="none" stroke="#1f78b4" d="M226.8,-195.39C226.89,-195.44 226.98,-195.48 227.08,-195.53"/>
<polygon fill="#a6cee3" stroke="#1f78b4" points="225.15,-198.48 235.65,-199.91 228.34,-192.24 225.15,-198.48"/>
</g>
<!-- dlentry -->
<g id="node14" class="node">
<title>dlentry</title>
<path fill="#afa7f4" stroke="black" d="M230.46,-248.94C230.46,-248.94 263.46,-248.94 263.46,-248.94 269.46,-248.94 275.46,-254.94 275.46,-260.94 275.46,-260.94 275.46,-272.94 275.46,-272.94 275.46,-278.94 269.46,-284.94 263.46,-284.94 263.46,-284.94 230.46,-284.94 230.46,-284.94 224.46,-284.94 218.46,-278.94 218.46,-272.94 218.46,-272.94 218.46,-260.94 218.46,-260.94 218.46,-254.94 224.46,-248.94 230.46,-248.94"/>
<text text-anchor="middle" x="246.96" y="-263.24" font-family="Arial" font-size="14.00">dlentry</text>
</g>
<!-- pr&#45;d&#45;&gt;dlentry -->
<g id="edge13" class="edge">
<title>pr&#45;d&#45;&gt;dlentry</title>
<path fill="none" stroke="#1f78b4" d="M209.76,-199.67C216.2,-211.33 224.7,-226.7 231.95,-239.81"/>
<polygon fill="#a6cee3" stroke="#1f78b4" points="229.06,-241.81 236.96,-248.86 235.18,-238.42 229.06,-241.81"/>
</g>
<!-- dt -->
<g id="node16" class="node">
<title>dt</title>
<path fill="#afa7f4" stroke="black" d="M253.38,-113.82C253.38,-113.82 283.38,-113.82 283.38,-113.82 289.38,-113.82 295.38,-119.82 295.38,-125.82 295.38,-125.82 295.38,-137.82 295.38,-137.82 295.38,-143.82 289.38,-149.82 283.38,-149.82 283.38,-149.82 253.38,-149.82 253.38,-149.82 247.38,-149.82 241.38,-143.82 241.38,-137.82 241.38,-137.82 241.38,-125.82 241.38,-125.82 241.38,-119.82 247.38,-113.82 253.38,-113.82"/>
<text text-anchor="middle" x="268.38" y="-128.12" font-family="Arial" font-size="14.00">dt</text>
</g>
<!-- pr&#45;d&#45;&gt;dt -->
<g id="edge15" class="edge">
<title>pr&#45;d&#45;&gt;dt</title>
<path fill="none" stroke="#1f78b4" d="M224.91,-163.32C228.18,-160.96 231.56,-158.51 234.93,-156.06"/>
<polygon fill="#a6cee3" stroke="#1f78b4" points="237.17,-158.76 243.22,-150.06 233.07,-153.09 237.17,-158.76"/>
</g>
<!-- dd -->
<g id="node18" class="node">
<title>dd</title>
<path fill="#afa7f4" stroke="black" d="M94.91,-188.38C94.91,-188.38 124.91,-188.38 124.91,-188.38 130.91,-188.38 136.91,-194.38 136.91,-200.38 136.91,-200.38 136.91,-212.38 136.91,-212.38 136.91,-218.38 130.91,-224.38 124.91,-224.38 124.91,-224.38 94.91,-224.38 94.91,-224.38 88.91,-224.38 82.91,-218.38 82.91,-212.38 82.91,-212.38 82.91,-200.38 82.91,-200.38 82.91,-194.38 88.91,-188.38 94.91,-188.38"/>
<text text-anchor="middle" x="109.91" y="-202.68" font-family="Arial" font-size="14.00">dd</text>
</g>
<!-- pr&#45;d&#45;&gt;dd -->
<g id="edge17" class="edge">
<title>pr&#45;d&#45;&gt;dd</title>
<path fill="none" stroke="#1f78b4" d="M172.3,-189.14C164.29,-191.36 155.4,-193.81 146.9,-196.16"/>
<polygon fill="#a6cee3" stroke="#1f78b4" points="145.89,-192.81 137.18,-198.85 147.75,-199.56 145.89,-192.81"/>
</g>
<!-- codeph -->
<g id="node3" class="node">
<title>codeph</title>
<path fill="#1afabc" stroke="black" d="M81.79,-63.37C81.79,-63.37 118.79,-63.37 118.79,-63.37 124.79,-63.37 130.79,-69.37 130.79,-75.37 130.79,-75.37 130.79,-87.37 130.79,-87.37 130.79,-93.37 124.79,-99.37 118.79,-99.37 118.79,-99.37 81.79,-99.37 81.79,-99.37 75.79,-99.37 69.79,-93.37 69.79,-87.37 69.79,-87.37 69.79,-75.37 69.79,-75.37 69.79,-69.37 75.79,-63.37 81.79,-63.37"/>
<text text-anchor="middle" x="100.29" y="-77.67" font-family="Arial" font-size="14.00">codeph</text>
</g>
<!-- ph&#45;&gt;codeph -->
<g id="edge2" class="edge">
<title>ph&#45;&gt;codeph</title>
<path fill="none" stroke="#1f78b4" d="M156.59,-109.36C151.33,-106.75 145.73,-103.96 140.18,-101.2"/>
<polygon fill="#a6cee3" stroke="#1f78b4" points="141.46,-97.93 130.95,-96.61 138.34,-104.2 141.46,-97.93"/>
</g>
<!-- codeblock -->
<g id="node5" class="node">
<title>codeblock</title>
<path fill="#1afabc" stroke="black" d="M115.41,-284.91C115.41,-284.91 168.41,-284.91 168.41,-284.91 174.41,-284.91 180.41,-290.91 180.41,-296.91 180.41,-296.91 180.41,-308.91 180.41,-308.91 180.41,-314.91 174.41,-320.91 168.41,-320.91 168.41,-320.91 115.41,-320.91 115.41,-320.91 109.41,-320.91 103.41,-314.91 103.41,-308.91 103.41,-308.91 103.41,-296.91 103.41,-296.91 103.41,-290.91 109.41,-284.91 115.41,-284.91"/>
<text text-anchor="middle" x="141.91" y="-299.21" font-family="Arial" font-size="14.00">codeblock</text>
</g>
<!-- pre&#45;&gt;codeblock -->
<g id="edge4" class="edge">
<title>pre&#45;&gt;codeblock</title>
<path fill="none" stroke="#1f78b4" d="M161.74,-275.22C161.46,-275.61 161.18,-276 160.9,-276.39"/>
<polygon fill="#a6cee3" stroke="#1f78b4" points="157.97,-274.48 154.99,-284.65 163.66,-278.55 157.97,-274.48"/>
</g>
<!-- coderef -->
<g id="node7" class="node">
<title>coderef</title>
<path fill="#1afabc" stroke="black" d="M12.06,-144.37C12.06,-144.37 50.06,-144.37 50.06,-144.37 56.06,-144.37 62.06,-150.37 62.06,-156.37 62.06,-156.37 62.06,-168.37 62.06,-168.37 62.06,-174.37 56.06,-180.37 50.06,-180.37 50.06,-180.37 12.06,-180.37 12.06,-180.37 6.06,-180.37 0.06,-174.37 0.06,-168.37 0.06,-168.37 0.06,-156.37 0.06,-156.37 0.06,-150.37 6.06,-144.37 12.06,-144.37"/>
<text text-anchor="middle" x="31.06" y="-158.67" font-family="Arial" font-size="14.00">coderef</text>
</g>
<!-- include&#45;&gt;coderef -->
<g id="edge6" class="edge">
<title>include&#45;&gt;coderef</title>
<path fill="none" stroke="#1f78b4" d="M81.08,-153.9C78.18,-154.39 75.19,-154.9 72.2,-155.41"/>
<polygon fill="#a6cee3" stroke="#1f78b4" points="71.37,-152 62.09,-157.12 72.54,-158.9 71.37,-152"/>
</g>
<!-- option -->
<g id="node9" class="node">
<title>option</title>
<path fill="#1afabc" stroke="black" d="M130.79,-0.07C130.79,-0.07 160.79,-0.07 160.79,-0.07 166.79,-0.07 172.79,-6.07 172.79,-12.07 172.79,-12.07 172.79,-24.07 172.79,-24.07 172.79,-30.07 166.79,-36.07 160.79,-36.07 160.79,-36.07 130.79,-36.07 130.79,-36.07 124.79,-36.07 118.79,-30.07 118.79,-24.07 118.79,-24.07 118.79,-12.07 118.79,-12.07 118.79,-6.07 124.79,-0.07 130.79,-0.07"/>
<text text-anchor="middle" x="145.79" y="-14.37" font-family="Arial" font-size="14.00">option</text>
</g>
<!-- keyword&#45;&gt;option -->
<g id="edge8" class="edge">
<title>keyword&#45;&gt;option</title>
<path fill="none" stroke="#1f78b4" d="M197.44,-53.27C192.16,-49.67 186.53,-45.83 181,-42.07"/>
<polygon fill="#a6cee3" stroke="#1f78b4" points="182.7,-38.99 172.47,-36.25 178.76,-44.78 182.7,-38.99"/>
</g>
<!-- parmname -->
<g id="node10" class="node">
<title>parmname</title>
<path fill="#1afabc" stroke="black" d="M290.71,-53.87C290.71,-53.87 349.71,-53.87 349.71,-53.87 355.71,-53.87 361.71,-59.87 361.71,-65.87 361.71,-65.87 361.71,-77.87 361.71,-77.87 361.71,-83.87 355.71,-89.87 349.71,-89.87 349.71,-89.87 290.71,-89.87 290.71,-89.87 284.71,-89.87 278.71,-83.87 278.71,-77.87 278.71,-77.87 278.71,-65.87 278.71,-65.87 278.71,-59.87 284.71,-53.87 290.71,-53.87"/>
<text text-anchor="middle" x="320.21" y="-68.17" font-family="Arial" font-size="14.00">parmname</text>
</g>
<!-- keyword&#45;&gt;parmname -->
<g id="edge9" class="edge">
<title>keyword&#45;&gt;parmname</title>
<path fill="none" stroke="#1f78b4" d="M257.57,-71.49C261.04,-71.51 264.62,-71.53 268.23,-71.55"/>
<polygon fill="#a6cee3" stroke="#1f78b4" points="268.38,-75.06 278.4,-71.62 268.43,-68.06 268.38,-75.06"/>
</g>
<!-- apiname -->
<g id="node11" class="node">
<title>apiname</title>
<path fill="#1afabc" stroke="black" d="M222.57,-6.02C222.57,-6.02 267.57,-6.02 267.57,-6.02 273.57,-6.02 279.57,-12.02 279.57,-18.02 279.57,-18.02 279.57,-30.02 279.57,-30.02 279.57,-36.02 273.57,-42.02 267.57,-42.02 267.57,-42.02 222.57,-42.02 222.57,-42.02 216.57,-42.02 210.57,-36.02 210.57,-30.02 210.57,-30.02 210.57,-18.02 210.57,-18.02 210.57,-12.02 216.57,-6.02 222.57,-6.02"/>
<text text-anchor="middle" x="245.07" y="-20.32" font-family="Arial" font-size="14.00">apiname</text>
</g>
<!-- keyword&#45;&gt;apiname -->
<g id="edge10" class="edge">
<title>keyword&#45;&gt;apiname</title>
<path fill="none" stroke="#1f78b4" d="M232.01,-53.15C232.26,-52.58 232.52,-52.01 232.78,-51.43"/>
<polygon fill="#a6cee3" stroke="#1f78b4" points="236.09,-52.59 236.99,-42.04 229.71,-49.73 236.09,-52.59"/>
</g>
<!-- parml -->
<g id="node13" class="node">
<title>parml</title>
<path fill="#1afabc" stroke="black" d="M321.49,-235.2C321.49,-235.2 351.49,-235.2 351.49,-235.2 357.49,-235.2 363.49,-241.2 363.49,-247.2 363.49,-247.2 363.49,-259.2 363.49,-259.2 363.49,-265.2 357.49,-271.2 351.49,-271.2 351.49,-271.2 321.49,-271.2 321.49,-271.2 315.49,-271.2 309.49,-265.2 309.49,-259.2 309.49,-259.2 309.49,-247.2 309.49,-247.2 309.49,-241.2 315.49,-235.2 321.49,-235.2"/>
<text text-anchor="middle" x="336.49" y="-249.5" font-family="Arial" font-size="14.00">parml</text>
</g>
<!-- dl&#45;&gt;parml -->
<g id="edge12" class="edge">
<title>dl&#45;&gt;parml</title>
<path fill="none" stroke="#1f78b4" d="M289.75,-228.2C293.26,-230.08 296.89,-232.02 300.52,-233.96"/>
<polygon fill="#a6cee3" stroke="#1f78b4" points="298.96,-237.1 309.43,-238.73 302.26,-230.93 298.96,-237.1"/>
</g>
<!-- plentry -->
<g id="node15" class="node">
<title>plentry</title>
<path fill="#1afabc" stroke="black" d="M231.17,-331.64C231.17,-331.64 264.17,-331.64 264.17,-331.64 270.17,-331.64 276.17,-337.64 276.17,-343.64 276.17,-343.64 276.17,-355.64 276.17,-355.64 276.17,-361.64 270.17,-367.64 264.17,-367.64 264.17,-367.64 231.17,-367.64 231.17,-367.64 225.17,-367.64 219.17,-361.64 219.17,-355.64 219.17,-355.64 219.17,-343.64 219.17,-343.64 219.17,-337.64 225.17,-331.64 231.17,-331.64"/>
<text text-anchor="middle" x="247.67" y="-345.94" font-family="Arial" font-size="14.00">plentry</text>
</g>
<!-- dlentry&#45;&gt;plentry -->
<g id="edge14" class="edge">
<title>dlentry&#45;&gt;plentry</title>
<path fill="none" stroke="#1f78b4" d="M247.11,-285.3C247.2,-295.86 247.32,-309.37 247.42,-321.27"/>
<polygon fill="#a6cee3" stroke="#1f78b4" points="243.93,-321.66 247.51,-331.63 250.93,-321.6 243.93,-321.66"/>
</g>
<!-- pt -->
<g id="node17" class="node">
<title>pt</title>
<path fill="#1afabc" stroke="black" d="M334.04,-137.8C334.04,-137.8 364.04,-137.8 364.04,-137.8 370.04,-137.8 376.04,-143.8 376.04,-149.8 376.04,-149.8 376.04,-161.8 376.04,-161.8 376.04,-167.8 370.04,-173.8 364.04,-173.8 364.04,-173.8 334.04,-173.8 334.04,-173.8 328.04,-173.8 322.04,-167.8 322.04,-161.8 322.04,-161.8 322.04,-149.8 322.04,-149.8 322.04,-143.8 328.04,-137.8 334.04,-137.8"/>
<text text-anchor="middle" x="349.04" y="-152.1" font-family="Arial" font-size="14.00">pt</text>
</g>
<!-- dt&#45;&gt;pt -->
<g id="edge16" class="edge">
<title>dt&#45;&gt;pt</title>
<path fill="none" stroke="#1f78b4" d="M295.69,-139.94C301,-141.52 306.65,-143.2 312.21,-144.85"/>
<polygon fill="#a6cee3" stroke="#1f78b4" points="311.45,-148.28 322.03,-147.77 313.44,-141.57 311.45,-148.28"/>
</g>
<!-- pd -->
<g id="node19" class="node">
<title>pd</title>
<path fill="#1afabc" stroke="black" d="M29.91,-242.65C29.91,-242.65 59.91,-242.65 59.91,-242.65 65.91,-242.65 71.91,-248.65 71.91,-254.65 71.91,-254.65 71.91,-266.65 71.91,-266.65 71.91,-272.65 65.91,-278.65 59.91,-278.65 59.91,-278.65 29.91,-278.65 29.91,-278.65 23.91,-278.65 17.91,-272.65 17.91,-266.65 17.91,-266.65 17.91,-254.65 17.91,-254.65 17.91,-248.65 23.91,-242.65 29.91,-242.65"/>
<text text-anchor="middle" x="44.91" y="-256.95" font-family="Arial" font-size="14.00">pd</text>
</g>
<!-- dd&#45;&gt;pd -->
<g id="edge18" class="edge">
<title>dd&#45;&gt;pd</title>
<path fill="none" stroke="#1f78b4" d="M88.26,-224.45C83.82,-228.17 79.06,-232.13 74.39,-236.03"/>
<polygon fill="#a6cee3" stroke="#1f78b4" points="72.11,-233.38 66.68,-242.47 76.6,-238.75 72.11,-233.38"/>
</g>
</g>
</svg>
