<?xml version="1.0" encoding="UTF-8" standalone="no"?>
<!DOCTYPE svg PUBLIC "-//W3C//DTD SVG 1.1//EN"
 "http://www.w3.org/Graphics/SVG/1.1/DTD/svg11.dtd">
<!-- Generated by graphviz version 6.0.1 (20220911.1526)
 -->
<!-- Pages: 1 -->
<svg width="509pt" height="414pt"
 viewBox="0.00 0.00 509.00 414.00" xmlns="http://www.w3.org/2000/svg" xmlns:xlink="http://www.w3.org/1999/xlink">
<g id="graph0" class="graph" transform="scale(1 1) rotate(0) translate(4 410)">
<polygon fill="white" stroke="none" points="-4,4 -4,-410 505,-410 505,4 -4,4"/>
<!-- specializations -->
<g id="node1" class="node">
<title>specializations</title>
<path fill="#afa7f4" stroke="black" d="M204.5,-191.85C204.5,-191.85 319.5,-191.85 319.5,-191.85 325.5,-191.85 331.5,-197.85 331.5,-203.85 331.5,-203.85 331.5,-215.85 331.5,-215.85 331.5,-221.85 325.5,-227.85 319.5,-227.85 319.5,-227.85 204.5,-227.85 204.5,-227.85 198.5,-227.85 192.5,-221.85 192.5,-215.85 192.5,-215.85 192.5,-203.85 192.5,-203.85 192.5,-197.85 198.5,-191.85 204.5,-191.85"/>
<text text-anchor="middle" x="246" y="-206.15" font-family="Arial" font-size="14.00">Specializations</text>
<polyline fill="none" stroke="black" points="299.5,-191.85 299.5,-227.85"/>
<text text-anchor="middle" x="315.5" y="-206.15" font-family="Arial" font-size="14.00">16</text>
</g>
<!-- bookmap -->
<g id="node2" class="node">
<title>bookmap</title>
<path fill="#1afabc" stroke="black" d="M422.04,-214.22C422.04,-214.22 471.04,-214.22 471.04,-214.22 477.04,-214.22 483.04,-220.22 483.04,-226.22 483.04,-226.22 483.04,-238.22 483.04,-238.22 483.04,-244.22 477.04,-250.22 471.04,-250.22 471.04,-250.22 422.04,-250.22 422.04,-250.22 416.04,-250.22 410.04,-244.22 410.04,-238.22 410.04,-238.22 410.04,-226.22 410.04,-226.22 410.04,-220.22 416.04,-214.22 422.04,-214.22"/>
<text text-anchor="middle" x="446.54" y="-228.52" font-family="Arial" font-size="14.00">bookmap</text>
</g>
<!-- specializations&#45;&gt;bookmap -->
<g id="edge1" class="edge">
<title>specializations&#45;&gt;bookmap</title>
<path fill="none" stroke="#1f78b4" d="M331.5,-218.27C354.32,-221.04 379.11,-224.04 399.82,-226.56"/>
<polygon fill="#a6cee3" stroke="#1f78b4" points="399.59,-230.05 409.93,-227.78 400.43,-223.1 399.59,-230.05"/>
</g>
<!-- learningSummary -->
<g id="node3" class="node">
<title>learningSummary</title>
<path fill="#1afabc" stroke="black" d="M138.33,-3.84C138.33,-3.84 238.33,-3.84 238.33,-3.84 244.33,-3.84 250.33,-9.84 250.33,-15.84 250.33,-15.84 250.33,-27.84 250.33,-27.84 250.33,-33.84 244.33,-39.84 238.33,-39.84 238.33,-39.84 138.33,-39.84 138.33,-39.84 132.33,-39.84 126.33,-33.84 126.33,-27.84 126.33,-27.84 126.33,-15.84 126.33,-15.84 126.33,-9.84 132.33,-3.84 138.33,-3.84"/>
<text text-anchor="middle" x="188.33" y="-18.14" font-family="Arial" font-size="14.00">learningSummary</text>
</g>
<!-- specializations&#45;&gt;learningSummary -->
<g id="edge2" class="edge">
<title>specializations&#45;&gt;learningSummary</title>
<path fill="none" stroke="#1f78b4" d="M254.94,-191.82C242.02,-158.85 214.5,-88.62 199.19,-49.54"/>
<polygon fill="#a6cee3" stroke="#1f78b4" points="202.39,-48.12 195.48,-40.08 195.87,-50.67 202.39,-48.12"/>
</g>
<!-- learningPlan -->
<g id="node4" class="node">
<title>learningPlan</title>
<path fill="#1afabc" stroke="black" d="M100.39,-319.91C100.39,-319.91 168.39,-319.91 168.39,-319.91 174.39,-319.91 180.39,-325.91 180.39,-331.91 180.39,-331.91 180.39,-343.91 180.39,-343.91 180.39,-349.91 174.39,-355.91 168.39,-355.91 168.39,-355.91 100.39,-355.91 100.39,-355.91 94.39,-355.91 88.39,-349.91 88.39,-343.91 88.39,-343.91 88.39,-331.91 88.39,-331.91 88.39,-325.91 94.39,-319.91 100.39,-319.91"/>
<text text-anchor="middle" x="134.39" y="-334.21" font-family="Arial" font-size="14.00">learningPlan</text>
</g>
<!-- specializations&#45;&gt;learningPlan -->
<g id="edge3" class="edge">
<title>specializations&#45;&gt;learningPlan</title>
<path fill="none" stroke="#1f78b4" d="M243.99,-227.92C222.07,-249.92 184.92,-287.2 160.03,-312.18"/>
<polygon fill="#a6cee3" stroke="#1f78b4" points="157.3,-309.96 152.73,-319.51 162.26,-314.9 157.3,-309.96"/>
</g>
<!-- learningOverview -->
<g id="node5" class="node">
<title>learningOverview</title>
<path fill="#1afabc" stroke="black" d="M284.28,-237.94C284.28,-237.94 382.28,-237.94 382.28,-237.94 388.28,-237.94 394.28,-243.94 394.28,-249.94 394.28,-249.94 394.28,-261.94 394.28,-261.94 394.28,-267.94 388.28,-273.94 382.28,-273.94 382.28,-273.94 284.28,-273.94 284.28,-273.94 278.28,-273.94 272.28,-267.94 272.28,-261.94 272.28,-261.94 272.28,-249.94 272.28,-249.94 272.28,-243.94 278.28,-237.94 284.28,-237.94"/>
<text text-anchor="middle" x="333.28" y="-252.24" font-family="Arial" font-size="14.00">learningOverview</text>
</g>
<!-- specializations&#45;&gt;learningOverview -->
<g id="edge4" class="edge">
<title>specializations&#45;&gt;learningOverview</title>
<path fill="none" stroke="#1f78b4" d="M290.17,-228.06C292.35,-229.47 294.57,-230.91 296.79,-232.34"/>
<polygon fill="#a6cee3" stroke="#1f78b4" points="295.01,-235.36 305.31,-237.85 298.82,-229.48 295.01,-235.36"/>
</g>
<!-- learningContent -->
<g id="node6" class="node">
<title>learningContent</title>
<path fill="#1afabc" stroke="black" d="M156.49,-242.9C156.49,-242.9 244.49,-242.9 244.49,-242.9 250.49,-242.9 256.49,-248.9 256.49,-254.9 256.49,-254.9 256.49,-266.9 256.49,-266.9 256.49,-272.9 250.49,-278.9 244.49,-278.9 244.49,-278.9 156.49,-278.9 156.49,-278.9 150.49,-278.9 144.49,-272.9 144.49,-266.9 144.49,-266.9 144.49,-254.9 144.49,-254.9 144.49,-248.9 150.49,-242.9 156.49,-242.9"/>
<text text-anchor="middle" x="200.49" y="-257.2" font-family="Arial" font-size="14.00">learningContent</text>
</g>
<!-- specializations&#45;&gt;learningContent -->
<g id="edge5" class="edge">
<title>specializations&#45;&gt;learningContent</title>
<path fill="none" stroke="#1f78b4" d="M240.14,-227.99C236.87,-230.7 233.47,-233.53 230.07,-236.34"/>
<polygon fill="#a6cee3" stroke="#1f78b4" points="227.74,-233.74 222.28,-242.82 232.21,-239.12 227.74,-233.74"/>
</g>
<!-- learningObjectMap -->
<g id="node7" class="node">
<title>learningObjectMap</title>
<path fill="#1afabc" stroke="black" d="M51.06,-61.22C51.06,-61.22 158.06,-61.22 158.06,-61.22 164.06,-61.22 170.06,-67.22 170.06,-73.22 170.06,-73.22 170.06,-85.22 170.06,-85.22 170.06,-91.22 164.06,-97.22 158.06,-97.22 158.06,-97.22 51.06,-97.22 51.06,-97.22 45.06,-97.22 39.06,-91.22 39.06,-85.22 39.06,-85.22 39.06,-73.22 39.06,-73.22 39.06,-67.22 45.06,-61.22 51.06,-61.22"/>
<text text-anchor="middle" x="104.56" y="-75.52" font-family="Arial" font-size="14.00">learningObjectMap</text>
</g>
<!-- specializations&#45;&gt;learningObjectMap -->
<g id="edge6" class="edge">
<title>specializations&#45;&gt;learningObjectMap</title>
<path fill="none" stroke="#1f78b4" d="M240.11,-191.68C212.5,-168.77 164.91,-129.29 134.1,-103.73"/>
<polygon fill="#a6cee3" stroke="#1f78b4" points="136.2,-100.92 126.27,-97.23 131.73,-106.31 136.2,-100.92"/>
</g>
<!-- learningBase -->
<g id="node8" class="node">
<title>learningBase</title>
<path fill="#1afabc" stroke="black" d="M418.16,-136.06C418.16,-136.06 489.16,-136.06 489.16,-136.06 495.16,-136.06 501.16,-142.06 501.16,-148.06 501.16,-148.06 501.16,-160.06 501.16,-160.06 501.16,-166.06 495.16,-172.06 489.16,-172.06 489.16,-172.06 418.16,-172.06 418.16,-172.06 412.16,-172.06 406.16,-166.06 406.16,-160.06 406.16,-160.06 406.16,-148.06 406.16,-148.06 406.16,-142.06 412.16,-136.06 418.16,-136.06"/>
<text text-anchor="middle" x="453.66" y="-150.36" font-family="Arial" font-size="14.00">learningBase</text>
</g>
<!-- specializations&#45;&gt;learningBase -->
<g id="edge7" class="edge">
<title>specializations&#45;&gt;learningBase</title>
<path fill="none" stroke="#1f78b4" d="M323.96,-191.81C347.11,-185.07 373.29,-177.45 396.03,-170.83"/>
<polygon fill="#a6cee3" stroke="#1f78b4" points="397.26,-174.12 405.88,-167.97 395.3,-167.4 397.26,-174.12"/>
</g>
<!-- learningGroupMap -->
<g id="node9" class="node">
<title>learningGroupMap</title>
<path fill="#1afabc" stroke="black" d="M11.55,-245.9C11.55,-245.9 117.55,-245.9 117.55,-245.9 123.55,-245.9 129.55,-251.9 129.55,-257.9 129.55,-257.9 129.55,-269.9 129.55,-269.9 129.55,-275.9 123.55,-281.9 117.55,-281.9 117.55,-281.9 11.55,-281.9 11.55,-281.9 5.55,-281.9 -0.45,-275.9 -0.45,-269.9 -0.45,-269.9 -0.45,-257.9 -0.45,-257.9 -0.45,-251.9 5.55,-245.9 11.55,-245.9"/>
<text text-anchor="middle" x="64.55" y="-260.2" font-family="Arial" font-size="14.00">learningGroupMap</text>
</g>
<!-- specializations&#45;&gt;learningGroupMap -->
<g id="edge8" class="edge">
<title>specializations&#45;&gt;learningGroupMap</title>
<path fill="none" stroke="#1f78b4" d="M195.98,-227.92C177.92,-232.86 158.22,-238.26 139.7,-243.33"/>
<polygon fill="#a6cee3" stroke="#1f78b4" points="138.56,-240.01 129.84,-246.02 140.41,-246.76 138.56,-240.01"/>
</g>
<!-- learningAssessment -->
<g id="node10" class="node">
<title>learningAssessment</title>
<path fill="#1afabc" stroke="black" d="M266.66,-139.23C266.66,-139.23 381.66,-139.23 381.66,-139.23 387.66,-139.23 393.66,-145.23 393.66,-151.23 393.66,-151.23 393.66,-163.23 393.66,-163.23 393.66,-169.23 387.66,-175.23 381.66,-175.23 381.66,-175.23 266.66,-175.23 266.66,-175.23 260.66,-175.23 254.66,-169.23 254.66,-163.23 254.66,-163.23 254.66,-151.23 254.66,-151.23 254.66,-145.23 260.66,-139.23 266.66,-139.23"/>
<text text-anchor="middle" x="324.16" y="-153.53" font-family="Arial" font-size="14.00">learningAssessment</text>
</g>
<!-- specializations&#45;&gt;learningAssessment -->
<g id="edge9" class="edge">
<title>specializations&#45;&gt;learningAssessment</title>
<path fill="none" stroke="#1f78b4" d="M283.39,-191.74C287.06,-188.63 290.93,-185.36 294.77,-182.11"/>
<polygon fill="#a6cee3" stroke="#1f78b4" points="297.15,-184.68 302.52,-175.55 292.62,-179.34 297.15,-184.68"/>
</g>
<!-- troubleshooting -->
<g id="node11" class="node">
<title>troubleshooting</title>
<path fill="#1afabc" stroke="black" d="M137.77,-125.4C137.77,-125.4 222.77,-125.4 222.77,-125.4 228.77,-125.4 234.77,-131.4 234.77,-137.4 234.77,-137.4 234.77,-149.4 234.77,-149.4 234.77,-155.4 228.77,-161.4 222.77,-161.4 222.77,-161.4 137.77,-161.4 137.77,-161.4 131.77,-161.4 125.77,-155.4 125.77,-149.4 125.77,-149.4 125.77,-137.4 125.77,-137.4 125.77,-131.4 131.77,-125.4 137.77,-125.4"/>
<text text-anchor="middle" x="180.27" y="-139.7" font-family="Arial" font-size="14.00">troubleshooting</text>
</g>
<!-- specializations&#45;&gt;troubleshooting -->
<g id="edge10" class="edge">
<title>specializations&#45;&gt;troubleshooting</title>
<path fill="none" stroke="#1f78b4" d="M239.67,-191.69C230.66,-184.36 220.12,-175.8 210.45,-167.93"/>
<polygon fill="#a6cee3" stroke="#1f78b4" points="212.54,-165.13 202.58,-161.53 208.13,-170.56 212.54,-165.13"/>
</g>
<!-- reference -->
<g id="node12" class="node">
<title>reference</title>
<path fill="#1afabc" stroke="black" d="M71.07,-176.79C71.07,-176.79 121.07,-176.79 121.07,-176.79 127.07,-176.79 133.07,-182.79 133.07,-188.79 133.07,-188.79 133.07,-200.79 133.07,-200.79 133.07,-206.79 127.07,-212.79 121.07,-212.79 121.07,-212.79 71.07,-212.79 71.07,-212.79 65.07,-212.79 59.07,-206.79 59.07,-200.79 59.07,-200.79 59.07,-188.79 59.07,-188.79 59.07,-182.79 65.07,-176.79 71.07,-176.79"/>
<text text-anchor="middle" x="96.07" y="-191.09" font-family="Arial" font-size="14.00">reference</text>
</g>
<!-- specializations&#45;&gt;reference -->
<g id="edge11" class="edge">
<title>specializations&#45;&gt;reference</title>
<path fill="none" stroke="#1f78b4" d="M192.11,-203.5C175.7,-202.01 158.6,-200.46 143.44,-199.09"/>
<polygon fill="#a6cee3" stroke="#1f78b4" points="143.57,-195.58 133.3,-198.17 142.94,-202.56 143.57,-195.58"/>
</g>
<!-- task -->
<g id="node13" class="node">
<title>task</title>
<path fill="#1afabc" stroke="black" d="M387.25,-295.53C387.25,-295.53 417.25,-295.53 417.25,-295.53 423.25,-295.53 429.25,-301.53 429.25,-307.53 429.25,-307.53 429.25,-319.53 429.25,-319.53 429.25,-325.53 423.25,-331.53 417.25,-331.53 417.25,-331.53 387.25,-331.53 387.25,-331.53 381.25,-331.53 375.25,-325.53 375.25,-319.53 375.25,-319.53 375.25,-307.53 375.25,-307.53 375.25,-301.53 381.25,-295.53 387.25,-295.53"/>
<text text-anchor="middle" x="402.25" y="-309.83" font-family="Arial" font-size="14.00">task</text>
</g>
<!-- specializations&#45;&gt;task -->
<g id="edge12" class="edge">
<title>specializations&#45;&gt;task</title>
<path fill="none" stroke="#1f78b4" d="M286.43,-227.91C309.41,-244.9 344,-270.47 369.4,-289.24"/>
<polygon fill="#a6cee3" stroke="#1f78b4" points="367.51,-292.2 377.63,-295.33 371.67,-286.57 367.51,-292.2"/>
</g>
<!-- glossentry -->
<g id="node14" class="node">
<title>glossentry</title>
<path fill="#1afabc" stroke="black" d="M313.05,-357.26C313.05,-357.26 367.05,-357.26 367.05,-357.26 373.05,-357.26 379.05,-363.26 379.05,-369.26 379.05,-369.26 379.05,-381.26 379.05,-381.26 379.05,-387.26 373.05,-393.26 367.05,-393.26 367.05,-393.26 313.05,-393.26 313.05,-393.26 307.05,-393.26 301.05,-387.26 301.05,-381.26 301.05,-381.26 301.05,-369.26 301.05,-369.26 301.05,-363.26 307.05,-357.26 313.05,-357.26"/>
<text text-anchor="middle" x="340.05" y="-371.56" font-family="Arial" font-size="14.00">glossentry</text>
</g>
<!-- specializations&#45;&gt;glossentry -->
<g id="edge13" class="edge">
<title>specializations&#45;&gt;glossentry</title>
<path fill="none" stroke="#1f78b4" d="M270.5,-227.86C284.13,-256.75 310.96,-313.62 327.02,-347.65"/>
<polygon fill="#a6cee3" stroke="#1f78b4" points="324.01,-349.46 331.44,-357.01 330.34,-346.48 324.01,-349.46"/>
</g>
<!-- glossgroup -->
<g id="node15" class="node">
<title>glossgroup</title>
<path fill="#1afabc" stroke="black" d="M207.5,-369.56C207.5,-369.56 266.5,-369.56 266.5,-369.56 272.5,-369.56 278.5,-375.56 278.5,-381.56 278.5,-381.56 278.5,-393.56 278.5,-393.56 278.5,-399.56 272.5,-405.56 266.5,-405.56 266.5,-405.56 207.5,-405.56 207.5,-405.56 201.5,-405.56 195.5,-399.56 195.5,-393.56 195.5,-393.56 195.5,-381.56 195.5,-381.56 195.5,-375.56 201.5,-369.56 207.5,-369.56"/>
<text text-anchor="middle" x="237" y="-383.86" font-family="Arial" font-size="14.00">glossgroup</text>
</g>
<!-- specializations&#45;&gt;glossgroup -->
<g id="edge14" class="edge">
<title>specializations&#45;&gt;glossgroup</title>
<path fill="none" stroke="#1f78b4" d="M259.46,-227.86C255.1,-258.87 246.15,-322.51 240.96,-359.4"/>
<polygon fill="#a6cee3" stroke="#1f78b4" points="237.47,-359.1 239.55,-369.49 244.4,-360.08 237.47,-359.1"/>
</g>
<!-- concept -->
<g id="node16" class="node">
<title>concept</title>
<path fill="#1afabc" stroke="black" d="M365.48,-63.27C365.48,-63.27 405.48,-63.27 405.48,-63.27 411.48,-63.27 417.48,-69.27 417.48,-75.27 417.48,-75.27 417.48,-87.27 417.48,-87.27 417.48,-93.27 411.48,-99.27 405.48,-99.27 405.48,-99.27 365.48,-99.27 365.48,-99.27 359.48,-99.27 353.48,-93.27 353.48,-87.27 353.48,-87.27 353.48,-75.27 353.48,-75.27 353.48,-69.27 359.48,-63.27 365.48,-63.27"/>
<text text-anchor="middle" x="385.48" y="-77.57" font-family="Arial" font-size="14.00">concept</text>
</g>
<!-- specializations&#45;&gt;concept -->
<g id="edge15" class="edge">
<title>specializations&#45;&gt;concept</title>
<path fill="none" stroke="#1f78b4" d="M279.43,-191.7C300.76,-169.49 337,-131.76 361.09,-106.68"/>
<polygon fill="#a6cee3" stroke="#1f78b4" points="363.74,-108.97 368.14,-99.33 358.69,-104.12 363.74,-108.97"/>
</g>
<!-- subjectScheme -->
<g id="node17" class="node">
<title>subjectScheme</title>
<path fill="#1afabc" stroke="black" d="M280.87,-0.74C280.87,-0.74 366.87,-0.74 366.87,-0.74 372.87,-0.74 378.87,-6.74 378.87,-12.74 378.87,-12.74 378.87,-24.74 378.87,-24.74 378.87,-30.74 372.87,-36.74 366.87,-36.74 366.87,-36.74 280.87,-36.74 280.87,-36.74 274.87,-36.74 268.87,-30.74 268.87,-24.74 268.87,-24.74 268.87,-12.74 268.87,-12.74 268.87,-6.74 274.87,-0.74 280.87,-0.74"/>
<text text-anchor="middle" x="323.87" y="-15.04" font-family="Arial" font-size="14.00">subjectScheme</text>
</g>
<!-- specializations&#45;&gt;subjectScheme -->
<g id="edge16" class="edge">
<title>specializations&#45;&gt;subjectScheme</title>
<path fill="none" stroke="#1f78b4" d="M267.93,-191.52C278.81,-157.92 302.01,-86.26 314.86,-46.59"/>
<polygon fill="#a6cee3" stroke="#1f78b4" points="318.21,-47.6 317.96,-37.01 311.55,-45.44 318.21,-47.6"/>
</g>
</g>
</svg>
