<?xml version="1.0" encoding="UTF-8" standalone="no"?>
<!DOCTYPE svg PUBLIC "-//W3C//DTD SVG 1.1//EN"
 "http://www.w3.org/Graphics/SVG/1.1/DTD/svg11.dtd">
<!-- Generated by graphviz version 6.0.1 (20220911.1526)
 -->
<!-- Pages: 1 -->
<svg width="1273pt" height="1011pt"
 viewBox="0.00 0.00 1273.00 1011.00" xmlns="http://www.w3.org/2000/svg" xmlns:xlink="http://www.w3.org/1999/xlink">
<g id="graph0" class="graph" transform="scale(1 1) rotate(0) translate(4 1007)">
<polygon fill="white" stroke="none" points="-4,4 -4,-1007 1269,-1007 1269,4 -4,4"/>
<!-- bookmapModule -->
<g id="node1" class="node">
<title>bookmapModule</title>
<path fill="#dddddd" stroke="black" d="M556.82,-517.15C556.82,-517.15 650.82,-517.15 650.82,-517.15 656.82,-517.15 662.82,-523.15 662.82,-529.15 662.82,-529.15 662.82,-541.15 662.82,-541.15 662.82,-547.15 656.82,-553.15 650.82,-553.15 650.82,-553.15 556.82,-553.15 556.82,-553.15 550.82,-553.15 544.82,-547.15 544.82,-541.15 544.82,-541.15 544.82,-529.15 544.82,-529.15 544.82,-523.15 550.82,-517.15 556.82,-517.15"/>
<text text-anchor="middle" x="603.82" y="-531.45" font-family="Arial" font-size="14.00">bookmapModule</text>
</g>
<!-- map -->
<g id="node2" class="node">
<title>map</title>
<path fill="#afa7f4" stroke="black" d="M660.99,-348.19C660.99,-348.19 690.99,-348.19 690.99,-348.19 696.99,-348.19 702.99,-354.19 702.99,-360.19 702.99,-360.19 702.99,-372.19 702.99,-372.19 702.99,-378.19 696.99,-384.19 690.99,-384.19 690.99,-384.19 660.99,-384.19 660.99,-384.19 654.99,-384.19 648.99,-378.19 648.99,-372.19 648.99,-372.19 648.99,-360.19 648.99,-360.19 648.99,-354.19 654.99,-348.19 660.99,-348.19"/>
<text text-anchor="middle" x="675.99" y="-362.49" font-family="Arial" font-size="14.00">map</text>
</g>
<!-- bookmapModule&#45;&gt;map -->
<g id="edge1" class="edge">
<title>bookmapModule&#45;&gt;map</title>
<path fill="none" stroke="#1f78b4" d="M611.55,-517.07C624.16,-487.55 649.25,-428.81 664.13,-393.97"/>
<polygon fill="#a6cee3" stroke="#1f78b4" points="667.5,-394.97 668.21,-384.4 661.07,-392.22 667.5,-394.97"/>
</g>
<!-- topicmeta -->
<g id="node4" class="node">
<title>topicmeta</title>
<path fill="#afa7f4" stroke="black" d="M576.98,-333.31C576.98,-333.31 628.98,-333.31 628.98,-333.31 634.98,-333.31 640.98,-339.31 640.98,-345.31 640.98,-345.31 640.98,-357.31 640.98,-357.31 640.98,-363.31 634.98,-369.31 628.98,-369.31 628.98,-369.31 576.98,-369.31 576.98,-369.31 570.98,-369.31 564.98,-363.31 564.98,-357.31 564.98,-357.31 564.98,-345.31 564.98,-345.31 564.98,-339.31 570.98,-333.31 576.98,-333.31"/>
<text text-anchor="middle" x="602.98" y="-347.61" font-family="Arial" font-size="14.00">topicmeta</text>
</g>
<!-- bookmapModule&#45;&gt;topicmeta -->
<g id="edge3" class="edge">
<title>bookmapModule&#45;&gt;topicmeta</title>
<path fill="none" stroke="#1f78b4" d="M603.74,-516.85C603.59,-484.78 603.29,-418.2 603.12,-379.97"/>
<polygon fill="#a6cee3" stroke="#1f78b4" points="606.61,-379.52 603.07,-369.54 599.61,-379.56 606.61,-379.52"/>
</g>
<!-- topicref -->
<g id="node6" class="node">
<title>topicref</title>
<path fill="#afa7f4" stroke="black" d="M280.85,-232.63C280.85,-232.63 317.85,-232.63 317.85,-232.63 323.85,-232.63 329.85,-238.63 329.85,-244.63 329.85,-244.63 329.85,-256.63 329.85,-256.63 329.85,-262.63 323.85,-268.63 317.85,-268.63 317.85,-268.63 280.85,-268.63 280.85,-268.63 274.85,-268.63 268.85,-262.63 268.85,-256.63 268.85,-256.63 268.85,-244.63 268.85,-244.63 268.85,-238.63 274.85,-232.63 280.85,-232.63"/>
<text text-anchor="middle" x="299.35" y="-246.93" font-family="Arial" font-size="14.00">topicref</text>
</g>
<!-- bookmapModule&#45;&gt;topicref -->
<g id="edge5" class="edge">
<title>bookmapModule&#45;&gt;topicref</title>
<path fill="none" stroke="#1f78b4" d="M584.31,-516.92C531.68,-467.74 386.7,-332.26 326.31,-275.82"/>
<polygon fill="#a6cee3" stroke="#1f78b4" points="328.4,-272.98 318.7,-268.71 323.62,-278.1 328.4,-272.98"/>
</g>
<!-- publisher -->
<g id="node30" class="node">
<title>publisher</title>
<path fill="#afa7f4" stroke="black" d="M759.37,-439.25C759.37,-439.25 806.37,-439.25 806.37,-439.25 812.37,-439.25 818.37,-445.25 818.37,-451.25 818.37,-451.25 818.37,-463.25 818.37,-463.25 818.37,-469.25 812.37,-475.25 806.37,-475.25 806.37,-475.25 759.37,-475.25 759.37,-475.25 753.37,-475.25 747.37,-469.25 747.37,-463.25 747.37,-463.25 747.37,-451.25 747.37,-451.25 747.37,-445.25 753.37,-439.25 759.37,-439.25"/>
<text text-anchor="middle" x="782.87" y="-453.55" font-family="Arial" font-size="14.00">publisher</text>
</g>
<!-- bookmapModule&#45;&gt;publisher -->
<g id="edge29" class="edge">
<title>bookmapModule&#45;&gt;publisher</title>
<path fill="none" stroke="#1f78b4" d="M645.35,-517.08C673.1,-505.01 709.59,-489.14 738,-476.77"/>
<polygon fill="#a6cee3" stroke="#1f78b4" points="739.53,-479.92 747.31,-472.72 736.74,-473.5 739.53,-479.92"/>
</g>
<!-- data -->
<g id="node32" class="node">
<title>data</title>
<path fill="#afa7f4" stroke="black" d="M946.81,-721.5C946.81,-721.5 976.81,-721.5 976.81,-721.5 982.81,-721.5 988.81,-727.5 988.81,-733.5 988.81,-733.5 988.81,-745.5 988.81,-745.5 988.81,-751.5 982.81,-757.5 976.81,-757.5 976.81,-757.5 946.81,-757.5 946.81,-757.5 940.81,-757.5 934.81,-751.5 934.81,-745.5 934.81,-745.5 934.81,-733.5 934.81,-733.5 934.81,-727.5 940.81,-721.5 946.81,-721.5"/>
<text text-anchor="middle" x="961.81" y="-735.8" font-family="Arial" font-size="14.00">data</text>
</g>
<!-- bookmapModule&#45;&gt;data -->
<g id="edge31" class="edge">
<title>bookmapModule&#45;&gt;data</title>
<path fill="none" stroke="#1f78b4" d="M635.59,-553.29C702.08,-591.24 855.53,-678.83 925.66,-718.86"/>
<polygon fill="#a6cee3" stroke="#1f78b4" points="924.17,-722.04 934.59,-723.96 927.64,-715.96 924.17,-722.04"/>
</g>
<!-- ph -->
<g id="node57" class="node">
<title>ph</title>
<path fill="#afa7f4" stroke="black" d="M392.16,-787.97C392.16,-787.97 422.16,-787.97 422.16,-787.97 428.16,-787.97 434.16,-793.97 434.16,-799.97 434.16,-799.97 434.16,-811.97 434.16,-811.97 434.16,-817.97 428.16,-823.97 422.16,-823.97 422.16,-823.97 392.16,-823.97 392.16,-823.97 386.16,-823.97 380.16,-817.97 380.16,-811.97 380.16,-811.97 380.16,-799.97 380.16,-799.97 380.16,-793.97 386.16,-787.97 392.16,-787.97"/>
<text text-anchor="middle" x="407.16" y="-802.27" font-family="Arial" font-size="14.00">ph</text>
</g>
<!-- bookmapModule&#45;&gt;ph -->
<g id="edge56" class="edge">
<title>bookmapModule&#45;&gt;ph</title>
<path fill="none" stroke="#1f78b4" d="M590.61,-553.34C556.61,-600.17 465.94,-725.04 426.23,-779.71"/>
<polygon fill="#a6cee3" stroke="#1f78b4" points="423.36,-777.72 420.31,-787.86 429.02,-781.83 423.36,-777.72"/>
</g>
<!-- title -->
<g id="node68" class="node">
<title>title</title>
<path fill="#afa7f4" stroke="black" d="M705.14,-394.17C705.14,-394.17 735.14,-394.17 735.14,-394.17 741.14,-394.17 747.14,-400.17 747.14,-406.17 747.14,-406.17 747.14,-418.17 747.14,-418.17 747.14,-424.17 741.14,-430.17 735.14,-430.17 735.14,-430.17 705.14,-430.17 705.14,-430.17 699.14,-430.17 693.14,-424.17 693.14,-418.17 693.14,-418.17 693.14,-406.17 693.14,-406.17 693.14,-400.17 699.14,-394.17 705.14,-394.17"/>
<text text-anchor="middle" x="720.14" y="-408.47" font-family="Arial" font-size="14.00">title</text>
</g>
<!-- bookmapModule&#45;&gt;title -->
<g id="edge67" class="edge">
<title>bookmapModule&#45;&gt;title</title>
<path fill="none" stroke="#1f78b4" d="M620.99,-517.01C640.83,-496.03 673.63,-461.35 696.03,-437.66"/>
<polygon fill="#a6cee3" stroke="#1f78b4" points="698.58,-440.06 702.91,-430.39 693.5,-435.25 698.58,-440.06"/>
</g>
<!-- bookmap -->
<g id="node3" class="node">
<title>bookmap</title>
<path fill="#1afabc" stroke="black" d="M725.56,-223.52C725.56,-223.52 774.56,-223.52 774.56,-223.52 780.56,-223.52 786.56,-229.52 786.56,-235.52 786.56,-235.52 786.56,-247.52 786.56,-247.52 786.56,-253.52 780.56,-259.52 774.56,-259.52 774.56,-259.52 725.56,-259.52 725.56,-259.52 719.56,-259.52 713.56,-253.52 713.56,-247.52 713.56,-247.52 713.56,-235.52 713.56,-235.52 713.56,-229.52 719.56,-223.52 725.56,-223.52"/>
<text text-anchor="middle" x="750.06" y="-237.82" font-family="Arial" font-size="14.00">bookmap</text>
</g>
<!-- map&#45;&gt;bookmap -->
<g id="edge2" class="edge">
<title>map&#45;&gt;bookmap</title>
<path fill="none" stroke="#1f78b4" d="M686.76,-348.06C699.21,-327.1 719.82,-292.41 734.13,-268.33"/>
<polygon fill="#a6cee3" stroke="#1f78b4" points="737.17,-270.05 739.27,-259.67 731.16,-266.48 737.17,-270.05"/>
</g>
<!-- bookmeta -->
<g id="node5" class="node">
<title>bookmeta</title>
<path fill="#1afabc" stroke="black" d="M640.48,-195.08C640.48,-195.08 693.48,-195.08 693.48,-195.08 699.48,-195.08 705.48,-201.08 705.48,-207.08 705.48,-207.08 705.48,-219.08 705.48,-219.08 705.48,-225.08 699.48,-231.08 693.48,-231.08 693.48,-231.08 640.48,-231.08 640.48,-231.08 634.48,-231.08 628.48,-225.08 628.48,-219.08 628.48,-219.08 628.48,-207.08 628.48,-207.08 628.48,-201.08 634.48,-195.08 640.48,-195.08"/>
<text text-anchor="middle" x="666.98" y="-209.38" font-family="Arial" font-size="14.00">bookmeta</text>
</g>
<!-- topicmeta&#45;&gt;bookmeta -->
<g id="edge4" class="edge">
<title>topicmeta&#45;&gt;bookmeta</title>
<path fill="none" stroke="#1f78b4" d="M611.35,-333.24C622.32,-309.55 641.67,-267.76 654.41,-240.24"/>
<polygon fill="#a6cee3" stroke="#1f78b4" points="657.59,-241.71 658.61,-231.16 651.23,-238.76 657.59,-241.71"/>
</g>
<!-- frontmatter -->
<g id="node7" class="node">
<title>frontmatter</title>
<path fill="#1afabc" stroke="black" d="M339.07,-5.02C339.07,-5.02 398.07,-5.02 398.07,-5.02 404.07,-5.02 410.07,-11.02 410.07,-17.02 410.07,-17.02 410.07,-29.02 410.07,-29.02 410.07,-35.02 404.07,-41.02 398.07,-41.02 398.07,-41.02 339.07,-41.02 339.07,-41.02 333.07,-41.02 327.07,-35.02 327.07,-29.02 327.07,-29.02 327.07,-17.02 327.07,-17.02 327.07,-11.02 333.07,-5.02 339.07,-5.02"/>
<text text-anchor="middle" x="368.57" y="-19.32" font-family="Arial" font-size="14.00">frontmatter</text>
</g>
<!-- topicref&#45;&gt;frontmatter -->
<g id="edge6" class="edge">
<title>topicref&#45;&gt;frontmatter</title>
<path fill="none" stroke="#1f78b4" d="M304.9,-232.39C316.98,-192.67 345.73,-98.14 360.09,-50.89"/>
<polygon fill="#a6cee3" stroke="#1f78b4" points="363.53,-51.61 363.09,-41.03 356.84,-49.58 363.53,-51.61"/>
</g>
<!-- backmatter -->
<g id="node8" class="node">
<title>backmatter</title>
<path fill="#1afabc" stroke="black" d="M258.51,-389.18C258.51,-389.18 318.51,-389.18 318.51,-389.18 324.51,-389.18 330.51,-395.18 330.51,-401.18 330.51,-401.18 330.51,-413.18 330.51,-413.18 330.51,-419.18 324.51,-425.18 318.51,-425.18 318.51,-425.18 258.51,-425.18 258.51,-425.18 252.51,-425.18 246.51,-419.18 246.51,-413.18 246.51,-413.18 246.51,-401.18 246.51,-401.18 246.51,-395.18 252.51,-389.18 258.51,-389.18"/>
<text text-anchor="middle" x="288.51" y="-403.48" font-family="Arial" font-size="14.00">backmatter</text>
</g>
<!-- topicref&#45;&gt;backmatter -->
<g id="edge7" class="edge">
<title>topicref&#45;&gt;backmatter</title>
<path fill="none" stroke="#1f78b4" d="M298.09,-268.9C296.21,-296 292.67,-347.09 290.46,-379.01"/>
<polygon fill="#a6cee3" stroke="#1f78b4" points="286.97,-378.81 289.77,-389.03 293.95,-379.3 286.97,-378.81"/>
</g>
<!-- draftintro -->
<g id="node9" class="node">
<title>draftintro</title>
<path fill="#1afabc" stroke="black" d="M381.55,-60.31C381.55,-60.31 427.55,-60.31 427.55,-60.31 433.55,-60.31 439.55,-66.31 439.55,-72.31 439.55,-72.31 439.55,-84.31 439.55,-84.31 439.55,-90.31 433.55,-96.31 427.55,-96.31 427.55,-96.31 381.55,-96.31 381.55,-96.31 375.55,-96.31 369.55,-90.31 369.55,-84.31 369.55,-84.31 369.55,-72.31 369.55,-72.31 369.55,-66.31 375.55,-60.31 381.55,-60.31"/>
<text text-anchor="middle" x="404.55" y="-74.61" font-family="Arial" font-size="14.00">draftintro</text>
</g>
<!-- topicref&#45;&gt;draftintro -->
<g id="edge8" class="edge">
<title>topicref&#45;&gt;draftintro</title>
<path fill="none" stroke="#1f78b4" d="M310.41,-232.52C328.96,-202.14 366.42,-140.77 388.08,-105.29"/>
<polygon fill="#a6cee3" stroke="#1f78b4" points="391.26,-106.8 393.48,-96.45 385.28,-103.16 391.26,-106.8"/>
</g>
<!-- bookabstract -->
<g id="node10" class="node">
<title>bookabstract</title>
<path fill="#1afabc" stroke="black" d="M11.53,-127.55C11.53,-127.55 81.53,-127.55 81.53,-127.55 87.53,-127.55 93.53,-133.55 93.53,-139.55 93.53,-139.55 93.53,-151.55 93.53,-151.55 93.53,-157.55 87.53,-163.55 81.53,-163.55 81.53,-163.55 11.53,-163.55 11.53,-163.55 5.53,-163.55 -0.47,-157.55 -0.47,-151.55 -0.47,-151.55 -0.47,-139.55 -0.47,-139.55 -0.47,-133.55 5.53,-127.55 11.53,-127.55"/>
<text text-anchor="middle" x="46.53" y="-141.85" font-family="Arial" font-size="14.00">bookabstract</text>
</g>
<!-- topicref&#45;&gt;bookabstract -->
<g id="edge9" class="edge">
<title>topicref&#45;&gt;bookabstract</title>
<path fill="none" stroke="#1f78b4" d="M268.6,-237.85C226.61,-220.4 150.69,-188.84 99.45,-167.54"/>
<polygon fill="#a6cee3" stroke="#1f78b4" points="100.76,-164.3 90.18,-163.69 98.07,-170.76 100.76,-164.3"/>
</g>
<!-- dedication -->
<g id="node11" class="node">
<title>dedication</title>
<path fill="#1afabc" stroke="black" d="M253.05,-0.94C253.05,-0.94 307.05,-0.94 307.05,-0.94 313.05,-0.94 319.05,-6.94 319.05,-12.94 319.05,-12.94 319.05,-24.94 319.05,-24.94 319.05,-30.94 313.05,-36.94 307.05,-36.94 307.05,-36.94 253.05,-36.94 253.05,-36.94 247.05,-36.94 241.05,-30.94 241.05,-24.94 241.05,-24.94 241.05,-12.94 241.05,-12.94 241.05,-6.94 247.05,-0.94 253.05,-0.94"/>
<text text-anchor="middle" x="280.05" y="-15.24" font-family="Arial" font-size="14.00">dedication</text>
</g>
<!-- topicref&#45;&gt;dedication -->
<g id="edge10" class="edge">
<title>topicref&#45;&gt;dedication</title>
<path fill="none" stroke="#1f78b4" d="M297.84,-232.45C294.48,-192.19 286.4,-95.25 282.39,-47.08"/>
<polygon fill="#a6cee3" stroke="#1f78b4" points="285.87,-46.71 281.55,-37.04 278.9,-47.29 285.87,-46.71"/>
</g>
<!-- preface -->
<g id="node12" class="node">
<title>preface</title>
<path fill="#1afabc" stroke="black" d="M349.81,-342.38C349.81,-342.38 387.81,-342.38 387.81,-342.38 393.81,-342.38 399.81,-348.38 399.81,-354.38 399.81,-354.38 399.81,-366.38 399.81,-366.38 399.81,-372.38 393.81,-378.38 387.81,-378.38 387.81,-378.38 349.81,-378.38 349.81,-378.38 343.81,-378.38 337.81,-372.38 337.81,-366.38 337.81,-366.38 337.81,-354.38 337.81,-354.38 337.81,-348.38 343.81,-342.38 349.81,-342.38"/>
<text text-anchor="middle" x="368.81" y="-356.68" font-family="Arial" font-size="14.00">preface</text>
</g>
<!-- topicref&#45;&gt;preface -->
<g id="edge11" class="edge">
<title>topicref&#45;&gt;preface</title>
<path fill="none" stroke="#1f78b4" d="M310.82,-268.75C321.98,-286.39 339.08,-313.39 351.82,-333.52"/>
<polygon fill="#a6cee3" stroke="#1f78b4" points="349.02,-335.65 357.33,-342.23 354.94,-331.91 349.02,-335.65"/>
</g>
<!-- chapter -->
<g id="node13" class="node">
<title>chapter</title>
<path fill="#1afabc" stroke="black" d="M311.52,-65.93C311.52,-65.93 349.52,-65.93 349.52,-65.93 355.52,-65.93 361.52,-71.93 361.52,-77.93 361.52,-77.93 361.52,-89.93 361.52,-89.93 361.52,-95.93 355.52,-101.93 349.52,-101.93 349.52,-101.93 311.52,-101.93 311.52,-101.93 305.52,-101.93 299.52,-95.93 299.52,-89.93 299.52,-89.93 299.52,-77.93 299.52,-77.93 299.52,-71.93 305.52,-65.93 311.52,-65.93"/>
<text text-anchor="middle" x="330.52" y="-80.23" font-family="Arial" font-size="14.00">chapter</text>
</g>
<!-- topicref&#45;&gt;chapter -->
<g id="edge12" class="edge">
<title>topicref&#45;&gt;chapter</title>
<path fill="none" stroke="#1f78b4" d="M302.75,-232.48C308.18,-203.42 318.87,-146.25 325.29,-111.93"/>
<polygon fill="#a6cee3" stroke="#1f78b4" points="328.73,-112.54 327.13,-102.07 321.85,-111.25 328.73,-112.54"/>
</g>
<!-- part -->
<g id="node14" class="node">
<title>part</title>
<path fill="#1afabc" stroke="black" d="M237.87,-95.75C237.87,-95.75 267.87,-95.75 267.87,-95.75 273.87,-95.75 279.87,-101.75 279.87,-107.75 279.87,-107.75 279.87,-119.75 279.87,-119.75 279.87,-125.75 273.87,-131.75 267.87,-131.75 267.87,-131.75 237.87,-131.75 237.87,-131.75 231.87,-131.75 225.87,-125.75 225.87,-119.75 225.87,-119.75 225.87,-107.75 225.87,-107.75 225.87,-101.75 231.87,-95.75 237.87,-95.75"/>
<text text-anchor="middle" x="252.87" y="-110.05" font-family="Arial" font-size="14.00">part</text>
</g>
<!-- topicref&#45;&gt;part -->
<g id="edge13" class="edge">
<title>topicref&#45;&gt;part</title>
<path fill="none" stroke="#1f78b4" d="M293.18,-232.46C285.3,-209.24 271.58,-168.83 262.36,-141.69"/>
<polygon fill="#a6cee3" stroke="#1f78b4" points="265.6,-140.35 259.07,-132.01 258.97,-142.6 265.6,-140.35"/>
</g>
<!-- appendix -->
<g id="node15" class="node">
<title>appendix</title>
<path fill="#1afabc" stroke="black" d="M75.32,-304.86C75.32,-304.86 122.32,-304.86 122.32,-304.86 128.32,-304.86 134.32,-310.86 134.32,-316.86 134.32,-316.86 134.32,-328.86 134.32,-328.86 134.32,-334.86 128.32,-340.86 122.32,-340.86 122.32,-340.86 75.32,-340.86 75.32,-340.86 69.32,-340.86 63.32,-334.86 63.32,-328.86 63.32,-328.86 63.32,-316.86 63.32,-316.86 63.32,-310.86 69.32,-304.86 75.32,-304.86"/>
<text text-anchor="middle" x="98.82" y="-319.16" font-family="Arial" font-size="14.00">appendix</text>
</g>
<!-- topicref&#45;&gt;appendix -->
<g id="edge14" class="edge">
<title>topicref&#45;&gt;appendix</title>
<path fill="none" stroke="#1f78b4" d="M268.46,-261.76C235.28,-273.71 182.22,-292.82 144.27,-306.49"/>
<polygon fill="#a6cee3" stroke="#1f78b4" points="142.71,-303.33 134.49,-310.01 145.08,-309.92 142.71,-303.33"/>
</g>
<!-- appendices -->
<g id="node16" class="node">
<title>appendices</title>
<path fill="#1afabc" stroke="black" d="M122.19,-227.03C122.19,-227.03 184.19,-227.03 184.19,-227.03 190.19,-227.03 196.19,-233.03 196.19,-239.03 196.19,-239.03 196.19,-251.03 196.19,-251.03 196.19,-257.03 190.19,-263.03 184.19,-263.03 184.19,-263.03 122.19,-263.03 122.19,-263.03 116.19,-263.03 110.19,-257.03 110.19,-251.03 110.19,-251.03 110.19,-239.03 110.19,-239.03 110.19,-233.03 116.19,-227.03 122.19,-227.03"/>
<text text-anchor="middle" x="153.19" y="-241.33" font-family="Arial" font-size="14.00">appendices</text>
</g>
<!-- topicref&#45;&gt;appendices -->
<g id="edge15" class="edge">
<title>topicref&#45;&gt;appendices</title>
<path fill="none" stroke="#1f78b4" d="M268.71,-249.46C250.66,-248.77 227.31,-247.87 206.34,-247.07"/>
<polygon fill="#a6cee3" stroke="#1f78b4" points="206.39,-243.57 196.27,-246.68 206.12,-250.56 206.39,-243.57"/>
</g>
<!-- notices -->
<g id="node17" class="node">
<title>notices</title>
<path fill="#1afabc" stroke="black" d="M149.88,-112.67C149.88,-112.67 184.88,-112.67 184.88,-112.67 190.88,-112.67 196.88,-118.67 196.88,-124.67 196.88,-124.67 196.88,-136.67 196.88,-136.67 196.88,-142.67 190.88,-148.67 184.88,-148.67 184.88,-148.67 149.88,-148.67 149.88,-148.67 143.88,-148.67 137.88,-142.67 137.88,-136.67 137.88,-136.67 137.88,-124.67 137.88,-124.67 137.88,-118.67 143.88,-112.67 149.88,-112.67"/>
<text text-anchor="middle" x="167.38" y="-126.97" font-family="Arial" font-size="14.00">notices</text>
</g>
<!-- topicref&#45;&gt;notices -->
<g id="edge16" class="edge">
<title>topicref&#45;&gt;notices</title>
<path fill="none" stroke="#1f78b4" d="M279.31,-232.41C256.83,-211.98 220.23,-178.71 195.04,-155.81"/>
<polygon fill="#a6cee3" stroke="#1f78b4" points="197.37,-153.19 187.62,-149.06 192.66,-158.37 197.37,-153.19"/>
</g>
<!-- amendments -->
<g id="node18" class="node">
<title>amendments</title>
<path fill="#1afabc" stroke="black" d="M18.11,-259.84C18.11,-259.84 90.11,-259.84 90.11,-259.84 96.11,-259.84 102.11,-265.84 102.11,-271.84 102.11,-271.84 102.11,-283.84 102.11,-283.84 102.11,-289.84 96.11,-295.84 90.11,-295.84 90.11,-295.84 18.11,-295.84 18.11,-295.84 12.11,-295.84 6.11,-289.84 6.11,-283.84 6.11,-283.84 6.11,-271.84 6.11,-271.84 6.11,-265.84 12.11,-259.84 18.11,-259.84"/>
<text text-anchor="middle" x="54.11" y="-274.14" font-family="Arial" font-size="14.00">amendments</text>
</g>
<!-- topicref&#45;&gt;amendments -->
<g id="edge17" class="edge">
<title>topicref&#45;&gt;amendments</title>
<path fill="none" stroke="#1f78b4" d="M268.79,-254.02C229.83,-258.35 161.65,-265.91 112.57,-271.36"/>
<polygon fill="#a6cee3" stroke="#1f78b4" points="111.96,-267.9 102.41,-272.48 112.73,-274.86 111.96,-267.9"/>
</g>
<!-- colophon -->
<g id="node19" class="node">
<title>colophon</title>
<path fill="#1afabc" stroke="black" d="M135.08,-37.47C135.08,-37.47 182.08,-37.47 182.08,-37.47 188.08,-37.47 194.08,-43.47 194.08,-49.47 194.08,-49.47 194.08,-61.47 194.08,-61.47 194.08,-67.47 188.08,-73.47 182.08,-73.47 182.08,-73.47 135.08,-73.47 135.08,-73.47 129.08,-73.47 123.08,-67.47 123.08,-61.47 123.08,-61.47 123.08,-49.47 123.08,-49.47 123.08,-43.47 129.08,-37.47 135.08,-37.47"/>
<text text-anchor="middle" x="158.58" y="-51.77" font-family="Arial" font-size="14.00">colophon</text>
</g>
<!-- topicref&#45;&gt;colophon -->
<g id="edge18" class="edge">
<title>topicref&#45;&gt;colophon</title>
<path fill="none" stroke="#1f78b4" d="M286.36,-232.62C261.44,-198.07 206.81,-122.35 177.71,-82"/>
<polygon fill="#a6cee3" stroke="#1f78b4" points="180.43,-79.79 171.74,-73.72 174.75,-83.88 180.43,-79.79"/>
</g>
<!-- booklists -->
<g id="node20" class="node">
<title>booklists</title>
<path fill="#1afabc" stroke="black" d="M214.08,-45.97C214.08,-45.97 259.08,-45.97 259.08,-45.97 265.08,-45.97 271.08,-51.97 271.08,-57.97 271.08,-57.97 271.08,-69.97 271.08,-69.97 271.08,-75.97 265.08,-81.97 259.08,-81.97 259.08,-81.97 214.08,-81.97 214.08,-81.97 208.08,-81.97 202.08,-75.97 202.08,-69.97 202.08,-69.97 202.08,-57.97 202.08,-57.97 202.08,-51.97 208.08,-45.97 214.08,-45.97"/>
<text text-anchor="middle" x="236.58" y="-60.27" font-family="Arial" font-size="14.00">booklists</text>
</g>
<!-- topicref&#45;&gt;booklists -->
<g id="edge19" class="edge">
<title>topicref&#45;&gt;booklists</title>
<path fill="none" stroke="#1f78b4" d="M293.22,-232.39C282.18,-199.55 258.88,-130.29 245.87,-91.6"/>
<polygon fill="#a6cee3" stroke="#1f78b4" points="249.15,-90.37 242.65,-82.01 242.52,-92.6 249.15,-90.37"/>
</g>
<!-- toc -->
<g id="node21" class="node">
<title>toc</title>
<path fill="#1afabc" stroke="black" d="M418.4,-223.98C418.4,-223.98 448.4,-223.98 448.4,-223.98 454.4,-223.98 460.4,-229.98 460.4,-235.98 460.4,-235.98 460.4,-247.98 460.4,-247.98 460.4,-253.98 454.4,-259.98 448.4,-259.98 448.4,-259.98 418.4,-259.98 418.4,-259.98 412.4,-259.98 406.4,-253.98 406.4,-247.98 406.4,-247.98 406.4,-235.98 406.4,-235.98 406.4,-229.98 412.4,-223.98 418.4,-223.98"/>
<text text-anchor="middle" x="433.4" y="-238.28" font-family="Arial" font-size="14.00">toc</text>
</g>
<!-- topicref&#45;&gt;toc -->
<g id="edge20" class="edge">
<title>topicref&#45;&gt;toc</title>
<path fill="none" stroke="#1f78b4" d="M330.1,-248.65C349.68,-247.38 375.15,-245.74 395.91,-244.4"/>
<polygon fill="#a6cee3" stroke="#1f78b4" points="396.22,-247.89 405.97,-243.75 395.77,-240.9 396.22,-247.89"/>
</g>
<!-- figurelist -->
<g id="node22" class="node">
<title>figurelist</title>
<path fill="#1afabc" stroke="black" d="M113.46,-349.9C113.46,-349.9 156.46,-349.9 156.46,-349.9 162.46,-349.9 168.46,-355.9 168.46,-361.9 168.46,-361.9 168.46,-373.9 168.46,-373.9 168.46,-379.9 162.46,-385.9 156.46,-385.9 156.46,-385.9 113.46,-385.9 113.46,-385.9 107.46,-385.9 101.46,-379.9 101.46,-373.9 101.46,-373.9 101.46,-361.9 101.46,-361.9 101.46,-355.9 107.46,-349.9 113.46,-349.9"/>
<text text-anchor="middle" x="134.96" y="-364.2" font-family="Arial" font-size="14.00">figurelist</text>
</g>
<!-- topicref&#45;&gt;figurelist -->
<g id="edge21" class="edge">
<title>topicref&#45;&gt;figurelist</title>
<path fill="none" stroke="#1f78b4" d="M274.03,-268.7C245.79,-288.84 199.99,-321.51 168.72,-343.81"/>
<polygon fill="#a6cee3" stroke="#1f78b4" points="166.42,-341.15 160.31,-349.81 170.49,-346.85 166.42,-341.15"/>
</g>
<!-- tablelist -->
<g id="node23" class="node">
<title>tablelist</title>
<path fill="#1afabc" stroke="black" d="M155.83,-295.01C155.83,-295.01 193.83,-295.01 193.83,-295.01 199.83,-295.01 205.83,-301.01 205.83,-307.01 205.83,-307.01 205.83,-319.01 205.83,-319.01 205.83,-325.01 199.83,-331.01 193.83,-331.01 193.83,-331.01 155.83,-331.01 155.83,-331.01 149.83,-331.01 143.83,-325.01 143.83,-319.01 143.83,-319.01 143.83,-307.01 143.83,-307.01 143.83,-301.01 149.83,-295.01 155.83,-295.01"/>
<text text-anchor="middle" x="174.83" y="-309.31" font-family="Arial" font-size="14.00">tablelist</text>
</g>
<!-- topicref&#45;&gt;tablelist -->
<g id="edge22" class="edge">
<title>topicref&#45;&gt;tablelist</title>
<path fill="none" stroke="#1f78b4" d="M268.57,-266.05C252.53,-274.09 232.7,-284.02 215.42,-292.68"/>
<polygon fill="#a6cee3" stroke="#1f78b4" points="213.49,-289.73 206.12,-297.34 216.63,-295.99 213.49,-289.73"/>
</g>
<!-- abbrevlist -->
<g id="node24" class="node">
<title>abbrevlist</title>
<path fill="#1afabc" stroke="black" d="M116.41,-157.71C116.41,-157.71 166.41,-157.71 166.41,-157.71 172.41,-157.71 178.41,-163.71 178.41,-169.71 178.41,-169.71 178.41,-181.71 178.41,-181.71 178.41,-187.71 172.41,-193.71 166.41,-193.71 166.41,-193.71 116.41,-193.71 116.41,-193.71 110.41,-193.71 104.41,-187.71 104.41,-181.71 104.41,-181.71 104.41,-169.71 104.41,-169.71 104.41,-163.71 110.41,-157.71 116.41,-157.71"/>
<text text-anchor="middle" x="141.41" y="-172.01" font-family="Arial" font-size="14.00">abbrevlist</text>
</g>
<!-- topicref&#45;&gt;abbrevlist -->
<g id="edge23" class="edge">
<title>topicref&#45;&gt;abbrevlist</title>
<path fill="none" stroke="#1f78b4" d="M268.52,-236.01C245.58,-225.12 213.86,-210.08 187.85,-197.74"/>
<polygon fill="#a6cee3" stroke="#1f78b4" points="189.08,-194.45 178.55,-193.33 186.08,-200.77 189.08,-194.45"/>
</g>
<!-- trademarklist -->
<g id="node25" class="node">
<title>trademarklist</title>
<path fill="#1afabc" stroke="black" d="M43.79,-82.51C43.79,-82.51 114.79,-82.51 114.79,-82.51 120.79,-82.51 126.79,-88.51 126.79,-94.51 126.79,-94.51 126.79,-106.51 126.79,-106.51 126.79,-112.51 120.79,-118.51 114.79,-118.51 114.79,-118.51 43.79,-118.51 43.79,-118.51 37.79,-118.51 31.79,-112.51 31.79,-106.51 31.79,-106.51 31.79,-94.51 31.79,-94.51 31.79,-88.51 37.79,-82.51 43.79,-82.51"/>
<text text-anchor="middle" x="79.29" y="-96.81" font-family="Arial" font-size="14.00">trademarklist</text>
</g>
<!-- topicref&#45;&gt;trademarklist -->
<g id="edge24" class="edge">
<title>topicref&#45;&gt;trademarklist</title>
<path fill="none" stroke="#1f78b4" d="M272.81,-232.52C233.15,-205.47 158.41,-154.49 114.32,-124.41"/>
<polygon fill="#a6cee3" stroke="#1f78b4" points="116.16,-121.43 105.93,-118.69 112.22,-127.21 116.16,-121.43"/>
</g>
<!-- bibliolist -->
<g id="node26" class="node">
<title>bibliolist</title>
<path fill="#1afabc" stroke="black" d="M363.27,-110.94C363.27,-110.94 404.27,-110.94 404.27,-110.94 410.27,-110.94 416.27,-116.94 416.27,-122.94 416.27,-122.94 416.27,-134.94 416.27,-134.94 416.27,-140.94 410.27,-146.94 404.27,-146.94 404.27,-146.94 363.27,-146.94 363.27,-146.94 357.27,-146.94 351.27,-140.94 351.27,-134.94 351.27,-134.94 351.27,-122.94 351.27,-122.94 351.27,-116.94 357.27,-110.94 363.27,-110.94"/>
<text text-anchor="middle" x="383.77" y="-125.24" font-family="Arial" font-size="14.00">bibliolist</text>
</g>
<!-- topicref&#45;&gt;bibliolist -->
<g id="edge25" class="edge">
<title>topicref&#45;&gt;bibliolist</title>
<path fill="none" stroke="#1f78b4" d="M311.99,-232.41C326.1,-212.07 349.07,-178.95 365.22,-155.67"/>
<polygon fill="#a6cee3" stroke="#1f78b4" points="368.22,-157.49 371.04,-147.28 362.47,-153.5 368.22,-157.49"/>
</g>
<!-- glossarylist -->
<g id="node27" class="node">
<title>glossarylist</title>
<path fill="#1afabc" stroke="black" d="M25.33,-187.59C25.33,-187.59 84.33,-187.59 84.33,-187.59 90.33,-187.59 96.33,-193.59 96.33,-199.59 96.33,-199.59 96.33,-211.59 96.33,-211.59 96.33,-217.59 90.33,-223.59 84.33,-223.59 84.33,-223.59 25.33,-223.59 25.33,-223.59 19.33,-223.59 13.33,-217.59 13.33,-211.59 13.33,-211.59 13.33,-199.59 13.33,-199.59 13.33,-193.59 19.33,-187.59 25.33,-187.59"/>
<text text-anchor="middle" x="54.83" y="-201.89" font-family="Arial" font-size="14.00">glossarylist</text>
</g>
<!-- topicref&#45;&gt;glossarylist -->
<g id="edge26" class="edge">
<title>topicref&#45;&gt;glossarylist</title>
<path fill="none" stroke="#1f78b4" d="M268.38,-244.93C227.71,-237.43 155.72,-224.17 106.68,-215.14"/>
<polygon fill="#a6cee3" stroke="#1f78b4" points="107.05,-211.65 96.58,-213.28 105.78,-218.53 107.05,-211.65"/>
</g>
<!-- indexlist -->
<g id="node28" class="node">
<title>indexlist</title>
<path fill="#1afabc" stroke="black" d="M436.31,-152.29C436.31,-152.29 477.31,-152.29 477.31,-152.29 483.31,-152.29 489.31,-158.29 489.31,-164.29 489.31,-164.29 489.31,-176.29 489.31,-176.29 489.31,-182.29 483.31,-188.29 477.31,-188.29 477.31,-188.29 436.31,-188.29 436.31,-188.29 430.31,-188.29 424.31,-182.29 424.31,-176.29 424.31,-176.29 424.31,-164.29 424.31,-164.29 424.31,-158.29 430.31,-152.29 436.31,-152.29"/>
<text text-anchor="middle" x="456.81" y="-166.59" font-family="Arial" font-size="14.00">indexlist</text>
</g>
<!-- topicref&#45;&gt;indexlist -->
<g id="edge27" class="edge">
<title>topicref&#45;&gt;indexlist</title>
<path fill="none" stroke="#1f78b4" d="M330.09,-234.95C354.34,-222.57 388.43,-205.18 415.15,-191.55"/>
<polygon fill="#a6cee3" stroke="#1f78b4" points="416.94,-194.56 424.26,-186.9 413.76,-188.33 416.94,-194.56"/>
</g>
<!-- booklist -->
<g id="node29" class="node">
<title>booklist</title>
<path fill="#1afabc" stroke="black" d="M188.47,-353.84C188.47,-353.84 226.47,-353.84 226.47,-353.84 232.47,-353.84 238.47,-359.84 238.47,-365.84 238.47,-365.84 238.47,-377.84 238.47,-377.84 238.47,-383.84 232.47,-389.84 226.47,-389.84 226.47,-389.84 188.47,-389.84 188.47,-389.84 182.47,-389.84 176.47,-383.84 176.47,-377.84 176.47,-377.84 176.47,-365.84 176.47,-365.84 176.47,-359.84 182.47,-353.84 188.47,-353.84"/>
<text text-anchor="middle" x="207.47" y="-368.14" font-family="Arial" font-size="14.00">booklist</text>
</g>
<!-- topicref&#45;&gt;booklist -->
<g id="edge28" class="edge">
<title>topicref&#45;&gt;booklist</title>
<path fill="none" stroke="#1f78b4" d="M285.6,-268.78C270.17,-289.13 245.01,-322.32 227.42,-345.52"/>
<polygon fill="#a6cee3" stroke="#1f78b4" points="224.57,-343.49 221.32,-353.57 230.15,-347.71 224.57,-343.49"/>
</g>
<!-- publisherinformation -->
<g id="node31" class="node">
<title>publisherinformation</title>
<path fill="#1afabc" stroke="black" d="M856.41,-318.4C856.41,-318.4 971.41,-318.4 971.41,-318.4 977.41,-318.4 983.41,-324.4 983.41,-330.4 983.41,-330.4 983.41,-342.4 983.41,-342.4 983.41,-348.4 977.41,-354.4 971.41,-354.4 971.41,-354.4 856.41,-354.4 856.41,-354.4 850.41,-354.4 844.41,-348.4 844.41,-342.4 844.41,-342.4 844.41,-330.4 844.41,-330.4 844.41,-324.4 850.41,-318.4 856.41,-318.4"/>
<text text-anchor="middle" x="913.91" y="-332.7" font-family="Arial" font-size="14.00">publisherinformation</text>
</g>
<!-- publisher&#45;&gt;publisherinformation -->
<g id="edge30" class="edge">
<title>publisher&#45;&gt;publisherinformation</title>
<path fill="none" stroke="#1f78b4" d="M802.49,-439.16C824.87,-418.51 861.63,-384.61 886.76,-361.44"/>
<polygon fill="#a6cee3" stroke="#1f78b4" points="889.18,-363.97 894.16,-354.62 884.43,-358.82 889.18,-363.97"/>
</g>
<!-- person -->
<g id="node33" class="node">
<title>person</title>
<path fill="#1afabc" stroke="black" d="M874.72,-623.65C874.72,-623.65 908.72,-623.65 908.72,-623.65 914.72,-623.65 920.72,-629.65 920.72,-635.65 920.72,-635.65 920.72,-647.65 920.72,-647.65 920.72,-653.65 914.72,-659.65 908.72,-659.65 908.72,-659.65 874.72,-659.65 874.72,-659.65 868.72,-659.65 862.72,-653.65 862.72,-647.65 862.72,-647.65 862.72,-635.65 862.72,-635.65 862.72,-629.65 868.72,-623.65 874.72,-623.65"/>
<text text-anchor="middle" x="891.72" y="-637.95" font-family="Arial" font-size="14.00">person</text>
</g>
<!-- data&#45;&gt;person -->
<g id="edge32" class="edge">
<title>data&#45;&gt;person</title>
<path fill="none" stroke="#1f78b4" d="M948.63,-721.1C937.96,-706.2 922.79,-685.02 910.79,-668.27"/>
<polygon fill="#a6cee3" stroke="#1f78b4" points="913.52,-666.06 904.85,-659.97 907.83,-670.14 913.52,-666.06"/>
</g>
<!-- organization -->
<g id="node34" class="node">
<title>organization</title>
<path fill="#1afabc" stroke="black" d="M780.56,-782.23C780.56,-782.23 846.56,-782.23 846.56,-782.23 852.56,-782.23 858.56,-788.23 858.56,-794.23 858.56,-794.23 858.56,-806.23 858.56,-806.23 858.56,-812.23 852.56,-818.23 846.56,-818.23 846.56,-818.23 780.56,-818.23 780.56,-818.23 774.56,-818.23 768.56,-812.23 768.56,-806.23 768.56,-806.23 768.56,-794.23 768.56,-794.23 768.56,-788.23 774.56,-782.23 780.56,-782.23"/>
<text text-anchor="middle" x="813.56" y="-796.53" font-family="Arial" font-size="14.00">organization</text>
</g>
<!-- data&#45;&gt;organization -->
<g id="edge33" class="edge">
<title>data&#45;&gt;organization</title>
<path fill="none" stroke="#1f78b4" d="M934.62,-750.64C915.74,-758.37 889.95,-768.93 867.03,-778.32"/>
<polygon fill="#a6cee3" stroke="#1f78b4" points="865.68,-775.1 857.75,-782.13 868.33,-781.57 865.68,-775.1"/>
</g>
<!-- bookchangehistory -->
<g id="node35" class="node">
<title>bookchangehistory</title>
<path fill="#1afabc" stroke="black" d="M1093.85,-581.86C1093.85,-581.86 1199.85,-581.86 1199.85,-581.86 1205.85,-581.86 1211.85,-587.86 1211.85,-593.86 1211.85,-593.86 1211.85,-605.86 1211.85,-605.86 1211.85,-611.86 1205.85,-617.86 1199.85,-617.86 1199.85,-617.86 1093.85,-617.86 1093.85,-617.86 1087.85,-617.86 1081.85,-611.86 1081.85,-605.86 1081.85,-605.86 1081.85,-593.86 1081.85,-593.86 1081.85,-587.86 1087.85,-581.86 1093.85,-581.86"/>
<text text-anchor="middle" x="1146.85" y="-596.16" font-family="Arial" font-size="14.00">bookchangehistory</text>
</g>
<!-- data&#45;&gt;bookchangehistory -->
<g id="edge34" class="edge">
<title>data&#45;&gt;bookchangehistory</title>
<path fill="none" stroke="#1f78b4" d="M986,-721.25C1018.93,-696.4 1077.93,-651.88 1114.59,-624.21"/>
<polygon fill="#a6cee3" stroke="#1f78b4" points="1117.08,-626.72 1122.95,-617.9 1112.86,-621.13 1117.08,-626.72"/>
</g>
<!-- bookid -->
<g id="node36" class="node">
<title>bookid</title>
<path fill="#1afabc" stroke="black" d="M904.7,-839.02C904.7,-839.02 936.7,-839.02 936.7,-839.02 942.7,-839.02 948.7,-845.02 948.7,-851.02 948.7,-851.02 948.7,-863.02 948.7,-863.02 948.7,-869.02 942.7,-875.02 936.7,-875.02 936.7,-875.02 904.7,-875.02 904.7,-875.02 898.7,-875.02 892.7,-869.02 892.7,-863.02 892.7,-863.02 892.7,-851.02 892.7,-851.02 892.7,-845.02 898.7,-839.02 904.7,-839.02"/>
<text text-anchor="middle" x="920.7" y="-853.32" font-family="Arial" font-size="14.00">bookid</text>
</g>
<!-- data&#45;&gt;bookid -->
<g id="edge35" class="edge">
<title>data&#45;&gt;bookid</title>
<path fill="none" stroke="#1f78b4" d="M955.48,-757.61C948.8,-776.7 938.19,-807.03 930.44,-829.18"/>
<polygon fill="#a6cee3" stroke="#1f78b4" points="927.11,-828.11 927.11,-838.7 933.72,-830.42 927.11,-828.11"/>
</g>
<!-- printlocation -->
<g id="node37" class="node">
<title>printlocation</title>
<path fill="#1afabc" stroke="black" d="M1122.4,-626.87C1122.4,-626.87 1187.4,-626.87 1187.4,-626.87 1193.4,-626.87 1199.4,-632.87 1199.4,-638.87 1199.4,-638.87 1199.4,-650.87 1199.4,-650.87 1199.4,-656.87 1193.4,-662.87 1187.4,-662.87 1187.4,-662.87 1122.4,-662.87 1122.4,-662.87 1116.4,-662.87 1110.4,-656.87 1110.4,-650.87 1110.4,-650.87 1110.4,-638.87 1110.4,-638.87 1110.4,-632.87 1116.4,-626.87 1122.4,-626.87"/>
<text text-anchor="middle" x="1154.9" y="-641.17" font-family="Arial" font-size="14.00">printlocation</text>
</g>
<!-- data&#45;&gt;printlocation -->
<g id="edge36" class="edge">
<title>data&#45;&gt;printlocation</title>
<path fill="none" stroke="#1f78b4" d="M989.07,-726.14C1020.12,-710.93 1071.38,-685.8 1108.7,-667.51"/>
<polygon fill="#a6cee3" stroke="#1f78b4" points="1110.43,-670.56 1117.87,-663.02 1107.35,-664.28 1110.43,-670.56"/>
</g>
<!-- published -->
<g id="node38" class="node">
<title>published</title>
<path fill="#1afabc" stroke="black" d="M1090.37,-672.19C1090.37,-672.19 1140.37,-672.19 1140.37,-672.19 1146.37,-672.19 1152.37,-678.19 1152.37,-684.19 1152.37,-684.19 1152.37,-696.19 1152.37,-696.19 1152.37,-702.19 1146.37,-708.19 1140.37,-708.19 1140.37,-708.19 1090.37,-708.19 1090.37,-708.19 1084.37,-708.19 1078.37,-702.19 1078.37,-696.19 1078.37,-696.19 1078.37,-684.19 1078.37,-684.19 1078.37,-678.19 1084.37,-672.19 1090.37,-672.19"/>
<text text-anchor="middle" x="1115.37" y="-686.49" font-family="Arial" font-size="14.00">published</text>
</g>
<!-- data&#45;&gt;published -->
<g id="edge37" class="edge">
<title>data&#45;&gt;published</title>
<path fill="none" stroke="#1f78b4" d="M988.91,-730.8C1010.9,-723.74 1042.41,-713.62 1068.48,-705.24"/>
<polygon fill="#a6cee3" stroke="#1f78b4" points="1069.72,-708.52 1078.17,-702.13 1067.58,-701.86 1069.72,-708.52"/>
</g>
<!-- publishtype -->
<g id="node39" class="node">
<title>publishtype</title>
<path fill="#1afabc" stroke="black" d="M1065.79,-915.14C1065.79,-915.14 1126.79,-915.14 1126.79,-915.14 1132.79,-915.14 1138.79,-921.14 1138.79,-927.14 1138.79,-927.14 1138.79,-939.14 1138.79,-939.14 1138.79,-945.14 1132.79,-951.14 1126.79,-951.14 1126.79,-951.14 1065.79,-951.14 1065.79,-951.14 1059.79,-951.14 1053.79,-945.14 1053.79,-939.14 1053.79,-939.14 1053.79,-927.14 1053.79,-927.14 1053.79,-921.14 1059.79,-915.14 1065.79,-915.14"/>
<text text-anchor="middle" x="1096.29" y="-929.44" font-family="Arial" font-size="14.00">publishtype</text>
</g>
<!-- data&#45;&gt;publishtype -->
<g id="edge38" class="edge">
<title>data&#45;&gt;publishtype</title>
<path fill="none" stroke="#1f78b4" d="M974.46,-757.72C998.35,-792.11 1050.19,-866.75 1077.92,-906.68"/>
<polygon fill="#a6cee3" stroke="#1f78b4" points="1075.19,-908.89 1083.77,-915.11 1080.94,-904.9 1075.19,-908.89"/>
</g>
<!-- reviewed -->
<g id="node40" class="node">
<title>reviewed</title>
<path fill="#1afabc" stroke="black" d="M986.78,-936.17C986.78,-936.17 1033.78,-936.17 1033.78,-936.17 1039.78,-936.17 1045.78,-942.17 1045.78,-948.17 1045.78,-948.17 1045.78,-960.17 1045.78,-960.17 1045.78,-966.17 1039.78,-972.17 1033.78,-972.17 1033.78,-972.17 986.78,-972.17 986.78,-972.17 980.78,-972.17 974.78,-966.17 974.78,-960.17 974.78,-960.17 974.78,-948.17 974.78,-948.17 974.78,-942.17 980.78,-936.17 986.78,-936.17"/>
<text text-anchor="middle" x="1010.28" y="-950.47" font-family="Arial" font-size="14.00">reviewed</text>
</g>
<!-- data&#45;&gt;reviewed -->
<g id="edge39" class="edge">
<title>data&#45;&gt;reviewed</title>
<path fill="none" stroke="#1f78b4" d="M965.95,-757.8C974.42,-795.35 993.83,-881.31 1003.92,-926.01"/>
<polygon fill="#a6cee3" stroke="#1f78b4" points="1000.54,-926.93 1006.16,-935.91 1007.37,-925.39 1000.54,-926.93"/>
</g>
<!-- edited -->
<g id="node41" class="node">
<title>edited</title>
<path fill="#1afabc" stroke="black" d="M1059.81,-627.15C1059.81,-627.15 1089.81,-627.15 1089.81,-627.15 1095.81,-627.15 1101.81,-633.15 1101.81,-639.15 1101.81,-639.15 1101.81,-651.15 1101.81,-651.15 1101.81,-657.15 1095.81,-663.15 1089.81,-663.15 1089.81,-663.15 1059.81,-663.15 1059.81,-663.15 1053.81,-663.15 1047.81,-657.15 1047.81,-651.15 1047.81,-651.15 1047.81,-639.15 1047.81,-639.15 1047.81,-633.15 1053.81,-627.15 1059.81,-627.15"/>
<text text-anchor="middle" x="1074.81" y="-641.45" font-family="Arial" font-size="14.00">edited</text>
</g>
<!-- data&#45;&gt;edited -->
<g id="edge40" class="edge">
<title>data&#45;&gt;edited</title>
<path fill="none" stroke="#1f78b4" d="M983.6,-721.31C1001.11,-706.69 1025.88,-686.01 1045.19,-669.88"/>
<polygon fill="#a6cee3" stroke="#1f78b4" points="1047.66,-672.38 1053.09,-663.28 1043.17,-667.01 1047.66,-672.38"/>
</g>
<!-- tested -->
<g id="node42" class="node">
<title>tested</title>
<path fill="#1afabc" stroke="black" d="M1112.53,-732.74C1112.53,-732.74 1142.53,-732.74 1142.53,-732.74 1148.53,-732.74 1154.53,-738.74 1154.53,-744.74 1154.53,-744.74 1154.53,-756.74 1154.53,-756.74 1154.53,-762.74 1148.53,-768.74 1142.53,-768.74 1142.53,-768.74 1112.53,-768.74 1112.53,-768.74 1106.53,-768.74 1100.53,-762.74 1100.53,-756.74 1100.53,-756.74 1100.53,-744.74 1100.53,-744.74 1100.53,-738.74 1106.53,-732.74 1112.53,-732.74"/>
<text text-anchor="middle" x="1127.53" y="-747.04" font-family="Arial" font-size="14.00">tested</text>
</g>
<!-- data&#45;&gt;tested -->
<g id="edge41" class="edge">
<title>data&#45;&gt;tested</title>
<path fill="none" stroke="#1f78b4" d="M989.18,-741.36C1016.73,-743.22 1059.42,-746.12 1090.09,-748.2"/>
<polygon fill="#a6cee3" stroke="#1f78b4" points="1090.18,-751.71 1100.4,-748.9 1090.66,-744.73 1090.18,-751.71"/>
</g>
<!-- approved -->
<g id="node43" class="node">
<title>approved</title>
<path fill="#1afabc" stroke="black" d="M937.77,-886.73C937.77,-886.73 986.77,-886.73 986.77,-886.73 992.77,-886.73 998.77,-892.73 998.77,-898.73 998.77,-898.73 998.77,-910.73 998.77,-910.73 998.77,-916.73 992.77,-922.73 986.77,-922.73 986.77,-922.73 937.77,-922.73 937.77,-922.73 931.77,-922.73 925.77,-916.73 925.77,-910.73 925.77,-910.73 925.77,-898.73 925.77,-898.73 925.77,-892.73 931.77,-886.73 937.77,-886.73"/>
<text text-anchor="middle" x="962.27" y="-901.03" font-family="Arial" font-size="14.00">approved</text>
</g>
<!-- data&#45;&gt;approved -->
<g id="edge42" class="edge">
<title>data&#45;&gt;approved</title>
<path fill="none" stroke="#1f78b4" d="M961.86,-757.81C961.94,-786.55 962.1,-842.45 962.19,-876.4"/>
<polygon fill="#a6cee3" stroke="#1f78b4" points="958.69,-876.6 962.22,-886.59 965.69,-876.58 958.69,-876.6"/>
</g>
<!-- bookevent -->
<g id="node44" class="node">
<title>bookevent</title>
<path fill="#1afabc" stroke="black" d="M1075.09,-787.69C1075.09,-787.69 1130.09,-787.69 1130.09,-787.69 1136.09,-787.69 1142.09,-793.69 1142.09,-799.69 1142.09,-799.69 1142.09,-811.69 1142.09,-811.69 1142.09,-817.69 1136.09,-823.69 1130.09,-823.69 1130.09,-823.69 1075.09,-823.69 1075.09,-823.69 1069.09,-823.69 1063.09,-817.69 1063.09,-811.69 1063.09,-811.69 1063.09,-799.69 1063.09,-799.69 1063.09,-793.69 1069.09,-787.69 1075.09,-787.69"/>
<text text-anchor="middle" x="1102.59" y="-801.99" font-family="Arial" font-size="14.00">bookevent</text>
</g>
<!-- data&#45;&gt;bookevent -->
<g id="edge43" class="edge">
<title>data&#45;&gt;bookevent</title>
<path fill="none" stroke="#1f78b4" d="M988.96,-752.26C1007.62,-761.04 1032.91,-772.93 1054.9,-783.27"/>
<polygon fill="#a6cee3" stroke="#1f78b4" points="1053.55,-786.5 1064.09,-787.59 1056.53,-780.17 1053.55,-786.5"/>
</g>
<!-- bookeventtype -->
<g id="node45" class="node">
<title>bookeventtype</title>
<path fill="#1afabc" stroke="black" d="M825.73,-924.4C825.73,-924.4 905.73,-924.4 905.73,-924.4 911.73,-924.4 917.73,-930.4 917.73,-936.4 917.73,-936.4 917.73,-948.4 917.73,-948.4 917.73,-954.4 911.73,-960.4 905.73,-960.4 905.73,-960.4 825.73,-960.4 825.73,-960.4 819.73,-960.4 813.73,-954.4 813.73,-948.4 813.73,-948.4 813.73,-936.4 813.73,-936.4 813.73,-930.4 819.73,-924.4 825.73,-924.4"/>
<text text-anchor="middle" x="865.73" y="-938.7" font-family="Arial" font-size="14.00">bookeventtype</text>
</g>
<!-- data&#45;&gt;bookeventtype -->
<g id="edge44" class="edge">
<title>data&#45;&gt;bookeventtype</title>
<path fill="none" stroke="#1f78b4" d="M953.29,-757.51C936.41,-793.14 898.67,-872.83 878.7,-915"/>
<polygon fill="#a6cee3" stroke="#1f78b4" points="875.49,-913.6 874.37,-924.14 881.82,-916.6 875.49,-913.6"/>
</g>
<!-- bookpartno -->
<g id="node46" class="node">
<title>bookpartno</title>
<path fill="#1afabc" stroke="black" d="M1167.45,-780.08C1167.45,-780.08 1227.45,-780.08 1227.45,-780.08 1233.45,-780.08 1239.45,-786.08 1239.45,-792.08 1239.45,-792.08 1239.45,-804.08 1239.45,-804.08 1239.45,-810.08 1233.45,-816.08 1227.45,-816.08 1227.45,-816.08 1167.45,-816.08 1167.45,-816.08 1161.45,-816.08 1155.45,-810.08 1155.45,-804.08 1155.45,-804.08 1155.45,-792.08 1155.45,-792.08 1155.45,-786.08 1161.45,-780.08 1167.45,-780.08"/>
<text text-anchor="middle" x="1197.45" y="-794.38" font-family="Arial" font-size="14.00">bookpartno</text>
</g>
<!-- data&#45;&gt;bookpartno -->
<g id="edge45" class="edge">
<title>data&#45;&gt;bookpartno</title>
<path fill="none" stroke="#1f78b4" d="M988.84,-746.22C1026.88,-755.68 1096.94,-773.09 1145.3,-785.12"/>
<polygon fill="#a6cee3" stroke="#1f78b4" points="1144.73,-788.58 1155.28,-787.6 1146.42,-781.79 1144.73,-788.58"/>
</g>
<!-- edition -->
<g id="node47" class="node">
<title>edition</title>
<path fill="#1afabc" stroke="black" d="M983.4,-841.06C983.4,-841.06 1015.4,-841.06 1015.4,-841.06 1021.4,-841.06 1027.4,-847.06 1027.4,-853.06 1027.4,-853.06 1027.4,-865.06 1027.4,-865.06 1027.4,-871.06 1021.4,-877.06 1015.4,-877.06 1015.4,-877.06 983.4,-877.06 983.4,-877.06 977.4,-877.06 971.4,-871.06 971.4,-865.06 971.4,-865.06 971.4,-853.06 971.4,-853.06 971.4,-847.06 977.4,-841.06 983.4,-841.06"/>
<text text-anchor="middle" x="999.4" y="-855.36" font-family="Arial" font-size="14.00">edition</text>
</g>
<!-- data&#45;&gt;edition -->
<g id="edge46" class="edge">
<title>data&#45;&gt;edition</title>
<path fill="none" stroke="#1f78b4" d="M967.52,-757.66C973.65,-777.15 983.46,-808.35 990.58,-831"/>
<polygon fill="#a6cee3" stroke="#1f78b4" points="987.3,-832.24 993.64,-840.73 993.98,-830.14 987.3,-832.24"/>
</g>
<!-- isbn -->
<g id="node48" class="node">
<title>isbn</title>
<path fill="#1afabc" stroke="black" d="M940.79,-597.62C940.79,-597.62 970.79,-597.62 970.79,-597.62 976.79,-597.62 982.79,-603.62 982.79,-609.62 982.79,-609.62 982.79,-621.62 982.79,-621.62 982.79,-627.62 976.79,-633.62 970.79,-633.62 970.79,-633.62 940.79,-633.62 940.79,-633.62 934.79,-633.62 928.79,-627.62 928.79,-621.62 928.79,-621.62 928.79,-609.62 928.79,-609.62 928.79,-603.62 934.79,-597.62 940.79,-597.62"/>
<text text-anchor="middle" x="955.79" y="-611.92" font-family="Arial" font-size="14.00">isbn</text>
</g>
<!-- data&#45;&gt;isbn -->
<g id="edge47" class="edge">
<title>data&#45;&gt;isbn</title>
<path fill="none" stroke="#1f78b4" d="M960.94,-721.49C959.95,-701.12 958.32,-667.69 957.16,-643.85"/>
<polygon fill="#a6cee3" stroke="#1f78b4" points="960.65,-643.47 956.66,-633.65 953.65,-643.81 960.65,-643.47"/>
</g>
<!-- booknumber -->
<g id="node49" class="node">
<title>booknumber</title>
<path fill="#1afabc" stroke="black" d="M1176.75,-735.04C1176.75,-735.04 1244.75,-735.04 1244.75,-735.04 1250.75,-735.04 1256.75,-741.04 1256.75,-747.04 1256.75,-747.04 1256.75,-759.04 1256.75,-759.04 1256.75,-765.04 1250.75,-771.04 1244.75,-771.04 1244.75,-771.04 1176.75,-771.04 1176.75,-771.04 1170.75,-771.04 1164.75,-765.04 1164.75,-759.04 1164.75,-759.04 1164.75,-747.04 1164.75,-747.04 1164.75,-741.04 1170.75,-735.04 1176.75,-735.04"/>
<text text-anchor="middle" x="1210.75" y="-749.34" font-family="Arial" font-size="14.00">booknumber</text>
</g>
<!-- data&#45;&gt;booknumber -->
<g id="edge48" class="edge">
<title>data&#45;&gt;booknumber</title>
<path fill="none" stroke="#1f78b4" d="M988.93,-740.98C1028.5,-743.13 1102.99,-747.18 1154.67,-749.99"/>
<polygon fill="#a6cee3" stroke="#1f78b4" points="1154.51,-753.49 1164.69,-750.53 1154.89,-746.5 1154.51,-753.49"/>
</g>
<!-- volume -->
<g id="node50" class="node">
<title>volume</title>
<path fill="#1afabc" stroke="black" d="M835.66,-828.63C835.66,-828.63 872.66,-828.63 872.66,-828.63 878.66,-828.63 884.66,-834.63 884.66,-840.63 884.66,-840.63 884.66,-852.63 884.66,-852.63 884.66,-858.63 878.66,-864.63 872.66,-864.63 872.66,-864.63 835.66,-864.63 835.66,-864.63 829.66,-864.63 823.66,-858.63 823.66,-852.63 823.66,-852.63 823.66,-840.63 823.66,-840.63 823.66,-834.63 829.66,-828.63 835.66,-828.63"/>
<text text-anchor="middle" x="854.16" y="-842.93" font-family="Arial" font-size="14.00">volume</text>
</g>
<!-- data&#45;&gt;volume -->
<g id="edge49" class="edge">
<title>data&#45;&gt;volume</title>
<path fill="none" stroke="#1f78b4" d="M943.55,-757.67C926,-775.14 899.31,-801.7 879.66,-821.25"/>
<polygon fill="#a6cee3" stroke="#1f78b4" points="877.13,-818.83 872.51,-828.36 882.07,-823.79 877.13,-818.83"/>
</g>
<!-- maintainer -->
<g id="node51" class="node">
<title>maintainer</title>
<path fill="#1afabc" stroke="black" d="M1131.13,-870.12C1131.13,-870.12 1187.13,-870.12 1187.13,-870.12 1193.13,-870.12 1199.13,-876.12 1199.13,-882.12 1199.13,-882.12 1199.13,-894.12 1199.13,-894.12 1199.13,-900.12 1193.13,-906.12 1187.13,-906.12 1187.13,-906.12 1131.13,-906.12 1131.13,-906.12 1125.13,-906.12 1119.13,-900.12 1119.13,-894.12 1119.13,-894.12 1119.13,-882.12 1119.13,-882.12 1119.13,-876.12 1125.13,-870.12 1131.13,-870.12"/>
<text text-anchor="middle" x="1159.13" y="-884.42" font-family="Arial" font-size="14.00">maintainer</text>
</g>
<!-- data&#45;&gt;maintainer -->
<g id="edge50" class="edge">
<title>data&#45;&gt;maintainer</title>
<path fill="none" stroke="#1f78b4" d="M986.01,-757.72C1021.46,-784.43 1087.58,-834.23 1127.05,-863.95"/>
<polygon fill="#a6cee3" stroke="#1f78b4" points="1124.95,-866.76 1135.04,-869.98 1129.16,-861.16 1124.95,-866.76"/>
</g>
<!-- bookrights -->
<g id="node52" class="node">
<title>bookrights</title>
<path fill="#1afabc" stroke="black" d="M1162.19,-825.09C1162.19,-825.09 1217.19,-825.09 1217.19,-825.09 1223.19,-825.09 1229.19,-831.09 1229.19,-837.09 1229.19,-837.09 1229.19,-849.09 1229.19,-849.09 1229.19,-855.09 1223.19,-861.09 1217.19,-861.09 1217.19,-861.09 1162.19,-861.09 1162.19,-861.09 1156.19,-861.09 1150.19,-855.09 1150.19,-849.09 1150.19,-849.09 1150.19,-837.09 1150.19,-837.09 1150.19,-831.09 1156.19,-825.09 1162.19,-825.09"/>
<text text-anchor="middle" x="1189.69" y="-839.39" font-family="Arial" font-size="14.00">bookrights</text>
</g>
<!-- data&#45;&gt;bookrights -->
<g id="edge51" class="edge">
<title>data&#45;&gt;bookrights</title>
<path fill="none" stroke="#1f78b4" d="M988.85,-751.79C1026.24,-768.79 1094.37,-799.76 1140.81,-820.87"/>
<polygon fill="#a6cee3" stroke="#1f78b4" points="1139.53,-824.14 1150.08,-825.09 1142.43,-817.76 1139.53,-824.14"/>
</g>
<!-- copyrfirst -->
<g id="node53" class="node">
<title>copyrfirst</title>
<path fill="#1afabc" stroke="black" d="M1048.64,-862.61C1048.64,-862.61 1095.64,-862.61 1095.64,-862.61 1101.64,-862.61 1107.64,-868.61 1107.64,-874.61 1107.64,-874.61 1107.64,-886.61 1107.64,-886.61 1107.64,-892.61 1101.64,-898.61 1095.64,-898.61 1095.64,-898.61 1048.64,-898.61 1048.64,-898.61 1042.64,-898.61 1036.64,-892.61 1036.64,-886.61 1036.64,-886.61 1036.64,-874.61 1036.64,-874.61 1036.64,-868.61 1042.64,-862.61 1048.64,-862.61"/>
<text text-anchor="middle" x="1072.14" y="-876.91" font-family="Arial" font-size="14.00">copyrfirst</text>
</g>
<!-- data&#45;&gt;copyrfirst -->
<g id="edge52" class="edge">
<title>data&#45;&gt;copyrfirst</title>
<path fill="none" stroke="#1f78b4" d="M976.01,-757.66C995.21,-782.21 1029.57,-826.17 1051.59,-854.33"/>
<polygon fill="#a6cee3" stroke="#1f78b4" points="1049.08,-856.8 1057.99,-862.52 1054.59,-852.49 1049.08,-856.8"/>
</g>
<!-- copyrlast -->
<g id="node54" class="node">
<title>copyrlast</title>
<path fill="#1afabc" stroke="black" d="M808.64,-710.56C808.64,-710.56 855.64,-710.56 855.64,-710.56 861.64,-710.56 867.64,-716.56 867.64,-722.56 867.64,-722.56 867.64,-734.56 867.64,-734.56 867.64,-740.56 861.64,-746.56 855.64,-746.56 855.64,-746.56 808.64,-746.56 808.64,-746.56 802.64,-746.56 796.64,-740.56 796.64,-734.56 796.64,-734.56 796.64,-722.56 796.64,-722.56 796.64,-716.56 802.64,-710.56 808.64,-710.56"/>
<text text-anchor="middle" x="832.14" y="-724.86" font-family="Arial" font-size="14.00">copyrlast</text>
</g>
<!-- data&#45;&gt;copyrlast -->
<g id="edge53" class="edge">
<title>data&#45;&gt;copyrlast</title>
<path fill="none" stroke="#1f78b4" d="M934.63,-737.21C918.14,-735.81 896.67,-734 877.64,-732.4"/>
<polygon fill="#a6cee3" stroke="#1f78b4" points="877.92,-728.91 867.67,-731.56 877.34,-735.88 877.92,-728.91"/>
</g>
<!-- bookowner -->
<g id="node55" class="node">
<title>bookowner</title>
<path fill="#1afabc" stroke="black" d="M1002.81,-569.1C1002.81,-569.1 1061.81,-569.1 1061.81,-569.1 1067.81,-569.1 1073.81,-575.1 1073.81,-581.1 1073.81,-581.1 1073.81,-593.1 1073.81,-593.1 1073.81,-599.1 1067.81,-605.1 1061.81,-605.1 1061.81,-605.1 1002.81,-605.1 1002.81,-605.1 996.81,-605.1 990.81,-599.1 990.81,-593.1 990.81,-593.1 990.81,-581.1 990.81,-581.1 990.81,-575.1 996.81,-569.1 1002.81,-569.1"/>
<text text-anchor="middle" x="1032.31" y="-583.4" font-family="Arial" font-size="14.00">bookowner</text>
</g>
<!-- data&#45;&gt;bookowner -->
<g id="edge54" class="edge">
<title>data&#45;&gt;bookowner</title>
<path fill="none" stroke="#1f78b4" d="M970.18,-721.42C982.42,-694.95 1005.32,-645.46 1019.63,-614.5"/>
<polygon fill="#a6cee3" stroke="#1f78b4" points="1022.94,-615.7 1023.96,-605.16 1016.58,-612.76 1022.94,-615.7"/>
</g>
<!-- bookrestriction -->
<g id="node56" class="node">
<title>bookrestriction</title>
<path fill="#1afabc" stroke="black" d="M1172.55,-687.71C1172.55,-687.71 1252.55,-687.71 1252.55,-687.71 1258.55,-687.71 1264.55,-693.71 1264.55,-699.71 1264.55,-699.71 1264.55,-711.71 1264.55,-711.71 1264.55,-717.71 1258.55,-723.71 1252.55,-723.71 1252.55,-723.71 1172.55,-723.71 1172.55,-723.71 1166.55,-723.71 1160.55,-717.71 1160.55,-711.71 1160.55,-711.71 1160.55,-699.71 1160.55,-699.71 1160.55,-693.71 1166.55,-687.71 1172.55,-687.71"/>
<text text-anchor="middle" x="1212.55" y="-702.01" font-family="Arial" font-size="14.00">bookrestriction</text>
</g>
<!-- data&#45;&gt;bookrestriction -->
<g id="edge55" class="edge">
<title>data&#45;&gt;bookrestriction</title>
<path fill="none" stroke="#1f78b4" d="M989.12,-735.82C1027.56,-730.64 1098.68,-721.06 1150.38,-714.09"/>
<polygon fill="#a6cee3" stroke="#1f78b4" points="1151.01,-717.54 1160.45,-712.73 1150.07,-710.6 1151.01,-717.54"/>
</g>
<!-- summary -->
<g id="node58" class="node">
<title>summary</title>
<path fill="#1afabc" stroke="black" d="M237.7,-758.46C237.7,-758.46 287.7,-758.46 287.7,-758.46 293.7,-758.46 299.7,-764.46 299.7,-770.46 299.7,-770.46 299.7,-782.46 299.7,-782.46 299.7,-788.46 293.7,-794.46 287.7,-794.46 287.7,-794.46 237.7,-794.46 237.7,-794.46 231.7,-794.46 225.7,-788.46 225.7,-782.46 225.7,-782.46 225.7,-770.46 225.7,-770.46 225.7,-764.46 231.7,-758.46 237.7,-758.46"/>
<text text-anchor="middle" x="262.7" y="-772.76" font-family="Arial" font-size="14.00">summary</text>
</g>
<!-- ph&#45;&gt;summary -->
<g id="edge57" class="edge">
<title>ph&#45;&gt;summary</title>
<path fill="none" stroke="#1f78b4" d="M379.99,-800.42C360.27,-796.39 333.08,-790.84 309.85,-786.09"/>
<polygon fill="#a6cee3" stroke="#1f78b4" points="310.33,-782.62 299.84,-784.05 308.93,-789.48 310.33,-782.62"/>
</g>
<!-- revisionid -->
<g id="node59" class="node">
<title>revisionid</title>
<path fill="#1afabc" stroke="black" d="M324.64,-966.21C324.64,-966.21 374.64,-966.21 374.64,-966.21 380.64,-966.21 386.64,-972.21 386.64,-978.21 386.64,-978.21 386.64,-990.21 386.64,-990.21 386.64,-996.21 380.64,-1002.21 374.64,-1002.21 374.64,-1002.21 324.64,-1002.21 324.64,-1002.21 318.64,-1002.21 312.64,-996.21 312.64,-990.21 312.64,-990.21 312.64,-978.21 312.64,-978.21 312.64,-972.21 318.64,-966.21 324.64,-966.21"/>
<text text-anchor="middle" x="349.64" y="-980.51" font-family="Arial" font-size="14.00">revisionid</text>
</g>
<!-- ph&#45;&gt;revisionid -->
<g id="edge58" class="edge">
<title>ph&#45;&gt;revisionid</title>
<path fill="none" stroke="#1f78b4" d="M401.33,-824.05C391.25,-855.27 370.52,-919.52 358.6,-956.45"/>
<polygon fill="#a6cee3" stroke="#1f78b4" points="355.23,-955.5 355.49,-966.09 361.89,-957.65 355.23,-955.5"/>
</g>
<!-- started -->
<g id="node60" class="node">
<title>started</title>
<path fill="#1afabc" stroke="black" d="M292.07,-877.5C292.07,-877.5 326.07,-877.5 326.07,-877.5 332.07,-877.5 338.07,-883.5 338.07,-889.5 338.07,-889.5 338.07,-901.5 338.07,-901.5 338.07,-907.5 332.07,-913.5 326.07,-913.5 326.07,-913.5 292.07,-913.5 292.07,-913.5 286.07,-913.5 280.07,-907.5 280.07,-901.5 280.07,-901.5 280.07,-889.5 280.07,-889.5 280.07,-883.5 286.07,-877.5 292.07,-877.5"/>
<text text-anchor="middle" x="309.07" y="-891.8" font-family="Arial" font-size="14.00">started</text>
</g>
<!-- ph&#45;&gt;started -->
<g id="edge59" class="edge">
<title>ph&#45;&gt;started</title>
<path fill="none" stroke="#1f78b4" d="M387.31,-824.09C372.69,-837.44 352.61,-855.76 336.46,-870.5"/>
<polygon fill="#a6cee3" stroke="#1f78b4" points="333.92,-868.09 328.89,-877.41 338.64,-873.26 333.92,-868.09"/>
</g>
<!-- completed -->
<g id="node61" class="node">
<title>completed</title>
<path fill="#1afabc" stroke="black" d="M375.14,-921.15C375.14,-921.15 431.14,-921.15 431.14,-921.15 437.14,-921.15 443.14,-927.15 443.14,-933.15 443.14,-933.15 443.14,-945.15 443.14,-945.15 443.14,-951.15 437.14,-957.15 431.14,-957.15 431.14,-957.15 375.14,-957.15 375.14,-957.15 369.14,-957.15 363.14,-951.15 363.14,-945.15 363.14,-945.15 363.14,-933.15 363.14,-933.15 363.14,-927.15 369.14,-921.15 375.14,-921.15"/>
<text text-anchor="middle" x="403.14" y="-935.45" font-family="Arial" font-size="14.00">completed</text>
</g>
<!-- ph&#45;&gt;completed -->
<g id="edge60" class="edge">
<title>ph&#45;&gt;completed</title>
<path fill="none" stroke="#1f78b4" d="M406.61,-824.21C405.93,-846.63 404.78,-884.9 403.99,-911.08"/>
<polygon fill="#a6cee3" stroke="#1f78b4" points="400.49,-911.03 403.69,-921.13 407.49,-911.24 400.49,-911.03"/>
</g>
<!-- year -->
<g id="node62" class="node">
<title>year</title>
<path fill="#1afabc" stroke="black" d="M496.25,-889C496.25,-889 526.25,-889 526.25,-889 532.25,-889 538.25,-895 538.25,-901 538.25,-901 538.25,-913 538.25,-913 538.25,-919 532.25,-925 526.25,-925 526.25,-925 496.25,-925 496.25,-925 490.25,-925 484.25,-919 484.25,-913 484.25,-913 484.25,-901 484.25,-901 484.25,-895 490.25,-889 496.25,-889"/>
<text text-anchor="middle" x="511.25" y="-903.3" font-family="Arial" font-size="14.00">year</text>
</g>
<!-- ph&#45;&gt;year -->
<g id="edge61" class="edge">
<title>ph&#45;&gt;year</title>
<path fill="none" stroke="#1f78b4" d="M425.77,-824.04C442.25,-840.03 466.47,-863.54 484.93,-881.46"/>
<polygon fill="#a6cee3" stroke="#1f78b4" points="482.84,-884.3 492.45,-888.75 487.71,-879.28 482.84,-884.3"/>
</g>
<!-- month -->
<g id="node63" class="node">
<title>month</title>
<path fill="#1afabc" stroke="black" d="M463.2,-934.04C463.2,-934.04 494.2,-934.04 494.2,-934.04 500.2,-934.04 506.2,-940.04 506.2,-946.04 506.2,-946.04 506.2,-958.04 506.2,-958.04 506.2,-964.04 500.2,-970.04 494.2,-970.04 494.2,-970.04 463.2,-970.04 463.2,-970.04 457.2,-970.04 451.2,-964.04 451.2,-958.04 451.2,-958.04 451.2,-946.04 451.2,-946.04 451.2,-940.04 457.2,-934.04 463.2,-934.04"/>
<text text-anchor="middle" x="478.7" y="-948.34" font-family="Arial" font-size="14.00">month</text>
</g>
<!-- ph&#45;&gt;month -->
<g id="edge62" class="edge">
<title>ph&#45;&gt;month</title>
<path fill="none" stroke="#1f78b4" d="M416.08,-824.18C428.39,-849.32 450.72,-894.91 465.12,-924.31"/>
<polygon fill="#a6cee3" stroke="#1f78b4" points="462.13,-926.16 469.67,-933.6 468.41,-923.08 462.13,-926.16"/>
</g>
<!-- day -->
<g id="node64" class="node">
<title>day</title>
<path fill="#1afabc" stroke="black" d="M281.22,-828.07C281.22,-828.07 311.22,-828.07 311.22,-828.07 317.22,-828.07 323.22,-834.07 323.22,-840.07 323.22,-840.07 323.22,-852.07 323.22,-852.07 323.22,-858.07 317.22,-864.07 311.22,-864.07 311.22,-864.07 281.22,-864.07 281.22,-864.07 275.22,-864.07 269.22,-858.07 269.22,-852.07 269.22,-852.07 269.22,-840.07 269.22,-840.07 269.22,-834.07 275.22,-828.07 281.22,-828.07"/>
<text text-anchor="middle" x="296.22" y="-842.37" font-family="Arial" font-size="14.00">day</text>
</g>
<!-- ph&#45;&gt;day -->
<g id="edge63" class="edge">
<title>ph&#45;&gt;day</title>
<path fill="none" stroke="#1f78b4" d="M380.02,-815.78C365.92,-820.88 348.48,-827.19 333.16,-832.72"/>
<polygon fill="#a6cee3" stroke="#1f78b4" points="331.68,-829.54 323.46,-836.23 334.06,-836.12 331.68,-829.54"/>
</g>
<!-- booklibrary -->
<g id="node65" class="node">
<title>booklibrary</title>
<path fill="#1afabc" stroke="black" d="M189.3,-815.56C189.3,-815.56 248.3,-815.56 248.3,-815.56 254.3,-815.56 260.3,-821.56 260.3,-827.56 260.3,-827.56 260.3,-839.56 260.3,-839.56 260.3,-845.56 254.3,-851.56 248.3,-851.56 248.3,-851.56 189.3,-851.56 189.3,-851.56 183.3,-851.56 177.3,-845.56 177.3,-839.56 177.3,-839.56 177.3,-827.56 177.3,-827.56 177.3,-821.56 183.3,-815.56 189.3,-815.56"/>
<text text-anchor="middle" x="218.8" y="-829.86" font-family="Arial" font-size="14.00">booklibrary</text>
</g>
<!-- ph&#45;&gt;booklibrary -->
<g id="edge64" class="edge">
<title>ph&#45;&gt;booklibrary</title>
<path fill="none" stroke="#1f78b4" d="M379.77,-809.99C351.26,-814.16 305.93,-820.8 270.62,-825.97"/>
<polygon fill="#a6cee3" stroke="#1f78b4" points="269.88,-822.54 260.49,-827.45 270.89,-829.47 269.88,-822.54"/>
</g>
<!-- mainbooktitle -->
<g id="node66" class="node">
<title>mainbooktitle</title>
<path fill="#1afabc" stroke="black" d="M184.21,-877.5C184.21,-877.5 257.21,-877.5 257.21,-877.5 263.21,-877.5 269.21,-883.5 269.21,-889.5 269.21,-889.5 269.21,-901.5 269.21,-901.5 269.21,-907.5 263.21,-913.5 257.21,-913.5 257.21,-913.5 184.21,-913.5 184.21,-913.5 178.21,-913.5 172.21,-907.5 172.21,-901.5 172.21,-901.5 172.21,-889.5 172.21,-889.5 172.21,-883.5 178.21,-877.5 184.21,-877.5"/>
<text text-anchor="middle" x="220.71" y="-891.8" font-family="Arial" font-size="14.00">mainbooktitle</text>
</g>
<!-- ph&#45;&gt;mainbooktitle -->
<g id="edge65" class="edge">
<title>ph&#45;&gt;mainbooktitle</title>
<path fill="none" stroke="#1f78b4" d="M380.05,-818.99C350.66,-833.1 303.21,-855.89 267.72,-872.93"/>
<polygon fill="#a6cee3" stroke="#1f78b4" points="266.01,-869.87 258.51,-877.35 269.04,-876.18 266.01,-869.87"/>
</g>
<!-- booktitlealt -->
<g id="node67" class="node">
<title>booktitlealt</title>
<path fill="#1afabc" stroke="black" d="M235.56,-922.5C235.56,-922.5 292.56,-922.5 292.56,-922.5 298.56,-922.5 304.56,-928.5 304.56,-934.5 304.56,-934.5 304.56,-946.5 304.56,-946.5 304.56,-952.5 298.56,-958.5 292.56,-958.5 292.56,-958.5 235.56,-958.5 235.56,-958.5 229.56,-958.5 223.56,-952.5 223.56,-946.5 223.56,-946.5 223.56,-934.5 223.56,-934.5 223.56,-928.5 229.56,-922.5 235.56,-922.5"/>
<text text-anchor="middle" x="264.06" y="-936.8" font-family="Arial" font-size="14.00">booktitlealt</text>
</g>
<!-- ph&#45;&gt;booktitlealt -->
<g id="edge66" class="edge">
<title>ph&#45;&gt;booktitlealt</title>
<path fill="none" stroke="#1f78b4" d="M387.86,-824.12C362.9,-847.59 319.27,-888.6 291.04,-915.14"/>
<polygon fill="#a6cee3" stroke="#1f78b4" points="288.4,-912.82 283.51,-922.22 293.2,-917.92 288.4,-912.82"/>
</g>
<!-- booktitle -->
<g id="node69" class="node">
<title>booktitle</title>
<path fill="#1afabc" stroke="black" d="M781.34,-288.83C781.34,-288.83 824.34,-288.83 824.34,-288.83 830.34,-288.83 836.34,-294.83 836.34,-300.83 836.34,-300.83 836.34,-312.83 836.34,-312.83 836.34,-318.83 830.34,-324.83 824.34,-324.83 824.34,-324.83 781.34,-324.83 781.34,-324.83 775.34,-324.83 769.34,-318.83 769.34,-312.83 769.34,-312.83 769.34,-300.83 769.34,-300.83 769.34,-294.83 775.34,-288.83 781.34,-288.83"/>
<text text-anchor="middle" x="802.84" y="-303.13" font-family="Arial" font-size="14.00">booktitle</text>
</g>
<!-- title&#45;&gt;booktitle -->
<g id="edge68" class="edge">
<title>title&#45;&gt;booktitle</title>
<path fill="none" stroke="#1f78b4" d="M734.55,-393.82C747.77,-376.98 767.5,-351.85 782.36,-332.92"/>
<polygon fill="#a6cee3" stroke="#1f78b4" points="785.18,-335 788.6,-324.97 779.67,-330.68 785.18,-335"/>
</g>
</g>
</svg>
