<?xml version="1.0" encoding="UTF-8" standalone="no"?>
<!DOCTYPE svg PUBLIC "-//W3C//DTD SVG 1.1//EN"
 "http://www.w3.org/Graphics/SVG/1.1/DTD/svg11.dtd">
<!-- Generated by graphviz version 6.0.1 (20220911.1526)
 -->
<!-- Pages: 1 -->
<svg width="782pt" height="753pt"
 viewBox="0.00 0.00 782.00 753.00" xmlns="http://www.w3.org/2000/svg" xmlns:xlink="http://www.w3.org/1999/xlink">
<g id="graph0" class="graph" transform="scale(1 1) rotate(0) translate(4 749)">
<polygon fill="white" stroke="none" points="-4,4 -4,-749 778,-749 778,4 -4,4"/>
<!-- taskModule -->
<g id="node1" class="node">
<title>taskModule</title>
<path fill="#dddddd" stroke="black" d="M365.61,-338.26C365.61,-338.26 427.61,-338.26 427.61,-338.26 433.61,-338.26 439.61,-344.26 439.61,-350.26 439.61,-350.26 439.61,-362.26 439.61,-362.26 439.61,-368.26 433.61,-374.26 427.61,-374.26 427.61,-374.26 365.61,-374.26 365.61,-374.26 359.61,-374.26 353.61,-368.26 353.61,-362.26 353.61,-362.26 353.61,-350.26 353.61,-350.26 353.61,-344.26 359.61,-338.26 365.61,-338.26"/>
<text text-anchor="middle" x="396.61" y="-352.56" font-family="Arial" font-size="14.00">taskModule</text>
</g>
<!-- topic -->
<g id="node2" class="node">
<title>topic</title>
<path fill="#afa7f4" stroke="black" d="M434.42,-199.93C434.42,-199.93 464.42,-199.93 464.42,-199.93 470.42,-199.93 476.42,-205.93 476.42,-211.93 476.42,-211.93 476.42,-223.93 476.42,-223.93 476.42,-229.93 470.42,-235.93 464.42,-235.93 464.42,-235.93 434.42,-235.93 434.42,-235.93 428.42,-235.93 422.42,-229.93 422.42,-223.93 422.42,-223.93 422.42,-211.93 422.42,-211.93 422.42,-205.93 428.42,-199.93 434.42,-199.93"/>
<text text-anchor="middle" x="449.42" y="-214.23" font-family="Arial" font-size="14.00">topic</text>
</g>
<!-- taskModule&#45;&gt;topic -->
<g id="edge1" class="edge">
<title>taskModule&#45;&gt;topic</title>
<path fill="none" stroke="#1f78b4" d="M403.52,-338.18C412.53,-314.57 428.39,-273.01 438.91,-245.47"/>
<polygon fill="#a6cee3" stroke="#1f78b4" points="442.22,-246.61 442.52,-236.02 435.68,-244.11 442.22,-246.61"/>
</g>
<!-- body -->
<g id="node4" class="node">
<title>body</title>
<path fill="#afa7f4" stroke="black" d="M452.55,-491.91C452.55,-491.91 482.55,-491.91 482.55,-491.91 488.55,-491.91 494.55,-497.91 494.55,-503.91 494.55,-503.91 494.55,-515.91 494.55,-515.91 494.55,-521.91 488.55,-527.91 482.55,-527.91 482.55,-527.91 452.55,-527.91 452.55,-527.91 446.55,-527.91 440.55,-521.91 440.55,-515.91 440.55,-515.91 440.55,-503.91 440.55,-503.91 440.55,-497.91 446.55,-491.91 452.55,-491.91"/>
<text text-anchor="middle" x="467.55" y="-506.21" font-family="Arial" font-size="14.00">body</text>
</g>
<!-- taskModule&#45;&gt;body -->
<g id="edge3" class="edge">
<title>taskModule&#45;&gt;body</title>
<path fill="none" stroke="#1f78b4" d="M405.03,-374.49C417.35,-401.17 440.39,-451.08 454.79,-482.28"/>
<polygon fill="#a6cee3" stroke="#1f78b4" points="451.77,-484.09 459.14,-491.71 458.13,-481.16 451.77,-484.09"/>
</g>
<!-- section -->
<g id="node6" class="node">
<title>section</title>
<path fill="#afa7f4" stroke="black" d="M234.27,-164.88C234.27,-164.88 269.27,-164.88 269.27,-164.88 275.27,-164.88 281.27,-170.88 281.27,-176.88 281.27,-176.88 281.27,-188.88 281.27,-188.88 281.27,-194.88 275.27,-200.88 269.27,-200.88 269.27,-200.88 234.27,-200.88 234.27,-200.88 228.27,-200.88 222.27,-194.88 222.27,-188.88 222.27,-188.88 222.27,-176.88 222.27,-176.88 222.27,-170.88 228.27,-164.88 234.27,-164.88"/>
<text text-anchor="middle" x="251.77" y="-179.18" font-family="Arial" font-size="14.00">section</text>
</g>
<!-- taskModule&#45;&gt;section -->
<g id="edge5" class="edge">
<title>taskModule&#45;&gt;section</title>
<path fill="none" stroke="#1f78b4" d="M381.39,-338.03C355.63,-307.21 303.38,-244.67 273.69,-209.12"/>
<polygon fill="#a6cee3" stroke="#1f78b4" points="276.11,-206.56 267.01,-201.13 270.73,-211.04 276.11,-206.56"/>
</g>
<!-- ol -->
<g id="node13" class="node">
<title>ol</title>
<path fill="#afa7f4" stroke="black" d="M524.48,-348.49C524.48,-348.49 554.48,-348.49 554.48,-348.49 560.48,-348.49 566.48,-354.49 566.48,-360.49 566.48,-360.49 566.48,-372.49 566.48,-372.49 566.48,-378.49 560.48,-384.49 554.48,-384.49 554.48,-384.49 524.48,-384.49 524.48,-384.49 518.48,-384.49 512.48,-378.49 512.48,-372.49 512.48,-372.49 512.48,-360.49 512.48,-360.49 512.48,-354.49 518.48,-348.49 524.48,-348.49"/>
<text text-anchor="middle" x="539.48" y="-362.79" font-family="Arial" font-size="14.00">ol</text>
</g>
<!-- taskModule&#45;&gt;ol -->
<g id="edge12" class="edge">
<title>taskModule&#45;&gt;ol</title>
<path fill="none" stroke="#1f78b4" d="M439.87,-359.36C459.68,-360.78 482.95,-362.44 502.01,-363.81"/>
<polygon fill="#a6cee3" stroke="#1f78b4" points="501.89,-367.31 512.12,-364.53 502.39,-360.32 501.89,-367.31"/>
</g>
<!-- ul -->
<g id="node15" class="node">
<title>ul</title>
<path fill="#afa7f4" stroke="black" d="M510.15,-221.4C510.15,-221.4 540.15,-221.4 540.15,-221.4 546.15,-221.4 552.15,-227.4 552.15,-233.4 552.15,-233.4 552.15,-245.4 552.15,-245.4 552.15,-251.4 546.15,-257.4 540.15,-257.4 540.15,-257.4 510.15,-257.4 510.15,-257.4 504.15,-257.4 498.15,-251.4 498.15,-245.4 498.15,-245.4 498.15,-233.4 498.15,-233.4 498.15,-227.4 504.15,-221.4 510.15,-221.4"/>
<text text-anchor="middle" x="525.15" y="-235.7" font-family="Arial" font-size="14.00">ul</text>
</g>
<!-- taskModule&#45;&gt;ul -->
<g id="edge14" class="edge">
<title>taskModule&#45;&gt;ul</title>
<path fill="none" stroke="#1f78b4" d="M416.42,-338.26C438.15,-318.5 473.18,-286.65 497.59,-264.46"/>
<polygon fill="#a6cee3" stroke="#1f78b4" points="500.07,-266.93 505.11,-257.62 495.36,-261.76 500.07,-266.93"/>
</g>
<!-- li -->
<g id="node18" class="node">
<title>li</title>
<path fill="#afa7f4" stroke="black" d="M188.56,-390.96C188.56,-390.96 218.56,-390.96 218.56,-390.96 224.56,-390.96 230.56,-396.96 230.56,-402.96 230.56,-402.96 230.56,-414.96 230.56,-414.96 230.56,-420.96 224.56,-426.96 218.56,-426.96 218.56,-426.96 188.56,-426.96 188.56,-426.96 182.56,-426.96 176.56,-420.96 176.56,-414.96 176.56,-414.96 176.56,-402.96 176.56,-402.96 176.56,-396.96 182.56,-390.96 188.56,-390.96"/>
<text text-anchor="middle" x="203.56" y="-405.26" font-family="Arial" font-size="14.00">li</text>
</g>
<!-- taskModule&#45;&gt;li -->
<g id="edge17" class="edge">
<title>taskModule&#45;&gt;li</title>
<path fill="none" stroke="#1f78b4" d="M353.29,-368.09C319.39,-377.34 272.74,-390.07 240.57,-398.86"/>
<polygon fill="#a6cee3" stroke="#1f78b4" points="239.39,-395.55 230.67,-401.56 241.24,-402.3 239.39,-395.55"/>
</g>
<!-- ph -->
<g id="node22" class="node">
<title>ph</title>
<path fill="#afa7f4" stroke="black" d="M217.89,-297.33C217.89,-297.33 247.89,-297.33 247.89,-297.33 253.89,-297.33 259.89,-303.33 259.89,-309.33 259.89,-309.33 259.89,-321.33 259.89,-321.33 259.89,-327.33 253.89,-333.33 247.89,-333.33 247.89,-333.33 217.89,-333.33 217.89,-333.33 211.89,-333.33 205.89,-327.33 205.89,-321.33 205.89,-321.33 205.89,-309.33 205.89,-309.33 205.89,-303.33 211.89,-297.33 217.89,-297.33"/>
<text text-anchor="middle" x="232.89" y="-311.63" font-family="Arial" font-size="14.00">ph</text>
</g>
<!-- taskModule&#45;&gt;ph -->
<g id="edge21" class="edge">
<title>taskModule&#45;&gt;ph</title>
<path fill="none" stroke="#1f78b4" d="M353.6,-345.51C327.62,-339.01 294.84,-330.82 270,-324.61"/>
<polygon fill="#a6cee3" stroke="#1f78b4" points="270.77,-321.19 260.22,-322.16 269.07,-327.98 270.77,-321.19"/>
</g>
<!-- div -->
<g id="node24" class="node">
<title>div</title>
<path fill="#afa7f4" stroke="black" d="M341.11,-566.9C341.11,-566.9 371.11,-566.9 371.11,-566.9 377.11,-566.9 383.11,-572.9 383.11,-578.9 383.11,-578.9 383.11,-590.9 383.11,-590.9 383.11,-596.9 377.11,-602.9 371.11,-602.9 371.11,-602.9 341.11,-602.9 341.11,-602.9 335.11,-602.9 329.11,-596.9 329.11,-590.9 329.11,-590.9 329.11,-578.9 329.11,-578.9 329.11,-572.9 335.11,-566.9 341.11,-566.9"/>
<text text-anchor="middle" x="356.11" y="-581.2" font-family="Arial" font-size="14.00">div</text>
</g>
<!-- taskModule&#45;&gt;div -->
<g id="edge23" class="edge">
<title>taskModule&#45;&gt;div</title>
<path fill="none" stroke="#1f78b4" d="M393.37,-374.58C386.3,-414.48 369.48,-509.44 361.07,-556.9"/>
<polygon fill="#a6cee3" stroke="#1f78b4" points="357.61,-556.35 359.31,-566.81 364.5,-557.57 357.61,-556.35"/>
</g>
<!-- simpletable -->
<g id="node30" class="node">
<title>simpletable</title>
<path fill="#afa7f4" stroke="black" d="M526.67,-286.95C526.67,-286.95 588.67,-286.95 588.67,-286.95 594.67,-286.95 600.67,-292.95 600.67,-298.95 600.67,-298.95 600.67,-310.95 600.67,-310.95 600.67,-316.95 594.67,-322.95 588.67,-322.95 588.67,-322.95 526.67,-322.95 526.67,-322.95 520.67,-322.95 514.67,-316.95 514.67,-310.95 514.67,-310.95 514.67,-298.95 514.67,-298.95 514.67,-292.95 520.67,-286.95 526.67,-286.95"/>
<text text-anchor="middle" x="557.67" y="-301.25" font-family="Arial" font-size="14.00">simpletable</text>
</g>
<!-- taskModule&#45;&gt;simpletable -->
<g id="edge29" class="edge">
<title>taskModule&#45;&gt;simpletable</title>
<path fill="none" stroke="#1f78b4" d="M439.77,-342.51C459.72,-336.16 483.6,-328.55 504.64,-321.85"/>
<polygon fill="#a6cee3" stroke="#1f78b4" points="505.92,-325.11 514.39,-318.74 503.8,-318.44 505.92,-325.11"/>
</g>
<!-- sthead -->
<g id="node32" class="node">
<title>sthead</title>
<path fill="#afa7f4" stroke="black" d="M368.16,-184.91C368.16,-184.91 401.16,-184.91 401.16,-184.91 407.16,-184.91 413.16,-190.91 413.16,-196.91 413.16,-196.91 413.16,-208.91 413.16,-208.91 413.16,-214.91 407.16,-220.91 401.16,-220.91 401.16,-220.91 368.16,-220.91 368.16,-220.91 362.16,-220.91 356.16,-214.91 356.16,-208.91 356.16,-208.91 356.16,-196.91 356.16,-196.91 356.16,-190.91 362.16,-184.91 368.16,-184.91"/>
<text text-anchor="middle" x="384.66" y="-199.21" font-family="Arial" font-size="14.00">sthead</text>
</g>
<!-- taskModule&#45;&gt;sthead -->
<g id="edge31" class="edge">
<title>taskModule&#45;&gt;sthead</title>
<path fill="none" stroke="#1f78b4" d="M395.2,-338.07C393.14,-311.67 389.31,-262.49 386.88,-231.3"/>
<polygon fill="#a6cee3" stroke="#1f78b4" points="390.35,-230.78 386.08,-221.08 383.37,-231.32 390.35,-230.78"/>
</g>
<!-- stentry -->
<g id="node34" class="node">
<title>stentry</title>
<path fill="#afa7f4" stroke="black" d="M553.35,-439.5C553.35,-439.5 586.35,-439.5 586.35,-439.5 592.35,-439.5 598.35,-445.5 598.35,-451.5 598.35,-451.5 598.35,-463.5 598.35,-463.5 598.35,-469.5 592.35,-475.5 586.35,-475.5 586.35,-475.5 553.35,-475.5 553.35,-475.5 547.35,-475.5 541.35,-469.5 541.35,-463.5 541.35,-463.5 541.35,-451.5 541.35,-451.5 541.35,-445.5 547.35,-439.5 553.35,-439.5"/>
<text text-anchor="middle" x="569.85" y="-453.8" font-family="Arial" font-size="14.00">stentry</text>
</g>
<!-- taskModule&#45;&gt;stentry -->
<g id="edge33" class="edge">
<title>taskModule&#45;&gt;stentry</title>
<path fill="none" stroke="#1f78b4" d="M427.59,-374.36C456.91,-391.49 500.98,-417.25 532.29,-435.55"/>
<polygon fill="#a6cee3" stroke="#1f78b4" points="530.76,-438.71 541.16,-440.73 534.29,-432.67 530.76,-438.71"/>
</g>
<!-- strow -->
<g id="node39" class="node">
<title>strow</title>
<path fill="#afa7f4" stroke="black" d="M260.94,-457.83C260.94,-457.83 290.94,-457.83 290.94,-457.83 296.94,-457.83 302.94,-463.83 302.94,-469.83 302.94,-469.83 302.94,-481.83 302.94,-481.83 302.94,-487.83 296.94,-493.83 290.94,-493.83 290.94,-493.83 260.94,-493.83 260.94,-493.83 254.94,-493.83 248.94,-487.83 248.94,-481.83 248.94,-481.83 248.94,-469.83 248.94,-469.83 248.94,-463.83 254.94,-457.83 260.94,-457.83"/>
<text text-anchor="middle" x="275.94" y="-472.13" font-family="Arial" font-size="14.00">strow</text>
</g>
<!-- taskModule&#45;&gt;strow -->
<g id="edge38" class="edge">
<title>taskModule&#45;&gt;strow</title>
<path fill="none" stroke="#1f78b4" d="M378.29,-374.42C357.91,-394.61 324.84,-427.38 301.83,-450.18"/>
<polygon fill="#a6cee3" stroke="#1f78b4" points="299.08,-447.97 294.44,-457.5 304.01,-452.94 299.08,-447.97"/>
</g>
<!-- task -->
<g id="node3" class="node">
<title>task</title>
<path fill="#1afabc" stroke="black" d="M488.98,-65.63C488.98,-65.63 518.98,-65.63 518.98,-65.63 524.98,-65.63 530.98,-71.63 530.98,-77.63 530.98,-77.63 530.98,-89.63 530.98,-89.63 530.98,-95.63 524.98,-101.63 518.98,-101.63 518.98,-101.63 488.98,-101.63 488.98,-101.63 482.98,-101.63 476.98,-95.63 476.98,-89.63 476.98,-89.63 476.98,-77.63 476.98,-77.63 476.98,-71.63 482.98,-65.63 488.98,-65.63"/>
<text text-anchor="middle" x="503.98" y="-79.93" font-family="Arial" font-size="14.00">task</text>
</g>
<!-- topic&#45;&gt;task -->
<g id="edge2" class="edge">
<title>topic&#45;&gt;task</title>
<path fill="none" stroke="#1f78b4" d="M456.78,-199.82C466.01,-177.09 481.94,-137.88 492.72,-111.36"/>
<polygon fill="#a6cee3" stroke="#1f78b4" points="496.05,-112.46 496.57,-101.88 489.56,-109.83 496.05,-112.46"/>
</g>
<!-- taskbody -->
<g id="node5" class="node">
<title>taskbody</title>
<path fill="#1afabc" stroke="black" d="M507.59,-605.13C507.59,-605.13 554.59,-605.13 554.59,-605.13 560.59,-605.13 566.59,-611.13 566.59,-617.13 566.59,-617.13 566.59,-629.13 566.59,-629.13 566.59,-635.13 560.59,-641.13 554.59,-641.13 554.59,-641.13 507.59,-641.13 507.59,-641.13 501.59,-641.13 495.59,-635.13 495.59,-629.13 495.59,-629.13 495.59,-617.13 495.59,-617.13 495.59,-611.13 501.59,-605.13 507.59,-605.13"/>
<text text-anchor="middle" x="531.09" y="-619.43" font-family="Arial" font-size="14.00">taskbody</text>
</g>
<!-- body&#45;&gt;taskbody -->
<g id="edge4" class="edge">
<title>body&#45;&gt;taskbody</title>
<path fill="none" stroke="#1f78b4" d="M477.76,-528.1C488.09,-546.51 504.17,-575.17 515.98,-596.2"/>
<polygon fill="#a6cee3" stroke="#1f78b4" points="512.96,-597.98 520.91,-604.98 519.07,-594.55 512.96,-597.98"/>
</g>
<!-- prereq -->
<g id="node7" class="node">
<title>prereq</title>
<path fill="#1afabc" stroke="black" d="M213.24,-0.13C213.24,-0.13 245.24,-0.13 245.24,-0.13 251.24,-0.13 257.24,-6.13 257.24,-12.13 257.24,-12.13 257.24,-24.13 257.24,-24.13 257.24,-30.13 251.24,-36.13 245.24,-36.13 245.24,-36.13 213.24,-36.13 213.24,-36.13 207.24,-36.13 201.24,-30.13 201.24,-24.13 201.24,-24.13 201.24,-12.13 201.24,-12.13 201.24,-6.13 207.24,-0.13 213.24,-0.13"/>
<text text-anchor="middle" x="229.24" y="-14.43" font-family="Arial" font-size="14.00">prereq</text>
</g>
<!-- section&#45;&gt;prereq -->
<g id="edge6" class="edge">
<title>section&#45;&gt;prereq</title>
<path fill="none" stroke="#1f78b4" d="M249.27,-164.62C245.35,-135.97 237.73,-80.24 233.1,-46.38"/>
<polygon fill="#a6cee3" stroke="#1f78b4" points="236.53,-45.65 231.71,-36.22 229.6,-46.6 236.53,-45.65"/>
</g>
<!-- context -->
<g id="node8" class="node">
<title>context</title>
<path fill="#1afabc" stroke="black" d="M284.3,-33.78C284.3,-33.78 320.3,-33.78 320.3,-33.78 326.3,-33.78 332.3,-39.78 332.3,-45.78 332.3,-45.78 332.3,-57.78 332.3,-57.78 332.3,-63.78 326.3,-69.78 320.3,-69.78 320.3,-69.78 284.3,-69.78 284.3,-69.78 278.3,-69.78 272.3,-63.78 272.3,-57.78 272.3,-57.78 272.3,-45.78 272.3,-45.78 272.3,-39.78 278.3,-33.78 284.3,-33.78"/>
<text text-anchor="middle" x="302.3" y="-48.08" font-family="Arial" font-size="14.00">context</text>
</g>
<!-- section&#45;&gt;context -->
<g id="edge7" class="edge">
<title>section&#45;&gt;context</title>
<path fill="none" stroke="#1f78b4" d="M258.79,-164.66C267.32,-142.54 281.77,-105.05 291.66,-79.39"/>
<polygon fill="#a6cee3" stroke="#1f78b4" points="295.01,-80.45 295.34,-69.86 288.47,-77.93 295.01,-80.45"/>
</g>
<!-- steps&#45;informal -->
<g id="node9" class="node">
<title>steps&#45;informal</title>
<path fill="#1afabc" stroke="black" d="M57.47,-87.52C57.47,-87.52 135.47,-87.52 135.47,-87.52 141.47,-87.52 147.47,-93.52 147.47,-99.52 147.47,-99.52 147.47,-111.52 147.47,-111.52 147.47,-117.52 141.47,-123.52 135.47,-123.52 135.47,-123.52 57.47,-123.52 57.47,-123.52 51.47,-123.52 45.47,-117.52 45.47,-111.52 45.47,-111.52 45.47,-99.52 45.47,-99.52 45.47,-93.52 51.47,-87.52 57.47,-87.52"/>
<text text-anchor="middle" x="96.47" y="-101.82" font-family="Arial" font-size="14.00">steps&#45;informal</text>
</g>
<!-- section&#45;&gt;steps&#45;informal -->
<g id="edge8" class="edge">
<title>section&#45;&gt;steps&#45;informal</title>
<path fill="none" stroke="#1f78b4" d="M222.19,-168.15C199.54,-156.87 167.89,-141.1 142.02,-128.21"/>
<polygon fill="#a6cee3" stroke="#1f78b4" points="143.28,-124.93 132.77,-123.6 140.16,-131.19 143.28,-124.93"/>
</g>
<!-- tasktroubleshooting -->
<g id="node10" class="node">
<title>tasktroubleshooting</title>
<path fill="#1afabc" stroke="black" d="M11.61,-138.18C11.61,-138.18 121.61,-138.18 121.61,-138.18 127.61,-138.18 133.61,-144.18 133.61,-150.18 133.61,-150.18 133.61,-162.18 133.61,-162.18 133.61,-168.18 127.61,-174.18 121.61,-174.18 121.61,-174.18 11.61,-174.18 11.61,-174.18 5.61,-174.18 -0.39,-168.18 -0.39,-162.18 -0.39,-162.18 -0.39,-150.18 -0.39,-150.18 -0.39,-144.18 5.61,-138.18 11.61,-138.18"/>
<text text-anchor="middle" x="66.61" y="-152.48" font-family="Arial" font-size="14.00">tasktroubleshooting</text>
</g>
<!-- section&#45;&gt;tasktroubleshooting -->
<g id="edge9" class="edge">
<title>section&#45;&gt;tasktroubleshooting</title>
<path fill="none" stroke="#1f78b4" d="M222.02,-178.59C200.9,-175.55 171.51,-171.31 143.97,-167.34"/>
<polygon fill="#a6cee3" stroke="#1f78b4" points="144.33,-163.85 133.93,-165.89 143.33,-170.78 144.33,-163.85"/>
</g>
<!-- result -->
<g id="node11" class="node">
<title>result</title>
<path fill="#1afabc" stroke="black" d="M205.2,-67.01C205.2,-67.01 235.2,-67.01 235.2,-67.01 241.2,-67.01 247.2,-73.01 247.2,-79.01 247.2,-79.01 247.2,-91.01 247.2,-91.01 247.2,-97.01 241.2,-103.01 235.2,-103.01 235.2,-103.01 205.2,-103.01 205.2,-103.01 199.2,-103.01 193.2,-97.01 193.2,-91.01 193.2,-91.01 193.2,-79.01 193.2,-79.01 193.2,-73.01 199.2,-67.01 205.2,-67.01"/>
<text text-anchor="middle" x="220.2" y="-81.31" font-family="Arial" font-size="14.00">result</text>
</g>
<!-- section&#45;&gt;result -->
<g id="edge10" class="edge">
<title>section&#45;&gt;result</title>
<path fill="none" stroke="#1f78b4" d="M245.83,-164.47C241.16,-149.98 234.57,-129.55 229.24,-113.03"/>
<polygon fill="#a6cee3" stroke="#1f78b4" points="232.51,-111.78 226.11,-103.34 225.85,-113.93 232.51,-111.78"/>
</g>
<!-- postreq -->
<g id="node12" class="node">
<title>postreq</title>
<path fill="#1afabc" stroke="black" d="M130.73,-33.79C130.73,-33.79 168.73,-33.79 168.73,-33.79 174.73,-33.79 180.73,-39.79 180.73,-45.79 180.73,-45.79 180.73,-57.79 180.73,-57.79 180.73,-63.79 174.73,-69.79 168.73,-69.79 168.73,-69.79 130.73,-69.79 130.73,-69.79 124.73,-69.79 118.73,-63.79 118.73,-57.79 118.73,-57.79 118.73,-45.79 118.73,-45.79 118.73,-39.79 124.73,-33.79 130.73,-33.79"/>
<text text-anchor="middle" x="149.73" y="-48.09" font-family="Arial" font-size="14.00">postreq</text>
</g>
<!-- section&#45;&gt;postreq -->
<g id="edge11" class="edge">
<title>section&#45;&gt;postreq</title>
<path fill="none" stroke="#1f78b4" d="M237.58,-164.66C220.07,-142.15 190.15,-103.72 170.17,-78.04"/>
<polygon fill="#a6cee3" stroke="#1f78b4" points="172.7,-75.61 163.8,-69.86 167.18,-79.91 172.7,-75.61"/>
</g>
<!-- steps -->
<g id="node14" class="node">
<title>steps</title>
<path fill="#1afabc" stroke="black" d="M665.9,-333.68C665.9,-333.68 695.9,-333.68 695.9,-333.68 701.9,-333.68 707.9,-339.68 707.9,-345.68 707.9,-345.68 707.9,-357.68 707.9,-357.68 707.9,-363.68 701.9,-369.68 695.9,-369.68 695.9,-369.68 665.9,-369.68 665.9,-369.68 659.9,-369.68 653.9,-363.68 653.9,-357.68 653.9,-357.68 653.9,-345.68 653.9,-345.68 653.9,-339.68 659.9,-333.68 665.9,-333.68"/>
<text text-anchor="middle" x="680.9" y="-347.98" font-family="Arial" font-size="14.00">steps</text>
</g>
<!-- ol&#45;&gt;steps -->
<g id="edge13" class="edge">
<title>ol&#45;&gt;steps</title>
<path fill="none" stroke="#1f78b4" d="M566.75,-363.63C588.56,-361.35 619.38,-358.12 643.5,-355.6"/>
<polygon fill="#a6cee3" stroke="#1f78b4" points="644.14,-359.05 653.72,-354.53 643.41,-352.09 644.14,-359.05"/>
</g>
<!-- steps&#45;unordered -->
<g id="node16" class="node">
<title>steps&#45;unordered</title>
<path fill="#1afabc" stroke="black" d="M637.39,-143.73C637.39,-143.73 728.39,-143.73 728.39,-143.73 734.39,-143.73 740.39,-149.73 740.39,-155.73 740.39,-155.73 740.39,-167.73 740.39,-167.73 740.39,-173.73 734.39,-179.73 728.39,-179.73 728.39,-179.73 637.39,-179.73 637.39,-179.73 631.39,-179.73 625.39,-173.73 625.39,-167.73 625.39,-167.73 625.39,-155.73 625.39,-155.73 625.39,-149.73 631.39,-143.73 637.39,-143.73"/>
<text text-anchor="middle" x="682.89" y="-158.03" font-family="Arial" font-size="14.00">steps&#45;unordered</text>
</g>
<!-- ul&#45;&gt;steps&#45;unordered -->
<g id="edge15" class="edge">
<title>ul&#45;&gt;steps&#45;unordered</title>
<path fill="none" stroke="#1f78b4" d="M552.26,-226.05C575.53,-214.59 609.56,-197.84 637.05,-184.3"/>
<polygon fill="#a6cee3" stroke="#1f78b4" points="638.68,-187.4 646.1,-179.84 635.58,-181.12 638.68,-187.4"/>
</g>
<!-- choices -->
<g id="node17" class="node">
<title>choices</title>
<path fill="#1afabc" stroke="black" d="M570.78,-92.13C570.78,-92.13 608.78,-92.13 608.78,-92.13 614.78,-92.13 620.78,-98.13 620.78,-104.13 620.78,-104.13 620.78,-116.13 620.78,-116.13 620.78,-122.13 614.78,-128.13 608.78,-128.13 608.78,-128.13 570.78,-128.13 570.78,-128.13 564.78,-128.13 558.78,-122.13 558.78,-116.13 558.78,-116.13 558.78,-104.13 558.78,-104.13 558.78,-98.13 564.78,-92.13 570.78,-92.13"/>
<text text-anchor="middle" x="589.78" y="-106.43" font-family="Arial" font-size="14.00">choices</text>
</g>
<!-- ul&#45;&gt;choices -->
<g id="edge16" class="edge">
<title>ul&#45;&gt;choices</title>
<path fill="none" stroke="#1f78b4" d="M534.27,-221.15C545.19,-199.31 563.59,-162.52 576.19,-137.32"/>
<polygon fill="#a6cee3" stroke="#1f78b4" points="579.36,-138.79 580.71,-128.28 573.1,-135.66 579.36,-138.79"/>
</g>
<!-- stepsection -->
<g id="node19" class="node">
<title>stepsection</title>
<path fill="#1afabc" stroke="black" d="M30.69,-375.04C30.69,-375.04 91.69,-375.04 91.69,-375.04 97.69,-375.04 103.69,-381.04 103.69,-387.04 103.69,-387.04 103.69,-399.04 103.69,-399.04 103.69,-405.04 97.69,-411.04 91.69,-411.04 91.69,-411.04 30.69,-411.04 30.69,-411.04 24.69,-411.04 18.69,-405.04 18.69,-399.04 18.69,-399.04 18.69,-387.04 18.69,-387.04 18.69,-381.04 24.69,-375.04 30.69,-375.04"/>
<text text-anchor="middle" x="61.19" y="-389.34" font-family="Arial" font-size="14.00">stepsection</text>
</g>
<!-- li&#45;&gt;stepsection -->
<g id="edge18" class="edge">
<title>li&#45;&gt;stepsection</title>
<path fill="none" stroke="#1f78b4" d="M176.45,-405.93C158.84,-403.96 135.29,-401.32 114.08,-398.95"/>
<polygon fill="#a6cee3" stroke="#1f78b4" points="114.21,-395.45 103.88,-397.81 113.43,-402.4 114.21,-395.45"/>
</g>
<!-- step -->
<g id="node20" class="node">
<title>step</title>
<path fill="#1afabc" stroke="black" d="M92.21,-469.23C92.21,-469.23 122.21,-469.23 122.21,-469.23 128.21,-469.23 134.21,-475.23 134.21,-481.23 134.21,-481.23 134.21,-493.23 134.21,-493.23 134.21,-499.23 128.21,-505.23 122.21,-505.23 122.21,-505.23 92.21,-505.23 92.21,-505.23 86.21,-505.23 80.21,-499.23 80.21,-493.23 80.21,-493.23 80.21,-481.23 80.21,-481.23 80.21,-475.23 86.21,-469.23 92.21,-469.23"/>
<text text-anchor="middle" x="107.21" y="-483.53" font-family="Arial" font-size="14.00">step</text>
</g>
<!-- li&#45;&gt;step -->
<g id="edge19" class="edge">
<title>li&#45;&gt;step</title>
<path fill="none" stroke="#1f78b4" d="M181.22,-427.11C168.21,-437.68 151.62,-451.15 137.46,-462.66"/>
<polygon fill="#a6cee3" stroke="#1f78b4" points="134.99,-460.15 129.44,-469.18 139.41,-465.59 134.99,-460.15"/>
</g>
<!-- choice -->
<g id="node21" class="node">
<title>choice</title>
<path fill="#1afabc" stroke="black" d="M67.91,-423.26C67.91,-423.26 99.91,-423.26 99.91,-423.26 105.91,-423.26 111.91,-429.26 111.91,-435.26 111.91,-435.26 111.91,-447.26 111.91,-447.26 111.91,-453.26 105.91,-459.26 99.91,-459.26 99.91,-459.26 67.91,-459.26 67.91,-459.26 61.91,-459.26 55.91,-453.26 55.91,-447.26 55.91,-447.26 55.91,-435.26 55.91,-435.26 55.91,-429.26 61.91,-423.26 67.91,-423.26"/>
<text text-anchor="middle" x="83.91" y="-437.56" font-family="Arial" font-size="14.00">choice</text>
</g>
<!-- li&#45;&gt;choice -->
<g id="edge20" class="edge">
<title>li&#45;&gt;choice</title>
<path fill="none" stroke="#1f78b4" d="M176.41,-416.29C160.39,-420.62 139.85,-426.16 122.2,-430.92"/>
<polygon fill="#a6cee3" stroke="#1f78b4" points="120.94,-427.64 112.2,-433.63 122.77,-434.4 120.94,-427.64"/>
</g>
<!-- cmd -->
<g id="node23" class="node">
<title>cmd</title>
<path fill="#1afabc" stroke="black" d="M102.15,-271.3C102.15,-271.3 132.15,-271.3 132.15,-271.3 138.15,-271.3 144.15,-277.3 144.15,-283.3 144.15,-283.3 144.15,-295.3 144.15,-295.3 144.15,-301.3 138.15,-307.3 132.15,-307.3 132.15,-307.3 102.15,-307.3 102.15,-307.3 96.15,-307.3 90.15,-301.3 90.15,-295.3 90.15,-295.3 90.15,-283.3 90.15,-283.3 90.15,-277.3 96.15,-271.3 102.15,-271.3"/>
<text text-anchor="middle" x="117.15" y="-285.6" font-family="Arial" font-size="14.00">cmd</text>
</g>
<!-- ph&#45;&gt;cmd -->
<g id="edge22" class="edge">
<title>ph&#45;&gt;cmd</title>
<path fill="none" stroke="#1f78b4" d="M205.75,-309.23C190.48,-305.79 171.19,-301.46 154.51,-297.7"/>
<polygon fill="#a6cee3" stroke="#1f78b4" points="155.04,-294.24 144.52,-295.46 153.51,-301.07 155.04,-294.24"/>
</g>
<!-- info -->
<g id="node25" class="node">
<title>info</title>
<path fill="#1afabc" stroke="black" d="M276.26,-689.44C276.26,-689.44 306.26,-689.44 306.26,-689.44 312.26,-689.44 318.26,-695.44 318.26,-701.44 318.26,-701.44 318.26,-713.44 318.26,-713.44 318.26,-719.44 312.26,-725.44 306.26,-725.44 306.26,-725.44 276.26,-725.44 276.26,-725.44 270.26,-725.44 264.26,-719.44 264.26,-713.44 264.26,-713.44 264.26,-701.44 264.26,-701.44 264.26,-695.44 270.26,-689.44 276.26,-689.44"/>
<text text-anchor="middle" x="291.26" y="-703.74" font-family="Arial" font-size="14.00">info</text>
</g>
<!-- div&#45;&gt;info -->
<g id="edge24" class="edge">
<title>div&#45;&gt;info</title>
<path fill="none" stroke="#1f78b4" d="M346.54,-602.98C335.76,-623.34 318.13,-656.65 305.68,-680.18"/>
<polygon fill="#a6cee3" stroke="#1f78b4" points="302.45,-678.81 300.86,-689.28 308.64,-682.08 302.45,-678.81"/>
</g>
<!-- tutorialinfo -->
<g id="node26" class="node">
<title>tutorialinfo</title>
<path fill="#1afabc" stroke="black" d="M435.99,-684.99C435.99,-684.99 490.99,-684.99 490.99,-684.99 496.99,-684.99 502.99,-690.99 502.99,-696.99 502.99,-696.99 502.99,-708.99 502.99,-708.99 502.99,-714.99 496.99,-720.99 490.99,-720.99 490.99,-720.99 435.99,-720.99 435.99,-720.99 429.99,-720.99 423.99,-714.99 423.99,-708.99 423.99,-708.99 423.99,-696.99 423.99,-696.99 423.99,-690.99 429.99,-684.99 435.99,-684.99"/>
<text text-anchor="middle" x="463.49" y="-699.29" font-family="Arial" font-size="14.00">tutorialinfo</text>
</g>
<!-- div&#45;&gt;tutorialinfo -->
<g id="edge25" class="edge">
<title>div&#45;&gt;tutorialinfo</title>
<path fill="none" stroke="#1f78b4" d="M372.65,-603.1C390.76,-623 419.91,-655.07 440.3,-677.48"/>
<polygon fill="#a6cee3" stroke="#1f78b4" points="437.79,-679.93 447.11,-684.97 442.97,-675.22 437.79,-679.93"/>
</g>
<!-- stepxmp -->
<g id="node27" class="node">
<title>stepxmp</title>
<path fill="#1afabc" stroke="black" d="M340.39,-708.9C340.39,-708.9 384.39,-708.9 384.39,-708.9 390.39,-708.9 396.39,-714.9 396.39,-720.9 396.39,-720.9 396.39,-732.9 396.39,-732.9 396.39,-738.9 390.39,-744.9 384.39,-744.9 384.39,-744.9 340.39,-744.9 340.39,-744.9 334.39,-744.9 328.39,-738.9 328.39,-732.9 328.39,-732.9 328.39,-720.9 328.39,-720.9 328.39,-714.9 334.39,-708.9 340.39,-708.9"/>
<text text-anchor="middle" x="362.39" y="-723.2" font-family="Arial" font-size="14.00">stepxmp</text>
</g>
<!-- div&#45;&gt;stepxmp -->
<g id="edge26" class="edge">
<title>div&#45;&gt;stepxmp</title>
<path fill="none" stroke="#1f78b4" d="M356.92,-603.17C357.98,-627.35 359.88,-670.21 361.13,-698.6"/>
<polygon fill="#a6cee3" stroke="#1f78b4" points="357.64,-698.86 361.58,-708.69 364.64,-698.55 357.64,-698.86"/>
</g>
<!-- stepresult -->
<g id="node28" class="node">
<title>stepresult</title>
<path fill="#1afabc" stroke="black" d="M200.58,-630.62C200.58,-630.62 251.58,-630.62 251.58,-630.62 257.58,-630.62 263.58,-636.62 263.58,-642.62 263.58,-642.62 263.58,-654.62 263.58,-654.62 263.58,-660.62 257.58,-666.62 251.58,-666.62 251.58,-666.62 200.58,-666.62 200.58,-666.62 194.58,-666.62 188.58,-660.62 188.58,-654.62 188.58,-654.62 188.58,-642.62 188.58,-642.62 188.58,-636.62 194.58,-630.62 200.58,-630.62"/>
<text text-anchor="middle" x="226.08" y="-644.92" font-family="Arial" font-size="14.00">stepresult</text>
</g>
<!-- div&#45;&gt;stepresult -->
<g id="edge27" class="edge">
<title>div&#45;&gt;stepresult</title>
<path fill="none" stroke="#1f78b4" d="M328.85,-598.26C312.47,-606.29 291.19,-616.72 272.25,-626"/>
<polygon fill="#a6cee3" stroke="#1f78b4" points="270.61,-622.9 263.17,-630.45 273.69,-629.19 270.61,-622.9"/>
</g>
<!-- steptroubleshooting -->
<g id="node29" class="node">
<title>steptroubleshooting</title>
<path fill="#1afabc" stroke="black" d="M286.87,-631.52C286.87,-631.52 396.87,-631.52 396.87,-631.52 402.87,-631.52 408.87,-637.52 408.87,-643.52 408.87,-643.52 408.87,-655.52 408.87,-655.52 408.87,-661.52 402.87,-667.52 396.87,-667.52 396.87,-667.52 286.87,-667.52 286.87,-667.52 280.87,-667.52 274.87,-661.52 274.87,-655.52 274.87,-655.52 274.87,-643.52 274.87,-643.52 274.87,-637.52 280.87,-631.52 286.87,-631.52"/>
<text text-anchor="middle" x="341.87" y="-645.82" font-family="Arial" font-size="14.00">steptroubleshooting</text>
</g>
<!-- div&#45;&gt;steptroubleshooting -->
<g id="edge28" class="edge">
<title>div&#45;&gt;steptroubleshooting</title>
<path fill="none" stroke="#1f78b4" d="M352.07,-603.25C350.82,-608.89 349.43,-615.23 348.07,-621.37"/>
<polygon fill="#a6cee3" stroke="#1f78b4" points="344.61,-620.83 345.88,-631.35 351.44,-622.34 344.61,-620.83"/>
</g>
<!-- choicetable -->
<g id="node31" class="node">
<title>choicetable</title>
<path fill="#1afabc" stroke="black" d="M699.3,-233.55C699.3,-233.55 760.3,-233.55 760.3,-233.55 766.3,-233.55 772.3,-239.55 772.3,-245.55 772.3,-245.55 772.3,-257.55 772.3,-257.55 772.3,-263.55 766.3,-269.55 760.3,-269.55 760.3,-269.55 699.3,-269.55 699.3,-269.55 693.3,-269.55 687.3,-263.55 687.3,-257.55 687.3,-257.55 687.3,-245.55 687.3,-245.55 687.3,-239.55 693.3,-233.55 699.3,-233.55"/>
<text text-anchor="middle" x="729.8" y="-247.85" font-family="Arial" font-size="14.00">choicetable</text>
</g>
<!-- simpletable&#45;&gt;choicetable -->
<g id="edge30" class="edge">
<title>simpletable&#45;&gt;choicetable</title>
<path fill="none" stroke="#1f78b4" d="M601.1,-291.48C624.3,-284.28 653.03,-275.37 677.45,-267.79"/>
<polygon fill="#a6cee3" stroke="#1f78b4" points="678.76,-271.05 687.27,-264.74 676.68,-264.36 678.76,-271.05"/>
</g>
<!-- chhead -->
<g id="node33" class="node">
<title>chhead</title>
<path fill="#1afabc" stroke="black" d="M385.48,-36.95C385.48,-36.95 422.48,-36.95 422.48,-36.95 428.48,-36.95 434.48,-42.95 434.48,-48.95 434.48,-48.95 434.48,-60.95 434.48,-60.95 434.48,-66.95 428.48,-72.95 422.48,-72.95 422.48,-72.95 385.48,-72.95 385.48,-72.95 379.48,-72.95 373.48,-66.95 373.48,-60.95 373.48,-60.95 373.48,-48.95 373.48,-48.95 373.48,-42.95 379.48,-36.95 385.48,-36.95"/>
<text text-anchor="middle" x="403.98" y="-51.25" font-family="Arial" font-size="14.00">chhead</text>
</g>
<!-- sthead&#45;&gt;chhead -->
<g id="edge32" class="edge">
<title>sthead&#45;&gt;chhead</title>
<path fill="none" stroke="#1f78b4" d="M387.03,-184.77C390.34,-159.47 396.36,-113.37 400.26,-83.46"/>
<polygon fill="#a6cee3" stroke="#1f78b4" points="403.77,-83.61 401.6,-73.24 396.83,-82.7 403.77,-83.61"/>
</g>
<!-- choptionhd -->
<g id="node35" class="node">
<title>choptionhd</title>
<path fill="#1afabc" stroke="black" d="M703.01,-485.24C703.01,-485.24 762.01,-485.24 762.01,-485.24 768.01,-485.24 774.01,-491.24 774.01,-497.24 774.01,-497.24 774.01,-509.24 774.01,-509.24 774.01,-515.24 768.01,-521.24 762.01,-521.24 762.01,-521.24 703.01,-521.24 703.01,-521.24 697.01,-521.24 691.01,-515.24 691.01,-509.24 691.01,-509.24 691.01,-497.24 691.01,-497.24 691.01,-491.24 697.01,-485.24 703.01,-485.24"/>
<text text-anchor="middle" x="732.51" y="-499.54" font-family="Arial" font-size="14.00">choptionhd</text>
</g>
<!-- stentry&#45;&gt;choptionhd -->
<g id="edge34" class="edge">
<title>stentry&#45;&gt;choptionhd</title>
<path fill="none" stroke="#1f78b4" d="M598.56,-465.57C621.38,-471.99 653.9,-481.13 681.18,-488.8"/>
<polygon fill="#a6cee3" stroke="#1f78b4" points="680.39,-492.22 690.96,-491.56 682.28,-485.48 680.39,-492.22"/>
</g>
<!-- chdeschd -->
<g id="node36" class="node">
<title>chdeschd</title>
<path fill="#1afabc" stroke="black" d="M702.26,-439.1C702.26,-439.1 752.26,-439.1 752.26,-439.1 758.26,-439.1 764.26,-445.1 764.26,-451.1 764.26,-451.1 764.26,-463.1 764.26,-463.1 764.26,-469.1 758.26,-475.1 752.26,-475.1 752.26,-475.1 702.26,-475.1 702.26,-475.1 696.26,-475.1 690.26,-469.1 690.26,-463.1 690.26,-463.1 690.26,-451.1 690.26,-451.1 690.26,-445.1 696.26,-439.1 702.26,-439.1"/>
<text text-anchor="middle" x="727.26" y="-453.4" font-family="Arial" font-size="14.00">chdeschd</text>
</g>
<!-- stentry&#45;&gt;chdeschd -->
<g id="edge35" class="edge">
<title>stentry&#45;&gt;chdeschd</title>
<path fill="none" stroke="#1f78b4" d="M598.36,-457.43C621.04,-457.37 653.27,-457.29 679.82,-457.22"/>
<polygon fill="#a6cee3" stroke="#1f78b4" points="680.07,-460.72 690.06,-457.19 680.05,-453.72 680.07,-460.72"/>
</g>
<!-- choption -->
<g id="node37" class="node">
<title>choption</title>
<path fill="#1afabc" stroke="black" d="M650.57,-571.34C650.57,-571.34 694.57,-571.34 694.57,-571.34 700.57,-571.34 706.57,-577.34 706.57,-583.34 706.57,-583.34 706.57,-595.34 706.57,-595.34 706.57,-601.34 700.57,-607.34 694.57,-607.34 694.57,-607.34 650.57,-607.34 650.57,-607.34 644.57,-607.34 638.57,-601.34 638.57,-595.34 638.57,-595.34 638.57,-583.34 638.57,-583.34 638.57,-577.34 644.57,-571.34 650.57,-571.34"/>
<text text-anchor="middle" x="672.57" y="-585.64" font-family="Arial" font-size="14.00">choption</text>
</g>
<!-- stentry&#45;&gt;choption -->
<g id="edge36" class="edge">
<title>stentry&#45;&gt;choption</title>
<path fill="none" stroke="#1f78b4" d="M583.92,-475.55C601.57,-498.21 631.97,-537.23 652.17,-563.16"/>
<polygon fill="#a6cee3" stroke="#1f78b4" points="649.43,-565.34 658.34,-571.08 654.96,-561.04 649.43,-565.34"/>
</g>
<!-- chdesc -->
<g id="node38" class="node">
<title>chdesc</title>
<path fill="#1afabc" stroke="black" d="M613.05,-516.79C613.05,-516.79 648.05,-516.79 648.05,-516.79 654.05,-516.79 660.05,-522.79 660.05,-528.79 660.05,-528.79 660.05,-540.79 660.05,-540.79 660.05,-546.79 654.05,-552.79 648.05,-552.79 648.05,-552.79 613.05,-552.79 613.05,-552.79 607.05,-552.79 601.05,-546.79 601.05,-540.79 601.05,-540.79 601.05,-528.79 601.05,-528.79 601.05,-522.79 607.05,-516.79 613.05,-516.79"/>
<text text-anchor="middle" x="630.55" y="-531.09" font-family="Arial" font-size="14.00">chdesc</text>
</g>
<!-- stentry&#45;&gt;chdesc -->
<g id="edge37" class="edge">
<title>stentry&#45;&gt;chdesc</title>
<path fill="none" stroke="#1f78b4" d="M584.24,-475.82C591.95,-485.63 601.58,-497.9 610.06,-508.7"/>
<polygon fill="#a6cee3" stroke="#1f78b4" points="607.34,-510.9 616.27,-516.61 612.85,-506.58 607.34,-510.9"/>
</g>
<!-- chrow -->
<g id="node40" class="node">
<title>chrow</title>
<path fill="#1afabc" stroke="black" d="M171.28,-537.82C171.28,-537.82 201.28,-537.82 201.28,-537.82 207.28,-537.82 213.28,-543.82 213.28,-549.82 213.28,-549.82 213.28,-561.82 213.28,-561.82 213.28,-567.82 207.28,-573.82 201.28,-573.82 201.28,-573.82 171.28,-573.82 171.28,-573.82 165.28,-573.82 159.28,-567.82 159.28,-561.82 159.28,-561.82 159.28,-549.82 159.28,-549.82 159.28,-543.82 165.28,-537.82 171.28,-537.82"/>
<text text-anchor="middle" x="186.28" y="-552.12" font-family="Arial" font-size="14.00">chrow</text>
</g>
<!-- strow&#45;&gt;chrow -->
<g id="edge39" class="edge">
<title>strow&#45;&gt;chrow</title>
<path fill="none" stroke="#1f78b4" d="M255.59,-493.98C243.33,-504.92 227.54,-519.01 214.12,-530.98"/>
<polygon fill="#a6cee3" stroke="#1f78b4" points="211.68,-528.47 206.55,-537.74 216.34,-533.7 211.68,-528.47"/>
</g>
</g>
</svg>
