<?xml version="1.0" encoding="UTF-8" standalone="no"?>
<!DOCTYPE svg PUBLIC "-//W3C//DTD SVG 1.1//EN"
 "http://www.w3.org/Graphics/SVG/1.1/DTD/svg11.dtd">
<!-- Generated by graphviz version 6.0.1 (20220911.1526)
 -->
<!-- Pages: 1 -->
<svg width="1287pt" height="1052pt"
 viewBox="0.00 0.00 1287.00 1052.00" xmlns="http://www.w3.org/2000/svg" xmlns:xlink="http://www.w3.org/1999/xlink">
<g id="graph0" class="graph" transform="scale(1 1) rotate(0) translate(4 1048)">
<polygon fill="white" stroke="none" points="-4,4 -4,-1048 1283,-1048 1283,4 -4,4"/>
<!-- bookmapModule -->
<g id="node1" class="node">
<title>bookmapModule</title>
<path fill="#dddddd" stroke="black" d="M538.64,-544.85C538.64,-544.85 632.64,-544.85 632.64,-544.85 638.64,-544.85 644.64,-550.85 644.64,-556.85 644.64,-556.85 644.64,-568.85 644.64,-568.85 644.64,-574.85 638.64,-580.85 632.64,-580.85 632.64,-580.85 538.64,-580.85 538.64,-580.85 532.64,-580.85 526.64,-574.85 526.64,-568.85 526.64,-568.85 526.64,-556.85 526.64,-556.85 526.64,-550.85 532.64,-544.85 538.64,-544.85"/>
<text text-anchor="middle" x="585.64" y="-559.15" font-family="Arial" font-size="14.00">bookmapModule</text>
</g>
<!-- map -->
<g id="node2" class="node">
<title>map</title>
<path fill="#afa7f4" stroke="black" d="M691.18,-422.24C691.18,-422.24 721.18,-422.24 721.18,-422.24 727.18,-422.24 733.18,-428.24 733.18,-434.24 733.18,-434.24 733.18,-446.24 733.18,-446.24 733.18,-452.24 727.18,-458.24 721.18,-458.24 721.18,-458.24 691.18,-458.24 691.18,-458.24 685.18,-458.24 679.18,-452.24 679.18,-446.24 679.18,-446.24 679.18,-434.24 679.18,-434.24 679.18,-428.24 685.18,-422.24 691.18,-422.24"/>
<text text-anchor="middle" x="706.18" y="-436.54" font-family="Arial" font-size="14.00">map</text>
</g>
<!-- bookmapModule&#45;&gt;map -->
<g id="edge1" class="edge">
<title>bookmapModule&#45;&gt;map</title>
<path fill="none" stroke="#1f78b4" d="M603.42,-544.76C623.99,-523.84 657.98,-489.26 681.19,-465.65"/>
<polygon fill="#a6cee3" stroke="#1f78b4" points="683.8,-467.99 688.32,-458.4 678.81,-463.08 683.8,-467.99"/>
</g>
<!-- topicmeta -->
<g id="node4" class="node">
<title>topicmeta</title>
<path fill="#afa7f4" stroke="black" d="M655.52,-368.43C655.52,-368.43 707.52,-368.43 707.52,-368.43 713.52,-368.43 719.52,-374.43 719.52,-380.43 719.52,-380.43 719.52,-392.43 719.52,-392.43 719.52,-398.43 713.52,-404.43 707.52,-404.43 707.52,-404.43 655.52,-404.43 655.52,-404.43 649.52,-404.43 643.52,-398.43 643.52,-392.43 643.52,-392.43 643.52,-380.43 643.52,-380.43 643.52,-374.43 649.52,-368.43 655.52,-368.43"/>
<text text-anchor="middle" x="681.52" y="-382.73" font-family="Arial" font-size="14.00">topicmeta</text>
</g>
<!-- bookmapModule&#45;&gt;topicmeta -->
<g id="edge3" class="edge">
<title>bookmapModule&#45;&gt;topicmeta</title>
<path fill="none" stroke="#1f78b4" d="M595.54,-544.63C612.45,-513.52 646.98,-449.98 666.75,-413.61"/>
<polygon fill="#a6cee3" stroke="#1f78b4" points="669.97,-415.01 671.67,-404.55 663.82,-411.66 669.97,-415.01"/>
</g>
<!-- topicref -->
<g id="node6" class="node">
<title>topicref</title>
<path fill="#afa7f4" stroke="black" d="M271.46,-230.72C271.46,-230.72 308.46,-230.72 308.46,-230.72 314.46,-230.72 320.46,-236.72 320.46,-242.72 320.46,-242.72 320.46,-254.72 320.46,-254.72 320.46,-260.72 314.46,-266.72 308.46,-266.72 308.46,-266.72 271.46,-266.72 271.46,-266.72 265.46,-266.72 259.46,-260.72 259.46,-254.72 259.46,-254.72 259.46,-242.72 259.46,-242.72 259.46,-236.72 265.46,-230.72 271.46,-230.72"/>
<text text-anchor="middle" x="289.96" y="-245.02" font-family="Arial" font-size="14.00">topicref</text>
</g>
<!-- bookmapModule&#45;&gt;topicref -->
<g id="edge5" class="edge">
<title>bookmapModule&#45;&gt;topicref</title>
<path fill="none" stroke="#1f78b4" d="M568.46,-544.6C518.35,-491.36 372.18,-336.08 314.14,-274.41"/>
<polygon fill="#a6cee3" stroke="#1f78b4" points="316.59,-271.9 307.19,-267.02 311.49,-276.7 316.59,-271.9"/>
</g>
<!-- publisher -->
<g id="node30" class="node">
<title>publisher</title>
<path fill="#afa7f4" stroke="black" d="M741.67,-467.27C741.67,-467.27 788.67,-467.27 788.67,-467.27 794.67,-467.27 800.67,-473.27 800.67,-479.27 800.67,-479.27 800.67,-491.27 800.67,-491.27 800.67,-497.27 794.67,-503.27 788.67,-503.27 788.67,-503.27 741.67,-503.27 741.67,-503.27 735.67,-503.27 729.67,-497.27 729.67,-491.27 729.67,-491.27 729.67,-479.27 729.67,-479.27 729.67,-473.27 735.67,-467.27 741.67,-467.27"/>
<text text-anchor="middle" x="765.17" y="-481.57" font-family="Arial" font-size="14.00">publisher</text>
</g>
<!-- bookmapModule&#45;&gt;publisher -->
<g id="edge29" class="edge">
<title>bookmapModule&#45;&gt;publisher</title>
<path fill="none" stroke="#1f78b4" d="M627.73,-544.66C655.48,-532.67 691.79,-516.98 720.12,-504.74"/>
<polygon fill="#a6cee3" stroke="#1f78b4" points="721.61,-507.91 729.4,-500.73 718.83,-501.48 721.61,-507.91"/>
</g>
<!-- data -->
<g id="node32" class="node">
<title>data</title>
<path fill="#afa7f4" stroke="black" d="M929.65,-778.91C929.65,-778.91 959.65,-778.91 959.65,-778.91 965.65,-778.91 971.65,-784.91 971.65,-790.91 971.65,-790.91 971.65,-802.91 971.65,-802.91 971.65,-808.91 965.65,-814.91 959.65,-814.91 959.65,-814.91 929.65,-814.91 929.65,-814.91 923.65,-814.91 917.65,-808.91 917.65,-802.91 917.65,-802.91 917.65,-790.91 917.65,-790.91 917.65,-784.91 923.65,-778.91 929.65,-778.91"/>
<text text-anchor="middle" x="944.65" y="-793.21" font-family="Arial" font-size="14.00">data</text>
</g>
<!-- bookmapModule&#45;&gt;data -->
<g id="edge31" class="edge">
<title>bookmapModule&#45;&gt;data</title>
<path fill="none" stroke="#1f78b4" d="M613.51,-581.02C677.97,-623.05 837.29,-726.92 908.84,-773.57"/>
<polygon fill="#a6cee3" stroke="#1f78b4" points="907.24,-776.7 917.53,-779.23 911.06,-770.84 907.24,-776.7"/>
</g>
<!-- ph -->
<g id="node57" class="node">
<title>ph</title>
<path fill="#afa7f4" stroke="black" d="M370.1,-808.6C370.1,-808.6 400.1,-808.6 400.1,-808.6 406.1,-808.6 412.1,-814.6 412.1,-820.6 412.1,-820.6 412.1,-832.6 412.1,-832.6 412.1,-838.6 406.1,-844.6 400.1,-844.6 400.1,-844.6 370.1,-844.6 370.1,-844.6 364.1,-844.6 358.1,-838.6 358.1,-832.6 358.1,-832.6 358.1,-820.6 358.1,-820.6 358.1,-814.6 364.1,-808.6 370.1,-808.6"/>
<text text-anchor="middle" x="385.1" y="-822.9" font-family="Arial" font-size="14.00">ph</text>
</g>
<!-- bookmapModule&#45;&gt;ph -->
<g id="edge56" class="edge">
<title>bookmapModule&#45;&gt;ph</title>
<path fill="none" stroke="#1f78b4" d="M571.85,-580.98C537.08,-626.71 445.67,-746.94 405.05,-800.37"/>
<polygon fill="#a6cee3" stroke="#1f78b4" points="402.25,-798.27 398.98,-808.35 407.82,-802.5 402.25,-798.27"/>
</g>
<!-- title -->
<g id="node68" class="node">
<title>title</title>
<path fill="#afa7f4" stroke="black" d="M592.8,-385.62C592.8,-385.62 622.8,-385.62 622.8,-385.62 628.8,-385.62 634.8,-391.62 634.8,-397.62 634.8,-397.62 634.8,-409.62 634.8,-409.62 634.8,-415.62 628.8,-421.62 622.8,-421.62 622.8,-421.62 592.8,-421.62 592.8,-421.62 586.8,-421.62 580.8,-415.62 580.8,-409.62 580.8,-409.62 580.8,-397.62 580.8,-397.62 580.8,-391.62 586.8,-385.62 592.8,-385.62"/>
<text text-anchor="middle" x="607.8" y="-399.92" font-family="Arial" font-size="14.00">title</text>
</g>
<!-- bookmapModule&#45;&gt;title -->
<g id="edge67" class="edge">
<title>bookmapModule&#45;&gt;title</title>
<path fill="none" stroke="#1f78b4" d="M588.18,-544.58C592.02,-516.99 599.33,-464.44 603.86,-431.88"/>
<polygon fill="#a6cee3" stroke="#1f78b4" points="607.37,-432.06 605.29,-421.67 600.44,-431.09 607.37,-432.06"/>
</g>
<!-- bookmap -->
<g id="node3" class="node">
<title>bookmap</title>
<path fill="#1afabc" stroke="black" d="M778.25,-320.04C778.25,-320.04 827.25,-320.04 827.25,-320.04 833.25,-320.04 839.25,-326.04 839.25,-332.04 839.25,-332.04 839.25,-344.04 839.25,-344.04 839.25,-350.04 833.25,-356.04 827.25,-356.04 827.25,-356.04 778.25,-356.04 778.25,-356.04 772.25,-356.04 766.25,-350.04 766.25,-344.04 766.25,-344.04 766.25,-332.04 766.25,-332.04 766.25,-326.04 772.25,-320.04 778.25,-320.04"/>
<text text-anchor="middle" x="802.75" y="-334.34" font-family="Arial" font-size="14.00">bookmap</text>
</g>
<!-- map&#45;&gt;bookmap -->
<g id="edge2" class="edge">
<title>map&#45;&gt;bookmap</title>
<path fill="none" stroke="#1f78b4" d="M723.44,-421.97C738.82,-405.69 761.49,-381.71 778.65,-363.54"/>
<polygon fill="#a6cee3" stroke="#1f78b4" points="781.31,-365.83 785.64,-356.15 776.22,-361.02 781.31,-365.83"/>
</g>
<!-- bookmeta -->
<g id="node5" class="node">
<title>bookmeta</title>
<path fill="#1afabc" stroke="black" d="M744.36,-232.13C744.36,-232.13 797.36,-232.13 797.36,-232.13 803.36,-232.13 809.36,-238.13 809.36,-244.13 809.36,-244.13 809.36,-256.13 809.36,-256.13 809.36,-262.13 803.36,-268.13 797.36,-268.13 797.36,-268.13 744.36,-268.13 744.36,-268.13 738.36,-268.13 732.36,-262.13 732.36,-256.13 732.36,-256.13 732.36,-244.13 732.36,-244.13 732.36,-238.13 738.36,-232.13 744.36,-232.13"/>
<text text-anchor="middle" x="770.86" y="-246.43" font-family="Arial" font-size="14.00">bookmeta</text>
</g>
<!-- topicmeta&#45;&gt;bookmeta -->
<g id="edge4" class="edge">
<title>topicmeta&#45;&gt;bookmeta</title>
<path fill="none" stroke="#1f78b4" d="M693.38,-368.33C708.74,-344.91 735.61,-303.91 753.32,-276.89"/>
<polygon fill="#a6cee3" stroke="#1f78b4" points="756.39,-278.59 758.95,-268.3 750.54,-274.75 756.39,-278.59"/>
</g>
<!-- frontmatter -->
<g id="node7" class="node">
<title>frontmatter</title>
<path fill="#1afabc" stroke="black" d="M43.08,-262.9C43.08,-262.9 102.08,-262.9 102.08,-262.9 108.08,-262.9 114.08,-268.9 114.08,-274.9 114.08,-274.9 114.08,-286.9 114.08,-286.9 114.08,-292.9 108.08,-298.9 102.08,-298.9 102.08,-298.9 43.08,-298.9 43.08,-298.9 37.08,-298.9 31.08,-292.9 31.08,-286.9 31.08,-286.9 31.08,-274.9 31.08,-274.9 31.08,-268.9 37.08,-262.9 43.08,-262.9"/>
<text text-anchor="middle" x="72.58" y="-277.2" font-family="Arial" font-size="14.00">frontmatter</text>
</g>
<!-- topicref&#45;&gt;frontmatter -->
<g id="edge6" class="edge">
<title>topicref&#45;&gt;frontmatter</title>
<path fill="none" stroke="#1f78b4" d="M259.28,-253.27C224.25,-258.45 166.37,-267.02 124.33,-273.24"/>
<polygon fill="#a6cee3" stroke="#1f78b4" points="123.66,-269.8 114.28,-274.73 124.68,-276.72 123.66,-269.8"/>
</g>
<!-- backmatter -->
<g id="node8" class="node">
<title>backmatter</title>
<path fill="#1afabc" stroke="black" d="M273.15,-356.11C273.15,-356.11 333.15,-356.11 333.15,-356.11 339.15,-356.11 345.15,-362.11 345.15,-368.11 345.15,-368.11 345.15,-380.11 345.15,-380.11 345.15,-386.11 339.15,-392.11 333.15,-392.11 333.15,-392.11 273.15,-392.11 273.15,-392.11 267.15,-392.11 261.15,-386.11 261.15,-380.11 261.15,-380.11 261.15,-368.11 261.15,-368.11 261.15,-362.11 267.15,-356.11 273.15,-356.11"/>
<text text-anchor="middle" x="303.15" y="-370.41" font-family="Arial" font-size="14.00">backmatter</text>
</g>
<!-- topicref&#45;&gt;backmatter -->
<g id="edge7" class="edge">
<title>topicref&#45;&gt;backmatter</title>
<path fill="none" stroke="#1f78b4" d="M291.88,-266.96C294.06,-287.67 297.64,-321.71 300.18,-345.86"/>
<polygon fill="#a6cee3" stroke="#1f78b4" points="296.7,-346.28 301.23,-355.86 303.66,-345.55 296.7,-346.28"/>
</g>
<!-- draftintro -->
<g id="node9" class="node">
<title>draftintro</title>
<path fill="#1afabc" stroke="black" d="M115.34,-49.78C115.34,-49.78 161.34,-49.78 161.34,-49.78 167.34,-49.78 173.34,-55.78 173.34,-61.78 173.34,-61.78 173.34,-73.78 173.34,-73.78 173.34,-79.78 167.34,-85.78 161.34,-85.78 161.34,-85.78 115.34,-85.78 115.34,-85.78 109.34,-85.78 103.34,-79.78 103.34,-73.78 103.34,-73.78 103.34,-61.78 103.34,-61.78 103.34,-55.78 109.34,-49.78 115.34,-49.78"/>
<text text-anchor="middle" x="138.34" y="-64.08" font-family="Arial" font-size="14.00">draftintro</text>
</g>
<!-- topicref&#45;&gt;draftintro -->
<g id="edge8" class="edge">
<title>topicref&#45;&gt;draftintro</title>
<path fill="none" stroke="#1f78b4" d="M274.87,-230.71C247.92,-198.55 191.43,-131.13 160.22,-93.89"/>
<polygon fill="#a6cee3" stroke="#1f78b4" points="162.7,-91.4 153.6,-85.99 157.34,-95.9 162.7,-91.4"/>
</g>
<!-- bookabstract -->
<g id="node10" class="node">
<title>bookabstract</title>
<path fill="#1afabc" stroke="black" d="M12.35,-143.74C12.35,-143.74 82.35,-143.74 82.35,-143.74 88.35,-143.74 94.35,-149.74 94.35,-155.74 94.35,-155.74 94.35,-167.74 94.35,-167.74 94.35,-173.74 88.35,-179.74 82.35,-179.74 82.35,-179.74 12.35,-179.74 12.35,-179.74 6.35,-179.74 0.35,-173.74 0.35,-167.74 0.35,-167.74 0.35,-155.74 0.35,-155.74 0.35,-149.74 6.35,-143.74 12.35,-143.74"/>
<text text-anchor="middle" x="47.35" y="-158.04" font-family="Arial" font-size="14.00">bookabstract</text>
</g>
<!-- topicref&#45;&gt;bookabstract -->
<g id="edge9" class="edge">
<title>topicref&#45;&gt;bookabstract</title>
<path fill="none" stroke="#1f78b4" d="M259.24,-237.71C220.27,-223.74 152.32,-199.38 103.88,-182.01"/>
<polygon fill="#a6cee3" stroke="#1f78b4" points="105.06,-178.72 94.47,-178.64 102.7,-185.31 105.06,-178.72"/>
</g>
<!-- dedication -->
<g id="node11" class="node">
<title>dedication</title>
<path fill="#1afabc" stroke="black" d="M168.94,-4.75C168.94,-4.75 222.94,-4.75 222.94,-4.75 228.94,-4.75 234.94,-10.75 234.94,-16.75 234.94,-16.75 234.94,-28.75 234.94,-28.75 234.94,-34.75 228.94,-40.75 222.94,-40.75 222.94,-40.75 168.94,-40.75 168.94,-40.75 162.94,-40.75 156.94,-34.75 156.94,-28.75 156.94,-28.75 156.94,-16.75 156.94,-16.75 156.94,-10.75 162.94,-4.75 168.94,-4.75"/>
<text text-anchor="middle" x="195.94" y="-19.05" font-family="Arial" font-size="14.00">dedication</text>
</g>
<!-- topicref&#45;&gt;dedication -->
<g id="edge10" class="edge">
<title>topicref&#45;&gt;dedication</title>
<path fill="none" stroke="#1f78b4" d="M282.43,-230.61C265.99,-191.11 226.83,-97 207.35,-50.18"/>
<polygon fill="#a6cee3" stroke="#1f78b4" points="210.58,-48.83 203.51,-40.94 204.12,-51.52 210.58,-48.83"/>
</g>
<!-- preface -->
<g id="node12" class="node">
<title>preface</title>
<path fill="#1afabc" stroke="black" d="M237.91,-50.26C237.91,-50.26 275.91,-50.26 275.91,-50.26 281.91,-50.26 287.91,-56.26 287.91,-62.26 287.91,-62.26 287.91,-74.26 287.91,-74.26 287.91,-80.26 281.91,-86.26 275.91,-86.26 275.91,-86.26 237.91,-86.26 237.91,-86.26 231.91,-86.26 225.91,-80.26 225.91,-74.26 225.91,-74.26 225.91,-62.26 225.91,-62.26 225.91,-56.26 231.91,-50.26 237.91,-50.26"/>
<text text-anchor="middle" x="256.91" y="-64.56" font-family="Arial" font-size="14.00">preface</text>
</g>
<!-- topicref&#45;&gt;preface -->
<g id="edge11" class="edge">
<title>topicref&#45;&gt;preface</title>
<path fill="none" stroke="#1f78b4" d="M286.61,-230.43C280.83,-198.86 268.95,-133.98 262.09,-96.56"/>
<polygon fill="#a6cee3" stroke="#1f78b4" points="265.46,-95.54 260.22,-86.34 258.58,-96.8 265.46,-95.54"/>
</g>
<!-- chapter -->
<g id="node13" class="node">
<title>chapter</title>
<path fill="#1afabc" stroke="black" d="M134.13,-241.81C134.13,-241.81 172.13,-241.81 172.13,-241.81 178.13,-241.81 184.13,-247.81 184.13,-253.81 184.13,-253.81 184.13,-265.81 184.13,-265.81 184.13,-271.81 178.13,-277.81 172.13,-277.81 172.13,-277.81 134.13,-277.81 134.13,-277.81 128.13,-277.81 122.13,-271.81 122.13,-265.81 122.13,-265.81 122.13,-253.81 122.13,-253.81 122.13,-247.81 128.13,-241.81 134.13,-241.81"/>
<text text-anchor="middle" x="153.13" y="-256.11" font-family="Arial" font-size="14.00">chapter</text>
</g>
<!-- topicref&#45;&gt;chapter -->
<g id="edge12" class="edge">
<title>topicref&#45;&gt;chapter</title>
<path fill="none" stroke="#1f78b4" d="M259.25,-251.21C240.11,-252.76 215.24,-254.78 194.39,-256.47"/>
<polygon fill="#a6cee3" stroke="#1f78b4" points="193.89,-253 184.21,-257.29 194.46,-259.97 193.89,-253"/>
</g>
<!-- part -->
<g id="node14" class="node">
<title>part</title>
<path fill="#1afabc" stroke="black" d="M317.71,-93.19C317.71,-93.19 347.71,-93.19 347.71,-93.19 353.71,-93.19 359.71,-99.19 359.71,-105.19 359.71,-105.19 359.71,-117.19 359.71,-117.19 359.71,-123.19 353.71,-129.19 347.71,-129.19 347.71,-129.19 317.71,-129.19 317.71,-129.19 311.71,-129.19 305.71,-123.19 305.71,-117.19 305.71,-117.19 305.71,-105.19 305.71,-105.19 305.71,-99.19 311.71,-93.19 317.71,-93.19"/>
<text text-anchor="middle" x="332.71" y="-107.49" font-family="Arial" font-size="14.00">part</text>
</g>
<!-- topicref&#45;&gt;part -->
<g id="edge13" class="edge">
<title>topicref&#45;&gt;part</title>
<path fill="none" stroke="#1f78b4" d="M295.64,-230.46C302.89,-207.14 315.51,-166.53 323.99,-139.26"/>
<polygon fill="#a6cee3" stroke="#1f78b4" points="327.38,-140.12 327.01,-129.53 320.7,-138.04 327.38,-140.12"/>
</g>
<!-- appendix -->
<g id="node15" class="node">
<title>appendix</title>
<path fill="#1afabc" stroke="black" d="M194.07,-378.56C194.07,-378.56 241.07,-378.56 241.07,-378.56 247.07,-378.56 253.07,-384.56 253.07,-390.56 253.07,-390.56 253.07,-402.56 253.07,-402.56 253.07,-408.56 247.07,-414.56 241.07,-414.56 241.07,-414.56 194.07,-414.56 194.07,-414.56 188.07,-414.56 182.07,-408.56 182.07,-402.56 182.07,-402.56 182.07,-390.56 182.07,-390.56 182.07,-384.56 188.07,-378.56 194.07,-378.56"/>
<text text-anchor="middle" x="217.57" y="-392.86" font-family="Arial" font-size="14.00">appendix</text>
</g>
<!-- topicref&#45;&gt;appendix -->
<g id="edge14" class="edge">
<title>topicref&#45;&gt;appendix</title>
<path fill="none" stroke="#1f78b4" d="M281.09,-266.85C268.55,-292.46 245.56,-339.41 230.94,-369.25"/>
<polygon fill="#a6cee3" stroke="#1f78b4" points="227.77,-367.77 226.52,-378.29 234.06,-370.84 227.77,-367.77"/>
</g>
<!-- appendices -->
<g id="node16" class="node">
<title>appendices</title>
<path fill="#1afabc" stroke="black" d="M19.96,-211.87C19.96,-211.87 81.96,-211.87 81.96,-211.87 87.96,-211.87 93.96,-217.87 93.96,-223.87 93.96,-223.87 93.96,-235.87 93.96,-235.87 93.96,-241.87 87.96,-247.87 81.96,-247.87 81.96,-247.87 19.96,-247.87 19.96,-247.87 13.96,-247.87 7.96,-241.87 7.96,-235.87 7.96,-235.87 7.96,-223.87 7.96,-223.87 7.96,-217.87 13.96,-211.87 19.96,-211.87"/>
<text text-anchor="middle" x="50.96" y="-226.17" font-family="Arial" font-size="14.00">appendices</text>
</g>
<!-- topicref&#45;&gt;appendices -->
<g id="edge15" class="edge">
<title>topicref&#45;&gt;appendices</title>
<path fill="none" stroke="#1f78b4" d="M259.21,-246.3C220.09,-243.21 151.92,-237.83 104.27,-234.07"/>
<polygon fill="#a6cee3" stroke="#1f78b4" points="104.37,-230.57 94.13,-233.27 103.82,-237.55 104.37,-230.57"/>
</g>
<!-- notices -->
<g id="node17" class="node">
<title>notices</title>
<path fill="#1afabc" stroke="black" d="M193.18,-96.06C193.18,-96.06 228.18,-96.06 228.18,-96.06 234.18,-96.06 240.18,-102.06 240.18,-108.06 240.18,-108.06 240.18,-120.06 240.18,-120.06 240.18,-126.06 234.18,-132.06 228.18,-132.06 228.18,-132.06 193.18,-132.06 193.18,-132.06 187.18,-132.06 181.18,-126.06 181.18,-120.06 181.18,-120.06 181.18,-108.06 181.18,-108.06 181.18,-102.06 187.18,-96.06 193.18,-96.06"/>
<text text-anchor="middle" x="210.68" y="-110.36" font-family="Arial" font-size="14.00">notices</text>
</g>
<!-- topicref&#45;&gt;notices -->
<g id="edge16" class="edge">
<title>topicref&#45;&gt;notices</title>
<path fill="none" stroke="#1f78b4" d="M279.27,-230.56C265.74,-207.57 242.3,-167.77 226.64,-141.17"/>
<polygon fill="#a6cee3" stroke="#1f78b4" points="229.55,-139.21 221.46,-132.37 223.52,-142.76 229.55,-139.21"/>
</g>
<!-- amendments -->
<g id="node18" class="node">
<title>amendments</title>
<path fill="#1afabc" stroke="black" d="M425.95,-215.48C425.95,-215.48 497.95,-215.48 497.95,-215.48 503.95,-215.48 509.95,-221.48 509.95,-227.48 509.95,-227.48 509.95,-239.48 509.95,-239.48 509.95,-245.48 503.95,-251.48 497.95,-251.48 497.95,-251.48 425.95,-251.48 425.95,-251.48 419.95,-251.48 413.95,-245.48 413.95,-239.48 413.95,-239.48 413.95,-227.48 413.95,-227.48 413.95,-221.48 419.95,-215.48 425.95,-215.48"/>
<text text-anchor="middle" x="461.95" y="-229.78" font-family="Arial" font-size="14.00">amendments</text>
</g>
<!-- topicref&#45;&gt;amendments -->
<g id="edge17" class="edge">
<title>topicref&#45;&gt;amendments</title>
<path fill="none" stroke="#1f78b4" d="M320.71,-246C343.77,-243.96 376.03,-241.1 403.89,-238.63"/>
<polygon fill="#a6cee3" stroke="#1f78b4" points="404.28,-242.11 413.93,-237.74 403.66,-235.14 404.28,-242.11"/>
</g>
<!-- colophon -->
<g id="node19" class="node">
<title>colophon</title>
<path fill="#1afabc" stroke="black" d="M337.02,-29.4C337.02,-29.4 384.02,-29.4 384.02,-29.4 390.02,-29.4 396.02,-35.4 396.02,-41.4 396.02,-41.4 396.02,-53.4 396.02,-53.4 396.02,-59.4 390.02,-65.4 384.02,-65.4 384.02,-65.4 337.02,-65.4 337.02,-65.4 331.02,-65.4 325.02,-59.4 325.02,-53.4 325.02,-53.4 325.02,-41.4 325.02,-41.4 325.02,-35.4 331.02,-29.4 337.02,-29.4"/>
<text text-anchor="middle" x="360.52" y="-43.7" font-family="Arial" font-size="14.00">colophon</text>
</g>
<!-- topicref&#45;&gt;colophon -->
<g id="edge18" class="edge">
<title>topicref&#45;&gt;colophon</title>
<path fill="none" stroke="#1f78b4" d="M296.35,-230.5C308.76,-195.09 336.2,-116.8 350.85,-74.99"/>
<polygon fill="#a6cee3" stroke="#1f78b4" points="354.19,-76.03 354.2,-65.43 347.59,-73.71 354.19,-76.03"/>
</g>
<!-- booklists -->
<g id="node20" class="node">
<title>booklists</title>
<path fill="#1afabc" stroke="black" d="M115.31,-120.28C115.31,-120.28 160.31,-120.28 160.31,-120.28 166.31,-120.28 172.31,-126.28 172.31,-132.28 172.31,-132.28 172.31,-144.28 172.31,-144.28 172.31,-150.28 166.31,-156.28 160.31,-156.28 160.31,-156.28 115.31,-156.28 115.31,-156.28 109.31,-156.28 103.31,-150.28 103.31,-144.28 103.31,-144.28 103.31,-132.28 103.31,-132.28 103.31,-126.28 109.31,-120.28 115.31,-120.28"/>
<text text-anchor="middle" x="137.81" y="-134.58" font-family="Arial" font-size="14.00">booklists</text>
</g>
<!-- topicref&#45;&gt;booklists -->
<g id="edge19" class="edge">
<title>topicref&#45;&gt;booklists</title>
<path fill="none" stroke="#1f78b4" d="M264.84,-230.49C239.21,-211.89 199.32,-182.92 171.08,-162.43"/>
<polygon fill="#a6cee3" stroke="#1f78b4" points="172.87,-159.4 162.72,-156.36 168.76,-165.07 172.87,-159.4"/>
</g>
<!-- toc -->
<g id="node21" class="node">
<title>toc</title>
<path fill="#1afabc" stroke="black" d="M390.56,-170.14C390.56,-170.14 420.56,-170.14 420.56,-170.14 426.56,-170.14 432.56,-176.14 432.56,-182.14 432.56,-182.14 432.56,-194.14 432.56,-194.14 432.56,-200.14 426.56,-206.14 420.56,-206.14 420.56,-206.14 390.56,-206.14 390.56,-206.14 384.56,-206.14 378.56,-200.14 378.56,-194.14 378.56,-194.14 378.56,-182.14 378.56,-182.14 378.56,-176.14 384.56,-170.14 390.56,-170.14"/>
<text text-anchor="middle" x="405.56" y="-184.44" font-family="Arial" font-size="14.00">toc</text>
</g>
<!-- topicref&#45;&gt;toc -->
<g id="edge20" class="edge">
<title>topicref&#45;&gt;toc</title>
<path fill="none" stroke="#1f78b4" d="M320.64,-232.65C335.62,-224.79 353.75,-215.29 369.41,-207.09"/>
<polygon fill="#a6cee3" stroke="#1f78b4" points="371.07,-210.17 378.3,-202.43 367.82,-203.97 371.07,-210.17"/>
</g>
<!-- figurelist -->
<g id="node22" class="node">
<title>figurelist</title>
<path fill="#1afabc" stroke="black" d="M104.02,-307.93C104.02,-307.93 147.02,-307.93 147.02,-307.93 153.02,-307.93 159.02,-313.93 159.02,-319.93 159.02,-319.93 159.02,-331.93 159.02,-331.93 159.02,-337.93 153.02,-343.93 147.02,-343.93 147.02,-343.93 104.02,-343.93 104.02,-343.93 98.02,-343.93 92.02,-337.93 92.02,-331.93 92.02,-331.93 92.02,-319.93 92.02,-319.93 92.02,-313.93 98.02,-307.93 104.02,-307.93"/>
<text text-anchor="middle" x="125.52" y="-322.23" font-family="Arial" font-size="14.00">figurelist</text>
</g>
<!-- topicref&#45;&gt;figurelist -->
<g id="edge21" class="edge">
<title>topicref&#45;&gt;figurelist</title>
<path fill="none" stroke="#1f78b4" d="M259.42,-263.06C233.88,-275.05 197.17,-292.29 168.64,-305.69"/>
<polygon fill="#a6cee3" stroke="#1f78b4" points="166.87,-302.65 159.3,-310.07 169.84,-308.99 166.87,-302.65"/>
</g>
<!-- tablelist -->
<g id="node23" class="node">
<title>tablelist</title>
<path fill="#1afabc" stroke="black" d="M386.46,-76.27C386.46,-76.27 424.46,-76.27 424.46,-76.27 430.46,-76.27 436.46,-82.27 436.46,-88.27 436.46,-88.27 436.46,-100.27 436.46,-100.27 436.46,-106.27 430.46,-112.27 424.46,-112.27 424.46,-112.27 386.46,-112.27 386.46,-112.27 380.46,-112.27 374.46,-106.27 374.46,-100.27 374.46,-100.27 374.46,-88.27 374.46,-88.27 374.46,-82.27 380.46,-76.27 386.46,-76.27"/>
<text text-anchor="middle" x="405.46" y="-90.57" font-family="Arial" font-size="14.00">tablelist</text>
</g>
<!-- topicref&#45;&gt;tablelist -->
<g id="edge22" class="edge">
<title>topicref&#45;&gt;tablelist</title>
<path fill="none" stroke="#1f78b4" d="M303.44,-230.7C323.67,-203.65 362.03,-152.35 385.51,-120.95"/>
<polygon fill="#a6cee3" stroke="#1f78b4" points="388.53,-122.76 391.71,-112.66 382.92,-118.57 388.53,-122.76"/>
</g>
<!-- abbrevlist -->
<g id="node24" class="node">
<title>abbrevlist</title>
<path fill="#1afabc" stroke="black" d="M255,-1C255,-1 305,-1 305,-1 311,-1 317,-7 317,-13 317,-13 317,-25 317,-25 317,-31 311,-37 305,-37 305,-37 255,-37 255,-37 249,-37 243,-31 243,-25 243,-25 243,-13 243,-13 243,-7 249,-1 255,-1"/>
<text text-anchor="middle" x="280" y="-15.3" font-family="Arial" font-size="14.00">abbrevlist</text>
</g>
<!-- topicref&#45;&gt;abbrevlist -->
<g id="edge23" class="edge">
<title>topicref&#45;&gt;abbrevlist</title>
<path fill="none" stroke="#1f78b4" d="M289.18,-230.7C287.45,-190.87 283.3,-95.13 281.23,-47.25"/>
<polygon fill="#a6cee3" stroke="#1f78b4" points="284.72,-47.1 280.79,-37.26 277.73,-47.4 284.72,-47.1"/>
</g>
<!-- trademarklist -->
<g id="node25" class="node">
<title>trademarklist</title>
<path fill="#1afabc" stroke="black" d="M12.29,-80.37C12.29,-80.37 83.29,-80.37 83.29,-80.37 89.29,-80.37 95.29,-86.37 95.29,-92.37 95.29,-92.37 95.29,-104.37 95.29,-104.37 95.29,-110.37 89.29,-116.37 83.29,-116.37 83.29,-116.37 12.29,-116.37 12.29,-116.37 6.29,-116.37 0.29,-110.37 0.29,-104.37 0.29,-104.37 0.29,-92.37 0.29,-92.37 0.29,-86.37 6.29,-80.37 12.29,-80.37"/>
<text text-anchor="middle" x="47.79" y="-94.67" font-family="Arial" font-size="14.00">trademarklist</text>
</g>
<!-- topicref&#45;&gt;trademarklist -->
<g id="edge24" class="edge">
<title>topicref&#45;&gt;trademarklist</title>
<path fill="none" stroke="#1f78b4" d="M260.75,-230.59C216.93,-203.38 134.17,-152 85.73,-121.92"/>
<polygon fill="#a6cee3" stroke="#1f78b4" points="87.44,-118.87 77.1,-116.57 83.75,-124.82 87.44,-118.87"/>
</g>
<!-- bibliolist -->
<g id="node26" class="node">
<title>bibliolist</title>
<path fill="#1afabc" stroke="black" d="M430.3,-123.26C430.3,-123.26 471.3,-123.26 471.3,-123.26 477.3,-123.26 483.3,-129.26 483.3,-135.26 483.3,-135.26 483.3,-147.26 483.3,-147.26 483.3,-153.26 477.3,-159.26 471.3,-159.26 471.3,-159.26 430.3,-159.26 430.3,-159.26 424.3,-159.26 418.3,-153.26 418.3,-147.26 418.3,-147.26 418.3,-135.26 418.3,-135.26 418.3,-129.26 424.3,-123.26 430.3,-123.26"/>
<text text-anchor="middle" x="450.8" y="-137.56" font-family="Arial" font-size="14.00">bibliolist</text>
</g>
<!-- topicref&#45;&gt;bibliolist -->
<g id="edge25" class="edge">
<title>topicref&#45;&gt;bibliolist</title>
<path fill="none" stroke="#1f78b4" d="M317.25,-230.49C344.25,-212.45 385.71,-184.75 415.27,-165"/>
<polygon fill="#a6cee3" stroke="#1f78b4" points="417.28,-167.87 423.65,-159.4 413.39,-162.05 417.28,-167.87"/>
</g>
<!-- glossarylist -->
<g id="node27" class="node">
<title>glossarylist</title>
<path fill="#1afabc" stroke="black" d="M96.55,-366.4C96.55,-366.4 155.55,-366.4 155.55,-366.4 161.55,-366.4 167.55,-372.4 167.55,-378.4 167.55,-378.4 167.55,-390.4 167.55,-390.4 167.55,-396.4 161.55,-402.4 155.55,-402.4 155.55,-402.4 96.55,-402.4 96.55,-402.4 90.55,-402.4 84.55,-396.4 84.55,-390.4 84.55,-390.4 84.55,-378.4 84.55,-378.4 84.55,-372.4 90.55,-366.4 96.55,-366.4"/>
<text text-anchor="middle" x="126.05" y="-380.7" font-family="Arial" font-size="14.00">glossarylist</text>
</g>
<!-- topicref&#45;&gt;glossarylist -->
<g id="edge26" class="edge">
<title>topicref&#45;&gt;glossarylist</title>
<path fill="none" stroke="#1f78b4" d="M268.2,-266.74C239.3,-290.66 188.14,-333.01 155.72,-359.84"/>
<polygon fill="#a6cee3" stroke="#1f78b4" points="153.38,-357.23 147.91,-366.31 157.84,-362.63 153.38,-357.23"/>
</g>
<!-- indexlist -->
<g id="node28" class="node">
<title>indexlist</title>
<path fill="#1afabc" stroke="black" d="M115.03,-182.35C115.03,-182.35 156.03,-182.35 156.03,-182.35 162.03,-182.35 168.03,-188.35 168.03,-194.35 168.03,-194.35 168.03,-206.35 168.03,-206.35 168.03,-212.35 162.03,-218.35 156.03,-218.35 156.03,-218.35 115.03,-218.35 115.03,-218.35 109.03,-218.35 103.03,-212.35 103.03,-206.35 103.03,-206.35 103.03,-194.35 103.03,-194.35 103.03,-188.35 109.03,-182.35 115.03,-182.35"/>
<text text-anchor="middle" x="135.53" y="-196.65" font-family="Arial" font-size="14.00">indexlist</text>
</g>
<!-- topicref&#45;&gt;indexlist -->
<g id="edge27" class="edge">
<title>topicref&#45;&gt;indexlist</title>
<path fill="none" stroke="#1f78b4" d="M259.45,-239.17C236.07,-231.84 203.53,-221.65 177.66,-213.55"/>
<polygon fill="#a6cee3" stroke="#1f78b4" points="178.7,-210.2 168.11,-210.55 176.6,-216.88 178.7,-210.2"/>
</g>
<!-- booklist -->
<g id="node29" class="node">
<title>booklist</title>
<path fill="#1afabc" stroke="black" d="M187.68,-320.57C187.68,-320.57 225.68,-320.57 225.68,-320.57 231.68,-320.57 237.68,-326.57 237.68,-332.57 237.68,-332.57 237.68,-344.57 237.68,-344.57 237.68,-350.57 231.68,-356.57 225.68,-356.57 225.68,-356.57 187.68,-356.57 187.68,-356.57 181.68,-356.57 175.68,-350.57 175.68,-344.57 175.68,-344.57 175.68,-332.57 175.68,-332.57 175.68,-326.57 181.68,-320.57 187.68,-320.57"/>
<text text-anchor="middle" x="206.68" y="-334.87" font-family="Arial" font-size="14.00">booklist</text>
</g>
<!-- topicref&#45;&gt;booklist -->
<g id="edge28" class="edge">
<title>topicref&#45;&gt;booklist</title>
<path fill="none" stroke="#1f78b4" d="M273.11,-266.91C260.8,-280.18 243.96,-298.35 230.31,-313.07"/>
<polygon fill="#a6cee3" stroke="#1f78b4" points="227.74,-310.7 223.5,-320.41 232.87,-315.46 227.74,-310.7"/>
</g>
<!-- publisherinformation -->
<g id="node31" class="node">
<title>publisherinformation</title>
<path fill="#1afabc" stroke="black" d="M859.33,-361.57C859.33,-361.57 974.33,-361.57 974.33,-361.57 980.33,-361.57 986.33,-367.57 986.33,-373.57 986.33,-373.57 986.33,-385.57 986.33,-385.57 986.33,-391.57 980.33,-397.57 974.33,-397.57 974.33,-397.57 859.33,-397.57 859.33,-397.57 853.33,-397.57 847.33,-391.57 847.33,-385.57 847.33,-385.57 847.33,-373.57 847.33,-373.57 847.33,-367.57 853.33,-361.57 859.33,-361.57"/>
<text text-anchor="middle" x="916.83" y="-375.87" font-family="Arial" font-size="14.00">publisherinformation</text>
</g>
<!-- publisher&#45;&gt;publisherinformation -->
<g id="edge30" class="edge">
<title>publisher&#45;&gt;publisherinformation</title>
<path fill="none" stroke="#1f78b4" d="M791.24,-467.1C816.49,-449.5 854.93,-422.72 882.62,-403.41"/>
<polygon fill="#a6cee3" stroke="#1f78b4" points="884.64,-406.27 890.85,-397.68 880.64,-400.53 884.64,-406.27"/>
</g>
<!-- person -->
<g id="node33" class="node">
<title>person</title>
<path fill="#1afabc" stroke="black" d="M797.01,-756.81C797.01,-756.81 831.01,-756.81 831.01,-756.81 837.01,-756.81 843.01,-762.81 843.01,-768.81 843.01,-768.81 843.01,-780.81 843.01,-780.81 843.01,-786.81 837.01,-792.81 831.01,-792.81 831.01,-792.81 797.01,-792.81 797.01,-792.81 791.01,-792.81 785.01,-786.81 785.01,-780.81 785.01,-780.81 785.01,-768.81 785.01,-768.81 785.01,-762.81 791.01,-756.81 797.01,-756.81"/>
<text text-anchor="middle" x="814.01" y="-771.11" font-family="Arial" font-size="14.00">person</text>
</g>
<!-- data&#45;&gt;person -->
<g id="edge32" class="edge">
<title>data&#45;&gt;person</title>
<path fill="none" stroke="#1f78b4" d="M917.58,-792.33C899.04,-789.19 874.15,-784.98 853.42,-781.47"/>
<polygon fill="#a6cee3" stroke="#1f78b4" points="853.76,-777.98 843.32,-779.77 852.59,-784.89 853.76,-777.98"/>
</g>
<!-- organization -->
<g id="node34" class="node">
<title>organization</title>
<path fill="#1afabc" stroke="black" d="M899.45,-1007.55C899.45,-1007.55 965.45,-1007.55 965.45,-1007.55 971.45,-1007.55 977.45,-1013.55 977.45,-1019.55 977.45,-1019.55 977.45,-1031.55 977.45,-1031.55 977.45,-1037.55 971.45,-1043.55 965.45,-1043.55 965.45,-1043.55 899.45,-1043.55 899.45,-1043.55 893.45,-1043.55 887.45,-1037.55 887.45,-1031.55 887.45,-1031.55 887.45,-1019.55 887.45,-1019.55 887.45,-1013.55 893.45,-1007.55 899.45,-1007.55"/>
<text text-anchor="middle" x="932.45" y="-1021.85" font-family="Arial" font-size="14.00">organization</text>
</g>
<!-- data&#45;&gt;organization -->
<g id="edge33" class="edge">
<title>data&#45;&gt;organization</title>
<path fill="none" stroke="#1f78b4" d="M943.67,-815.24C941.54,-855.05 936.5,-949.69 933.96,-997.24"/>
<polygon fill="#a6cee3" stroke="#1f78b4" points="930.46,-997.28 933.42,-1007.45 937.45,-997.65 930.46,-997.28"/>
</g>
<!-- bookchangehistory -->
<g id="node35" class="node">
<title>bookchangehistory</title>
<path fill="#1afabc" stroke="black" d="M1155.05,-666.72C1155.05,-666.72 1261.05,-666.72 1261.05,-666.72 1267.05,-666.72 1273.05,-672.72 1273.05,-678.72 1273.05,-678.72 1273.05,-690.72 1273.05,-690.72 1273.05,-696.72 1267.05,-702.72 1261.05,-702.72 1261.05,-702.72 1155.05,-702.72 1155.05,-702.72 1149.05,-702.72 1143.05,-696.72 1143.05,-690.72 1143.05,-690.72 1143.05,-678.72 1143.05,-678.72 1143.05,-672.72 1149.05,-666.72 1155.05,-666.72"/>
<text text-anchor="middle" x="1208.05" y="-681.02" font-family="Arial" font-size="14.00">bookchangehistory</text>
</g>
<!-- data&#45;&gt;bookchangehistory -->
<g id="edge34" class="edge">
<title>data&#45;&gt;bookchangehistory</title>
<path fill="none" stroke="#1f78b4" d="M971.84,-785.33C1015.21,-766.86 1100.76,-730.41 1156.13,-706.83"/>
<polygon fill="#a6cee3" stroke="#1f78b4" points="1157.59,-710.01 1165.42,-702.87 1154.85,-703.57 1157.59,-710.01"/>
</g>
<!-- bookid -->
<g id="node36" class="node">
<title>bookid</title>
<path fill="#1afabc" stroke="black" d="M912.06,-915.7C912.06,-915.7 944.06,-915.7 944.06,-915.7 950.06,-915.7 956.06,-921.7 956.06,-927.7 956.06,-927.7 956.06,-939.7 956.06,-939.7 956.06,-945.7 950.06,-951.7 944.06,-951.7 944.06,-951.7 912.06,-951.7 912.06,-951.7 906.06,-951.7 900.06,-945.7 900.06,-939.7 900.06,-939.7 900.06,-927.7 900.06,-927.7 900.06,-921.7 906.06,-915.7 912.06,-915.7"/>
<text text-anchor="middle" x="928.06" y="-930" font-family="Arial" font-size="14.00">bookid</text>
</g>
<!-- data&#45;&gt;bookid -->
<g id="edge35" class="edge">
<title>data&#45;&gt;bookid</title>
<path fill="none" stroke="#1f78b4" d="M942.44,-815.08C939.64,-838.17 934.78,-878.3 931.49,-905.42"/>
<polygon fill="#a6cee3" stroke="#1f78b4" points="928,-905.11 930.28,-915.46 934.95,-905.95 928,-905.11"/>
</g>
<!-- printlocation -->
<g id="node37" class="node">
<title>printlocation</title>
<path fill="#1afabc" stroke="black" d="M1161.51,-723.56C1161.51,-723.56 1226.51,-723.56 1226.51,-723.56 1232.51,-723.56 1238.51,-729.56 1238.51,-735.56 1238.51,-735.56 1238.51,-747.56 1238.51,-747.56 1238.51,-753.56 1232.51,-759.56 1226.51,-759.56 1226.51,-759.56 1161.51,-759.56 1161.51,-759.56 1155.51,-759.56 1149.51,-753.56 1149.51,-747.56 1149.51,-747.56 1149.51,-735.56 1149.51,-735.56 1149.51,-729.56 1155.51,-723.56 1161.51,-723.56"/>
<text text-anchor="middle" x="1194.01" y="-737.86" font-family="Arial" font-size="14.00">printlocation</text>
</g>
<!-- data&#45;&gt;printlocation -->
<g id="edge36" class="edge">
<title>data&#45;&gt;printlocation</title>
<path fill="none" stroke="#1f78b4" d="M971.81,-790.88C1011.81,-782 1087.4,-765.22 1139.22,-753.72"/>
<polygon fill="#a6cee3" stroke="#1f78b4" points="1140.24,-757.08 1149.25,-751.5 1138.72,-750.25 1140.24,-757.08"/>
</g>
<!-- published -->
<g id="node38" class="node">
<title>published</title>
<path fill="#1afabc" stroke="black" d="M974.62,-593.84C974.62,-593.84 1024.62,-593.84 1024.62,-593.84 1030.62,-593.84 1036.62,-599.84 1036.62,-605.84 1036.62,-605.84 1036.62,-617.84 1036.62,-617.84 1036.62,-623.84 1030.62,-629.84 1024.62,-629.84 1024.62,-629.84 974.62,-629.84 974.62,-629.84 968.62,-629.84 962.62,-623.84 962.62,-617.84 962.62,-617.84 962.62,-605.84 962.62,-605.84 962.62,-599.84 968.62,-593.84 974.62,-593.84"/>
<text text-anchor="middle" x="999.62" y="-608.14" font-family="Arial" font-size="14.00">published</text>
</g>
<!-- data&#45;&gt;published -->
<g id="edge37" class="edge">
<title>data&#45;&gt;published</title>
<path fill="none" stroke="#1f78b4" d="M950.02,-778.83C959.62,-746.49 979.81,-678.53 991.25,-640.02"/>
<polygon fill="#a6cee3" stroke="#1f78b4" points="994.73,-640.58 994.23,-630 988.02,-638.58 994.73,-640.58"/>
</g>
<!-- publishtype -->
<g id="node39" class="node">
<title>publishtype</title>
<path fill="#1afabc" stroke="black" d="M748.94,-838.27C748.94,-838.27 809.94,-838.27 809.94,-838.27 815.94,-838.27 821.94,-844.27 821.94,-850.27 821.94,-850.27 821.94,-862.27 821.94,-862.27 821.94,-868.27 815.94,-874.27 809.94,-874.27 809.94,-874.27 748.94,-874.27 748.94,-874.27 742.94,-874.27 736.94,-868.27 736.94,-862.27 736.94,-862.27 736.94,-850.27 736.94,-850.27 736.94,-844.27 742.94,-838.27 748.94,-838.27"/>
<text text-anchor="middle" x="779.44" y="-852.57" font-family="Arial" font-size="14.00">publishtype</text>
</g>
<!-- data&#45;&gt;publishtype -->
<g id="edge38" class="edge">
<title>data&#45;&gt;publishtype</title>
<path fill="none" stroke="#1f78b4" d="M917.36,-806.71C894.06,-815.09 859.89,-827.36 831.39,-837.6"/>
<polygon fill="#a6cee3" stroke="#1f78b4" points="830.19,-834.31 821.97,-840.99 832.56,-840.9 830.19,-834.31"/>
</g>
<!-- reviewed -->
<g id="node40" class="node">
<title>reviewed</title>
<path fill="#1afabc" stroke="black" d="M1097.67,-896.72C1097.67,-896.72 1144.67,-896.72 1144.67,-896.72 1150.67,-896.72 1156.67,-902.72 1156.67,-908.72 1156.67,-908.72 1156.67,-920.72 1156.67,-920.72 1156.67,-926.72 1150.67,-932.72 1144.67,-932.72 1144.67,-932.72 1097.67,-932.72 1097.67,-932.72 1091.67,-932.72 1085.67,-926.72 1085.67,-920.72 1085.67,-920.72 1085.67,-908.72 1085.67,-908.72 1085.67,-902.72 1091.67,-896.72 1097.67,-896.72"/>
<text text-anchor="middle" x="1121.17" y="-911.02" font-family="Arial" font-size="14.00">reviewed</text>
</g>
<!-- data&#45;&gt;reviewed -->
<g id="edge39" class="edge">
<title>data&#45;&gt;reviewed</title>
<path fill="none" stroke="#1f78b4" d="M971.84,-815.06C1002.29,-835.38 1051.77,-868.4 1085.35,-890.81"/>
<polygon fill="#a6cee3" stroke="#1f78b4" points="1083.68,-893.91 1093.95,-896.55 1087.57,-888.09 1083.68,-893.91"/>
</g>
<!-- edited -->
<g id="node41" class="node">
<title>edited</title>
<path fill="#1afabc" stroke="black" d="M923.15,-639.95C923.15,-639.95 953.15,-639.95 953.15,-639.95 959.15,-639.95 965.15,-645.95 965.15,-651.95 965.15,-651.95 965.15,-663.95 965.15,-663.95 965.15,-669.95 959.15,-675.95 953.15,-675.95 953.15,-675.95 923.15,-675.95 923.15,-675.95 917.15,-675.95 911.15,-669.95 911.15,-663.95 911.15,-663.95 911.15,-651.95 911.15,-651.95 911.15,-645.95 917.15,-639.95 923.15,-639.95"/>
<text text-anchor="middle" x="938.15" y="-654.25" font-family="Arial" font-size="14.00">edited</text>
</g>
<!-- data&#45;&gt;edited -->
<g id="edge40" class="edge">
<title>data&#45;&gt;edited</title>
<path fill="none" stroke="#1f78b4" d="M943.8,-778.75C942.7,-755.23 940.77,-714.01 939.48,-686.35"/>
<polygon fill="#a6cee3" stroke="#1f78b4" points="942.96,-685.95 939,-676.12 935.97,-686.28 942.96,-685.95"/>
</g>
<!-- tested -->
<g id="node42" class="node">
<title>tested</title>
<path fill="#1afabc" stroke="black" d="M860.66,-659.21C860.66,-659.21 890.66,-659.21 890.66,-659.21 896.66,-659.21 902.66,-665.21 902.66,-671.21 902.66,-671.21 902.66,-683.21 902.66,-683.21 902.66,-689.21 896.66,-695.21 890.66,-695.21 890.66,-695.21 860.66,-695.21 860.66,-695.21 854.66,-695.21 848.66,-689.21 848.66,-683.21 848.66,-683.21 848.66,-671.21 848.66,-671.21 848.66,-665.21 854.66,-659.21 860.66,-659.21"/>
<text text-anchor="middle" x="875.66" y="-673.51" font-family="Arial" font-size="14.00">tested</text>
</g>
<!-- data&#45;&gt;tested -->
<g id="edge41" class="edge">
<title>data&#45;&gt;tested</title>
<path fill="none" stroke="#1f78b4" d="M934.17,-778.73C922.77,-758.96 904.43,-727.14 891.32,-704.39"/>
<polygon fill="#a6cee3" stroke="#1f78b4" points="894.26,-702.48 886.24,-695.56 888.2,-705.98 894.26,-702.48"/>
</g>
<!-- approved -->
<g id="node43" class="node">
<title>approved</title>
<path fill="#1afabc" stroke="black" d="M948.45,-962.53C948.45,-962.53 997.45,-962.53 997.45,-962.53 1003.45,-962.53 1009.45,-968.53 1009.45,-974.53 1009.45,-974.53 1009.45,-986.53 1009.45,-986.53 1009.45,-992.53 1003.45,-998.53 997.45,-998.53 997.45,-998.53 948.45,-998.53 948.45,-998.53 942.45,-998.53 936.45,-992.53 936.45,-986.53 936.45,-986.53 936.45,-974.53 936.45,-974.53 936.45,-968.53 942.45,-962.53 948.45,-962.53"/>
<text text-anchor="middle" x="972.95" y="-976.83" font-family="Arial" font-size="14.00">approved</text>
</g>
<!-- data&#45;&gt;approved -->
<g id="edge42" class="edge">
<title>data&#45;&gt;approved</title>
<path fill="none" stroke="#1f78b4" d="M947.46,-815.19C952.42,-847.36 962.74,-914.3 968.61,-952.4"/>
<polygon fill="#a6cee3" stroke="#1f78b4" points="965.16,-952.98 970.14,-962.33 972.08,-951.91 965.16,-952.98"/>
</g>
<!-- bookevent -->
<g id="node44" class="node">
<title>bookevent</title>
<path fill="#1afabc" stroke="black" d="M1169.94,-784.64C1169.94,-784.64 1224.94,-784.64 1224.94,-784.64 1230.94,-784.64 1236.94,-790.64 1236.94,-796.64 1236.94,-796.64 1236.94,-808.64 1236.94,-808.64 1236.94,-814.64 1230.94,-820.64 1224.94,-820.64 1224.94,-820.64 1169.94,-820.64 1169.94,-820.64 1163.94,-820.64 1157.94,-814.64 1157.94,-808.64 1157.94,-808.64 1157.94,-796.64 1157.94,-796.64 1157.94,-790.64 1163.94,-784.64 1169.94,-784.64"/>
<text text-anchor="middle" x="1197.44" y="-798.94" font-family="Arial" font-size="14.00">bookevent</text>
</g>
<!-- data&#45;&gt;bookevent -->
<g id="edge43" class="edge">
<title>data&#45;&gt;bookevent</title>
<path fill="none" stroke="#1f78b4" d="M971.7,-797.53C1013.61,-798.48 1094.89,-800.32 1147.63,-801.52"/>
<polygon fill="#a6cee3" stroke="#1f78b4" points="1147.7,-805.02 1157.77,-801.75 1147.86,-798.02 1147.7,-805.02"/>
</g>
<!-- bookeventtype -->
<g id="node45" class="node">
<title>bookeventtype</title>
<path fill="#1afabc" stroke="black" d="M1186.71,-829.65C1186.71,-829.65 1266.71,-829.65 1266.71,-829.65 1272.71,-829.65 1278.71,-835.65 1278.71,-841.65 1278.71,-841.65 1278.71,-853.65 1278.71,-853.65 1278.71,-859.65 1272.71,-865.65 1266.71,-865.65 1266.71,-865.65 1186.71,-865.65 1186.71,-865.65 1180.71,-865.65 1174.71,-859.65 1174.71,-853.65 1174.71,-853.65 1174.71,-841.65 1174.71,-841.65 1174.71,-835.65 1180.71,-829.65 1186.71,-829.65"/>
<text text-anchor="middle" x="1226.71" y="-843.95" font-family="Arial" font-size="14.00">bookeventtype</text>
</g>
<!-- data&#45;&gt;bookeventtype -->
<g id="edge44" class="edge">
<title>data&#45;&gt;bookeventtype</title>
<path fill="none" stroke="#1f78b4" d="M971.69,-801.78C1015.75,-809.7 1104.13,-825.6 1164.36,-836.43"/>
<polygon fill="#a6cee3" stroke="#1f78b4" points="1164.06,-839.94 1174.52,-838.26 1165.29,-833.05 1164.06,-839.94"/>
</g>
<!-- bookpartno -->
<g id="node46" class="node">
<title>bookpartno</title>
<path fill="#1afabc" stroke="black" d="M1108.07,-941.75C1108.07,-941.75 1168.07,-941.75 1168.07,-941.75 1174.07,-941.75 1180.07,-947.75 1180.07,-953.75 1180.07,-953.75 1180.07,-965.75 1180.07,-965.75 1180.07,-971.75 1174.07,-977.75 1168.07,-977.75 1168.07,-977.75 1108.07,-977.75 1108.07,-977.75 1102.07,-977.75 1096.07,-971.75 1096.07,-965.75 1096.07,-965.75 1096.07,-953.75 1096.07,-953.75 1096.07,-947.75 1102.07,-941.75 1108.07,-941.75"/>
<text text-anchor="middle" x="1138.07" y="-956.05" font-family="Arial" font-size="14.00">bookpartno</text>
</g>
<!-- data&#45;&gt;bookpartno -->
<g id="edge45" class="edge">
<title>data&#45;&gt;bookpartno</title>
<path fill="none" stroke="#1f78b4" d="M966.08,-814.96C1000.8,-844.18 1069.37,-901.9 1108.63,-934.96"/>
<polygon fill="#a6cee3" stroke="#1f78b4" points="1106.63,-937.85 1116.54,-941.62 1111.14,-932.5 1106.63,-937.85"/>
</g>
<!-- edition -->
<g id="node47" class="node">
<title>edition</title>
<path fill="#1afabc" stroke="black" d="M1116.35,-829.66C1116.35,-829.66 1148.35,-829.66 1148.35,-829.66 1154.35,-829.66 1160.35,-835.66 1160.35,-841.66 1160.35,-841.66 1160.35,-853.66 1160.35,-853.66 1160.35,-859.66 1154.35,-865.66 1148.35,-865.66 1148.35,-865.66 1116.35,-865.66 1116.35,-865.66 1110.35,-865.66 1104.35,-859.66 1104.35,-853.66 1104.35,-853.66 1104.35,-841.66 1104.35,-841.66 1104.35,-835.66 1110.35,-829.66 1116.35,-829.66"/>
<text text-anchor="middle" x="1132.35" y="-843.96" font-family="Arial" font-size="14.00">edition</text>
</g>
<!-- data&#45;&gt;edition -->
<g id="edge46" class="edge">
<title>data&#45;&gt;edition</title>
<path fill="none" stroke="#1f78b4" d="M971.94,-804.29C1004.19,-813.01 1058.04,-827.57 1094.36,-837.39"/>
<polygon fill="#a6cee3" stroke="#1f78b4" points="1093.54,-840.79 1104.1,-840.02 1095.36,-834.03 1093.54,-840.79"/>
</g>
<!-- isbn -->
<g id="node48" class="node">
<title>isbn</title>
<path fill="#1afabc" stroke="black" d="M841.97,-868.13C841.97,-868.13 871.97,-868.13 871.97,-868.13 877.97,-868.13 883.97,-874.13 883.97,-880.13 883.97,-880.13 883.97,-892.13 883.97,-892.13 883.97,-898.13 877.97,-904.13 871.97,-904.13 871.97,-904.13 841.97,-904.13 841.97,-904.13 835.97,-904.13 829.97,-898.13 829.97,-892.13 829.97,-892.13 829.97,-880.13 829.97,-880.13 829.97,-874.13 835.97,-868.13 841.97,-868.13"/>
<text text-anchor="middle" x="856.97" y="-882.43" font-family="Arial" font-size="14.00">isbn</text>
</g>
<!-- data&#45;&gt;isbn -->
<g id="edge47" class="edge">
<title>data&#45;&gt;isbn</title>
<path fill="none" stroke="#1f78b4" d="M926.9,-814.97C913.95,-828.15 896.22,-846.19 881.85,-860.81"/>
<polygon fill="#a6cee3" stroke="#1f78b4" points="879.2,-858.52 874.69,-868.1 884.19,-863.42 879.2,-858.52"/>
</g>
<!-- booknumber -->
<g id="node49" class="node">
<title>booknumber</title>
<path fill="#1afabc" stroke="black" d="M1176.73,-874.68C1176.73,-874.68 1244.73,-874.68 1244.73,-874.68 1250.73,-874.68 1256.73,-880.68 1256.73,-886.68 1256.73,-886.68 1256.73,-898.68 1256.73,-898.68 1256.73,-904.68 1250.73,-910.68 1244.73,-910.68 1244.73,-910.68 1176.73,-910.68 1176.73,-910.68 1170.73,-910.68 1164.73,-904.68 1164.73,-898.68 1164.73,-898.68 1164.73,-886.68 1164.73,-886.68 1164.73,-880.68 1170.73,-874.68 1176.73,-874.68"/>
<text text-anchor="middle" x="1210.73" y="-888.98" font-family="Arial" font-size="14.00">booknumber</text>
</g>
<!-- data&#45;&gt;booknumber -->
<g id="edge48" class="edge">
<title>data&#45;&gt;booknumber</title>
<path fill="none" stroke="#1f78b4" d="M972.12,-806.8C1015.05,-822.25 1098.9,-852.43 1154.88,-872.58"/>
<polygon fill="#a6cee3" stroke="#1f78b4" points="1153.71,-875.87 1164.3,-875.97 1156.08,-869.29 1153.71,-875.87"/>
</g>
<!-- volume -->
<g id="node50" class="node">
<title>volume</title>
<path fill="#1afabc" stroke="black" d="M1024.87,-913.9C1024.87,-913.9 1061.87,-913.9 1061.87,-913.9 1067.87,-913.9 1073.87,-919.9 1073.87,-925.9 1073.87,-925.9 1073.87,-937.9 1073.87,-937.9 1073.87,-943.9 1067.87,-949.9 1061.87,-949.9 1061.87,-949.9 1024.87,-949.9 1024.87,-949.9 1018.87,-949.9 1012.87,-943.9 1012.87,-937.9 1012.87,-937.9 1012.87,-925.9 1012.87,-925.9 1012.87,-919.9 1018.87,-913.9 1024.87,-913.9"/>
<text text-anchor="middle" x="1043.37" y="-928.2" font-family="Arial" font-size="14.00">volume</text>
</g>
<!-- data&#45;&gt;volume -->
<g id="edge49" class="edge">
<title>data&#45;&gt;volume</title>
<path fill="none" stroke="#1f78b4" d="M957.96,-815.12C974.96,-838.36 1004.51,-878.76 1024,-905.42"/>
<polygon fill="#a6cee3" stroke="#1f78b4" points="1021.22,-907.55 1029.95,-913.55 1026.87,-903.41 1021.22,-907.55"/>
</g>
<!-- maintainer -->
<g id="node51" class="node">
<title>maintainer</title>
<path fill="#1afabc" stroke="black" d="M1065.42,-683.9C1065.42,-683.9 1121.42,-683.9 1121.42,-683.9 1127.42,-683.9 1133.42,-689.9 1133.42,-695.9 1133.42,-695.9 1133.42,-707.9 1133.42,-707.9 1133.42,-713.9 1127.42,-719.9 1121.42,-719.9 1121.42,-719.9 1065.42,-719.9 1065.42,-719.9 1059.42,-719.9 1053.42,-713.9 1053.42,-707.9 1053.42,-707.9 1053.42,-695.9 1053.42,-695.9 1053.42,-689.9 1059.42,-683.9 1065.42,-683.9"/>
<text text-anchor="middle" x="1093.42" y="-698.2" font-family="Arial" font-size="14.00">maintainer</text>
</g>
<!-- data&#45;&gt;maintainer -->
<g id="edge50" class="edge">
<title>data&#45;&gt;maintainer</title>
<path fill="none" stroke="#1f78b4" d="M971.93,-779.48C995.67,-764.32 1030.29,-742.22 1056.5,-725.48"/>
<polygon fill="#a6cee3" stroke="#1f78b4" points="1058.5,-728.36 1065.04,-720.02 1054.73,-722.46 1058.5,-728.36"/>
</g>
<!-- bookrights -->
<g id="node52" class="node">
<title>bookrights</title>
<path fill="#1afabc" stroke="black" d="M1029.46,-986.77C1029.46,-986.77 1084.46,-986.77 1084.46,-986.77 1090.46,-986.77 1096.46,-992.77 1096.46,-998.77 1096.46,-998.77 1096.46,-1010.77 1096.46,-1010.77 1096.46,-1016.77 1090.46,-1022.77 1084.46,-1022.77 1084.46,-1022.77 1029.46,-1022.77 1029.46,-1022.77 1023.46,-1022.77 1017.46,-1016.77 1017.46,-1010.77 1017.46,-1010.77 1017.46,-998.77 1017.46,-998.77 1017.46,-992.77 1023.46,-986.77 1029.46,-986.77"/>
<text text-anchor="middle" x="1056.96" y="-1001.07" font-family="Arial" font-size="14.00">bookrights</text>
</g>
<!-- data&#45;&gt;bookrights -->
<g id="edge51" class="edge">
<title>data&#45;&gt;bookrights</title>
<path fill="none" stroke="#1f78b4" d="M954.42,-814.99C974.16,-851.54 1018.93,-934.38 1042.23,-977.52"/>
<polygon fill="#a6cee3" stroke="#1f78b4" points="1039.3,-979.45 1047.13,-986.58 1045.46,-976.12 1039.3,-979.45"/>
</g>
<!-- copyrfirst -->
<g id="node53" class="node">
<title>copyrfirst</title>
<path fill="#1afabc" stroke="black" d="M1082.5,-767.19C1082.5,-767.19 1129.5,-767.19 1129.5,-767.19 1135.5,-767.19 1141.5,-773.19 1141.5,-779.19 1141.5,-779.19 1141.5,-791.19 1141.5,-791.19 1141.5,-797.19 1135.5,-803.19 1129.5,-803.19 1129.5,-803.19 1082.5,-803.19 1082.5,-803.19 1076.5,-803.19 1070.5,-797.19 1070.5,-791.19 1070.5,-791.19 1070.5,-779.19 1070.5,-779.19 1070.5,-773.19 1076.5,-767.19 1082.5,-767.19"/>
<text text-anchor="middle" x="1106" y="-781.49" font-family="Arial" font-size="14.00">copyrfirst</text>
</g>
<!-- data&#45;&gt;copyrfirst -->
<g id="edge52" class="edge">
<title>data&#45;&gt;copyrfirst</title>
<path fill="none" stroke="#1f78b4" d="M971.65,-794.95C995.78,-793.2 1031.64,-790.59 1060.24,-788.51"/>
<polygon fill="#a6cee3" stroke="#1f78b4" points="1060.69,-791.99 1070.41,-787.77 1060.18,-785.01 1060.69,-791.99"/>
</g>
<!-- copyrlast -->
<g id="node54" class="node">
<title>copyrlast</title>
<path fill="#1afabc" stroke="black" d="M785.56,-913.74C785.56,-913.74 832.56,-913.74 832.56,-913.74 838.56,-913.74 844.56,-919.74 844.56,-925.74 844.56,-925.74 844.56,-937.74 844.56,-937.74 844.56,-943.74 838.56,-949.74 832.56,-949.74 832.56,-949.74 785.56,-949.74 785.56,-949.74 779.56,-949.74 773.56,-943.74 773.56,-937.74 773.56,-937.74 773.56,-925.74 773.56,-925.74 773.56,-919.74 779.56,-913.74 785.56,-913.74"/>
<text text-anchor="middle" x="809.06" y="-928.04" font-family="Arial" font-size="14.00">copyrlast</text>
</g>
<!-- data&#45;&gt;copyrlast -->
<g id="edge53" class="edge">
<title>data&#45;&gt;copyrlast</title>
<path fill="none" stroke="#1f78b4" d="M926.36,-815.1C902.71,-838.62 861.37,-879.72 834.62,-906.32"/>
<polygon fill="#a6cee3" stroke="#1f78b4" points="832.11,-903.88 827.49,-913.42 837.05,-908.85 832.11,-903.88"/>
</g>
<!-- bookowner -->
<g id="node55" class="node">
<title>bookowner</title>
<path fill="#1afabc" stroke="black" d="M821.01,-960.2C821.01,-960.2 880.01,-960.2 880.01,-960.2 886.01,-960.2 892.01,-966.2 892.01,-972.2 892.01,-972.2 892.01,-984.2 892.01,-984.2 892.01,-990.2 886.01,-996.2 880.01,-996.2 880.01,-996.2 821.01,-996.2 821.01,-996.2 815.01,-996.2 809.01,-990.2 809.01,-984.2 809.01,-984.2 809.01,-972.2 809.01,-972.2 809.01,-966.2 815.01,-960.2 821.01,-960.2"/>
<text text-anchor="middle" x="850.51" y="-974.5" font-family="Arial" font-size="14.00">bookowner</text>
</g>
<!-- data&#45;&gt;bookowner -->
<g id="edge54" class="edge">
<title>data&#45;&gt;bookowner</title>
<path fill="none" stroke="#1f78b4" d="M935.27,-814.96C918.75,-846.77 884.35,-913.03 864.83,-950.61"/>
<polygon fill="#a6cee3" stroke="#1f78b4" points="861.48,-949.47 859.98,-959.96 867.69,-952.69 861.48,-949.47"/>
</g>
<!-- bookrestriction -->
<g id="node56" class="node">
<title>bookrestriction</title>
<path fill="#1afabc" stroke="black" d="M1042.93,-638.86C1042.93,-638.86 1122.93,-638.86 1122.93,-638.86 1128.93,-638.86 1134.93,-644.86 1134.93,-650.86 1134.93,-650.86 1134.93,-662.86 1134.93,-662.86 1134.93,-668.86 1128.93,-674.86 1122.93,-674.86 1122.93,-674.86 1042.93,-674.86 1042.93,-674.86 1036.93,-674.86 1030.93,-668.86 1030.93,-662.86 1030.93,-662.86 1030.93,-650.86 1030.93,-650.86 1030.93,-644.86 1036.93,-638.86 1042.93,-638.86"/>
<text text-anchor="middle" x="1082.93" y="-653.16" font-family="Arial" font-size="14.00">bookrestriction</text>
</g>
<!-- data&#45;&gt;bookrestriction -->
<g id="edge55" class="edge">
<title>data&#45;&gt;bookrestriction</title>
<path fill="none" stroke="#1f78b4" d="M962.44,-778.89C986.58,-754.44 1029.84,-710.63 1057.43,-682.69"/>
<polygon fill="#a6cee3" stroke="#1f78b4" points="1060.23,-684.84 1064.76,-675.26 1055.25,-679.92 1060.23,-684.84"/>
</g>
<!-- summary -->
<g id="node58" class="node">
<title>summary</title>
<path fill="#1afabc" stroke="black" d="M241.63,-909.59C241.63,-909.59 291.63,-909.59 291.63,-909.59 297.63,-909.59 303.63,-915.59 303.63,-921.59 303.63,-921.59 303.63,-933.59 303.63,-933.59 303.63,-939.59 297.63,-945.59 291.63,-945.59 291.63,-945.59 241.63,-945.59 241.63,-945.59 235.63,-945.59 229.63,-939.59 229.63,-933.59 229.63,-933.59 229.63,-921.59 229.63,-921.59 229.63,-915.59 235.63,-909.59 241.63,-909.59"/>
<text text-anchor="middle" x="266.63" y="-923.89" font-family="Arial" font-size="14.00">summary</text>
</g>
<!-- ph&#45;&gt;summary -->
<g id="edge57" class="edge">
<title>ph&#45;&gt;summary</title>
<path fill="none" stroke="#1f78b4" d="M363.92,-844.66C344.92,-860.86 316.85,-884.78 295.74,-902.78"/>
<polygon fill="#a6cee3" stroke="#1f78b4" points="293.36,-900.2 288.02,-909.35 297.9,-905.53 293.36,-900.2"/>
</g>
<!-- revisionid -->
<g id="node59" class="node">
<title>revisionid</title>
<path fill="#1afabc" stroke="black" d="M313.32,-990.8C313.32,-990.8 363.32,-990.8 363.32,-990.8 369.32,-990.8 375.32,-996.8 375.32,-1002.8 375.32,-1002.8 375.32,-1014.8 375.32,-1014.8 375.32,-1020.8 369.32,-1026.8 363.32,-1026.8 363.32,-1026.8 313.32,-1026.8 313.32,-1026.8 307.32,-1026.8 301.32,-1020.8 301.32,-1014.8 301.32,-1014.8 301.32,-1002.8 301.32,-1002.8 301.32,-996.8 307.32,-990.8 313.32,-990.8"/>
<text text-anchor="middle" x="338.32" y="-1005.1" font-family="Arial" font-size="14.00">revisionid</text>
</g>
<!-- ph&#45;&gt;revisionid -->
<g id="edge58" class="edge">
<title>ph&#45;&gt;revisionid</title>
<path fill="none" stroke="#1f78b4" d="M380.45,-844.74C372.25,-876.66 355.2,-943.08 345.49,-980.88"/>
<polygon fill="#a6cee3" stroke="#1f78b4" points="342.06,-980.18 342.96,-990.73 348.84,-981.92 342.06,-980.18"/>
</g>
<!-- started -->
<g id="node60" class="node">
<title>started</title>
<path fill="#1afabc" stroke="black" d="M452.71,-907.42C452.71,-907.42 486.71,-907.42 486.71,-907.42 492.71,-907.42 498.71,-913.42 498.71,-919.42 498.71,-919.42 498.71,-931.42 498.71,-931.42 498.71,-937.42 492.71,-943.42 486.71,-943.42 486.71,-943.42 452.71,-943.42 452.71,-943.42 446.71,-943.42 440.71,-937.42 440.71,-931.42 440.71,-931.42 440.71,-919.42 440.71,-919.42 440.71,-913.42 446.71,-907.42 452.71,-907.42"/>
<text text-anchor="middle" x="469.71" y="-921.72" font-family="Arial" font-size="14.00">started</text>
</g>
<!-- ph&#45;&gt;started -->
<g id="edge59" class="edge">
<title>ph&#45;&gt;started</title>
<path fill="none" stroke="#1f78b4" d="M400.62,-844.73C413.74,-860.05 432.7,-882.19 447.43,-899.4"/>
<polygon fill="#a6cee3" stroke="#1f78b4" points="445.12,-902.09 454.29,-907.41 450.44,-897.54 445.12,-902.09"/>
</g>
<!-- completed -->
<g id="node61" class="node">
<title>completed</title>
<path fill="#1afabc" stroke="black" d="M152.96,-837.43C152.96,-837.43 208.96,-837.43 208.96,-837.43 214.96,-837.43 220.96,-843.43 220.96,-849.43 220.96,-849.43 220.96,-861.43 220.96,-861.43 220.96,-867.43 214.96,-873.43 208.96,-873.43 208.96,-873.43 152.96,-873.43 152.96,-873.43 146.96,-873.43 140.96,-867.43 140.96,-861.43 140.96,-861.43 140.96,-849.43 140.96,-849.43 140.96,-843.43 146.96,-837.43 152.96,-837.43"/>
<text text-anchor="middle" x="180.96" y="-851.73" font-family="Arial" font-size="14.00">completed</text>
</g>
<!-- ph&#45;&gt;completed -->
<g id="edge60" class="edge">
<title>ph&#45;&gt;completed</title>
<path fill="none" stroke="#1f78b4" d="M357.99,-830.43C325.77,-834.98 271.32,-842.67 231.3,-848.32"/>
<polygon fill="#a6cee3" stroke="#1f78b4" points="230.61,-844.88 221.2,-849.75 231.59,-851.81 230.61,-844.88"/>
</g>
<!-- year -->
<g id="node62" class="node">
<title>year</title>
<path fill="#1afabc" stroke="black" d="M395.35,-953.54C395.35,-953.54 425.35,-953.54 425.35,-953.54 431.35,-953.54 437.35,-959.54 437.35,-965.54 437.35,-965.54 437.35,-977.54 437.35,-977.54 437.35,-983.54 431.35,-989.54 425.35,-989.54 425.35,-989.54 395.35,-989.54 395.35,-989.54 389.35,-989.54 383.35,-983.54 383.35,-977.54 383.35,-977.54 383.35,-965.54 383.35,-965.54 383.35,-959.54 389.35,-953.54 395.35,-953.54"/>
<text text-anchor="middle" x="410.35" y="-967.84" font-family="Arial" font-size="14.00">year</text>
</g>
<!-- ph&#45;&gt;year -->
<g id="edge61" class="edge">
<title>ph&#45;&gt;year</title>
<path fill="none" stroke="#1f78b4" d="M388.25,-844.67C392.56,-869.4 400.34,-914.07 405.42,-943.26"/>
<polygon fill="#a6cee3" stroke="#1f78b4" points="402,-943.99 407.16,-953.25 408.9,-942.79 402,-943.99"/>
</g>
<!-- month -->
<g id="node63" class="node">
<title>month</title>
<path fill="#1afabc" stroke="black" d="M323.68,-924.86C323.68,-924.86 354.68,-924.86 354.68,-924.86 360.68,-924.86 366.68,-930.86 366.68,-936.86 366.68,-936.86 366.68,-948.86 366.68,-948.86 366.68,-954.86 360.68,-960.86 354.68,-960.86 354.68,-960.86 323.68,-960.86 323.68,-960.86 317.68,-960.86 311.68,-954.86 311.68,-948.86 311.68,-948.86 311.68,-936.86 311.68,-936.86 311.68,-930.86 317.68,-924.86 323.68,-924.86"/>
<text text-anchor="middle" x="339.18" y="-939.16" font-family="Arial" font-size="14.00">month</text>
</g>
<!-- ph&#45;&gt;month -->
<g id="edge62" class="edge">
<title>ph&#45;&gt;month</title>
<path fill="none" stroke="#1f78b4" d="M377.93,-844.77C370.45,-863.71 358.63,-893.62 350.02,-915.44"/>
<polygon fill="#a6cee3" stroke="#1f78b4" points="346.73,-914.24 346.31,-924.82 353.24,-916.81 346.73,-914.24"/>
</g>
<!-- day -->
<g id="node64" class="node">
<title>day</title>
<path fill="#1afabc" stroke="black" d="M241.65,-840.28C241.65,-840.28 271.65,-840.28 271.65,-840.28 277.65,-840.28 283.65,-846.28 283.65,-852.28 283.65,-852.28 283.65,-864.28 283.65,-864.28 283.65,-870.28 277.65,-876.28 271.65,-876.28 271.65,-876.28 241.65,-876.28 241.65,-876.28 235.65,-876.28 229.65,-870.28 229.65,-864.28 229.65,-864.28 229.65,-852.28 229.65,-852.28 229.65,-846.28 235.65,-840.28 241.65,-840.28"/>
<text text-anchor="middle" x="256.65" y="-854.58" font-family="Arial" font-size="14.00">day</text>
</g>
<!-- ph&#45;&gt;day -->
<g id="edge63" class="edge">
<title>ph&#45;&gt;day</title>
<path fill="none" stroke="#1f78b4" d="M357.86,-833.32C339.21,-837.92 314.25,-844.07 293.79,-849.12"/>
<polygon fill="#a6cee3" stroke="#1f78b4" points="292.72,-845.78 283.85,-851.57 294.4,-852.57 292.72,-845.78"/>
</g>
<!-- booklibrary -->
<g id="node65" class="node">
<title>booklibrary</title>
<path fill="#1afabc" stroke="black" d="M190.5,-774.76C190.5,-774.76 249.5,-774.76 249.5,-774.76 255.5,-774.76 261.5,-780.76 261.5,-786.76 261.5,-786.76 261.5,-798.76 261.5,-798.76 261.5,-804.76 255.5,-810.76 249.5,-810.76 249.5,-810.76 190.5,-810.76 190.5,-810.76 184.5,-810.76 178.5,-804.76 178.5,-798.76 178.5,-798.76 178.5,-786.76 178.5,-786.76 178.5,-780.76 184.5,-774.76 190.5,-774.76"/>
<text text-anchor="middle" x="220" y="-789.06" font-family="Arial" font-size="14.00">booklibrary</text>
</g>
<!-- ph&#45;&gt;booklibrary -->
<g id="edge64" class="edge">
<title>ph&#45;&gt;booklibrary</title>
<path fill="none" stroke="#1f78b4" d="M357.84,-821.01C334.41,-816.21 299.98,-809.15 271.39,-803.29"/>
<polygon fill="#a6cee3" stroke="#1f78b4" points="272.05,-799.86 261.55,-801.28 270.64,-806.71 272.05,-799.86"/>
</g>
<!-- mainbooktitle -->
<g id="node66" class="node">
<title>mainbooktitle</title>
<path fill="#1afabc" stroke="black" d="M136.59,-896.49C136.59,-896.49 209.59,-896.49 209.59,-896.49 215.59,-896.49 221.59,-902.49 221.59,-908.49 221.59,-908.49 221.59,-920.49 221.59,-920.49 221.59,-926.49 215.59,-932.49 209.59,-932.49 209.59,-932.49 136.59,-932.49 136.59,-932.49 130.59,-932.49 124.59,-926.49 124.59,-920.49 124.59,-920.49 124.59,-908.49 124.59,-908.49 124.59,-902.49 130.59,-896.49 136.59,-896.49"/>
<text text-anchor="middle" x="173.09" y="-910.79" font-family="Arial" font-size="14.00">mainbooktitle</text>
</g>
<!-- ph&#45;&gt;mainbooktitle -->
<g id="edge65" class="edge">
<title>ph&#45;&gt;mainbooktitle</title>
<path fill="none" stroke="#1f78b4" d="M357.82,-837.91C324.72,-851.63 268.16,-875.08 226.33,-892.42"/>
<polygon fill="#a6cee3" stroke="#1f78b4" points="224.73,-889.29 216.84,-896.35 227.41,-895.76 224.73,-889.29"/>
</g>
<!-- booktitlealt -->
<g id="node67" class="node">
<title>booktitlealt</title>
<path fill="#1afabc" stroke="black" d="M224.26,-966.96C224.26,-966.96 281.26,-966.96 281.26,-966.96 287.26,-966.96 293.26,-972.96 293.26,-978.96 293.26,-978.96 293.26,-990.96 293.26,-990.96 293.26,-996.96 287.26,-1002.96 281.26,-1002.96 281.26,-1002.96 224.26,-1002.96 224.26,-1002.96 218.26,-1002.96 212.26,-996.96 212.26,-990.96 212.26,-990.96 212.26,-978.96 212.26,-978.96 212.26,-972.96 218.26,-966.96 224.26,-966.96"/>
<text text-anchor="middle" x="252.76" y="-981.26" font-family="Arial" font-size="14.00">booktitlealt</text>
</g>
<!-- ph&#45;&gt;booktitlealt -->
<g id="edge66" class="edge">
<title>ph&#45;&gt;booktitlealt</title>
<path fill="none" stroke="#1f78b4" d="M369.92,-844.77C346.51,-872.78 301.5,-926.63 274.6,-958.83"/>
<polygon fill="#a6cee3" stroke="#1f78b4" points="271.9,-956.6 268.18,-966.51 277.27,-961.09 271.9,-956.6"/>
</g>
<!-- booktitle -->
<g id="node69" class="node">
<title>booktitle</title>
<path fill="#1afabc" stroke="black" d="M637.32,-258.96C637.32,-258.96 680.32,-258.96 680.32,-258.96 686.32,-258.96 692.32,-264.96 692.32,-270.96 692.32,-270.96 692.32,-282.96 692.32,-282.96 692.32,-288.96 686.32,-294.96 680.32,-294.96 680.32,-294.96 637.32,-294.96 637.32,-294.96 631.32,-294.96 625.32,-288.96 625.32,-282.96 625.32,-282.96 625.32,-270.96 625.32,-270.96 625.32,-264.96 631.32,-258.96 637.32,-258.96"/>
<text text-anchor="middle" x="658.82" y="-273.26" font-family="Arial" font-size="14.00">booktitle</text>
</g>
<!-- title&#45;&gt;booktitle -->
<g id="edge68" class="edge">
<title>title&#45;&gt;booktitle</title>
<path fill="none" stroke="#1f78b4" d="M615.11,-385.47C623.63,-364.31 637.81,-329.11 647.7,-304.55"/>
<polygon fill="#a6cee3" stroke="#1f78b4" points="651.03,-305.66 651.52,-295.08 644.54,-303.05 651.03,-305.66"/>
</g>
</g>
</svg>
