<?xml version="1.0" encoding="UTF-8" standalone="no"?>
<!DOCTYPE svg PUBLIC "-//W3C//DTD SVG 1.1//EN"
 "http://www.w3.org/Graphics/SVG/1.1/DTD/svg11.dtd">
<!-- Generated by graphviz version 6.0.1 (20220911.1526)
 -->
<!-- Pages: 1 -->
<svg width="839pt" height="767pt"
 viewBox="0.00 0.00 839.00 767.00" xmlns="http://www.w3.org/2000/svg" xmlns:xlink="http://www.w3.org/1999/xlink">
<g id="graph0" class="graph" transform="scale(1 1) rotate(0) translate(4 763)">
<polygon fill="white" stroke="none" points="-4,4 -4,-763 835,-763 835,4 -4,4"/>
<!-- taskModule -->
<g id="node1" class="node">
<title>taskModule</title>
<path fill="#dddddd" stroke="black" d="M407.17,-322.29C407.17,-322.29 469.17,-322.29 469.17,-322.29 475.17,-322.29 481.17,-328.29 481.17,-334.29 481.17,-334.29 481.17,-346.29 481.17,-346.29 481.17,-352.29 475.17,-358.29 469.17,-358.29 469.17,-358.29 407.17,-358.29 407.17,-358.29 401.17,-358.29 395.17,-352.29 395.17,-346.29 395.17,-346.29 395.17,-334.29 395.17,-334.29 395.17,-328.29 401.17,-322.29 407.17,-322.29"/>
<text text-anchor="middle" x="438.17" y="-336.59" font-family="Arial" font-size="14.00">taskModule</text>
</g>
<!-- topic -->
<g id="node2" class="node">
<title>topic</title>
<path fill="#afa7f4" stroke="black" d="M510.66,-184.36C510.66,-184.36 540.66,-184.36 540.66,-184.36 546.66,-184.36 552.66,-190.36 552.66,-196.36 552.66,-196.36 552.66,-208.36 552.66,-208.36 552.66,-214.36 546.66,-220.36 540.66,-220.36 540.66,-220.36 510.66,-220.36 510.66,-220.36 504.66,-220.36 498.66,-214.36 498.66,-208.36 498.66,-208.36 498.66,-196.36 498.66,-196.36 498.66,-190.36 504.66,-184.36 510.66,-184.36"/>
<text text-anchor="middle" x="525.66" y="-198.66" font-family="Arial" font-size="14.00">topic</text>
</g>
<!-- taskModule&#45;&gt;topic -->
<g id="edge1" class="edge">
<title>taskModule&#45;&gt;topic</title>
<path fill="none" stroke="#1f78b4" d="M449.61,-322.26C464.67,-298.51 491.29,-256.55 508.7,-229.1"/>
<polygon fill="#a6cee3" stroke="#1f78b4" points="511.82,-230.72 514.22,-220.4 505.91,-226.97 511.82,-230.72"/>
</g>
<!-- body -->
<g id="node4" class="node">
<title>body</title>
<path fill="#afa7f4" stroke="black" d="M466.55,-471.91C466.55,-471.91 496.55,-471.91 496.55,-471.91 502.55,-471.91 508.55,-477.91 508.55,-483.91 508.55,-483.91 508.55,-495.91 508.55,-495.91 508.55,-501.91 502.55,-507.91 496.55,-507.91 496.55,-507.91 466.55,-507.91 466.55,-507.91 460.55,-507.91 454.55,-501.91 454.55,-495.91 454.55,-495.91 454.55,-483.91 454.55,-483.91 454.55,-477.91 460.55,-471.91 466.55,-471.91"/>
<text text-anchor="middle" x="481.55" y="-486.21" font-family="Arial" font-size="14.00">body</text>
</g>
<!-- taskModule&#45;&gt;body -->
<g id="edge3" class="edge">
<title>taskModule&#45;&gt;body</title>
<path fill="none" stroke="#1f78b4" d="M443.4,-358.34C450.86,-384.06 464.62,-431.51 473.41,-461.85"/>
<polygon fill="#a6cee3" stroke="#1f78b4" points="470.15,-463.17 476.3,-471.8 476.88,-461.22 470.15,-463.17"/>
</g>
<!-- section -->
<g id="node6" class="node">
<title>section</title>
<path fill="#afa7f4" stroke="black" d="M244.85,-165.29C244.85,-165.29 279.85,-165.29 279.85,-165.29 285.85,-165.29 291.85,-171.29 291.85,-177.29 291.85,-177.29 291.85,-189.29 291.85,-189.29 291.85,-195.29 285.85,-201.29 279.85,-201.29 279.85,-201.29 244.85,-201.29 244.85,-201.29 238.85,-201.29 232.85,-195.29 232.85,-189.29 232.85,-189.29 232.85,-177.29 232.85,-177.29 232.85,-171.29 238.85,-165.29 244.85,-165.29"/>
<text text-anchor="middle" x="262.35" y="-179.59" font-family="Arial" font-size="14.00">section</text>
</g>
<!-- taskModule&#45;&gt;section -->
<g id="edge5" class="edge">
<title>taskModule&#45;&gt;section</title>
<path fill="none" stroke="#1f78b4" d="M418,-322.28C386.55,-294.2 325.76,-239.92 290.17,-208.13"/>
<polygon fill="#a6cee3" stroke="#1f78b4" points="292.34,-205.38 282.55,-201.33 287.68,-210.6 292.34,-205.38"/>
</g>
<!-- ol -->
<g id="node13" class="node">
<title>ol</title>
<path fill="#afa7f4" stroke="black" d="M578.98,-353.48C578.98,-353.48 608.98,-353.48 608.98,-353.48 614.98,-353.48 620.98,-359.48 620.98,-365.48 620.98,-365.48 620.98,-377.48 620.98,-377.48 620.98,-383.48 614.98,-389.48 608.98,-389.48 608.98,-389.48 578.98,-389.48 578.98,-389.48 572.98,-389.48 566.98,-383.48 566.98,-377.48 566.98,-377.48 566.98,-365.48 566.98,-365.48 566.98,-359.48 572.98,-353.48 578.98,-353.48"/>
<text text-anchor="middle" x="593.98" y="-367.78" font-family="Arial" font-size="14.00">ol</text>
</g>
<!-- taskModule&#45;&gt;ol -->
<g id="edge12" class="edge">
<title>taskModule&#45;&gt;ol</title>
<path fill="none" stroke="#1f78b4" d="M481.57,-348.98C505.31,-353.73 534.4,-359.55 557.04,-364.09"/>
<polygon fill="#a6cee3" stroke="#1f78b4" points="556.46,-367.54 566.95,-366.07 557.83,-360.68 556.46,-367.54"/>
</g>
<!-- ul -->
<g id="node15" class="node">
<title>ul</title>
<path fill="#afa7f4" stroke="black" d="M580.27,-214.29C580.27,-214.29 610.27,-214.29 610.27,-214.29 616.27,-214.29 622.27,-220.29 622.27,-226.29 622.27,-226.29 622.27,-238.29 622.27,-238.29 622.27,-244.29 616.27,-250.29 610.27,-250.29 610.27,-250.29 580.27,-250.29 580.27,-250.29 574.27,-250.29 568.27,-244.29 568.27,-238.29 568.27,-238.29 568.27,-226.29 568.27,-226.29 568.27,-220.29 574.27,-214.29 580.27,-214.29"/>
<text text-anchor="middle" x="595.27" y="-228.59" font-family="Arial" font-size="14.00">ul</text>
</g>
<!-- taskModule&#45;&gt;ul -->
<g id="edge14" class="edge">
<title>taskModule&#45;&gt;ul</title>
<path fill="none" stroke="#1f78b4" d="M464.46,-322.21C490.74,-304.14 531.31,-276.26 560.29,-256.33"/>
<polygon fill="#a6cee3" stroke="#1f78b4" points="562.63,-258.97 568.89,-250.42 558.66,-253.2 562.63,-258.97"/>
</g>
<!-- li -->
<g id="node18" class="node">
<title>li</title>
<path fill="#afa7f4" stroke="black" d="M238.71,-403.59C238.71,-403.59 268.71,-403.59 268.71,-403.59 274.71,-403.59 280.71,-409.59 280.71,-415.59 280.71,-415.59 280.71,-427.59 280.71,-427.59 280.71,-433.59 274.71,-439.59 268.71,-439.59 268.71,-439.59 238.71,-439.59 238.71,-439.59 232.71,-439.59 226.71,-433.59 226.71,-427.59 226.71,-427.59 226.71,-415.59 226.71,-415.59 226.71,-409.59 232.71,-403.59 238.71,-403.59"/>
<text text-anchor="middle" x="253.71" y="-417.89" font-family="Arial" font-size="14.00">li</text>
</g>
<!-- taskModule&#45;&gt;li -->
<g id="edge17" class="edge">
<title>taskModule&#45;&gt;li</title>
<path fill="none" stroke="#1f78b4" d="M397.23,-358.33C365.24,-372.43 321.18,-391.85 290.35,-405.44"/>
<polygon fill="#a6cee3" stroke="#1f78b4" points="288.57,-402.4 280.83,-409.63 291.39,-408.8 288.57,-402.4"/>
</g>
<!-- ph -->
<g id="node22" class="node">
<title>ph</title>
<path fill="#afa7f4" stroke="black" d="M268.67,-309.92C268.67,-309.92 298.67,-309.92 298.67,-309.92 304.67,-309.92 310.67,-315.92 310.67,-321.92 310.67,-321.92 310.67,-333.92 310.67,-333.92 310.67,-339.92 304.67,-345.92 298.67,-345.92 298.67,-345.92 268.67,-345.92 268.67,-345.92 262.67,-345.92 256.67,-339.92 256.67,-333.92 256.67,-333.92 256.67,-321.92 256.67,-321.92 256.67,-315.92 262.67,-309.92 268.67,-309.92"/>
<text text-anchor="middle" x="283.67" y="-324.22" font-family="Arial" font-size="14.00">ph</text>
</g>
<!-- taskModule&#45;&gt;ph -->
<g id="edge21" class="edge">
<title>taskModule&#45;&gt;ph</title>
<path fill="none" stroke="#1f78b4" d="M395.13,-336.84C371.85,-334.98 343.38,-332.7 321.04,-330.91"/>
<polygon fill="#a6cee3" stroke="#1f78b4" points="321.18,-327.41 310.93,-330.1 320.62,-334.39 321.18,-327.41"/>
</g>
<!-- div -->
<g id="node24" class="node">
<title>div</title>
<path fill="#afa7f4" stroke="black" d="M354.07,-535.58C354.07,-535.58 384.07,-535.58 384.07,-535.58 390.07,-535.58 396.07,-541.58 396.07,-547.58 396.07,-547.58 396.07,-559.58 396.07,-559.58 396.07,-565.58 390.07,-571.58 384.07,-571.58 384.07,-571.58 354.07,-571.58 354.07,-571.58 348.07,-571.58 342.07,-565.58 342.07,-559.58 342.07,-559.58 342.07,-547.58 342.07,-547.58 342.07,-541.58 348.07,-535.58 354.07,-535.58"/>
<text text-anchor="middle" x="369.07" y="-549.88" font-family="Arial" font-size="14.00">div</text>
</g>
<!-- taskModule&#45;&gt;div -->
<g id="edge23" class="edge">
<title>taskModule&#45;&gt;div</title>
<path fill="none" stroke="#1f78b4" d="M432.28,-358.47C420.17,-395.86 392.41,-481.54 378.05,-525.87"/>
<polygon fill="#a6cee3" stroke="#1f78b4" points="374.7,-524.85 374.95,-535.44 381.36,-527 374.7,-524.85"/>
</g>
<!-- simpletable -->
<g id="node30" class="node">
<title>simpletable</title>
<path fill="#afa7f4" stroke="black" d="M590.52,-289.8C590.52,-289.8 652.52,-289.8 652.52,-289.8 658.52,-289.8 664.52,-295.8 664.52,-301.8 664.52,-301.8 664.52,-313.8 664.52,-313.8 664.52,-319.8 658.52,-325.8 652.52,-325.8 652.52,-325.8 590.52,-325.8 590.52,-325.8 584.52,-325.8 578.52,-319.8 578.52,-313.8 578.52,-313.8 578.52,-301.8 578.52,-301.8 578.52,-295.8 584.52,-289.8 590.52,-289.8"/>
<text text-anchor="middle" x="621.52" y="-304.1" font-family="Arial" font-size="14.00">simpletable</text>
</g>
<!-- taskModule&#45;&gt;simpletable -->
<g id="edge29" class="edge">
<title>taskModule&#45;&gt;simpletable</title>
<path fill="none" stroke="#1f78b4" d="M481.62,-332.59C507.65,-327.98 540.94,-322.08 568.51,-317.2"/>
<polygon fill="#a6cee3" stroke="#1f78b4" points="569.15,-320.64 578.38,-315.45 567.93,-313.74 569.15,-320.64"/>
</g>
<!-- sthead -->
<g id="node32" class="node">
<title>sthead</title>
<path fill="#afa7f4" stroke="black" d="M451.55,-139.24C451.55,-139.24 484.55,-139.24 484.55,-139.24 490.55,-139.24 496.55,-145.24 496.55,-151.24 496.55,-151.24 496.55,-163.24 496.55,-163.24 496.55,-169.24 490.55,-175.24 484.55,-175.24 484.55,-175.24 451.55,-175.24 451.55,-175.24 445.55,-175.24 439.55,-169.24 439.55,-163.24 439.55,-163.24 439.55,-151.24 439.55,-151.24 439.55,-145.24 445.55,-139.24 451.55,-139.24"/>
<text text-anchor="middle" x="468.05" y="-153.54" font-family="Arial" font-size="14.00">sthead</text>
</g>
<!-- taskModule&#45;&gt;sthead -->
<g id="edge31" class="edge">
<title>taskModule&#45;&gt;sthead</title>
<path fill="none" stroke="#1f78b4" d="M441.14,-322.07C446.38,-290 457.27,-223.27 463.47,-185.29"/>
<polygon fill="#a6cee3" stroke="#1f78b4" points="466.93,-185.82 465.08,-175.39 460.02,-184.69 466.93,-185.82"/>
</g>
<!-- stentry -->
<g id="node34" class="node">
<title>stentry</title>
<path fill="#afa7f4" stroke="black" d="M590.09,-467.81C590.09,-467.81 623.09,-467.81 623.09,-467.81 629.09,-467.81 635.09,-473.81 635.09,-479.81 635.09,-479.81 635.09,-491.81 635.09,-491.81 635.09,-497.81 629.09,-503.81 623.09,-503.81 623.09,-503.81 590.09,-503.81 590.09,-503.81 584.09,-503.81 578.09,-497.81 578.09,-491.81 578.09,-491.81 578.09,-479.81 578.09,-479.81 578.09,-473.81 584.09,-467.81 590.09,-467.81"/>
<text text-anchor="middle" x="606.59" y="-482.11" font-family="Arial" font-size="14.00">stentry</text>
</g>
<!-- taskModule&#45;&gt;stentry -->
<g id="edge33" class="edge">
<title>taskModule&#45;&gt;stentry</title>
<path fill="none" stroke="#1f78b4" d="M459.16,-358.42C489.12,-384.31 544.24,-431.94 577.93,-461.05"/>
<polygon fill="#a6cee3" stroke="#1f78b4" points="575.74,-463.78 585.6,-467.67 580.32,-458.49 575.74,-463.78"/>
</g>
<!-- strow -->
<g id="node39" class="node">
<title>strow</title>
<path fill="#afa7f4" stroke="black" d="M388.92,-166.25C388.92,-166.25 418.92,-166.25 418.92,-166.25 424.92,-166.25 430.92,-172.25 430.92,-178.25 430.92,-178.25 430.92,-190.25 430.92,-190.25 430.92,-196.25 424.92,-202.25 418.92,-202.25 418.92,-202.25 388.92,-202.25 388.92,-202.25 382.92,-202.25 376.92,-196.25 376.92,-190.25 376.92,-190.25 376.92,-178.25 376.92,-178.25 376.92,-172.25 382.92,-166.25 388.92,-166.25"/>
<text text-anchor="middle" x="403.92" y="-180.55" font-family="Arial" font-size="14.00">strow</text>
</g>
<!-- taskModule&#45;&gt;strow -->
<g id="edge38" class="edge">
<title>taskModule&#45;&gt;strow</title>
<path fill="none" stroke="#1f78b4" d="M434.17,-322.08C428.25,-295.07 417.07,-244.15 410.09,-212.34"/>
<polygon fill="#a6cee3" stroke="#1f78b4" points="413.46,-211.36 407.89,-202.34 406.62,-212.86 413.46,-211.36"/>
</g>
<!-- task -->
<g id="node3" class="node">
<title>task</title>
<path fill="#1afabc" stroke="black" d="M577.54,-67.12C577.54,-67.12 607.54,-67.12 607.54,-67.12 613.54,-67.12 619.54,-73.12 619.54,-79.12 619.54,-79.12 619.54,-91.12 619.54,-91.12 619.54,-97.12 613.54,-103.12 607.54,-103.12 607.54,-103.12 577.54,-103.12 577.54,-103.12 571.54,-103.12 565.54,-97.12 565.54,-91.12 565.54,-91.12 565.54,-79.12 565.54,-79.12 565.54,-73.12 571.54,-67.12 577.54,-67.12"/>
<text text-anchor="middle" x="592.54" y="-81.42" font-family="Arial" font-size="14.00">task</text>
</g>
<!-- topic&#45;&gt;task -->
<g id="edge2" class="edge">
<title>topic&#45;&gt;task</title>
<path fill="none" stroke="#1f78b4" d="M535.97,-184.3C546.93,-165.08 564.4,-134.44 577.03,-112.31"/>
<polygon fill="#a6cee3" stroke="#1f78b4" points="580.2,-113.82 582.11,-103.4 574.12,-110.35 580.2,-113.82"/>
</g>
<!-- taskbody -->
<g id="node5" class="node">
<title>taskbody</title>
<path fill="#1afabc" stroke="black" d="M499.35,-602.35C499.35,-602.35 546.35,-602.35 546.35,-602.35 552.35,-602.35 558.35,-608.35 558.35,-614.35 558.35,-614.35 558.35,-626.35 558.35,-626.35 558.35,-632.35 552.35,-638.35 546.35,-638.35 546.35,-638.35 499.35,-638.35 499.35,-638.35 493.35,-638.35 487.35,-632.35 487.35,-626.35 487.35,-626.35 487.35,-614.35 487.35,-614.35 487.35,-608.35 493.35,-602.35 499.35,-602.35"/>
<text text-anchor="middle" x="522.85" y="-616.65" font-family="Arial" font-size="14.00">taskbody</text>
</g>
<!-- body&#45;&gt;taskbody -->
<g id="edge4" class="edge">
<title>body&#45;&gt;taskbody</title>
<path fill="none" stroke="#1f78b4" d="M487.29,-508.05C494.19,-529.83 505.84,-566.61 513.91,-592.11"/>
<polygon fill="#a6cee3" stroke="#1f78b4" points="510.67,-593.47 517.03,-601.95 517.34,-591.36 510.67,-593.47"/>
</g>
<!-- prereq -->
<g id="node7" class="node">
<title>prereq</title>
<path fill="#1afabc" stroke="black" d="M155.61,-133.4C155.61,-133.4 187.61,-133.4 187.61,-133.4 193.61,-133.4 199.61,-139.4 199.61,-145.4 199.61,-145.4 199.61,-157.4 199.61,-157.4 199.61,-163.4 193.61,-169.4 187.61,-169.4 187.61,-169.4 155.61,-169.4 155.61,-169.4 149.61,-169.4 143.61,-163.4 143.61,-157.4 143.61,-157.4 143.61,-145.4 143.61,-145.4 143.61,-139.4 149.61,-133.4 155.61,-133.4"/>
<text text-anchor="middle" x="171.61" y="-147.7" font-family="Arial" font-size="14.00">prereq</text>
</g>
<!-- section&#45;&gt;prereq -->
<g id="edge6" class="edge">
<title>section&#45;&gt;prereq</title>
<path fill="none" stroke="#1f78b4" d="M232.64,-172.85C225.22,-170.24 217.17,-167.41 209.43,-164.69"/>
<polygon fill="#a6cee3" stroke="#1f78b4" points="210.44,-161.34 199.85,-161.32 208.12,-167.94 210.44,-161.34"/>
</g>
<!-- context -->
<g id="node8" class="node">
<title>context</title>
<path fill="#1afabc" stroke="black" d="M228.93,-19.68C228.93,-19.68 264.93,-19.68 264.93,-19.68 270.93,-19.68 276.93,-25.68 276.93,-31.68 276.93,-31.68 276.93,-43.68 276.93,-43.68 276.93,-49.68 270.93,-55.68 264.93,-55.68 264.93,-55.68 228.93,-55.68 228.93,-55.68 222.93,-55.68 216.93,-49.68 216.93,-43.68 216.93,-43.68 216.93,-31.68 216.93,-31.68 216.93,-25.68 222.93,-19.68 228.93,-19.68"/>
<text text-anchor="middle" x="246.93" y="-33.98" font-family="Arial" font-size="14.00">context</text>
</g>
<!-- section&#45;&gt;context -->
<g id="edge7" class="edge">
<title>section&#45;&gt;context</title>
<path fill="none" stroke="#1f78b4" d="M260.42,-165.14C257.79,-140.29 253.04,-95.42 249.94,-66.09"/>
<polygon fill="#a6cee3" stroke="#1f78b4" points="253.41,-65.63 248.88,-56.05 246.45,-66.36 253.41,-65.63"/>
</g>
<!-- steps&#45;informal -->
<g id="node9" class="node">
<title>steps&#45;informal</title>
<path fill="#1afabc" stroke="black" d="M99,-35.06C99,-35.06 177,-35.06 177,-35.06 183,-35.06 189,-41.06 189,-47.06 189,-47.06 189,-59.06 189,-59.06 189,-65.06 183,-71.06 177,-71.06 177,-71.06 99,-71.06 99,-71.06 93,-71.06 87,-65.06 87,-59.06 87,-59.06 87,-47.06 87,-47.06 87,-41.06 93,-35.06 99,-35.06"/>
<text text-anchor="middle" x="138" y="-49.36" font-family="Arial" font-size="14.00">steps&#45;informal</text>
</g>
<!-- section&#45;&gt;steps&#45;informal -->
<g id="edge8" class="edge">
<title>section&#45;&gt;steps&#45;informal</title>
<path fill="none" stroke="#1f78b4" d="M245.06,-165.18C223.65,-142.76 187.04,-104.42 162.68,-78.91"/>
<polygon fill="#a6cee3" stroke="#1f78b4" points="164.98,-76.25 155.54,-71.43 159.92,-81.08 164.98,-76.25"/>
</g>
<!-- tasktroubleshooting -->
<g id="node10" class="node">
<title>tasktroubleshooting</title>
<path fill="#1afabc" stroke="black" d="M11.92,-133.34C11.92,-133.34 121.92,-133.34 121.92,-133.34 127.92,-133.34 133.92,-139.34 133.92,-145.34 133.92,-145.34 133.92,-157.34 133.92,-157.34 133.92,-163.34 127.92,-169.34 121.92,-169.34 121.92,-169.34 11.92,-169.34 11.92,-169.34 5.92,-169.34 -0.08,-163.34 -0.08,-157.34 -0.08,-157.34 -0.08,-145.34 -0.08,-145.34 -0.08,-139.34 5.92,-133.34 11.92,-133.34"/>
<text text-anchor="middle" x="66.92" y="-147.64" font-family="Arial" font-size="14.00">tasktroubleshooting</text>
</g>
<!-- section&#45;&gt;tasktroubleshooting -->
<g id="edge9" class="edge">
<title>section&#45;&gt;tasktroubleshooting</title>
<path fill="none" stroke="#1f78b4" d="M232.66,-178.44C209.15,-174.59 175.21,-169.05 144.16,-163.97"/>
<polygon fill="#a6cee3" stroke="#1f78b4" points="144.63,-160.5 134.2,-162.34 143.5,-167.41 144.63,-160.5"/>
</g>
<!-- result -->
<g id="node11" class="node">
<title>result</title>
<path fill="#1afabc" stroke="black" d="M132.59,-87.71C132.59,-87.71 162.59,-87.71 162.59,-87.71 168.59,-87.71 174.59,-93.71 174.59,-99.71 174.59,-99.71 174.59,-111.71 174.59,-111.71 174.59,-117.71 168.59,-123.71 162.59,-123.71 162.59,-123.71 132.59,-123.71 132.59,-123.71 126.59,-123.71 120.59,-117.71 120.59,-111.71 120.59,-111.71 120.59,-99.71 120.59,-99.71 120.59,-93.71 126.59,-87.71 132.59,-87.71"/>
<text text-anchor="middle" x="147.59" y="-102.01" font-family="Arial" font-size="14.00">result</text>
</g>
<!-- section&#45;&gt;result -->
<g id="edge10" class="edge">
<title>section&#45;&gt;result</title>
<path fill="none" stroke="#1f78b4" d="M235.44,-165.1C219.76,-154.5 199.79,-141 182.86,-129.56"/>
<polygon fill="#a6cee3" stroke="#1f78b4" points="184.57,-126.49 174.32,-123.78 180.65,-132.28 184.57,-126.49"/>
</g>
<!-- postreq -->
<g id="node12" class="node">
<title>postreq</title>
<path fill="#1afabc" stroke="black" d="M209.23,-64.89C209.23,-64.89 247.23,-64.89 247.23,-64.89 253.23,-64.89 259.23,-70.89 259.23,-76.89 259.23,-76.89 259.23,-88.89 259.23,-88.89 259.23,-94.89 253.23,-100.89 247.23,-100.89 247.23,-100.89 209.23,-100.89 209.23,-100.89 203.23,-100.89 197.23,-94.89 197.23,-88.89 197.23,-88.89 197.23,-76.89 197.23,-76.89 197.23,-70.89 203.23,-64.89 209.23,-64.89"/>
<text text-anchor="middle" x="228.23" y="-79.19" font-family="Arial" font-size="14.00">postreq</text>
</g>
<!-- section&#45;&gt;postreq -->
<g id="edge11" class="edge">
<title>section&#45;&gt;postreq</title>
<path fill="none" stroke="#1f78b4" d="M256.09,-164.88C250.94,-149.73 243.57,-128.03 237.7,-110.76"/>
<polygon fill="#a6cee3" stroke="#1f78b4" points="240.98,-109.53 234.45,-101.19 234.35,-111.78 240.98,-109.53"/>
</g>
<!-- steps -->
<g id="node14" class="node">
<title>steps</title>
<path fill="#1afabc" stroke="black" d="M711.14,-363.16C711.14,-363.16 741.14,-363.16 741.14,-363.16 747.14,-363.16 753.14,-369.16 753.14,-375.16 753.14,-375.16 753.14,-387.16 753.14,-387.16 753.14,-393.16 747.14,-399.16 741.14,-399.16 741.14,-399.16 711.14,-399.16 711.14,-399.16 705.14,-399.16 699.14,-393.16 699.14,-387.16 699.14,-387.16 699.14,-375.16 699.14,-375.16 699.14,-369.16 705.14,-363.16 711.14,-363.16"/>
<text text-anchor="middle" x="726.14" y="-377.46" font-family="Arial" font-size="14.00">steps</text>
</g>
<!-- ol&#45;&gt;steps -->
<g id="edge13" class="edge">
<title>ol&#45;&gt;steps</title>
<path fill="none" stroke="#1f78b4" d="M621.04,-373.46C640.64,-374.9 667.38,-376.86 688.98,-378.44"/>
<polygon fill="#a6cee3" stroke="#1f78b4" points="688.88,-381.94 699.11,-379.18 689.4,-374.96 688.88,-381.94"/>
</g>
<!-- steps&#45;unordered -->
<g id="node16" class="node">
<title>steps&#45;unordered</title>
<path fill="#1afabc" stroke="black" d="M709.99,-151.01C709.99,-151.01 800.99,-151.01 800.99,-151.01 806.99,-151.01 812.99,-157.01 812.99,-163.01 812.99,-163.01 812.99,-175.01 812.99,-175.01 812.99,-181.01 806.99,-187.01 800.99,-187.01 800.99,-187.01 709.99,-187.01 709.99,-187.01 703.99,-187.01 697.99,-181.01 697.99,-175.01 697.99,-175.01 697.99,-163.01 697.99,-163.01 697.99,-157.01 703.99,-151.01 709.99,-151.01"/>
<text text-anchor="middle" x="755.49" y="-165.31" font-family="Arial" font-size="14.00">steps&#45;unordered</text>
</g>
<!-- ul&#45;&gt;steps&#45;unordered -->
<g id="edge15" class="edge">
<title>ul&#45;&gt;steps&#45;unordered</title>
<path fill="none" stroke="#1f78b4" d="M622.45,-221.55C643.68,-213.17 673.88,-201.24 700.15,-190.87"/>
<polygon fill="#a6cee3" stroke="#1f78b4" points="701.61,-194.05 709.62,-187.12 699.04,-187.54 701.61,-194.05"/>
</g>
<!-- choices -->
<g id="node17" class="node">
<title>choices</title>
<path fill="#1afabc" stroke="black" d="M663.43,-106C663.43,-106 701.43,-106 701.43,-106 707.43,-106 713.43,-112 713.43,-118 713.43,-118 713.43,-130 713.43,-130 713.43,-136 707.43,-142 701.43,-142 701.43,-142 663.43,-142 663.43,-142 657.43,-142 651.43,-136 651.43,-130 651.43,-130 651.43,-118 651.43,-118 651.43,-112 657.43,-106 663.43,-106"/>
<text text-anchor="middle" x="682.43" y="-120.3" font-family="Arial" font-size="14.00">choices</text>
</g>
<!-- ul&#45;&gt;choices -->
<g id="edge16" class="edge">
<title>ul&#45;&gt;choices</title>
<path fill="none" stroke="#1f78b4" d="M610.05,-213.92C624.16,-196.39 645.56,-169.8 661.44,-150.08"/>
<polygon fill="#a6cee3" stroke="#1f78b4" points="664.32,-152.08 667.86,-142.1 658.87,-147.69 664.32,-152.08"/>
</g>
<!-- stepsection -->
<g id="node19" class="node">
<title>stepsection</title>
<path fill="#1afabc" stroke="black" d="M69.87,-408.69C69.87,-408.69 130.87,-408.69 130.87,-408.69 136.87,-408.69 142.87,-414.69 142.87,-420.69 142.87,-420.69 142.87,-432.69 142.87,-432.69 142.87,-438.69 136.87,-444.69 130.87,-444.69 130.87,-444.69 69.87,-444.69 69.87,-444.69 63.87,-444.69 57.87,-438.69 57.87,-432.69 57.87,-432.69 57.87,-420.69 57.87,-420.69 57.87,-414.69 63.87,-408.69 69.87,-408.69"/>
<text text-anchor="middle" x="100.37" y="-422.99" font-family="Arial" font-size="14.00">stepsection</text>
</g>
<!-- li&#45;&gt;stepsection -->
<g id="edge18" class="edge">
<title>li&#45;&gt;stepsection</title>
<path fill="none" stroke="#1f78b4" d="M226.65,-422.49C206.32,-423.16 177.84,-424.11 153.07,-424.93"/>
<polygon fill="#a6cee3" stroke="#1f78b4" points="152.95,-421.44 143.07,-425.27 153.18,-428.43 152.95,-421.44"/>
</g>
<!-- step -->
<g id="node20" class="node">
<title>step</title>
<path fill="#1afabc" stroke="black" d="M148.43,-499.92C148.43,-499.92 178.43,-499.92 178.43,-499.92 184.43,-499.92 190.43,-505.92 190.43,-511.92 190.43,-511.92 190.43,-523.92 190.43,-523.92 190.43,-529.92 184.43,-535.92 178.43,-535.92 178.43,-535.92 148.43,-535.92 148.43,-535.92 142.43,-535.92 136.43,-529.92 136.43,-523.92 136.43,-523.92 136.43,-511.92 136.43,-511.92 136.43,-505.92 142.43,-499.92 148.43,-499.92"/>
<text text-anchor="middle" x="163.43" y="-514.22" font-family="Arial" font-size="14.00">step</text>
</g>
<!-- li&#45;&gt;step -->
<g id="edge19" class="edge">
<title>li&#45;&gt;step</title>
<path fill="none" stroke="#1f78b4" d="M236.73,-439.71C222.86,-454.51 203.08,-475.61 187.56,-492.16"/>
<polygon fill="#a6cee3" stroke="#1f78b4" points="184.62,-490.19 180.33,-499.88 189.73,-494.98 184.62,-490.19"/>
</g>
<!-- choice -->
<g id="node21" class="node">
<title>choice</title>
<path fill="#1afabc" stroke="black" d="M113.65,-454.78C113.65,-454.78 145.65,-454.78 145.65,-454.78 151.65,-454.78 157.65,-460.78 157.65,-466.78 157.65,-466.78 157.65,-478.78 157.65,-478.78 157.65,-484.78 151.65,-490.78 145.65,-490.78 145.65,-490.78 113.65,-490.78 113.65,-490.78 107.65,-490.78 101.65,-484.78 101.65,-478.78 101.65,-478.78 101.65,-466.78 101.65,-466.78 101.65,-460.78 107.65,-454.78 113.65,-454.78"/>
<text text-anchor="middle" x="129.65" y="-469.08" font-family="Arial" font-size="14.00">choice</text>
</g>
<!-- li&#45;&gt;choice -->
<g id="edge20" class="edge">
<title>li&#45;&gt;choice</title>
<path fill="none" stroke="#1f78b4" d="M226.48,-432.82C209.03,-440.02 186.15,-449.47 167.01,-457.36"/>
<polygon fill="#a6cee3" stroke="#1f78b4" points="165.58,-454.17 157.67,-461.22 168.25,-460.64 165.58,-454.17"/>
</g>
<!-- cmd -->
<g id="node23" class="node">
<title>cmd</title>
<path fill="#1afabc" stroke="black" d="M140.74,-300.63C140.74,-300.63 170.74,-300.63 170.74,-300.63 176.74,-300.63 182.74,-306.63 182.74,-312.63 182.74,-312.63 182.74,-324.63 182.74,-324.63 182.74,-330.63 176.74,-336.63 170.74,-336.63 170.74,-336.63 140.74,-336.63 140.74,-336.63 134.74,-336.63 128.74,-330.63 128.74,-324.63 128.74,-324.63 128.74,-312.63 128.74,-312.63 128.74,-306.63 134.74,-300.63 140.74,-300.63"/>
<text text-anchor="middle" x="155.74" y="-314.93" font-family="Arial" font-size="14.00">cmd</text>
</g>
<!-- ph&#45;&gt;cmd -->
<g id="edge22" class="edge">
<title>ph&#45;&gt;cmd</title>
<path fill="none" stroke="#1f78b4" d="M256.54,-325.95C238.05,-324.6 213.34,-322.81 193.01,-321.33"/>
<polygon fill="#a6cee3" stroke="#1f78b4" points="193.06,-317.83 182.83,-320.59 192.55,-324.81 193.06,-317.83"/>
</g>
<!-- info -->
<g id="node25" class="node">
<title>info</title>
<path fill="#1afabc" stroke="black" d="M303.27,-627.18C303.27,-627.18 333.27,-627.18 333.27,-627.18 339.27,-627.18 345.27,-633.18 345.27,-639.18 345.27,-639.18 345.27,-651.18 345.27,-651.18 345.27,-657.18 339.27,-663.18 333.27,-663.18 333.27,-663.18 303.27,-663.18 303.27,-663.18 297.27,-663.18 291.27,-657.18 291.27,-651.18 291.27,-651.18 291.27,-639.18 291.27,-639.18 291.27,-633.18 297.27,-627.18 303.27,-627.18"/>
<text text-anchor="middle" x="318.27" y="-641.48" font-family="Arial" font-size="14.00">info</text>
</g>
<!-- div&#45;&gt;info -->
<g id="edge24" class="edge">
<title>div&#45;&gt;info</title>
<path fill="none" stroke="#1f78b4" d="M359.03,-571.68C351.66,-584.98 341.52,-603.27 333.19,-618.28"/>
<polygon fill="#a6cee3" stroke="#1f78b4" points="330.08,-616.68 328.29,-627.12 336.2,-620.08 330.08,-616.68"/>
</g>
<!-- tutorialinfo -->
<g id="node26" class="node">
<title>tutorialinfo</title>
<path fill="#1afabc" stroke="black" d="M216.12,-620.75C216.12,-620.75 271.12,-620.75 271.12,-620.75 277.12,-620.75 283.12,-626.75 283.12,-632.75 283.12,-632.75 283.12,-644.75 283.12,-644.75 283.12,-650.75 277.12,-656.75 271.12,-656.75 271.12,-656.75 216.12,-656.75 216.12,-656.75 210.12,-656.75 204.12,-650.75 204.12,-644.75 204.12,-644.75 204.12,-632.75 204.12,-632.75 204.12,-626.75 210.12,-620.75 216.12,-620.75"/>
<text text-anchor="middle" x="243.62" y="-635.05" font-family="Arial" font-size="14.00">tutorialinfo</text>
</g>
<!-- div&#45;&gt;tutorialinfo -->
<g id="edge25" class="edge">
<title>div&#45;&gt;tutorialinfo</title>
<path fill="none" stroke="#1f78b4" d="M342.47,-571.64C323.84,-584.29 298.76,-601.31 278.53,-615.05"/>
<polygon fill="#a6cee3" stroke="#1f78b4" points="276.49,-612.2 270.19,-620.71 280.42,-617.99 276.49,-612.2"/>
</g>
<!-- stepxmp -->
<g id="node27" class="node">
<title>stepxmp</title>
<path fill="#1afabc" stroke="black" d="M295.56,-672.94C295.56,-672.94 339.56,-672.94 339.56,-672.94 345.56,-672.94 351.56,-678.94 351.56,-684.94 351.56,-684.94 351.56,-696.94 351.56,-696.94 351.56,-702.94 345.56,-708.94 339.56,-708.94 339.56,-708.94 295.56,-708.94 295.56,-708.94 289.56,-708.94 283.56,-702.94 283.56,-696.94 283.56,-696.94 283.56,-684.94 283.56,-684.94 283.56,-678.94 289.56,-672.94 295.56,-672.94"/>
<text text-anchor="middle" x="317.56" y="-687.24" font-family="Arial" font-size="14.00">stepxmp</text>
</g>
<!-- div&#45;&gt;stepxmp -->
<g id="edge26" class="edge">
<title>div&#45;&gt;stepxmp</title>
<path fill="none" stroke="#1f78b4" d="M362.23,-571.82C353.5,-595.12 338.29,-635.67 328.08,-662.91"/>
<polygon fill="#a6cee3" stroke="#1f78b4" points="324.67,-662.04 324.43,-672.63 331.22,-664.49 324.67,-662.04"/>
</g>
<!-- stepresult -->
<g id="node28" class="node">
<title>stepresult</title>
<path fill="#1afabc" stroke="black" d="M384.69,-672.71C384.69,-672.71 435.69,-672.71 435.69,-672.71 441.69,-672.71 447.69,-678.71 447.69,-684.71 447.69,-684.71 447.69,-696.71 447.69,-696.71 447.69,-702.71 441.69,-708.71 435.69,-708.71 435.69,-708.71 384.69,-708.71 384.69,-708.71 378.69,-708.71 372.69,-702.71 372.69,-696.71 372.69,-696.71 372.69,-684.71 372.69,-684.71 372.69,-678.71 378.69,-672.71 384.69,-672.71"/>
<text text-anchor="middle" x="410.19" y="-687.01" font-family="Arial" font-size="14.00">stepresult</text>
</g>
<!-- div&#45;&gt;stepresult -->
<g id="edge27" class="edge">
<title>div&#45;&gt;stepresult</title>
<path fill="none" stroke="#1f78b4" d="M374.53,-571.79C381.51,-595.04 393.65,-635.53 401.8,-662.72"/>
<polygon fill="#a6cee3" stroke="#1f78b4" points="398.48,-663.85 404.71,-672.42 405.19,-661.84 398.48,-663.85"/>
</g>
<!-- steptroubleshooting -->
<g id="node29" class="node">
<title>steptroubleshooting</title>
<path fill="#1afabc" stroke="black" d="M298.1,-722.19C298.1,-722.19 408.1,-722.19 408.1,-722.19 414.1,-722.19 420.1,-728.19 420.1,-734.19 420.1,-734.19 420.1,-746.19 420.1,-746.19 420.1,-752.19 414.1,-758.19 408.1,-758.19 408.1,-758.19 298.1,-758.19 298.1,-758.19 292.1,-758.19 286.1,-752.19 286.1,-746.19 286.1,-746.19 286.1,-734.19 286.1,-734.19 286.1,-728.19 292.1,-722.19 298.1,-722.19"/>
<text text-anchor="middle" x="353.1" y="-736.49" font-family="Arial" font-size="14.00">steptroubleshooting</text>
</g>
<!-- div&#45;&gt;steptroubleshooting -->
<g id="edge28" class="edge">
<title>div&#45;&gt;steptroubleshooting</title>
<path fill="none" stroke="#1f78b4" d="M367.51,-571.81C364.71,-604.51 358.82,-673.3 355.5,-712.07"/>
<polygon fill="#a6cee3" stroke="#1f78b4" points="352.01,-711.9 354.64,-722.16 358.98,-712.49 352.01,-711.9"/>
</g>
<!-- choicetable -->
<g id="node31" class="node">
<title>choicetable</title>
<path fill="#1afabc" stroke="black" d="M758.41,-261.99C758.41,-261.99 819.41,-261.99 819.41,-261.99 825.41,-261.99 831.41,-267.99 831.41,-273.99 831.41,-273.99 831.41,-285.99 831.41,-285.99 831.41,-291.99 825.41,-297.99 819.41,-297.99 819.41,-297.99 758.41,-297.99 758.41,-297.99 752.41,-297.99 746.41,-291.99 746.41,-285.99 746.41,-285.99 746.41,-273.99 746.41,-273.99 746.41,-267.99 752.41,-261.99 758.41,-261.99"/>
<text text-anchor="middle" x="788.91" y="-276.29" font-family="Arial" font-size="14.00">choicetable</text>
</g>
<!-- simpletable&#45;&gt;choicetable -->
<g id="edge30" class="edge">
<title>simpletable&#45;&gt;choicetable</title>
<path fill="none" stroke="#1f78b4" d="M664.63,-300.64C686.48,-297.01 713.21,-292.57 736.27,-288.74"/>
<polygon fill="#a6cee3" stroke="#1f78b4" points="736.95,-292.17 746.24,-287.08 735.8,-285.27 736.95,-292.17"/>
</g>
<!-- chhead -->
<g id="node33" class="node">
<title>chhead</title>
<path fill="#1afabc" stroke="black" d="M481.94,-0.85C481.94,-0.85 518.94,-0.85 518.94,-0.85 524.94,-0.85 530.94,-6.85 530.94,-12.85 530.94,-12.85 530.94,-24.85 530.94,-24.85 530.94,-30.85 524.94,-36.85 518.94,-36.85 518.94,-36.85 481.94,-36.85 481.94,-36.85 475.94,-36.85 469.94,-30.85 469.94,-24.85 469.94,-24.85 469.94,-12.85 469.94,-12.85 469.94,-6.85 475.94,-0.85 481.94,-0.85"/>
<text text-anchor="middle" x="500.44" y="-15.15" font-family="Arial" font-size="14.00">chhead</text>
</g>
<!-- sthead&#45;&gt;chhead -->
<g id="edge32" class="edge">
<title>sthead&#45;&gt;chhead</title>
<path fill="none" stroke="#1f78b4" d="M472.28,-139.15C477.79,-115.63 487.46,-74.32 493.91,-46.76"/>
<polygon fill="#a6cee3" stroke="#1f78b4" points="497.34,-47.48 496.21,-36.94 490.52,-45.88 497.34,-47.48"/>
</g>
<!-- choptionhd -->
<g id="node35" class="node">
<title>choptionhd</title>
<path fill="#1afabc" stroke="black" d="M712.66,-542.36C712.66,-542.36 771.66,-542.36 771.66,-542.36 777.66,-542.36 783.66,-548.36 783.66,-554.36 783.66,-554.36 783.66,-566.36 783.66,-566.36 783.66,-572.36 777.66,-578.36 771.66,-578.36 771.66,-578.36 712.66,-578.36 712.66,-578.36 706.66,-578.36 700.66,-572.36 700.66,-566.36 700.66,-566.36 700.66,-554.36 700.66,-554.36 700.66,-548.36 706.66,-542.36 712.66,-542.36"/>
<text text-anchor="middle" x="742.16" y="-556.66" font-family="Arial" font-size="14.00">choptionhd</text>
</g>
<!-- stentry&#45;&gt;choptionhd -->
<g id="edge34" class="edge">
<title>stentry&#45;&gt;choptionhd</title>
<path fill="none" stroke="#1f78b4" d="M635.34,-501.62C654.25,-512.02 679.3,-525.79 700.39,-537.39"/>
<polygon fill="#a6cee3" stroke="#1f78b4" points="698.71,-540.46 709.16,-542.21 702.08,-534.33 698.71,-540.46"/>
</g>
<!-- chdeschd -->
<g id="node36" class="node">
<title>chdeschd</title>
<path fill="#1afabc" stroke="black" d="M726.14,-487.82C726.14,-487.82 776.14,-487.82 776.14,-487.82 782.14,-487.82 788.14,-493.82 788.14,-499.82 788.14,-499.82 788.14,-511.82 788.14,-511.82 788.14,-517.82 782.14,-523.82 776.14,-523.82 776.14,-523.82 726.14,-523.82 726.14,-523.82 720.14,-523.82 714.14,-517.82 714.14,-511.82 714.14,-511.82 714.14,-499.82 714.14,-499.82 714.14,-493.82 720.14,-487.82 726.14,-487.82"/>
<text text-anchor="middle" x="751.14" y="-502.12" font-family="Arial" font-size="14.00">chdeschd</text>
</g>
<!-- stentry&#45;&gt;chdeschd -->
<g id="edge35" class="edge">
<title>stentry&#45;&gt;chdeschd</title>
<path fill="none" stroke="#1f78b4" d="M635.15,-489.76C654.77,-492.48 681.27,-496.15 704,-499.29"/>
<polygon fill="#a6cee3" stroke="#1f78b4" points="703.75,-502.79 714.13,-500.7 704.71,-495.86 703.75,-502.79"/>
</g>
<!-- choption -->
<g id="node37" class="node">
<title>choption</title>
<path fill="#1afabc" stroke="black" d="M683.1,-587.57C683.1,-587.57 727.1,-587.57 727.1,-587.57 733.1,-587.57 739.1,-593.57 739.1,-599.57 739.1,-599.57 739.1,-611.57 739.1,-611.57 739.1,-617.57 733.1,-623.57 727.1,-623.57 727.1,-623.57 683.1,-623.57 683.1,-623.57 677.1,-623.57 671.1,-617.57 671.1,-611.57 671.1,-611.57 671.1,-599.57 671.1,-599.57 671.1,-593.57 677.1,-587.57 683.1,-587.57"/>
<text text-anchor="middle" x="705.1" y="-601.87" font-family="Arial" font-size="14.00">choption</text>
</g>
<!-- stentry&#45;&gt;choption -->
<g id="edge36" class="edge">
<title>stentry&#45;&gt;choption</title>
<path fill="none" stroke="#1f78b4" d="M621.55,-504C638.04,-524.04 664.71,-556.47 683.47,-579.28"/>
<polygon fill="#a6cee3" stroke="#1f78b4" points="680.94,-581.71 689.99,-587.21 686.34,-577.26 680.94,-581.71"/>
</g>
<!-- chdesc -->
<g id="node38" class="node">
<title>chdesc</title>
<path fill="#1afabc" stroke="black" d="M616.06,-599.84C616.06,-599.84 651.06,-599.84 651.06,-599.84 657.06,-599.84 663.06,-605.84 663.06,-611.84 663.06,-611.84 663.06,-623.84 663.06,-623.84 663.06,-629.84 657.06,-635.84 651.06,-635.84 651.06,-635.84 616.06,-635.84 616.06,-635.84 610.06,-635.84 604.06,-629.84 604.06,-623.84 604.06,-623.84 604.06,-611.84 604.06,-611.84 604.06,-605.84 610.06,-599.84 616.06,-599.84"/>
<text text-anchor="middle" x="633.56" y="-614.14" font-family="Arial" font-size="14.00">chdesc</text>
</g>
<!-- stentry&#45;&gt;chdesc -->
<g id="edge37" class="edge">
<title>stentry&#45;&gt;chdesc</title>
<path fill="none" stroke="#1f78b4" d="M610.28,-503.89C614.79,-525.99 622.48,-563.63 627.78,-589.57"/>
<polygon fill="#a6cee3" stroke="#1f78b4" points="624.39,-590.45 629.82,-599.55 631.25,-589.05 624.39,-590.45"/>
</g>
<!-- chrow -->
<g id="node40" class="node">
<title>chrow</title>
<path fill="#1afabc" stroke="black" d="M381.48,-33.15C381.48,-33.15 411.48,-33.15 411.48,-33.15 417.48,-33.15 423.48,-39.15 423.48,-45.15 423.48,-45.15 423.48,-57.15 423.48,-57.15 423.48,-63.15 417.48,-69.15 411.48,-69.15 411.48,-69.15 381.48,-69.15 381.48,-69.15 375.48,-69.15 369.48,-63.15 369.48,-57.15 369.48,-57.15 369.48,-45.15 369.48,-45.15 369.48,-39.15 375.48,-33.15 381.48,-33.15"/>
<text text-anchor="middle" x="396.48" y="-47.45" font-family="Arial" font-size="14.00">chrow</text>
</g>
<!-- strow&#45;&gt;chrow -->
<g id="edge39" class="edge">
<title>strow&#45;&gt;chrow</title>
<path fill="none" stroke="#1f78b4" d="M402.91,-166.03C401.65,-143.62 399.52,-105.37 398.05,-79.21"/>
<polygon fill="#a6cee3" stroke="#1f78b4" points="401.54,-78.95 397.49,-69.16 394.55,-79.34 401.54,-78.95"/>
</g>
</g>
</svg>
