<?xml version="1.0" encoding="UTF-8" standalone="no"?>
<!DOCTYPE svg PUBLIC "-//W3C//DTD SVG 1.1//EN"
 "http://www.w3.org/Graphics/SVG/1.1/DTD/svg11.dtd">
<!-- Generated by graphviz version 6.0.1 (20220911.1526)
 -->
<!-- Pages: 1 -->
<svg width="582pt" height="491pt"
 viewBox="0.00 0.00 582.00 491.00" xmlns="http://www.w3.org/2000/svg" xmlns:xlink="http://www.w3.org/1999/xlink">
<g id="graph0" class="graph" transform="scale(1 1) rotate(0) translate(4 487)">
<polygon fill="white" stroke="none" points="-4,4 -4,-487 578,-487 578,4 -4,4"/>
<!-- domains -->
<g id="node1" class="node">
<title>domains</title>
<path fill="#afa7f4" stroke="black" d="M227.68,-227.37C227.68,-227.37 313.68,-227.37 313.68,-227.37 319.68,-227.37 325.68,-233.37 325.68,-239.37 325.68,-239.37 325.68,-251.37 325.68,-251.37 325.68,-257.37 319.68,-263.37 313.68,-263.37 313.68,-263.37 227.68,-263.37 227.68,-263.37 221.68,-263.37 215.68,-257.37 215.68,-251.37 215.68,-251.37 215.68,-239.37 215.68,-239.37 215.68,-233.37 221.68,-227.37 227.68,-227.37"/>
<text text-anchor="middle" x="254.68" y="-241.67" font-family="Arial" font-size="14.00">Domanins</text>
<polyline fill="none" stroke="black" points="293.68,-227.37 293.68,-263.37"/>
<text text-anchor="middle" x="309.68" y="-241.67" font-family="Arial" font-size="14.00">22</text>
</g>
<!-- abbrev&#45;d -->
<g id="node2" class="node">
<title>abbrev&#45;d</title>
<path fill="#1afabc" stroke="black" d="M442.85,-281.51C442.85,-281.51 488.85,-281.51 488.85,-281.51 494.85,-281.51 500.85,-287.51 500.85,-293.51 500.85,-293.51 500.85,-305.51 500.85,-305.51 500.85,-311.51 494.85,-317.51 488.85,-317.51 488.85,-317.51 442.85,-317.51 442.85,-317.51 436.85,-317.51 430.85,-311.51 430.85,-305.51 430.85,-305.51 430.85,-293.51 430.85,-293.51 430.85,-287.51 436.85,-281.51 442.85,-281.51"/>
<text text-anchor="middle" x="465.85" y="-295.81" font-family="Arial" font-size="14.00">abbrev&#45;d</text>
</g>
<!-- domains&#45;&gt;abbrev&#45;d -->
<g id="edge1" class="edge">
<title>domains&#45;&gt;abbrev&#45;d</title>
<path fill="none" stroke="#1f78b4" d="M325.83,-260.67C355.98,-269.03 392.84,-279.25 421.17,-287.11"/>
<polygon fill="#a6cee3" stroke="#1f78b4" points="420.24,-290.49 430.81,-289.79 422.11,-283.74 420.24,-290.49"/>
</g>
<!-- markup&#45;d -->
<g id="node3" class="node">
<title>markup&#45;d</title>
<path fill="#1afabc" stroke="black" d="M122.95,-54.02C122.95,-54.02 172.95,-54.02 172.95,-54.02 178.95,-54.02 184.95,-60.02 184.95,-66.02 184.95,-66.02 184.95,-78.02 184.95,-78.02 184.95,-84.02 178.95,-90.02 172.95,-90.02 172.95,-90.02 122.95,-90.02 122.95,-90.02 116.95,-90.02 110.95,-84.02 110.95,-78.02 110.95,-78.02 110.95,-66.02 110.95,-66.02 110.95,-60.02 116.95,-54.02 122.95,-54.02"/>
<text text-anchor="middle" x="147.95" y="-68.32" font-family="Arial" font-size="14.00">markup&#45;d</text>
</g>
<!-- domains&#45;&gt;markup&#45;d -->
<g id="edge2" class="edge">
<title>domains&#45;&gt;markup&#45;d</title>
<path fill="none" stroke="#1f78b4" d="M257.78,-227.15C236.05,-196.46 192.06,-134.32 166.84,-98.71"/>
<polygon fill="#a6cee3" stroke="#1f78b4" points="169.49,-96.4 160.86,-90.26 163.78,-100.44 169.49,-96.4"/>
</g>
<!-- mathml&#45;d -->
<g id="node4" class="node">
<title>mathml&#45;d</title>
<path fill="#1afabc" stroke="black" d="M39.44,-307.3C39.44,-307.3 89.44,-307.3 89.44,-307.3 95.44,-307.3 101.44,-313.3 101.44,-319.3 101.44,-319.3 101.44,-331.3 101.44,-331.3 101.44,-337.3 95.44,-343.3 89.44,-343.3 89.44,-343.3 39.44,-343.3 39.44,-343.3 33.44,-343.3 27.44,-337.3 27.44,-331.3 27.44,-331.3 27.44,-319.3 27.44,-319.3 27.44,-313.3 33.44,-307.3 39.44,-307.3"/>
<text text-anchor="middle" x="64.44" y="-321.6" font-family="Arial" font-size="14.00">mathml&#45;d</text>
</g>
<!-- domains&#45;&gt;mathml&#45;d -->
<g id="edge3" class="edge">
<title>domains&#45;&gt;mathml&#45;d</title>
<path fill="none" stroke="#1f78b4" d="M224.14,-263.41C190.4,-276.49 144.96,-294.1 111.18,-307.19"/>
<polygon fill="#a6cee3" stroke="#1f78b4" points="109.6,-304.05 101.54,-310.92 112.13,-310.57 109.6,-304.05"/>
</g>
<!-- syntaxdiagram&#45;d -->
<g id="node5" class="node">
<title>syntaxdiagram&#45;d</title>
<path fill="#1afabc" stroke="black" d="M468.61,-234.26C468.61,-234.26 561.61,-234.26 561.61,-234.26 567.61,-234.26 573.61,-240.26 573.61,-246.26 573.61,-246.26 573.61,-258.26 573.61,-258.26 573.61,-264.26 567.61,-270.26 561.61,-270.26 561.61,-270.26 468.61,-270.26 468.61,-270.26 462.61,-270.26 456.61,-264.26 456.61,-258.26 456.61,-258.26 456.61,-246.26 456.61,-246.26 456.61,-240.26 462.61,-234.26 468.61,-234.26"/>
<text text-anchor="middle" x="515.11" y="-248.56" font-family="Arial" font-size="14.00">syntaxdiagram&#45;d</text>
</g>
<!-- domains&#45;&gt;syntaxdiagram&#45;d -->
<g id="edge4" class="edge">
<title>domains&#45;&gt;syntaxdiagram&#45;d</title>
<path fill="none" stroke="#1f78b4" d="M325.84,-246.93C361.36,-247.93 407.83,-249.24 445.83,-250.31"/>
<polygon fill="#a6cee3" stroke="#1f78b4" points="446.22,-253.82 456.31,-250.6 446.41,-246.82 446.22,-253.82"/>
</g>
<!-- hw&#45;d -->
<g id="node6" class="node">
<title>hw&#45;d</title>
<path fill="#1afabc" stroke="black" d="M374.63,-324.07C374.63,-324.07 404.63,-324.07 404.63,-324.07 410.63,-324.07 416.63,-330.07 416.63,-336.07 416.63,-336.07 416.63,-348.07 416.63,-348.07 416.63,-354.07 410.63,-360.07 404.63,-360.07 404.63,-360.07 374.63,-360.07 374.63,-360.07 368.63,-360.07 362.63,-354.07 362.63,-348.07 362.63,-348.07 362.63,-336.07 362.63,-336.07 362.63,-330.07 368.63,-324.07 374.63,-324.07"/>
<text text-anchor="middle" x="389.63" y="-338.37" font-family="Arial" font-size="14.00">hw&#45;d</text>
</g>
<!-- domains&#45;&gt;hw&#45;d -->
<g id="edge5" class="edge">
<title>domains&#45;&gt;hw&#45;d</title>
<path fill="none" stroke="#1f78b4" d="M293.05,-263.56C311.83,-278.82 338.81,-300.76 359.49,-317.57"/>
<polygon fill="#a6cee3" stroke="#1f78b4" points="357.39,-320.37 367.36,-323.96 361.8,-314.94 357.39,-320.37"/>
</g>
<!-- svg&#45;d -->
<g id="node7" class="node">
<title>svg&#45;d</title>
<path fill="#1afabc" stroke="black" d="M107.75,-102.35C107.75,-102.35 137.75,-102.35 137.75,-102.35 143.75,-102.35 149.75,-108.35 149.75,-114.35 149.75,-114.35 149.75,-126.35 149.75,-126.35 149.75,-132.35 143.75,-138.35 137.75,-138.35 137.75,-138.35 107.75,-138.35 107.75,-138.35 101.75,-138.35 95.75,-132.35 95.75,-126.35 95.75,-126.35 95.75,-114.35 95.75,-114.35 95.75,-108.35 101.75,-102.35 107.75,-102.35"/>
<text text-anchor="middle" x="122.75" y="-116.65" font-family="Arial" font-size="14.00">svg&#45;d</text>
</g>
<!-- domains&#45;&gt;svg&#45;d -->
<g id="edge6" class="edge">
<title>domains&#45;&gt;svg&#45;d</title>
<path fill="none" stroke="#1f78b4" d="M249.17,-227.19C223.53,-205.53 180.58,-169.22 151.95,-145.03"/>
<polygon fill="#a6cee3" stroke="#1f78b4" points="154.18,-142.33 144.29,-138.55 149.66,-147.68 154.18,-142.33"/>
</g>
<!-- ui&#45;d -->
<g id="node8" class="node">
<title>ui&#45;d</title>
<path fill="#1afabc" stroke="black" d="M412.5,-78.71C412.5,-78.71 442.5,-78.71 442.5,-78.71 448.5,-78.71 454.5,-84.71 454.5,-90.71 454.5,-90.71 454.5,-102.71 454.5,-102.71 454.5,-108.71 448.5,-114.71 442.5,-114.71 442.5,-114.71 412.5,-114.71 412.5,-114.71 406.5,-114.71 400.5,-108.71 400.5,-102.71 400.5,-102.71 400.5,-90.71 400.5,-90.71 400.5,-84.71 406.5,-78.71 412.5,-78.71"/>
<text text-anchor="middle" x="427.5" y="-93.01" font-family="Arial" font-size="14.00">ui&#45;d</text>
</g>
<!-- domains&#45;&gt;ui&#45;d -->
<g id="edge7" class="edge">
<title>domains&#45;&gt;ui&#45;d</title>
<path fill="none" stroke="#1f78b4" d="M289.91,-227.14C317.66,-200.84 369.04,-152.13 400.56,-122.25"/>
<polygon fill="#a6cee3" stroke="#1f78b4" points="403.26,-124.51 408.11,-115.09 398.45,-119.43 403.26,-124.51"/>
</g>
<!-- equation&#45;d -->
<g id="node9" class="node">
<title>equation&#45;d</title>
<path fill="#1afabc" stroke="black" d="M11.52,-148.84C11.52,-148.84 67.52,-148.84 67.52,-148.84 73.52,-148.84 79.52,-154.84 79.52,-160.84 79.52,-160.84 79.52,-172.84 79.52,-172.84 79.52,-178.84 73.52,-184.84 67.52,-184.84 67.52,-184.84 11.52,-184.84 11.52,-184.84 5.52,-184.84 -0.48,-178.84 -0.48,-172.84 -0.48,-172.84 -0.48,-160.84 -0.48,-160.84 -0.48,-154.84 5.52,-148.84 11.52,-148.84"/>
<text text-anchor="middle" x="39.52" y="-163.14" font-family="Arial" font-size="14.00">equation&#45;d</text>
</g>
<!-- domains&#45;&gt;equation&#45;d -->
<g id="edge8" class="edge">
<title>domains&#45;&gt;equation&#45;d</title>
<path fill="none" stroke="#1f78b4" d="M217.65,-227.36C179.1,-214.26 127.28,-196.65 89.47,-183.81"/>
<polygon fill="#a6cee3" stroke="#1f78b4" points="90.28,-180.39 79.69,-180.49 88.03,-187.02 90.28,-180.39"/>
</g>
<!-- pr&#45;d -->
<g id="node10" class="node">
<title>pr&#45;d</title>
<path fill="#1afabc" stroke="black" d="M261.56,-55.37C261.56,-55.37 291.56,-55.37 291.56,-55.37 297.56,-55.37 303.56,-61.37 303.56,-67.37 303.56,-67.37 303.56,-79.37 303.56,-79.37 303.56,-85.37 297.56,-91.37 291.56,-91.37 291.56,-91.37 261.56,-91.37 261.56,-91.37 255.56,-91.37 249.56,-85.37 249.56,-79.37 249.56,-79.37 249.56,-67.37 249.56,-67.37 249.56,-61.37 255.56,-55.37 261.56,-55.37"/>
<text text-anchor="middle" x="276.56" y="-69.67" font-family="Arial" font-size="14.00">pr&#45;d</text>
</g>
<!-- domains&#45;&gt;pr&#45;d -->
<g id="edge9" class="edge">
<title>domains&#45;&gt;pr&#45;d</title>
<path fill="none" stroke="#1f78b4" d="M271.3,-227.29C272.32,-197.35 274.37,-137.27 275.59,-101.67"/>
<polygon fill="#a6cee3" stroke="#1f78b4" points="279.09,-101.58 275.94,-91.47 272.1,-101.34 279.09,-101.58"/>
</g>
<!-- xml&#45;d -->
<g id="node11" class="node">
<title>xml&#45;d</title>
<path fill="#1afabc" stroke="black" d="M341.37,-34.25C341.37,-34.25 371.37,-34.25 371.37,-34.25 377.37,-34.25 383.37,-40.25 383.37,-46.25 383.37,-46.25 383.37,-58.25 383.37,-58.25 383.37,-64.25 377.37,-70.25 371.37,-70.25 371.37,-70.25 341.37,-70.25 341.37,-70.25 335.37,-70.25 329.37,-64.25 329.37,-58.25 329.37,-58.25 329.37,-46.25 329.37,-46.25 329.37,-40.25 335.37,-34.25 341.37,-34.25"/>
<text text-anchor="middle" x="356.37" y="-48.55" font-family="Arial" font-size="14.00">xml&#45;d</text>
</g>
<!-- domains&#45;&gt;xml&#45;d -->
<g id="edge10" class="edge">
<title>domains&#45;&gt;xml&#45;d</title>
<path fill="none" stroke="#1f78b4" d="M278.74,-227.2C293.83,-193.2 326.41,-119.77 344.19,-79.7"/>
<polygon fill="#a6cee3" stroke="#1f78b4" points="347.41,-81.07 348.27,-70.51 341.01,-78.23 347.41,-81.07"/>
</g>
<!-- glossref&#45;d -->
<g id="node12" class="node">
<title>glossref&#45;d</title>
<path fill="#1afabc" stroke="black" d="M13.01,-235.81C13.01,-235.81 65.01,-235.81 65.01,-235.81 71.01,-235.81 77.01,-241.81 77.01,-247.81 77.01,-247.81 77.01,-259.81 77.01,-259.81 77.01,-265.81 71.01,-271.81 65.01,-271.81 65.01,-271.81 13.01,-271.81 13.01,-271.81 7.01,-271.81 1.01,-265.81 1.01,-259.81 1.01,-259.81 1.01,-247.81 1.01,-247.81 1.01,-241.81 7.01,-235.81 13.01,-235.81"/>
<text text-anchor="middle" x="39.01" y="-250.11" font-family="Arial" font-size="14.00">glossref&#45;d</text>
</g>
<!-- domains&#45;&gt;glossref&#45;d -->
<g id="edge11" class="edge">
<title>domains&#45;&gt;glossref&#45;d</title>
<path fill="none" stroke="#1f78b4" d="M215.48,-247.38C176.46,-248.81 124.65,-250.69 87.27,-252.06"/>
<polygon fill="#a6cee3" stroke="#1f78b4" points="87,-248.56 77.13,-252.42 87.25,-255.56 87,-248.56"/>
</g>
<!-- sw&#45;d -->
<g id="node13" class="node">
<title>sw&#45;d</title>
<path fill="#1afabc" stroke="black" d="M369.79,-131.53C369.79,-131.53 399.79,-131.53 399.79,-131.53 405.79,-131.53 411.79,-137.53 411.79,-143.53 411.79,-143.53 411.79,-155.53 411.79,-155.53 411.79,-161.53 405.79,-167.53 399.79,-167.53 399.79,-167.53 369.79,-167.53 369.79,-167.53 363.79,-167.53 357.79,-161.53 357.79,-155.53 357.79,-155.53 357.79,-143.53 357.79,-143.53 357.79,-137.53 363.79,-131.53 369.79,-131.53"/>
<text text-anchor="middle" x="384.79" y="-145.83" font-family="Arial" font-size="14.00">sw&#45;d</text>
</g>
<!-- domains&#45;&gt;sw&#45;d -->
<g id="edge12" class="edge">
<title>domains&#45;&gt;sw&#45;d</title>
<path fill="none" stroke="#1f78b4" d="M292.14,-227.35C309.96,-212.38 335.49,-190.94 355.24,-174.35"/>
<polygon fill="#a6cee3" stroke="#1f78b4" points="357.63,-176.91 363.04,-167.8 353.13,-171.55 357.63,-176.91"/>
</g>
<!-- relmgmt&#45;d -->
<g id="node14" class="node">
<title>relmgmt&#45;d</title>
<path fill="#1afabc" stroke="black" d="M377.95,-393.1C377.95,-393.1 432.95,-393.1 432.95,-393.1 438.95,-393.1 444.95,-399.1 444.95,-405.1 444.95,-405.1 444.95,-417.1 444.95,-417.1 444.95,-423.1 438.95,-429.1 432.95,-429.1 432.95,-429.1 377.95,-429.1 377.95,-429.1 371.95,-429.1 365.95,-423.1 365.95,-417.1 365.95,-417.1 365.95,-405.1 365.95,-405.1 365.95,-399.1 371.95,-393.1 377.95,-393.1"/>
<text text-anchor="middle" x="405.45" y="-407.4" font-family="Arial" font-size="14.00">relmgmt&#45;d</text>
</g>
<!-- domains&#45;&gt;relmgmt&#45;d -->
<g id="edge13" class="edge">
<title>domains&#45;&gt;relmgmt&#45;d</title>
<path fill="none" stroke="#1f78b4" d="M285.36,-263.42C309.26,-292.81 356.67,-351.12 384.23,-385.01"/>
<polygon fill="#a6cee3" stroke="#1f78b4" points="381.76,-387.52 390.79,-393.07 387.19,-383.11 381.76,-387.52"/>
</g>
<!-- xnal&#45;d -->
<g id="node15" class="node">
<title>xnal&#45;d</title>
<path fill="#1afabc" stroke="black" d="M267.51,-385.07C267.51,-385.07 297.51,-385.07 297.51,-385.07 303.51,-385.07 309.51,-391.07 309.51,-397.07 309.51,-397.07 309.51,-409.07 309.51,-409.07 309.51,-415.07 303.51,-421.07 297.51,-421.07 297.51,-421.07 267.51,-421.07 267.51,-421.07 261.51,-421.07 255.51,-415.07 255.51,-409.07 255.51,-409.07 255.51,-397.07 255.51,-397.07 255.51,-391.07 261.51,-385.07 267.51,-385.07"/>
<text text-anchor="middle" x="282.51" y="-399.37" font-family="Arial" font-size="14.00">xnal&#45;d</text>
</g>
<!-- domains&#45;&gt;xnal&#45;d -->
<g id="edge14" class="edge">
<title>domains&#45;&gt;xnal&#45;d</title>
<path fill="none" stroke="#1f78b4" d="M272.04,-263.46C274.08,-290.65 277.95,-342.28 280.37,-374.56"/>
<polygon fill="#a6cee3" stroke="#1f78b4" points="276.89,-375 281.13,-384.71 283.87,-374.47 276.89,-375"/>
</g>
<!-- ditavalref&#45;d -->
<g id="node16" class="node">
<title>ditavalref&#45;d</title>
<path fill="#1afabc" stroke="black" d="M449.12,-157.77C449.12,-157.77 508.12,-157.77 508.12,-157.77 514.12,-157.77 520.12,-163.77 520.12,-169.77 520.12,-169.77 520.12,-181.77 520.12,-181.77 520.12,-187.77 514.12,-193.77 508.12,-193.77 508.12,-193.77 449.12,-193.77 449.12,-193.77 443.12,-193.77 437.12,-187.77 437.12,-181.77 437.12,-181.77 437.12,-169.77 437.12,-169.77 437.12,-163.77 443.12,-157.77 449.12,-157.77"/>
<text text-anchor="middle" x="478.62" y="-172.07" font-family="Arial" font-size="14.00">ditavalref&#45;d</text>
</g>
<!-- domains&#45;&gt;ditavalref&#45;d -->
<g id="edge15" class="edge">
<title>domains&#45;&gt;ditavalref&#45;d</title>
<path fill="none" stroke="#1f78b4" d="M324.5,-227.36C356.1,-216.78 395.83,-203.48 427.03,-193.04"/>
<polygon fill="#a6cee3" stroke="#1f78b4" points="428.47,-196.25 436.84,-189.75 426.25,-189.61 428.47,-196.25"/>
</g>
<!-- hazard&#45;d -->
<g id="node17" class="node">
<title>hazard&#45;d</title>
<path fill="#1afabc" stroke="black" d="M222.3,-0.35C222.3,-0.35 268.3,-0.35 268.3,-0.35 274.3,-0.35 280.3,-6.35 280.3,-12.35 280.3,-12.35 280.3,-24.35 280.3,-24.35 280.3,-30.35 274.3,-36.35 268.3,-36.35 268.3,-36.35 222.3,-36.35 222.3,-36.35 216.3,-36.35 210.3,-30.35 210.3,-24.35 210.3,-24.35 210.3,-12.35 210.3,-12.35 210.3,-6.35 216.3,-0.35 222.3,-0.35"/>
<text text-anchor="middle" x="245.3" y="-14.65" font-family="Arial" font-size="14.00">hazard&#45;d</text>
</g>
<!-- domains&#45;&gt;hazard&#45;d -->
<g id="edge16" class="edge">
<title>domains&#45;&gt;hazard&#45;d</title>
<path fill="none" stroke="#1f78b4" d="M268.65,-227.18C264.24,-187.74 253.77,-94.13 248.48,-46.8"/>
<polygon fill="#a6cee3" stroke="#1f78b4" points="251.93,-46.18 247.34,-36.63 244.97,-46.96 251.93,-46.18"/>
</g>
<!-- emphasis&#45;d -->
<g id="node18" class="node">
<title>emphasis&#45;d</title>
<path fill="#1afabc" stroke="black" d="M161.88,-446.97C161.88,-446.97 224.88,-446.97 224.88,-446.97 230.88,-446.97 236.88,-452.97 236.88,-458.97 236.88,-458.97 236.88,-470.97 236.88,-470.97 236.88,-476.97 230.88,-482.97 224.88,-482.97 224.88,-482.97 161.88,-482.97 161.88,-482.97 155.88,-482.97 149.88,-476.97 149.88,-470.97 149.88,-470.97 149.88,-458.97 149.88,-458.97 149.88,-452.97 155.88,-446.97 161.88,-446.97"/>
<text text-anchor="middle" x="193.38" y="-461.27" font-family="Arial" font-size="14.00">emphasis&#45;d</text>
</g>
<!-- domains&#45;&gt;emphasis&#45;d -->
<g id="edge17" class="edge">
<title>domains&#45;&gt;emphasis&#45;d</title>
<path fill="none" stroke="#1f78b4" d="M264.22,-263.72C250.66,-302.24 219.15,-391.76 203.12,-437.29"/>
<polygon fill="#a6cee3" stroke="#1f78b4" points="199.78,-436.24 199.76,-446.83 206.39,-438.56 199.78,-436.24"/>
</g>
<!-- hi&#45;d -->
<g id="node19" class="node">
<title>hi&#45;d</title>
<path fill="#1afabc" stroke="black" d="M166.16,-380.96C166.16,-380.96 196.16,-380.96 196.16,-380.96 202.16,-380.96 208.16,-386.96 208.16,-392.96 208.16,-392.96 208.16,-404.96 208.16,-404.96 208.16,-410.96 202.16,-416.96 196.16,-416.96 196.16,-416.96 166.16,-416.96 166.16,-416.96 160.16,-416.96 154.16,-410.96 154.16,-404.96 154.16,-404.96 154.16,-392.96 154.16,-392.96 154.16,-386.96 160.16,-380.96 166.16,-380.96"/>
<text text-anchor="middle" x="181.16" y="-395.26" font-family="Arial" font-size="14.00">hi&#45;d</text>
</g>
<!-- domains&#45;&gt;hi&#45;d -->
<g id="edge18" class="edge">
<title>domains&#45;&gt;hi&#45;d</title>
<path fill="none" stroke="#1f78b4" d="M260.06,-263.6C244.45,-290.38 215.18,-340.58 197.02,-371.75"/>
<polygon fill="#a6cee3" stroke="#1f78b4" points="193.78,-370.36 191.76,-380.76 199.82,-373.89 193.78,-370.36"/>
</g>
<!-- mapgroup&#45;d -->
<g id="node20" class="node">
<title>mapgroup&#45;d</title>
<path fill="#1afabc" stroke="black" d="M53.4,-374.18C53.4,-374.18 119.4,-374.18 119.4,-374.18 125.4,-374.18 131.4,-380.18 131.4,-386.18 131.4,-386.18 131.4,-398.18 131.4,-398.18 131.4,-404.18 125.4,-410.18 119.4,-410.18 119.4,-410.18 53.4,-410.18 53.4,-410.18 47.4,-410.18 41.4,-404.18 41.4,-398.18 41.4,-398.18 41.4,-386.18 41.4,-386.18 41.4,-380.18 47.4,-374.18 53.4,-374.18"/>
<text text-anchor="middle" x="86.4" y="-388.48" font-family="Arial" font-size="14.00">mapgroup&#45;d</text>
</g>
<!-- domains&#45;&gt;mapgroup&#45;d -->
<g id="edge19" class="edge">
<title>domains&#45;&gt;mapgroup&#45;d</title>
<path fill="none" stroke="#1f78b4" d="M248.09,-263.37C215.2,-289.57 154.07,-338.27 117.13,-367.7"/>
<polygon fill="#a6cee3" stroke="#1f78b4" points="114.83,-365.06 109.18,-374.03 119.19,-370.54 114.83,-365.06"/>
</g>
<!-- alternativeTitles&#45;d -->
<g id="node21" class="node">
<title>alternativeTitles&#45;d</title>
<path fill="#1afabc" stroke="black" d="M202.19,-177.06C202.19,-177.06 301.19,-177.06 301.19,-177.06 307.19,-177.06 313.19,-183.06 313.19,-189.06 313.19,-189.06 313.19,-201.06 313.19,-201.06 313.19,-207.06 307.19,-213.06 301.19,-213.06 301.19,-213.06 202.19,-213.06 202.19,-213.06 196.19,-213.06 190.19,-207.06 190.19,-201.06 190.19,-201.06 190.19,-189.06 190.19,-189.06 190.19,-183.06 196.19,-177.06 202.19,-177.06"/>
<text text-anchor="middle" x="251.69" y="-191.36" font-family="Arial" font-size="14.00">alternativeTitles&#45;d</text>
</g>
<!-- domains&#45;&gt;alternativeTitles&#45;d -->
<g id="edge20" class="edge">
<title>domains&#45;&gt;alternativeTitles&#45;d</title>
<path fill="none" stroke="#1f78b4" d="M263.82,-227.21C263.29,-225.8 262.75,-224.36 262.2,-222.91"/>
<polygon fill="#a6cee3" stroke="#1f78b4" points="265.41,-221.49 258.6,-213.37 258.86,-223.96 265.41,-221.49"/>
</g>
<!-- ut&#45;d -->
<g id="node22" class="node">
<title>ut&#45;d</title>
<path fill="#1afabc" stroke="black" d="M115.9,-193.75C115.9,-193.75 145.9,-193.75 145.9,-193.75 151.9,-193.75 157.9,-199.75 157.9,-205.75 157.9,-205.75 157.9,-217.75 157.9,-217.75 157.9,-223.75 151.9,-229.75 145.9,-229.75 145.9,-229.75 115.9,-229.75 115.9,-229.75 109.9,-229.75 103.9,-223.75 103.9,-217.75 103.9,-217.75 103.9,-205.75 103.9,-205.75 103.9,-199.75 109.9,-193.75 115.9,-193.75"/>
<text text-anchor="middle" x="130.9" y="-208.05" font-family="Arial" font-size="14.00">ut&#45;d</text>
</g>
<!-- domains&#45;&gt;ut&#45;d -->
<g id="edge21" class="edge">
<title>domains&#45;&gt;ut&#45;d</title>
<path fill="none" stroke="#1f78b4" d="M215.44,-232.08C199.59,-228.27 182.7,-224.21 168.21,-220.72"/>
<polygon fill="#a6cee3" stroke="#1f78b4" points="168.68,-217.24 158.14,-218.3 167.04,-224.04 168.68,-217.24"/>
</g>
<!-- classify&#45;d -->
<g id="node23" class="node">
<title>classify&#45;d</title>
<path fill="#1afabc" stroke="black" d="M288.71,-445.04C288.71,-445.04 337.71,-445.04 337.71,-445.04 343.71,-445.04 349.71,-451.04 349.71,-457.04 349.71,-457.04 349.71,-469.04 349.71,-469.04 349.71,-475.04 343.71,-481.04 337.71,-481.04 337.71,-481.04 288.71,-481.04 288.71,-481.04 282.71,-481.04 276.71,-475.04 276.71,-469.04 276.71,-469.04 276.71,-457.04 276.71,-457.04 276.71,-451.04 282.71,-445.04 288.71,-445.04"/>
<text text-anchor="middle" x="313.21" y="-459.34" font-family="Arial" font-size="14.00">classify&#45;d</text>
</g>
<!-- domains&#45;&gt;classify&#45;d -->
<g id="edge22" class="edge">
<title>domains&#45;&gt;classify&#45;d</title>
<path fill="none" stroke="#1f78b4" d="M274.23,-263.56C281.64,-301.49 298.8,-389.29 307.67,-434.7"/>
<polygon fill="#a6cee3" stroke="#1f78b4" points="304.28,-435.61 309.63,-444.75 311.15,-434.27 304.28,-435.61"/>
</g>
</g>
</svg>
