<?xml version="1.0" encoding="UTF-8" standalone="no"?>
<!DOCTYPE svg PUBLIC "-//W3C//DTD SVG 1.1//EN"
 "http://www.w3.org/Graphics/SVG/1.1/DTD/svg11.dtd">
<!-- Generated by graphviz version 6.0.1 (20220911.1526)
 -->
<!-- Pages: 1 -->
<svg width="791pt" height="587pt"
 viewBox="0.00 0.00 791.00 587.00" xmlns="http://www.w3.org/2000/svg" xmlns:xlink="http://www.w3.org/1999/xlink">
<g id="graph0" class="graph" transform="scale(1 1) rotate(0) translate(4 583)">
<polygon fill="white" stroke="none" points="-4,4 -4,-583 787,-583 787,4 -4,4"/>
<!-- domains -->
<g id="node1" class="node">
<title>domains</title>
<path fill="#afa7f4" stroke="black" d="M288.15,-274.31C288.15,-274.31 374.15,-274.31 374.15,-274.31 380.15,-274.31 386.15,-280.31 386.15,-286.31 386.15,-286.31 386.15,-298.31 386.15,-298.31 386.15,-304.31 380.15,-310.31 374.15,-310.31 374.15,-310.31 288.15,-310.31 288.15,-310.31 282.15,-310.31 276.15,-304.31 276.15,-298.31 276.15,-298.31 276.15,-286.31 276.15,-286.31 276.15,-280.31 282.15,-274.31 288.15,-274.31"/>
<text text-anchor="middle" x="315.15" y="-288.61" font-family="Arial" font-size="14.00">Domanins</text>
<polyline fill="none" stroke="black" points="354.15,-274.31 354.15,-310.31"/>
<text text-anchor="middle" x="370.15" y="-288.61" font-family="Arial" font-size="14.00">27</text>
</g>
<!-- learningInteractionBase2&#45;d -->
<g id="node2" class="node">
<title>learningInteractionBase2&#45;d</title>
<path fill="#1afabc" stroke="black" d="M616.69,-320.06C616.69,-320.06 770.69,-320.06 770.69,-320.06 776.69,-320.06 782.69,-326.06 782.69,-332.06 782.69,-332.06 782.69,-344.06 782.69,-344.06 782.69,-350.06 776.69,-356.06 770.69,-356.06 770.69,-356.06 616.69,-356.06 616.69,-356.06 610.69,-356.06 604.69,-350.06 604.69,-344.06 604.69,-344.06 604.69,-332.06 604.69,-332.06 604.69,-326.06 610.69,-320.06 616.69,-320.06"/>
<text text-anchor="middle" x="693.69" y="-334.36" font-family="Arial" font-size="14.00">learningInteractionBase2&#45;d</text>
</g>
<!-- domains&#45;&gt;learningInteractionBase2&#45;d -->
<g id="edge1" class="edge">
<title>domains&#45;&gt;learningInteractionBase2&#45;d</title>
<path fill="none" stroke="#1f78b4" d="M386.21,-299.26C441.32,-306.21 527.33,-317.06 594.39,-325.52"/>
<polygon fill="#a6cee3" stroke="#1f78b4" points="594.2,-329.03 604.56,-326.81 595.07,-322.08 594.2,-329.03"/>
</g>
<!-- learningmap&#45;d -->
<g id="node3" class="node">
<title>learningmap&#45;d</title>
<path fill="#1afabc" stroke="black" d="M20.39,-164.6C20.39,-164.6 100.39,-164.6 100.39,-164.6 106.39,-164.6 112.39,-170.6 112.39,-176.6 112.39,-176.6 112.39,-188.6 112.39,-188.6 112.39,-194.6 106.39,-200.6 100.39,-200.6 100.39,-200.6 20.39,-200.6 20.39,-200.6 14.39,-200.6 8.39,-194.6 8.39,-188.6 8.39,-188.6 8.39,-176.6 8.39,-176.6 8.39,-170.6 14.39,-164.6 20.39,-164.6"/>
<text text-anchor="middle" x="60.39" y="-178.9" font-family="Arial" font-size="14.00">learningmap&#45;d</text>
</g>
<!-- domains&#45;&gt;learningmap&#45;d -->
<g id="edge2" class="edge">
<title>domains&#45;&gt;learningmap&#45;d</title>
<path fill="none" stroke="#1f78b4" d="M286.44,-274.19C239.31,-255.1 165.04,-225 114.6,-204.57"/>
<polygon fill="#a6cee3" stroke="#1f78b4" points="115.75,-201.25 105.16,-200.74 113.12,-207.74 115.75,-201.25"/>
</g>
<!-- learningInteractionBase&#45;d -->
<g id="node4" class="node">
<title>learningInteractionBase&#45;d</title>
<path fill="#1afabc" stroke="black" d="M272.11,-494.83C272.11,-494.83 418.11,-494.83 418.11,-494.83 424.11,-494.83 430.11,-500.83 430.11,-506.83 430.11,-506.83 430.11,-518.83 430.11,-518.83 430.11,-524.83 424.11,-530.83 418.11,-530.83 418.11,-530.83 272.11,-530.83 272.11,-530.83 266.11,-530.83 260.11,-524.83 260.11,-518.83 260.11,-518.83 260.11,-506.83 260.11,-506.83 260.11,-500.83 266.11,-494.83 272.11,-494.83"/>
<text text-anchor="middle" x="345.11" y="-509.13" font-family="Arial" font-size="14.00">learningInteractionBase&#45;d</text>
</g>
<!-- domains&#45;&gt;learningInteractionBase&#45;d -->
<g id="edge3" class="edge">
<title>domains&#45;&gt;learningInteractionBase&#45;d</title>
<path fill="none" stroke="#1f78b4" d="M332.29,-310.35C334.72,-348.64 340.39,-438.24 343.31,-484.34"/>
<polygon fill="#a6cee3" stroke="#1f78b4" points="339.83,-484.77 343.95,-494.53 346.81,-484.33 339.83,-484.77"/>
</g>
<!-- learningmeta&#45;d -->
<g id="node5" class="node">
<title>learningmeta&#45;d</title>
<path fill="#1afabc" stroke="black" d="M468.86,-525.69C468.86,-525.69 551.86,-525.69 551.86,-525.69 557.86,-525.69 563.86,-531.69 563.86,-537.69 563.86,-537.69 563.86,-549.69 563.86,-549.69 563.86,-555.69 557.86,-561.69 551.86,-561.69 551.86,-561.69 468.86,-561.69 468.86,-561.69 462.86,-561.69 456.86,-555.69 456.86,-549.69 456.86,-549.69 456.86,-537.69 456.86,-537.69 456.86,-531.69 462.86,-525.69 468.86,-525.69"/>
<text text-anchor="middle" x="510.36" y="-539.99" font-family="Arial" font-size="14.00">learningmeta&#45;d</text>
</g>
<!-- domains&#45;&gt;learningmeta&#45;d -->
<g id="edge4" class="edge">
<title>domains&#45;&gt;learningmeta&#45;d</title>
<path fill="none" stroke="#1f78b4" d="M344.04,-310.39C375.22,-354.13 454.85,-465.83 491.44,-517.16"/>
<polygon fill="#a6cee3" stroke="#1f78b4" points="488.69,-519.33 497.34,-525.44 494.39,-515.27 488.69,-519.33"/>
</g>
<!-- learning&#45;d -->
<g id="node6" class="node">
<title>learning&#45;d</title>
<path fill="#1afabc" stroke="black" d="M48.43,-382.81C48.43,-382.81 101.43,-382.81 101.43,-382.81 107.43,-382.81 113.43,-388.81 113.43,-394.81 113.43,-394.81 113.43,-406.81 113.43,-406.81 113.43,-412.81 107.43,-418.81 101.43,-418.81 101.43,-418.81 48.43,-418.81 48.43,-418.81 42.43,-418.81 36.43,-412.81 36.43,-406.81 36.43,-406.81 36.43,-394.81 36.43,-394.81 36.43,-388.81 42.43,-382.81 48.43,-382.81"/>
<text text-anchor="middle" x="74.93" y="-397.11" font-family="Arial" font-size="14.00">learning&#45;d</text>
</g>
<!-- domains&#45;&gt;learning&#45;d -->
<g id="edge5" class="edge">
<title>domains&#45;&gt;learning&#45;d</title>
<path fill="none" stroke="#1f78b4" d="M288.55,-310.35C242.89,-329.68 170.55,-360.32 122.91,-380.49"/>
<polygon fill="#a6cee3" stroke="#1f78b4" points="121.28,-377.38 113.44,-384.5 124.01,-383.83 121.28,-377.38"/>
</g>
<!-- learning2&#45;d -->
<g id="node7" class="node">
<title>learning2&#45;d</title>
<path fill="#1afabc" stroke="black" d="M12.49,-265.62C12.49,-265.62 72.49,-265.62 72.49,-265.62 78.49,-265.62 84.49,-271.62 84.49,-277.62 84.49,-277.62 84.49,-289.62 84.49,-289.62 84.49,-295.62 78.49,-301.62 72.49,-301.62 72.49,-301.62 12.49,-301.62 12.49,-301.62 6.49,-301.62 0.49,-295.62 0.49,-289.62 0.49,-289.62 0.49,-277.62 0.49,-277.62 0.49,-271.62 6.49,-265.62 12.49,-265.62"/>
<text text-anchor="middle" x="42.49" y="-279.92" font-family="Arial" font-size="14.00">learning2&#45;d</text>
</g>
<!-- domains&#45;&gt;learning2&#45;d -->
<g id="edge6" class="edge">
<title>domains&#45;&gt;learning2&#45;d</title>
<path fill="none" stroke="#1f78b4" d="M275.84,-290.64C223.61,-289.07 145.88,-286.73 94.7,-285.19"/>
<polygon fill="#a6cee3" stroke="#1f78b4" points="94.61,-281.69 84.51,-284.89 94.4,-288.69 94.61,-281.69"/>
</g>
<!-- abbrev&#45;d -->
<g id="node8" class="node">
<title>abbrev&#45;d</title>
<path fill="#1afabc" stroke="black" d="M526.23,-273.11C526.23,-273.11 572.23,-273.11 572.23,-273.11 578.23,-273.11 584.23,-279.11 584.23,-285.11 584.23,-285.11 584.23,-297.11 584.23,-297.11 584.23,-303.11 578.23,-309.11 572.23,-309.11 572.23,-309.11 526.23,-309.11 526.23,-309.11 520.23,-309.11 514.23,-303.11 514.23,-297.11 514.23,-297.11 514.23,-285.11 514.23,-285.11 514.23,-279.11 520.23,-273.11 526.23,-273.11"/>
<text text-anchor="middle" x="549.23" y="-287.41" font-family="Arial" font-size="14.00">abbrev&#45;d</text>
</g>
<!-- domains&#45;&gt;abbrev&#45;d -->
<g id="edge7" class="edge">
<title>domains&#45;&gt;abbrev&#45;d</title>
<path fill="none" stroke="#1f78b4" d="M386.18,-292.01C422.55,-291.81 469.63,-291.55 503.85,-291.36"/>
<polygon fill="#a6cee3" stroke="#1f78b4" points="504.05,-294.86 514.03,-291.3 504.01,-287.86 504.05,-294.86"/>
</g>
<!-- markup&#45;d -->
<g id="node9" class="node">
<title>markup&#45;d</title>
<path fill="#1afabc" stroke="black" d="M112.04,-101.42C112.04,-101.42 162.04,-101.42 162.04,-101.42 168.04,-101.42 174.04,-107.42 174.04,-113.42 174.04,-113.42 174.04,-125.42 174.04,-125.42 174.04,-131.42 168.04,-137.42 162.04,-137.42 162.04,-137.42 112.04,-137.42 112.04,-137.42 106.04,-137.42 100.04,-131.42 100.04,-125.42 100.04,-125.42 100.04,-113.42 100.04,-113.42 100.04,-107.42 106.04,-101.42 112.04,-101.42"/>
<text text-anchor="middle" x="137.04" y="-115.72" font-family="Arial" font-size="14.00">markup&#45;d</text>
</g>
<!-- domains&#45;&gt;markup&#45;d -->
<g id="edge8" class="edge">
<title>domains&#45;&gt;markup&#45;d</title>
<path fill="none" stroke="#1f78b4" d="M310.74,-274.13C275.94,-243.13 205.03,-179.97 165.42,-144.69"/>
<polygon fill="#a6cee3" stroke="#1f78b4" points="167.26,-141.64 157.47,-137.61 162.6,-146.87 167.26,-141.64"/>
</g>
<!-- mathml&#45;d -->
<g id="node10" class="node">
<title>mathml&#45;d</title>
<path fill="#1afabc" stroke="black" d="M271.99,-0.43C271.99,-0.43 321.99,-0.43 321.99,-0.43 327.99,-0.43 333.99,-6.43 333.99,-12.43 333.99,-12.43 333.99,-24.43 333.99,-24.43 333.99,-30.43 327.99,-36.43 321.99,-36.43 321.99,-36.43 271.99,-36.43 271.99,-36.43 265.99,-36.43 259.99,-30.43 259.99,-24.43 259.99,-24.43 259.99,-12.43 259.99,-12.43 259.99,-6.43 265.99,-0.43 271.99,-0.43"/>
<text text-anchor="middle" x="296.99" y="-14.73" font-family="Arial" font-size="14.00">mathml&#45;d</text>
</g>
<!-- domains&#45;&gt;mathml&#45;d -->
<g id="edge9" class="edge">
<title>domains&#45;&gt;mathml&#45;d</title>
<path fill="none" stroke="#1f78b4" d="M328.86,-273.91C323.01,-227.04 307.52,-102.87 300.52,-46.72"/>
<polygon fill="#a6cee3" stroke="#1f78b4" points="303.99,-46.24 299.28,-36.75 297.04,-47.1 303.99,-46.24"/>
</g>
<!-- svg&#45;d -->
<g id="node11" class="node">
<title>svg&#45;d</title>
<path fill="#1afabc" stroke="black" d="M436.9,-115.03C436.9,-115.03 466.9,-115.03 466.9,-115.03 472.9,-115.03 478.9,-121.03 478.9,-127.03 478.9,-127.03 478.9,-139.03 478.9,-139.03 478.9,-145.03 472.9,-151.03 466.9,-151.03 466.9,-151.03 436.9,-151.03 436.9,-151.03 430.9,-151.03 424.9,-145.03 424.9,-139.03 424.9,-139.03 424.9,-127.03 424.9,-127.03 424.9,-121.03 430.9,-115.03 436.9,-115.03"/>
<text text-anchor="middle" x="451.9" y="-129.33" font-family="Arial" font-size="14.00">svg&#45;d</text>
</g>
<!-- domains&#45;&gt;svg&#45;d -->
<g id="edge10" class="edge">
<title>domains&#45;&gt;svg&#45;d</title>
<path fill="none" stroke="#1f78b4" d="M345,-274.04C366.38,-245.83 407.52,-191.57 432.05,-159.21"/>
<polygon fill="#a6cee3" stroke="#1f78b4" points="434.95,-161.17 438.21,-151.09 429.38,-156.94 434.95,-161.17"/>
</g>
<!-- ui&#45;d -->
<g id="node12" class="node">
<title>ui&#45;d</title>
<path fill="#1afabc" stroke="black" d="M135.28,-195.71C135.28,-195.71 165.28,-195.71 165.28,-195.71 171.28,-195.71 177.28,-201.71 177.28,-207.71 177.28,-207.71 177.28,-219.71 177.28,-219.71 177.28,-225.71 171.28,-231.71 165.28,-231.71 165.28,-231.71 135.28,-231.71 135.28,-231.71 129.28,-231.71 123.28,-225.71 123.28,-219.71 123.28,-219.71 123.28,-207.71 123.28,-207.71 123.28,-201.71 129.28,-195.71 135.28,-195.71"/>
<text text-anchor="middle" x="150.28" y="-210.01" font-family="Arial" font-size="14.00">ui&#45;d</text>
</g>
<!-- domains&#45;&gt;ui&#45;d -->
<g id="edge11" class="edge">
<title>domains&#45;&gt;ui&#45;d</title>
<path fill="none" stroke="#1f78b4" d="M289.65,-274.28C258.6,-260.78 216.52,-242.5 186.75,-229.56"/>
<polygon fill="#a6cee3" stroke="#1f78b4" points="188.11,-226.34 177.55,-225.56 185.32,-232.76 188.11,-226.34"/>
</g>
<!-- equation&#45;d -->
<g id="node13" class="node">
<title>equation&#45;d</title>
<path fill="#1afabc" stroke="black" d="M427.4,-7.94C427.4,-7.94 483.4,-7.94 483.4,-7.94 489.4,-7.94 495.4,-13.94 495.4,-19.94 495.4,-19.94 495.4,-31.94 495.4,-31.94 495.4,-37.94 489.4,-43.94 483.4,-43.94 483.4,-43.94 427.4,-43.94 427.4,-43.94 421.4,-43.94 415.4,-37.94 415.4,-31.94 415.4,-31.94 415.4,-19.94 415.4,-19.94 415.4,-13.94 421.4,-7.94 427.4,-7.94"/>
<text text-anchor="middle" x="455.4" y="-22.24" font-family="Arial" font-size="14.00">equation&#45;d</text>
</g>
<!-- domains&#45;&gt;equation&#45;d -->
<g id="edge12" class="edge">
<title>domains&#45;&gt;equation&#45;d</title>
<path fill="none" stroke="#1f78b4" d="M339.69,-274C361.11,-228.08 417.21,-107.81 442.59,-53.39"/>
<polygon fill="#a6cee3" stroke="#1f78b4" points="445.91,-54.57 446.96,-44.03 439.56,-51.61 445.91,-54.57"/>
</g>
<!-- taskreq&#45;d -->
<g id="node14" class="node">
<title>taskreq&#45;d</title>
<path fill="#1afabc" stroke="black" d="M534.73,-141.67C534.73,-141.67 583.73,-141.67 583.73,-141.67 589.73,-141.67 595.73,-147.67 595.73,-153.67 595.73,-153.67 595.73,-165.67 595.73,-165.67 595.73,-171.67 589.73,-177.67 583.73,-177.67 583.73,-177.67 534.73,-177.67 534.73,-177.67 528.73,-177.67 522.73,-171.67 522.73,-165.67 522.73,-165.67 522.73,-153.67 522.73,-153.67 522.73,-147.67 528.73,-141.67 534.73,-141.67"/>
<text text-anchor="middle" x="559.23" y="-155.97" font-family="Arial" font-size="14.00">taskreq&#45;d</text>
</g>
<!-- domains&#45;&gt;taskreq&#45;d -->
<g id="edge13" class="edge">
<title>domains&#45;&gt;taskreq&#45;d</title>
<path fill="none" stroke="#1f78b4" d="M362.39,-274.14C403.13,-250.45 474.48,-208.96 519.17,-182.97"/>
<polygon fill="#a6cee3" stroke="#1f78b4" points="521.12,-185.88 528,-177.83 517.6,-179.83 521.12,-185.88"/>
</g>
<!-- pr&#45;d -->
<g id="node15" class="node">
<title>pr&#45;d</title>
<path fill="#1afabc" stroke="black" d="M435.16,-441.32C435.16,-441.32 465.16,-441.32 465.16,-441.32 471.16,-441.32 477.16,-447.32 477.16,-453.32 477.16,-453.32 477.16,-465.32 477.16,-465.32 477.16,-471.32 471.16,-477.32 465.16,-477.32 465.16,-477.32 435.16,-477.32 435.16,-477.32 429.16,-477.32 423.16,-471.32 423.16,-465.32 423.16,-465.32 423.16,-453.32 423.16,-453.32 423.16,-447.32 429.16,-441.32 435.16,-441.32"/>
<text text-anchor="middle" x="450.16" y="-455.62" font-family="Arial" font-size="14.00">pr&#45;d</text>
</g>
<!-- domains&#45;&gt;pr&#45;d -->
<g id="edge14" class="edge">
<title>domains&#45;&gt;pr&#45;d</title>
<path fill="none" stroke="#1f78b4" d="M344.11,-310.5C365.13,-339.99 406.73,-398.38 431.11,-432.6"/>
<polygon fill="#a6cee3" stroke="#1f78b4" points="428.56,-435.04 437.21,-441.15 434.26,-430.98 428.56,-435.04"/>
</g>
<!-- xml&#45;d -->
<g id="node16" class="node">
<title>xml&#45;d</title>
<path fill="#1afabc" stroke="black" d="M266.67,-542.81C266.67,-542.81 296.67,-542.81 296.67,-542.81 302.67,-542.81 308.67,-548.81 308.67,-554.81 308.67,-554.81 308.67,-566.81 308.67,-566.81 308.67,-572.81 302.67,-578.81 296.67,-578.81 296.67,-578.81 266.67,-578.81 266.67,-578.81 260.67,-578.81 254.67,-572.81 254.67,-566.81 254.67,-566.81 254.67,-554.81 254.67,-554.81 254.67,-548.81 260.67,-542.81 266.67,-542.81"/>
<text text-anchor="middle" x="281.67" y="-557.11" font-family="Arial" font-size="14.00">xml&#45;d</text>
</g>
<!-- domains&#45;&gt;xml&#45;d -->
<g id="edge15" class="edge">
<title>domains&#45;&gt;xml&#45;d</title>
<path fill="none" stroke="#1f78b4" d="M327.83,-310.34C319.4,-356.09 297.13,-476.94 286.92,-532.34"/>
<polygon fill="#a6cee3" stroke="#1f78b4" points="283.42,-532.03 285.04,-542.5 290.3,-533.3 283.42,-532.03"/>
</g>
<!-- glossref&#45;d -->
<g id="node17" class="node">
<title>glossref&#45;d</title>
<path fill="#1afabc" stroke="black" d="M576.44,-208.21C576.44,-208.21 628.44,-208.21 628.44,-208.21 634.44,-208.21 640.44,-214.21 640.44,-220.21 640.44,-220.21 640.44,-232.21 640.44,-232.21 640.44,-238.21 634.44,-244.21 628.44,-244.21 628.44,-244.21 576.44,-244.21 576.44,-244.21 570.44,-244.21 564.44,-238.21 564.44,-232.21 564.44,-232.21 564.44,-220.21 564.44,-220.21 564.44,-214.21 570.44,-208.21 576.44,-208.21"/>
<text text-anchor="middle" x="602.44" y="-222.51" font-family="Arial" font-size="14.00">glossref&#45;d</text>
</g>
<!-- domains&#45;&gt;glossref&#45;d -->
<g id="edge16" class="edge">
<title>domains&#45;&gt;glossref&#45;d</title>
<path fill="none" stroke="#1f78b4" d="M386.38,-278.85C435.74,-266.83 507.34,-249.38 554.38,-237.92"/>
<polygon fill="#a6cee3" stroke="#1f78b4" points="555.43,-241.27 564.32,-235.5 553.78,-234.47 555.43,-241.27"/>
</g>
<!-- sw&#45;d -->
<g id="node18" class="node">
<title>sw&#45;d</title>
<path fill="#1afabc" stroke="black" d="M199.86,-491.26C199.86,-491.26 229.86,-491.26 229.86,-491.26 235.86,-491.26 241.86,-497.26 241.86,-503.26 241.86,-503.26 241.86,-515.26 241.86,-515.26 241.86,-521.26 235.86,-527.26 229.86,-527.26 229.86,-527.26 199.86,-527.26 199.86,-527.26 193.86,-527.26 187.86,-521.26 187.86,-515.26 187.86,-515.26 187.86,-503.26 187.86,-503.26 187.86,-497.26 193.86,-491.26 199.86,-491.26"/>
<text text-anchor="middle" x="214.86" y="-505.56" font-family="Arial" font-size="14.00">sw&#45;d</text>
</g>
<!-- domains&#45;&gt;sw&#45;d -->
<g id="edge17" class="edge">
<title>domains&#45;&gt;sw&#45;d</title>
<path fill="none" stroke="#1f78b4" d="M321.44,-310.43C301,-348.56 253.47,-437.23 229.39,-482.15"/>
<polygon fill="#a6cee3" stroke="#1f78b4" points="226.26,-480.57 224.63,-491.03 232.43,-483.87 226.26,-480.57"/>
</g>
<!-- relmgmt&#45;d -->
<g id="node19" class="node">
<title>relmgmt&#45;d</title>
<path fill="#1afabc" stroke="black" d="M167.71,-32.77C167.71,-32.77 222.71,-32.77 222.71,-32.77 228.71,-32.77 234.71,-38.77 234.71,-44.77 234.71,-44.77 234.71,-56.77 234.71,-56.77 234.71,-62.77 228.71,-68.77 222.71,-68.77 222.71,-68.77 167.71,-68.77 167.71,-68.77 161.71,-68.77 155.71,-62.77 155.71,-56.77 155.71,-56.77 155.71,-44.77 155.71,-44.77 155.71,-38.77 161.71,-32.77 167.71,-32.77"/>
<text text-anchor="middle" x="195.21" y="-47.07" font-family="Arial" font-size="14.00">relmgmt&#45;d</text>
</g>
<!-- domains&#45;&gt;relmgmt&#45;d -->
<g id="edge18" class="edge">
<title>domains&#45;&gt;relmgmt&#45;d</title>
<path fill="none" stroke="#1f78b4" d="M320.93,-274.15C297.21,-232 238.29,-127.31 210.36,-77.68"/>
<polygon fill="#a6cee3" stroke="#1f78b4" points="213.32,-75.8 205.36,-68.81 207.22,-79.24 213.32,-75.8"/>
</g>
<!-- xnal&#45;d -->
<g id="node20" class="node">
<title>xnal&#45;d</title>
<path fill="#1afabc" stroke="black" d="M116.56,-317.28C116.56,-317.28 146.56,-317.28 146.56,-317.28 152.56,-317.28 158.56,-323.28 158.56,-329.28 158.56,-329.28 158.56,-341.28 158.56,-341.28 158.56,-347.28 152.56,-353.28 146.56,-353.28 146.56,-353.28 116.56,-353.28 116.56,-353.28 110.56,-353.28 104.56,-347.28 104.56,-341.28 104.56,-341.28 104.56,-329.28 104.56,-329.28 104.56,-323.28 110.56,-317.28 116.56,-317.28"/>
<text text-anchor="middle" x="131.56" y="-331.58" font-family="Arial" font-size="14.00">xnal&#45;d</text>
</g>
<!-- domains&#45;&gt;xnal&#45;d -->
<g id="edge19" class="edge">
<title>domains&#45;&gt;xnal&#45;d</title>
<path fill="none" stroke="#1f78b4" d="M276.08,-304.16C241.92,-311.52 198.94,-320.77 168.76,-327.27"/>
<polygon fill="#a6cee3" stroke="#1f78b4" points="167.7,-323.92 158.66,-329.44 169.17,-330.76 167.7,-323.92"/>
</g>
<!-- ditavalref&#45;d -->
<g id="node21" class="node">
<title>ditavalref&#45;d</title>
<path fill="#1afabc" stroke="black" d="M103.02,-481.57C103.02,-481.57 162.02,-481.57 162.02,-481.57 168.02,-481.57 174.02,-487.57 174.02,-493.57 174.02,-493.57 174.02,-505.57 174.02,-505.57 174.02,-511.57 168.02,-517.57 162.02,-517.57 162.02,-517.57 103.02,-517.57 103.02,-517.57 97.02,-517.57 91.02,-511.57 91.02,-505.57 91.02,-505.57 91.02,-493.57 91.02,-493.57 91.02,-487.57 97.02,-481.57 103.02,-481.57"/>
<text text-anchor="middle" x="132.52" y="-495.87" font-family="Arial" font-size="14.00">ditavalref&#45;d</text>
</g>
<!-- domains&#45;&gt;ditavalref&#45;d -->
<g id="edge20" class="edge">
<title>domains&#45;&gt;ditavalref&#45;d</title>
<path fill="none" stroke="#1f78b4" d="M313.87,-310.34C278.51,-347.24 197.78,-431.47 157.02,-474"/>
<polygon fill="#a6cee3" stroke="#1f78b4" points="154.29,-471.79 149.9,-481.43 159.35,-476.63 154.29,-471.79"/>
</g>
<!-- delay&#45;d -->
<g id="node22" class="node">
<title>delay&#45;d</title>
<path fill="#1afabc" stroke="black" d="M234.86,-85.33C234.86,-85.33 271.86,-85.33 271.86,-85.33 277.86,-85.33 283.86,-91.33 283.86,-97.33 283.86,-97.33 283.86,-109.33 283.86,-109.33 283.86,-115.33 277.86,-121.33 271.86,-121.33 271.86,-121.33 234.86,-121.33 234.86,-121.33 228.86,-121.33 222.86,-115.33 222.86,-109.33 222.86,-109.33 222.86,-97.33 222.86,-97.33 222.86,-91.33 228.86,-85.33 234.86,-85.33"/>
<text text-anchor="middle" x="253.36" y="-99.63" font-family="Arial" font-size="14.00">delay&#45;d</text>
</g>
<!-- domains&#45;&gt;delay&#45;d -->
<g id="edge21" class="edge">
<title>domains&#45;&gt;delay&#45;d</title>
<path fill="none" stroke="#1f78b4" d="M323.69,-274.19C310.01,-240.96 280.84,-170.1 264.7,-130.88"/>
<polygon fill="#a6cee3" stroke="#1f78b4" points="267.84,-129.31 260.8,-121.4 261.37,-131.98 267.84,-129.31"/>
</g>
<!-- indexing&#45;d -->
<g id="node23" class="node">
<title>indexing&#45;d</title>
<path fill="#1afabc" stroke="black" d="M533.4,-439.41C533.4,-439.41 588.4,-439.41 588.4,-439.41 594.4,-439.41 600.4,-445.41 600.4,-451.41 600.4,-451.41 600.4,-463.41 600.4,-463.41 600.4,-469.41 594.4,-475.41 588.4,-475.41 588.4,-475.41 533.4,-475.41 533.4,-475.41 527.4,-475.41 521.4,-469.41 521.4,-463.41 521.4,-463.41 521.4,-451.41 521.4,-451.41 521.4,-445.41 527.4,-439.41 533.4,-439.41"/>
<text text-anchor="middle" x="560.9" y="-453.71" font-family="Arial" font-size="14.00">indexing&#45;d</text>
</g>
<!-- domains&#45;&gt;indexing&#45;d -->
<g id="edge22" class="edge">
<title>domains&#45;&gt;indexing&#45;d</title>
<path fill="none" stroke="#1f78b4" d="M356.62,-310.61C398.3,-340.56 481.09,-400.06 527.46,-433.37"/>
<polygon fill="#a6cee3" stroke="#1f78b4" points="525.51,-436.28 535.67,-439.28 529.6,-430.6 525.51,-436.28"/>
</g>
<!-- hazard&#45;d -->
<g id="node24" class="node">
<title>hazard&#45;d</title>
<path fill="#1afabc" stroke="black" d="M538.61,-359.97C538.61,-359.97 584.61,-359.97 584.61,-359.97 590.61,-359.97 596.61,-365.97 596.61,-371.97 596.61,-371.97 596.61,-383.97 596.61,-383.97 596.61,-389.97 590.61,-395.97 584.61,-395.97 584.61,-395.97 538.61,-395.97 538.61,-395.97 532.61,-395.97 526.61,-389.97 526.61,-383.97 526.61,-383.97 526.61,-371.97 526.61,-371.97 526.61,-365.97 532.61,-359.97 538.61,-359.97"/>
<text text-anchor="middle" x="561.61" y="-374.27" font-family="Arial" font-size="14.00">hazard&#45;d</text>
</g>
<!-- domains&#45;&gt;hazard&#45;d -->
<g id="edge23" class="edge">
<title>domains&#45;&gt;hazard&#45;d</title>
<path fill="none" stroke="#1f78b4" d="M379.74,-310.37C420.28,-325.44 477.59,-346.74 516.98,-361.38"/>
<polygon fill="#a6cee3" stroke="#1f78b4" points="515.99,-364.75 526.59,-364.95 518.43,-358.19 515.99,-364.75"/>
</g>
<!-- hi&#45;d -->
<g id="node25" class="node">
<title>hi&#45;d</title>
<path fill="#1afabc" stroke="black" d="M161.7,-409.8C161.7,-409.8 191.7,-409.8 191.7,-409.8 197.7,-409.8 203.7,-415.8 203.7,-421.8 203.7,-421.8 203.7,-433.8 203.7,-433.8 203.7,-439.8 197.7,-445.8 191.7,-445.8 191.7,-445.8 161.7,-445.8 161.7,-445.8 155.7,-445.8 149.7,-439.8 149.7,-433.8 149.7,-433.8 149.7,-421.8 149.7,-421.8 149.7,-415.8 155.7,-409.8 161.7,-409.8"/>
<text text-anchor="middle" x="176.7" y="-424.1" font-family="Arial" font-size="14.00">hi&#45;d</text>
</g>
<!-- domains&#45;&gt;hi&#45;d -->
<g id="edge24" class="edge">
<title>domains&#45;&gt;hi&#45;d</title>
<path fill="none" stroke="#1f78b4" d="M310.32,-310.58C283.26,-334.32 235.89,-375.87 205.43,-402.6"/>
<polygon fill="#a6cee3" stroke="#1f78b4" points="202.9,-400.15 197.69,-409.38 207.52,-405.42 202.9,-400.15"/>
</g>
<!-- mapgroup&#45;d -->
<g id="node26" class="node">
<title>mapgroup&#45;d</title>
<path fill="#1afabc" stroke="black" d="M499.7,-58.28C499.7,-58.28 565.7,-58.28 565.7,-58.28 571.7,-58.28 577.7,-64.28 577.7,-70.28 577.7,-70.28 577.7,-82.28 577.7,-82.28 577.7,-88.28 571.7,-94.28 565.7,-94.28 565.7,-94.28 499.7,-94.28 499.7,-94.28 493.7,-94.28 487.7,-88.28 487.7,-82.28 487.7,-82.28 487.7,-70.28 487.7,-70.28 487.7,-64.28 493.7,-58.28 499.7,-58.28"/>
<text text-anchor="middle" x="532.7" y="-72.58" font-family="Arial" font-size="14.00">mapgroup&#45;d</text>
</g>
<!-- domains&#45;&gt;mapgroup&#45;d -->
<g id="edge25" class="edge">
<title>domains&#45;&gt;mapgroup&#45;d</title>
<path fill="none" stroke="#1f78b4" d="M347.99,-274.26C383.78,-235.9 467.51,-146.15 508.81,-101.88"/>
<polygon fill="#a6cee3" stroke="#1f78b4" points="511.51,-104.12 515.77,-94.42 506.39,-99.35 511.51,-104.12"/>
</g>
<!-- ut&#45;d -->
<g id="node27" class="node">
<title>ut&#45;d</title>
<path fill="#1afabc" stroke="black" d="M405.09,-542.94C405.09,-542.94 435.09,-542.94 435.09,-542.94 441.09,-542.94 447.09,-548.94 447.09,-554.94 447.09,-554.94 447.09,-566.94 447.09,-566.94 447.09,-572.94 441.09,-578.94 435.09,-578.94 435.09,-578.94 405.09,-578.94 405.09,-578.94 399.09,-578.94 393.09,-572.94 393.09,-566.94 393.09,-566.94 393.09,-554.94 393.09,-554.94 393.09,-548.94 399.09,-542.94 405.09,-542.94"/>
<text text-anchor="middle" x="420.09" y="-557.24" font-family="Arial" font-size="14.00">ut&#45;d</text>
</g>
<!-- domains&#45;&gt;ut&#45;d -->
<g id="edge26" class="edge">
<title>domains&#45;&gt;ut&#45;d</title>
<path fill="none" stroke="#1f78b4" d="M337.12,-310.35C352.31,-356.22 392.48,-477.53 410.77,-532.8"/>
<polygon fill="#a6cee3" stroke="#1f78b4" points="407.56,-534.23 414.03,-542.62 414.21,-532.03 407.56,-534.23"/>
</g>
<!-- classify&#45;d -->
<g id="node28" class="node">
<title>classify&#45;d</title>
<path fill="#1afabc" stroke="black" d="M333.33,-48.48C333.33,-48.48 382.33,-48.48 382.33,-48.48 388.33,-48.48 394.33,-54.48 394.33,-60.48 394.33,-60.48 394.33,-72.48 394.33,-72.48 394.33,-78.48 388.33,-84.48 382.33,-84.48 382.33,-84.48 333.33,-84.48 333.33,-84.48 327.33,-84.48 321.33,-78.48 321.33,-72.48 321.33,-72.48 321.33,-60.48 321.33,-60.48 321.33,-54.48 327.33,-48.48 333.33,-48.48"/>
<text text-anchor="middle" x="357.83" y="-62.78" font-family="Arial" font-size="14.00">classify&#45;d</text>
</g>
<!-- domains&#45;&gt;classify&#45;d -->
<g id="edge27" class="edge">
<title>domains&#45;&gt;classify&#45;d</title>
<path fill="none" stroke="#1f78b4" d="M333.29,-274.21C337.92,-234.98 348.92,-141.87 354.49,-94.79"/>
<polygon fill="#a6cee3" stroke="#1f78b4" points="357.98,-95.01 355.68,-84.67 351.03,-94.19 357.98,-95.01"/>
</g>
</g>
</svg>
