<?xml version="1.0" encoding="UTF-8" standalone="no"?>
<!DOCTYPE svg PUBLIC "-//W3C//DTD SVG 1.1//EN"
 "http://www.w3.org/Graphics/SVG/1.1/DTD/svg11.dtd">
<!-- Generated by graphviz version 6.0.1 (20220911.1526)
 -->
<!-- Pages: 1 -->
<svg width="1471pt" height="1136pt"
 viewBox="0.00 0.00 1471.00 1136.00" xmlns="http://www.w3.org/2000/svg" xmlns:xlink="http://www.w3.org/1999/xlink">
<g id="graph0" class="graph" transform="scale(1 1) rotate(0) translate(4 1132)">
<polygon fill="white" stroke="none" points="-4,4 -4,-1132 1467,-1132 1467,4 -4,4"/>
<!-- map -->
<g id="node1" class="node">
<title>map</title>
<path fill="#afa7f4" stroke="black" d="M307.71,-219.35C307.71,-219.35 337.71,-219.35 337.71,-219.35 343.71,-219.35 349.71,-225.35 349.71,-231.35 349.71,-231.35 349.71,-243.35 349.71,-243.35 349.71,-249.35 343.71,-255.35 337.71,-255.35 337.71,-255.35 307.71,-255.35 307.71,-255.35 301.71,-255.35 295.71,-249.35 295.71,-243.35 295.71,-243.35 295.71,-231.35 295.71,-231.35 295.71,-225.35 301.71,-219.35 307.71,-219.35"/>
<text text-anchor="middle" x="322.71" y="-233.65" font-family="Arial" font-size="14.00">map</text>
</g>
<!-- bookmap -->
<g id="node2" class="node">
<title>bookmap</title>
<path fill="#1afabc" stroke="black" d="M544.8,-300.15C544.8,-300.15 593.8,-300.15 593.8,-300.15 599.8,-300.15 605.8,-306.15 605.8,-312.15 605.8,-312.15 605.8,-324.15 605.8,-324.15 605.8,-330.15 599.8,-336.15 593.8,-336.15 593.8,-336.15 544.8,-336.15 544.8,-336.15 538.8,-336.15 532.8,-330.15 532.8,-324.15 532.8,-324.15 532.8,-312.15 532.8,-312.15 532.8,-306.15 538.8,-300.15 544.8,-300.15"/>
<text text-anchor="middle" x="569.3" y="-314.45" font-family="Arial" font-size="14.00">bookmap</text>
</g>
<!-- map&#45;&gt;bookmap -->
<g id="edge1" class="edge">
<title>map&#45;&gt;bookmap</title>
<path fill="none" stroke="#1f78b4" d="M350.04,-246.31C391.77,-259.98 471.89,-286.24 522.86,-302.94"/>
<polygon fill="#a6cee3" stroke="#1f78b4" points="522.05,-306.36 532.65,-306.14 524.23,-299.7 522.05,-306.36"/>
</g>
<!-- learningObjectMap -->
<g id="node3" class="node">
<title>learningObjectMap</title>
<path fill="#1afabc" stroke="black" d="M11.99,-219.76C11.99,-219.76 118.99,-219.76 118.99,-219.76 124.99,-219.76 130.99,-225.76 130.99,-231.76 130.99,-231.76 130.99,-243.76 130.99,-243.76 130.99,-249.76 124.99,-255.76 118.99,-255.76 118.99,-255.76 11.99,-255.76 11.99,-255.76 5.99,-255.76 -0.01,-249.76 -0.01,-243.76 -0.01,-243.76 -0.01,-231.76 -0.01,-231.76 -0.01,-225.76 5.99,-219.76 11.99,-219.76"/>
<text text-anchor="middle" x="65.49" y="-234.06" font-family="Arial" font-size="14.00">learningObjectMap</text>
</g>
<!-- map&#45;&gt;learningObjectMap -->
<g id="edge2" class="edge">
<title>map&#45;&gt;learningObjectMap</title>
<path fill="none" stroke="#1f78b4" d="M295.66,-237.4C259.33,-237.45 193.29,-237.56 141.24,-237.64"/>
<polygon fill="#a6cee3" stroke="#1f78b4" points="141.02,-234.14 131.03,-237.65 141.04,-241.14 141.02,-234.14"/>
</g>
<!-- learningmap&#45;d -->
<g id="node4" class="node">
<title>learningmap&#45;d</title>
<path fill="#1afabc" stroke="black" d="M71.58,-148.46C71.58,-148.46 151.58,-148.46 151.58,-148.46 157.58,-148.46 163.58,-154.46 163.58,-160.46 163.58,-160.46 163.58,-172.46 163.58,-172.46 163.58,-178.46 157.58,-184.46 151.58,-184.46 151.58,-184.46 71.58,-184.46 71.58,-184.46 65.58,-184.46 59.58,-178.46 59.58,-172.46 59.58,-172.46 59.58,-160.46 59.58,-160.46 59.58,-154.46 65.58,-148.46 71.58,-148.46"/>
<text text-anchor="middle" x="111.58" y="-162.76" font-family="Arial" font-size="14.00">learningmap&#45;d</text>
</g>
<!-- map&#45;&gt;learningmap&#45;d -->
<g id="edge3" class="edge">
<title>map&#45;&gt;learningmap&#45;d</title>
<path fill="none" stroke="#1f78b4" d="M295.54,-228.23C264.81,-217.91 213.79,-200.78 173.26,-187.17"/>
<polygon fill="#a6cee3" stroke="#1f78b4" points="174.33,-183.84 163.73,-183.97 172.1,-190.48 174.33,-183.84"/>
</g>
<!-- learningGroupMap -->
<g id="node5" class="node">
<title>learningGroupMap</title>
<path fill="#1afabc" stroke="black" d="M48.68,-78.13C48.68,-78.13 154.68,-78.13 154.68,-78.13 160.68,-78.13 166.68,-84.13 166.68,-90.13 166.68,-90.13 166.68,-102.13 166.68,-102.13 166.68,-108.13 160.68,-114.13 154.68,-114.13 154.68,-114.13 48.68,-114.13 48.68,-114.13 42.68,-114.13 36.68,-108.13 36.68,-102.13 36.68,-102.13 36.68,-90.13 36.68,-90.13 36.68,-84.13 42.68,-78.13 48.68,-78.13"/>
<text text-anchor="middle" x="101.68" y="-92.43" font-family="Arial" font-size="14.00">learningGroupMap</text>
</g>
<!-- map&#45;&gt;learningGroupMap -->
<g id="edge4" class="edge">
<title>map&#45;&gt;learningGroupMap</title>
<path fill="none" stroke="#1f78b4" d="M295.6,-220.04C256.16,-194.83 182.82,-147.98 138.51,-119.67"/>
<polygon fill="#a6cee3" stroke="#1f78b4" points="140.36,-116.7 130.05,-114.26 136.59,-122.6 140.36,-116.7"/>
</g>
<!-- glossref&#45;d -->
<g id="node6" class="node">
<title>glossref&#45;d</title>
<path fill="#1afabc" stroke="black" d="M105.71,-280.32C105.71,-280.32 157.71,-280.32 157.71,-280.32 163.71,-280.32 169.71,-286.32 169.71,-292.32 169.71,-292.32 169.71,-304.32 169.71,-304.32 169.71,-310.32 163.71,-316.32 157.71,-316.32 157.71,-316.32 105.71,-316.32 105.71,-316.32 99.71,-316.32 93.71,-310.32 93.71,-304.32 93.71,-304.32 93.71,-292.32 93.71,-292.32 93.71,-286.32 99.71,-280.32 105.71,-280.32"/>
<text text-anchor="middle" x="131.71" y="-294.62" font-family="Arial" font-size="14.00">glossref&#45;d</text>
</g>
<!-- map&#45;&gt;glossref&#45;d -->
<g id="edge5" class="edge">
<title>map&#45;&gt;glossref&#45;d</title>
<path fill="none" stroke="#1f78b4" d="M295.34,-246.09C265.26,-255.69 216.37,-271.3 179.85,-282.95"/>
<polygon fill="#a6cee3" stroke="#1f78b4" points="178.37,-279.75 169.9,-286.13 180.5,-286.42 178.37,-279.75"/>
</g>
<!-- ditavalref&#45;d -->
<g id="node7" class="node">
<title>ditavalref&#45;d</title>
<path fill="#1afabc" stroke="black" d="M538.34,-369.35C538.34,-369.35 597.34,-369.35 597.34,-369.35 603.34,-369.35 609.34,-375.35 609.34,-381.35 609.34,-381.35 609.34,-393.35 609.34,-393.35 609.34,-399.35 603.34,-405.35 597.34,-405.35 597.34,-405.35 538.34,-405.35 538.34,-405.35 532.34,-405.35 526.34,-399.35 526.34,-393.35 526.34,-393.35 526.34,-381.35 526.34,-381.35 526.34,-375.35 532.34,-369.35 538.34,-369.35"/>
<text text-anchor="middle" x="567.84" y="-383.65" font-family="Arial" font-size="14.00">ditavalref&#45;d</text>
</g>
<!-- map&#45;&gt;ditavalref&#45;d -->
<g id="edge6" class="edge">
<title>map&#45;&gt;ditavalref&#45;d</title>
<path fill="none" stroke="#1f78b4" d="M349.88,-253.98C393.62,-280.75 479.8,-333.48 529.69,-364"/>
<polygon fill="#a6cee3" stroke="#1f78b4" points="527.91,-367.02 538.27,-369.25 531.56,-361.05 527.91,-367.02"/>
</g>
<!-- mapgroup&#45;d -->
<g id="node8" class="node">
<title>mapgroup&#45;d</title>
<path fill="#1afabc" stroke="black" d="M221.32,-5.27C221.32,-5.27 287.32,-5.27 287.32,-5.27 293.32,-5.27 299.32,-11.27 299.32,-17.27 299.32,-17.27 299.32,-29.27 299.32,-29.27 299.32,-35.27 293.32,-41.27 287.32,-41.27 287.32,-41.27 221.32,-41.27 221.32,-41.27 215.32,-41.27 209.32,-35.27 209.32,-29.27 209.32,-29.27 209.32,-17.27 209.32,-17.27 209.32,-11.27 215.32,-5.27 221.32,-5.27"/>
<text text-anchor="middle" x="254.32" y="-19.57" font-family="Arial" font-size="14.00">mapgroup&#45;d</text>
</g>
<!-- map&#45;&gt;mapgroup&#45;d -->
<g id="edge7" class="edge">
<title>map&#45;&gt;mapgroup&#45;d</title>
<path fill="none" stroke="#1f78b4" d="M316.87,-219.1C304.89,-181.58 277.42,-95.58 263.2,-51.08"/>
<polygon fill="#a6cee3" stroke="#1f78b4" points="266.51,-49.94 260.14,-41.48 259.84,-52.07 266.51,-49.94"/>
</g>
<!-- classify&#45;d -->
<g id="node9" class="node">
<title>classify&#45;d</title>
<path fill="#1afabc" stroke="black" d="M194.03,-65.23C194.03,-65.23 243.03,-65.23 243.03,-65.23 249.03,-65.23 255.03,-71.23 255.03,-77.23 255.03,-77.23 255.03,-89.23 255.03,-89.23 255.03,-95.23 249.03,-101.23 243.03,-101.23 243.03,-101.23 194.03,-101.23 194.03,-101.23 188.03,-101.23 182.03,-95.23 182.03,-89.23 182.03,-89.23 182.03,-77.23 182.03,-77.23 182.03,-71.23 188.03,-65.23 194.03,-65.23"/>
<text text-anchor="middle" x="218.53" y="-79.53" font-family="Arial" font-size="14.00">classify&#45;d</text>
</g>
<!-- map&#45;&gt;classify&#45;d -->
<g id="edge8" class="edge">
<title>map&#45;&gt;classify&#45;d</title>
<path fill="none" stroke="#1f78b4" d="M310.35,-219.07C292.1,-192.07 257.84,-141.38 236.72,-110.14"/>
<polygon fill="#a6cee3" stroke="#1f78b4" points="239.38,-107.82 230.88,-101.49 233.58,-111.74 239.38,-107.82"/>
</g>
<!-- subjectScheme -->
<g id="node10" class="node">
<title>subjectScheme</title>
<path fill="#1afabc" stroke="black" d="M416.89,-325.21C416.89,-325.21 502.89,-325.21 502.89,-325.21 508.89,-325.21 514.89,-331.21 514.89,-337.21 514.89,-337.21 514.89,-349.21 514.89,-349.21 514.89,-355.21 508.89,-361.21 502.89,-361.21 502.89,-361.21 416.89,-361.21 416.89,-361.21 410.89,-361.21 404.89,-355.21 404.89,-349.21 404.89,-349.21 404.89,-337.21 404.89,-337.21 404.89,-331.21 410.89,-325.21 416.89,-325.21"/>
<text text-anchor="middle" x="459.89" y="-339.51" font-family="Arial" font-size="14.00">subjectScheme</text>
</g>
<!-- map&#45;&gt;subjectScheme -->
<g id="edge9" class="edge">
<title>map&#45;&gt;subjectScheme</title>
<path fill="none" stroke="#1f78b4" d="M346.29,-255.55C368.86,-272.97 403.08,-299.38 428.07,-318.66"/>
<polygon fill="#a6cee3" stroke="#1f78b4" points="426.1,-321.56 436.15,-324.9 430.38,-316.02 426.1,-321.56"/>
</g>
<!-- topic -->
<g id="node11" class="node">
<title>topic</title>
<path fill="#afa7f4" stroke="black" d="M781.53,-467.42C781.53,-467.42 811.53,-467.42 811.53,-467.42 817.53,-467.42 823.53,-473.42 823.53,-479.42 823.53,-479.42 823.53,-491.42 823.53,-491.42 823.53,-497.42 817.53,-503.42 811.53,-503.42 811.53,-503.42 781.53,-503.42 781.53,-503.42 775.53,-503.42 769.53,-497.42 769.53,-491.42 769.53,-491.42 769.53,-479.42 769.53,-479.42 769.53,-473.42 775.53,-467.42 781.53,-467.42"/>
<text text-anchor="middle" x="796.53" y="-481.72" font-family="Arial" font-size="14.00">topic</text>
</g>
<!-- topic&#45;&gt;bookmap -->
<g id="edge10" class="edge">
<title>topic&#45;&gt;bookmap</title>
<path fill="none" stroke="#1f78b4" d="M771.78,-467.2C730.63,-436.91 648.13,-376.19 602.16,-342.34"/>
<polygon fill="#a6cee3" stroke="#1f78b4" points="604.14,-339.46 594.02,-336.35 599.99,-345.1 604.14,-339.46"/>
</g>
<!-- topic&#45;&gt;ditavalref&#45;d -->
<g id="edge40" class="edge">
<title>topic&#45;&gt;ditavalref&#45;d</title>
<path fill="none" stroke="#1f78b4" d="M769.4,-473.79C732.43,-457.93 665.51,-429.23 618.97,-409.28"/>
<polygon fill="#a6cee3" stroke="#1f78b4" points="620.23,-406.01 609.66,-405.28 617.47,-412.44 620.23,-406.01"/>
</g>
<!-- topic&#45;&gt;subjectScheme -->
<g id="edge46" class="edge">
<title>topic&#45;&gt;subjectScheme</title>
<path fill="none" stroke="#1f78b4" d="M769.27,-473.91C713.32,-450.27 584.69,-395.94 512.14,-365.29"/>
<polygon fill="#a6cee3" stroke="#1f78b4" points="513.3,-361.98 502.72,-361.31 510.57,-368.42 513.3,-361.98"/>
</g>
<!-- learningBase -->
<g id="node12" class="node">
<title>learningBase</title>
<path fill="#1afabc" stroke="black" d="M1094.4,-284.95C1094.4,-284.95 1165.4,-284.95 1165.4,-284.95 1171.4,-284.95 1177.4,-290.95 1177.4,-296.95 1177.4,-296.95 1177.4,-308.95 1177.4,-308.95 1177.4,-314.95 1171.4,-320.95 1165.4,-320.95 1165.4,-320.95 1094.4,-320.95 1094.4,-320.95 1088.4,-320.95 1082.4,-314.95 1082.4,-308.95 1082.4,-308.95 1082.4,-296.95 1082.4,-296.95 1082.4,-290.95 1088.4,-284.95 1094.4,-284.95"/>
<text text-anchor="middle" x="1129.9" y="-299.25" font-family="Arial" font-size="14.00">learningBase</text>
</g>
<!-- topic&#45;&gt;learningBase -->
<g id="edge11" class="edge">
<title>topic&#45;&gt;learningBase</title>
<path fill="none" stroke="#1f78b4" d="M823.81,-470.49C882,-438.64 1018.63,-363.86 1087.96,-325.91"/>
<polygon fill="#a6cee3" stroke="#1f78b4" points="1089.79,-328.9 1096.88,-321.03 1086.43,-322.76 1089.79,-328.9"/>
</g>
<!-- learningInteractionBase2&#45;d -->
<g id="node18" class="node">
<title>learningInteractionBase2&#45;d</title>
<path fill="#1afabc" stroke="black" d="M692.2,-796.04C692.2,-796.04 846.2,-796.04 846.2,-796.04 852.2,-796.04 858.2,-802.04 858.2,-808.04 858.2,-808.04 858.2,-820.04 858.2,-820.04 858.2,-826.04 852.2,-832.04 846.2,-832.04 846.2,-832.04 692.2,-832.04 692.2,-832.04 686.2,-832.04 680.2,-826.04 680.2,-820.04 680.2,-820.04 680.2,-808.04 680.2,-808.04 680.2,-802.04 686.2,-796.04 692.2,-796.04"/>
<text text-anchor="middle" x="769.2" y="-810.34" font-family="Arial" font-size="14.00">learningInteractionBase2&#45;d</text>
</g>
<!-- topic&#45;&gt;learningInteractionBase2&#45;d -->
<g id="edge17" class="edge">
<title>topic&#45;&gt;learningInteractionBase2&#45;d</title>
<path fill="none" stroke="#1f78b4" d="M795.02,-503.56C790.5,-557.98 777.01,-720.19 771.54,-785.91"/>
<polygon fill="#a6cee3" stroke="#1f78b4" points="768.05,-785.7 770.71,-795.96 775.02,-786.28 768.05,-785.7"/>
</g>
<!-- learningInteractionBase&#45;d -->
<g id="node20" class="node">
<title>learningInteractionBase&#45;d</title>
<path fill="#1afabc" stroke="black" d="M531.87,-718.31C531.87,-718.31 677.87,-718.31 677.87,-718.31 683.87,-718.31 689.87,-724.31 689.87,-730.31 689.87,-730.31 689.87,-742.31 689.87,-742.31 689.87,-748.31 683.87,-754.31 677.87,-754.31 677.87,-754.31 531.87,-754.31 531.87,-754.31 525.87,-754.31 519.87,-748.31 519.87,-742.31 519.87,-742.31 519.87,-730.31 519.87,-730.31 519.87,-724.31 525.87,-718.31 531.87,-718.31"/>
<text text-anchor="middle" x="604.87" y="-732.61" font-family="Arial" font-size="14.00">learningInteractionBase&#45;d</text>
</g>
<!-- topic&#45;&gt;learningInteractionBase&#45;d -->
<g id="edge19" class="edge">
<title>topic&#45;&gt;learningInteractionBase&#45;d</title>
<path fill="none" stroke="#1f78b4" d="M782.75,-503.47C749.4,-547.12 664.24,-658.6 625.1,-709.83"/>
<polygon fill="#a6cee3" stroke="#1f78b4" points="622.08,-708.02 618.79,-718.09 627.64,-712.27 622.08,-708.02"/>
</g>
<!-- learningmeta&#45;d -->
<g id="node22" class="node">
<title>learningmeta&#45;d</title>
<path fill="#1afabc" stroke="black" d="M537.08,-516.63C537.08,-516.63 620.08,-516.63 620.08,-516.63 626.08,-516.63 632.08,-522.63 632.08,-528.63 632.08,-528.63 632.08,-540.63 632.08,-540.63 632.08,-546.63 626.08,-552.63 620.08,-552.63 620.08,-552.63 537.08,-552.63 537.08,-552.63 531.08,-552.63 525.08,-546.63 525.08,-540.63 525.08,-540.63 525.08,-528.63 525.08,-528.63 525.08,-522.63 531.08,-516.63 537.08,-516.63"/>
<text text-anchor="middle" x="578.58" y="-530.93" font-family="Arial" font-size="14.00">learningmeta&#45;d</text>
</g>
<!-- topic&#45;&gt;learningmeta&#45;d -->
<g id="edge21" class="edge">
<title>topic&#45;&gt;learningmeta&#45;d</title>
<path fill="none" stroke="#1f78b4" d="M769.37,-491.56C737.78,-498.69 684.58,-510.7 642.37,-520.23"/>
<polygon fill="#a6cee3" stroke="#1f78b4" points="641.43,-516.85 632.45,-522.47 642.97,-523.68 641.43,-516.85"/>
</g>
<!-- abbrev&#45;d -->
<g id="node23" class="node">
<title>abbrev&#45;d</title>
<path fill="#1afabc" stroke="black" d="M876.11,-265.8C876.11,-265.8 922.11,-265.8 922.11,-265.8 928.11,-265.8 934.11,-271.8 934.11,-277.8 934.11,-277.8 934.11,-289.8 934.11,-289.8 934.11,-295.8 928.11,-301.8 922.11,-301.8 922.11,-301.8 876.11,-301.8 876.11,-301.8 870.11,-301.8 864.11,-295.8 864.11,-289.8 864.11,-289.8 864.11,-277.8 864.11,-277.8 864.11,-271.8 870.11,-265.8 876.11,-265.8"/>
<text text-anchor="middle" x="899.11" y="-280.1" font-family="Arial" font-size="14.00">abbrev&#45;d</text>
</g>
<!-- topic&#45;&gt;abbrev&#45;d -->
<g id="edge22" class="edge">
<title>topic&#45;&gt;abbrev&#45;d</title>
<path fill="none" stroke="#1f78b4" d="M805.81,-467.17C823.93,-431.56 864.08,-352.64 885.32,-310.9"/>
<polygon fill="#a6cee3" stroke="#1f78b4" points="888.51,-312.36 889.92,-301.86 882.27,-309.19 888.51,-312.36"/>
</g>
<!-- markup&#45;d -->
<g id="node24" class="node">
<title>markup&#45;d</title>
<path fill="#1afabc" stroke="black" d="M877.06,-716.62C877.06,-716.62 927.06,-716.62 927.06,-716.62 933.06,-716.62 939.06,-722.62 939.06,-728.62 939.06,-728.62 939.06,-740.62 939.06,-740.62 939.06,-746.62 933.06,-752.62 927.06,-752.62 927.06,-752.62 877.06,-752.62 877.06,-752.62 871.06,-752.62 865.06,-746.62 865.06,-740.62 865.06,-740.62 865.06,-728.62 865.06,-728.62 865.06,-722.62 871.06,-716.62 877.06,-716.62"/>
<text text-anchor="middle" x="902.06" y="-730.92" font-family="Arial" font-size="14.00">markup&#45;d</text>
</g>
<!-- topic&#45;&gt;markup&#45;d -->
<g id="edge23" class="edge">
<title>topic&#45;&gt;markup&#45;d</title>
<path fill="none" stroke="#1f78b4" d="M804.29,-503.75C822.63,-547.06 868.74,-655.94 890.43,-707.17"/>
<polygon fill="#a6cee3" stroke="#1f78b4" points="887.31,-708.77 894.43,-716.61 893.75,-706.04 887.31,-708.77"/>
</g>
<!-- mathml&#45;d -->
<g id="node26" class="node">
<title>mathml&#45;d</title>
<path fill="#1afabc" stroke="black" d="M992.04,-491.67C992.04,-491.67 1042.04,-491.67 1042.04,-491.67 1048.04,-491.67 1054.04,-497.67 1054.04,-503.67 1054.04,-503.67 1054.04,-515.67 1054.04,-515.67 1054.04,-521.67 1048.04,-527.67 1042.04,-527.67 1042.04,-527.67 992.04,-527.67 992.04,-527.67 986.04,-527.67 980.04,-521.67 980.04,-515.67 980.04,-515.67 980.04,-503.67 980.04,-503.67 980.04,-497.67 986.04,-491.67 992.04,-491.67"/>
<text text-anchor="middle" x="1017.04" y="-505.97" font-family="Arial" font-size="14.00">mathml&#45;d</text>
</g>
<!-- topic&#45;&gt;mathml&#45;d -->
<g id="edge25" class="edge">
<title>topic&#45;&gt;mathml&#45;d</title>
<path fill="none" stroke="#1f78b4" d="M823.57,-488.4C859.95,-492.4 925.24,-499.58 969.82,-504.48"/>
<polygon fill="#a6cee3" stroke="#1f78b4" points="969.51,-507.97 979.83,-505.58 970.28,-501.01 969.51,-507.97"/>
</g>
<!-- troubleshooting -->
<g id="node27" class="node">
<title>troubleshooting</title>
<path fill="#1afabc" stroke="black" d="M561.05,-585.85C561.05,-585.85 646.05,-585.85 646.05,-585.85 652.05,-585.85 658.05,-591.85 658.05,-597.85 658.05,-597.85 658.05,-609.85 658.05,-609.85 658.05,-615.85 652.05,-621.85 646.05,-621.85 646.05,-621.85 561.05,-621.85 561.05,-621.85 555.05,-621.85 549.05,-615.85 549.05,-609.85 549.05,-609.85 549.05,-597.85 549.05,-597.85 549.05,-591.85 555.05,-585.85 561.05,-585.85"/>
<text text-anchor="middle" x="603.55" y="-600.15" font-family="Arial" font-size="14.00">troubleshooting</text>
</g>
<!-- topic&#45;&gt;troubleshooting -->
<g id="edge26" class="edge">
<title>topic&#45;&gt;troubleshooting</title>
<path fill="none" stroke="#1f78b4" d="M769.29,-502.14C736.01,-522.56 679.5,-557.24 641.86,-580.35"/>
<polygon fill="#a6cee3" stroke="#1f78b4" points="639.88,-577.45 633.19,-585.67 643.54,-583.42 639.88,-577.45"/>
</g>
<!-- svg&#45;d -->
<g id="node28" class="node">
<title>svg&#45;d</title>
<path fill="#1afabc" stroke="black" d="M794.52,-290.29C794.52,-290.29 824.52,-290.29 824.52,-290.29 830.52,-290.29 836.52,-296.29 836.52,-302.29 836.52,-302.29 836.52,-314.29 836.52,-314.29 836.52,-320.29 830.52,-326.29 824.52,-326.29 824.52,-326.29 794.52,-326.29 794.52,-326.29 788.52,-326.29 782.52,-320.29 782.52,-314.29 782.52,-314.29 782.52,-302.29 782.52,-302.29 782.52,-296.29 788.52,-290.29 794.52,-290.29"/>
<text text-anchor="middle" x="809.52" y="-304.59" font-family="Arial" font-size="14.00">svg&#45;d</text>
</g>
<!-- topic&#45;&gt;svg&#45;d -->
<g id="edge27" class="edge">
<title>topic&#45;&gt;svg&#45;d</title>
<path fill="none" stroke="#1f78b4" d="M797.87,-467.13C800.14,-436.16 804.76,-373.18 807.45,-336.51"/>
<polygon fill="#a6cee3" stroke="#1f78b4" points="810.95,-336.71 808.19,-326.48 803.97,-336.2 810.95,-336.71"/>
</g>
<!-- ui&#45;d -->
<g id="node29" class="node">
<title>ui&#45;d</title>
<path fill="#1afabc" stroke="black" d="M959.78,-435.55C959.78,-435.55 989.78,-435.55 989.78,-435.55 995.78,-435.55 1001.78,-441.55 1001.78,-447.55 1001.78,-447.55 1001.78,-459.55 1001.78,-459.55 1001.78,-465.55 995.78,-471.55 989.78,-471.55 989.78,-471.55 959.78,-471.55 959.78,-471.55 953.78,-471.55 947.78,-465.55 947.78,-459.55 947.78,-459.55 947.78,-447.55 947.78,-447.55 947.78,-441.55 953.78,-435.55 959.78,-435.55"/>
<text text-anchor="middle" x="974.78" y="-449.85" font-family="Arial" font-size="14.00">ui&#45;d</text>
</g>
<!-- topic&#45;&gt;ui&#45;d -->
<g id="edge28" class="edge">
<title>topic&#45;&gt;ui&#45;d</title>
<path fill="none" stroke="#1f78b4" d="M823.6,-480.58C854.05,-475.14 903.69,-466.26 937.72,-460.17"/>
<polygon fill="#a6cee3" stroke="#1f78b4" points="938.52,-463.59 947.75,-458.38 937.29,-456.7 938.52,-463.59"/>
</g>
<!-- reference -->
<g id="node30" class="node">
<title>reference</title>
<path fill="#1afabc" stroke="black" d="M740.99,-661.24C740.99,-661.24 790.99,-661.24 790.99,-661.24 796.99,-661.24 802.99,-667.24 802.99,-673.24 802.99,-673.24 802.99,-685.24 802.99,-685.24 802.99,-691.24 796.99,-697.24 790.99,-697.24 790.99,-697.24 740.99,-697.24 740.99,-697.24 734.99,-697.24 728.99,-691.24 728.99,-685.24 728.99,-685.24 728.99,-673.24 728.99,-673.24 728.99,-667.24 734.99,-661.24 740.99,-661.24"/>
<text text-anchor="middle" x="765.99" y="-675.54" font-family="Arial" font-size="14.00">reference</text>
</g>
<!-- topic&#45;&gt;reference -->
<g id="edge29" class="edge">
<title>topic&#45;&gt;reference</title>
<path fill="none" stroke="#1f78b4" d="M793.66,-503.66C788.3,-537.65 776.76,-610.91 770.41,-651.23"/>
<polygon fill="#a6cee3" stroke="#1f78b4" points="766.94,-650.77 768.84,-661.2 773.85,-651.86 766.94,-650.77"/>
</g>
<!-- equation&#45;d -->
<g id="node31" class="node">
<title>equation&#45;d</title>
<path fill="#1afabc" stroke="black" d="M596.56,-457.29C596.56,-457.29 652.56,-457.29 652.56,-457.29 658.56,-457.29 664.56,-463.29 664.56,-469.29 664.56,-469.29 664.56,-481.29 664.56,-481.29 664.56,-487.29 658.56,-493.29 652.56,-493.29 652.56,-493.29 596.56,-493.29 596.56,-493.29 590.56,-493.29 584.56,-487.29 584.56,-481.29 584.56,-481.29 584.56,-469.29 584.56,-469.29 584.56,-463.29 590.56,-457.29 596.56,-457.29"/>
<text text-anchor="middle" x="624.56" y="-471.59" font-family="Arial" font-size="14.00">equation&#45;d</text>
</g>
<!-- topic&#45;&gt;equation&#45;d -->
<g id="edge30" class="edge">
<title>topic&#45;&gt;equation&#45;d</title>
<path fill="none" stroke="#1f78b4" d="M769.28,-483.82C744.01,-482.33 705.77,-480.07 674.95,-478.26"/>
<polygon fill="#a6cee3" stroke="#1f78b4" points="675,-474.75 664.81,-477.66 674.58,-481.74 675,-474.75"/>
</g>
<!-- task -->
<g id="node32" class="node">
<title>task</title>
<path fill="#1afabc" stroke="black" d="M793.07,-203.68C793.07,-203.68 823.07,-203.68 823.07,-203.68 829.07,-203.68 835.07,-209.68 835.07,-215.68 835.07,-215.68 835.07,-227.68 835.07,-227.68 835.07,-233.68 829.07,-239.68 823.07,-239.68 823.07,-239.68 793.07,-239.68 793.07,-239.68 787.07,-239.68 781.07,-233.68 781.07,-227.68 781.07,-227.68 781.07,-215.68 781.07,-215.68 781.07,-209.68 787.07,-203.68 793.07,-203.68"/>
<text text-anchor="middle" x="808.07" y="-217.98" font-family="Arial" font-size="14.00">task</text>
</g>
<!-- topic&#45;&gt;task -->
<g id="edge31" class="edge">
<title>topic&#45;&gt;task</title>
<path fill="none" stroke="#1f78b4" d="M797.32,-467.3C799.29,-422.22 804.43,-304.79 806.82,-250.27"/>
<polygon fill="#a6cee3" stroke="#1f78b4" points="810.33,-250.08 807.27,-239.94 803.33,-249.77 810.33,-250.08"/>
</g>
<!-- pr&#45;d -->
<g id="node34" class="node">
<title>pr&#45;d</title>
<path fill="#1afabc" stroke="black" d="M892.78,-333.7C892.78,-333.7 922.78,-333.7 922.78,-333.7 928.78,-333.7 934.78,-339.7 934.78,-345.7 934.78,-345.7 934.78,-357.7 934.78,-357.7 934.78,-363.7 928.78,-369.7 922.78,-369.7 922.78,-369.7 892.78,-369.7 892.78,-369.7 886.78,-369.7 880.78,-363.7 880.78,-357.7 880.78,-357.7 880.78,-345.7 880.78,-345.7 880.78,-339.7 886.78,-333.7 892.78,-333.7"/>
<text text-anchor="middle" x="907.78" y="-348" font-family="Arial" font-size="14.00">pr&#45;d</text>
</g>
<!-- topic&#45;&gt;pr&#45;d -->
<g id="edge33" class="edge">
<title>topic&#45;&gt;pr&#45;d</title>
<path fill="none" stroke="#1f78b4" d="M811.53,-467.39C830.78,-444.26 864.28,-403.99 886.25,-377.59"/>
<polygon fill="#a6cee3" stroke="#1f78b4" points="888.96,-379.8 892.66,-369.87 883.58,-375.32 888.96,-379.8"/>
</g>
<!-- concept -->
<g id="node35" class="node">
<title>concept</title>
<path fill="#1afabc" stroke="black" d="M1035.02,-640.1C1035.02,-640.1 1075.02,-640.1 1075.02,-640.1 1081.02,-640.1 1087.02,-646.1 1087.02,-652.1 1087.02,-652.1 1087.02,-664.1 1087.02,-664.1 1087.02,-670.1 1081.02,-676.1 1075.02,-676.1 1075.02,-676.1 1035.02,-676.1 1035.02,-676.1 1029.02,-676.1 1023.02,-670.1 1023.02,-664.1 1023.02,-664.1 1023.02,-652.1 1023.02,-652.1 1023.02,-646.1 1029.02,-640.1 1035.02,-640.1"/>
<text text-anchor="middle" x="1055.02" y="-654.4" font-family="Arial" font-size="14.00">concept</text>
</g>
<!-- topic&#45;&gt;concept -->
<g id="edge34" class="edge">
<title>topic&#45;&gt;concept</title>
<path fill="none" stroke="#1f78b4" d="M823.7,-503.58C870.63,-534.93 966.86,-599.21 1019.2,-634.17"/>
<polygon fill="#a6cee3" stroke="#1f78b4" points="1017.56,-637.29 1027.82,-639.93 1021.45,-631.47 1017.56,-637.29"/>
</g>
<!-- sw&#45;d -->
<g id="node38" class="node">
<title>sw&#45;d</title>
<path fill="#1afabc" stroke="black" d="M730.17,-587.06C730.17,-587.06 760.17,-587.06 760.17,-587.06 766.17,-587.06 772.17,-593.06 772.17,-599.06 772.17,-599.06 772.17,-611.06 772.17,-611.06 772.17,-617.06 766.17,-623.06 760.17,-623.06 760.17,-623.06 730.17,-623.06 730.17,-623.06 724.17,-623.06 718.17,-617.06 718.17,-611.06 718.17,-611.06 718.17,-599.06 718.17,-599.06 718.17,-593.06 724.17,-587.06 730.17,-587.06"/>
<text text-anchor="middle" x="745.17" y="-601.36" font-family="Arial" font-size="14.00">sw&#45;d</text>
</g>
<!-- topic&#45;&gt;sw&#45;d -->
<g id="edge37" class="edge">
<title>topic&#45;&gt;sw&#45;d</title>
<path fill="none" stroke="#1f78b4" d="M788.73,-503.59C780.32,-523.18 766.83,-554.6 757.09,-577.29"/>
<polygon fill="#a6cee3" stroke="#1f78b4" points="753.77,-576.15 753.04,-586.72 760.21,-578.91 753.77,-576.15"/>
</g>
<!-- relmgmt&#45;d -->
<g id="node39" class="node">
<title>relmgmt&#45;d</title>
<path fill="#1afabc" stroke="black" d="M635.09,-341.57C635.09,-341.57 690.09,-341.57 690.09,-341.57 696.09,-341.57 702.09,-347.57 702.09,-353.57 702.09,-353.57 702.09,-365.57 702.09,-365.57 702.09,-371.57 696.09,-377.57 690.09,-377.57 690.09,-377.57 635.09,-377.57 635.09,-377.57 629.09,-377.57 623.09,-371.57 623.09,-365.57 623.09,-365.57 623.09,-353.57 623.09,-353.57 623.09,-347.57 629.09,-341.57 635.09,-341.57"/>
<text text-anchor="middle" x="662.59" y="-355.87" font-family="Arial" font-size="14.00">relmgmt&#45;d</text>
</g>
<!-- topic&#45;&gt;relmgmt&#45;d -->
<g id="edge38" class="edge">
<title>topic&#45;&gt;relmgmt&#45;d</title>
<path fill="none" stroke="#1f78b4" d="M777.34,-467.39C754.3,-445.74 715.51,-409.29 689.49,-384.84"/>
<polygon fill="#a6cee3" stroke="#1f78b4" points="691.87,-382.27 682.18,-377.97 687.07,-387.37 691.87,-382.27"/>
</g>
<!-- xnal&#45;d -->
<g id="node40" class="node">
<title>xnal&#45;d</title>
<path fill="#1afabc" stroke="black" d="M958.23,-364.05C958.23,-364.05 988.23,-364.05 988.23,-364.05 994.23,-364.05 1000.23,-370.05 1000.23,-376.05 1000.23,-376.05 1000.23,-388.05 1000.23,-388.05 1000.23,-394.05 994.23,-400.05 988.23,-400.05 988.23,-400.05 958.23,-400.05 958.23,-400.05 952.23,-400.05 946.23,-394.05 946.23,-388.05 946.23,-388.05 946.23,-376.05 946.23,-376.05 946.23,-370.05 952.23,-364.05 958.23,-364.05"/>
<text text-anchor="middle" x="973.23" y="-378.35" font-family="Arial" font-size="14.00">xnal&#45;d</text>
</g>
<!-- topic&#45;&gt;xnal&#45;d -->
<g id="edge39" class="edge">
<title>topic&#45;&gt;xnal&#45;d</title>
<path fill="none" stroke="#1f78b4" d="M823.75,-469.5C854.1,-451.74 903.33,-422.94 936.94,-403.28"/>
<polygon fill="#a6cee3" stroke="#1f78b4" points="939.11,-406.07 945.98,-398 935.58,-400.02 939.11,-406.07"/>
</g>
<!-- delay&#45;d -->
<g id="node41" class="node">
<title>delay&#45;d</title>
<path fill="#1afabc" stroke="black" d="M903.58,-602.68C903.58,-602.68 940.58,-602.68 940.58,-602.68 946.58,-602.68 952.58,-608.68 952.58,-614.68 952.58,-614.68 952.58,-626.68 952.58,-626.68 952.58,-632.68 946.58,-638.68 940.58,-638.68 940.58,-638.68 903.58,-638.68 903.58,-638.68 897.58,-638.68 891.58,-632.68 891.58,-626.68 891.58,-626.68 891.58,-614.68 891.58,-614.68 891.58,-608.68 897.58,-602.68 903.58,-602.68"/>
<text text-anchor="middle" x="922.08" y="-616.98" font-family="Arial" font-size="14.00">delay&#45;d</text>
</g>
<!-- topic&#45;&gt;delay&#45;d -->
<g id="edge41" class="edge">
<title>topic&#45;&gt;delay&#45;d</title>
<path fill="none" stroke="#1f78b4" d="M813.46,-503.67C835.27,-527.16 873.31,-568.14 898.09,-594.84"/>
<polygon fill="#a6cee3" stroke="#1f78b4" points="895.64,-597.35 905.01,-602.3 900.77,-592.59 895.64,-597.35"/>
</g>
<!-- indexing&#45;d -->
<g id="node42" class="node">
<title>indexing&#45;d</title>
<path fill="#1afabc" stroke="black" d="M639.19,-640.19C639.19,-640.19 694.19,-640.19 694.19,-640.19 700.19,-640.19 706.19,-646.19 706.19,-652.19 706.19,-652.19 706.19,-664.19 706.19,-664.19 706.19,-670.19 700.19,-676.19 694.19,-676.19 694.19,-676.19 639.19,-676.19 639.19,-676.19 633.19,-676.19 627.19,-670.19 627.19,-664.19 627.19,-664.19 627.19,-652.19 627.19,-652.19 627.19,-646.19 633.19,-640.19 639.19,-640.19"/>
<text text-anchor="middle" x="666.69" y="-654.49" font-family="Arial" font-size="14.00">indexing&#45;d</text>
</g>
<!-- topic&#45;&gt;indexing&#45;d -->
<g id="edge42" class="edge">
<title>topic&#45;&gt;indexing&#45;d</title>
<path fill="none" stroke="#1f78b4" d="M782.88,-503.59C759.89,-534.17 713.36,-596.1 686.68,-631.59"/>
<polygon fill="#a6cee3" stroke="#1f78b4" points="683.56,-629.91 680.35,-640.01 689.16,-634.12 683.56,-629.91"/>
</g>
<!-- hazard&#45;d -->
<g id="node43" class="node">
<title>hazard&#45;d</title>
<path fill="#1afabc" stroke="black" d="M824.21,-642.08C824.21,-642.08 870.21,-642.08 870.21,-642.08 876.21,-642.08 882.21,-648.08 882.21,-654.08 882.21,-654.08 882.21,-666.08 882.21,-666.08 882.21,-672.08 876.21,-678.08 870.21,-678.08 870.21,-678.08 824.21,-678.08 824.21,-678.08 818.21,-678.08 812.21,-672.08 812.21,-666.08 812.21,-666.08 812.21,-654.08 812.21,-654.08 812.21,-648.08 818.21,-642.08 824.21,-642.08"/>
<text text-anchor="middle" x="847.21" y="-656.38" font-family="Arial" font-size="14.00">hazard&#45;d</text>
</g>
<!-- topic&#45;&gt;hazard&#45;d -->
<g id="edge43" class="edge">
<title>topic&#45;&gt;hazard&#45;d</title>
<path fill="none" stroke="#1f78b4" d="M801.76,-503.46C810.6,-533.92 828.55,-595.78 839.05,-631.97"/>
<polygon fill="#a6cee3" stroke="#1f78b4" points="835.78,-633.26 841.93,-641.89 842.5,-631.31 835.78,-633.26"/>
</g>
<!-- hi&#45;d -->
<g id="node44" class="node">
<title>hi&#45;d</title>
<path fill="#1afabc" stroke="black" d="M725.14,-288.22C725.14,-288.22 755.14,-288.22 755.14,-288.22 761.14,-288.22 767.14,-294.22 767.14,-300.22 767.14,-300.22 767.14,-312.22 767.14,-312.22 767.14,-318.22 761.14,-324.22 755.14,-324.22 755.14,-324.22 725.14,-324.22 725.14,-324.22 719.14,-324.22 713.14,-318.22 713.14,-312.22 713.14,-312.22 713.14,-300.22 713.14,-300.22 713.14,-294.22 719.14,-288.22 725.14,-288.22"/>
<text text-anchor="middle" x="740.14" y="-302.52" font-family="Arial" font-size="14.00">hi&#45;d</text>
</g>
<!-- topic&#45;&gt;hi&#45;d -->
<g id="edge44" class="edge">
<title>topic&#45;&gt;hi&#45;d</title>
<path fill="none" stroke="#1f78b4" d="M790.81,-467.25C780.93,-435.86 760.61,-371.26 748.92,-334.13"/>
<polygon fill="#a6cee3" stroke="#1f78b4" points="752.21,-332.92 745.87,-324.44 745.54,-335.02 752.21,-332.92"/>
</g>
<!-- ut&#45;d -->
<g id="node45" class="node">
<title>ut&#45;d</title>
<path fill="#1afabc" stroke="black" d="M939.5,-538.59C939.5,-538.59 969.5,-538.59 969.5,-538.59 975.5,-538.59 981.5,-544.59 981.5,-550.59 981.5,-550.59 981.5,-562.59 981.5,-562.59 981.5,-568.59 975.5,-574.59 969.5,-574.59 969.5,-574.59 939.5,-574.59 939.5,-574.59 933.5,-574.59 927.5,-568.59 927.5,-562.59 927.5,-562.59 927.5,-550.59 927.5,-550.59 927.5,-544.59 933.5,-538.59 939.5,-538.59"/>
<text text-anchor="middle" x="954.5" y="-552.89" font-family="Arial" font-size="14.00">ut&#45;d</text>
</g>
<!-- topic&#45;&gt;ut&#45;d -->
<g id="edge45" class="edge">
<title>topic&#45;&gt;ut&#45;d</title>
<path fill="none" stroke="#1f78b4" d="M823.69,-497.66C849.76,-509.4 889.33,-527.23 918.12,-540.2"/>
<polygon fill="#a6cee3" stroke="#1f78b4" points="916.88,-543.48 927.43,-544.4 919.75,-537.1 916.88,-543.48"/>
</g>
<!-- learningSummary -->
<g id="node13" class="node">
<title>learningSummary</title>
<path fill="#bfcfff" stroke="black" d="M1178.61,-54.9C1178.61,-54.9 1278.61,-54.9 1278.61,-54.9 1284.61,-54.9 1290.61,-60.9 1290.61,-66.9 1290.61,-66.9 1290.61,-78.9 1290.61,-78.9 1290.61,-84.9 1284.61,-90.9 1278.61,-90.9 1278.61,-90.9 1178.61,-90.9 1178.61,-90.9 1172.61,-90.9 1166.61,-84.9 1166.61,-78.9 1166.61,-78.9 1166.61,-66.9 1166.61,-66.9 1166.61,-60.9 1172.61,-54.9 1178.61,-54.9"/>
<text text-anchor="middle" x="1228.61" y="-69.2" font-family="Arial" font-size="14.00">learningSummary</text>
</g>
<!-- learningBase&#45;&gt;learningSummary -->
<g id="edge12" class="edge">
<title>learningBase&#45;&gt;learningSummary</title>
<path fill="none" stroke="#1f78b4" d="M1137.65,-284.9C1154.83,-244.85 1196.24,-148.34 1216.73,-100.6"/>
<polygon fill="#a6cee3" stroke="#1f78b4" points="1220.04,-101.76 1220.77,-91.19 1213.61,-99 1220.04,-101.76"/>
</g>
<!-- learningPlan -->
<g id="node14" class="node">
<title>learningPlan</title>
<path fill="#bfcfff" stroke="black" d="M1313.57,-246.16C1313.57,-246.16 1381.57,-246.16 1381.57,-246.16 1387.57,-246.16 1393.57,-252.16 1393.57,-258.16 1393.57,-258.16 1393.57,-270.16 1393.57,-270.16 1393.57,-276.16 1387.57,-282.16 1381.57,-282.16 1381.57,-282.16 1313.57,-282.16 1313.57,-282.16 1307.57,-282.16 1301.57,-276.16 1301.57,-270.16 1301.57,-270.16 1301.57,-258.16 1301.57,-258.16 1301.57,-252.16 1307.57,-246.16 1313.57,-246.16"/>
<text text-anchor="middle" x="1347.57" y="-260.46" font-family="Arial" font-size="14.00">learningPlan</text>
</g>
<!-- learningBase&#45;&gt;learningPlan -->
<g id="edge13" class="edge">
<title>learningBase&#45;&gt;learningPlan</title>
<path fill="none" stroke="#1f78b4" d="M1177.67,-294.44C1211.15,-288.47 1256.05,-280.47 1291.27,-274.2"/>
<polygon fill="#a6cee3" stroke="#1f78b4" points="1292.17,-277.59 1301.4,-272.39 1290.94,-270.7 1292.17,-277.59"/>
</g>
<!-- learningOverview -->
<g id="node15" class="node">
<title>learningOverview</title>
<path fill="#bfcfff" stroke="black" d="M1307.68,-166.07C1307.68,-166.07 1405.68,-166.07 1405.68,-166.07 1411.68,-166.07 1417.68,-172.07 1417.68,-178.07 1417.68,-178.07 1417.68,-190.07 1417.68,-190.07 1417.68,-196.07 1411.68,-202.07 1405.68,-202.07 1405.68,-202.07 1307.68,-202.07 1307.68,-202.07 1301.68,-202.07 1295.68,-196.07 1295.68,-190.07 1295.68,-190.07 1295.68,-178.07 1295.68,-178.07 1295.68,-172.07 1301.68,-166.07 1307.68,-166.07"/>
<text text-anchor="middle" x="1356.68" y="-180.37" font-family="Arial" font-size="14.00">learningOverview</text>
</g>
<!-- learningBase&#45;&gt;learningOverview -->
<g id="edge14" class="edge">
<title>learningBase&#45;&gt;learningOverview</title>
<path fill="none" stroke="#1f78b4" d="M1164.34,-284.9C1204.25,-263.98 1270.07,-229.48 1313.4,-206.76"/>
<polygon fill="#a6cee3" stroke="#1f78b4" points="1315.05,-209.84 1322.29,-202.1 1311.8,-203.65 1315.05,-209.84"/>
</g>
<!-- learningContent -->
<g id="node16" class="node">
<title>learningContent</title>
<path fill="#bfcfff" stroke="black" d="M1253.59,-108.35C1253.59,-108.35 1341.59,-108.35 1341.59,-108.35 1347.59,-108.35 1353.59,-114.35 1353.59,-120.35 1353.59,-120.35 1353.59,-132.35 1353.59,-132.35 1353.59,-138.35 1347.59,-144.35 1341.59,-144.35 1341.59,-144.35 1253.59,-144.35 1253.59,-144.35 1247.59,-144.35 1241.59,-138.35 1241.59,-132.35 1241.59,-132.35 1241.59,-120.35 1241.59,-120.35 1241.59,-114.35 1247.59,-108.35 1253.59,-108.35"/>
<text text-anchor="middle" x="1297.59" y="-122.65" font-family="Arial" font-size="14.00">learningContent</text>
</g>
<!-- learningBase&#45;&gt;learningContent -->
<g id="edge15" class="edge">
<title>learningBase&#45;&gt;learningContent</title>
<path fill="none" stroke="#1f78b4" d="M1147.21,-284.72C1177.17,-253.17 1238.73,-188.34 1273.07,-152.17"/>
<polygon fill="#a6cee3" stroke="#1f78b4" points="1276.02,-154.15 1280.37,-144.48 1270.95,-149.33 1276.02,-154.15"/>
</g>
<!-- learningAssessment -->
<g id="node17" class="node">
<title>learningAssessment</title>
<path fill="#bfcfff" stroke="black" d="M1335.69,-319.04C1335.69,-319.04 1450.69,-319.04 1450.69,-319.04 1456.69,-319.04 1462.69,-325.04 1462.69,-331.04 1462.69,-331.04 1462.69,-343.04 1462.69,-343.04 1462.69,-349.04 1456.69,-355.04 1450.69,-355.04 1450.69,-355.04 1335.69,-355.04 1335.69,-355.04 1329.69,-355.04 1323.69,-349.04 1323.69,-343.04 1323.69,-343.04 1323.69,-331.04 1323.69,-331.04 1323.69,-325.04 1329.69,-319.04 1335.69,-319.04"/>
<text text-anchor="middle" x="1393.19" y="-333.34" font-family="Arial" font-size="14.00">learningAssessment</text>
</g>
<!-- learningBase&#45;&gt;learningAssessment -->
<g id="edge16" class="edge">
<title>learningBase&#45;&gt;learningAssessment</title>
<path fill="none" stroke="#1f78b4" d="M1177.58,-309.13C1215.39,-314.02 1269.05,-320.97 1313.38,-326.71"/>
<polygon fill="#a6cee3" stroke="#1f78b4" points="1313.19,-330.21 1323.56,-328.03 1314.09,-323.27 1313.19,-330.21"/>
</g>
<!-- learning2&#45;d -->
<g id="node19" class="node">
<title>learning2&#45;d</title>
<path fill="#bfcfff" stroke="black" d="M715.05,-1091.2C715.05,-1091.2 775.05,-1091.2 775.05,-1091.2 781.05,-1091.2 787.05,-1097.2 787.05,-1103.2 787.05,-1103.2 787.05,-1115.2 787.05,-1115.2 787.05,-1121.2 781.05,-1127.2 775.05,-1127.2 775.05,-1127.2 715.05,-1127.2 715.05,-1127.2 709.05,-1127.2 703.05,-1121.2 703.05,-1115.2 703.05,-1115.2 703.05,-1103.2 703.05,-1103.2 703.05,-1097.2 709.05,-1091.2 715.05,-1091.2"/>
<text text-anchor="middle" x="745.05" y="-1105.5" font-family="Arial" font-size="14.00">learning2&#45;d</text>
</g>
<!-- learningInteractionBase2&#45;d&#45;&gt;learning2&#45;d -->
<g id="edge18" class="edge">
<title>learningInteractionBase2&#45;d&#45;&gt;learning2&#45;d</title>
<path fill="none" stroke="#1f78b4" d="M767.73,-832.05C763.67,-881.66 752.31,-1020.54 747.38,-1080.75"/>
<polygon fill="#a6cee3" stroke="#1f78b4" points="743.86,-1080.79 746.54,-1091.04 750.84,-1081.36 743.86,-1080.79"/>
</g>
<!-- learning&#45;d -->
<g id="node21" class="node">
<title>learning&#45;d</title>
<path fill="#bfcfff" stroke="black" d="M408.06,-947.23C408.06,-947.23 461.06,-947.23 461.06,-947.23 467.06,-947.23 473.06,-953.23 473.06,-959.23 473.06,-959.23 473.06,-971.23 473.06,-971.23 473.06,-977.23 467.06,-983.23 461.06,-983.23 461.06,-983.23 408.06,-983.23 408.06,-983.23 402.06,-983.23 396.06,-977.23 396.06,-971.23 396.06,-971.23 396.06,-959.23 396.06,-959.23 396.06,-953.23 402.06,-947.23 408.06,-947.23"/>
<text text-anchor="middle" x="434.56" y="-961.53" font-family="Arial" font-size="14.00">learning&#45;d</text>
</g>
<!-- learningInteractionBase&#45;d&#45;&gt;learning&#45;d -->
<g id="edge20" class="edge">
<title>learningInteractionBase&#45;d&#45;&gt;learning&#45;d</title>
<path fill="none" stroke="#1f78b4" d="M591.22,-754.65C561.13,-795.11 488.98,-892.08 454.1,-938.97"/>
<polygon fill="#a6cee3" stroke="#1f78b4" points="451.2,-937 448.04,-947.11 456.81,-941.18 451.2,-937"/>
</g>
<!-- xml&#45;d -->
<g id="node25" class="node">
<title>xml&#45;d</title>
<path fill="#bfcfff" stroke="black" d="M966.83,-926.71C966.83,-926.71 996.83,-926.71 996.83,-926.71 1002.83,-926.71 1008.83,-932.71 1008.83,-938.71 1008.83,-938.71 1008.83,-950.71 1008.83,-950.71 1008.83,-956.71 1002.83,-962.71 996.83,-962.71 996.83,-962.71 966.83,-962.71 966.83,-962.71 960.83,-962.71 954.83,-956.71 954.83,-950.71 954.83,-950.71 954.83,-938.71 954.83,-938.71 954.83,-932.71 960.83,-926.71 966.83,-926.71"/>
<text text-anchor="middle" x="981.83" y="-941.01" font-family="Arial" font-size="14.00">xml&#45;d</text>
</g>
<!-- markup&#45;d&#45;&gt;xml&#45;d -->
<g id="edge24" class="edge">
<title>markup&#45;d&#45;&gt;xml&#45;d</title>
<path fill="none" stroke="#1f78b4" d="M909,-752.9C923.03,-789.86 954.84,-873.64 971.39,-917.22"/>
<polygon fill="#a6cee3" stroke="#1f78b4" points="968.14,-918.52 974.96,-926.63 974.69,-916.04 968.14,-918.52"/>
</g>
<!-- taskreq&#45;d -->
<g id="node33" class="node">
<title>taskreq&#45;d</title>
<path fill="#bfcfff" stroke="black" d="M795.87,-0.25C795.87,-0.25 844.87,-0.25 844.87,-0.25 850.87,-0.25 856.87,-6.25 856.87,-12.25 856.87,-12.25 856.87,-24.25 856.87,-24.25 856.87,-30.25 850.87,-36.25 844.87,-36.25 844.87,-36.25 795.87,-36.25 795.87,-36.25 789.87,-36.25 783.87,-30.25 783.87,-24.25 783.87,-24.25 783.87,-12.25 783.87,-12.25 783.87,-6.25 789.87,-0.25 795.87,-0.25"/>
<text text-anchor="middle" x="820.37" y="-14.55" font-family="Arial" font-size="14.00">taskreq&#45;d</text>
</g>
<!-- task&#45;&gt;taskreq&#45;d -->
<g id="edge32" class="edge">
<title>task&#45;&gt;taskreq&#45;d</title>
<path fill="none" stroke="#1f78b4" d="M809.16,-203.63C811.3,-168.12 816.09,-88.95 818.66,-46.47"/>
<polygon fill="#a6cee3" stroke="#1f78b4" points="822.17,-46.46 819.28,-36.27 815.18,-46.04 822.17,-46.46"/>
</g>
<!-- glossentry -->
<g id="node36" class="node">
<title>glossentry</title>
<path fill="#bfcfff" stroke="black" d="M1221.25,-720.94C1221.25,-720.94 1275.25,-720.94 1275.25,-720.94 1281.25,-720.94 1287.25,-726.94 1287.25,-732.94 1287.25,-732.94 1287.25,-744.94 1287.25,-744.94 1287.25,-750.94 1281.25,-756.94 1275.25,-756.94 1275.25,-756.94 1221.25,-756.94 1221.25,-756.94 1215.25,-756.94 1209.25,-750.94 1209.25,-744.94 1209.25,-744.94 1209.25,-732.94 1209.25,-732.94 1209.25,-726.94 1215.25,-720.94 1221.25,-720.94"/>
<text text-anchor="middle" x="1248.25" y="-735.24" font-family="Arial" font-size="14.00">glossentry</text>
</g>
<!-- concept&#45;&gt;glossentry -->
<g id="edge35" class="edge">
<title>concept&#45;&gt;glossentry</title>
<path fill="none" stroke="#1f78b4" d="M1087.36,-671.63C1118,-684.45 1164.42,-703.87 1199.54,-718.56"/>
<polygon fill="#a6cee3" stroke="#1f78b4" points="1198.55,-721.94 1209.12,-722.57 1201.25,-715.48 1198.55,-721.94"/>
</g>
<!-- glossgroup -->
<g id="node37" class="node">
<title>glossgroup</title>
<path fill="#bfcfff" stroke="black" d="M1169.33,-803.05C1169.33,-803.05 1228.33,-803.05 1228.33,-803.05 1234.33,-803.05 1240.33,-809.05 1240.33,-815.05 1240.33,-815.05 1240.33,-827.05 1240.33,-827.05 1240.33,-833.05 1234.33,-839.05 1228.33,-839.05 1228.33,-839.05 1169.33,-839.05 1169.33,-839.05 1163.33,-839.05 1157.33,-833.05 1157.33,-827.05 1157.33,-827.05 1157.33,-815.05 1157.33,-815.05 1157.33,-809.05 1163.33,-803.05 1169.33,-803.05"/>
<text text-anchor="middle" x="1198.83" y="-817.35" font-family="Arial" font-size="14.00">glossgroup</text>
</g>
<!-- concept&#45;&gt;glossgroup -->
<g id="edge36" class="edge">
<title>concept&#45;&gt;glossgroup</title>
<path fill="none" stroke="#1f78b4" d="M1070.96,-676.16C1096.55,-705.16 1146.89,-762.2 1176.2,-795.4"/>
<polygon fill="#a6cee3" stroke="#1f78b4" points="1173.58,-797.72 1182.82,-802.9 1178.83,-793.09 1173.58,-797.72"/>
</g>
</g>
</svg>
