<?xml version="1.0" encoding="UTF-8" standalone="no"?>
<!DOCTYPE svg PUBLIC "-//W3C//DTD SVG 1.1//EN"
 "http://www.w3.org/Graphics/SVG/1.1/DTD/svg11.dtd">
<!-- Generated by graphviz version 6.0.1 (20220911.1526)
 -->
<!-- Pages: 1 -->
<svg width="1041pt" height="661pt"
 viewBox="0.00 0.00 1041.00 661.00" xmlns="http://www.w3.org/2000/svg" xmlns:xlink="http://www.w3.org/1999/xlink">
<g id="graph0" class="graph" transform="scale(1 1) rotate(0) translate(4 657)">
<polygon fill="white" stroke="none" points="-4,4 -4,-657 1037,-657 1037,4 -4,4"/>
<!-- learningPlanModule -->
<g id="node1" class="node">
<title>learningPlanModule</title>
<path fill="#dddddd" stroke="black" d="M455.64,-250.08C455.64,-250.08 568.64,-250.08 568.64,-250.08 574.64,-250.08 580.64,-256.08 580.64,-262.08 580.64,-262.08 580.64,-274.08 580.64,-274.08 580.64,-280.08 574.64,-286.08 568.64,-286.08 568.64,-286.08 455.64,-286.08 455.64,-286.08 449.64,-286.08 443.64,-280.08 443.64,-274.08 443.64,-274.08 443.64,-262.08 443.64,-262.08 443.64,-256.08 449.64,-250.08 455.64,-250.08"/>
<text text-anchor="middle" x="512.14" y="-264.38" font-family="Arial" font-size="14.00">learningPlanModule</text>
</g>
<!-- learningBase -->
<g id="node2" class="node">
<title>learningBase</title>
<path fill="#afa7f4" stroke="black" d="M469.62,-170.32C469.62,-170.32 540.62,-170.32 540.62,-170.32 546.62,-170.32 552.62,-176.32 552.62,-182.32 552.62,-182.32 552.62,-194.32 552.62,-194.32 552.62,-200.32 546.62,-206.32 540.62,-206.32 540.62,-206.32 469.62,-206.32 469.62,-206.32 463.62,-206.32 457.62,-200.32 457.62,-194.32 457.62,-194.32 457.62,-182.32 457.62,-182.32 457.62,-176.32 463.62,-170.32 469.62,-170.32"/>
<text text-anchor="middle" x="505.12" y="-184.62" font-family="Arial" font-size="14.00">learningBase</text>
</g>
<!-- learningPlanModule&#45;&gt;learningBase -->
<g id="edge1" class="edge">
<title>learningPlanModule&#45;&gt;learningBase</title>
<path fill="none" stroke="#1f78b4" d="M510.55,-249.99C509.68,-240.09 508.58,-227.62 507.6,-216.49"/>
<polygon fill="#a6cee3" stroke="#1f78b4" points="511.07,-216 506.71,-206.35 504.1,-216.62 511.07,-216"/>
</g>
<!-- learningBasebody -->
<g id="node4" class="node">
<title>learningBasebody</title>
<path fill="#afa7f4" stroke="black" d="M335.74,-178.66C335.74,-178.66 436.74,-178.66 436.74,-178.66 442.74,-178.66 448.74,-184.66 448.74,-190.66 448.74,-190.66 448.74,-202.66 448.74,-202.66 448.74,-208.66 442.74,-214.66 436.74,-214.66 436.74,-214.66 335.74,-214.66 335.74,-214.66 329.74,-214.66 323.74,-208.66 323.74,-202.66 323.74,-202.66 323.74,-190.66 323.74,-190.66 323.74,-184.66 329.74,-178.66 335.74,-178.66"/>
<text text-anchor="middle" x="386.24" y="-192.96" font-family="Arial" font-size="14.00">learningBasebody</text>
</g>
<!-- learningPlanModule&#45;&gt;learningBasebody -->
<g id="edge3" class="edge">
<title>learningPlanModule&#45;&gt;learningBasebody</title>
<path fill="none" stroke="#1f78b4" d="M480.37,-250.06C464.12,-240.84 444.16,-229.52 426.8,-219.67"/>
<polygon fill="#a6cee3" stroke="#1f78b4" points="428.42,-216.57 418,-214.68 424.97,-222.66 428.42,-216.57"/>
</g>
<!-- section -->
<g id="node6" class="node">
<title>section</title>
<path fill="#afa7f4" stroke="black" d="M490.87,-117.8C490.87,-117.8 525.87,-117.8 525.87,-117.8 531.87,-117.8 537.87,-123.8 537.87,-129.8 537.87,-129.8 537.87,-141.8 537.87,-141.8 537.87,-147.8 531.87,-153.8 525.87,-153.8 525.87,-153.8 490.87,-153.8 490.87,-153.8 484.87,-153.8 478.87,-147.8 478.87,-141.8 478.87,-141.8 478.87,-129.8 478.87,-129.8 478.87,-123.8 484.87,-117.8 490.87,-117.8"/>
<text text-anchor="middle" x="508.37" y="-132.1" font-family="Arial" font-size="14.00">section</text>
</g>
<!-- learningPlanModule&#45;&gt;section -->
<g id="edge5" class="edge">
<title>learningPlanModule&#45;&gt;section</title>
<path fill="none" stroke="#1f78b4" d="M511.63,-249.97C511,-227.83 509.92,-190.11 509.18,-164.12"/>
<polygon fill="#a6cee3" stroke="#1f78b4" points="512.68,-164.01 508.9,-154.12 505.68,-164.21 512.68,-164.01"/>
</g>
<!-- fig -->
<g id="node12" class="node">
<title>fig</title>
<path fill="#afa7f4" stroke="black" d="M356.47,-381.67C356.47,-381.67 386.47,-381.67 386.47,-381.67 392.47,-381.67 398.47,-387.67 398.47,-393.67 398.47,-393.67 398.47,-405.67 398.47,-405.67 398.47,-411.67 392.47,-417.67 386.47,-417.67 386.47,-417.67 356.47,-417.67 356.47,-417.67 350.47,-417.67 344.47,-411.67 344.47,-405.67 344.47,-405.67 344.47,-393.67 344.47,-393.67 344.47,-387.67 350.47,-381.67 356.47,-381.67"/>
<text text-anchor="middle" x="371.47" y="-395.97" font-family="Arial" font-size="14.00">fig</text>
</g>
<!-- learningPlanModule&#45;&gt;fig -->
<g id="edge11" class="edge">
<title>learningPlanModule&#45;&gt;fig</title>
<path fill="none" stroke="#1f78b4" d="M492.88,-286.11C468.39,-309.01 425.99,-348.67 398.33,-374.54"/>
<polygon fill="#a6cee3" stroke="#1f78b4" points="395.86,-372.06 390.95,-381.44 400.64,-377.17 395.86,-372.06"/>
</g>
<!-- p -->
<g id="node41" class="node">
<title>p</title>
<path fill="#afa7f4" stroke="black" d="M689.66,-271.93C689.66,-271.93 719.66,-271.93 719.66,-271.93 725.66,-271.93 731.66,-277.93 731.66,-283.93 731.66,-283.93 731.66,-295.93 731.66,-295.93 731.66,-301.93 725.66,-307.93 719.66,-307.93 719.66,-307.93 689.66,-307.93 689.66,-307.93 683.66,-307.93 677.66,-301.93 677.66,-295.93 677.66,-295.93 677.66,-283.93 677.66,-283.93 677.66,-277.93 683.66,-271.93 689.66,-271.93"/>
<text text-anchor="middle" x="704.66" y="-286.23" font-family="Arial" font-size="14.00">p</text>
</g>
<!-- learningPlanModule&#45;&gt;p -->
<g id="edge40" class="edge">
<title>learningPlanModule&#45;&gt;p</title>
<path fill="none" stroke="#1f78b4" d="M580.83,-275.88C609.93,-279.18 642.71,-282.9 667.22,-285.68"/>
<polygon fill="#a6cee3" stroke="#1f78b4" points="666.86,-289.16 677.19,-286.81 667.65,-282.21 666.86,-289.16"/>
</g>
<!-- learningPlan -->
<g id="node3" class="node">
<title>learningPlan</title>
<path fill="#1afabc" stroke="black" d="M375.94,-120.45C375.94,-120.45 443.94,-120.45 443.94,-120.45 449.94,-120.45 455.94,-126.45 455.94,-132.45 455.94,-132.45 455.94,-144.45 455.94,-144.45 455.94,-150.45 449.94,-156.45 443.94,-156.45 443.94,-156.45 375.94,-156.45 375.94,-156.45 369.94,-156.45 363.94,-150.45 363.94,-144.45 363.94,-144.45 363.94,-132.45 363.94,-132.45 363.94,-126.45 369.94,-120.45 375.94,-120.45"/>
<text text-anchor="middle" x="409.94" y="-134.75" font-family="Arial" font-size="14.00">learningPlan</text>
</g>
<!-- learningBase&#45;&gt;learningPlan -->
<g id="edge2" class="edge">
<title>learningBase&#45;&gt;learningPlan</title>
<path fill="none" stroke="#1f78b4" d="M470.76,-170.32C465.17,-167.39 459.31,-164.32 453.54,-161.29"/>
<polygon fill="#a6cee3" stroke="#1f78b4" points="455.06,-158.14 444.57,-156.6 451.81,-164.34 455.06,-158.14"/>
</g>
<!-- learningPlanbody -->
<g id="node5" class="node">
<title>learningPlanbody</title>
<path fill="#1afabc" stroke="black" d="M237.23,-120.46C237.23,-120.46 334.23,-120.46 334.23,-120.46 340.23,-120.46 346.23,-126.46 346.23,-132.46 346.23,-132.46 346.23,-144.46 346.23,-144.46 346.23,-150.46 340.23,-156.46 334.23,-156.46 334.23,-156.46 237.23,-156.46 237.23,-156.46 231.23,-156.46 225.23,-150.46 225.23,-144.46 225.23,-144.46 225.23,-132.46 225.23,-132.46 225.23,-126.46 231.23,-120.46 237.23,-120.46"/>
<text text-anchor="middle" x="285.73" y="-134.76" font-family="Arial" font-size="14.00">learningPlanbody</text>
</g>
<!-- learningBasebody&#45;&gt;learningPlanbody -->
<g id="edge4" class="edge">
<title>learningBasebody&#45;&gt;learningPlanbody</title>
<path fill="none" stroke="#1f78b4" d="M354.99,-178.56C345.72,-173.2 335.45,-167.25 325.71,-161.61"/>
<polygon fill="#a6cee3" stroke="#1f78b4" points="327.37,-158.53 316.96,-156.54 323.86,-164.58 327.37,-158.53"/>
</g>
<!-- lcProject -->
<g id="node7" class="node">
<title>lcProject</title>
<path fill="#1afabc" stroke="black" d="M517.75,-60.52C517.75,-60.52 561.75,-60.52 561.75,-60.52 567.75,-60.52 573.75,-66.52 573.75,-72.52 573.75,-72.52 573.75,-84.52 573.75,-84.52 573.75,-90.52 567.75,-96.52 561.75,-96.52 561.75,-96.52 517.75,-96.52 517.75,-96.52 511.75,-96.52 505.75,-90.52 505.75,-84.52 505.75,-84.52 505.75,-72.52 505.75,-72.52 505.75,-66.52 511.75,-60.52 517.75,-60.52"/>
<text text-anchor="middle" x="539.75" y="-74.82" font-family="Arial" font-size="14.00">lcProject</text>
</g>
<!-- section&#45;&gt;lcProject -->
<g id="edge6" class="edge">
<title>section&#45;&gt;lcProject</title>
<path fill="none" stroke="#1f78b4" d="M518.3,-117.67C520.42,-113.81 522.7,-109.65 524.95,-105.53"/>
<polygon fill="#a6cee3" stroke="#1f78b4" points="528.04,-107.17 529.78,-96.72 521.9,-103.81 528.04,-107.17"/>
</g>
<!-- lcNeedsAnalysis -->
<g id="node8" class="node">
<title>lcNeedsAnalysis</title>
<path fill="#1afabc" stroke="black" d="M490.05,-0.32C490.05,-0.32 582.05,-0.32 582.05,-0.32 588.05,-0.32 594.05,-6.32 594.05,-12.32 594.05,-12.32 594.05,-24.32 594.05,-24.32 594.05,-30.32 588.05,-36.32 582.05,-36.32 582.05,-36.32 490.05,-36.32 490.05,-36.32 484.05,-36.32 478.05,-30.32 478.05,-24.32 478.05,-24.32 478.05,-12.32 478.05,-12.32 478.05,-6.32 484.05,-0.32 490.05,-0.32"/>
<text text-anchor="middle" x="536.05" y="-14.62" font-family="Arial" font-size="14.00">lcNeedsAnalysis</text>
</g>
<!-- section&#45;&gt;lcNeedsAnalysis -->
<g id="edge7" class="edge">
<title>section&#45;&gt;lcNeedsAnalysis</title>
<path fill="none" stroke="#1f78b4" d="M512.64,-117.7C517.12,-98.7 524.22,-68.56 529.42,-46.46"/>
<polygon fill="#a6cee3" stroke="#1f78b4" points="532.85,-47.17 531.74,-36.63 526.04,-45.56 532.85,-47.17"/>
</g>
<!-- lcGapAnalysis -->
<g id="node9" class="node">
<title>lcGapAnalysis</title>
<path fill="#1afabc" stroke="black" d="M593.82,-47.79C593.82,-47.79 672.82,-47.79 672.82,-47.79 678.82,-47.79 684.82,-53.79 684.82,-59.79 684.82,-59.79 684.82,-71.79 684.82,-71.79 684.82,-77.79 678.82,-83.79 672.82,-83.79 672.82,-83.79 593.82,-83.79 593.82,-83.79 587.82,-83.79 581.82,-77.79 581.82,-71.79 581.82,-71.79 581.82,-59.79 581.82,-59.79 581.82,-53.79 587.82,-47.79 593.82,-47.79"/>
<text text-anchor="middle" x="633.32" y="-62.09" font-family="Arial" font-size="14.00">lcGapAnalysis</text>
</g>
<!-- section&#45;&gt;lcGapAnalysis -->
<g id="edge8" class="edge">
<title>section&#45;&gt;lcGapAnalysis</title>
<path fill="none" stroke="#1f78b4" d="M537.98,-119.21C554.08,-110.19 574.26,-98.88 591.89,-89"/>
<polygon fill="#a6cee3" stroke="#1f78b4" points="593.84,-91.93 600.85,-83.99 590.41,-85.82 593.84,-91.93"/>
</g>
<!-- lcIntervention -->
<g id="node10" class="node">
<title>lcIntervention</title>
<path fill="#1afabc" stroke="black" d="M321.71,-75.43C321.71,-75.43 394.71,-75.43 394.71,-75.43 400.71,-75.43 406.71,-81.43 406.71,-87.43 406.71,-87.43 406.71,-99.43 406.71,-99.43 406.71,-105.43 400.71,-111.43 394.71,-111.43 394.71,-111.43 321.71,-111.43 321.71,-111.43 315.71,-111.43 309.71,-105.43 309.71,-99.43 309.71,-99.43 309.71,-87.43 309.71,-87.43 309.71,-81.43 315.71,-75.43 321.71,-75.43"/>
<text text-anchor="middle" x="358.21" y="-89.73" font-family="Arial" font-size="14.00">lcIntervention</text>
</g>
<!-- section&#45;&gt;lcIntervention -->
<g id="edge9" class="edge">
<title>section&#45;&gt;lcIntervention</title>
<path fill="none" stroke="#1f78b4" d="M478.71,-127.42C460.92,-122.41 437.68,-115.85 416.37,-109.83"/>
<polygon fill="#a6cee3" stroke="#1f78b4" points="417.31,-106.46 406.73,-107.12 415.41,-113.2 417.31,-106.46"/>
</g>
<!-- lcTechnical -->
<g id="node11" class="node">
<title>lcTechnical</title>
<path fill="#1afabc" stroke="black" d="M426.73,-45.33C426.73,-45.33 485.73,-45.33 485.73,-45.33 491.73,-45.33 497.73,-51.33 497.73,-57.33 497.73,-57.33 497.73,-69.33 497.73,-69.33 497.73,-75.33 491.73,-81.33 485.73,-81.33 485.73,-81.33 426.73,-81.33 426.73,-81.33 420.73,-81.33 414.73,-75.33 414.73,-69.33 414.73,-69.33 414.73,-57.33 414.73,-57.33 414.73,-51.33 420.73,-45.33 426.73,-45.33"/>
<text text-anchor="middle" x="456.23" y="-59.63" font-family="Arial" font-size="14.00">lcTechnical</text>
</g>
<!-- section&#45;&gt;lcTechnical -->
<g id="edge10" class="edge">
<title>section&#45;&gt;lcTechnical</title>
<path fill="none" stroke="#1f78b4" d="M495.22,-117.51C489.12,-109.04 481.76,-98.81 475.09,-89.53"/>
<polygon fill="#a6cee3" stroke="#1f78b4" points="477.89,-87.43 469.21,-81.36 472.21,-91.52 477.89,-87.43"/>
</g>
<!-- lcClient -->
<g id="node13" class="node">
<title>lcClient</title>
<path fill="#1afabc" stroke="black" d="M331.2,-225.89C331.2,-225.89 368.2,-225.89 368.2,-225.89 374.2,-225.89 380.2,-231.89 380.2,-237.89 380.2,-237.89 380.2,-249.89 380.2,-249.89 380.2,-255.89 374.2,-261.89 368.2,-261.89 368.2,-261.89 331.2,-261.89 331.2,-261.89 325.2,-261.89 319.2,-255.89 319.2,-249.89 319.2,-249.89 319.2,-237.89 319.2,-237.89 319.2,-231.89 325.2,-225.89 331.2,-225.89"/>
<text text-anchor="middle" x="349.7" y="-240.19" font-family="Arial" font-size="14.00">lcClient</text>
</g>
<!-- fig&#45;&gt;lcClient -->
<g id="edge12" class="edge">
<title>fig&#45;&gt;lcClient</title>
<path fill="none" stroke="#1f78b4" d="M368.93,-381.49C365.16,-354.53 358.06,-303.69 353.62,-271.93"/>
<polygon fill="#a6cee3" stroke="#1f78b4" points="357.08,-271.37 352.23,-261.95 350.14,-272.34 357.08,-271.37"/>
</g>
<!-- lcPlanTitle -->
<g id="node14" class="node">
<title>lcPlanTitle</title>
<path fill="#1afabc" stroke="black" d="M175.45,-461.41C175.45,-461.41 230.45,-461.41 230.45,-461.41 236.45,-461.41 242.45,-467.41 242.45,-473.41 242.45,-473.41 242.45,-485.41 242.45,-485.41 242.45,-491.41 236.45,-497.41 230.45,-497.41 230.45,-497.41 175.45,-497.41 175.45,-497.41 169.45,-497.41 163.45,-491.41 163.45,-485.41 163.45,-485.41 163.45,-473.41 163.45,-473.41 163.45,-467.41 169.45,-461.41 175.45,-461.41"/>
<text text-anchor="middle" x="202.95" y="-475.71" font-family="Arial" font-size="14.00">lcPlanTitle</text>
</g>
<!-- fig&#45;&gt;lcPlanTitle -->
<g id="edge13" class="edge">
<title>fig&#45;&gt;lcPlanTitle</title>
<path fill="none" stroke="#1f78b4" d="M344.39,-412.48C319.1,-424.45 280.78,-442.58 250.41,-456.95"/>
<polygon fill="#a6cee3" stroke="#1f78b4" points="248.8,-453.84 241.26,-461.28 251.8,-460.17 248.8,-453.84"/>
</g>
<!-- lcCIN -->
<g id="node15" class="node">
<title>lcCIN</title>
<path fill="#1afabc" stroke="black" d="M450.29,-356.81C450.29,-356.81 480.29,-356.81 480.29,-356.81 486.29,-356.81 492.29,-362.81 492.29,-368.81 492.29,-368.81 492.29,-380.81 492.29,-380.81 492.29,-386.81 486.29,-392.81 480.29,-392.81 480.29,-392.81 450.29,-392.81 450.29,-392.81 444.29,-392.81 438.29,-386.81 438.29,-380.81 438.29,-380.81 438.29,-368.81 438.29,-368.81 438.29,-362.81 444.29,-356.81 450.29,-356.81"/>
<text text-anchor="middle" x="465.29" y="-371.11" font-family="Arial" font-size="14.00">lcCIN</text>
</g>
<!-- fig&#45;&gt;lcCIN -->
<g id="edge14" class="edge">
<title>fig&#45;&gt;lcCIN</title>
<path fill="none" stroke="#1f78b4" d="M398.6,-392.48C407.94,-390.01 418.55,-387.19 428.52,-384.55"/>
<polygon fill="#a6cee3" stroke="#1f78b4" points="429.44,-387.93 438.21,-381.99 427.65,-381.16 429.44,-387.93"/>
</g>
<!-- lcModDate -->
<g id="node16" class="node">
<title>lcModDate</title>
<path fill="#1afabc" stroke="black" d="M116.08,-342.97C116.08,-342.97 174.08,-342.97 174.08,-342.97 180.08,-342.97 186.08,-348.97 186.08,-354.97 186.08,-354.97 186.08,-366.97 186.08,-366.97 186.08,-372.97 180.08,-378.97 174.08,-378.97 174.08,-378.97 116.08,-378.97 116.08,-378.97 110.08,-378.97 104.08,-372.97 104.08,-366.97 104.08,-366.97 104.08,-354.97 104.08,-354.97 104.08,-348.97 110.08,-342.97 116.08,-342.97"/>
<text text-anchor="middle" x="145.08" y="-357.27" font-family="Arial" font-size="14.00">lcModDate</text>
</g>
<!-- fig&#45;&gt;lcModDate -->
<g id="edge15" class="edge">
<title>fig&#45;&gt;lcModDate</title>
<path fill="none" stroke="#1f78b4" d="M344.16,-395C307.64,-388.76 242.19,-377.57 196.34,-369.73"/>
<polygon fill="#a6cee3" stroke="#1f78b4" points="196.74,-366.25 186.29,-368.01 195.56,-373.15 196.74,-366.25"/>
</g>
<!-- lcDelivDate -->
<g id="node17" class="node">
<title>lcDelivDate</title>
<path fill="#1afabc" stroke="black" d="M158.71,-395.73C158.71,-395.73 219.71,-395.73 219.71,-395.73 225.71,-395.73 231.71,-401.73 231.71,-407.73 231.71,-407.73 231.71,-419.73 231.71,-419.73 231.71,-425.73 225.71,-431.73 219.71,-431.73 219.71,-431.73 158.71,-431.73 158.71,-431.73 152.71,-431.73 146.71,-425.73 146.71,-419.73 146.71,-419.73 146.71,-407.73 146.71,-407.73 146.71,-401.73 152.71,-395.73 158.71,-395.73"/>
<text text-anchor="middle" x="189.21" y="-410.03" font-family="Arial" font-size="14.00">lcDelivDate</text>
</g>
<!-- fig&#45;&gt;lcDelivDate -->
<g id="edge16" class="edge">
<title>fig&#45;&gt;lcDelivDate</title>
<path fill="none" stroke="#1f78b4" d="M344.18,-401.77C317.27,-403.85 275.44,-407.08 242.02,-409.66"/>
<polygon fill="#a6cee3" stroke="#1f78b4" points="241.64,-406.18 231.94,-410.43 242.18,-413.16 241.64,-406.18"/>
</g>
<!-- lcPlanSubject -->
<g id="node18" class="node">
<title>lcPlanSubject</title>
<path fill="#1afabc" stroke="black" d="M102.51,-523.13C102.51,-523.13 176.51,-523.13 176.51,-523.13 182.51,-523.13 188.51,-529.13 188.51,-535.13 188.51,-535.13 188.51,-547.13 188.51,-547.13 188.51,-553.13 182.51,-559.13 176.51,-559.13 176.51,-559.13 102.51,-559.13 102.51,-559.13 96.51,-559.13 90.51,-553.13 90.51,-547.13 90.51,-547.13 90.51,-535.13 90.51,-535.13 90.51,-529.13 96.51,-523.13 102.51,-523.13"/>
<text text-anchor="middle" x="139.51" y="-537.43" font-family="Arial" font-size="14.00">lcPlanSubject</text>
</g>
<!-- fig&#45;&gt;lcPlanSubject -->
<g id="edge17" class="edge">
<title>fig&#45;&gt;lcPlanSubject</title>
<path fill="none" stroke="#1f78b4" d="M344.4,-416.17C303.31,-441.23 225.01,-488.99 178,-517.66"/>
<polygon fill="#a6cee3" stroke="#1f78b4" points="176.04,-514.76 169.32,-522.95 179.68,-520.73 176.04,-514.76"/>
</g>
<!-- lcPlanDescrip -->
<g id="node19" class="node">
<title>lcPlanDescrip</title>
<path fill="#1afabc" stroke="black" d="M62.42,-478.05C62.42,-478.05 137.42,-478.05 137.42,-478.05 143.42,-478.05 149.42,-484.05 149.42,-490.05 149.42,-490.05 149.42,-502.05 149.42,-502.05 149.42,-508.05 143.42,-514.05 137.42,-514.05 137.42,-514.05 62.42,-514.05 62.42,-514.05 56.42,-514.05 50.42,-508.05 50.42,-502.05 50.42,-502.05 50.42,-490.05 50.42,-490.05 50.42,-484.05 56.42,-478.05 62.42,-478.05"/>
<text text-anchor="middle" x="99.92" y="-492.35" font-family="Arial" font-size="14.00">lcPlanDescrip</text>
</g>
<!-- fig&#45;&gt;lcPlanDescrip -->
<g id="edge18" class="edge">
<title>fig&#45;&gt;lcPlanDescrip</title>
<path fill="none" stroke="#1f78b4" d="M344.44,-409.26C301.51,-424.5 216.73,-454.59 159.18,-475.02"/>
<polygon fill="#a6cee3" stroke="#1f78b4" points="157.74,-471.82 149.48,-478.46 160.08,-478.41 157.74,-471.82"/>
</g>
<!-- lcPlanPrereqs -->
<g id="node20" class="node">
<title>lcPlanPrereqs</title>
<path fill="#1afabc" stroke="black" d="M218.93,-197.2C218.93,-197.2 295.93,-197.2 295.93,-197.2 301.93,-197.2 307.93,-203.2 307.93,-209.2 307.93,-209.2 307.93,-221.2 307.93,-221.2 307.93,-227.2 301.93,-233.2 295.93,-233.2 295.93,-233.2 218.93,-233.2 218.93,-233.2 212.93,-233.2 206.93,-227.2 206.93,-221.2 206.93,-221.2 206.93,-209.2 206.93,-209.2 206.93,-203.2 212.93,-197.2 218.93,-197.2"/>
<text text-anchor="middle" x="257.43" y="-211.5" font-family="Arial" font-size="14.00">lcPlanPrereqs</text>
</g>
<!-- fig&#45;&gt;lcPlanPrereqs -->
<g id="edge19" class="edge">
<title>fig&#45;&gt;lcPlanPrereqs</title>
<path fill="none" stroke="#1f78b4" d="M360.32,-381.64C340.14,-349 297.44,-279.93 273.89,-241.83"/>
<polygon fill="#a6cee3" stroke="#1f78b4" points="276.85,-239.96 268.62,-233.29 270.9,-243.64 276.85,-239.96"/>
</g>
<!-- lcOrganizational -->
<g id="node21" class="node">
<title>lcOrganizational</title>
<path fill="#1afabc" stroke="black" d="M220.63,-616.09C220.63,-616.09 310.63,-616.09 310.63,-616.09 316.63,-616.09 322.63,-622.09 322.63,-628.09 322.63,-628.09 322.63,-640.09 322.63,-640.09 322.63,-646.09 316.63,-652.09 310.63,-652.09 310.63,-652.09 220.63,-652.09 220.63,-652.09 214.63,-652.09 208.63,-646.09 208.63,-640.09 208.63,-640.09 208.63,-628.09 208.63,-628.09 208.63,-622.09 214.63,-616.09 220.63,-616.09"/>
<text text-anchor="middle" x="265.63" y="-630.39" font-family="Arial" font-size="14.00">lcOrganizational</text>
</g>
<!-- fig&#45;&gt;lcOrganizational -->
<g id="edge20" class="edge">
<title>fig&#45;&gt;lcOrganizational</title>
<path fill="none" stroke="#1f78b4" d="M363.34,-417.67C344.91,-458.5 299.85,-558.29 277.97,-606.77"/>
<polygon fill="#a6cee3" stroke="#1f78b4" points="274.71,-605.47 273.79,-616.02 281.09,-608.35 274.71,-605.47"/>
</g>
<!-- lcPlanAudience -->
<g id="node22" class="node">
<title>lcPlanAudience</title>
<path fill="#1afabc" stroke="black" d="M462.67,-563.89C462.67,-563.89 548.67,-563.89 548.67,-563.89 554.67,-563.89 560.67,-569.89 560.67,-575.89 560.67,-575.89 560.67,-587.89 560.67,-587.89 560.67,-593.89 554.67,-599.89 548.67,-599.89 548.67,-599.89 462.67,-599.89 462.67,-599.89 456.67,-599.89 450.67,-593.89 450.67,-587.89 450.67,-587.89 450.67,-575.89 450.67,-575.89 450.67,-569.89 456.67,-563.89 462.67,-563.89"/>
<text text-anchor="middle" x="505.67" y="-578.19" font-family="Arial" font-size="14.00">lcPlanAudience</text>
</g>
<!-- fig&#45;&gt;lcPlanAudience -->
<g id="edge21" class="edge">
<title>fig&#45;&gt;lcPlanAudience</title>
<path fill="none" stroke="#1f78b4" d="M384.82,-417.81C408.64,-450.14 458.52,-517.87 486.17,-555.41"/>
<polygon fill="#a6cee3" stroke="#1f78b4" points="483.62,-557.85 492.37,-563.83 489.26,-553.7 483.62,-557.85"/>
</g>
<!-- lcWorkEnv -->
<g id="node23" class="node">
<title>lcWorkEnv</title>
<path fill="#1afabc" stroke="black" d="M464.19,-401.82C464.19,-401.82 521.19,-401.82 521.19,-401.82 527.19,-401.82 533.19,-407.82 533.19,-413.82 533.19,-413.82 533.19,-425.82 533.19,-425.82 533.19,-431.82 527.19,-437.82 521.19,-437.82 521.19,-437.82 464.19,-437.82 464.19,-437.82 458.19,-437.82 452.19,-431.82 452.19,-425.82 452.19,-425.82 452.19,-413.82 452.19,-413.82 452.19,-407.82 458.19,-401.82 464.19,-401.82"/>
<text text-anchor="middle" x="492.69" y="-416.12" font-family="Arial" font-size="14.00">lcWorkEnv</text>
</g>
<!-- fig&#45;&gt;lcWorkEnv -->
<g id="edge22" class="edge">
<title>fig&#45;&gt;lcWorkEnv</title>
<path fill="none" stroke="#1f78b4" d="M398.67,-404.19C411.38,-406.3 426.93,-408.89 441.7,-411.35"/>
<polygon fill="#a6cee3" stroke="#1f78b4" points="441.32,-414.83 451.76,-413.02 442.47,-407.92 441.32,-414.83"/>
</g>
<!-- lcTask -->
<g id="node24" class="node">
<title>lcTask</title>
<path fill="#1afabc" stroke="black" d="M206.15,-343.45C206.15,-343.45 236.15,-343.45 236.15,-343.45 242.15,-343.45 248.15,-349.45 248.15,-355.45 248.15,-355.45 248.15,-367.45 248.15,-367.45 248.15,-373.45 242.15,-379.45 236.15,-379.45 236.15,-379.45 206.15,-379.45 206.15,-379.45 200.15,-379.45 194.15,-373.45 194.15,-367.45 194.15,-367.45 194.15,-355.45 194.15,-355.45 194.15,-349.45 200.15,-343.45 206.15,-343.45"/>
<text text-anchor="middle" x="221.15" y="-357.75" font-family="Arial" font-size="14.00">lcTask</text>
</g>
<!-- fig&#45;&gt;lcTask -->
<g id="edge23" class="edge">
<title>fig&#45;&gt;lcTask</title>
<path fill="none" stroke="#1f78b4" d="M344.24,-392.75C320.09,-386.6 284.59,-377.58 257.92,-370.8"/>
<polygon fill="#a6cee3" stroke="#1f78b4" points="258.72,-367.39 248.17,-368.32 257,-374.17 258.72,-367.39"/>
</g>
<!-- lcGapItem -->
<g id="node25" class="node">
<title>lcGapItem</title>
<path fill="#1afabc" stroke="black" d="M159.17,-247.85C159.17,-247.85 215.17,-247.85 215.17,-247.85 221.17,-247.85 227.17,-253.85 227.17,-259.85 227.17,-259.85 227.17,-271.85 227.17,-271.85 227.17,-277.85 221.17,-283.85 215.17,-283.85 215.17,-283.85 159.17,-283.85 159.17,-283.85 153.17,-283.85 147.17,-277.85 147.17,-271.85 147.17,-271.85 147.17,-259.85 147.17,-259.85 147.17,-253.85 153.17,-247.85 159.17,-247.85"/>
<text text-anchor="middle" x="187.17" y="-262.15" font-family="Arial" font-size="14.00">lcGapItem</text>
</g>
<!-- fig&#45;&gt;lcGapItem -->
<g id="edge24" class="edge">
<title>fig&#45;&gt;lcGapItem</title>
<path fill="none" stroke="#1f78b4" d="M346.61,-381.62C314.05,-357.98 256.83,-316.43 220.52,-290.07"/>
<polygon fill="#a6cee3" stroke="#1f78b4" points="222.37,-287.09 212.22,-284.04 218.25,-292.75 222.37,-287.09"/>
</g>
<!-- lcInterventionItem -->
<g id="node26" class="node">
<title>lcInterventionItem</title>
<path fill="#1afabc" stroke="black" d="M26.72,-297.94C26.72,-297.94 126.72,-297.94 126.72,-297.94 132.72,-297.94 138.72,-303.94 138.72,-309.94 138.72,-309.94 138.72,-321.94 138.72,-321.94 138.72,-327.94 132.72,-333.94 126.72,-333.94 126.72,-333.94 26.72,-333.94 26.72,-333.94 20.72,-333.94 14.72,-327.94 14.72,-321.94 14.72,-321.94 14.72,-309.94 14.72,-309.94 14.72,-303.94 20.72,-297.94 26.72,-297.94"/>
<text text-anchor="middle" x="76.72" y="-312.24" font-family="Arial" font-size="14.00">lcInterventionItem</text>
</g>
<!-- fig&#45;&gt;lcInterventionItem -->
<g id="edge25" class="edge">
<title>fig&#45;&gt;lcInterventionItem</title>
<path fill="none" stroke="#1f78b4" d="M344.27,-391.94C300.23,-379.43 211.91,-354.34 148.79,-336.41"/>
<polygon fill="#a6cee3" stroke="#1f78b4" points="149.46,-332.97 138.89,-333.6 147.55,-339.7 149.46,-332.97"/>
</g>
<!-- lcLMS -->
<g id="node27" class="node">
<title>lcLMS</title>
<path fill="#1afabc" stroke="black" d="M443.02,-474.02C443.02,-474.02 474.02,-474.02 474.02,-474.02 480.02,-474.02 486.02,-480.02 486.02,-486.02 486.02,-486.02 486.02,-498.02 486.02,-498.02 486.02,-504.02 480.02,-510.02 474.02,-510.02 474.02,-510.02 443.02,-510.02 443.02,-510.02 437.02,-510.02 431.02,-504.02 431.02,-498.02 431.02,-498.02 431.02,-486.02 431.02,-486.02 431.02,-480.02 437.02,-474.02 443.02,-474.02"/>
<text text-anchor="middle" x="458.52" y="-488.32" font-family="Arial" font-size="14.00">lcLMS</text>
</g>
<!-- fig&#45;&gt;lcLMS -->
<g id="edge26" class="edge">
<title>fig&#45;&gt;lcLMS</title>
<path fill="none" stroke="#1f78b4" d="M388.67,-417.91C401.66,-431.7 419.67,-450.81 434.15,-466.17"/>
<polygon fill="#a6cee3" stroke="#1f78b4" points="431.95,-468.94 441.36,-473.82 437.05,-464.14 431.95,-468.94"/>
</g>
<!-- lcNoLMS -->
<g id="node28" class="node">
<title>lcNoLMS</title>
<path fill="#1afabc" stroke="black" d="M248.56,-508.2C248.56,-508.2 296.56,-508.2 296.56,-508.2 302.56,-508.2 308.56,-514.2 308.56,-520.2 308.56,-520.2 308.56,-532.2 308.56,-532.2 308.56,-538.2 302.56,-544.2 296.56,-544.2 296.56,-544.2 248.56,-544.2 248.56,-544.2 242.56,-544.2 236.56,-538.2 236.56,-532.2 236.56,-532.2 236.56,-520.2 236.56,-520.2 236.56,-514.2 242.56,-508.2 248.56,-508.2"/>
<text text-anchor="middle" x="272.56" y="-522.5" font-family="Arial" font-size="14.00">lcNoLMS</text>
</g>
<!-- fig&#45;&gt;lcNoLMS -->
<g id="edge27" class="edge">
<title>fig&#45;&gt;lcNoLMS</title>
<path fill="none" stroke="#1f78b4" d="M357.3,-417.8C340.48,-439.32 312.3,-475.37 293.09,-499.94"/>
<polygon fill="#a6cee3" stroke="#1f78b4" points="290.11,-498.07 286.71,-508.11 295.62,-502.39 290.11,-498.07"/>
</g>
<!-- lcHandouts -->
<g id="node29" class="node">
<title>lcHandouts</title>
<path fill="#1afabc" stroke="black" d="M280.62,-554.23C280.62,-554.23 340.62,-554.23 340.62,-554.23 346.62,-554.23 352.62,-560.23 352.62,-566.23 352.62,-566.23 352.62,-578.23 352.62,-578.23 352.62,-584.23 346.62,-590.23 340.62,-590.23 340.62,-590.23 280.62,-590.23 280.62,-590.23 274.62,-590.23 268.62,-584.23 268.62,-578.23 268.62,-578.23 268.62,-566.23 268.62,-566.23 268.62,-560.23 274.62,-554.23 280.62,-554.23"/>
<text text-anchor="middle" x="310.62" y="-568.53" font-family="Arial" font-size="14.00">lcHandouts</text>
</g>
<!-- fig&#45;&gt;lcHandouts -->
<g id="edge28" class="edge">
<title>fig&#45;&gt;lcHandouts</title>
<path fill="none" stroke="#1f78b4" d="M365.07,-417.81C354.43,-447.97 333.04,-508.64 320.47,-544.3"/>
<polygon fill="#a6cee3" stroke="#1f78b4" points="317.05,-543.47 317.02,-554.07 323.65,-545.8 317.05,-543.47"/>
</g>
<!-- lcClassroom -->
<g id="node30" class="node">
<title>lcClassroom</title>
<path fill="#1afabc" stroke="black" d="M180.6,-568.71C180.6,-568.71 248.6,-568.71 248.6,-568.71 254.6,-568.71 260.6,-574.71 260.6,-580.71 260.6,-580.71 260.6,-592.71 260.6,-592.71 260.6,-598.71 254.6,-604.71 248.6,-604.71 248.6,-604.71 180.6,-604.71 180.6,-604.71 174.6,-604.71 168.6,-598.71 168.6,-592.71 168.6,-592.71 168.6,-580.71 168.6,-580.71 168.6,-574.71 174.6,-568.71 180.6,-568.71"/>
<text text-anchor="middle" x="214.6" y="-583.01" font-family="Arial" font-size="14.00">lcClassroom</text>
</g>
<!-- fig&#45;&gt;lcClassroom -->
<g id="edge29" class="edge">
<title>fig&#45;&gt;lcClassroom</title>
<path fill="none" stroke="#1f78b4" d="M356.14,-417.94C328.19,-451.27 268.84,-522.03 236.59,-560.49"/>
<polygon fill="#a6cee3" stroke="#1f78b4" points="233.5,-558.72 229.76,-568.63 238.87,-563.22 233.5,-558.72"/>
</g>
<!-- lcOJT -->
<g id="node31" class="node">
<title>lcOJT</title>
<path fill="#1afabc" stroke="black" d="M393.64,-271.76C393.64,-271.76 423.64,-271.76 423.64,-271.76 429.64,-271.76 435.64,-277.76 435.64,-283.76 435.64,-283.76 435.64,-295.76 435.64,-295.76 435.64,-301.76 429.64,-307.76 423.64,-307.76 423.64,-307.76 393.64,-307.76 393.64,-307.76 387.64,-307.76 381.64,-301.76 381.64,-295.76 381.64,-295.76 381.64,-283.76 381.64,-283.76 381.64,-277.76 387.64,-271.76 393.64,-271.76"/>
<text text-anchor="middle" x="408.64" y="-286.06" font-family="Arial" font-size="14.00">lcOJT</text>
</g>
<!-- fig&#45;&gt;lcOJT -->
<g id="edge30" class="edge">
<title>fig&#45;&gt;lcOJT</title>
<path fill="none" stroke="#1f78b4" d="M377.6,-381.52C383.5,-364.1 392.48,-337.55 399.27,-317.48"/>
<polygon fill="#a6cee3" stroke="#1f78b4" points="402.6,-318.53 402.49,-307.94 395.97,-316.29 402.6,-318.53"/>
</g>
<!-- lcConstraints -->
<g id="node32" class="node">
<title>lcConstraints</title>
<path fill="#1afabc" stroke="black" d="M346.95,-599.33C346.95,-599.33 417.95,-599.33 417.95,-599.33 423.95,-599.33 429.95,-605.33 429.95,-611.33 429.95,-611.33 429.95,-623.33 429.95,-623.33 429.95,-629.33 423.95,-635.33 417.95,-635.33 417.95,-635.33 346.95,-635.33 346.95,-635.33 340.95,-635.33 334.95,-629.33 334.95,-623.33 334.95,-623.33 334.95,-611.33 334.95,-611.33 334.95,-605.33 340.95,-599.33 346.95,-599.33"/>
<text text-anchor="middle" x="382.45" y="-613.63" font-family="Arial" font-size="14.00">lcConstraints</text>
</g>
<!-- fig&#45;&gt;lcConstraints -->
<g id="edge31" class="edge">
<title>fig&#45;&gt;lcConstraints</title>
<path fill="none" stroke="#1f78b4" d="M372.38,-417.85C374.3,-455.78 378.73,-543.58 381.02,-588.99"/>
<polygon fill="#a6cee3" stroke="#1f78b4" points="377.53,-589.24 381.53,-599.05 384.52,-588.88 377.53,-589.24"/>
</g>
<!-- lcW3C -->
<g id="node33" class="node">
<title>lcW3C</title>
<path fill="#1afabc" stroke="black" d="M510.08,-446.87C510.08,-446.87 543.08,-446.87 543.08,-446.87 549.08,-446.87 555.08,-452.87 555.08,-458.87 555.08,-458.87 555.08,-470.87 555.08,-470.87 555.08,-476.87 549.08,-482.87 543.08,-482.87 543.08,-482.87 510.08,-482.87 510.08,-482.87 504.08,-482.87 498.08,-476.87 498.08,-470.87 498.08,-470.87 498.08,-458.87 498.08,-458.87 498.08,-452.87 504.08,-446.87 510.08,-446.87"/>
<text text-anchor="middle" x="526.58" y="-461.17" font-family="Arial" font-size="14.00">lcW3C</text>
</g>
<!-- fig&#45;&gt;lcW3C -->
<g id="edge32" class="edge">
<title>fig&#45;&gt;lcW3C</title>
<path fill="none" stroke="#1f78b4" d="M398.48,-411.02C423.41,-421.5 460.66,-437.16 488.58,-448.89"/>
<polygon fill="#a6cee3" stroke="#1f78b4" points="487.45,-452.22 498.03,-452.87 490.17,-445.77 487.45,-452.22"/>
</g>
<!-- lcPlayers -->
<g id="node34" class="node">
<title>lcPlayers</title>
<path fill="#1afabc" stroke="black" d="M456.22,-311.78C456.22,-311.78 503.22,-311.78 503.22,-311.78 509.22,-311.78 515.22,-317.78 515.22,-323.78 515.22,-323.78 515.22,-335.78 515.22,-335.78 515.22,-341.78 509.22,-347.78 503.22,-347.78 503.22,-347.78 456.22,-347.78 456.22,-347.78 450.22,-347.78 444.22,-341.78 444.22,-335.78 444.22,-335.78 444.22,-323.78 444.22,-323.78 444.22,-317.78 450.22,-311.78 456.22,-311.78"/>
<text text-anchor="middle" x="479.72" y="-326.08" font-family="Arial" font-size="14.00">lcPlayers</text>
</g>
<!-- fig&#45;&gt;lcPlayers -->
<g id="edge33" class="edge">
<title>fig&#45;&gt;lcPlayers</title>
<path fill="none" stroke="#1f78b4" d="M398.5,-382.21C411.88,-373.58 428.24,-363.02 442.75,-353.65"/>
<polygon fill="#a6cee3" stroke="#1f78b4" points="445.01,-356.36 451.51,-347.99 441.21,-350.47 445.01,-356.36"/>
</g>
<!-- lcGraphics -->
<g id="node35" class="node">
<title>lcGraphics</title>
<path fill="#1afabc" stroke="black" d="M159.13,-295.93C159.13,-295.93 216.13,-295.93 216.13,-295.93 222.13,-295.93 228.13,-301.93 228.13,-307.93 228.13,-307.93 228.13,-319.93 228.13,-319.93 228.13,-325.93 222.13,-331.93 216.13,-331.93 216.13,-331.93 159.13,-331.93 159.13,-331.93 153.13,-331.93 147.13,-325.93 147.13,-319.93 147.13,-319.93 147.13,-307.93 147.13,-307.93 147.13,-301.93 153.13,-295.93 159.13,-295.93"/>
<text text-anchor="middle" x="187.63" y="-310.23" font-family="Arial" font-size="14.00">lcGraphics</text>
</g>
<!-- fig&#45;&gt;lcGraphics -->
<g id="edge34" class="edge">
<title>fig&#45;&gt;lcGraphics</title>
<path fill="none" stroke="#1f78b4" d="M344.34,-387.02C315.86,-373.73 270.48,-352.57 235.87,-336.43"/>
<polygon fill="#a6cee3" stroke="#1f78b4" points="236.96,-333.08 226.42,-332.02 234,-339.42 236.96,-333.08"/>
</g>
<!-- lcViewers -->
<g id="node36" class="node">
<title>lcViewers</title>
<path fill="#1afabc" stroke="black" d="M372.69,-519.48C372.69,-519.48 422.69,-519.48 422.69,-519.48 428.69,-519.48 434.69,-525.48 434.69,-531.48 434.69,-531.48 434.69,-543.48 434.69,-543.48 434.69,-549.48 428.69,-555.48 422.69,-555.48 422.69,-555.48 372.69,-555.48 372.69,-555.48 366.69,-555.48 360.69,-549.48 360.69,-543.48 360.69,-543.48 360.69,-531.48 360.69,-531.48 360.69,-525.48 366.69,-519.48 372.69,-519.48"/>
<text text-anchor="middle" x="397.69" y="-533.78" font-family="Arial" font-size="14.00">lcViewers</text>
</g>
<!-- fig&#45;&gt;lcViewers -->
<g id="edge35" class="edge">
<title>fig&#45;&gt;lcViewers</title>
<path fill="none" stroke="#1f78b4" d="M374.89,-417.68C379.33,-441 387.11,-481.88 392.33,-509.31"/>
<polygon fill="#a6cee3" stroke="#1f78b4" points="388.95,-510.29 394.26,-519.46 395.83,-508.98 388.95,-510.29"/>
</g>
<!-- lcResolution -->
<g id="node37" class="node">
<title>lcResolution</title>
<path fill="#1afabc" stroke="black" d="M60.62,-433.03C60.62,-433.03 126.62,-433.03 126.62,-433.03 132.62,-433.03 138.62,-439.03 138.62,-445.03 138.62,-445.03 138.62,-457.03 138.62,-457.03 138.62,-463.03 132.62,-469.03 126.62,-469.03 126.62,-469.03 60.62,-469.03 60.62,-469.03 54.62,-469.03 48.62,-463.03 48.62,-457.03 48.62,-457.03 48.62,-445.03 48.62,-445.03 48.62,-439.03 54.62,-433.03 60.62,-433.03"/>
<text text-anchor="middle" x="93.62" y="-447.33" font-family="Arial" font-size="14.00">lcResolution</text>
</g>
<!-- fig&#45;&gt;lcResolution -->
<g id="edge36" class="edge">
<title>fig&#45;&gt;lcResolution</title>
<path fill="none" stroke="#1f78b4" d="M344.32,-404.69C299.14,-413.04 207.66,-429.95 148.59,-440.87"/>
<polygon fill="#a6cee3" stroke="#1f78b4" points="147.87,-437.44 138.68,-442.7 149.14,-444.33 147.87,-437.44"/>
</g>
<!-- lcFileSizeLimitations -->
<g id="node38" class="node">
<title>lcFileSizeLimitations</title>
<path fill="#1afabc" stroke="black" d="M506.09,-518.86C506.09,-518.86 622.09,-518.86 622.09,-518.86 628.09,-518.86 634.09,-524.86 634.09,-530.86 634.09,-530.86 634.09,-542.86 634.09,-542.86 634.09,-548.86 628.09,-554.86 622.09,-554.86 622.09,-554.86 506.09,-554.86 506.09,-554.86 500.09,-554.86 494.09,-548.86 494.09,-542.86 494.09,-542.86 494.09,-530.86 494.09,-530.86 494.09,-524.86 500.09,-518.86 506.09,-518.86"/>
<text text-anchor="middle" x="564.09" y="-533.16" font-family="Arial" font-size="14.00">lcFileSizeLimitations</text>
</g>
<!-- fig&#45;&gt;lcFileSizeLimitations -->
<g id="edge37" class="edge">
<title>fig&#45;&gt;lcFileSizeLimitations</title>
<path fill="none" stroke="#1f78b4" d="M397.05,-417.89C431.39,-442.35 492.49,-485.86 530.51,-512.94"/>
<polygon fill="#a6cee3" stroke="#1f78b4" points="528.54,-515.84 538.72,-518.79 532.6,-510.14 528.54,-515.84"/>
</g>
<!-- lcDownloadTime -->
<g id="node39" class="node">
<title>lcDownloadTime</title>
<path fill="#1afabc" stroke="black" d="M12.18,-387.99C12.18,-387.99 105.18,-387.99 105.18,-387.99 111.18,-387.99 117.18,-393.99 117.18,-399.99 117.18,-399.99 117.18,-411.99 117.18,-411.99 117.18,-417.99 111.18,-423.99 105.18,-423.99 105.18,-423.99 12.18,-423.99 12.18,-423.99 6.18,-423.99 0.18,-417.99 0.18,-411.99 0.18,-411.99 0.18,-399.99 0.18,-399.99 0.18,-393.99 6.18,-387.99 12.18,-387.99"/>
<text text-anchor="middle" x="58.68" y="-402.29" font-family="Arial" font-size="14.00">lcDownloadTime</text>
</g>
<!-- fig&#45;&gt;lcDownloadTime -->
<g id="edge38" class="edge">
<title>fig&#45;&gt;lcDownloadTime</title>
<path fill="none" stroke="#1f78b4" d="M344.26,-400.22C296.33,-401.19 195.5,-403.23 127.42,-404.6"/>
<polygon fill="#a6cee3" stroke="#1f78b4" points="127.13,-401.11 117.2,-404.81 127.27,-408.11 127.13,-401.11"/>
</g>
<!-- lcSecurity -->
<g id="node40" class="node">
<title>lcSecurity</title>
<path fill="#1afabc" stroke="black" d="M248.2,-267.44C248.2,-267.44 299.2,-267.44 299.2,-267.44 305.2,-267.44 311.2,-273.44 311.2,-279.44 311.2,-279.44 311.2,-291.44 311.2,-291.44 311.2,-297.44 305.2,-303.44 299.2,-303.44 299.2,-303.44 248.2,-303.44 248.2,-303.44 242.2,-303.44 236.2,-297.44 236.2,-291.44 236.2,-291.44 236.2,-279.44 236.2,-279.44 236.2,-273.44 242.2,-267.44 248.2,-267.44"/>
<text text-anchor="middle" x="273.7" y="-281.74" font-family="Arial" font-size="14.00">lcSecurity</text>
</g>
<!-- fig&#45;&gt;lcSecurity -->
<g id="edge39" class="edge">
<title>fig&#45;&gt;lcSecurity</title>
<path fill="none" stroke="#1f78b4" d="M355.98,-381.57C339.74,-362.6 314.1,-332.64 295.76,-311.21"/>
<polygon fill="#a6cee3" stroke="#1f78b4" points="298.28,-308.78 289.12,-303.46 292.96,-313.33 298.28,-308.78"/>
</g>
<!-- lcGeneralDescription -->
<g id="node42" class="node">
<title>lcGeneralDescription</title>
<path fill="#1afabc" stroke="black" d="M866.16,-177.58C866.16,-177.58 985.16,-177.58 985.16,-177.58 991.16,-177.58 997.16,-183.58 997.16,-189.58 997.16,-189.58 997.16,-201.58 997.16,-201.58 997.16,-207.58 991.16,-213.58 985.16,-213.58 985.16,-213.58 866.16,-213.58 866.16,-213.58 860.16,-213.58 854.16,-207.58 854.16,-201.58 854.16,-201.58 854.16,-189.58 854.16,-189.58 854.16,-183.58 860.16,-177.58 866.16,-177.58"/>
<text text-anchor="middle" x="925.66" y="-191.88" font-family="Arial" font-size="14.00">lcGeneralDescription</text>
</g>
<!-- p&#45;&gt;lcGeneralDescription -->
<g id="edge41" class="edge">
<title>p&#45;&gt;lcGeneralDescription</title>
<path fill="none" stroke="#1f78b4" d="M731.76,-278.36C767.05,-263.29 829.49,-236.64 873.97,-217.65"/>
<polygon fill="#a6cee3" stroke="#1f78b4" points="875.36,-220.86 883.18,-213.72 872.61,-214.42 875.36,-220.86"/>
</g>
<!-- lcGoals -->
<g id="node43" class="node">
<title>lcGoals</title>
<path fill="#1afabc" stroke="black" d="M576.37,-205.04C576.37,-205.04 614.37,-205.04 614.37,-205.04 620.37,-205.04 626.37,-211.04 626.37,-217.04 626.37,-217.04 626.37,-229.04 626.37,-229.04 626.37,-235.04 620.37,-241.04 614.37,-241.04 614.37,-241.04 576.37,-241.04 576.37,-241.04 570.37,-241.04 564.37,-235.04 564.37,-229.04 564.37,-229.04 564.37,-217.04 564.37,-217.04 564.37,-211.04 570.37,-205.04 576.37,-205.04"/>
<text text-anchor="middle" x="595.37" y="-219.34" font-family="Arial" font-size="14.00">lcGoals</text>
</g>
<!-- p&#45;&gt;lcGoals -->
<g id="edge42" class="edge">
<title>p&#45;&gt;lcGoals</title>
<path fill="none" stroke="#1f78b4" d="M677.64,-273.4C664.45,-265.32 648.35,-255.46 633.89,-246.62"/>
<polygon fill="#a6cee3" stroke="#1f78b4" points="635.5,-243.5 625.15,-241.27 631.85,-249.47 635.5,-243.5"/>
</g>
<!-- lcNeeds -->
<g id="node44" class="node">
<title>lcNeeds</title>
<path fill="#1afabc" stroke="black" d="M654.3,-390.46C654.3,-390.46 695.3,-390.46 695.3,-390.46 701.3,-390.46 707.3,-396.46 707.3,-402.46 707.3,-402.46 707.3,-414.46 707.3,-414.46 707.3,-420.46 701.3,-426.46 695.3,-426.46 695.3,-426.46 654.3,-426.46 654.3,-426.46 648.3,-426.46 642.3,-420.46 642.3,-414.46 642.3,-414.46 642.3,-402.46 642.3,-402.46 642.3,-396.46 648.3,-390.46 654.3,-390.46"/>
<text text-anchor="middle" x="674.8" y="-404.76" font-family="Arial" font-size="14.00">lcNeeds</text>
</g>
<!-- p&#45;&gt;lcNeeds -->
<g id="edge43" class="edge">
<title>p&#45;&gt;lcNeeds</title>
<path fill="none" stroke="#1f78b4" d="M700.13,-307.93C695.28,-327.16 687.54,-357.91 681.89,-380.34"/>
<polygon fill="#a6cee3" stroke="#1f78b4" points="678.43,-379.74 679.38,-390.29 685.22,-381.45 678.43,-379.74"/>
</g>
<!-- lcValues -->
<g id="node45" class="node">
<title>lcValues</title>
<path fill="#1afabc" stroke="black" d="M572.71,-154.92C572.71,-154.92 615.71,-154.92 615.71,-154.92 621.71,-154.92 627.71,-160.92 627.71,-166.92 627.71,-166.92 627.71,-178.92 627.71,-178.92 627.71,-184.92 621.71,-190.92 615.71,-190.92 615.71,-190.92 572.71,-190.92 572.71,-190.92 566.71,-190.92 560.71,-184.92 560.71,-178.92 560.71,-178.92 560.71,-166.92 560.71,-166.92 560.71,-160.92 566.71,-154.92 572.71,-154.92"/>
<text text-anchor="middle" x="594.21" y="-169.22" font-family="Arial" font-size="14.00">lcValues</text>
</g>
<!-- p&#45;&gt;lcValues -->
<g id="edge44" class="edge">
<title>p&#45;&gt;lcValues</title>
<path fill="none" stroke="#1f78b4" d="M687.64,-271.9C669.13,-252.29 639.38,-220.77 618.44,-198.58"/>
<polygon fill="#a6cee3" stroke="#1f78b4" points="620.84,-196.03 611.43,-191.16 615.75,-200.83 620.84,-196.03"/>
</g>
<!-- lcOrgConstraints -->
<g id="node46" class="node">
<title>lcOrgConstraints</title>
<path fill="#1afabc" stroke="black" d="M872.27,-321.59C872.27,-321.59 966.27,-321.59 966.27,-321.59 972.27,-321.59 978.27,-327.59 978.27,-333.59 978.27,-333.59 978.27,-345.59 978.27,-345.59 978.27,-351.59 972.27,-357.59 966.27,-357.59 966.27,-357.59 872.27,-357.59 872.27,-357.59 866.27,-357.59 860.27,-351.59 860.27,-345.59 860.27,-345.59 860.27,-333.59 860.27,-333.59 860.27,-327.59 866.27,-321.59 872.27,-321.59"/>
<text text-anchor="middle" x="919.27" y="-335.89" font-family="Arial" font-size="14.00">lcOrgConstraints</text>
</g>
<!-- p&#45;&gt;lcOrgConstraints -->
<g id="edge45" class="edge">
<title>p&#45;&gt;lcOrgConstraints</title>
<path fill="none" stroke="#1f78b4" d="M731.84,-296.22C761.43,-303.07 809.91,-314.28 850.15,-323.6"/>
<polygon fill="#a6cee3" stroke="#1f78b4" points="849.39,-327.01 859.92,-325.86 850.97,-320.19 849.39,-327.01"/>
</g>
<!-- lcEdLevel -->
<g id="node47" class="node">
<title>lcEdLevel</title>
<path fill="#1afabc" stroke="black" d="M727.38,-406C727.38,-406 778.38,-406 778.38,-406 784.38,-406 790.38,-412 790.38,-418 790.38,-418 790.38,-430 790.38,-430 790.38,-436 784.38,-442 778.38,-442 778.38,-442 727.38,-442 727.38,-442 721.38,-442 715.38,-436 715.38,-430 715.38,-430 715.38,-418 715.38,-418 715.38,-412 721.38,-406 727.38,-406"/>
<text text-anchor="middle" x="752.88" y="-420.3" font-family="Arial" font-size="14.00">lcEdLevel</text>
</g>
<!-- p&#45;&gt;lcEdLevel -->
<g id="edge46" class="edge">
<title>p&#45;&gt;lcEdLevel</title>
<path fill="none" stroke="#1f78b4" d="M711.16,-308.01C719.32,-330.7 733.4,-369.84 742.92,-396.31"/>
<polygon fill="#a6cee3" stroke="#1f78b4" points="739.65,-397.55 746.33,-405.77 746.23,-395.18 739.65,-397.55"/>
</g>
<!-- lcAge -->
<g id="node48" class="node">
<title>lcAge</title>
<path fill="#1afabc" stroke="black" d="M791.68,-312.84C791.68,-312.84 821.68,-312.84 821.68,-312.84 827.68,-312.84 833.68,-318.84 833.68,-324.84 833.68,-324.84 833.68,-336.84 833.68,-336.84 833.68,-342.84 827.68,-348.84 821.68,-348.84 821.68,-348.84 791.68,-348.84 791.68,-348.84 785.68,-348.84 779.68,-342.84 779.68,-336.84 779.68,-336.84 779.68,-324.84 779.68,-324.84 779.68,-318.84 785.68,-312.84 791.68,-312.84"/>
<text text-anchor="middle" x="806.68" y="-327.14" font-family="Arial" font-size="14.00">lcAge</text>
</g>
<!-- p&#45;&gt;lcAge -->
<g id="edge47" class="edge">
<title>p&#45;&gt;lcAge</title>
<path fill="none" stroke="#1f78b4" d="M731.73,-300.79C743.49,-305.5 757.45,-311.1 770.11,-316.18"/>
<polygon fill="#a6cee3" stroke="#1f78b4" points="768.9,-319.46 779.48,-319.93 771.5,-312.96 768.9,-319.46"/>
</g>
<!-- lcBackground -->
<g id="node49" class="node">
<title>lcBackground</title>
<path fill="#1afabc" stroke="black" d="M879.68,-222.66C879.68,-222.66 953.68,-222.66 953.68,-222.66 959.68,-222.66 965.68,-228.66 965.68,-234.66 965.68,-234.66 965.68,-246.66 965.68,-246.66 965.68,-252.66 959.68,-258.66 953.68,-258.66 953.68,-258.66 879.68,-258.66 879.68,-258.66 873.68,-258.66 867.68,-252.66 867.68,-246.66 867.68,-246.66 867.68,-234.66 867.68,-234.66 867.68,-228.66 873.68,-222.66 879.68,-222.66"/>
<text text-anchor="middle" x="916.68" y="-236.96" font-family="Arial" font-size="14.00">lcBackground</text>
</g>
<!-- p&#45;&gt;lcBackground -->
<g id="edge48" class="edge">
<title>p&#45;&gt;lcBackground</title>
<path fill="none" stroke="#1f78b4" d="M731.94,-283.59C763.56,-276.24 816.58,-263.92 857.73,-254.36"/>
<polygon fill="#a6cee3" stroke="#1f78b4" points="858.7,-257.73 867.65,-252.05 857.11,-250.91 858.7,-257.73"/>
</g>
<!-- lcSkills -->
<g id="node50" class="node">
<title>lcSkills</title>
<path fill="#1afabc" stroke="black" d="M659.94,-165.81C659.94,-165.81 693.94,-165.81 693.94,-165.81 699.94,-165.81 705.94,-171.81 705.94,-177.81 705.94,-177.81 705.94,-189.81 705.94,-189.81 705.94,-195.81 699.94,-201.81 693.94,-201.81 693.94,-201.81 659.94,-201.81 659.94,-201.81 653.94,-201.81 647.94,-195.81 647.94,-189.81 647.94,-189.81 647.94,-177.81 647.94,-177.81 647.94,-171.81 653.94,-165.81 659.94,-165.81"/>
<text text-anchor="middle" x="676.94" y="-180.11" font-family="Arial" font-size="14.00">lcSkills</text>
</g>
<!-- p&#45;&gt;lcSkills -->
<g id="edge49" class="edge">
<title>p&#45;&gt;lcSkills</title>
<path fill="none" stroke="#1f78b4" d="M699.96,-271.93C695.65,-255.46 689.22,-230.85 684.25,-211.81"/>
<polygon fill="#a6cee3" stroke="#1f78b4" points="687.58,-210.69 681.66,-201.9 680.8,-212.46 687.58,-210.69"/>
</g>
<!-- lcKnowledge -->
<g id="node51" class="node">
<title>lcKnowledge</title>
<path fill="#1afabc" stroke="black" d="M553.25,-384.56C553.25,-384.56 622.25,-384.56 622.25,-384.56 628.25,-384.56 634.25,-390.56 634.25,-396.56 634.25,-396.56 634.25,-408.56 634.25,-408.56 634.25,-414.56 628.25,-420.56 622.25,-420.56 622.25,-420.56 553.25,-420.56 553.25,-420.56 547.25,-420.56 541.25,-414.56 541.25,-408.56 541.25,-408.56 541.25,-396.56 541.25,-396.56 541.25,-390.56 547.25,-384.56 553.25,-384.56"/>
<text text-anchor="middle" x="587.75" y="-398.86" font-family="Arial" font-size="14.00">lcKnowledge</text>
</g>
<!-- p&#45;&gt;lcKnowledge -->
<g id="edge50" class="edge">
<title>p&#45;&gt;lcKnowledge</title>
<path fill="none" stroke="#1f78b4" d="M685.88,-308.02C666.36,-326.83 635.68,-356.39 613.82,-377.45"/>
<polygon fill="#a6cee3" stroke="#1f78b4" points="611.26,-375.05 606.49,-384.51 616.12,-380.09 611.26,-375.05"/>
</g>
<!-- lcMotivation -->
<g id="node52" class="node">
<title>lcMotivation</title>
<path fill="#1afabc" stroke="black" d="M792.07,-267.81C792.07,-267.81 857.07,-267.81 857.07,-267.81 863.07,-267.81 869.07,-273.81 869.07,-279.81 869.07,-279.81 869.07,-291.81 869.07,-291.81 869.07,-297.81 863.07,-303.81 857.07,-303.81 857.07,-303.81 792.07,-303.81 792.07,-303.81 786.07,-303.81 780.07,-297.81 780.07,-291.81 780.07,-291.81 780.07,-279.81 780.07,-279.81 780.07,-273.81 786.07,-267.81 792.07,-267.81"/>
<text text-anchor="middle" x="824.57" y="-282.11" font-family="Arial" font-size="14.00">lcMotivation</text>
</g>
<!-- p&#45;&gt;lcMotivation -->
<g id="edge51" class="edge">
<title>p&#45;&gt;lcMotivation</title>
<path fill="none" stroke="#1f78b4" d="M731.87,-288.99C743.21,-288.6 756.81,-288.14 770.05,-287.68"/>
<polygon fill="#a6cee3" stroke="#1f78b4" points="770.19,-291.18 780.07,-287.34 769.95,-284.18 770.19,-291.18"/>
</g>
<!-- lcSpecChars -->
<g id="node53" class="node">
<title>lcSpecChars</title>
<path fill="#1afabc" stroke="black" d="M576.26,-310.19C576.26,-310.19 645.26,-310.19 645.26,-310.19 651.26,-310.19 657.26,-316.19 657.26,-322.19 657.26,-322.19 657.26,-334.19 657.26,-334.19 657.26,-340.19 651.26,-346.19 645.26,-346.19 645.26,-346.19 576.26,-346.19 576.26,-346.19 570.26,-346.19 564.26,-340.19 564.26,-334.19 564.26,-334.19 564.26,-322.19 564.26,-322.19 564.26,-316.19 570.26,-310.19 576.26,-310.19"/>
<text text-anchor="middle" x="610.76" y="-324.49" font-family="Arial" font-size="14.00">lcSpecChars</text>
</g>
<!-- p&#45;&gt;lcSpecChars -->
<g id="edge52" class="edge">
<title>p&#45;&gt;lcSpecChars</title>
<path fill="none" stroke="#1f78b4" d="M677.5,-300.99C673.32,-302.7 668.88,-304.51 664.36,-306.35"/>
<polygon fill="#a6cee3" stroke="#1f78b4" points="662.96,-303.14 655.02,-310.15 665.6,-309.62 662.96,-303.14"/>
</g>
<!-- lcWorkEnvDescription -->
<g id="node54" class="node">
<title>lcWorkEnvDescription</title>
<path fill="#1afabc" stroke="black" d="M896.42,-267.84C896.42,-267.84 1021.42,-267.84 1021.42,-267.84 1027.42,-267.84 1033.42,-273.84 1033.42,-279.84 1033.42,-279.84 1033.42,-291.84 1033.42,-291.84 1033.42,-297.84 1027.42,-303.84 1021.42,-303.84 1021.42,-303.84 896.42,-303.84 896.42,-303.84 890.42,-303.84 884.42,-297.84 884.42,-291.84 884.42,-291.84 884.42,-279.84 884.42,-279.84 884.42,-273.84 890.42,-267.84 896.42,-267.84"/>
<text text-anchor="middle" x="958.92" y="-282.14" font-family="Arial" font-size="14.00">lcWorkEnvDescription</text>
</g>
<!-- p&#45;&gt;lcWorkEnvDescription -->
<g id="edge53" class="edge">
<title>p&#45;&gt;lcWorkEnvDescription</title>
<path fill="none" stroke="#1f78b4" d="M731.87,-289.49C765.61,-288.95 824.71,-288 874.16,-287.2"/>
<polygon fill="#a6cee3" stroke="#1f78b4" points="874.28,-290.7 884.23,-287.04 874.17,-283.7 874.28,-290.7"/>
</g>
<!-- lcPlanResources -->
<g id="node55" class="node">
<title>lcPlanResources</title>
<path fill="#1afabc" stroke="black" d="M810.47,-413.18C810.47,-413.18 904.47,-413.18 904.47,-413.18 910.47,-413.18 916.47,-419.18 916.47,-425.18 916.47,-425.18 916.47,-437.18 916.47,-437.18 916.47,-443.18 910.47,-449.18 904.47,-449.18 904.47,-449.18 810.47,-449.18 810.47,-449.18 804.47,-449.18 798.47,-443.18 798.47,-437.18 798.47,-437.18 798.47,-425.18 798.47,-425.18 798.47,-419.18 804.47,-413.18 810.47,-413.18"/>
<text text-anchor="middle" x="857.47" y="-427.48" font-family="Arial" font-size="14.00">lcPlanResources</text>
</g>
<!-- p&#45;&gt;lcPlanResources -->
<g id="edge54" class="edge">
<title>p&#45;&gt;lcPlanResources</title>
<path fill="none" stroke="#1f78b4" d="M724.32,-308.11C751.26,-333 799.75,-377.82 830.18,-405.96"/>
<polygon fill="#a6cee3" stroke="#1f78b4" points="828.16,-408.85 837.88,-413.07 832.91,-403.71 828.16,-408.85"/>
</g>
<!-- lcProcesses -->
<g id="node56" class="node">
<title>lcProcesses</title>
<path fill="#1afabc" stroke="black" d="M624.99,-109.76C624.99,-109.76 689.99,-109.76 689.99,-109.76 695.99,-109.76 701.99,-115.76 701.99,-121.76 701.99,-121.76 701.99,-133.76 701.99,-133.76 701.99,-139.76 695.99,-145.76 689.99,-145.76 689.99,-145.76 624.99,-145.76 624.99,-145.76 618.99,-145.76 612.99,-139.76 612.99,-133.76 612.99,-133.76 612.99,-121.76 612.99,-121.76 612.99,-115.76 618.99,-109.76 624.99,-109.76"/>
<text text-anchor="middle" x="657.49" y="-124.06" font-family="Arial" font-size="14.00">lcProcesses</text>
</g>
<!-- p&#45;&gt;lcProcesses -->
<g id="edge55" class="edge">
<title>p&#45;&gt;lcProcesses</title>
<path fill="none" stroke="#1f78b4" d="M699.34,-271.64C691.17,-243.54 675.45,-189.5 665.78,-156.24"/>
<polygon fill="#a6cee3" stroke="#1f78b4" points="669.02,-154.85 662.87,-146.23 662.3,-156.81 669.02,-154.85"/>
</g>
<!-- lcTaskItem -->
<g id="node57" class="node">
<title>lcTaskItem</title>
<path fill="#1afabc" stroke="black" d="M722.02,-118.68C722.02,-118.68 779.02,-118.68 779.02,-118.68 785.02,-118.68 791.02,-124.68 791.02,-130.68 791.02,-130.68 791.02,-142.68 791.02,-142.68 791.02,-148.68 785.02,-154.68 779.02,-154.68 779.02,-154.68 722.02,-154.68 722.02,-154.68 716.02,-154.68 710.02,-148.68 710.02,-142.68 710.02,-142.68 710.02,-130.68 710.02,-130.68 710.02,-124.68 716.02,-118.68 722.02,-118.68"/>
<text text-anchor="middle" x="750.52" y="-132.98" font-family="Arial" font-size="14.00">lcTaskItem</text>
</g>
<!-- p&#45;&gt;lcTaskItem -->
<g id="edge56" class="edge">
<title>p&#45;&gt;lcTaskItem</title>
<path fill="none" stroke="#1f78b4" d="M710.1,-271.75C718.03,-245.25 732.83,-195.79 742.15,-164.64"/>
<polygon fill="#a6cee3" stroke="#1f78b4" points="745.57,-165.43 745.08,-154.84 738.86,-163.42 745.57,-165.43"/>
</g>
<!-- lcAttitude -->
<g id="node58" class="node">
<title>lcAttitude</title>
<path fill="#1afabc" stroke="black" d="M728,-165.11C728,-165.11 776,-165.11 776,-165.11 782,-165.11 788,-171.11 788,-177.11 788,-177.11 788,-189.11 788,-189.11 788,-195.11 782,-201.11 776,-201.11 776,-201.11 728,-201.11 728,-201.11 722,-201.11 716,-195.11 716,-189.11 716,-189.11 716,-177.11 716,-177.11 716,-171.11 722,-165.11 728,-165.11"/>
<text text-anchor="middle" x="752" y="-179.41" font-family="Arial" font-size="14.00">lcAttitude</text>
</g>
<!-- p&#45;&gt;lcAttitude -->
<g id="edge57" class="edge">
<title>p&#45;&gt;lcAttitude</title>
<path fill="none" stroke="#1f78b4" d="M712.69,-271.81C720.14,-255.01 731.32,-229.77 739.86,-210.5"/>
<polygon fill="#a6cee3" stroke="#1f78b4" points="743.08,-211.88 743.93,-201.32 736.68,-209.05 743.08,-211.88"/>
</g>
<!-- lcPlanObjective -->
<g id="node59" class="node">
<title>lcPlanObjective</title>
<path fill="#1afabc" stroke="black" d="M684.64,-453.94C684.64,-453.94 770.64,-453.94 770.64,-453.94 776.64,-453.94 782.64,-459.94 782.64,-465.94 782.64,-465.94 782.64,-477.94 782.64,-477.94 782.64,-483.94 776.64,-489.94 770.64,-489.94 770.64,-489.94 684.64,-489.94 684.64,-489.94 678.64,-489.94 672.64,-483.94 672.64,-477.94 672.64,-477.94 672.64,-465.94 672.64,-465.94 672.64,-459.94 678.64,-453.94 684.64,-453.94"/>
<text text-anchor="middle" x="727.64" y="-468.24" font-family="Arial" font-size="14.00">lcPlanObjective</text>
</g>
<!-- p&#45;&gt;lcPlanObjective -->
<g id="edge58" class="edge">
<title>p&#45;&gt;lcPlanObjective</title>
<path fill="none" stroke="#1f78b4" d="M706.95,-308.05C710.96,-339.8 719.28,-405.72 724.06,-443.57"/>
<polygon fill="#a6cee3" stroke="#1f78b4" points="720.64,-444.41 725.36,-453.9 727.58,-443.54 720.64,-444.41"/>
</g>
<!-- lcJtaItem -->
<g id="node60" class="node">
<title>lcJtaItem</title>
<path fill="#1afabc" stroke="black" d="M760.37,-357.88C760.37,-357.88 807.37,-357.88 807.37,-357.88 813.37,-357.88 819.37,-363.88 819.37,-369.88 819.37,-369.88 819.37,-381.88 819.37,-381.88 819.37,-387.88 813.37,-393.88 807.37,-393.88 807.37,-393.88 760.37,-393.88 760.37,-393.88 754.37,-393.88 748.37,-387.88 748.37,-381.88 748.37,-381.88 748.37,-369.88 748.37,-369.88 748.37,-363.88 754.37,-357.88 760.37,-357.88"/>
<text text-anchor="middle" x="783.87" y="-372.18" font-family="Arial" font-size="14.00">lcJtaItem</text>
</g>
<!-- p&#45;&gt;lcJtaItem -->
<g id="edge59" class="edge">
<title>p&#45;&gt;lcJtaItem</title>
<path fill="none" stroke="#1f78b4" d="M721.46,-308.16C732.69,-320.35 747.65,-336.57 760.1,-350.09"/>
<polygon fill="#a6cee3" stroke="#1f78b4" points="757.74,-352.69 767.09,-357.68 762.89,-347.95 757.74,-352.69"/>
</g>
<!-- lcGapItemDelta -->
<g id="node61" class="node">
<title>lcGapItemDelta</title>
<path fill="#1afabc" stroke="black" d="M811.04,-132.54C811.04,-132.54 898.04,-132.54 898.04,-132.54 904.04,-132.54 910.04,-138.54 910.04,-144.54 910.04,-144.54 910.04,-156.54 910.04,-156.54 910.04,-162.54 904.04,-168.54 898.04,-168.54 898.04,-168.54 811.04,-168.54 811.04,-168.54 805.04,-168.54 799.04,-162.54 799.04,-156.54 799.04,-156.54 799.04,-144.54 799.04,-144.54 799.04,-138.54 805.04,-132.54 811.04,-132.54"/>
<text text-anchor="middle" x="854.54" y="-146.84" font-family="Arial" font-size="14.00">lcGapItemDelta</text>
</g>
<!-- p&#45;&gt;lcGapItemDelta -->
<g id="edge60" class="edge">
<title>p&#45;&gt;lcGapItemDelta</title>
<path fill="none" stroke="#1f78b4" d="M724.25,-271.71C750.62,-247.18 797.65,-203.45 827.41,-175.78"/>
<polygon fill="#a6cee3" stroke="#1f78b4" points="830,-178.14 834.94,-168.77 825.24,-173.02 830,-178.14"/>
</g>
<!-- lcLearnStrat -->
<g id="node62" class="node">
<title>lcLearnStrat</title>
<path fill="#1afabc" stroke="black" d="M769.07,-212.01C769.07,-212.01 834.07,-212.01 834.07,-212.01 840.07,-212.01 846.07,-218.01 846.07,-224.01 846.07,-224.01 846.07,-236.01 846.07,-236.01 846.07,-242.01 840.07,-248.01 834.07,-248.01 834.07,-248.01 769.07,-248.01 769.07,-248.01 763.07,-248.01 757.07,-242.01 757.07,-236.01 757.07,-236.01 757.07,-224.01 757.07,-224.01 757.07,-218.01 763.07,-212.01 769.07,-212.01"/>
<text text-anchor="middle" x="801.57" y="-226.31" font-family="Arial" font-size="14.00">lcLearnStrat</text>
</g>
<!-- p&#45;&gt;lcLearnStrat -->
<g id="edge61" class="edge">
<title>p&#45;&gt;lcLearnStrat</title>
<path fill="none" stroke="#1f78b4" d="M731.91,-273.08C741.71,-267.02 752.95,-260.07 763.5,-253.55"/>
<polygon fill="#a6cee3" stroke="#1f78b4" points="765.48,-256.44 772.15,-248.2 761.8,-250.48 765.48,-256.44"/>
</g>
<!-- lcAssessment -->
<g id="node63" class="node">
<title>lcAssessment</title>
<path fill="#1afabc" stroke="black" d="M841.11,-366.86C841.11,-366.86 918.11,-366.86 918.11,-366.86 924.11,-366.86 930.11,-372.86 930.11,-378.86 930.11,-378.86 930.11,-390.86 930.11,-390.86 930.11,-396.86 924.11,-402.86 918.11,-402.86 918.11,-402.86 841.11,-402.86 841.11,-402.86 835.11,-402.86 829.11,-396.86 829.11,-390.86 829.11,-390.86 829.11,-378.86 829.11,-378.86 829.11,-372.86 835.11,-366.86 841.11,-366.86"/>
<text text-anchor="middle" x="879.61" y="-381.16" font-family="Arial" font-size="14.00">lcAssessment</text>
</g>
<!-- p&#45;&gt;lcAssessment -->
<g id="edge62" class="edge">
<title>p&#45;&gt;lcAssessment</title>
<path fill="none" stroke="#1f78b4" d="M732,-304.76C760.19,-320.06 804.55,-344.13 837.29,-361.89"/>
<polygon fill="#a6cee3" stroke="#1f78b4" points="835.73,-365.03 846.19,-366.72 839.07,-358.88 835.73,-365.03"/>
</g>
<!-- lcDelivery -->
<g id="node64" class="node">
<title>lcDelivery</title>
<path fill="#1afabc" stroke="black" d="M575.09,-435.5C575.09,-435.5 626.09,-435.5 626.09,-435.5 632.09,-435.5 638.09,-441.5 638.09,-447.5 638.09,-447.5 638.09,-459.5 638.09,-459.5 638.09,-465.5 632.09,-471.5 626.09,-471.5 626.09,-471.5 575.09,-471.5 575.09,-471.5 569.09,-471.5 563.09,-465.5 563.09,-459.5 563.09,-459.5 563.09,-447.5 563.09,-447.5 563.09,-441.5 569.09,-435.5 575.09,-435.5"/>
<text text-anchor="middle" x="600.59" y="-449.8" font-family="Arial" font-size="14.00">lcDelivery</text>
</g>
<!-- p&#45;&gt;lcDelivery -->
<g id="edge63" class="edge">
<title>p&#45;&gt;lcDelivery</title>
<path fill="none" stroke="#1f78b4" d="M693.12,-308.06C674.84,-336.8 639.09,-392.98 617.78,-426.49"/>
<polygon fill="#a6cee3" stroke="#1f78b4" points="614.59,-424.97 612.17,-435.29 620.49,-428.73 614.59,-424.97"/>
</g>
</g>
</svg>
