<?xml version="1.0" encoding="UTF-8" standalone="no"?>
<!DOCTYPE svg PUBLIC "-//W3C//DTD SVG 1.1//EN"
 "http://www.w3.org/Graphics/SVG/1.1/DTD/svg11.dtd">
<!-- Generated by graphviz version 6.0.1 (20220911.1526)
 -->
<!-- Pages: 1 -->
<svg width="790pt" height="603pt"
 viewBox="0.00 0.00 790.00 603.00" xmlns="http://www.w3.org/2000/svg" xmlns:xlink="http://www.w3.org/1999/xlink">
<g id="graph0" class="graph" transform="scale(1 1) rotate(0) translate(4 599)">
<polygon fill="white" stroke="none" points="-4,4 -4,-599 786,-599 786,4 -4,4"/>
<!-- domains -->
<g id="node1" class="node">
<title>domains</title>
<path fill="#afa7f4" stroke="black" d="M277.01,-276.62C277.01,-276.62 363.01,-276.62 363.01,-276.62 369.01,-276.62 375.01,-282.62 375.01,-288.62 375.01,-288.62 375.01,-300.62 375.01,-300.62 375.01,-306.62 369.01,-312.62 363.01,-312.62 363.01,-312.62 277.01,-312.62 277.01,-312.62 271.01,-312.62 265.01,-306.62 265.01,-300.62 265.01,-300.62 265.01,-288.62 265.01,-288.62 265.01,-282.62 271.01,-276.62 277.01,-276.62"/>
<text text-anchor="middle" x="304.01" y="-290.92" font-family="Arial" font-size="14.00">Domanins</text>
<polyline fill="none" stroke="black" points="343.01,-276.62 343.01,-312.62"/>
<text text-anchor="middle" x="359.01" y="-290.92" font-family="Arial" font-size="14.00">27</text>
</g>
<!-- learningInteractionBase2&#45;d -->
<g id="node2" class="node">
<title>learningInteractionBase2&#45;d</title>
<path fill="#1afabc" stroke="black" d="M615.76,-287.69C615.76,-287.69 769.76,-287.69 769.76,-287.69 775.76,-287.69 781.76,-293.69 781.76,-299.69 781.76,-299.69 781.76,-311.69 781.76,-311.69 781.76,-317.69 775.76,-323.69 769.76,-323.69 769.76,-323.69 615.76,-323.69 615.76,-323.69 609.76,-323.69 603.76,-317.69 603.76,-311.69 603.76,-311.69 603.76,-299.69 603.76,-299.69 603.76,-293.69 609.76,-287.69 615.76,-287.69"/>
<text text-anchor="middle" x="692.76" y="-301.99" font-family="Arial" font-size="14.00">learningInteractionBase2&#45;d</text>
</g>
<!-- domains&#45;&gt;learningInteractionBase2&#45;d -->
<g id="edge1" class="edge">
<title>domains&#45;&gt;learningInteractionBase2&#45;d</title>
<path fill="none" stroke="#1f78b4" d="M375.42,-296.27C432.82,-297.97 523.76,-300.67 593.6,-302.74"/>
<polygon fill="#a6cee3" stroke="#1f78b4" points="593.64,-306.25 603.74,-303.04 593.85,-299.25 593.64,-306.25"/>
</g>
<!-- learningmap&#45;d -->
<g id="node3" class="node">
<title>learningmap&#45;d</title>
<path fill="#1afabc" stroke="black" d="M51.07,-73.55C51.07,-73.55 131.07,-73.55 131.07,-73.55 137.07,-73.55 143.07,-79.55 143.07,-85.55 143.07,-85.55 143.07,-97.55 143.07,-97.55 143.07,-103.55 137.07,-109.55 131.07,-109.55 131.07,-109.55 51.07,-109.55 51.07,-109.55 45.07,-109.55 39.07,-103.55 39.07,-97.55 39.07,-97.55 39.07,-85.55 39.07,-85.55 39.07,-79.55 45.07,-73.55 51.07,-73.55"/>
<text text-anchor="middle" x="91.07" y="-87.85" font-family="Arial" font-size="14.00">learningmap&#45;d</text>
</g>
<!-- domains&#45;&gt;learningmap&#45;d -->
<g id="edge2" class="edge">
<title>domains&#45;&gt;learningmap&#45;d</title>
<path fill="none" stroke="#1f78b4" d="M299.7,-276.6C258.73,-240.27 166.14,-158.14 119.32,-116.61"/>
<polygon fill="#a6cee3" stroke="#1f78b4" points="121.47,-113.84 111.67,-109.82 116.83,-119.08 121.47,-113.84"/>
</g>
<!-- learningInteractionBase&#45;d -->
<g id="node4" class="node">
<title>learningInteractionBase&#45;d</title>
<path fill="#1afabc" stroke="black" d="M274.52,-504.03C274.52,-504.03 420.52,-504.03 420.52,-504.03 426.52,-504.03 432.52,-510.03 432.52,-516.03 432.52,-516.03 432.52,-528.03 432.52,-528.03 432.52,-534.03 426.52,-540.03 420.52,-540.03 420.52,-540.03 274.52,-540.03 274.52,-540.03 268.52,-540.03 262.52,-534.03 262.52,-528.03 262.52,-528.03 262.52,-516.03 262.52,-516.03 262.52,-510.03 268.52,-504.03 274.52,-504.03"/>
<text text-anchor="middle" x="347.52" y="-518.33" font-family="Arial" font-size="14.00">learningInteractionBase&#45;d</text>
</g>
<!-- domains&#45;&gt;learningInteractionBase&#45;d -->
<g id="edge3" class="edge">
<title>domains&#45;&gt;learningInteractionBase&#45;d</title>
<path fill="none" stroke="#1f78b4" d="M322.22,-312.85C327,-352.35 338.34,-446.12 344.07,-493.53"/>
<polygon fill="#a6cee3" stroke="#1f78b4" points="340.63,-494.21 345.31,-503.72 347.58,-493.37 340.63,-494.21"/>
</g>
<!-- learningmeta&#45;d -->
<g id="node5" class="node">
<title>learningmeta&#45;d</title>
<path fill="#1afabc" stroke="black" d="M411.51,-558.19C411.51,-558.19 494.51,-558.19 494.51,-558.19 500.51,-558.19 506.51,-564.19 506.51,-570.19 506.51,-570.19 506.51,-582.19 506.51,-582.19 506.51,-588.19 500.51,-594.19 494.51,-594.19 494.51,-594.19 411.51,-594.19 411.51,-594.19 405.51,-594.19 399.51,-588.19 399.51,-582.19 399.51,-582.19 399.51,-570.19 399.51,-570.19 399.51,-564.19 405.51,-558.19 411.51,-558.19"/>
<text text-anchor="middle" x="453.01" y="-572.49" font-family="Arial" font-size="14.00">learningmeta&#45;d</text>
</g>
<!-- domains&#45;&gt;learningmeta&#45;d -->
<g id="edge4" class="edge">
<title>domains&#45;&gt;learningmeta&#45;d</title>
<path fill="none" stroke="#1f78b4" d="M328.54,-312.67C351.19,-360.63 413.02,-491.51 440.06,-548.76"/>
<polygon fill="#a6cee3" stroke="#1f78b4" points="436.95,-550.38 444.39,-557.93 443.28,-547.39 436.95,-550.38"/>
</g>
<!-- learning&#45;d -->
<g id="node6" class="node">
<title>learning&#45;d</title>
<path fill="#1afabc" stroke="black" d="M11.58,-365.24C11.58,-365.24 64.58,-365.24 64.58,-365.24 70.58,-365.24 76.58,-371.24 76.58,-377.24 76.58,-377.24 76.58,-389.24 76.58,-389.24 76.58,-395.24 70.58,-401.24 64.58,-401.24 64.58,-401.24 11.58,-401.24 11.58,-401.24 5.58,-401.24 -0.42,-395.24 -0.42,-389.24 -0.42,-389.24 -0.42,-377.24 -0.42,-377.24 -0.42,-371.24 5.58,-365.24 11.58,-365.24"/>
<text text-anchor="middle" x="38.08" y="-379.54" font-family="Arial" font-size="14.00">learning&#45;d</text>
</g>
<!-- domains&#45;&gt;learning&#45;d -->
<g id="edge5" class="edge">
<title>domains&#45;&gt;learning&#45;d</title>
<path fill="none" stroke="#1f78b4" d="M264.98,-311.92C213.11,-328.23 136.13,-352.42 86.53,-368.01"/>
<polygon fill="#a6cee3" stroke="#1f78b4" points="85.17,-364.77 76.68,-371.11 87.27,-371.45 85.17,-364.77"/>
</g>
<!-- learning2&#45;d -->
<g id="node7" class="node">
<title>learning2&#45;d</title>
<path fill="#1afabc" stroke="black" d="M22.14,-169.8C22.14,-169.8 82.14,-169.8 82.14,-169.8 88.14,-169.8 94.14,-175.8 94.14,-181.8 94.14,-181.8 94.14,-193.8 94.14,-193.8 94.14,-199.8 88.14,-205.8 82.14,-205.8 82.14,-205.8 22.14,-205.8 22.14,-205.8 16.14,-205.8 10.14,-199.8 10.14,-193.8 10.14,-193.8 10.14,-181.8 10.14,-181.8 10.14,-175.8 16.14,-169.8 22.14,-169.8"/>
<text text-anchor="middle" x="52.14" y="-184.1" font-family="Arial" font-size="14.00">learning2&#45;d</text>
</g>
<!-- domains&#45;&gt;learning2&#45;d -->
<g id="edge6" class="edge">
<title>domains&#45;&gt;learning2&#45;d</title>
<path fill="none" stroke="#1f78b4" d="M274.88,-276.62C227.63,-257.78 153.55,-228.24 103.95,-208.46"/>
<polygon fill="#a6cee3" stroke="#1f78b4" points="104.95,-205.09 94.37,-204.64 102.36,-211.59 104.95,-205.09"/>
</g>
<!-- abbrev&#45;d -->
<g id="node8" class="node">
<title>abbrev&#45;d</title>
<path fill="#1afabc" stroke="black" d="M513.99,-323.93C513.99,-323.93 559.99,-323.93 559.99,-323.93 565.99,-323.93 571.99,-329.93 571.99,-335.93 571.99,-335.93 571.99,-347.93 571.99,-347.93 571.99,-353.93 565.99,-359.93 559.99,-359.93 559.99,-359.93 513.99,-359.93 513.99,-359.93 507.99,-359.93 501.99,-353.93 501.99,-347.93 501.99,-347.93 501.99,-335.93 501.99,-335.93 501.99,-329.93 507.99,-323.93 513.99,-323.93"/>
<text text-anchor="middle" x="536.99" y="-338.23" font-family="Arial" font-size="14.00">abbrev&#45;d</text>
</g>
<!-- domains&#45;&gt;abbrev&#45;d -->
<g id="edge7" class="edge">
<title>domains&#45;&gt;abbrev&#45;d</title>
<path fill="none" stroke="#1f78b4" d="M375.05,-306.62C411.11,-314.49 457.69,-324.64 491.63,-332.04"/>
<polygon fill="#a6cee3" stroke="#1f78b4" points="491.21,-335.53 501.73,-334.24 492.71,-328.69 491.21,-335.53"/>
</g>
<!-- markup&#45;d -->
<g id="node9" class="node">
<title>markup&#45;d</title>
<path fill="#1afabc" stroke="black" d="M14.33,-258.35C14.33,-258.35 64.33,-258.35 64.33,-258.35 70.33,-258.35 76.33,-264.35 76.33,-270.35 76.33,-270.35 76.33,-282.35 76.33,-282.35 76.33,-288.35 70.33,-294.35 64.33,-294.35 64.33,-294.35 14.33,-294.35 14.33,-294.35 8.33,-294.35 2.33,-288.35 2.33,-282.35 2.33,-282.35 2.33,-270.35 2.33,-270.35 2.33,-264.35 8.33,-258.35 14.33,-258.35"/>
<text text-anchor="middle" x="39.33" y="-272.65" font-family="Arial" font-size="14.00">markup&#45;d</text>
</g>
<!-- domains&#45;&gt;markup&#45;d -->
<g id="edge8" class="edge">
<title>domains&#45;&gt;markup&#45;d</title>
<path fill="none" stroke="#1f78b4" d="M264.9,-291.04C212.88,-287.65 135.72,-282.63 86.48,-279.42"/>
<polygon fill="#a6cee3" stroke="#1f78b4" points="86.63,-275.92 76.42,-278.77 86.17,-282.91 86.63,-275.92"/>
</g>
<!-- mathml&#45;d -->
<g id="node10" class="node">
<title>mathml&#45;d</title>
<path fill="#1afabc" stroke="black" d="M530.25,-165.03C530.25,-165.03 580.25,-165.03 580.25,-165.03 586.25,-165.03 592.25,-171.03 592.25,-177.03 592.25,-177.03 592.25,-189.03 592.25,-189.03 592.25,-195.03 586.25,-201.03 580.25,-201.03 580.25,-201.03 530.25,-201.03 530.25,-201.03 524.25,-201.03 518.25,-195.03 518.25,-189.03 518.25,-189.03 518.25,-177.03 518.25,-177.03 518.25,-171.03 524.25,-165.03 530.25,-165.03"/>
<text text-anchor="middle" x="555.25" y="-179.33" font-family="Arial" font-size="14.00">mathml&#45;d</text>
</g>
<!-- domains&#45;&gt;mathml&#45;d -->
<g id="edge9" class="edge">
<title>domains&#45;&gt;mathml&#45;d</title>
<path fill="none" stroke="#1f78b4" d="M358.07,-276.57C399.22,-257.05 464.84,-225.92 508.95,-204.99"/>
<polygon fill="#a6cee3" stroke="#1f78b4" points="510.49,-208.13 518.02,-200.69 507.49,-201.81 510.49,-208.13"/>
</g>
<!-- svg&#45;d -->
<g id="node11" class="node">
<title>svg&#45;d</title>
<path fill="#1afabc" stroke="black" d="M439.68,-139.89C439.68,-139.89 469.68,-139.89 469.68,-139.89 475.68,-139.89 481.68,-145.89 481.68,-151.89 481.68,-151.89 481.68,-163.89 481.68,-163.89 481.68,-169.89 475.68,-175.89 469.68,-175.89 469.68,-175.89 439.68,-175.89 439.68,-175.89 433.68,-175.89 427.68,-169.89 427.68,-163.89 427.68,-163.89 427.68,-151.89 427.68,-151.89 427.68,-145.89 433.68,-139.89 439.68,-139.89"/>
<text text-anchor="middle" x="454.68" y="-154.19" font-family="Arial" font-size="14.00">svg&#45;d</text>
</g>
<!-- domains&#45;&gt;svg&#45;d -->
<g id="edge10" class="edge">
<title>domains&#45;&gt;svg&#45;d</title>
<path fill="none" stroke="#1f78b4" d="M337.9,-276.47C361.44,-252.56 402.96,-210.41 429.63,-183.33"/>
<polygon fill="#a6cee3" stroke="#1f78b4" points="432.2,-185.7 436.72,-176.12 427.21,-180.79 432.2,-185.7"/>
</g>
<!-- ui&#45;d -->
<g id="node12" class="node">
<title>ui&#45;d</title>
<path fill="#1afabc" stroke="black" d="M131.63,-152.3C131.63,-152.3 161.63,-152.3 161.63,-152.3 167.63,-152.3 173.63,-158.3 173.63,-164.3 173.63,-164.3 173.63,-176.3 173.63,-176.3 173.63,-182.3 167.63,-188.3 161.63,-188.3 161.63,-188.3 131.63,-188.3 131.63,-188.3 125.63,-188.3 119.63,-182.3 119.63,-176.3 119.63,-176.3 119.63,-164.3 119.63,-164.3 119.63,-158.3 125.63,-152.3 131.63,-152.3"/>
<text text-anchor="middle" x="146.63" y="-166.6" font-family="Arial" font-size="14.00">ui&#45;d</text>
</g>
<!-- domains&#45;&gt;ui&#45;d -->
<g id="edge11" class="edge">
<title>domains&#45;&gt;ui&#45;d</title>
<path fill="none" stroke="#1f78b4" d="M294.8,-276.55C264.5,-254.82 213.54,-218.28 180,-194.23"/>
<polygon fill="#a6cee3" stroke="#1f78b4" points="182.03,-191.38 171.87,-188.4 177.96,-197.07 182.03,-191.38"/>
</g>
<!-- equation&#45;d -->
<g id="node13" class="node">
<title>equation&#45;d</title>
<path fill="#1afabc" stroke="black" d="M404.3,-23.98C404.3,-23.98 460.3,-23.98 460.3,-23.98 466.3,-23.98 472.3,-29.98 472.3,-35.98 472.3,-35.98 472.3,-47.98 472.3,-47.98 472.3,-53.98 466.3,-59.98 460.3,-59.98 460.3,-59.98 404.3,-59.98 404.3,-59.98 398.3,-59.98 392.3,-53.98 392.3,-47.98 392.3,-47.98 392.3,-35.98 392.3,-35.98 392.3,-29.98 398.3,-23.98 404.3,-23.98"/>
<text text-anchor="middle" x="432.3" y="-38.28" font-family="Arial" font-size="14.00">equation&#45;d</text>
</g>
<!-- domains&#45;&gt;equation&#45;d -->
<g id="edge12" class="edge">
<title>domains&#45;&gt;equation&#45;d</title>
<path fill="none" stroke="#1f78b4" d="M328.09,-276.45C347.55,-232.66 397.14,-121.08 420.19,-69.23"/>
<polygon fill="#a6cee3" stroke="#1f78b4" points="423.44,-70.54 424.3,-59.98 417.04,-67.7 423.44,-70.54"/>
</g>
<!-- taskreq&#45;d -->
<g id="node14" class="node">
<title>taskreq&#45;d</title>
<path fill="#1afabc" stroke="black" d="M520.16,-238.19C520.16,-238.19 569.16,-238.19 569.16,-238.19 575.16,-238.19 581.16,-244.19 581.16,-250.19 581.16,-250.19 581.16,-262.19 581.16,-262.19 581.16,-268.19 575.16,-274.19 569.16,-274.19 569.16,-274.19 520.16,-274.19 520.16,-274.19 514.16,-274.19 508.16,-268.19 508.16,-262.19 508.16,-262.19 508.16,-250.19 508.16,-250.19 508.16,-244.19 514.16,-238.19 520.16,-238.19"/>
<text text-anchor="middle" x="544.66" y="-252.49" font-family="Arial" font-size="14.00">taskreq&#45;d</text>
</g>
<!-- domains&#45;&gt;taskreq&#45;d -->
<g id="edge13" class="edge">
<title>domains&#45;&gt;taskreq&#45;d</title>
<path fill="none" stroke="#1f78b4" d="M375.26,-285.17C412.86,-278.74 462.08,-270.32 497.77,-264.21"/>
<polygon fill="#a6cee3" stroke="#1f78b4" points="498.65,-267.61 507.92,-262.48 497.47,-260.71 498.65,-267.61"/>
</g>
<!-- pr&#45;d -->
<g id="node15" class="node">
<title>pr&#45;d</title>
<path fill="#1afabc" stroke="black" d="M417.4,-444.3C417.4,-444.3 447.4,-444.3 447.4,-444.3 453.4,-444.3 459.4,-450.3 459.4,-456.3 459.4,-456.3 459.4,-468.3 459.4,-468.3 459.4,-474.3 453.4,-480.3 447.4,-480.3 447.4,-480.3 417.4,-480.3 417.4,-480.3 411.4,-480.3 405.4,-474.3 405.4,-468.3 405.4,-468.3 405.4,-456.3 405.4,-456.3 405.4,-450.3 411.4,-444.3 417.4,-444.3"/>
<text text-anchor="middle" x="432.4" y="-458.6" font-family="Arial" font-size="14.00">pr&#45;d</text>
</g>
<!-- domains&#45;&gt;pr&#45;d -->
<g id="edge14" class="edge">
<title>domains&#45;&gt;pr&#45;d</title>
<path fill="none" stroke="#1f78b4" d="M332.26,-312.89C352.1,-342.5 391.39,-401.11 414.42,-435.47"/>
<polygon fill="#a6cee3" stroke="#1f78b4" points="411.7,-437.7 420.17,-444.06 417.51,-433.8 411.7,-437.7"/>
</g>
<!-- xml&#45;d -->
<g id="node16" class="node">
<title>xml&#45;d</title>
<path fill="#1afabc" stroke="black" d="M198.85,-530.13C198.85,-530.13 228.85,-530.13 228.85,-530.13 234.85,-530.13 240.85,-536.13 240.85,-542.13 240.85,-542.13 240.85,-554.13 240.85,-554.13 240.85,-560.13 234.85,-566.13 228.85,-566.13 228.85,-566.13 198.85,-566.13 198.85,-566.13 192.85,-566.13 186.85,-560.13 186.85,-554.13 186.85,-554.13 186.85,-542.13 186.85,-542.13 186.85,-536.13 192.85,-530.13 198.85,-530.13"/>
<text text-anchor="middle" x="213.85" y="-544.43" font-family="Arial" font-size="14.00">xml&#45;d</text>
</g>
<!-- domains&#45;&gt;xml&#45;d -->
<g id="edge15" class="edge">
<title>domains&#45;&gt;xml&#45;d</title>
<path fill="none" stroke="#1f78b4" d="M312.38,-312.86C293.98,-356.8 247.09,-468.76 225.3,-520.78"/>
<polygon fill="#a6cee3" stroke="#1f78b4" points="222.05,-519.49 221.42,-530.06 228.51,-522.19 222.05,-519.49"/>
</g>
<!-- glossref&#45;d -->
<g id="node17" class="node">
<title>glossref&#45;d</title>
<path fill="#1afabc" stroke="black" d="M315.5,-65.68C315.5,-65.68 367.5,-65.68 367.5,-65.68 373.5,-65.68 379.5,-71.68 379.5,-77.68 379.5,-77.68 379.5,-89.68 379.5,-89.68 379.5,-95.68 373.5,-101.68 367.5,-101.68 367.5,-101.68 315.5,-101.68 315.5,-101.68 309.5,-101.68 303.5,-95.68 303.5,-89.68 303.5,-89.68 303.5,-77.68 303.5,-77.68 303.5,-71.68 309.5,-65.68 315.5,-65.68"/>
<text text-anchor="middle" x="341.5" y="-79.98" font-family="Arial" font-size="14.00">glossref&#45;d</text>
</g>
<!-- domains&#45;&gt;glossref&#45;d -->
<g id="edge16" class="edge">
<title>domains&#45;&gt;glossref&#45;d</title>
<path fill="none" stroke="#1f78b4" d="M321.88,-276.27C325.65,-239.33 334.16,-155.76 338.63,-111.85"/>
<polygon fill="#a6cee3" stroke="#1f78b4" points="342.12,-112.14 339.65,-101.84 335.16,-111.43 342.12,-112.14"/>
</g>
<!-- sw&#45;d -->
<g id="node18" class="node">
<title>sw&#45;d</title>
<path fill="#1afabc" stroke="black" d="M196.33,-455.94C196.33,-455.94 226.33,-455.94 226.33,-455.94 232.33,-455.94 238.33,-461.94 238.33,-467.94 238.33,-467.94 238.33,-479.94 238.33,-479.94 238.33,-485.94 232.33,-491.94 226.33,-491.94 226.33,-491.94 196.33,-491.94 196.33,-491.94 190.33,-491.94 184.33,-485.94 184.33,-479.94 184.33,-479.94 184.33,-467.94 184.33,-467.94 184.33,-461.94 190.33,-455.94 196.33,-455.94"/>
<text text-anchor="middle" x="211.33" y="-470.24" font-family="Arial" font-size="14.00">sw&#45;d</text>
</g>
<!-- domains&#45;&gt;sw&#45;d -->
<g id="edge17" class="edge">
<title>domains&#45;&gt;sw&#45;d</title>
<path fill="none" stroke="#1f78b4" d="M309,-312.81C289.79,-344.49 250.11,-409.97 227.69,-446.96"/>
<polygon fill="#a6cee3" stroke="#1f78b4" points="224.57,-445.35 222.38,-455.71 230.56,-448.98 224.57,-445.35"/>
</g>
<!-- relmgmt&#45;d -->
<g id="node19" class="node">
<title>relmgmt&#45;d</title>
<path fill="#1afabc" stroke="black" d="M164.9,-69.55C164.9,-69.55 219.9,-69.55 219.9,-69.55 225.9,-69.55 231.9,-75.55 231.9,-81.55 231.9,-81.55 231.9,-93.55 231.9,-93.55 231.9,-99.55 225.9,-105.55 219.9,-105.55 219.9,-105.55 164.9,-105.55 164.9,-105.55 158.9,-105.55 152.9,-99.55 152.9,-93.55 152.9,-93.55 152.9,-81.55 152.9,-81.55 152.9,-75.55 158.9,-69.55 164.9,-69.55"/>
<text text-anchor="middle" x="192.4" y="-83.85" font-family="Arial" font-size="14.00">relmgmt&#45;d</text>
</g>
<!-- domains&#45;&gt;relmgmt&#45;d -->
<g id="edge18" class="edge">
<title>domains&#45;&gt;relmgmt&#45;d</title>
<path fill="none" stroke="#1f78b4" d="M308.91,-276.61C286.43,-240.12 235.4,-157.33 208.96,-114.43"/>
<polygon fill="#a6cee3" stroke="#1f78b4" points="211.79,-112.35 203.56,-105.67 205.83,-116.02 211.79,-112.35"/>
</g>
<!-- xnal&#45;d -->
<g id="node20" class="node">
<title>xnal&#45;d</title>
<path fill="#1afabc" stroke="black" d="M99.74,-293.41C99.74,-293.41 129.74,-293.41 129.74,-293.41 135.74,-293.41 141.74,-299.41 141.74,-305.41 141.74,-305.41 141.74,-317.41 141.74,-317.41 141.74,-323.41 135.74,-329.41 129.74,-329.41 129.74,-329.41 99.74,-329.41 99.74,-329.41 93.74,-329.41 87.74,-323.41 87.74,-317.41 87.74,-317.41 87.74,-305.41 87.74,-305.41 87.74,-299.41 93.74,-293.41 99.74,-293.41"/>
<text text-anchor="middle" x="114.74" y="-307.71" font-family="Arial" font-size="14.00">xnal&#45;d</text>
</g>
<!-- domains&#45;&gt;xnal&#45;d -->
<g id="edge19" class="edge">
<title>domains&#45;&gt;xnal&#45;d</title>
<path fill="none" stroke="#1f78b4" d="M265,-299.12C229.26,-302.04 183.61,-305.78 152.06,-308.35"/>
<polygon fill="#a6cee3" stroke="#1f78b4" points="151.61,-304.88 141.93,-309.18 152.19,-311.86 151.61,-304.88"/>
</g>
<!-- ditavalref&#45;d -->
<g id="node21" class="node">
<title>ditavalref&#45;d</title>
<path fill="#1afabc" stroke="black" d="M75.28,-489.17C75.28,-489.17 134.28,-489.17 134.28,-489.17 140.28,-489.17 146.28,-495.17 146.28,-501.17 146.28,-501.17 146.28,-513.17 146.28,-513.17 146.28,-519.17 140.28,-525.17 134.28,-525.17 134.28,-525.17 75.28,-525.17 75.28,-525.17 69.28,-525.17 63.28,-519.17 63.28,-513.17 63.28,-513.17 63.28,-501.17 63.28,-501.17 63.28,-495.17 69.28,-489.17 75.28,-489.17"/>
<text text-anchor="middle" x="104.78" y="-503.47" font-family="Arial" font-size="14.00">ditavalref&#45;d</text>
</g>
<!-- domains&#45;&gt;ditavalref&#45;d -->
<g id="edge20" class="edge">
<title>domains&#45;&gt;ditavalref&#45;d</title>
<path fill="none" stroke="#1f78b4" d="M301.66,-312.75C263.22,-350.71 174.18,-438.64 130.24,-482.03"/>
<polygon fill="#a6cee3" stroke="#1f78b4" points="127.74,-479.58 123.09,-489.09 132.66,-484.56 127.74,-479.58"/>
</g>
<!-- delay&#45;d -->
<g id="node22" class="node">
<title>delay&#45;d</title>
<path fill="#1afabc" stroke="black" d="M226.69,-23.94C226.69,-23.94 263.69,-23.94 263.69,-23.94 269.69,-23.94 275.69,-29.94 275.69,-35.94 275.69,-35.94 275.69,-47.94 275.69,-47.94 275.69,-53.94 269.69,-59.94 263.69,-59.94 263.69,-59.94 226.69,-59.94 226.69,-59.94 220.69,-59.94 214.69,-53.94 214.69,-47.94 214.69,-47.94 214.69,-35.94 214.69,-35.94 214.69,-29.94 220.69,-23.94 226.69,-23.94"/>
<text text-anchor="middle" x="245.19" y="-38.24" font-family="Arial" font-size="14.00">delay&#45;d</text>
</g>
<!-- domains&#45;&gt;delay&#45;d -->
<g id="edge21" class="edge">
<title>domains&#45;&gt;delay&#45;d</title>
<path fill="none" stroke="#1f78b4" d="M314.63,-276.45C301.72,-232.84 268.89,-121.98 253.45,-69.85"/>
<polygon fill="#a6cee3" stroke="#1f78b4" points="256.72,-68.55 250.52,-59.95 250,-70.53 256.72,-68.55"/>
</g>
<!-- indexing&#45;d -->
<g id="node23" class="node">
<title>indexing&#45;d</title>
<path fill="#1afabc" stroke="black" d="M483.27,-470.89C483.27,-470.89 538.27,-470.89 538.27,-470.89 544.27,-470.89 550.27,-476.89 550.27,-482.89 550.27,-482.89 550.27,-494.89 550.27,-494.89 550.27,-500.89 544.27,-506.89 538.27,-506.89 538.27,-506.89 483.27,-506.89 483.27,-506.89 477.27,-506.89 471.27,-500.89 471.27,-494.89 471.27,-494.89 471.27,-482.89 471.27,-482.89 471.27,-476.89 477.27,-470.89 483.27,-470.89"/>
<text text-anchor="middle" x="510.77" y="-485.19" font-family="Arial" font-size="14.00">indexing&#45;d</text>
</g>
<!-- domains&#45;&gt;indexing&#45;d -->
<g id="edge22" class="edge">
<title>domains&#45;&gt;indexing&#45;d</title>
<path fill="none" stroke="#1f78b4" d="M337.96,-312.9C372.13,-347.7 446.61,-423.55 485.69,-463.35"/>
<polygon fill="#a6cee3" stroke="#1f78b4" points="483.5,-466.12 493.01,-470.81 488.5,-461.22 483.5,-466.12"/>
</g>
<!-- hazard&#45;d -->
<g id="node24" class="node">
<title>hazard&#45;d</title>
<path fill="#1afabc" stroke="black" d="M526.51,-395.32C526.51,-395.32 572.51,-395.32 572.51,-395.32 578.51,-395.32 584.51,-401.32 584.51,-407.32 584.51,-407.32 584.51,-419.32 584.51,-419.32 584.51,-425.32 578.51,-431.32 572.51,-431.32 572.51,-431.32 526.51,-431.32 526.51,-431.32 520.51,-431.32 514.51,-425.32 514.51,-419.32 514.51,-419.32 514.51,-407.32 514.51,-407.32 514.51,-401.32 520.51,-395.32 526.51,-395.32"/>
<text text-anchor="middle" x="549.51" y="-409.62" font-family="Arial" font-size="14.00">hazard&#45;d</text>
</g>
<!-- domains&#45;&gt;hazard&#45;d -->
<g id="edge23" class="edge">
<title>domains&#45;&gt;hazard&#45;d</title>
<path fill="none" stroke="#1f78b4" d="M354.87,-312.65C395.26,-333.54 461.86,-367.98 505.71,-390.66"/>
<polygon fill="#a6cee3" stroke="#1f78b4" points="504.21,-393.83 514.7,-395.31 507.43,-387.61 504.21,-393.83"/>
</g>
<!-- hi&#45;d -->
<g id="node25" class="node">
<title>hi&#45;d</title>
<path fill="#1afabc" stroke="black" d="M104.13,-403.2C104.13,-403.2 134.13,-403.2 134.13,-403.2 140.13,-403.2 146.13,-409.2 146.13,-415.2 146.13,-415.2 146.13,-427.2 146.13,-427.2 146.13,-433.2 140.13,-439.2 134.13,-439.2 134.13,-439.2 104.13,-439.2 104.13,-439.2 98.13,-439.2 92.13,-433.2 92.13,-427.2 92.13,-427.2 92.13,-415.2 92.13,-415.2 92.13,-409.2 98.13,-403.2 104.13,-403.2"/>
<text text-anchor="middle" x="119.13" y="-417.5" font-family="Arial" font-size="14.00">hi&#45;d</text>
</g>
<!-- domains&#45;&gt;hi&#45;d -->
<g id="edge24" class="edge">
<title>domains&#45;&gt;hi&#45;d</title>
<path fill="none" stroke="#1f78b4" d="M291.23,-312.76C255.38,-335.35 194.1,-373.96 155.16,-398.5"/>
<polygon fill="#a6cee3" stroke="#1f78b4" points="152.84,-395.82 146.25,-404.11 156.57,-401.74 152.84,-395.82"/>
</g>
<!-- mapgroup&#45;d -->
<g id="node26" class="node">
<title>mapgroup&#45;d</title>
<path fill="#1afabc" stroke="black" d="M499.55,-75.95C499.55,-75.95 565.55,-75.95 565.55,-75.95 571.55,-75.95 577.55,-81.95 577.55,-87.95 577.55,-87.95 577.55,-99.95 577.55,-99.95 577.55,-105.95 571.55,-111.95 565.55,-111.95 565.55,-111.95 499.55,-111.95 499.55,-111.95 493.55,-111.95 487.55,-105.95 487.55,-99.95 487.55,-99.95 487.55,-87.95 487.55,-87.95 487.55,-81.95 493.55,-75.95 499.55,-75.95"/>
<text text-anchor="middle" x="532.55" y="-90.25" font-family="Arial" font-size="14.00">mapgroup&#45;d</text>
</g>
<!-- domains&#45;&gt;mapgroup&#45;d -->
<g id="edge25" class="edge">
<title>domains&#45;&gt;mapgroup&#45;d</title>
<path fill="none" stroke="#1f78b4" d="M339.25,-276.46C377.33,-240.51 462.36,-160.22 505.84,-119.16"/>
<polygon fill="#a6cee3" stroke="#1f78b4" points="508.33,-121.62 513.2,-112.21 503.53,-116.53 508.33,-121.62"/>
</g>
<!-- ut&#45;d -->
<g id="node27" class="node">
<title>ut&#45;d</title>
<path fill="#1afabc" stroke="black" d="M285.29,-555.32C285.29,-555.32 315.29,-555.32 315.29,-555.32 321.29,-555.32 327.29,-561.32 327.29,-567.32 327.29,-567.32 327.29,-579.32 327.29,-579.32 327.29,-585.32 321.29,-591.32 315.29,-591.32 315.29,-591.32 285.29,-591.32 285.29,-591.32 279.29,-591.32 273.29,-585.32 273.29,-579.32 273.29,-579.32 273.29,-567.32 273.29,-567.32 273.29,-561.32 279.29,-555.32 285.29,-555.32"/>
<text text-anchor="middle" x="300.29" y="-569.62" font-family="Arial" font-size="14.00">ut&#45;d</text>
</g>
<!-- domains&#45;&gt;ut&#45;d -->
<g id="edge26" class="edge">
<title>domains&#45;&gt;ut&#45;d</title>
<path fill="none" stroke="#1f78b4" d="M318.72,-312.91C315.36,-360.35 306.35,-487.65 302.3,-544.82"/>
<polygon fill="#a6cee3" stroke="#1f78b4" points="298.8,-544.74 301.59,-554.96 305.78,-545.24 298.8,-544.74"/>
</g>
<!-- classify&#45;d -->
<g id="node28" class="node">
<title>classify&#45;d</title>
<path fill="#1afabc" stroke="black" d="M308.22,-0.1C308.22,-0.1 357.22,-0.1 357.22,-0.1 363.22,-0.1 369.22,-6.1 369.22,-12.1 369.22,-12.1 369.22,-24.1 369.22,-24.1 369.22,-30.1 363.22,-36.1 357.22,-36.1 357.22,-36.1 308.22,-36.1 308.22,-36.1 302.22,-36.1 296.22,-30.1 296.22,-24.1 296.22,-24.1 296.22,-12.1 296.22,-12.1 296.22,-6.1 302.22,-0.1 308.22,-0.1"/>
<text text-anchor="middle" x="332.72" y="-14.4" font-family="Arial" font-size="14.00">classify&#45;d</text>
</g>
<!-- domains&#45;&gt;classify&#45;d -->
<g id="edge27" class="edge">
<title>domains&#45;&gt;classify&#45;d</title>
<path fill="none" stroke="#1f78b4" d="M320.85,-276.48C323.01,-229.41 328.81,-103.1 331.42,-46.37"/>
<polygon fill="#a6cee3" stroke="#1f78b4" points="334.92,-46.46 331.88,-36.31 327.93,-46.14 334.92,-46.46"/>
</g>
</g>
</svg>
