<?xml version="1.0" encoding="UTF-8" standalone="no"?>
<!DOCTYPE svg PUBLIC "-//W3C//DTD SVG 1.1//EN"
 "http://www.w3.org/Graphics/SVG/1.1/DTD/svg11.dtd">
<!-- Generated by graphviz version 6.0.1 (20220911.1526)
 -->
<!-- Pages: 1 -->
<svg width="669pt" height="530pt"
 viewBox="0.00 0.00 669.00 530.00" xmlns="http://www.w3.org/2000/svg" xmlns:xlink="http://www.w3.org/1999/xlink">
<g id="graph0" class="graph" transform="scale(1 1) rotate(0) translate(4 526)">
<polygon fill="white" stroke="none" points="-4,4 -4,-526 665,-526 665,4 -4,4"/>
<!-- troubleshootingModule -->
<g id="node1" class="node">
<title>troubleshootingModule</title>
<path fill="#dddddd" stroke="black" d="M261.47,-285.88C261.47,-285.88 391.47,-285.88 391.47,-285.88 397.47,-285.88 403.47,-291.88 403.47,-297.88 403.47,-297.88 403.47,-309.88 403.47,-309.88 403.47,-315.88 397.47,-321.88 391.47,-321.88 391.47,-321.88 261.47,-321.88 261.47,-321.88 255.47,-321.88 249.47,-315.88 249.47,-309.88 249.47,-309.88 249.47,-297.88 249.47,-297.88 249.47,-291.88 255.47,-285.88 261.47,-285.88"/>
<text text-anchor="middle" x="326.47" y="-300.18" font-family="Arial" font-size="14.00">troubleshootingModule</text>
</g>
<!-- topic -->
<g id="node2" class="node">
<title>topic</title>
<path fill="#afa7f4" stroke="black" d="M160.86,-260.29C160.86,-260.29 190.86,-260.29 190.86,-260.29 196.86,-260.29 202.86,-266.29 202.86,-272.29 202.86,-272.29 202.86,-284.29 202.86,-284.29 202.86,-290.29 196.86,-296.29 190.86,-296.29 190.86,-296.29 160.86,-296.29 160.86,-296.29 154.86,-296.29 148.86,-290.29 148.86,-284.29 148.86,-284.29 148.86,-272.29 148.86,-272.29 148.86,-266.29 154.86,-260.29 160.86,-260.29"/>
<text text-anchor="middle" x="175.86" y="-274.59" font-family="Arial" font-size="14.00">topic</text>
</g>
<!-- troubleshootingModule&#45;&gt;topic -->
<g id="edge1" class="edge">
<title>troubleshootingModule&#45;&gt;topic</title>
<path fill="none" stroke="#1f78b4" d="M249.4,-290.79C236.79,-288.64 224.24,-286.51 213.17,-284.63"/>
<polygon fill="#a6cee3" stroke="#1f78b4" points="213.51,-281.14 203.06,-282.91 212.34,-288.04 213.51,-281.14"/>
</g>
<!-- body -->
<g id="node4" class="node">
<title>body</title>
<path fill="#afa7f4" stroke="black" d="M199.97,-389.76C199.97,-389.76 229.97,-389.76 229.97,-389.76 235.97,-389.76 241.97,-395.76 241.97,-401.76 241.97,-401.76 241.97,-413.76 241.97,-413.76 241.97,-419.76 235.97,-425.76 229.97,-425.76 229.97,-425.76 199.97,-425.76 199.97,-425.76 193.97,-425.76 187.97,-419.76 187.97,-413.76 187.97,-413.76 187.97,-401.76 187.97,-401.76 187.97,-395.76 193.97,-389.76 199.97,-389.76"/>
<text text-anchor="middle" x="214.97" y="-404.06" font-family="Arial" font-size="14.00">body</text>
</g>
<!-- troubleshootingModule&#45;&gt;body -->
<g id="edge3" class="edge">
<title>troubleshootingModule&#45;&gt;body</title>
<path fill="none" stroke="#1f78b4" d="M307.05,-321.98C289.01,-338.78 261.99,-363.96 241.88,-382.69"/>
<polygon fill="#a6cee3" stroke="#1f78b4" points="239.47,-380.15 234.54,-389.53 244.24,-385.27 239.47,-380.15"/>
</g>
<!-- section -->
<g id="node6" class="node">
<title>section</title>
<path fill="#afa7f4" stroke="black" d="M360.76,-137.15C360.76,-137.15 395.76,-137.15 395.76,-137.15 401.76,-137.15 407.76,-143.15 407.76,-149.15 407.76,-149.15 407.76,-161.15 407.76,-161.15 407.76,-167.15 401.76,-173.15 395.76,-173.15 395.76,-173.15 360.76,-173.15 360.76,-173.15 354.76,-173.15 348.76,-167.15 348.76,-161.15 348.76,-161.15 348.76,-149.15 348.76,-149.15 348.76,-143.15 354.76,-137.15 360.76,-137.15"/>
<text text-anchor="middle" x="378.26" y="-151.45" font-family="Arial" font-size="14.00">section</text>
</g>
<!-- troubleshootingModule&#45;&gt;section -->
<g id="edge5" class="edge">
<title>troubleshootingModule&#45;&gt;section</title>
<path fill="none" stroke="#1f78b4" d="M332.82,-285.65C341.75,-260 358.09,-213.06 368.55,-183.02"/>
<polygon fill="#a6cee3" stroke="#1f78b4" points="371.87,-184.13 371.86,-173.54 365.26,-181.83 371.87,-184.13"/>
</g>
<!-- bodydiv -->
<g id="node12" class="node">
<title>bodydiv</title>
<path fill="#afa7f4" stroke="black" d="M418.34,-393.91C418.34,-393.91 457.34,-393.91 457.34,-393.91 463.34,-393.91 469.34,-399.91 469.34,-405.91 469.34,-405.91 469.34,-417.91 469.34,-417.91 469.34,-423.91 463.34,-429.91 457.34,-429.91 457.34,-429.91 418.34,-429.91 418.34,-429.91 412.34,-429.91 406.34,-423.91 406.34,-417.91 406.34,-417.91 406.34,-405.91 406.34,-405.91 406.34,-399.91 412.34,-393.91 418.34,-393.91"/>
<text text-anchor="middle" x="437.84" y="-408.21" font-family="Arial" font-size="14.00">bodydiv</text>
</g>
<!-- troubleshootingModule&#45;&gt;bodydiv -->
<g id="edge11" class="edge">
<title>troubleshootingModule&#45;&gt;bodydiv</title>
<path fill="none" stroke="#1f78b4" d="M345.11,-321.96C363.34,-339.65 391.26,-366.73 411.7,-386.56"/>
<polygon fill="#a6cee3" stroke="#1f78b4" points="409.52,-389.32 419.14,-393.77 414.4,-384.29 409.52,-389.32"/>
</g>
<!-- p -->
<g id="node15" class="node">
<title>p</title>
<path fill="#afa7f4" stroke="black" d="M462.36,-298.66C462.36,-298.66 492.36,-298.66 492.36,-298.66 498.36,-298.66 504.36,-304.66 504.36,-310.66 504.36,-310.66 504.36,-322.66 504.36,-322.66 504.36,-328.66 498.36,-334.66 492.36,-334.66 492.36,-334.66 462.36,-334.66 462.36,-334.66 456.36,-334.66 450.36,-328.66 450.36,-322.66 450.36,-322.66 450.36,-310.66 450.36,-310.66 450.36,-304.66 456.36,-298.66 462.36,-298.66"/>
<text text-anchor="middle" x="477.36" y="-312.96" font-family="Arial" font-size="14.00">p</text>
</g>
<!-- troubleshootingModule&#45;&gt;p -->
<g id="edge14" class="edge">
<title>troubleshootingModule&#45;&gt;p</title>
<path fill="none" stroke="#1f78b4" d="M403.69,-310.42C416.32,-311.49 428.9,-312.55 439.98,-313.49"/>
<polygon fill="#a6cee3" stroke="#1f78b4" points="439.85,-316.99 450.11,-314.35 440.44,-310.02 439.85,-316.99"/>
</g>
<!-- troubleshooting -->
<g id="node3" class="node">
<title>troubleshooting</title>
<path fill="#1afabc" stroke="black" d="M12.44,-236.34C12.44,-236.34 97.44,-236.34 97.44,-236.34 103.44,-236.34 109.44,-242.34 109.44,-248.34 109.44,-248.34 109.44,-260.34 109.44,-260.34 109.44,-266.34 103.44,-272.34 97.44,-272.34 97.44,-272.34 12.44,-272.34 12.44,-272.34 6.44,-272.34 0.44,-266.34 0.44,-260.34 0.44,-260.34 0.44,-248.34 0.44,-248.34 0.44,-242.34 6.44,-236.34 12.44,-236.34"/>
<text text-anchor="middle" x="54.94" y="-250.64" font-family="Arial" font-size="14.00">troubleshooting</text>
</g>
<!-- topic&#45;&gt;troubleshooting -->
<g id="edge2" class="edge">
<title>topic&#45;&gt;troubleshooting</title>
<path fill="none" stroke="#1f78b4" d="M148.72,-272.91C139.96,-271.18 129.85,-269.17 119.57,-267.14"/>
<polygon fill="#a6cee3" stroke="#1f78b4" points="120.2,-263.69 109.71,-265.18 118.83,-270.56 120.2,-263.69"/>
</g>
<!-- troublebody -->
<g id="node5" class="node">
<title>troublebody</title>
<path fill="#1afabc" stroke="black" d="M100.32,-463.83C100.32,-463.83 163.32,-463.83 163.32,-463.83 169.32,-463.83 175.32,-469.83 175.32,-475.83 175.32,-475.83 175.32,-487.83 175.32,-487.83 175.32,-493.83 169.32,-499.83 163.32,-499.83 163.32,-499.83 100.32,-499.83 100.32,-499.83 94.32,-499.83 88.32,-493.83 88.32,-487.83 88.32,-487.83 88.32,-475.83 88.32,-475.83 88.32,-469.83 94.32,-463.83 100.32,-463.83"/>
<text text-anchor="middle" x="131.82" y="-478.13" font-family="Arial" font-size="14.00">troublebody</text>
</g>
<!-- body&#45;&gt;troublebody -->
<g id="edge4" class="edge">
<title>body&#45;&gt;troublebody</title>
<path fill="none" stroke="#1f78b4" d="M194.41,-426.07C183.94,-435.4 171.05,-446.88 159.7,-457"/>
<polygon fill="#a6cee3" stroke="#1f78b4" points="157.27,-454.47 152.13,-463.74 161.93,-459.7 157.27,-454.47"/>
</g>
<!-- cause -->
<g id="node7" class="node">
<title>cause</title>
<path fill="#1afabc" stroke="black" d="M256.35,-133.52C256.35,-133.52 286.35,-133.52 286.35,-133.52 292.35,-133.52 298.35,-139.52 298.35,-145.52 298.35,-145.52 298.35,-157.52 298.35,-157.52 298.35,-163.52 292.35,-169.52 286.35,-169.52 286.35,-169.52 256.35,-169.52 256.35,-169.52 250.35,-169.52 244.35,-163.52 244.35,-157.52 244.35,-157.52 244.35,-145.52 244.35,-145.52 244.35,-139.52 250.35,-133.52 256.35,-133.52"/>
<text text-anchor="middle" x="271.35" y="-147.82" font-family="Arial" font-size="14.00">cause</text>
</g>
<!-- section&#45;&gt;cause -->
<g id="edge6" class="edge">
<title>section&#45;&gt;cause</title>
<path fill="none" stroke="#1f78b4" d="M348.48,-154.14C336.1,-153.72 321.59,-153.22 308.52,-152.78"/>
<polygon fill="#a6cee3" stroke="#1f78b4" points="308.53,-149.28 298.41,-152.44 308.29,-156.27 308.53,-149.28"/>
</g>
<!-- condition -->
<g id="node8" class="node">
<title>condition</title>
<path fill="#1afabc" stroke="black" d="M453.99,-72.82C453.99,-72.82 500.99,-72.82 500.99,-72.82 506.99,-72.82 512.99,-78.82 512.99,-84.82 512.99,-84.82 512.99,-96.82 512.99,-96.82 512.99,-102.82 506.99,-108.82 500.99,-108.82 500.99,-108.82 453.99,-108.82 453.99,-108.82 447.99,-108.82 441.99,-102.82 441.99,-96.82 441.99,-96.82 441.99,-84.82 441.99,-84.82 441.99,-78.82 447.99,-72.82 453.99,-72.82"/>
<text text-anchor="middle" x="477.49" y="-87.12" font-family="Arial" font-size="14.00">condition</text>
</g>
<!-- section&#45;&gt;condition -->
<g id="edge7" class="edge">
<title>section&#45;&gt;condition</title>
<path fill="none" stroke="#1f78b4" d="M406.16,-137.06C416.94,-130.07 429.43,-121.98 440.91,-114.54"/>
<polygon fill="#a6cee3" stroke="#1f78b4" points="442.96,-117.38 449.45,-109 439.15,-111.5 442.96,-117.38"/>
</g>
<!-- diagnostics&#45;general -->
<g id="node9" class="node">
<title>diagnostics&#45;general</title>
<path fill="#1afabc" stroke="black" d="M310.86,-84.45C310.86,-84.45 420.86,-84.45 420.86,-84.45 426.86,-84.45 432.86,-90.45 432.86,-96.45 432.86,-96.45 432.86,-108.45 432.86,-108.45 432.86,-114.45 426.86,-120.45 420.86,-120.45 420.86,-120.45 310.86,-120.45 310.86,-120.45 304.86,-120.45 298.86,-114.45 298.86,-108.45 298.86,-108.45 298.86,-96.45 298.86,-96.45 298.86,-90.45 304.86,-84.45 310.86,-84.45"/>
<text text-anchor="middle" x="365.86" y="-98.75" font-family="Arial" font-size="14.00">diagnostics&#45;general</text>
</g>
<!-- section&#45;&gt;diagnostics&#45;general -->
<g id="edge8" class="edge">
<title>section&#45;&gt;diagnostics&#45;general</title>
<path fill="none" stroke="#1f78b4" d="M373.99,-137.02C373.51,-134.97 373.01,-132.85 372.51,-130.71"/>
<polygon fill="#a6cee3" stroke="#1f78b4" points="375.87,-129.74 370.18,-120.8 369.06,-131.34 375.87,-129.74"/>
</g>
<!-- diagnostics&#45;steps -->
<g id="node10" class="node">
<title>diagnostics&#45;steps</title>
<path fill="#1afabc" stroke="black" d="M326.31,-0.05C326.31,-0.05 423.31,-0.05 423.31,-0.05 429.31,-0.05 435.31,-6.05 435.31,-12.05 435.31,-12.05 435.31,-24.05 435.31,-24.05 435.31,-30.05 429.31,-36.05 423.31,-36.05 423.31,-36.05 326.31,-36.05 326.31,-36.05 320.31,-36.05 314.31,-30.05 314.31,-24.05 314.31,-24.05 314.31,-12.05 314.31,-12.05 314.31,-6.05 320.31,-0.05 326.31,-0.05"/>
<text text-anchor="middle" x="374.81" y="-14.35" font-family="Arial" font-size="14.00">diagnostics&#45;steps</text>
</g>
<!-- section&#45;&gt;diagnostics&#45;steps -->
<g id="edge9" class="edge">
<title>section&#45;&gt;diagnostics&#45;steps</title>
<path fill="none" stroke="#1f78b4" d="M377.8,-136.95C377.22,-113.8 376.21,-73.58 375.52,-46.4"/>
<polygon fill="#a6cee3" stroke="#1f78b4" points="379.02,-46.24 375.27,-36.33 372.02,-46.42 379.02,-46.24"/>
</g>
<!-- remedy -->
<g id="node11" class="node">
<title>remedy</title>
<path fill="#1afabc" stroke="black" d="M457.77,-129.3C457.77,-129.3 495.77,-129.3 495.77,-129.3 501.77,-129.3 507.77,-135.3 507.77,-141.3 507.77,-141.3 507.77,-153.3 507.77,-153.3 507.77,-159.3 501.77,-165.3 495.77,-165.3 495.77,-165.3 457.77,-165.3 457.77,-165.3 451.77,-165.3 445.77,-159.3 445.77,-153.3 445.77,-153.3 445.77,-141.3 445.77,-141.3 445.77,-135.3 451.77,-129.3 457.77,-129.3"/>
<text text-anchor="middle" x="476.77" y="-143.6" font-family="Arial" font-size="14.00">remedy</text>
</g>
<!-- section&#45;&gt;remedy -->
<g id="edge10" class="edge">
<title>section&#45;&gt;remedy</title>
<path fill="none" stroke="#1f78b4" d="M407.81,-152.8C416.46,-152.11 426.08,-151.34 435.32,-150.6"/>
<polygon fill="#a6cee3" stroke="#1f78b4" points="435.83,-154.07 445.52,-149.79 435.27,-147.1 435.83,-154.07"/>
</g>
<!-- diagnostics -->
<g id="node13" class="node">
<title>diagnostics</title>
<path fill="#1afabc" stroke="black" d="M479.03,-485.83C479.03,-485.83 539.03,-485.83 539.03,-485.83 545.03,-485.83 551.03,-491.83 551.03,-497.83 551.03,-497.83 551.03,-509.83 551.03,-509.83 551.03,-515.83 545.03,-521.83 539.03,-521.83 539.03,-521.83 479.03,-521.83 479.03,-521.83 473.03,-521.83 467.03,-515.83 467.03,-509.83 467.03,-509.83 467.03,-497.83 467.03,-497.83 467.03,-491.83 473.03,-485.83 479.03,-485.83"/>
<text text-anchor="middle" x="509.03" y="-500.13" font-family="Arial" font-size="14.00">diagnostics</text>
</g>
<!-- bodydiv&#45;&gt;diagnostics -->
<g id="edge12" class="edge">
<title>bodydiv&#45;&gt;diagnostics</title>
<path fill="none" stroke="#1f78b4" d="M451.9,-430.07C462.43,-443.66 476.99,-462.46 488.78,-477.68"/>
<polygon fill="#a6cee3" stroke="#1f78b4" points="486.1,-479.94 494.99,-485.7 491.64,-475.65 486.1,-479.94"/>
</g>
<!-- troubleSolution -->
<g id="node14" class="node">
<title>troubleSolution</title>
<path fill="#1afabc" stroke="black" d="M362.8,-442.32C362.8,-442.32 445.8,-442.32 445.8,-442.32 451.8,-442.32 457.8,-448.32 457.8,-454.32 457.8,-454.32 457.8,-466.32 457.8,-466.32 457.8,-472.32 451.8,-478.32 445.8,-478.32 445.8,-478.32 362.8,-478.32 362.8,-478.32 356.8,-478.32 350.8,-472.32 350.8,-466.32 350.8,-466.32 350.8,-454.32 350.8,-454.32 350.8,-448.32 356.8,-442.32 362.8,-442.32"/>
<text text-anchor="middle" x="404.3" y="-456.62" font-family="Arial" font-size="14.00">troubleSolution</text>
</g>
<!-- bodydiv&#45;&gt;troubleSolution -->
<g id="edge13" class="edge">
<title>bodydiv&#45;&gt;troubleSolution</title>
<path fill="none" stroke="#1f78b4" d="M425.35,-429.94C424.49,-431.18 423.61,-432.45 422.73,-433.72"/>
<polygon fill="#a6cee3" stroke="#1f78b4" points="419.73,-431.9 416.91,-442.12 425.48,-435.89 419.73,-431.9"/>
</g>
<!-- responsibleParty -->
<g id="node16" class="node">
<title>responsibleParty</title>
<path fill="#1afabc" stroke="black" d="M556.15,-311.39C556.15,-311.39 649.15,-311.39 649.15,-311.39 655.15,-311.39 661.15,-317.39 661.15,-323.39 661.15,-323.39 661.15,-335.39 661.15,-335.39 661.15,-341.39 655.15,-347.39 649.15,-347.39 649.15,-347.39 556.15,-347.39 556.15,-347.39 550.15,-347.39 544.15,-341.39 544.15,-335.39 544.15,-335.39 544.15,-323.39 544.15,-323.39 544.15,-317.39 550.15,-311.39 556.15,-311.39"/>
<text text-anchor="middle" x="602.65" y="-325.69" font-family="Arial" font-size="14.00">responsibleParty</text>
</g>
<!-- p&#45;&gt;responsibleParty -->
<g id="edge15" class="edge">
<title>p&#45;&gt;responsibleParty</title>
<path fill="none" stroke="#1f78b4" d="M504.55,-319.42C513.38,-320.32 523.62,-321.36 534.08,-322.42"/>
<polygon fill="#a6cee3" stroke="#1f78b4" points="533.84,-325.92 544.14,-323.45 534.55,-318.95 533.84,-325.92"/>
</g>
</g>
</svg>
