<?xml version="1.0" encoding="UTF-8" standalone="no"?>
<!DOCTYPE svg PUBLIC "-//W3C//DTD SVG 1.1//EN"
 "http://www.w3.org/Graphics/SVG/1.1/DTD/svg11.dtd">
<!-- Generated by graphviz version 6.0.1 (20220911.1526)
 -->
<!-- Pages: 1 -->
<svg width="766pt" height="645pt"
 viewBox="0.00 0.00 766.00 645.00" xmlns="http://www.w3.org/2000/svg" xmlns:xlink="http://www.w3.org/1999/xlink">
<g id="graph0" class="graph" transform="scale(1 1) rotate(0) translate(4 641)">
<polygon fill="white" stroke="none" points="-4,4 -4,-641 762,-641 762,4 -4,4"/>
<!-- domains -->
<g id="node1" class="node">
<title>domains</title>
<path fill="#afa7f4" stroke="black" d="M288.48,-290.78C288.48,-290.78 374.48,-290.78 374.48,-290.78 380.48,-290.78 386.48,-296.78 386.48,-302.78 386.48,-302.78 386.48,-314.78 386.48,-314.78 386.48,-320.78 380.48,-326.78 374.48,-326.78 374.48,-326.78 288.48,-326.78 288.48,-326.78 282.48,-326.78 276.48,-320.78 276.48,-314.78 276.48,-314.78 276.48,-302.78 276.48,-302.78 276.48,-296.78 282.48,-290.78 288.48,-290.78"/>
<text text-anchor="middle" x="315.48" y="-305.08" font-family="Arial" font-size="14.00">Domanins</text>
<polyline fill="none" stroke="black" points="354.48,-290.78 354.48,-326.78"/>
<text text-anchor="middle" x="370.48" y="-305.08" font-family="Arial" font-size="14.00">27</text>
</g>
<!-- learningInteractionBase2&#45;d -->
<g id="node2" class="node">
<title>learningInteractionBase2&#45;d</title>
<path fill="#1afabc" stroke="black" d="M592.01,-301.57C592.01,-301.57 746.01,-301.57 746.01,-301.57 752.01,-301.57 758.01,-307.57 758.01,-313.57 758.01,-313.57 758.01,-325.57 758.01,-325.57 758.01,-331.57 752.01,-337.57 746.01,-337.57 746.01,-337.57 592.01,-337.57 592.01,-337.57 586.01,-337.57 580.01,-331.57 580.01,-325.57 580.01,-325.57 580.01,-313.57 580.01,-313.57 580.01,-307.57 586.01,-301.57 592.01,-301.57"/>
<text text-anchor="middle" x="669.01" y="-315.87" font-family="Arial" font-size="14.00">learningInteractionBase2&#45;d</text>
</g>
<!-- domains&#45;&gt;learningInteractionBase2&#45;d -->
<g id="edge1" class="edge">
<title>domains&#45;&gt;learningInteractionBase2&#45;d</title>
<path fill="none" stroke="#1f78b4" d="M386.84,-310.55C436.34,-312.14 510.07,-314.49 569.75,-316.4"/>
<polygon fill="#a6cee3" stroke="#1f78b4" points="569.85,-319.9 579.96,-316.73 570.08,-312.91 569.85,-319.9"/>
</g>
<!-- learningmap&#45;d -->
<g id="node3" class="node">
<title>learningmap&#45;d</title>
<path fill="#1afabc" stroke="black" d="M356.5,-0.15C356.5,-0.15 436.5,-0.15 436.5,-0.15 442.5,-0.15 448.5,-6.15 448.5,-12.15 448.5,-12.15 448.5,-24.15 448.5,-24.15 448.5,-30.15 442.5,-36.15 436.5,-36.15 436.5,-36.15 356.5,-36.15 356.5,-36.15 350.5,-36.15 344.5,-30.15 344.5,-24.15 344.5,-24.15 344.5,-12.15 344.5,-12.15 344.5,-6.15 350.5,-0.15 356.5,-0.15"/>
<text text-anchor="middle" x="396.5" y="-14.45" font-family="Arial" font-size="14.00">learningmap&#45;d</text>
</g>
<!-- domains&#45;&gt;learningmap&#45;d -->
<g id="edge2" class="edge">
<title>domains&#45;&gt;learningmap&#45;d</title>
<path fill="none" stroke="#1f78b4" d="M335.55,-290.6C346.56,-241.37 377.03,-105.18 390.25,-46.1"/>
<polygon fill="#a6cee3" stroke="#1f78b4" points="393.67,-46.85 392.43,-36.32 386.84,-45.32 393.67,-46.85"/>
</g>
<!-- learningInteractionBase&#45;d -->
<g id="node4" class="node">
<title>learningInteractionBase&#45;d</title>
<path fill="#1afabc" stroke="black" d="M66.01,-583.54C66.01,-583.54 212.01,-583.54 212.01,-583.54 218.01,-583.54 224.01,-589.54 224.01,-595.54 224.01,-595.54 224.01,-607.54 224.01,-607.54 224.01,-613.54 218.01,-619.54 212.01,-619.54 212.01,-619.54 66.01,-619.54 66.01,-619.54 60.01,-619.54 54.01,-613.54 54.01,-607.54 54.01,-607.54 54.01,-595.54 54.01,-595.54 54.01,-589.54 60.01,-583.54 66.01,-583.54"/>
<text text-anchor="middle" x="139.01" y="-597.84" font-family="Arial" font-size="14.00">learningInteractionBase&#45;d</text>
</g>
<!-- domains&#45;&gt;learningInteractionBase&#45;d -->
<g id="edge3" class="edge">
<title>domains&#45;&gt;learningInteractionBase&#45;d</title>
<path fill="none" stroke="#1f78b4" d="M319.44,-327.1C286.56,-377.1 195.14,-516.16 156.55,-574.85"/>
<polygon fill="#a6cee3" stroke="#1f78b4" points="153.61,-572.95 151.04,-583.23 159.46,-576.8 153.61,-572.95"/>
</g>
<!-- learningmeta&#45;d -->
<g id="node5" class="node">
<title>learningmeta&#45;d</title>
<path fill="#1afabc" stroke="black" d="M281.12,-600.46C281.12,-600.46 364.12,-600.46 364.12,-600.46 370.12,-600.46 376.12,-606.46 376.12,-612.46 376.12,-612.46 376.12,-624.46 376.12,-624.46 376.12,-630.46 370.12,-636.46 364.12,-636.46 364.12,-636.46 281.12,-636.46 281.12,-636.46 275.12,-636.46 269.12,-630.46 269.12,-624.46 269.12,-624.46 269.12,-612.46 269.12,-612.46 269.12,-606.46 275.12,-600.46 281.12,-600.46"/>
<text text-anchor="middle" x="322.62" y="-614.76" font-family="Arial" font-size="14.00">learningmeta&#45;d</text>
</g>
<!-- domains&#45;&gt;learningmeta&#45;d -->
<g id="edge4" class="edge">
<title>domains&#45;&gt;learningmeta&#45;d</title>
<path fill="none" stroke="#1f78b4" d="M330.95,-327.23C329.46,-379.19 325.23,-527.05 323.44,-589.77"/>
<polygon fill="#a6cee3" stroke="#1f78b4" points="319.93,-590.01 323.14,-600.11 326.93,-590.21 319.93,-590.01"/>
</g>
<!-- learning&#45;d -->
<g id="node6" class="node">
<title>learning&#45;d</title>
<path fill="#1afabc" stroke="black" d="M17.44,-326.95C17.44,-326.95 70.44,-326.95 70.44,-326.95 76.44,-326.95 82.44,-332.95 82.44,-338.95 82.44,-338.95 82.44,-350.95 82.44,-350.95 82.44,-356.95 76.44,-362.95 70.44,-362.95 70.44,-362.95 17.44,-362.95 17.44,-362.95 11.44,-362.95 5.44,-356.95 5.44,-350.95 5.44,-350.95 5.44,-338.95 5.44,-338.95 5.44,-332.95 11.44,-326.95 17.44,-326.95"/>
<text text-anchor="middle" x="43.94" y="-341.25" font-family="Arial" font-size="14.00">learning&#45;d</text>
</g>
<!-- domains&#45;&gt;learning&#45;d -->
<g id="edge5" class="edge">
<title>domains&#45;&gt;learning&#45;d</title>
<path fill="none" stroke="#1f78b4" d="M276.38,-315.71C223.29,-322.39 143.73,-332.4 92.84,-338.8"/>
<polygon fill="#a6cee3" stroke="#1f78b4" points="92.23,-335.35 82.74,-340.07 93.1,-342.29 92.23,-335.35"/>
</g>
<!-- learning2&#45;d -->
<g id="node7" class="node">
<title>learning2&#45;d</title>
<path fill="#1afabc" stroke="black" d="M11.87,-225.77C11.87,-225.77 71.87,-225.77 71.87,-225.77 77.87,-225.77 83.87,-231.77 83.87,-237.77 83.87,-237.77 83.87,-249.77 83.87,-249.77 83.87,-255.77 77.87,-261.77 71.87,-261.77 71.87,-261.77 11.87,-261.77 11.87,-261.77 5.87,-261.77 -0.13,-255.77 -0.13,-249.77 -0.13,-249.77 -0.13,-237.77 -0.13,-237.77 -0.13,-231.77 5.87,-225.77 11.87,-225.77"/>
<text text-anchor="middle" x="41.87" y="-240.07" font-family="Arial" font-size="14.00">learning2&#45;d</text>
</g>
<!-- domains&#45;&gt;learning2&#45;d -->
<g id="edge6" class="edge">
<title>domains&#45;&gt;learning2&#45;d</title>
<path fill="none" stroke="#1f78b4" d="M276.32,-296.4C223.86,-284.62 145.5,-267.04 94.04,-255.48"/>
<polygon fill="#a6cee3" stroke="#1f78b4" points="94.65,-252.03 84.13,-253.26 93.12,-258.86 94.65,-252.03"/>
</g>
<!-- abbrev&#45;d -->
<g id="node8" class="node">
<title>abbrev&#45;d</title>
<path fill="#1afabc" stroke="black" d="M523.33,-446.42C523.33,-446.42 569.33,-446.42 569.33,-446.42 575.33,-446.42 581.33,-452.42 581.33,-458.42 581.33,-458.42 581.33,-470.42 581.33,-470.42 581.33,-476.42 575.33,-482.42 569.33,-482.42 569.33,-482.42 523.33,-482.42 523.33,-482.42 517.33,-482.42 511.33,-476.42 511.33,-470.42 511.33,-470.42 511.33,-458.42 511.33,-458.42 511.33,-452.42 517.33,-446.42 523.33,-446.42"/>
<text text-anchor="middle" x="546.33" y="-460.72" font-family="Arial" font-size="14.00">abbrev&#45;d</text>
</g>
<!-- domains&#45;&gt;abbrev&#45;d -->
<g id="edge7" class="edge">
<title>domains&#45;&gt;abbrev&#45;d</title>
<path fill="none" stroke="#1f78b4" d="M356.55,-326.94C395.36,-355.06 470.02,-409.14 513.22,-440.44"/>
<polygon fill="#a6cee3" stroke="#1f78b4" points="511.27,-443.35 521.43,-446.38 515.38,-437.68 511.27,-443.35"/>
</g>
<!-- markup&#45;d -->
<g id="node9" class="node">
<title>markup&#45;d</title>
<path fill="#1afabc" stroke="black" d="M71.86,-143.79C71.86,-143.79 121.86,-143.79 121.86,-143.79 127.86,-143.79 133.86,-149.79 133.86,-155.79 133.86,-155.79 133.86,-167.79 133.86,-167.79 133.86,-173.79 127.86,-179.79 121.86,-179.79 121.86,-179.79 71.86,-179.79 71.86,-179.79 65.86,-179.79 59.86,-173.79 59.86,-167.79 59.86,-167.79 59.86,-155.79 59.86,-155.79 59.86,-149.79 65.86,-143.79 71.86,-143.79"/>
<text text-anchor="middle" x="96.86" y="-158.09" font-family="Arial" font-size="14.00">markup&#45;d</text>
</g>
<!-- domains&#45;&gt;markup&#45;d -->
<g id="edge8" class="edge">
<title>domains&#45;&gt;markup&#45;d</title>
<path fill="none" stroke="#1f78b4" d="M302.71,-290.76C260.41,-264.26 181.38,-214.74 134.51,-185.38"/>
<polygon fill="#a6cee3" stroke="#1f78b4" points="136.2,-182.3 125.87,-179.96 132.48,-188.24 136.2,-182.3"/>
</g>
<!-- mathml&#45;d -->
<g id="node10" class="node">
<title>mathml&#45;d</title>
<path fill="#1afabc" stroke="black" d="M548.46,-178.18C548.46,-178.18 598.46,-178.18 598.46,-178.18 604.46,-178.18 610.46,-184.18 610.46,-190.18 610.46,-190.18 610.46,-202.18 610.46,-202.18 610.46,-208.18 604.46,-214.18 598.46,-214.18 598.46,-214.18 548.46,-214.18 548.46,-214.18 542.46,-214.18 536.46,-208.18 536.46,-202.18 536.46,-202.18 536.46,-190.18 536.46,-190.18 536.46,-184.18 542.46,-178.18 548.46,-178.18"/>
<text text-anchor="middle" x="573.46" y="-192.48" font-family="Arial" font-size="14.00">mathml&#45;d</text>
</g>
<!-- domains&#45;&gt;mathml&#45;d -->
<g id="edge9" class="edge">
<title>domains&#45;&gt;mathml&#45;d</title>
<path fill="none" stroke="#1f78b4" d="M370.36,-290.69C413.01,-270.84 481.45,-238.99 526.93,-217.83"/>
<polygon fill="#a6cee3" stroke="#1f78b4" points="528.68,-220.88 536.27,-213.49 525.72,-214.53 528.68,-220.88"/>
</g>
<!-- svg&#45;d -->
<g id="node11" class="node">
<title>svg&#45;d</title>
<path fill="#1afabc" stroke="black" d="M463.42,-158.45C463.42,-158.45 493.42,-158.45 493.42,-158.45 499.42,-158.45 505.42,-164.45 505.42,-170.45 505.42,-170.45 505.42,-182.45 505.42,-182.45 505.42,-188.45 499.42,-194.45 493.42,-194.45 493.42,-194.45 463.42,-194.45 463.42,-194.45 457.42,-194.45 451.42,-188.45 451.42,-182.45 451.42,-182.45 451.42,-170.45 451.42,-170.45 451.42,-164.45 457.42,-158.45 463.42,-158.45"/>
<text text-anchor="middle" x="478.42" y="-172.75" font-family="Arial" font-size="14.00">svg&#45;d</text>
</g>
<!-- domains&#45;&gt;svg&#45;d -->
<g id="edge10" class="edge">
<title>domains&#45;&gt;svg&#45;d</title>
<path fill="none" stroke="#1f78b4" d="M351.6,-290.66C377.18,-267.63 421.47,-227.74 450.36,-201.72"/>
<polygon fill="#a6cee3" stroke="#1f78b4" points="452.98,-204.07 458.07,-194.78 448.3,-198.87 452.98,-204.07"/>
</g>
<!-- ui&#45;d -->
<g id="node12" class="node">
<title>ui&#45;d</title>
<path fill="#1afabc" stroke="black" d="M114.67,-235.85C114.67,-235.85 144.67,-235.85 144.67,-235.85 150.67,-235.85 156.67,-241.85 156.67,-247.85 156.67,-247.85 156.67,-259.85 156.67,-259.85 156.67,-265.85 150.67,-271.85 144.67,-271.85 144.67,-271.85 114.67,-271.85 114.67,-271.85 108.67,-271.85 102.67,-265.85 102.67,-259.85 102.67,-259.85 102.67,-247.85 102.67,-247.85 102.67,-241.85 108.67,-235.85 114.67,-235.85"/>
<text text-anchor="middle" x="129.67" y="-250.15" font-family="Arial" font-size="14.00">ui&#45;d</text>
</g>
<!-- domains&#45;&gt;ui&#45;d -->
<g id="edge11" class="edge">
<title>domains&#45;&gt;ui&#45;d</title>
<path fill="none" stroke="#1f78b4" d="M276.33,-293.77C241.52,-284.3 197.5,-272.32 166.81,-263.96"/>
<polygon fill="#a6cee3" stroke="#1f78b4" points="167.51,-260.53 156.94,-261.28 165.67,-267.28 167.51,-260.53"/>
</g>
<!-- equation&#45;d -->
<g id="node13" class="node">
<title>equation&#45;d</title>
<path fill="#1afabc" stroke="black" d="M112.93,-71.39C112.93,-71.39 168.93,-71.39 168.93,-71.39 174.93,-71.39 180.93,-77.39 180.93,-83.39 180.93,-83.39 180.93,-95.39 180.93,-95.39 180.93,-101.39 174.93,-107.39 168.93,-107.39 168.93,-107.39 112.93,-107.39 112.93,-107.39 106.93,-107.39 100.93,-101.39 100.93,-95.39 100.93,-95.39 100.93,-83.39 100.93,-83.39 100.93,-77.39 106.93,-71.39 112.93,-71.39"/>
<text text-anchor="middle" x="140.93" y="-85.69" font-family="Arial" font-size="14.00">equation&#45;d</text>
</g>
<!-- domains&#45;&gt;equation&#45;d -->
<g id="edge12" class="edge">
<title>domains&#45;&gt;equation&#45;d</title>
<path fill="none" stroke="#1f78b4" d="M315.56,-290.46C281.71,-251.48 202.49,-160.27 163.47,-115.34"/>
<polygon fill="#a6cee3" stroke="#1f78b4" points="165.87,-112.77 156.67,-107.51 160.59,-117.36 165.87,-112.77"/>
</g>
<!-- taskreq&#45;d -->
<g id="node14" class="node">
<title>taskreq&#45;d</title>
<path fill="#1afabc" stroke="black" d="M519.8,-256.11C519.8,-256.11 568.8,-256.11 568.8,-256.11 574.8,-256.11 580.8,-262.11 580.8,-268.11 580.8,-268.11 580.8,-280.11 580.8,-280.11 580.8,-286.11 574.8,-292.11 568.8,-292.11 568.8,-292.11 519.8,-292.11 519.8,-292.11 513.8,-292.11 507.8,-286.11 507.8,-280.11 507.8,-280.11 507.8,-268.11 507.8,-268.11 507.8,-262.11 513.8,-256.11 519.8,-256.11"/>
<text text-anchor="middle" x="544.3" y="-270.41" font-family="Arial" font-size="14.00">taskreq&#45;d</text>
</g>
<!-- domains&#45;&gt;taskreq&#45;d -->
<g id="edge13" class="edge">
<title>domains&#45;&gt;taskreq&#45;d</title>
<path fill="none" stroke="#1f78b4" d="M386.56,-299.81C420.9,-294.21 464.62,-287.09 497.32,-281.77"/>
<polygon fill="#a6cee3" stroke="#1f78b4" points="498.21,-285.17 507.52,-280.1 497.09,-278.26 498.21,-285.17"/>
</g>
<!-- pr&#45;d -->
<g id="node15" class="node">
<title>pr&#45;d</title>
<path fill="#1afabc" stroke="black" d="M476.09,-391.63C476.09,-391.63 506.09,-391.63 506.09,-391.63 512.09,-391.63 518.09,-397.63 518.09,-403.63 518.09,-403.63 518.09,-415.63 518.09,-415.63 518.09,-421.63 512.09,-427.63 506.09,-427.63 506.09,-427.63 476.09,-427.63 476.09,-427.63 470.09,-427.63 464.09,-421.63 464.09,-415.63 464.09,-415.63 464.09,-403.63 464.09,-403.63 464.09,-397.63 470.09,-391.63 476.09,-391.63"/>
<text text-anchor="middle" x="491.09" y="-405.93" font-family="Arial" font-size="14.00">pr&#45;d</text>
</g>
<!-- domains&#45;&gt;pr&#45;d -->
<g id="edge14" class="edge">
<title>domains&#45;&gt;pr&#45;d</title>
<path fill="none" stroke="#1f78b4" d="M360.01,-326.81C386.67,-343.65 426.55,-368.85 455.32,-387.03"/>
<polygon fill="#a6cee3" stroke="#1f78b4" points="453.54,-390.04 463.87,-392.43 457.28,-384.13 453.54,-390.04"/>
</g>
<!-- xml&#45;d -->
<g id="node16" class="node">
<title>xml&#45;d</title>
<path fill="#1afabc" stroke="black" d="M396.85,-525.8C396.85,-525.8 426.85,-525.8 426.85,-525.8 432.85,-525.8 438.85,-531.8 438.85,-537.8 438.85,-537.8 438.85,-549.8 438.85,-549.8 438.85,-555.8 432.85,-561.8 426.85,-561.8 426.85,-561.8 396.85,-561.8 396.85,-561.8 390.85,-561.8 384.85,-555.8 384.85,-549.8 384.85,-549.8 384.85,-537.8 384.85,-537.8 384.85,-531.8 390.85,-525.8 396.85,-525.8"/>
<text text-anchor="middle" x="411.85" y="-540.1" font-family="Arial" font-size="14.00">xml&#45;d</text>
</g>
<!-- domains&#45;&gt;xml&#45;d -->
<g id="edge15" class="edge">
<title>domains&#45;&gt;xml&#45;d</title>
<path fill="none" stroke="#1f78b4" d="M337.65,-326.84C351.62,-367.68 385.72,-467.4 402.38,-516.11"/>
<polygon fill="#a6cee3" stroke="#1f78b4" points="399.11,-517.36 405.66,-525.69 405.74,-515.1 399.11,-517.36"/>
</g>
<!-- glossref&#45;d -->
<g id="node17" class="node">
<title>glossref&#45;d</title>
<path fill="#1afabc" stroke="black" d="M198.66,-26.23C198.66,-26.23 250.66,-26.23 250.66,-26.23 256.66,-26.23 262.66,-32.23 262.66,-38.23 262.66,-38.23 262.66,-50.23 262.66,-50.23 262.66,-56.23 256.66,-62.23 250.66,-62.23 250.66,-62.23 198.66,-62.23 198.66,-62.23 192.66,-62.23 186.66,-56.23 186.66,-50.23 186.66,-50.23 186.66,-38.23 186.66,-38.23 186.66,-32.23 192.66,-26.23 198.66,-26.23"/>
<text text-anchor="middle" x="224.66" y="-40.53" font-family="Arial" font-size="14.00">glossref&#45;d</text>
</g>
<!-- domains&#45;&gt;glossref&#45;d -->
<g id="edge16" class="edge">
<title>domains&#45;&gt;glossref&#45;d</title>
<path fill="none" stroke="#1f78b4" d="M324.14,-290.6C305.76,-245.1 257.72,-126.11 235.82,-71.88"/>
<polygon fill="#a6cee3" stroke="#1f78b4" points="239.04,-70.5 232.05,-62.54 232.55,-73.12 239.04,-70.5"/>
</g>
<!-- sw&#45;d -->
<g id="node18" class="node">
<title>sw&#45;d</title>
<path fill="#1afabc" stroke="black" d="M158.06,-466.05C158.06,-466.05 188.06,-466.05 188.06,-466.05 194.06,-466.05 200.06,-472.05 200.06,-478.05 200.06,-478.05 200.06,-490.05 200.06,-490.05 200.06,-496.05 194.06,-502.05 188.06,-502.05 188.06,-502.05 158.06,-502.05 158.06,-502.05 152.06,-502.05 146.06,-496.05 146.06,-490.05 146.06,-490.05 146.06,-478.05 146.06,-478.05 146.06,-472.05 152.06,-466.05 158.06,-466.05"/>
<text text-anchor="middle" x="173.06" y="-480.35" font-family="Arial" font-size="14.00">sw&#45;d</text>
</g>
<!-- domains&#45;&gt;sw&#45;d -->
<g id="edge17" class="edge">
<title>domains&#45;&gt;sw&#45;d</title>
<path fill="none" stroke="#1f78b4" d="M315.12,-326.88C286.9,-358.1 228.97,-422.2 196.48,-458.14"/>
<polygon fill="#a6cee3" stroke="#1f78b4" points="193.68,-456.03 189.57,-465.79 198.87,-460.72 193.68,-456.03"/>
</g>
<!-- relmgmt&#45;d -->
<g id="node19" class="node">
<title>relmgmt&#45;d</title>
<path fill="#1afabc" stroke="black" d="M303.46,-50.58C303.46,-50.58 358.46,-50.58 358.46,-50.58 364.46,-50.58 370.46,-56.58 370.46,-62.58 370.46,-62.58 370.46,-74.58 370.46,-74.58 370.46,-80.58 364.46,-86.58 358.46,-86.58 358.46,-86.58 303.46,-86.58 303.46,-86.58 297.46,-86.58 291.46,-80.58 291.46,-74.58 291.46,-74.58 291.46,-62.58 291.46,-62.58 291.46,-56.58 297.46,-50.58 303.46,-50.58"/>
<text text-anchor="middle" x="330.96" y="-64.88" font-family="Arial" font-size="14.00">relmgmt&#45;d</text>
</g>
<!-- domains&#45;&gt;relmgmt&#45;d -->
<g id="edge18" class="edge">
<title>domains&#45;&gt;relmgmt&#45;d</title>
<path fill="none" stroke="#1f78b4" d="M331.44,-290.73C331.35,-249.26 331.13,-146.92 331.02,-96.95"/>
<polygon fill="#a6cee3" stroke="#1f78b4" points="334.52,-96.84 331,-86.85 327.52,-96.85 334.52,-96.84"/>
</g>
<!-- xnal&#45;d -->
<g id="node20" class="node">
<title>xnal&#45;d</title>
<path fill="#1afabc" stroke="black" d="M109.93,-363.14C109.93,-363.14 139.93,-363.14 139.93,-363.14 145.93,-363.14 151.93,-369.14 151.93,-375.14 151.93,-375.14 151.93,-387.14 151.93,-387.14 151.93,-393.14 145.93,-399.14 139.93,-399.14 139.93,-399.14 109.93,-399.14 109.93,-399.14 103.93,-399.14 97.93,-393.14 97.93,-387.14 97.93,-387.14 97.93,-375.14 97.93,-375.14 97.93,-369.14 103.93,-363.14 109.93,-363.14"/>
<text text-anchor="middle" x="124.93" y="-377.44" font-family="Arial" font-size="14.00">xnal&#45;d</text>
</g>
<!-- domains&#45;&gt;xnal&#45;d -->
<g id="edge19" class="edge">
<title>domains&#45;&gt;xnal&#45;d</title>
<path fill="none" stroke="#1f78b4" d="M279.89,-326.86C243.18,-339.72 194.73,-356.69 161.85,-368.21"/>
<polygon fill="#a6cee3" stroke="#1f78b4" points="160.46,-364.99 152.18,-371.6 162.77,-371.59 160.46,-364.99"/>
</g>
<!-- ditavalref&#45;d -->
<g id="node21" class="node">
<title>ditavalref&#45;d</title>
<path fill="#1afabc" stroke="black" d="M50.65,-440.23C50.65,-440.23 109.65,-440.23 109.65,-440.23 115.65,-440.23 121.65,-446.23 121.65,-452.23 121.65,-452.23 121.65,-464.23 121.65,-464.23 121.65,-470.23 115.65,-476.23 109.65,-476.23 109.65,-476.23 50.65,-476.23 50.65,-476.23 44.65,-476.23 38.65,-470.23 38.65,-464.23 38.65,-464.23 38.65,-452.23 38.65,-452.23 38.65,-446.23 44.65,-440.23 50.65,-440.23"/>
<text text-anchor="middle" x="80.15" y="-454.53" font-family="Arial" font-size="14.00">ditavalref&#45;d</text>
</g>
<!-- domains&#45;&gt;ditavalref&#45;d -->
<g id="edge20" class="edge">
<title>domains&#45;&gt;ditavalref&#45;d</title>
<path fill="none" stroke="#1f78b4" d="M301.16,-326.81C255.59,-353.91 169.44,-405.14 119.22,-435"/>
<polygon fill="#a6cee3" stroke="#1f78b4" points="117.38,-432.02 110.58,-440.14 120.96,-438.04 117.38,-432.02"/>
</g>
<!-- delay&#45;d -->
<g id="node22" class="node">
<title>delay&#45;d</title>
<path fill="#1afabc" stroke="black" d="M211.31,-111.11C211.31,-111.11 248.31,-111.11 248.31,-111.11 254.31,-111.11 260.31,-117.11 260.31,-123.11 260.31,-123.11 260.31,-135.11 260.31,-135.11 260.31,-141.11 254.31,-147.11 248.31,-147.11 248.31,-147.11 211.31,-147.11 211.31,-147.11 205.31,-147.11 199.31,-141.11 199.31,-135.11 199.31,-135.11 199.31,-123.11 199.31,-123.11 199.31,-117.11 205.31,-111.11 211.31,-111.11"/>
<text text-anchor="middle" x="229.81" y="-125.41" font-family="Arial" font-size="14.00">delay&#45;d</text>
</g>
<!-- domains&#45;&gt;delay&#45;d -->
<g id="edge21" class="edge">
<title>domains&#45;&gt;delay&#45;d</title>
<path fill="none" stroke="#1f78b4" d="M321.17,-290.57C303.21,-258.82 266.09,-193.21 245.11,-156.15"/>
<polygon fill="#a6cee3" stroke="#1f78b4" points="248.12,-154.36 240.15,-147.38 242.03,-157.8 248.12,-154.36"/>
</g>
<!-- indexing&#45;d -->
<g id="node23" class="node">
<title>indexing&#45;d</title>
<path fill="#1afabc" stroke="black" d="M550.58,-349.26C550.58,-349.26 605.58,-349.26 605.58,-349.26 611.58,-349.26 617.58,-355.26 617.58,-361.26 617.58,-361.26 617.58,-373.26 617.58,-373.26 617.58,-379.26 611.58,-385.26 605.58,-385.26 605.58,-385.26 550.58,-385.26 550.58,-385.26 544.58,-385.26 538.58,-379.26 538.58,-373.26 538.58,-373.26 538.58,-361.26 538.58,-361.26 538.58,-355.26 544.58,-349.26 550.58,-349.26"/>
<text text-anchor="middle" x="578.08" y="-363.56" font-family="Arial" font-size="14.00">indexing&#45;d</text>
</g>
<!-- domains&#45;&gt;indexing&#45;d -->
<g id="edge22" class="edge">
<title>domains&#45;&gt;indexing&#45;d</title>
<path fill="none" stroke="#1f78b4" d="M386.51,-321.83C429.14,-331.94 487.65,-345.82 528.76,-355.57"/>
<polygon fill="#a6cee3" stroke="#1f78b4" points="528.01,-358.99 538.55,-357.89 529.63,-352.18 528.01,-358.99"/>
</g>
<!-- hazard&#45;d -->
<g id="node24" class="node">
<title>hazard&#45;d</title>
<path fill="#1afabc" stroke="black" d="M460.41,-506.94C460.41,-506.94 506.41,-506.94 506.41,-506.94 512.41,-506.94 518.41,-512.94 518.41,-518.94 518.41,-518.94 518.41,-530.94 518.41,-530.94 518.41,-536.94 512.41,-542.94 506.41,-542.94 506.41,-542.94 460.41,-542.94 460.41,-542.94 454.41,-542.94 448.41,-536.94 448.41,-530.94 448.41,-530.94 448.41,-518.94 448.41,-518.94 448.41,-512.94 454.41,-506.94 460.41,-506.94"/>
<text text-anchor="middle" x="483.41" y="-521.24" font-family="Arial" font-size="14.00">hazard&#45;d</text>
</g>
<!-- domains&#45;&gt;hazard&#45;d -->
<g id="edge23" class="edge">
<title>domains&#45;&gt;hazard&#45;d</title>
<path fill="none" stroke="#1f78b4" d="M344.17,-326.84C370.98,-364.99 433.49,-453.92 464.81,-498.49"/>
<polygon fill="#a6cee3" stroke="#1f78b4" points="462.03,-500.62 470.64,-506.79 467.76,-496.59 462.03,-500.62"/>
</g>
<!-- hi&#45;d -->
<g id="node25" class="node">
<title>hi&#45;d</title>
<path fill="#1afabc" stroke="black" d="M229.36,-519.71C229.36,-519.71 259.36,-519.71 259.36,-519.71 265.36,-519.71 271.36,-525.71 271.36,-531.71 271.36,-531.71 271.36,-543.71 271.36,-543.71 271.36,-549.71 265.36,-555.71 259.36,-555.71 259.36,-555.71 229.36,-555.71 229.36,-555.71 223.36,-555.71 217.36,-549.71 217.36,-543.71 217.36,-543.71 217.36,-531.71 217.36,-531.71 217.36,-525.71 223.36,-519.71 229.36,-519.71"/>
<text text-anchor="middle" x="244.36" y="-534.01" font-family="Arial" font-size="14.00">hi&#45;d</text>
</g>
<!-- domains&#45;&gt;hi&#45;d -->
<g id="edge24" class="edge">
<title>domains&#45;&gt;hi&#45;d</title>
<path fill="none" stroke="#1f78b4" d="M324.5,-327.13C309.26,-367.16 272.96,-462.55 254.92,-509.97"/>
<polygon fill="#a6cee3" stroke="#1f78b4" points="251.54,-509 251.26,-519.59 258.08,-511.49 251.54,-509"/>
</g>
<!-- mapgroup&#45;d -->
<g id="node26" class="node">
<title>mapgroup&#45;d</title>
<path fill="#1afabc" stroke="black" d="M486.79,-79.26C486.79,-79.26 552.79,-79.26 552.79,-79.26 558.79,-79.26 564.79,-85.26 564.79,-91.26 564.79,-91.26 564.79,-103.26 564.79,-103.26 564.79,-109.26 558.79,-115.26 552.79,-115.26 552.79,-115.26 486.79,-115.26 486.79,-115.26 480.79,-115.26 474.79,-109.26 474.79,-103.26 474.79,-103.26 474.79,-91.26 474.79,-91.26 474.79,-85.26 480.79,-79.26 486.79,-79.26"/>
<text text-anchor="middle" x="519.79" y="-93.56" font-family="Arial" font-size="14.00">mapgroup&#45;d</text>
</g>
<!-- domains&#45;&gt;mapgroup&#45;d -->
<g id="edge25" class="edge">
<title>domains&#45;&gt;mapgroup&#45;d</title>
<path fill="none" stroke="#1f78b4" d="M347.53,-290.75C380.94,-253.22 458.04,-166.62 496.75,-123.14"/>
<polygon fill="#a6cee3" stroke="#1f78b4" points="499.47,-125.34 503.51,-115.55 494.24,-120.69 499.47,-125.34"/>
</g>
<!-- ut&#45;d -->
<g id="node27" class="node">
<title>ut&#45;d</title>
<path fill="#1afabc" stroke="black" d="M323.39,-498.03C323.39,-498.03 353.39,-498.03 353.39,-498.03 359.39,-498.03 365.39,-504.03 365.39,-510.03 365.39,-510.03 365.39,-522.03 365.39,-522.03 365.39,-528.03 359.39,-534.03 353.39,-534.03 353.39,-534.03 323.39,-534.03 323.39,-534.03 317.39,-534.03 311.39,-528.03 311.39,-522.03 311.39,-522.03 311.39,-510.03 311.39,-510.03 311.39,-504.03 317.39,-498.03 323.39,-498.03"/>
<text text-anchor="middle" x="338.39" y="-512.33" font-family="Arial" font-size="14.00">ut&#45;d</text>
</g>
<!-- domains&#45;&gt;ut&#45;d -->
<g id="edge26" class="edge">
<title>domains&#45;&gt;ut&#45;d</title>
<path fill="none" stroke="#1f78b4" d="M332.08,-326.81C333.29,-362.95 336.01,-444.46 337.45,-487.76"/>
<polygon fill="#a6cee3" stroke="#1f78b4" points="333.96,-488.02 337.79,-497.89 340.95,-487.78 333.96,-488.02"/>
</g>
<!-- classify&#45;d -->
<g id="node28" class="node">
<title>classify&#45;d</title>
<path fill="#1afabc" stroke="black" d="M397.2,-75.68C397.2,-75.68 446.2,-75.68 446.2,-75.68 452.2,-75.68 458.2,-81.68 458.2,-87.68 458.2,-87.68 458.2,-99.68 458.2,-99.68 458.2,-105.68 452.2,-111.68 446.2,-111.68 446.2,-111.68 397.2,-111.68 397.2,-111.68 391.2,-111.68 385.2,-105.68 385.2,-99.68 385.2,-99.68 385.2,-87.68 385.2,-87.68 385.2,-81.68 391.2,-75.68 397.2,-75.68"/>
<text text-anchor="middle" x="421.7" y="-89.98" font-family="Arial" font-size="14.00">classify&#45;d</text>
</g>
<!-- domains&#45;&gt;classify&#45;d -->
<g id="edge27" class="edge">
<title>domains&#45;&gt;classify&#45;d</title>
<path fill="none" stroke="#1f78b4" d="M339.17,-290.44C355.02,-252.66 391.38,-165.96 410.1,-121.33"/>
<polygon fill="#a6cee3" stroke="#1f78b4" points="413.39,-122.54 414.03,-111.97 406.93,-119.84 413.39,-122.54"/>
</g>
</g>
</svg>
