<?xml version="1.0" encoding="UTF-8" standalone="no"?>
<!DOCTYPE svg PUBLIC "-//W3C//DTD SVG 1.1//EN"
 "http://www.w3.org/Graphics/SVG/1.1/DTD/svg11.dtd">
<!-- Generated by graphviz version 6.0.1 (20220911.1526)
 -->
<!-- Pages: 1 -->
<svg width="989pt" height="1087pt"
 viewBox="0.00 0.00 989.00 1087.00" xmlns="http://www.w3.org/2000/svg" xmlns:xlink="http://www.w3.org/1999/xlink">
<g id="graph0" class="graph" transform="scale(1 1) rotate(0) translate(4 1083)">
<polygon fill="white" stroke="none" points="-4,4 -4,-1083 985,-1083 985,4 -4,4"/>
<!-- learning2&#45;d -->
<g id="node1" class="node">
<title>learning2&#45;d</title>
<path fill="#dddddd" stroke="black" d="M433.22,-559.82C433.22,-559.82 493.22,-559.82 493.22,-559.82 499.22,-559.82 505.22,-565.82 505.22,-571.82 505.22,-571.82 505.22,-583.82 505.22,-583.82 505.22,-589.82 499.22,-595.82 493.22,-595.82 493.22,-595.82 433.22,-595.82 433.22,-595.82 427.22,-595.82 421.22,-589.82 421.22,-583.82 421.22,-583.82 421.22,-571.82 421.22,-571.82 421.22,-565.82 427.22,-559.82 433.22,-559.82"/>
<text text-anchor="middle" x="463.22" y="-574.12" font-family="Arial" font-size="14.00">learning2&#45;d</text>
</g>
<!-- note -->
<g id="node2" class="node">
<title>note</title>
<path fill="#afa7f4" stroke="black" d="M302.26,-439.45C302.26,-439.45 332.26,-439.45 332.26,-439.45 338.26,-439.45 344.26,-445.45 344.26,-451.45 344.26,-451.45 344.26,-463.45 344.26,-463.45 344.26,-469.45 338.26,-475.45 332.26,-475.45 332.26,-475.45 302.26,-475.45 302.26,-475.45 296.26,-475.45 290.26,-469.45 290.26,-463.45 290.26,-463.45 290.26,-451.45 290.26,-451.45 290.26,-445.45 296.26,-439.45 302.26,-439.45"/>
<text text-anchor="middle" x="317.26" y="-453.75" font-family="Arial" font-size="14.00">note</text>
</g>
<!-- learning2&#45;d&#45;&gt;note -->
<g id="edge1" class="edge">
<title>learning2&#45;d&#45;&gt;note</title>
<path fill="none" stroke="#1f78b4" d="M441.37,-559.8C416.32,-539.15 375.14,-505.18 347.14,-482.09"/>
<polygon fill="#a6cee3" stroke="#1f78b4" points="349.2,-479.26 339.26,-475.6 344.75,-484.66 349.2,-479.26"/>
</g>
<!-- lcInteractionBase2 -->
<g id="node4" class="node">
<title>lcInteractionBase2</title>
<path fill="#afa7f4" stroke="black" d="M353.15,-211.46C353.15,-211.46 457.15,-211.46 457.15,-211.46 463.15,-211.46 469.15,-217.46 469.15,-223.46 469.15,-223.46 469.15,-235.46 469.15,-235.46 469.15,-241.46 463.15,-247.46 457.15,-247.46 457.15,-247.46 353.15,-247.46 353.15,-247.46 347.15,-247.46 341.15,-241.46 341.15,-235.46 341.15,-235.46 341.15,-223.46 341.15,-223.46 341.15,-217.46 347.15,-211.46 353.15,-211.46"/>
<text text-anchor="middle" x="405.15" y="-225.76" font-family="Arial" font-size="14.00">lcInteractionBase2</text>
</g>
<!-- learning2&#45;d&#45;&gt;lcInteractionBase2 -->
<g id="edge3" class="edge">
<title>learning2&#45;d&#45;&gt;lcInteractionBase2</title>
<path fill="none" stroke="#1f78b4" d="M460.18,-559.58C450.65,-502.44 421.34,-326.61 409.85,-257.64"/>
<polygon fill="#a6cee3" stroke="#1f78b4" points="413.26,-256.81 408.16,-247.52 406.35,-257.96 413.26,-256.81"/>
</g>
<!-- lcQuestionBase2 -->
<g id="node12" class="node">
<title>lcQuestionBase2</title>
<path fill="#afa7f4" stroke="black" d="M333.87,-767.91C333.87,-767.91 428.87,-767.91 428.87,-767.91 434.87,-767.91 440.87,-773.91 440.87,-779.91 440.87,-779.91 440.87,-791.91 440.87,-791.91 440.87,-797.91 434.87,-803.91 428.87,-803.91 428.87,-803.91 333.87,-803.91 333.87,-803.91 327.87,-803.91 321.87,-797.91 321.87,-791.91 321.87,-791.91 321.87,-779.91 321.87,-779.91 321.87,-773.91 327.87,-767.91 333.87,-767.91"/>
<text text-anchor="middle" x="381.37" y="-782.21" font-family="Arial" font-size="14.00">lcQuestionBase2</text>
</g>
<!-- learning2&#45;d&#45;&gt;lcQuestionBase2 -->
<g id="edge11" class="edge">
<title>learning2&#45;d&#45;&gt;lcQuestionBase2</title>
<path fill="none" stroke="#1f78b4" d="M456.1,-595.92C441.74,-632.43 409.22,-715.09 392.21,-758.35"/>
<polygon fill="#a6cee3" stroke="#1f78b4" points="388.93,-757.11 388.53,-767.7 395.45,-759.68 388.93,-757.11"/>
</g>
<!-- div -->
<g id="node14" class="node">
<title>div</title>
<path fill="#afa7f4" stroke="black" d="M512.66,-829.61C512.66,-829.61 542.66,-829.61 542.66,-829.61 548.66,-829.61 554.66,-835.61 554.66,-841.61 554.66,-841.61 554.66,-853.61 554.66,-853.61 554.66,-859.61 548.66,-865.61 542.66,-865.61 542.66,-865.61 512.66,-865.61 512.66,-865.61 506.66,-865.61 500.66,-859.61 500.66,-853.61 500.66,-853.61 500.66,-841.61 500.66,-841.61 500.66,-835.61 506.66,-829.61 512.66,-829.61"/>
<text text-anchor="middle" x="527.66" y="-843.91" font-family="Arial" font-size="14.00">div</text>
</g>
<!-- learning2&#45;d&#45;&gt;div -->
<g id="edge13" class="edge">
<title>learning2&#45;d&#45;&gt;div</title>
<path fill="none" stroke="#1f78b4" d="M467.55,-595.94C478.58,-642.11 507.79,-764.43 521,-819.75"/>
<polygon fill="#a6cee3" stroke="#1f78b4" points="517.62,-820.66 523.35,-829.57 524.43,-819.03 517.62,-820.66"/>
</g>
<!-- ul -->
<g id="node21" class="node">
<title>ul</title>
<path fill="#afa7f4" stroke="black" d="M266.12,-496.24C266.12,-496.24 296.12,-496.24 296.12,-496.24 302.12,-496.24 308.12,-502.24 308.12,-508.24 308.12,-508.24 308.12,-520.24 308.12,-520.24 308.12,-526.24 302.12,-532.24 296.12,-532.24 296.12,-532.24 266.12,-532.24 266.12,-532.24 260.12,-532.24 254.12,-526.24 254.12,-520.24 254.12,-520.24 254.12,-508.24 254.12,-508.24 254.12,-502.24 260.12,-496.24 266.12,-496.24"/>
<text text-anchor="middle" x="281.12" y="-510.54" font-family="Arial" font-size="14.00">ul</text>
</g>
<!-- learning2&#45;d&#45;&gt;ul -->
<g id="edge20" class="edge">
<title>learning2&#45;d&#45;&gt;ul</title>
<path fill="none" stroke="#1f78b4" d="M420.99,-563.07C389.74,-552.17 347.61,-537.45 317.77,-527.04"/>
<polygon fill="#a6cee3" stroke="#1f78b4" points="318.76,-523.67 308.16,-523.68 316.45,-530.28 318.76,-523.67"/>
</g>
<!-- ol -->
<g id="node23" class="node">
<title>ol</title>
<path fill="#afa7f4" stroke="black" d="M370.71,-709.35C370.71,-709.35 400.71,-709.35 400.71,-709.35 406.71,-709.35 412.71,-715.35 412.71,-721.35 412.71,-721.35 412.71,-733.35 412.71,-733.35 412.71,-739.35 406.71,-745.35 400.71,-745.35 400.71,-745.35 370.71,-745.35 370.71,-745.35 364.71,-745.35 358.71,-739.35 358.71,-733.35 358.71,-733.35 358.71,-721.35 358.71,-721.35 358.71,-715.35 364.71,-709.35 370.71,-709.35"/>
<text text-anchor="middle" x="385.71" y="-723.65" font-family="Arial" font-size="14.00">ol</text>
</g>
<!-- learning2&#45;d&#45;&gt;ol -->
<g id="edge22" class="edge">
<title>learning2&#45;d&#45;&gt;ol</title>
<path fill="none" stroke="#1f78b4" d="M453.87,-595.86C440.43,-621.79 415.53,-669.82 399.84,-700.09"/>
<polygon fill="#a6cee3" stroke="#1f78b4" points="396.59,-698.76 395.09,-709.25 402.8,-701.98 396.59,-698.76"/>
</g>
<!-- li -->
<g id="node25" class="node">
<title>li</title>
<path fill="#afa7f4" stroke="black" d="M611.21,-420.32C611.21,-420.32 641.21,-420.32 641.21,-420.32 647.21,-420.32 653.21,-426.32 653.21,-432.32 653.21,-432.32 653.21,-444.32 653.21,-444.32 653.21,-450.32 647.21,-456.32 641.21,-456.32 641.21,-456.32 611.21,-456.32 611.21,-456.32 605.21,-456.32 599.21,-450.32 599.21,-444.32 599.21,-444.32 599.21,-432.32 599.21,-432.32 599.21,-426.32 605.21,-420.32 611.21,-420.32"/>
<text text-anchor="middle" x="626.21" y="-434.62" font-family="Arial" font-size="14.00">li</text>
</g>
<!-- learning2&#45;d&#45;&gt;li -->
<g id="edge24" class="edge">
<title>learning2&#45;d&#45;&gt;li</title>
<path fill="none" stroke="#1f78b4" d="M484.53,-559.58C513.41,-534.87 565.06,-490.66 597.38,-463"/>
<polygon fill="#a6cee3" stroke="#1f78b4" points="599.84,-465.5 605.16,-456.34 595.28,-460.18 599.84,-465.5"/>
</g>
<!-- simpletable -->
<g id="node28" class="node">
<title>simpletable</title>
<path fill="#afa7f4" stroke="black" d="M514.58,-376.19C514.58,-376.19 576.58,-376.19 576.58,-376.19 582.58,-376.19 588.58,-382.19 588.58,-388.19 588.58,-388.19 588.58,-400.19 588.58,-400.19 588.58,-406.19 582.58,-412.19 576.58,-412.19 576.58,-412.19 514.58,-412.19 514.58,-412.19 508.58,-412.19 502.58,-406.19 502.58,-400.19 502.58,-400.19 502.58,-388.19 502.58,-388.19 502.58,-382.19 508.58,-376.19 514.58,-376.19"/>
<text text-anchor="middle" x="545.58" y="-390.49" font-family="Arial" font-size="14.00">simpletable</text>
</g>
<!-- learning2&#45;d&#45;&gt;simpletable -->
<g id="edge27" class="edge">
<title>learning2&#45;d&#45;&gt;simpletable</title>
<path fill="none" stroke="#1f78b4" d="M471.42,-559.54C485.91,-527.23 516.13,-459.86 533.18,-421.84"/>
<polygon fill="#a6cee3" stroke="#1f78b4" points="536.52,-422.95 537.42,-412.39 530.13,-420.09 536.52,-422.95"/>
</g>
<!-- sthead -->
<g id="node30" class="node">
<title>sthead</title>
<path fill="#afa7f4" stroke="black" d="M618.85,-583.81C618.85,-583.81 651.85,-583.81 651.85,-583.81 657.85,-583.81 663.85,-589.81 663.85,-595.81 663.85,-595.81 663.85,-607.81 663.85,-607.81 663.85,-613.81 657.85,-619.81 651.85,-619.81 651.85,-619.81 618.85,-619.81 618.85,-619.81 612.85,-619.81 606.85,-613.81 606.85,-607.81 606.85,-607.81 606.85,-595.81 606.85,-595.81 606.85,-589.81 612.85,-583.81 618.85,-583.81"/>
<text text-anchor="middle" x="635.35" y="-598.11" font-family="Arial" font-size="14.00">sthead</text>
</g>
<!-- learning2&#45;d&#45;&gt;sthead -->
<g id="edge29" class="edge">
<title>learning2&#45;d&#45;&gt;sthead</title>
<path fill="none" stroke="#1f78b4" d="M505.33,-583.69C533.21,-587.58 569.52,-592.64 596.68,-596.42"/>
<polygon fill="#a6cee3" stroke="#1f78b4" points="596.21,-599.89 606.6,-597.81 597.18,-592.96 596.21,-599.89"/>
</g>
<!-- strow -->
<g id="node32" class="node">
<title>strow</title>
<path fill="#afa7f4" stroke="black" d="M372.11,-397.86C372.11,-397.86 402.11,-397.86 402.11,-397.86 408.11,-397.86 414.11,-403.86 414.11,-409.86 414.11,-409.86 414.11,-421.86 414.11,-421.86 414.11,-427.86 408.11,-433.86 402.11,-433.86 402.11,-433.86 372.11,-433.86 372.11,-433.86 366.11,-433.86 360.11,-427.86 360.11,-421.86 360.11,-421.86 360.11,-409.86 360.11,-409.86 360.11,-403.86 366.11,-397.86 372.11,-397.86"/>
<text text-anchor="middle" x="387.11" y="-412.16" font-family="Arial" font-size="14.00">strow</text>
</g>
<!-- learning2&#45;d&#45;&gt;strow -->
<g id="edge31" class="edge">
<title>learning2&#45;d&#45;&gt;strow</title>
<path fill="none" stroke="#1f78b4" d="M454.64,-559.56C441.33,-531.24 415.64,-476.58 400.07,-443.44"/>
<polygon fill="#a6cee3" stroke="#1f78b4" points="403.2,-441.87 395.78,-434.3 396.86,-444.84 403.2,-441.87"/>
</g>
<!-- stentry -->
<g id="node34" class="node">
<title>stentry</title>
<path fill="#afa7f4" stroke="black" d="M646.02,-668.91C646.02,-668.91 679.02,-668.91 679.02,-668.91 685.02,-668.91 691.02,-674.91 691.02,-680.91 691.02,-680.91 691.02,-692.91 691.02,-692.91 691.02,-698.91 685.02,-704.91 679.02,-704.91 679.02,-704.91 646.02,-704.91 646.02,-704.91 640.02,-704.91 634.02,-698.91 634.02,-692.91 634.02,-692.91 634.02,-680.91 634.02,-680.91 634.02,-674.91 640.02,-668.91 646.02,-668.91"/>
<text text-anchor="middle" x="662.52" y="-683.21" font-family="Arial" font-size="14.00">stentry</text>
</g>
<!-- learning2&#45;d&#45;&gt;stentry -->
<g id="edge33" class="edge">
<title>learning2&#45;d&#45;&gt;stentry</title>
<path fill="none" stroke="#1f78b4" d="M496.13,-595.83C531.5,-615.19 587.63,-645.91 624.76,-666.24"/>
<polygon fill="#a6cee3" stroke="#1f78b4" points="623.32,-669.44 633.77,-671.17 626.68,-663.3 623.32,-669.44"/>
</g>
<!-- figgroup -->
<g id="node38" class="node">
<title>figgroup</title>
<path fill="#afa7f4" stroke="black" d="M214.25,-566.56C214.25,-566.56 255.25,-566.56 255.25,-566.56 261.25,-566.56 267.25,-572.56 267.25,-578.56 267.25,-578.56 267.25,-590.56 267.25,-590.56 267.25,-596.56 261.25,-602.56 255.25,-602.56 255.25,-602.56 214.25,-602.56 214.25,-602.56 208.25,-602.56 202.25,-596.56 202.25,-590.56 202.25,-590.56 202.25,-578.56 202.25,-578.56 202.25,-572.56 208.25,-566.56 214.25,-566.56"/>
<text text-anchor="middle" x="234.75" y="-580.86" font-family="Arial" font-size="14.00">figgroup</text>
</g>
<!-- learning2&#45;d&#45;&gt;figgroup -->
<g id="edge37" class="edge">
<title>learning2&#45;d&#45;&gt;figgroup</title>
<path fill="none" stroke="#1f78b4" d="M421.05,-579.06C380.25,-580.27 318.71,-582.08 277.66,-583.29"/>
<polygon fill="#a6cee3" stroke="#1f78b4" points="277.33,-579.8 267.44,-583.6 277.53,-586.8 277.33,-579.8"/>
</g>
<!-- keyword -->
<g id="node41" class="node">
<title>keyword</title>
<path fill="#afa7f4" stroke="black" d="M250.8,-623.97C250.8,-623.97 293.8,-623.97 293.8,-623.97 299.8,-623.97 305.8,-629.97 305.8,-635.97 305.8,-635.97 305.8,-647.97 305.8,-647.97 305.8,-653.97 299.8,-659.97 293.8,-659.97 293.8,-659.97 250.8,-659.97 250.8,-659.97 244.8,-659.97 238.8,-653.97 238.8,-647.97 238.8,-647.97 238.8,-635.97 238.8,-635.97 238.8,-629.97 244.8,-623.97 250.8,-623.97"/>
<text text-anchor="middle" x="272.3" y="-638.27" font-family="Arial" font-size="14.00">keyword</text>
</g>
<!-- learning2&#45;d&#45;&gt;keyword -->
<g id="edge40" class="edge">
<title>learning2&#45;d&#45;&gt;keyword</title>
<path fill="none" stroke="#1f78b4" d="M420.85,-592.06C389.62,-602.55 347.28,-616.77 315.79,-627.35"/>
<polygon fill="#a6cee3" stroke="#1f78b4" points="314.34,-624.15 305.98,-630.65 316.57,-630.78 314.34,-624.15"/>
</g>
<!-- ph -->
<g id="node43" class="node">
<title>ph</title>
<path fill="#afa7f4" stroke="black" d="M305.6,-676.78C305.6,-676.78 335.6,-676.78 335.6,-676.78 341.6,-676.78 347.6,-682.78 347.6,-688.78 347.6,-688.78 347.6,-700.78 347.6,-700.78 347.6,-706.78 341.6,-712.78 335.6,-712.78 335.6,-712.78 305.6,-712.78 305.6,-712.78 299.6,-712.78 293.6,-706.78 293.6,-700.78 293.6,-700.78 293.6,-688.78 293.6,-688.78 293.6,-682.78 299.6,-676.78 305.6,-676.78"/>
<text text-anchor="middle" x="320.6" y="-691.08" font-family="Arial" font-size="14.00">ph</text>
</g>
<!-- learning2&#45;d&#45;&gt;ph -->
<g id="edge42" class="edge">
<title>learning2&#45;d&#45;&gt;ph</title>
<path fill="none" stroke="#1f78b4" d="M441.25,-595.84C417.03,-615.7 377.92,-647.77 350.82,-670"/>
<polygon fill="#a6cee3" stroke="#1f78b4" points="348.34,-667.5 342.83,-676.55 352.78,-672.92 348.34,-667.5"/>
</g>
<!-- data -->
<g id="node45" class="node">
<title>data</title>
<path fill="#afa7f4" stroke="black" d="M660.97,-504.36C660.97,-504.36 690.97,-504.36 690.97,-504.36 696.97,-504.36 702.97,-510.36 702.97,-516.36 702.97,-516.36 702.97,-528.36 702.97,-528.36 702.97,-534.36 696.97,-540.36 690.97,-540.36 690.97,-540.36 660.97,-540.36 660.97,-540.36 654.97,-540.36 648.97,-534.36 648.97,-528.36 648.97,-528.36 648.97,-516.36 648.97,-516.36 648.97,-510.36 654.97,-504.36 660.97,-504.36"/>
<text text-anchor="middle" x="675.97" y="-518.66" font-family="Arial" font-size="14.00">data</text>
</g>
<!-- learning2&#45;d&#45;&gt;data -->
<g id="edge44" class="edge">
<title>learning2&#45;d&#45;&gt;data</title>
<path fill="none" stroke="#1f78b4" d="M505.25,-566.86C544.22,-556.71 601.63,-541.74 638.91,-532.02"/>
<polygon fill="#a6cee3" stroke="#1f78b4" points="640.07,-535.34 648.87,-529.43 638.31,-528.57 640.07,-535.34"/>
</g>
<!-- lcInstructornote2 -->
<g id="node3" class="node">
<title>lcInstructornote2</title>
<path fill="#1afabc" stroke="black" d="M122.01,-347.13C122.01,-347.13 214.01,-347.13 214.01,-347.13 220.01,-347.13 226.01,-353.13 226.01,-359.13 226.01,-359.13 226.01,-371.13 226.01,-371.13 226.01,-377.13 220.01,-383.13 214.01,-383.13 214.01,-383.13 122.01,-383.13 122.01,-383.13 116.01,-383.13 110.01,-377.13 110.01,-371.13 110.01,-371.13 110.01,-359.13 110.01,-359.13 110.01,-353.13 116.01,-347.13 122.01,-347.13"/>
<text text-anchor="middle" x="168.01" y="-361.43" font-family="Arial" font-size="14.00">lcInstructornote2</text>
</g>
<!-- note&#45;&gt;lcInstructornote2 -->
<g id="edge2" class="edge">
<title>note&#45;&gt;lcInstructornote2</title>
<path fill="none" stroke="#1f78b4" d="M290.23,-440.74C266.61,-426.12 232.07,-404.76 205.73,-388.46"/>
<polygon fill="#a6cee3" stroke="#1f78b4" points="207.48,-385.43 197.14,-383.15 203.8,-391.38 207.48,-385.43"/>
</g>
<!-- lcTrueFalse2 -->
<g id="node5" class="node">
<title>lcTrueFalse2</title>
<path fill="#1afabc" stroke="black" d="M194.13,-107.12C194.13,-107.12 265.13,-107.12 265.13,-107.12 271.13,-107.12 277.13,-113.12 277.13,-119.12 277.13,-119.12 277.13,-131.12 277.13,-131.12 277.13,-137.12 271.13,-143.12 265.13,-143.12 265.13,-143.12 194.13,-143.12 194.13,-143.12 188.13,-143.12 182.13,-137.12 182.13,-131.12 182.13,-131.12 182.13,-119.12 182.13,-119.12 182.13,-113.12 188.13,-107.12 194.13,-107.12"/>
<text text-anchor="middle" x="229.63" y="-121.42" font-family="Arial" font-size="14.00">lcTrueFalse2</text>
</g>
<!-- lcInteractionBase2&#45;&gt;lcTrueFalse2 -->
<g id="edge4" class="edge">
<title>lcInteractionBase2&#45;&gt;lcTrueFalse2</title>
<path fill="none" stroke="#1f78b4" d="M374.58,-211.29C345.22,-193.84 300.74,-167.39 268.8,-148.41"/>
<polygon fill="#a6cee3" stroke="#1f78b4" points="270.53,-145.36 260.15,-143.26 266.95,-151.38 270.53,-145.36"/>
</g>
<!-- lcSingleSelect2 -->
<g id="node6" class="node">
<title>lcSingleSelect2</title>
<path fill="#1afabc" stroke="black" d="M222,-54.29C222,-54.29 307,-54.29 307,-54.29 313,-54.29 319,-60.29 319,-66.29 319,-66.29 319,-78.29 319,-78.29 319,-84.29 313,-90.29 307,-90.29 307,-90.29 222,-90.29 222,-90.29 216,-90.29 210,-84.29 210,-78.29 210,-78.29 210,-66.29 210,-66.29 210,-60.29 216,-54.29 222,-54.29"/>
<text text-anchor="middle" x="264.5" y="-68.59" font-family="Arial" font-size="14.00">lcSingleSelect2</text>
</g>
<!-- lcInteractionBase2&#45;&gt;lcSingleSelect2 -->
<g id="edge5" class="edge">
<title>lcInteractionBase2&#45;&gt;lcSingleSelect2</title>
<path fill="none" stroke="#1f78b4" d="M389.02,-211.43C364.14,-183.63 316.3,-130.18 287.71,-98.23"/>
<polygon fill="#a6cee3" stroke="#1f78b4" points="290.16,-95.72 280.88,-90.6 284.94,-100.38 290.16,-95.72"/>
</g>
<!-- lcMultipleSelect2 -->
<g id="node7" class="node">
<title>lcMultipleSelect2</title>
<path fill="#1afabc" stroke="black" d="M344.08,-55.45C344.08,-55.45 439.08,-55.45 439.08,-55.45 445.08,-55.45 451.08,-61.45 451.08,-67.45 451.08,-67.45 451.08,-79.45 451.08,-79.45 451.08,-85.45 445.08,-91.45 439.08,-91.45 439.08,-91.45 344.08,-91.45 344.08,-91.45 338.08,-91.45 332.08,-85.45 332.08,-79.45 332.08,-79.45 332.08,-67.45 332.08,-67.45 332.08,-61.45 338.08,-55.45 344.08,-55.45"/>
<text text-anchor="middle" x="391.58" y="-69.75" font-family="Arial" font-size="14.00">lcMultipleSelect2</text>
</g>
<!-- lcInteractionBase2&#45;&gt;lcMultipleSelect2 -->
<g id="edge6" class="edge">
<title>lcInteractionBase2&#45;&gt;lcMultipleSelect2</title>
<path fill="none" stroke="#1f78b4" d="M403.57,-211.26C401.22,-184.25 396.79,-133.34 394.02,-101.53"/>
<polygon fill="#a6cee3" stroke="#1f78b4" points="397.51,-101.2 393.15,-91.54 390.53,-101.8 397.51,-101.2"/>
</g>
<!-- lcSequencing2 -->
<g id="node8" class="node">
<title>lcSequencing2</title>
<path fill="#1afabc" stroke="black" d="M226.95,-3.49C226.95,-3.49 307.95,-3.49 307.95,-3.49 313.95,-3.49 319.95,-9.49 319.95,-15.49 319.95,-15.49 319.95,-27.49 319.95,-27.49 319.95,-33.49 313.95,-39.49 307.95,-39.49 307.95,-39.49 226.95,-39.49 226.95,-39.49 220.95,-39.49 214.95,-33.49 214.95,-27.49 214.95,-27.49 214.95,-15.49 214.95,-15.49 214.95,-9.49 220.95,-3.49 226.95,-3.49"/>
<text text-anchor="middle" x="267.45" y="-17.79" font-family="Arial" font-size="14.00">lcSequencing2</text>
</g>
<!-- lcInteractionBase2&#45;&gt;lcSequencing2 -->
<g id="edge7" class="edge">
<title>lcInteractionBase2&#45;&gt;lcSequencing2</title>
<path fill="none" stroke="#1f78b4" d="M393.17,-211.37C368.86,-174.65 313.62,-91.22 285.15,-48.22"/>
<polygon fill="#a6cee3" stroke="#1f78b4" points="287.94,-46.1 279.5,-39.69 282.1,-49.96 287.94,-46.1"/>
</g>
<!-- lcMatching2 -->
<g id="node9" class="node">
<title>lcMatching2</title>
<path fill="#1afabc" stroke="black" d="M357.44,-0.26C357.44,-0.26 422.44,-0.26 422.44,-0.26 428.44,-0.26 434.44,-6.26 434.44,-12.26 434.44,-12.26 434.44,-24.26 434.44,-24.26 434.44,-30.26 428.44,-36.26 422.44,-36.26 422.44,-36.26 357.44,-36.26 357.44,-36.26 351.44,-36.26 345.44,-30.26 345.44,-24.26 345.44,-24.26 345.44,-12.26 345.44,-12.26 345.44,-6.26 351.44,-0.26 357.44,-0.26"/>
<text text-anchor="middle" x="389.94" y="-14.56" font-family="Arial" font-size="14.00">lcMatching2</text>
</g>
<!-- lcInteractionBase2&#45;&gt;lcMatching2 -->
<g id="edge8" class="edge">
<title>lcInteractionBase2&#45;&gt;lcMatching2</title>
<path fill="none" stroke="#1f78b4" d="M403.85,-211.46C401.2,-174.69 395.16,-90.72 391.98,-46.58"/>
<polygon fill="#a6cee3" stroke="#1f78b4" points="395.46,-46.24 391.25,-36.52 388.48,-46.75 395.46,-46.24"/>
</g>
<!-- lcHotspot2 -->
<g id="node10" class="node">
<title>lcHotspot2</title>
<path fill="#1afabc" stroke="black" d="M469.7,-3.31C469.7,-3.31 525.7,-3.31 525.7,-3.31 531.7,-3.31 537.7,-9.31 537.7,-15.31 537.7,-15.31 537.7,-27.31 537.7,-27.31 537.7,-33.31 531.7,-39.31 525.7,-39.31 525.7,-39.31 469.7,-39.31 469.7,-39.31 463.7,-39.31 457.7,-33.31 457.7,-27.31 457.7,-27.31 457.7,-15.31 457.7,-15.31 457.7,-9.31 463.7,-3.31 469.7,-3.31"/>
<text text-anchor="middle" x="497.7" y="-17.61" font-family="Arial" font-size="14.00">lcHotspot2</text>
</g>
<!-- lcInteractionBase2&#45;&gt;lcHotspot2 -->
<g id="edge9" class="edge">
<title>lcInteractionBase2&#45;&gt;lcHotspot2</title>
<path fill="none" stroke="#1f78b4" d="M413.2,-211.36C429.44,-174.84 466.2,-92.15 485.44,-48.88"/>
<polygon fill="#a6cee3" stroke="#1f78b4" points="488.74,-50.09 489.6,-39.53 482.34,-47.24 488.74,-50.09"/>
</g>
<!-- lcOpenQuestion2 -->
<g id="node11" class="node">
<title>lcOpenQuestion2</title>
<path fill="#1afabc" stroke="black" d="M516.56,-55.84C516.56,-55.84 614.56,-55.84 614.56,-55.84 620.56,-55.84 626.56,-61.84 626.56,-67.84 626.56,-67.84 626.56,-79.84 626.56,-79.84 626.56,-85.84 620.56,-91.84 614.56,-91.84 614.56,-91.84 516.56,-91.84 516.56,-91.84 510.56,-91.84 504.56,-85.84 504.56,-79.84 504.56,-79.84 504.56,-67.84 504.56,-67.84 504.56,-61.84 510.56,-55.84 516.56,-55.84"/>
<text text-anchor="middle" x="565.56" y="-70.14" font-family="Arial" font-size="14.00">lcOpenQuestion2</text>
</g>
<!-- lcInteractionBase2&#45;&gt;lcOpenQuestion2 -->
<g id="edge10" class="edge">
<title>lcInteractionBase2&#45;&gt;lcOpenQuestion2</title>
<path fill="none" stroke="#1f78b4" d="M423.87,-211.31C452.48,-183.55 507.2,-130.47 539.62,-99.01"/>
<polygon fill="#a6cee3" stroke="#1f78b4" points="542.23,-101.36 546.97,-91.88 537.35,-96.33 542.23,-101.36"/>
</g>
<!-- lcQuestion2 -->
<g id="node13" class="node">
<title>lcQuestion2</title>
<path fill="#1afabc" stroke="black" d="M246.87,-956.35C246.87,-956.35 311.87,-956.35 311.87,-956.35 317.87,-956.35 323.87,-962.35 323.87,-968.35 323.87,-968.35 323.87,-980.35 323.87,-980.35 323.87,-986.35 317.87,-992.35 311.87,-992.35 311.87,-992.35 246.87,-992.35 246.87,-992.35 240.87,-992.35 234.87,-986.35 234.87,-980.35 234.87,-980.35 234.87,-968.35 234.87,-968.35 234.87,-962.35 240.87,-956.35 246.87,-956.35"/>
<text text-anchor="middle" x="279.37" y="-970.65" font-family="Arial" font-size="14.00">lcQuestion2</text>
</g>
<!-- lcQuestionBase2&#45;&gt;lcQuestion2 -->
<g id="edge12" class="edge">
<title>lcQuestionBase2&#45;&gt;lcQuestion2</title>
<path fill="none" stroke="#1f78b4" d="M371.59,-803.98C353.61,-837.18 315.24,-908.08 294.1,-947.14"/>
<polygon fill="#a6cee3" stroke="#1f78b4" points="290.81,-945.88 289.12,-956.34 296.96,-949.21 290.81,-945.88"/>
</g>
<!-- lcOpenAnswer2 -->
<g id="node15" class="node">
<title>lcOpenAnswer2</title>
<path fill="#1afabc" stroke="black" d="M357.03,-999.01C357.03,-999.01 446.03,-999.01 446.03,-999.01 452.03,-999.01 458.03,-1005.01 458.03,-1011.01 458.03,-1011.01 458.03,-1023.01 458.03,-1023.01 458.03,-1029.01 452.03,-1035.01 446.03,-1035.01 446.03,-1035.01 357.03,-1035.01 357.03,-1035.01 351.03,-1035.01 345.03,-1029.01 345.03,-1023.01 345.03,-1023.01 345.03,-1011.01 345.03,-1011.01 345.03,-1005.01 351.03,-999.01 357.03,-999.01"/>
<text text-anchor="middle" x="401.53" y="-1013.31" font-family="Arial" font-size="14.00">lcOpenAnswer2</text>
</g>
<!-- div&#45;&gt;lcOpenAnswer2 -->
<g id="edge14" class="edge">
<title>div&#45;&gt;lcOpenAnswer2</title>
<path fill="none" stroke="#1f78b4" d="M514.16,-865.74C491.84,-895.72 447.14,-955.76 421.27,-990.5"/>
<polygon fill="#a6cee3" stroke="#1f78b4" points="418.29,-988.65 415.12,-998.76 423.9,-992.83 418.29,-988.65"/>
</g>
<!-- lcAsset2 -->
<g id="node16" class="node">
<title>lcAsset2</title>
<path fill="#1afabc" stroke="black" d="M560.32,-988.44C560.32,-988.44 604.32,-988.44 604.32,-988.44 610.32,-988.44 616.32,-994.44 616.32,-1000.44 616.32,-1000.44 616.32,-1012.44 616.32,-1012.44 616.32,-1018.44 610.32,-1024.44 604.32,-1024.44 604.32,-1024.44 560.32,-1024.44 560.32,-1024.44 554.32,-1024.44 548.32,-1018.44 548.32,-1012.44 548.32,-1012.44 548.32,-1000.44 548.32,-1000.44 548.32,-994.44 554.32,-988.44 560.32,-988.44"/>
<text text-anchor="middle" x="582.32" y="-1002.74" font-family="Arial" font-size="14.00">lcAsset2</text>
</g>
<!-- div&#45;&gt;lcAsset2 -->
<g id="edge15" class="edge">
<title>div&#45;&gt;lcAsset2</title>
<path fill="none" stroke="#1f78b4" d="M533.93,-865.83C543.44,-893.48 561.6,-946.22 572.77,-978.67"/>
<polygon fill="#a6cee3" stroke="#1f78b4" points="569.56,-980.11 576.13,-988.43 576.18,-977.84 569.56,-980.11"/>
</g>
<!-- lcFeedback2 -->
<g id="node17" class="node">
<title>lcFeedback2</title>
<path fill="#1afabc" stroke="black" d="M455.57,-952.68C455.57,-952.68 524.57,-952.68 524.57,-952.68 530.57,-952.68 536.57,-958.68 536.57,-964.68 536.57,-964.68 536.57,-976.68 536.57,-976.68 536.57,-982.68 530.57,-988.68 524.57,-988.68 524.57,-988.68 455.57,-988.68 455.57,-988.68 449.57,-988.68 443.57,-982.68 443.57,-976.68 443.57,-976.68 443.57,-964.68 443.57,-964.68 443.57,-958.68 449.57,-952.68 455.57,-952.68"/>
<text text-anchor="middle" x="490.07" y="-966.98" font-family="Arial" font-size="14.00">lcFeedback2</text>
</g>
<!-- div&#45;&gt;lcFeedback2 -->
<g id="edge16" class="edge">
<title>div&#45;&gt;lcFeedback2</title>
<path fill="none" stroke="#1f78b4" d="M522.11,-865.77C515.92,-886.04 505.83,-919.09 498.63,-942.67"/>
<polygon fill="#a6cee3" stroke="#1f78b4" points="495.21,-941.86 495.64,-952.45 501.91,-943.91 495.21,-941.86"/>
</g>
<!-- lcFeedbackCorrect2 -->
<g id="node18" class="node">
<title>lcFeedbackCorrect2</title>
<path fill="#1afabc" stroke="black" d="M480.2,-1042.26C480.2,-1042.26 593.2,-1042.26 593.2,-1042.26 599.2,-1042.26 605.2,-1048.26 605.2,-1054.26 605.2,-1054.26 605.2,-1066.26 605.2,-1066.26 605.2,-1072.26 599.2,-1078.26 593.2,-1078.26 593.2,-1078.26 480.2,-1078.26 480.2,-1078.26 474.2,-1078.26 468.2,-1072.26 468.2,-1066.26 468.2,-1066.26 468.2,-1054.26 468.2,-1054.26 468.2,-1048.26 474.2,-1042.26 480.2,-1042.26"/>
<text text-anchor="middle" x="536.7" y="-1056.56" font-family="Arial" font-size="14.00">lcFeedbackCorrect2</text>
</g>
<!-- div&#45;&gt;lcFeedbackCorrect2 -->
<g id="edge17" class="edge">
<title>div&#45;&gt;lcFeedbackCorrect2</title>
<path fill="none" stroke="#1f78b4" d="M528.43,-865.74C530.01,-902.86 533.62,-987.72 535.5,-1032.08"/>
<polygon fill="#a6cee3" stroke="#1f78b4" points="532.01,-1032.33 535.93,-1042.17 539,-1032.03 532.01,-1032.33"/>
</g>
<!-- lcFeedbackIncorrect2 -->
<g id="node19" class="node">
<title>lcFeedbackIncorrect2</title>
<path fill="#1afabc" stroke="black" d="M631.9,-942.87C631.9,-942.87 753.9,-942.87 753.9,-942.87 759.9,-942.87 765.9,-948.87 765.9,-954.87 765.9,-954.87 765.9,-966.87 765.9,-966.87 765.9,-972.87 759.9,-978.87 753.9,-978.87 753.9,-978.87 631.9,-978.87 631.9,-978.87 625.9,-978.87 619.9,-972.87 619.9,-966.87 619.9,-966.87 619.9,-954.87 619.9,-954.87 619.9,-948.87 625.9,-942.87 631.9,-942.87"/>
<text text-anchor="middle" x="692.9" y="-957.17" font-family="Arial" font-size="14.00">lcFeedbackIncorrect2</text>
</g>
<!-- div&#45;&gt;lcFeedbackIncorrect2 -->
<g id="edge18" class="edge">
<title>div&#45;&gt;lcFeedbackIncorrect2</title>
<path fill="none" stroke="#1f78b4" d="M554.21,-865.81C582.39,-885.13 627.06,-915.75 658.06,-936.99"/>
<polygon fill="#a6cee3" stroke="#1f78b4" points="656.19,-939.95 666.41,-942.72 660.14,-934.18 656.19,-939.95"/>
</g>
<!-- lcAnswerContent2 -->
<g id="node20" class="node">
<title>lcAnswerContent2</title>
<path fill="#1afabc" stroke="black" d="M642.97,-989.76C642.97,-989.76 744.97,-989.76 744.97,-989.76 750.97,-989.76 756.97,-995.76 756.97,-1001.76 756.97,-1001.76 756.97,-1013.76 756.97,-1013.76 756.97,-1019.76 750.97,-1025.76 744.97,-1025.76 744.97,-1025.76 642.97,-1025.76 642.97,-1025.76 636.97,-1025.76 630.97,-1019.76 630.97,-1013.76 630.97,-1013.76 630.97,-1001.76 630.97,-1001.76 630.97,-995.76 636.97,-989.76 642.97,-989.76"/>
<text text-anchor="middle" x="693.97" y="-1004.06" font-family="Arial" font-size="14.00">lcAnswerContent2</text>
</g>
<!-- div&#45;&gt;lcAnswerContent2 -->
<g id="edge19" class="edge">
<title>div&#45;&gt;lcAnswerContent2</title>
<path fill="none" stroke="#1f78b4" d="M546.41,-865.67C576.11,-894.27 634.04,-950.05 667.81,-982.56"/>
<polygon fill="#a6cee3" stroke="#1f78b4" points="665.4,-985.11 675.03,-989.52 670.26,-980.06 665.4,-985.11"/>
</g>
<!-- lcAnswerOptionGroup2 -->
<g id="node22" class="node">
<title>lcAnswerOptionGroup2</title>
<path fill="#1afabc" stroke="black" d="M19.52,-432.2C19.52,-432.2 153.52,-432.2 153.52,-432.2 159.52,-432.2 165.52,-438.2 165.52,-444.2 165.52,-444.2 165.52,-456.2 165.52,-456.2 165.52,-462.2 159.52,-468.2 153.52,-468.2 153.52,-468.2 19.52,-468.2 19.52,-468.2 13.52,-468.2 7.52,-462.2 7.52,-456.2 7.52,-456.2 7.52,-444.2 7.52,-444.2 7.52,-438.2 13.52,-432.2 19.52,-432.2"/>
<text text-anchor="middle" x="86.52" y="-446.5" font-family="Arial" font-size="14.00">lcAnswerOptionGroup2</text>
</g>
<!-- ul&#45;&gt;lcAnswerOptionGroup2 -->
<g id="edge21" class="edge">
<title>ul&#45;&gt;lcAnswerOptionGroup2</title>
<path fill="none" stroke="#1f78b4" d="M254.06,-505.34C227.52,-496.6 186.06,-482.96 151.02,-471.43"/>
<polygon fill="#a6cee3" stroke="#1f78b4" points="151.92,-468.04 141.32,-468.24 149.73,-474.69 151.92,-468.04"/>
</g>
<!-- lcSequenceOptionGroup2 -->
<g id="node24" class="node">
<title>lcSequenceOptionGroup2</title>
<path fill="#1afabc" stroke="black" d="M171.58,-875.81C171.58,-875.81 320.58,-875.81 320.58,-875.81 326.58,-875.81 332.58,-881.81 332.58,-887.81 332.58,-887.81 332.58,-899.81 332.58,-899.81 332.58,-905.81 326.58,-911.81 320.58,-911.81 320.58,-911.81 171.58,-911.81 171.58,-911.81 165.58,-911.81 159.58,-905.81 159.58,-899.81 159.58,-899.81 159.58,-887.81 159.58,-887.81 159.58,-881.81 165.58,-875.81 171.58,-875.81"/>
<text text-anchor="middle" x="246.08" y="-890.11" font-family="Arial" font-size="14.00">lcSequenceOptionGroup2</text>
</g>
<!-- ol&#45;&gt;lcSequenceOptionGroup2 -->
<g id="edge23" class="edge">
<title>ol&#45;&gt;lcSequenceOptionGroup2</title>
<path fill="none" stroke="#1f78b4" d="M370.5,-745.48C345.64,-775.12 296.2,-834.06 267.7,-868.03"/>
<polygon fill="#a6cee3" stroke="#1f78b4" points="265.02,-865.79 261.27,-875.7 270.38,-870.29 265.02,-865.79"/>
</g>
<!-- lcSequenceOption2 -->
<g id="node26" class="node">
<title>lcSequenceOption2</title>
<path fill="#1afabc" stroke="black" d="M739.53,-332.64C739.53,-332.64 850.53,-332.64 850.53,-332.64 856.53,-332.64 862.53,-338.64 862.53,-344.64 862.53,-344.64 862.53,-356.64 862.53,-356.64 862.53,-362.64 856.53,-368.64 850.53,-368.64 850.53,-368.64 739.53,-368.64 739.53,-368.64 733.53,-368.64 727.53,-362.64 727.53,-356.64 727.53,-356.64 727.53,-344.64 727.53,-344.64 727.53,-338.64 733.53,-332.64 739.53,-332.64"/>
<text text-anchor="middle" x="795.03" y="-346.94" font-family="Arial" font-size="14.00">lcSequenceOption2</text>
</g>
<!-- li&#45;&gt;lcSequenceOption2 -->
<g id="edge25" class="edge">
<title>li&#45;&gt;lcSequenceOption2</title>
<path fill="none" stroke="#1f78b4" d="M653.34,-424.23C679.69,-410.55 720.15,-389.53 751.1,-373.46"/>
<polygon fill="#a6cee3" stroke="#1f78b4" points="753.11,-376.36 760.37,-368.64 749.88,-370.15 753.11,-376.36"/>
</g>
<!-- lcAnswerOption2 -->
<g id="node27" class="node">
<title>lcAnswerOption2</title>
<path fill="#1afabc" stroke="black" d="M686.48,-280.8C686.48,-280.8 781.48,-280.8 781.48,-280.8 787.48,-280.8 793.48,-286.8 793.48,-292.8 793.48,-292.8 793.48,-304.8 793.48,-304.8 793.48,-310.8 787.48,-316.8 781.48,-316.8 781.48,-316.8 686.48,-316.8 686.48,-316.8 680.48,-316.8 674.48,-310.8 674.48,-304.8 674.48,-304.8 674.48,-292.8 674.48,-292.8 674.48,-286.8 680.48,-280.8 686.48,-280.8"/>
<text text-anchor="middle" x="733.98" y="-295.1" font-family="Arial" font-size="14.00">lcAnswerOption2</text>
</g>
<!-- li&#45;&gt;lcAnswerOption2 -->
<g id="edge26" class="edge">
<title>li&#45;&gt;lcAnswerOption2</title>
<path fill="none" stroke="#1f78b4" d="M640.3,-420.08C659.02,-395.85 692.21,-352.88 713.64,-325.13"/>
<polygon fill="#a6cee3" stroke="#1f78b4" points="716.55,-327.1 719.89,-317.05 711.01,-322.82 716.55,-327.1"/>
</g>
<!-- lcMatchTable2 -->
<g id="node29" class="node">
<title>lcMatchTable2</title>
<path fill="#1afabc" stroke="black" d="M595.82,-218.56C595.82,-218.56 675.82,-218.56 675.82,-218.56 681.82,-218.56 687.82,-224.56 687.82,-230.56 687.82,-230.56 687.82,-242.56 687.82,-242.56 687.82,-248.56 681.82,-254.56 675.82,-254.56 675.82,-254.56 595.82,-254.56 595.82,-254.56 589.82,-254.56 583.82,-248.56 583.82,-242.56 583.82,-242.56 583.82,-230.56 583.82,-230.56 583.82,-224.56 589.82,-218.56 595.82,-218.56"/>
<text text-anchor="middle" x="635.82" y="-232.86" font-family="Arial" font-size="14.00">lcMatchTable2</text>
</g>
<!-- simpletable&#45;&gt;lcMatchTable2 -->
<g id="edge28" class="edge">
<title>simpletable&#45;&gt;lcMatchTable2</title>
<path fill="none" stroke="#1f78b4" d="M555.94,-376.11C571.69,-348.58 601.81,-295.98 620.22,-263.81"/>
<polygon fill="#a6cee3" stroke="#1f78b4" points="623.38,-265.34 625.31,-254.92 617.3,-261.86 623.38,-265.34"/>
</g>
<!-- lcMatchingHeader2 -->
<g id="node31" class="node">
<title>lcMatchingHeader2</title>
<path fill="#1afabc" stroke="black" d="M777.23,-604.03C777.23,-604.03 887.23,-604.03 887.23,-604.03 893.23,-604.03 899.23,-610.03 899.23,-616.03 899.23,-616.03 899.23,-628.03 899.23,-628.03 899.23,-634.03 893.23,-640.03 887.23,-640.03 887.23,-640.03 777.23,-640.03 777.23,-640.03 771.23,-640.03 765.23,-634.03 765.23,-628.03 765.23,-628.03 765.23,-616.03 765.23,-616.03 765.23,-610.03 771.23,-604.03 777.23,-604.03"/>
<text text-anchor="middle" x="832.23" y="-618.33" font-family="Arial" font-size="14.00">lcMatchingHeader2</text>
</g>
<!-- sthead&#45;&gt;lcMatchingHeader2 -->
<g id="edge30" class="edge">
<title>sthead&#45;&gt;lcMatchingHeader2</title>
<path fill="none" stroke="#1f78b4" d="M663.98,-604.75C687.75,-607.19 722.7,-610.78 754.61,-614.06"/>
<polygon fill="#a6cee3" stroke="#1f78b4" points="754.53,-617.57 764.84,-615.11 755.25,-610.61 754.53,-617.57"/>
</g>
<!-- lcMatchingPair2 -->
<g id="node33" class="node">
<title>lcMatchingPair2</title>
<path fill="#1afabc" stroke="black" d="M234,-273.62C234,-273.62 323,-273.62 323,-273.62 329,-273.62 335,-279.62 335,-285.62 335,-285.62 335,-297.62 335,-297.62 335,-303.62 329,-309.62 323,-309.62 323,-309.62 234,-309.62 234,-309.62 228,-309.62 222,-303.62 222,-297.62 222,-297.62 222,-285.62 222,-285.62 222,-279.62 228,-273.62 234,-273.62"/>
<text text-anchor="middle" x="278.5" y="-287.92" font-family="Arial" font-size="14.00">lcMatchingPair2</text>
</g>
<!-- strow&#45;&gt;lcMatchingPair2 -->
<g id="edge32" class="edge">
<title>strow&#45;&gt;lcMatchingPair2</title>
<path fill="none" stroke="#1f78b4" d="M371.32,-397.79C352.81,-376.63 322.03,-341.42 301.02,-317.39"/>
<polygon fill="#a6cee3" stroke="#1f78b4" points="303.53,-314.93 294.31,-309.71 298.26,-319.54 303.53,-314.93"/>
</g>
<!-- lcItem2 -->
<g id="node35" class="node">
<title>lcItem2</title>
<path fill="#1afabc" stroke="black" d="M706.26,-798.54C706.26,-798.54 743.26,-798.54 743.26,-798.54 749.26,-798.54 755.26,-804.54 755.26,-810.54 755.26,-810.54 755.26,-822.54 755.26,-822.54 755.26,-828.54 749.26,-834.54 743.26,-834.54 743.26,-834.54 706.26,-834.54 706.26,-834.54 700.26,-834.54 694.26,-828.54 694.26,-822.54 694.26,-822.54 694.26,-810.54 694.26,-810.54 694.26,-804.54 700.26,-798.54 706.26,-798.54"/>
<text text-anchor="middle" x="724.76" y="-812.84" font-family="Arial" font-size="14.00">lcItem2</text>
</g>
<!-- stentry&#45;&gt;lcItem2 -->
<g id="edge34" class="edge">
<title>stentry&#45;&gt;lcItem2</title>
<path fill="none" stroke="#1f78b4" d="M671.18,-704.93C681.66,-726.77 699.43,-763.78 711.62,-789.15"/>
<polygon fill="#a6cee3" stroke="#1f78b4" points="708.5,-790.75 715.98,-798.25 714.81,-787.72 708.5,-790.75"/>
</g>
<!-- lcMatchingItem2 -->
<g id="node36" class="node">
<title>lcMatchingItem2</title>
<path fill="#1afabc" stroke="black" d="M787.39,-763.58C787.39,-763.58 879.39,-763.58 879.39,-763.58 885.39,-763.58 891.39,-769.58 891.39,-775.58 891.39,-775.58 891.39,-787.58 891.39,-787.58 891.39,-793.58 885.39,-799.58 879.39,-799.58 879.39,-799.58 787.39,-799.58 787.39,-799.58 781.39,-799.58 775.39,-793.58 775.39,-787.58 775.39,-787.58 775.39,-775.58 775.39,-775.58 775.39,-769.58 781.39,-763.58 787.39,-763.58"/>
<text text-anchor="middle" x="833.39" y="-777.88" font-family="Arial" font-size="14.00">lcMatchingItem2</text>
</g>
<!-- stentry&#45;&gt;lcMatchingItem2 -->
<g id="edge35" class="edge">
<title>stentry&#45;&gt;lcMatchingItem2</title>
<path fill="none" stroke="#1f78b4" d="M691.12,-702.75C718.71,-718.04 760.75,-741.33 791.99,-758.64"/>
<polygon fill="#a6cee3" stroke="#1f78b4" points="790.46,-761.79 800.9,-763.58 793.85,-755.67 790.46,-761.79"/>
</g>
<!-- lcMatchingItemFeedback2 -->
<g id="node37" class="node">
<title>lcMatchingItemFeedback2</title>
<path fill="#1afabc" stroke="black" d="M816.6,-714.11C816.6,-714.11 968.6,-714.11 968.6,-714.11 974.6,-714.11 980.6,-720.11 980.6,-726.11 980.6,-726.11 980.6,-738.11 980.6,-738.11 980.6,-744.11 974.6,-750.11 968.6,-750.11 968.6,-750.11 816.6,-750.11 816.6,-750.11 810.6,-750.11 804.6,-744.11 804.6,-738.11 804.6,-738.11 804.6,-726.11 804.6,-726.11 804.6,-720.11 810.6,-714.11 816.6,-714.11"/>
<text text-anchor="middle" x="892.6" y="-728.41" font-family="Arial" font-size="14.00">lcMatchingItemFeedback2</text>
</g>
<!-- stentry&#45;&gt;lcMatchingItemFeedback2 -->
<g id="edge36" class="edge">
<title>stentry&#45;&gt;lcMatchingItemFeedback2</title>
<path fill="none" stroke="#1f78b4" d="M691.2,-692.54C717.18,-697.64 757.02,-705.47 794.43,-712.82"/>
<polygon fill="#a6cee3" stroke="#1f78b4" points="793.9,-716.28 804.39,-714.78 795.25,-709.42 793.9,-716.28"/>
</g>
<!-- lcHotspotMap2 -->
<g id="node39" class="node">
<title>lcHotspotMap2</title>
<path fill="#1afabc" stroke="black" d="M12.31,-607.87C12.31,-607.87 95.31,-607.87 95.31,-607.87 101.31,-607.87 107.31,-613.87 107.31,-619.87 107.31,-619.87 107.31,-631.87 107.31,-631.87 107.31,-637.87 101.31,-643.87 95.31,-643.87 95.31,-643.87 12.31,-643.87 12.31,-643.87 6.31,-643.87 0.31,-637.87 0.31,-631.87 0.31,-631.87 0.31,-619.87 0.31,-619.87 0.31,-613.87 6.31,-607.87 12.31,-607.87"/>
<text text-anchor="middle" x="53.81" y="-622.17" font-family="Arial" font-size="14.00">lcHotspotMap2</text>
</g>
<!-- figgroup&#45;&gt;lcHotspotMap2 -->
<g id="edge38" class="edge">
<title>figgroup&#45;&gt;lcHotspotMap2</title>
<path fill="none" stroke="#1f78b4" d="M201.98,-592.04C178.48,-597.41 146.06,-604.81 117.54,-611.32"/>
<polygon fill="#a6cee3" stroke="#1f78b4" points="116.6,-607.94 107.63,-613.58 118.16,-614.77 116.6,-607.94"/>
</g>
<!-- lcArea2 -->
<g id="node40" class="node">
<title>lcArea2</title>
<path fill="#1afabc" stroke="black" d="M64.38,-546.94C64.38,-546.94 102.38,-546.94 102.38,-546.94 108.38,-546.94 114.38,-552.94 114.38,-558.94 114.38,-558.94 114.38,-570.94 114.38,-570.94 114.38,-576.94 108.38,-582.94 102.38,-582.94 102.38,-582.94 64.38,-582.94 64.38,-582.94 58.38,-582.94 52.38,-576.94 52.38,-570.94 52.38,-570.94 52.38,-558.94 52.38,-558.94 52.38,-552.94 58.38,-546.94 64.38,-546.94"/>
<text text-anchor="middle" x="83.38" y="-561.24" font-family="Arial" font-size="14.00">lcArea2</text>
</g>
<!-- figgroup&#45;&gt;lcArea2 -->
<g id="edge39" class="edge">
<title>figgroup&#45;&gt;lcArea2</title>
<path fill="none" stroke="#1f78b4" d="M201.91,-580.3C179.23,-577.36 148.91,-573.43 124.61,-570.28"/>
<polygon fill="#a6cee3" stroke="#1f78b4" points="124.98,-566.8 114.61,-568.98 124.08,-573.74 124.98,-566.8"/>
</g>
<!-- lcAreaShape2 -->
<g id="node42" class="node">
<title>lcAreaShape2</title>
<path fill="#1afabc" stroke="black" d="M70.28,-705.11C70.28,-705.11 147.28,-705.11 147.28,-705.11 153.28,-705.11 159.28,-711.11 159.28,-717.11 159.28,-717.11 159.28,-729.11 159.28,-729.11 159.28,-735.11 153.28,-741.11 147.28,-741.11 147.28,-741.11 70.28,-741.11 70.28,-741.11 64.28,-741.11 58.28,-735.11 58.28,-729.11 58.28,-729.11 58.28,-717.11 58.28,-717.11 58.28,-711.11 64.28,-705.11 70.28,-705.11"/>
<text text-anchor="middle" x="108.78" y="-719.41" font-family="Arial" font-size="14.00">lcAreaShape2</text>
</g>
<!-- keyword&#45;&gt;lcAreaShape2 -->
<g id="edge41" class="edge">
<title>keyword&#45;&gt;lcAreaShape2</title>
<path fill="none" stroke="#1f78b4" d="M238.41,-658.78C214.06,-670.86 180.96,-687.29 154.31,-700.51"/>
<polygon fill="#a6cee3" stroke="#1f78b4" points="152.57,-697.47 145.17,-705.05 155.68,-703.74 152.57,-697.47"/>
</g>
<!-- lcAreaCoords2 -->
<g id="node44" class="node">
<title>lcAreaCoords2</title>
<path fill="#1afabc" stroke="black" d="M136.75,-786.57C136.75,-786.57 218.75,-786.57 218.75,-786.57 224.75,-786.57 230.75,-792.57 230.75,-798.57 230.75,-798.57 230.75,-810.57 230.75,-810.57 230.75,-816.57 224.75,-822.57 218.75,-822.57 218.75,-822.57 136.75,-822.57 136.75,-822.57 130.75,-822.57 124.75,-816.57 124.75,-810.57 124.75,-810.57 124.75,-798.57 124.75,-798.57 124.75,-792.57 130.75,-786.57 136.75,-786.57"/>
<text text-anchor="middle" x="177.75" y="-800.87" font-family="Arial" font-size="14.00">lcAreaCoords2</text>
</g>
<!-- ph&#45;&gt;lcAreaCoords2 -->
<g id="edge43" class="edge">
<title>ph&#45;&gt;lcAreaCoords2</title>
<path fill="none" stroke="#1f78b4" d="M297.01,-712.91C273.13,-731.27 236.04,-759.77 209.57,-780.11"/>
<polygon fill="#a6cee3" stroke="#1f78b4" points="207.17,-777.54 201.37,-786.41 211.44,-783.09 207.17,-777.54"/>
</g>
<!-- lcCorrectResponse2 -->
<g id="node46" class="node">
<title>lcCorrectResponse2</title>
<path fill="#1afabc" stroke="black" d="M814.44,-490.22C814.44,-490.22 929.44,-490.22 929.44,-490.22 935.44,-490.22 941.44,-496.22 941.44,-502.22 941.44,-502.22 941.44,-514.22 941.44,-514.22 941.44,-520.22 935.44,-526.22 929.44,-526.22 929.44,-526.22 814.44,-526.22 814.44,-526.22 808.44,-526.22 802.44,-520.22 802.44,-514.22 802.44,-514.22 802.44,-502.22 802.44,-502.22 802.44,-496.22 808.44,-490.22 814.44,-490.22"/>
<text text-anchor="middle" x="871.94" y="-504.52" font-family="Arial" font-size="14.00">lcCorrectResponse2</text>
</g>
<!-- data&#45;&gt;lcCorrectResponse2 -->
<g id="edge45" class="edge">
<title>data&#45;&gt;lcCorrectResponse2</title>
<path fill="none" stroke="#1f78b4" d="M703.22,-520.4C726.28,-518.73 760.53,-516.26 792.16,-513.97"/>
<polygon fill="#a6cee3" stroke="#1f78b4" points="792.6,-517.45 802.32,-513.24 792.1,-510.47 792.6,-517.45"/>
</g>
<!-- lcSequence2 -->
<g id="node47" class="node">
<title>lcSequence2</title>
<path fill="#1afabc" stroke="black" d="M789.5,-440.14C789.5,-440.14 860.5,-440.14 860.5,-440.14 866.5,-440.14 872.5,-446.14 872.5,-452.14 872.5,-452.14 872.5,-464.14 872.5,-464.14 872.5,-470.14 866.5,-476.14 860.5,-476.14 860.5,-476.14 789.5,-476.14 789.5,-476.14 783.5,-476.14 777.5,-470.14 777.5,-464.14 777.5,-464.14 777.5,-452.14 777.5,-452.14 777.5,-446.14 783.5,-440.14 789.5,-440.14"/>
<text text-anchor="middle" x="825" y="-454.44" font-family="Arial" font-size="14.00">lcSequence2</text>
</g>
<!-- data&#45;&gt;lcSequence2 -->
<g id="edge46" class="edge">
<title>data&#45;&gt;lcSequence2</title>
<path fill="none" stroke="#1f78b4" d="M703.31,-510.59C723.04,-502.08 750.27,-490.35 773.97,-480.13"/>
<polygon fill="#a6cee3" stroke="#1f78b4" points="775.39,-483.33 783.19,-476.16 772.62,-476.9 775.39,-483.33"/>
</g>
</g>
</svg>
