<?xml version="1.0" encoding="UTF-8" standalone="no"?>
<!DOCTYPE svg PUBLIC "-//W3C//DTD SVG 1.1//EN"
 "http://www.w3.org/Graphics/SVG/1.1/DTD/svg11.dtd">
<!-- Generated by graphviz version 6.0.1 (20220911.1526)
 -->
<!-- Pages: 1 -->
<svg width="1057pt" height="696pt"
 viewBox="0.00 0.00 1057.00 696.00" xmlns="http://www.w3.org/2000/svg" xmlns:xlink="http://www.w3.org/1999/xlink">
<g id="graph0" class="graph" transform="scale(1 1) rotate(0) translate(4 692)">
<polygon fill="white" stroke="none" points="-4,4 -4,-692 1053,-692 1053,4 -4,4"/>
<!-- learningPlanModule -->
<g id="node1" class="node">
<title>learningPlanModule</title>
<path fill="#dddddd" stroke="black" d="M508.34,-250.56C508.34,-250.56 621.34,-250.56 621.34,-250.56 627.34,-250.56 633.34,-256.56 633.34,-262.56 633.34,-262.56 633.34,-274.56 633.34,-274.56 633.34,-280.56 627.34,-286.56 621.34,-286.56 621.34,-286.56 508.34,-286.56 508.34,-286.56 502.34,-286.56 496.34,-280.56 496.34,-274.56 496.34,-274.56 496.34,-262.56 496.34,-262.56 496.34,-256.56 502.34,-250.56 508.34,-250.56"/>
<text text-anchor="middle" x="564.84" y="-264.86" font-family="Arial" font-size="14.00">learningPlanModule</text>
</g>
<!-- learningBase -->
<g id="node2" class="node">
<title>learningBase</title>
<path fill="#afa7f4" stroke="black" d="M400.52,-181.02C400.52,-181.02 471.52,-181.02 471.52,-181.02 477.52,-181.02 483.52,-187.02 483.52,-193.02 483.52,-193.02 483.52,-205.02 483.52,-205.02 483.52,-211.02 477.52,-217.02 471.52,-217.02 471.52,-217.02 400.52,-217.02 400.52,-217.02 394.52,-217.02 388.52,-211.02 388.52,-205.02 388.52,-205.02 388.52,-193.02 388.52,-193.02 388.52,-187.02 394.52,-181.02 400.52,-181.02"/>
<text text-anchor="middle" x="436.02" y="-195.32" font-family="Arial" font-size="14.00">learningBase</text>
</g>
<!-- learningPlanModule&#45;&gt;learningBase -->
<g id="edge1" class="edge">
<title>learningPlanModule&#45;&gt;learningBase</title>
<path fill="none" stroke="#1f78b4" d="M531.33,-250.47C515.35,-241.84 496.05,-231.42 479.01,-222.22"/>
<polygon fill="#a6cee3" stroke="#1f78b4" points="480.27,-218.93 469.81,-217.26 476.95,-225.09 480.27,-218.93"/>
</g>
<!-- learningBasebody -->
<g id="node4" class="node">
<title>learningBasebody</title>
<path fill="#afa7f4" stroke="black" d="M265.69,-217.45C265.69,-217.45 366.69,-217.45 366.69,-217.45 372.69,-217.45 378.69,-223.45 378.69,-229.45 378.69,-229.45 378.69,-241.45 378.69,-241.45 378.69,-247.45 372.69,-253.45 366.69,-253.45 366.69,-253.45 265.69,-253.45 265.69,-253.45 259.69,-253.45 253.69,-247.45 253.69,-241.45 253.69,-241.45 253.69,-229.45 253.69,-229.45 253.69,-223.45 259.69,-217.45 265.69,-217.45"/>
<text text-anchor="middle" x="316.19" y="-231.75" font-family="Arial" font-size="14.00">learningBasebody</text>
</g>
<!-- learningPlanModule&#45;&gt;learningBasebody -->
<g id="edge3" class="edge">
<title>learningPlanModule&#45;&gt;learningBasebody</title>
<path fill="none" stroke="#1f78b4" d="M496.23,-259.42C463.02,-255 423.1,-249.69 389.31,-245.19"/>
<polygon fill="#a6cee3" stroke="#1f78b4" points="389.41,-241.67 379.03,-243.82 388.48,-248.61 389.41,-241.67"/>
</g>
<!-- section -->
<g id="node6" class="node">
<title>section</title>
<path fill="#afa7f4" stroke="black" d="M426.21,-107.64C426.21,-107.64 461.21,-107.64 461.21,-107.64 467.21,-107.64 473.21,-113.64 473.21,-119.64 473.21,-119.64 473.21,-131.64 473.21,-131.64 473.21,-137.64 467.21,-143.64 461.21,-143.64 461.21,-143.64 426.21,-143.64 426.21,-143.64 420.21,-143.64 414.21,-137.64 414.21,-131.64 414.21,-131.64 414.21,-119.64 414.21,-119.64 414.21,-113.64 420.21,-107.64 426.21,-107.64"/>
<text text-anchor="middle" x="443.71" y="-121.94" font-family="Arial" font-size="14.00">section</text>
</g>
<!-- learningPlanModule&#45;&gt;section -->
<g id="edge5" class="edge">
<title>learningPlanModule&#45;&gt;section</title>
<path fill="none" stroke="#1f78b4" d="M549.5,-250.45C528.4,-225.57 490.31,-180.63 466.06,-152.01"/>
<polygon fill="#a6cee3" stroke="#1f78b4" points="468.44,-149.41 459.31,-144.04 463.1,-153.93 468.44,-149.41"/>
</g>
<!-- fig -->
<g id="node12" class="node">
<title>fig</title>
<path fill="#afa7f4" stroke="black" d="M371.25,-418.18C371.25,-418.18 401.25,-418.18 401.25,-418.18 407.25,-418.18 413.25,-424.18 413.25,-430.18 413.25,-430.18 413.25,-442.18 413.25,-442.18 413.25,-448.18 407.25,-454.18 401.25,-454.18 401.25,-454.18 371.25,-454.18 371.25,-454.18 365.25,-454.18 359.25,-448.18 359.25,-442.18 359.25,-442.18 359.25,-430.18 359.25,-430.18 359.25,-424.18 365.25,-418.18 371.25,-418.18"/>
<text text-anchor="middle" x="386.25" y="-432.48" font-family="Arial" font-size="14.00">fig</text>
</g>
<!-- learningPlanModule&#45;&gt;fig -->
<g id="edge11" class="edge">
<title>learningPlanModule&#45;&gt;fig</title>
<path fill="none" stroke="#1f78b4" d="M545.38,-286.81C513.31,-316.92 449.28,-377.01 412.98,-411.09"/>
<polygon fill="#a6cee3" stroke="#1f78b4" points="410.57,-408.55 405.67,-417.94 415.36,-413.65 410.57,-408.55"/>
</g>
<!-- p -->
<g id="node41" class="node">
<title>p</title>
<path fill="#afa7f4" stroke="black" d="M719.25,-242.36C719.25,-242.36 749.25,-242.36 749.25,-242.36 755.25,-242.36 761.25,-248.36 761.25,-254.36 761.25,-254.36 761.25,-266.36 761.25,-266.36 761.25,-272.36 755.25,-278.36 749.25,-278.36 749.25,-278.36 719.25,-278.36 719.25,-278.36 713.25,-278.36 707.25,-272.36 707.25,-266.36 707.25,-266.36 707.25,-254.36 707.25,-254.36 707.25,-248.36 713.25,-242.36 719.25,-242.36"/>
<text text-anchor="middle" x="734.25" y="-256.66" font-family="Arial" font-size="14.00">p</text>
</g>
<!-- learningPlanModule&#45;&gt;p -->
<g id="edge40" class="edge">
<title>learningPlanModule&#45;&gt;p</title>
<path fill="none" stroke="#1f78b4" d="M633.75,-265.22C655.29,-264.18 678.24,-263.07 696.77,-262.18"/>
<polygon fill="#a6cee3" stroke="#1f78b4" points="697.03,-265.67 706.85,-261.69 696.69,-258.68 697.03,-265.67"/>
</g>
<!-- learningPlan -->
<g id="node3" class="node">
<title>learningPlan</title>
<path fill="#1afabc" stroke="black" d="M321.86,-136C321.86,-136 389.86,-136 389.86,-136 395.86,-136 401.86,-142 401.86,-148 401.86,-148 401.86,-160 401.86,-160 401.86,-166 395.86,-172 389.86,-172 389.86,-172 321.86,-172 321.86,-172 315.86,-172 309.86,-166 309.86,-160 309.86,-160 309.86,-148 309.86,-148 309.86,-142 315.86,-136 321.86,-136"/>
<text text-anchor="middle" x="355.86" y="-150.3" font-family="Arial" font-size="14.00">learningPlan</text>
</g>
<!-- learningBase&#45;&gt;learningPlan -->
<g id="edge2" class="edge">
<title>learningBase&#45;&gt;learningPlan</title>
<path fill="none" stroke="#1f78b4" d="M403.88,-180.97C401.59,-179.68 399.27,-178.38 396.94,-177.07"/>
<polygon fill="#a6cee3" stroke="#1f78b4" points="398.44,-173.9 388.01,-172.06 395.02,-180 398.44,-173.9"/>
</g>
<!-- learningPlanbody -->
<g id="node5" class="node">
<title>learningPlanbody</title>
<path fill="#1afabc" stroke="black" d="M190.82,-160.13C190.82,-160.13 287.82,-160.13 287.82,-160.13 293.82,-160.13 299.82,-166.13 299.82,-172.13 299.82,-172.13 299.82,-184.13 299.82,-184.13 299.82,-190.13 293.82,-196.13 287.82,-196.13 287.82,-196.13 190.82,-196.13 190.82,-196.13 184.82,-196.13 178.82,-190.13 178.82,-184.13 178.82,-184.13 178.82,-172.13 178.82,-172.13 178.82,-166.13 184.82,-160.13 190.82,-160.13"/>
<text text-anchor="middle" x="239.32" y="-174.43" font-family="Arial" font-size="14.00">learningPlanbody</text>
</g>
<!-- learningBasebody&#45;&gt;learningPlanbody -->
<g id="edge4" class="edge">
<title>learningBasebody&#45;&gt;learningPlanbody</title>
<path fill="none" stroke="#1f78b4" d="M291.87,-217.31C285.49,-212.56 278.52,-207.36 271.8,-202.35"/>
<polygon fill="#a6cee3" stroke="#1f78b4" points="273.59,-199.32 263.48,-196.15 269.41,-204.93 273.59,-199.32"/>
</g>
<!-- lcProject -->
<g id="node7" class="node">
<title>lcProject</title>
<path fill="#1afabc" stroke="black" d="M455.32,-59.2C455.32,-59.2 499.32,-59.2 499.32,-59.2 505.32,-59.2 511.32,-65.2 511.32,-71.2 511.32,-71.2 511.32,-83.2 511.32,-83.2 511.32,-89.2 505.32,-95.2 499.32,-95.2 499.32,-95.2 455.32,-95.2 455.32,-95.2 449.32,-95.2 443.32,-89.2 443.32,-83.2 443.32,-83.2 443.32,-71.2 443.32,-71.2 443.32,-65.2 449.32,-59.2 455.32,-59.2"/>
<text text-anchor="middle" x="477.32" y="-73.5" font-family="Arial" font-size="14.00">lcProject</text>
</g>
<!-- section&#45;&gt;lcProject -->
<g id="edge6" class="edge">
<title>section&#45;&gt;lcProject</title>
<path fill="none" stroke="#1f78b4" d="M456.22,-107.6C457.09,-106.35 457.97,-105.09 458.85,-103.81"/>
<polygon fill="#a6cee3" stroke="#1f78b4" points="461.86,-105.62 464.68,-95.41 456.11,-101.63 461.86,-105.62"/>
</g>
<!-- lcNeedsAnalysis -->
<g id="node8" class="node">
<title>lcNeedsAnalysis</title>
<path fill="#1afabc" stroke="black" d="M401.41,-0.83C401.41,-0.83 493.41,-0.83 493.41,-0.83 499.41,-0.83 505.41,-6.83 505.41,-12.83 505.41,-12.83 505.41,-24.83 505.41,-24.83 505.41,-30.83 499.41,-36.83 493.41,-36.83 493.41,-36.83 401.41,-36.83 401.41,-36.83 395.41,-36.83 389.41,-30.83 389.41,-24.83 389.41,-24.83 389.41,-12.83 389.41,-12.83 389.41,-6.83 395.41,-0.83 401.41,-0.83"/>
<text text-anchor="middle" x="447.41" y="-15.13" font-family="Arial" font-size="14.00">lcNeedsAnalysis</text>
</g>
<!-- section&#45;&gt;lcNeedsAnalysis -->
<g id="edge7" class="edge">
<title>section&#45;&gt;lcNeedsAnalysis</title>
<path fill="none" stroke="#1f78b4" d="M444.33,-107.52C444.91,-91.02 445.76,-66.4 446.42,-47.28"/>
<polygon fill="#a6cee3" stroke="#1f78b4" points="449.93,-47.15 446.78,-37.04 442.93,-46.91 449.93,-47.15"/>
</g>
<!-- lcGapAnalysis -->
<g id="node9" class="node">
<title>lcGapAnalysis</title>
<path fill="#1afabc" stroke="black" d="M531.37,-37.83C531.37,-37.83 610.37,-37.83 610.37,-37.83 616.37,-37.83 622.37,-43.83 622.37,-49.83 622.37,-49.83 622.37,-61.83 622.37,-61.83 622.37,-67.83 616.37,-73.83 610.37,-73.83 610.37,-73.83 531.37,-73.83 531.37,-73.83 525.37,-73.83 519.37,-67.83 519.37,-61.83 519.37,-61.83 519.37,-49.83 519.37,-49.83 519.37,-43.83 525.37,-37.83 531.37,-37.83"/>
<text text-anchor="middle" x="570.87" y="-52.13" font-family="Arial" font-size="14.00">lcGapAnalysis</text>
</g>
<!-- section&#45;&gt;lcGapAnalysis -->
<g id="edge8" class="edge">
<title>section&#45;&gt;lcGapAnalysis</title>
<path fill="none" stroke="#1f78b4" d="M473.52,-109.27C489.9,-100.28 510.49,-88.97 528.51,-79.08"/>
<polygon fill="#a6cee3" stroke="#1f78b4" points="530.58,-81.94 537.66,-74.06 527.21,-75.8 530.58,-81.94"/>
</g>
<!-- lcIntervention -->
<g id="node10" class="node">
<title>lcIntervention</title>
<path fill="#1afabc" stroke="black" d="M259.9,-90.97C259.9,-90.97 332.9,-90.97 332.9,-90.97 338.9,-90.97 344.9,-96.97 344.9,-102.97 344.9,-102.97 344.9,-114.97 344.9,-114.97 344.9,-120.97 338.9,-126.97 332.9,-126.97 332.9,-126.97 259.9,-126.97 259.9,-126.97 253.9,-126.97 247.9,-120.97 247.9,-114.97 247.9,-114.97 247.9,-102.97 247.9,-102.97 247.9,-96.97 253.9,-90.97 259.9,-90.97"/>
<text text-anchor="middle" x="296.4" y="-105.27" font-family="Arial" font-size="14.00">lcIntervention</text>
</g>
<!-- section&#45;&gt;lcIntervention -->
<g id="edge9" class="edge">
<title>section&#45;&gt;lcIntervention</title>
<path fill="none" stroke="#1f78b4" d="M413.9,-122.26C397,-120.35 375.25,-117.89 355.07,-115.61"/>
<polygon fill="#a6cee3" stroke="#1f78b4" points="355.34,-112.12 345.01,-114.47 354.55,-119.07 355.34,-112.12"/>
</g>
<!-- lcTechnical -->
<g id="node11" class="node">
<title>lcTechnical</title>
<path fill="#1afabc" stroke="black" d="M364.22,-45.88C364.22,-45.88 423.22,-45.88 423.22,-45.88 429.22,-45.88 435.22,-51.88 435.22,-57.88 435.22,-57.88 435.22,-69.88 435.22,-69.88 435.22,-75.88 429.22,-81.88 423.22,-81.88 423.22,-81.88 364.22,-81.88 364.22,-81.88 358.22,-81.88 352.22,-75.88 352.22,-69.88 352.22,-69.88 352.22,-57.88 352.22,-57.88 352.22,-51.88 358.22,-45.88 364.22,-45.88"/>
<text text-anchor="middle" x="393.72" y="-60.18" font-family="Arial" font-size="14.00">lcTechnical</text>
</g>
<!-- section&#45;&gt;lcTechnical -->
<g id="edge10" class="edge">
<title>section&#45;&gt;lcTechnical</title>
<path fill="none" stroke="#1f78b4" d="M428.98,-107.44C424.55,-101.96 419.59,-95.84 414.82,-89.95"/>
<polygon fill="#a6cee3" stroke="#1f78b4" points="417.53,-87.73 408.52,-82.16 412.09,-92.13 417.53,-87.73"/>
</g>
<!-- lcClient -->
<g id="node13" class="node">
<title>lcClient</title>
<path fill="#1afabc" stroke="black" d="M284.56,-315.33C284.56,-315.33 321.56,-315.33 321.56,-315.33 327.56,-315.33 333.56,-321.33 333.56,-327.33 333.56,-327.33 333.56,-339.33 333.56,-339.33 333.56,-345.33 327.56,-351.33 321.56,-351.33 321.56,-351.33 284.56,-351.33 284.56,-351.33 278.56,-351.33 272.56,-345.33 272.56,-339.33 272.56,-339.33 272.56,-327.33 272.56,-327.33 272.56,-321.33 278.56,-315.33 284.56,-315.33"/>
<text text-anchor="middle" x="303.06" y="-329.63" font-family="Arial" font-size="14.00">lcClient</text>
</g>
<!-- fig&#45;&gt;lcClient -->
<g id="edge12" class="edge">
<title>fig&#45;&gt;lcClient</title>
<path fill="none" stroke="#1f78b4" d="M371.38,-417.79C358.25,-401.56 338.95,-377.71 324.22,-359.49"/>
<polygon fill="#a6cee3" stroke="#1f78b4" points="326.82,-357.13 317.81,-351.56 321.37,-361.53 326.82,-357.13"/>
</g>
<!-- lcPlanTitle -->
<g id="node14" class="node">
<title>lcPlanTitle</title>
<path fill="#1afabc" stroke="black" d="M153.93,-555.15C153.93,-555.15 208.93,-555.15 208.93,-555.15 214.93,-555.15 220.93,-561.15 220.93,-567.15 220.93,-567.15 220.93,-579.15 220.93,-579.15 220.93,-585.15 214.93,-591.15 208.93,-591.15 208.93,-591.15 153.93,-591.15 153.93,-591.15 147.93,-591.15 141.93,-585.15 141.93,-579.15 141.93,-579.15 141.93,-567.15 141.93,-567.15 141.93,-561.15 147.93,-555.15 153.93,-555.15"/>
<text text-anchor="middle" x="181.43" y="-569.45" font-family="Arial" font-size="14.00">lcPlanTitle</text>
</g>
<!-- fig&#45;&gt;lcPlanTitle -->
<g id="edge13" class="edge">
<title>fig&#45;&gt;lcPlanTitle</title>
<path fill="none" stroke="#1f78b4" d="M359.05,-454.37C322.45,-478.84 257.29,-522.42 216.89,-549.44"/>
<polygon fill="#a6cee3" stroke="#1f78b4" points="214.78,-546.64 208.42,-555.11 218.67,-552.46 214.78,-546.64"/>
</g>
<!-- lcCIN -->
<g id="node15" class="node">
<title>lcCIN</title>
<path fill="#1afabc" stroke="black" d="M250.02,-460.51C250.02,-460.51 280.02,-460.51 280.02,-460.51 286.02,-460.51 292.02,-466.51 292.02,-472.51 292.02,-472.51 292.02,-484.51 292.02,-484.51 292.02,-490.51 286.02,-496.51 280.02,-496.51 280.02,-496.51 250.02,-496.51 250.02,-496.51 244.02,-496.51 238.02,-490.51 238.02,-484.51 238.02,-484.51 238.02,-472.51 238.02,-472.51 238.02,-466.51 244.02,-460.51 250.02,-460.51"/>
<text text-anchor="middle" x="265.02" y="-474.81" font-family="Arial" font-size="14.00">lcCIN</text>
</g>
<!-- fig&#45;&gt;lcCIN -->
<g id="edge14" class="edge">
<title>fig&#45;&gt;lcCIN</title>
<path fill="none" stroke="#1f78b4" d="M359.04,-445.68C342.12,-451.59 320.14,-459.26 301.69,-465.71"/>
<polygon fill="#a6cee3" stroke="#1f78b4" points="300.42,-462.44 292.14,-469.05 302.73,-469.05 300.42,-462.44"/>
</g>
<!-- lcModDate -->
<g id="node16" class="node">
<title>lcModDate</title>
<path fill="#1afabc" stroke="black" d="M415.64,-298.5C415.64,-298.5 473.64,-298.5 473.64,-298.5 479.64,-298.5 485.64,-304.5 485.64,-310.5 485.64,-310.5 485.64,-322.5 485.64,-322.5 485.64,-328.5 479.64,-334.5 473.64,-334.5 473.64,-334.5 415.64,-334.5 415.64,-334.5 409.64,-334.5 403.64,-328.5 403.64,-322.5 403.64,-322.5 403.64,-310.5 403.64,-310.5 403.64,-304.5 409.64,-298.5 415.64,-298.5"/>
<text text-anchor="middle" x="444.64" y="-312.8" font-family="Arial" font-size="14.00">lcModDate</text>
</g>
<!-- fig&#45;&gt;lcModDate -->
<g id="edge15" class="edge">
<title>fig&#45;&gt;lcModDate</title>
<path fill="none" stroke="#1f78b4" d="M395.11,-418C404.72,-398.32 420.15,-366.7 431.23,-343.98"/>
<polygon fill="#a6cee3" stroke="#1f78b4" points="434.45,-345.37 435.69,-334.85 428.16,-342.3 434.45,-345.37"/>
</g>
<!-- lcDelivDate -->
<g id="node17" class="node">
<title>lcDelivDate</title>
<path fill="#1afabc" stroke="black" d="M379.81,-628.77C379.81,-628.77 440.81,-628.77 440.81,-628.77 446.81,-628.77 452.81,-634.77 452.81,-640.77 452.81,-640.77 452.81,-652.77 452.81,-652.77 452.81,-658.77 446.81,-664.77 440.81,-664.77 440.81,-664.77 379.81,-664.77 379.81,-664.77 373.81,-664.77 367.81,-658.77 367.81,-652.77 367.81,-652.77 367.81,-640.77 367.81,-640.77 367.81,-634.77 373.81,-628.77 379.81,-628.77"/>
<text text-anchor="middle" x="410.31" y="-643.07" font-family="Arial" font-size="14.00">lcDelivDate</text>
</g>
<!-- fig&#45;&gt;lcDelivDate -->
<g id="edge16" class="edge">
<title>fig&#45;&gt;lcDelivDate</title>
<path fill="none" stroke="#1f78b4" d="M388.34,-454.5C392.56,-491.38 402.09,-574.81 407.1,-618.65"/>
<polygon fill="#a6cee3" stroke="#1f78b4" points="403.63,-619.1 408.24,-628.64 410.58,-618.31 403.63,-619.1"/>
</g>
<!-- lcPlanSubject -->
<g id="node18" class="node">
<title>lcPlanSubject</title>
<path fill="#1afabc" stroke="black" d="M91.96,-460.41C91.96,-460.41 165.96,-460.41 165.96,-460.41 171.96,-460.41 177.96,-466.41 177.96,-472.41 177.96,-472.41 177.96,-484.41 177.96,-484.41 177.96,-490.41 171.96,-496.41 165.96,-496.41 165.96,-496.41 91.96,-496.41 91.96,-496.41 85.96,-496.41 79.96,-490.41 79.96,-484.41 79.96,-484.41 79.96,-472.41 79.96,-472.41 79.96,-466.41 85.96,-460.41 91.96,-460.41"/>
<text text-anchor="middle" x="128.96" y="-474.71" font-family="Arial" font-size="14.00">lcPlanSubject</text>
</g>
<!-- fig&#45;&gt;lcPlanSubject -->
<g id="edge17" class="edge">
<title>fig&#45;&gt;lcPlanSubject</title>
<path fill="none" stroke="#1f78b4" d="M359.2,-440.62C318.96,-447.22 242.31,-459.81 188.54,-468.63"/>
<polygon fill="#a6cee3" stroke="#1f78b4" points="187.74,-465.21 178.44,-470.29 188.88,-472.12 187.74,-465.21"/>
</g>
<!-- lcPlanDescrip -->
<g id="node19" class="node">
<title>lcPlanDescrip</title>
<path fill="#1afabc" stroke="black" d="M80.34,-509.42C80.34,-509.42 155.34,-509.42 155.34,-509.42 161.34,-509.42 167.34,-515.42 167.34,-521.42 167.34,-521.42 167.34,-533.42 167.34,-533.42 167.34,-539.42 161.34,-545.42 155.34,-545.42 155.34,-545.42 80.34,-545.42 80.34,-545.42 74.34,-545.42 68.34,-539.42 68.34,-533.42 68.34,-533.42 68.34,-521.42 68.34,-521.42 68.34,-515.42 74.34,-509.42 80.34,-509.42"/>
<text text-anchor="middle" x="117.84" y="-523.72" font-family="Arial" font-size="14.00">lcPlanDescrip</text>
</g>
<!-- fig&#45;&gt;lcPlanDescrip -->
<g id="edge18" class="edge">
<title>fig&#45;&gt;lcPlanDescrip</title>
<path fill="none" stroke="#1f78b4" d="M359.03,-445.43C316.58,-459.86 233.58,-488.07 176.93,-507.33"/>
<polygon fill="#a6cee3" stroke="#1f78b4" points="175.71,-504.05 167.37,-510.58 177.97,-510.68 175.71,-504.05"/>
</g>
<!-- lcPlanPrereqs -->
<g id="node20" class="node">
<title>lcPlanPrereqs</title>
<path fill="#1afabc" stroke="black" d="M267.44,-602.86C267.44,-602.86 344.44,-602.86 344.44,-602.86 350.44,-602.86 356.44,-608.86 356.44,-614.86 356.44,-614.86 356.44,-626.86 356.44,-626.86 356.44,-632.86 350.44,-638.86 344.44,-638.86 344.44,-638.86 267.44,-638.86 267.44,-638.86 261.44,-638.86 255.44,-632.86 255.44,-626.86 255.44,-626.86 255.44,-614.86 255.44,-614.86 255.44,-608.86 261.44,-602.86 267.44,-602.86"/>
<text text-anchor="middle" x="305.94" y="-617.16" font-family="Arial" font-size="14.00">lcPlanPrereqs</text>
</g>
<!-- fig&#45;&gt;lcPlanPrereqs -->
<g id="edge19" class="edge">
<title>fig&#45;&gt;lcPlanPrereqs</title>
<path fill="none" stroke="#1f78b4" d="M378.4,-454.22C364.31,-486.63 334.62,-554.89 317.95,-593.23"/>
<polygon fill="#a6cee3" stroke="#1f78b4" points="314.59,-592.18 313.82,-602.74 321.01,-594.97 314.59,-592.18"/>
</g>
<!-- lcOrganizational -->
<g id="node21" class="node">
<title>lcOrganizational</title>
<path fill="#1afabc" stroke="black" d="M509.81,-536.5C509.81,-536.5 599.81,-536.5 599.81,-536.5 605.81,-536.5 611.81,-542.5 611.81,-548.5 611.81,-548.5 611.81,-560.5 611.81,-560.5 611.81,-566.5 605.81,-572.5 599.81,-572.5 599.81,-572.5 509.81,-572.5 509.81,-572.5 503.81,-572.5 497.81,-566.5 497.81,-560.5 497.81,-560.5 497.81,-548.5 497.81,-548.5 497.81,-542.5 503.81,-536.5 509.81,-536.5"/>
<text text-anchor="middle" x="554.81" y="-550.8" font-family="Arial" font-size="14.00">lcOrganizational</text>
</g>
<!-- fig&#45;&gt;lcOrganizational -->
<g id="edge20" class="edge">
<title>fig&#45;&gt;lcOrganizational</title>
<path fill="none" stroke="#1f78b4" d="M412.22,-454.41C441.38,-474.88 488.81,-508.17 520.88,-530.68"/>
<polygon fill="#a6cee3" stroke="#1f78b4" points="518.89,-533.56 529.09,-536.44 522.92,-527.83 518.89,-533.56"/>
</g>
<!-- lcPlanAudience -->
<g id="node22" class="node">
<title>lcPlanAudience</title>
<path fill="#1afabc" stroke="black" d="M549.16,-437.16C549.16,-437.16 635.16,-437.16 635.16,-437.16 641.16,-437.16 647.16,-443.16 647.16,-449.16 647.16,-449.16 647.16,-461.16 647.16,-461.16 647.16,-467.16 641.16,-473.16 635.16,-473.16 635.16,-473.16 549.16,-473.16 549.16,-473.16 543.16,-473.16 537.16,-467.16 537.16,-461.16 537.16,-461.16 537.16,-449.16 537.16,-449.16 537.16,-443.16 543.16,-437.16 549.16,-437.16"/>
<text text-anchor="middle" x="592.16" y="-451.46" font-family="Arial" font-size="14.00">lcPlanAudience</text>
</g>
<!-- fig&#45;&gt;lcPlanAudience -->
<g id="edge21" class="edge">
<title>fig&#45;&gt;lcPlanAudience</title>
<path fill="none" stroke="#1f78b4" d="M413.59,-438.7C442.31,-441.34 488.53,-445.6 526.75,-449.13"/>
<polygon fill="#a6cee3" stroke="#1f78b4" points="526.51,-452.62 536.79,-450.05 527.15,-445.65 526.51,-452.62"/>
</g>
<!-- lcWorkEnv -->
<g id="node23" class="node">
<title>lcWorkEnv</title>
<path fill="#1afabc" stroke="black" d="M489.53,-388.62C489.53,-388.62 546.53,-388.62 546.53,-388.62 552.53,-388.62 558.53,-394.62 558.53,-400.62 558.53,-400.62 558.53,-412.62 558.53,-412.62 558.53,-418.62 552.53,-424.62 546.53,-424.62 546.53,-424.62 489.53,-424.62 489.53,-424.62 483.53,-424.62 477.53,-418.62 477.53,-412.62 477.53,-412.62 477.53,-400.62 477.53,-400.62 477.53,-394.62 483.53,-388.62 489.53,-388.62"/>
<text text-anchor="middle" x="518.03" y="-402.92" font-family="Arial" font-size="14.00">lcWorkEnv</text>
</g>
<!-- fig&#45;&gt;lcWorkEnv -->
<g id="edge22" class="edge">
<title>fig&#45;&gt;lcWorkEnv</title>
<path fill="none" stroke="#1f78b4" d="M413.55,-430.05C429.14,-426.56 449.17,-422.07 467.52,-417.95"/>
<polygon fill="#a6cee3" stroke="#1f78b4" points="468.5,-421.32 477.5,-415.71 466.97,-414.49 468.5,-421.32"/>
</g>
<!-- lcTask -->
<g id="node24" class="node">
<title>lcTask</title>
<path fill="#1afabc" stroke="black" d="M459.46,-343.55C459.46,-343.55 489.46,-343.55 489.46,-343.55 495.46,-343.55 501.46,-349.55 501.46,-355.55 501.46,-355.55 501.46,-367.55 501.46,-367.55 501.46,-373.55 495.46,-379.55 489.46,-379.55 489.46,-379.55 459.46,-379.55 459.46,-379.55 453.46,-379.55 447.46,-373.55 447.46,-367.55 447.46,-367.55 447.46,-355.55 447.46,-355.55 447.46,-349.55 453.46,-343.55 459.46,-343.55"/>
<text text-anchor="middle" x="474.46" y="-357.85" font-family="Arial" font-size="14.00">lcTask</text>
</g>
<!-- fig&#45;&gt;lcTask -->
<g id="edge23" class="edge">
<title>fig&#45;&gt;lcTask</title>
<path fill="none" stroke="#1f78b4" d="M407.6,-418.11C418.89,-408.56 432.93,-396.69 445.22,-386.29"/>
<polygon fill="#a6cee3" stroke="#1f78b4" points="447.62,-388.84 452.99,-379.71 443.1,-383.49 447.62,-388.84"/>
</g>
<!-- lcGapItem -->
<g id="node25" class="node">
<title>lcGapItem</title>
<path fill="#1afabc" stroke="black" d="M243.59,-361.45C243.59,-361.45 299.59,-361.45 299.59,-361.45 305.59,-361.45 311.59,-367.45 311.59,-373.45 311.59,-373.45 311.59,-385.45 311.59,-385.45 311.59,-391.45 305.59,-397.45 299.59,-397.45 299.59,-397.45 243.59,-397.45 243.59,-397.45 237.59,-397.45 231.59,-391.45 231.59,-385.45 231.59,-385.45 231.59,-373.45 231.59,-373.45 231.59,-367.45 237.59,-361.45 243.59,-361.45"/>
<text text-anchor="middle" x="271.59" y="-375.75" font-family="Arial" font-size="14.00">lcGapItem</text>
</g>
<!-- fig&#45;&gt;lcGapItem -->
<g id="edge24" class="edge">
<title>fig&#45;&gt;lcGapItem</title>
<path fill="none" stroke="#1f78b4" d="M359.07,-422.73C346.58,-416.55 331.41,-409.05 317.24,-402.04"/>
<polygon fill="#a6cee3" stroke="#1f78b4" points="318.63,-398.82 308.11,-397.52 315.52,-405.09 318.63,-398.82"/>
</g>
<!-- lcInterventionItem -->
<g id="node26" class="node">
<title>lcInterventionItem</title>
<path fill="#1afabc" stroke="black" d="M152.45,-274.66C152.45,-274.66 252.45,-274.66 252.45,-274.66 258.45,-274.66 264.45,-280.66 264.45,-286.66 264.45,-286.66 264.45,-298.66 264.45,-298.66 264.45,-304.66 258.45,-310.66 252.45,-310.66 252.45,-310.66 152.45,-310.66 152.45,-310.66 146.45,-310.66 140.45,-304.66 140.45,-298.66 140.45,-298.66 140.45,-286.66 140.45,-286.66 140.45,-280.66 146.45,-274.66 152.45,-274.66"/>
<text text-anchor="middle" x="202.45" y="-288.96" font-family="Arial" font-size="14.00">lcInterventionItem</text>
</g>
<!-- fig&#45;&gt;lcInterventionItem -->
<g id="edge25" class="edge">
<title>fig&#45;&gt;lcInterventionItem</title>
<path fill="none" stroke="#1f78b4" d="M362.97,-418C330.24,-392.44 270.53,-345.82 233.88,-317.2"/>
<polygon fill="#a6cee3" stroke="#1f78b4" points="235.58,-314.09 225.54,-310.69 231.27,-319.6 235.58,-314.09"/>
</g>
<!-- lcLMS -->
<g id="node27" class="node">
<title>lcLMS</title>
<path fill="#1afabc" stroke="black" d="M407.25,-521.82C407.25,-521.82 438.25,-521.82 438.25,-521.82 444.25,-521.82 450.25,-527.82 450.25,-533.82 450.25,-533.82 450.25,-545.82 450.25,-545.82 450.25,-551.82 444.25,-557.82 438.25,-557.82 438.25,-557.82 407.25,-557.82 407.25,-557.82 401.25,-557.82 395.25,-551.82 395.25,-545.82 395.25,-545.82 395.25,-533.82 395.25,-533.82 395.25,-527.82 401.25,-521.82 407.25,-521.82"/>
<text text-anchor="middle" x="422.75" y="-536.12" font-family="Arial" font-size="14.00">lcLMS</text>
</g>
<!-- fig&#45;&gt;lcLMS -->
<g id="edge26" class="edge">
<title>fig&#45;&gt;lcLMS</title>
<path fill="none" stroke="#1f78b4" d="M392.6,-454.23C398.22,-470.18 406.5,-493.7 412.97,-512.05"/>
<polygon fill="#a6cee3" stroke="#1f78b4" points="409.72,-513.36 416.34,-521.63 416.32,-511.03 409.72,-513.36"/>
</g>
<!-- lcNoLMS -->
<g id="node28" class="node">
<title>lcNoLMS</title>
<path fill="#1afabc" stroke="black" d="M175.01,-415.37C175.01,-415.37 223.01,-415.37 223.01,-415.37 229.01,-415.37 235.01,-421.37 235.01,-427.37 235.01,-427.37 235.01,-439.37 235.01,-439.37 235.01,-445.37 229.01,-451.37 223.01,-451.37 223.01,-451.37 175.01,-451.37 175.01,-451.37 169.01,-451.37 163.01,-445.37 163.01,-439.37 163.01,-439.37 163.01,-427.37 163.01,-427.37 163.01,-421.37 169.01,-415.37 175.01,-415.37"/>
<text text-anchor="middle" x="199.01" y="-429.67" font-family="Arial" font-size="14.00">lcNoLMS</text>
</g>
<!-- fig&#45;&gt;lcNoLMS -->
<g id="edge27" class="edge">
<title>fig&#45;&gt;lcNoLMS</title>
<path fill="none" stroke="#1f78b4" d="M359.02,-435.77C329.3,-435.32 281.17,-434.6 245.45,-434.07"/>
<polygon fill="#a6cee3" stroke="#1f78b4" points="245.32,-430.56 235.27,-433.91 245.21,-437.56 245.32,-430.56"/>
</g>
<!-- lcHandouts -->
<g id="node29" class="node">
<title>lcHandouts</title>
<path fill="#1afabc" stroke="black" d="M245.76,-553.54C245.76,-553.54 305.76,-553.54 305.76,-553.54 311.76,-553.54 317.76,-559.54 317.76,-565.54 317.76,-565.54 317.76,-577.54 317.76,-577.54 317.76,-583.54 311.76,-589.54 305.76,-589.54 305.76,-589.54 245.76,-589.54 245.76,-589.54 239.76,-589.54 233.76,-583.54 233.76,-577.54 233.76,-577.54 233.76,-565.54 233.76,-565.54 233.76,-559.54 239.76,-553.54 245.76,-553.54"/>
<text text-anchor="middle" x="275.76" y="-567.84" font-family="Arial" font-size="14.00">lcHandouts</text>
</g>
<!-- fig&#45;&gt;lcHandouts -->
<g id="edge28" class="edge">
<title>fig&#45;&gt;lcHandouts</title>
<path fill="none" stroke="#1f78b4" d="M371.35,-454.43C352.24,-477.85 318.96,-518.61 297.15,-545.34"/>
<polygon fill="#a6cee3" stroke="#1f78b4" points="294.39,-543.18 290.78,-553.14 299.81,-547.61 294.39,-543.18"/>
</g>
<!-- lcClassroom -->
<g id="node30" class="node">
<title>lcClassroom</title>
<path fill="#1afabc" stroke="black" d="M447.68,-581.8C447.68,-581.8 515.68,-581.8 515.68,-581.8 521.68,-581.8 527.68,-587.8 527.68,-593.8 527.68,-593.8 527.68,-605.8 527.68,-605.8 527.68,-611.8 521.68,-617.8 515.68,-617.8 515.68,-617.8 447.68,-617.8 447.68,-617.8 441.68,-617.8 435.68,-611.8 435.68,-605.8 435.68,-605.8 435.68,-593.8 435.68,-593.8 435.68,-587.8 441.68,-581.8 447.68,-581.8"/>
<text text-anchor="middle" x="481.68" y="-596.1" font-family="Arial" font-size="14.00">lcClassroom</text>
</g>
<!-- fig&#45;&gt;lcClassroom -->
<g id="edge29" class="edge">
<title>fig&#45;&gt;lcClassroom</title>
<path fill="none" stroke="#1f78b4" d="M396.82,-454.31C413.59,-483.06 446.37,-539.26 465.92,-572.77"/>
<polygon fill="#a6cee3" stroke="#1f78b4" points="462.99,-574.71 471.05,-581.58 469.04,-571.18 462.99,-574.71"/>
</g>
<!-- lcOJT -->
<g id="node31" class="node">
<title>lcOJT</title>
<path fill="#1afabc" stroke="black" d="M353.58,-307.53C353.58,-307.53 383.58,-307.53 383.58,-307.53 389.58,-307.53 395.58,-313.53 395.58,-319.53 395.58,-319.53 395.58,-331.53 395.58,-331.53 395.58,-337.53 389.58,-343.53 383.58,-343.53 383.58,-343.53 353.58,-343.53 353.58,-343.53 347.58,-343.53 341.58,-337.53 341.58,-331.53 341.58,-331.53 341.58,-319.53 341.58,-319.53 341.58,-313.53 347.58,-307.53 353.58,-307.53"/>
<text text-anchor="middle" x="368.58" y="-321.83" font-family="Arial" font-size="14.00">lcOJT</text>
</g>
<!-- fig&#45;&gt;lcOJT -->
<g id="edge30" class="edge">
<title>fig&#45;&gt;lcOJT</title>
<path fill="none" stroke="#1f78b4" d="M383.33,-417.91C380.54,-400.45 376.3,-373.88 373.08,-353.71"/>
<polygon fill="#a6cee3" stroke="#1f78b4" points="376.54,-353.15 371.5,-343.83 369.62,-354.26 376.54,-353.15"/>
</g>
<!-- lcConstraints -->
<g id="node32" class="node">
<title>lcConstraints</title>
<path fill="#1afabc" stroke="black" d="M140.51,-325.21C140.51,-325.21 211.51,-325.21 211.51,-325.21 217.51,-325.21 223.51,-331.21 223.51,-337.21 223.51,-337.21 223.51,-349.21 223.51,-349.21 223.51,-355.21 217.51,-361.21 211.51,-361.21 211.51,-361.21 140.51,-361.21 140.51,-361.21 134.51,-361.21 128.51,-355.21 128.51,-349.21 128.51,-349.21 128.51,-337.21 128.51,-337.21 128.51,-331.21 134.51,-325.21 140.51,-325.21"/>
<text text-anchor="middle" x="176.01" y="-339.51" font-family="Arial" font-size="14.00">lcConstraints</text>
</g>
<!-- fig&#45;&gt;lcConstraints -->
<g id="edge31" class="edge">
<title>fig&#45;&gt;lcConstraints</title>
<path fill="none" stroke="#1f78b4" d="M359.19,-424.21C325.68,-409.4 267.93,-383.86 226.22,-365.41"/>
<polygon fill="#a6cee3" stroke="#1f78b4" points="227.61,-362.2 217.05,-361.36 224.78,-368.6 227.61,-362.2"/>
</g>
<!-- lcW3C -->
<g id="node33" class="node">
<title>lcW3C</title>
<path fill="#1afabc" stroke="black" d="M342.23,-557.82C342.23,-557.82 375.23,-557.82 375.23,-557.82 381.23,-557.82 387.23,-563.82 387.23,-569.82 387.23,-569.82 387.23,-581.82 387.23,-581.82 387.23,-587.82 381.23,-593.82 375.23,-593.82 375.23,-593.82 342.23,-593.82 342.23,-593.82 336.23,-593.82 330.23,-587.82 330.23,-581.82 330.23,-581.82 330.23,-569.82 330.23,-569.82 330.23,-563.82 336.23,-557.82 342.23,-557.82"/>
<text text-anchor="middle" x="358.73" y="-572.12" font-family="Arial" font-size="14.00">lcW3C</text>
</g>
<!-- fig&#45;&gt;lcW3C -->
<g id="edge32" class="edge">
<title>fig&#45;&gt;lcW3C</title>
<path fill="none" stroke="#1f78b4" d="M382.65,-454.43C377.97,-478.16 369.76,-519.85 364.28,-547.65"/>
<polygon fill="#a6cee3" stroke="#1f78b4" points="360.83,-547.07 362.33,-557.56 367.7,-548.43 360.83,-547.07"/>
</g>
<!-- lcPlayers -->
<g id="node34" class="node">
<title>lcPlayers</title>
<path fill="#1afabc" stroke="black" d="M470.14,-476.81C470.14,-476.81 517.14,-476.81 517.14,-476.81 523.14,-476.81 529.14,-482.81 529.14,-488.81 529.14,-488.81 529.14,-500.81 529.14,-500.81 529.14,-506.81 523.14,-512.81 517.14,-512.81 517.14,-512.81 470.14,-512.81 470.14,-512.81 464.14,-512.81 458.14,-506.81 458.14,-500.81 458.14,-500.81 458.14,-488.81 458.14,-488.81 458.14,-482.81 464.14,-476.81 470.14,-476.81"/>
<text text-anchor="middle" x="493.64" y="-491.11" font-family="Arial" font-size="14.00">lcPlayers</text>
</g>
<!-- fig&#45;&gt;lcPlayers -->
<g id="edge33" class="edge">
<title>fig&#45;&gt;lcPlayers</title>
<path fill="none" stroke="#1f78b4" d="M413.35,-450.97C424.85,-457.25 438.52,-464.72 451.3,-471.69"/>
<polygon fill="#a6cee3" stroke="#1f78b4" points="449.95,-474.94 460.4,-476.66 453.3,-468.8 449.95,-474.94"/>
</g>
<!-- lcGraphics -->
<g id="node35" class="node">
<title>lcGraphics</title>
<path fill="#1afabc" stroke="black" d="M153.43,-370.29C153.43,-370.29 210.43,-370.29 210.43,-370.29 216.43,-370.29 222.43,-376.29 222.43,-382.29 222.43,-382.29 222.43,-394.29 222.43,-394.29 222.43,-400.29 216.43,-406.29 210.43,-406.29 210.43,-406.29 153.43,-406.29 153.43,-406.29 147.43,-406.29 141.43,-400.29 141.43,-394.29 141.43,-394.29 141.43,-382.29 141.43,-382.29 141.43,-376.29 147.43,-370.29 153.43,-370.29"/>
<text text-anchor="middle" x="181.93" y="-384.59" font-family="Arial" font-size="14.00">lcGraphics</text>
</g>
<!-- fig&#45;&gt;lcGraphics -->
<g id="edge34" class="edge">
<title>fig&#45;&gt;lcGraphics</title>
<path fill="none" stroke="#1f78b4" d="M359.11,-429.82C326.89,-422.27 272.47,-409.51 232.43,-400.12"/>
<polygon fill="#a6cee3" stroke="#1f78b4" points="233.11,-396.69 222.58,-397.82 231.52,-403.51 233.11,-396.69"/>
</g>
<!-- lcViewers -->
<g id="node36" class="node">
<title>lcViewers</title>
<path fill="#1afabc" stroke="black" d="M190.65,-505.55C190.65,-505.55 240.65,-505.55 240.65,-505.55 246.65,-505.55 252.65,-511.55 252.65,-517.55 252.65,-517.55 252.65,-529.55 252.65,-529.55 252.65,-535.55 246.65,-541.55 240.65,-541.55 240.65,-541.55 190.65,-541.55 190.65,-541.55 184.65,-541.55 178.65,-535.55 178.65,-529.55 178.65,-529.55 178.65,-517.55 178.65,-517.55 178.65,-511.55 184.65,-505.55 190.65,-505.55"/>
<text text-anchor="middle" x="215.65" y="-519.85" font-family="Arial" font-size="14.00">lcViewers</text>
</g>
<!-- fig&#45;&gt;lcViewers -->
<g id="edge35" class="edge">
<title>fig&#45;&gt;lcViewers</title>
<path fill="none" stroke="#1f78b4" d="M359.22,-450.02C332.54,-463.69 291.29,-484.81 259.84,-500.92"/>
<polygon fill="#a6cee3" stroke="#1f78b4" points="258.14,-497.85 250.84,-505.53 261.33,-504.08 258.14,-497.85"/>
</g>
<!-- lcResolution -->
<g id="node37" class="node">
<title>lcResolution</title>
<path fill="#1afabc" stroke="black" d="M169.37,-604.58C169.37,-604.58 235.37,-604.58 235.37,-604.58 241.37,-604.58 247.37,-610.58 247.37,-616.58 247.37,-616.58 247.37,-628.58 247.37,-628.58 247.37,-634.58 241.37,-640.58 235.37,-640.58 235.37,-640.58 169.37,-640.58 169.37,-640.58 163.37,-640.58 157.37,-634.58 157.37,-628.58 157.37,-628.58 157.37,-616.58 157.37,-616.58 157.37,-610.58 163.37,-604.58 169.37,-604.58"/>
<text text-anchor="middle" x="202.37" y="-618.88" font-family="Arial" font-size="14.00">lcResolution</text>
</g>
<!-- fig&#45;&gt;lcResolution -->
<g id="edge36" class="edge">
<title>fig&#45;&gt;lcResolution</title>
<path fill="none" stroke="#1f78b4" d="M368.28,-454.39C335.24,-487.89 264.78,-559.31 227.19,-597.42"/>
<polygon fill="#a6cee3" stroke="#1f78b4" points="224.67,-594.99 220.14,-604.57 229.65,-599.91 224.67,-594.99"/>
</g>
<!-- lcFileSizeLimitations -->
<g id="node38" class="node">
<title>lcFileSizeLimitations</title>
<path fill="#1afabc" stroke="black" d="M12.03,-415.35C12.03,-415.35 128.03,-415.35 128.03,-415.35 134.03,-415.35 140.03,-421.35 140.03,-427.35 140.03,-427.35 140.03,-439.35 140.03,-439.35 140.03,-445.35 134.03,-451.35 128.03,-451.35 128.03,-451.35 12.03,-451.35 12.03,-451.35 6.03,-451.35 0.03,-445.35 0.03,-439.35 0.03,-439.35 0.03,-427.35 0.03,-427.35 0.03,-421.35 6.03,-415.35 12.03,-415.35"/>
<text text-anchor="middle" x="70.03" y="-429.65" font-family="Arial" font-size="14.00">lcFileSizeLimitations</text>
</g>
<!-- fig&#45;&gt;lcFileSizeLimitations -->
<g id="edge37" class="edge">
<title>fig&#45;&gt;lcFileSizeLimitations</title>
<path fill="none" stroke="#1f78b4" d="M359.01,-435.93C313.2,-435.52 219.03,-434.68 150.6,-434.07"/>
<polygon fill="#a6cee3" stroke="#1f78b4" points="150.31,-430.57 140.28,-433.98 150.25,-437.57 150.31,-430.57"/>
</g>
<!-- lcDownloadTime -->
<g id="node39" class="node">
<title>lcDownloadTime</title>
<path fill="#1afabc" stroke="black" d="M214.65,-651.52C214.65,-651.52 307.65,-651.52 307.65,-651.52 313.65,-651.52 319.65,-657.52 319.65,-663.52 319.65,-663.52 319.65,-675.52 319.65,-675.52 319.65,-681.52 313.65,-687.52 307.65,-687.52 307.65,-687.52 214.65,-687.52 214.65,-687.52 208.65,-687.52 202.65,-681.52 202.65,-675.52 202.65,-675.52 202.65,-663.52 202.65,-663.52 202.65,-657.52 208.65,-651.52 214.65,-651.52"/>
<text text-anchor="middle" x="261.15" y="-665.82" font-family="Arial" font-size="14.00">lcDownloadTime</text>
</g>
<!-- fig&#45;&gt;lcDownloadTime -->
<g id="edge38" class="edge">
<title>fig&#45;&gt;lcDownloadTime</title>
<path fill="none" stroke="#1f78b4" d="M376.43,-454.49C354.51,-495.38 301.47,-594.31 275.7,-642.39"/>
<polygon fill="#a6cee3" stroke="#1f78b4" points="272.56,-640.83 270.92,-651.29 278.73,-644.13 272.56,-640.83"/>
</g>
<!-- lcSecurity -->
<g id="node40" class="node">
<title>lcSecurity</title>
<path fill="#1afabc" stroke="black" d="M305.07,-262.51C305.07,-262.51 356.07,-262.51 356.07,-262.51 362.07,-262.51 368.07,-268.51 368.07,-274.51 368.07,-274.51 368.07,-286.51 368.07,-286.51 368.07,-292.51 362.07,-298.51 356.07,-298.51 356.07,-298.51 305.07,-298.51 305.07,-298.51 299.07,-298.51 293.07,-292.51 293.07,-286.51 293.07,-286.51 293.07,-274.51 293.07,-274.51 293.07,-268.51 299.07,-262.51 305.07,-262.51"/>
<text text-anchor="middle" x="330.57" y="-276.81" font-family="Arial" font-size="14.00">lcSecurity</text>
</g>
<!-- fig&#45;&gt;lcSecurity -->
<g id="edge39" class="edge">
<title>fig&#45;&gt;lcSecurity</title>
<path fill="none" stroke="#1f78b4" d="M379.75,-418.02C370.07,-390.95 351.79,-339.82 340.44,-308.11"/>
<polygon fill="#a6cee3" stroke="#1f78b4" points="343.69,-306.79 337.03,-298.55 337.1,-309.15 343.69,-306.79"/>
</g>
<!-- lcGeneralDescription -->
<g id="node42" class="node">
<title>lcGeneralDescription</title>
<path fill="#1afabc" stroke="black" d="M900.2,-210.71C900.2,-210.71 1019.2,-210.71 1019.2,-210.71 1025.2,-210.71 1031.2,-216.71 1031.2,-222.71 1031.2,-222.71 1031.2,-234.71 1031.2,-234.71 1031.2,-240.71 1025.2,-246.71 1019.2,-246.71 1019.2,-246.71 900.2,-246.71 900.2,-246.71 894.2,-246.71 888.2,-240.71 888.2,-234.71 888.2,-234.71 888.2,-222.71 888.2,-222.71 888.2,-216.71 894.2,-210.71 900.2,-210.71"/>
<text text-anchor="middle" x="959.7" y="-225.01" font-family="Arial" font-size="14.00">lcGeneralDescription</text>
</g>
<!-- p&#45;&gt;lcGeneralDescription -->
<g id="edge41" class="edge">
<title>p&#45;&gt;lcGeneralDescription</title>
<path fill="none" stroke="#1f78b4" d="M761.45,-256.55C790.23,-252.51 837.05,-245.93 877.97,-240.19"/>
<polygon fill="#a6cee3" stroke="#1f78b4" points="878.54,-243.64 887.95,-238.79 877.56,-236.71 878.54,-243.64"/>
</g>
<!-- lcGoals -->
<g id="node43" class="node">
<title>lcGoals</title>
<path fill="#1afabc" stroke="black" d="M793.89,-234.26C793.89,-234.26 831.89,-234.26 831.89,-234.26 837.89,-234.26 843.89,-240.26 843.89,-246.26 843.89,-246.26 843.89,-258.26 843.89,-258.26 843.89,-264.26 837.89,-270.26 831.89,-270.26 831.89,-270.26 793.89,-270.26 793.89,-270.26 787.89,-270.26 781.89,-264.26 781.89,-258.26 781.89,-258.26 781.89,-246.26 781.89,-246.26 781.89,-240.26 787.89,-234.26 793.89,-234.26"/>
<text text-anchor="middle" x="812.89" y="-248.56" font-family="Arial" font-size="14.00">lcGoals</text>
</g>
<!-- p&#45;&gt;lcGoals -->
<g id="edge42" class="edge">
<title>p&#45;&gt;lcGoals</title>
<path fill="none" stroke="#1f78b4" d="M761.32,-257.57C764.6,-257.24 768.02,-256.88 771.46,-256.53"/>
<polygon fill="#a6cee3" stroke="#1f78b4" points="772.14,-259.98 781.72,-255.47 771.42,-253.02 772.14,-259.98"/>
</g>
<!-- lcNeeds -->
<g id="node44" class="node">
<title>lcNeeds</title>
<path fill="#1afabc" stroke="black" d="M740.65,-345.74C740.65,-345.74 781.65,-345.74 781.65,-345.74 787.65,-345.74 793.65,-351.74 793.65,-357.74 793.65,-357.74 793.65,-369.74 793.65,-369.74 793.65,-375.74 787.65,-381.74 781.65,-381.74 781.65,-381.74 740.65,-381.74 740.65,-381.74 734.65,-381.74 728.65,-375.74 728.65,-369.74 728.65,-369.74 728.65,-357.74 728.65,-357.74 728.65,-351.74 734.65,-345.74 740.65,-345.74"/>
<text text-anchor="middle" x="761.15" y="-360.04" font-family="Arial" font-size="14.00">lcNeeds</text>
</g>
<!-- p&#45;&gt;lcNeeds -->
<g id="edge43" class="edge">
<title>p&#45;&gt;lcNeeds</title>
<path fill="none" stroke="#1f78b4" d="M738.94,-278.37C743.06,-294.21 749.13,-317.52 753.88,-335.78"/>
<polygon fill="#a6cee3" stroke="#1f78b4" points="750.52,-336.8 756.43,-345.59 757.3,-335.03 750.52,-336.8"/>
</g>
<!-- lcValues -->
<g id="node45" class="node">
<title>lcValues</title>
<path fill="#1afabc" stroke="black" d="M753.54,-170.77C753.54,-170.77 796.54,-170.77 796.54,-170.77 802.54,-170.77 808.54,-176.77 808.54,-182.77 808.54,-182.77 808.54,-194.77 808.54,-194.77 808.54,-200.77 802.54,-206.77 796.54,-206.77 796.54,-206.77 753.54,-206.77 753.54,-206.77 747.54,-206.77 741.54,-200.77 741.54,-194.77 741.54,-194.77 741.54,-182.77 741.54,-182.77 741.54,-176.77 747.54,-170.77 753.54,-170.77"/>
<text text-anchor="middle" x="775.04" y="-185.07" font-family="Arial" font-size="14.00">lcValues</text>
</g>
<!-- p&#45;&gt;lcValues -->
<g id="edge44" class="edge">
<title>p&#45;&gt;lcValues</title>
<path fill="none" stroke="#1f78b4" d="M744.55,-242.3C749.1,-234.3 754.55,-224.73 759.58,-215.91"/>
<polygon fill="#a6cee3" stroke="#1f78b4" points="762.7,-217.5 764.61,-207.08 756.62,-214.04 762.7,-217.5"/>
</g>
<!-- lcOrgConstraints -->
<g id="node46" class="node">
<title>lcOrgConstraints</title>
<path fill="#1afabc" stroke="black" d="M879.33,-345.89C879.33,-345.89 973.33,-345.89 973.33,-345.89 979.33,-345.89 985.33,-351.89 985.33,-357.89 985.33,-357.89 985.33,-369.89 985.33,-369.89 985.33,-375.89 979.33,-381.89 973.33,-381.89 973.33,-381.89 879.33,-381.89 879.33,-381.89 873.33,-381.89 867.33,-375.89 867.33,-369.89 867.33,-369.89 867.33,-357.89 867.33,-357.89 867.33,-351.89 873.33,-345.89 879.33,-345.89"/>
<text text-anchor="middle" x="926.33" y="-360.19" font-family="Arial" font-size="14.00">lcOrgConstraints</text>
</g>
<!-- p&#45;&gt;lcOrgConstraints -->
<g id="edge45" class="edge">
<title>p&#45;&gt;lcOrgConstraints</title>
<path fill="none" stroke="#1f78b4" d="M761.37,-274.98C793.21,-292.14 846.41,-320.81 883.77,-340.95"/>
<polygon fill="#a6cee3" stroke="#1f78b4" points="882.44,-344.21 892.9,-345.87 885.76,-338.04 882.44,-344.21"/>
</g>
<!-- lcEdLevel -->
<g id="node47" class="node">
<title>lcEdLevel</title>
<path fill="#1afabc" stroke="black" d="M578.58,-392.14C578.58,-392.14 629.58,-392.14 629.58,-392.14 635.58,-392.14 641.58,-398.14 641.58,-404.14 641.58,-404.14 641.58,-416.14 641.58,-416.14 641.58,-422.14 635.58,-428.14 629.58,-428.14 629.58,-428.14 578.58,-428.14 578.58,-428.14 572.58,-428.14 566.58,-422.14 566.58,-416.14 566.58,-416.14 566.58,-404.14 566.58,-404.14 566.58,-398.14 572.58,-392.14 578.58,-392.14"/>
<text text-anchor="middle" x="604.08" y="-406.44" font-family="Arial" font-size="14.00">lcEdLevel</text>
</g>
<!-- p&#45;&gt;lcEdLevel -->
<g id="edge46" class="edge">
<title>p&#45;&gt;lcEdLevel</title>
<path fill="none" stroke="#1f78b4" d="M718.55,-278.43C695.58,-304.86 652.71,-354.18 626.45,-384.4"/>
<polygon fill="#a6cee3" stroke="#1f78b4" points="623.75,-382.17 619.83,-392.01 629.04,-386.76 623.75,-382.17"/>
</g>
<!-- lcAge -->
<g id="node48" class="node">
<title>lcAge</title>
<path fill="#1afabc" stroke="black" d="M656.53,-222.01C656.53,-222.01 686.53,-222.01 686.53,-222.01 692.53,-222.01 698.53,-228.01 698.53,-234.01 698.53,-234.01 698.53,-246.01 698.53,-246.01 698.53,-252.01 692.53,-258.01 686.53,-258.01 686.53,-258.01 656.53,-258.01 656.53,-258.01 650.53,-258.01 644.53,-252.01 644.53,-246.01 644.53,-246.01 644.53,-234.01 644.53,-234.01 644.53,-228.01 650.53,-222.01 656.53,-222.01"/>
<text text-anchor="middle" x="671.53" y="-236.31" font-family="Arial" font-size="14.00">lcAge</text>
</g>
<!-- p&#45;&gt;lcAge -->
<g id="edge47" class="edge">
<title>p&#45;&gt;lcAge</title>
<path fill="none" stroke="#1f78b4" d="M706.92,-251.49C706.84,-251.47 706.75,-251.44 706.66,-251.41"/>
<polygon fill="#a6cee3" stroke="#1f78b4" points="709.16,-248.54 698.57,-248.78 707,-255.2 709.16,-248.54"/>
</g>
<!-- lcBackground -->
<g id="node49" class="node">
<title>lcBackground</title>
<path fill="#1afabc" stroke="black" d="M811.91,-391.03C811.91,-391.03 885.91,-391.03 885.91,-391.03 891.91,-391.03 897.91,-397.03 897.91,-403.03 897.91,-403.03 897.91,-415.03 897.91,-415.03 897.91,-421.03 891.91,-427.03 885.91,-427.03 885.91,-427.03 811.91,-427.03 811.91,-427.03 805.91,-427.03 799.91,-421.03 799.91,-415.03 799.91,-415.03 799.91,-403.03 799.91,-403.03 799.91,-397.03 805.91,-391.03 811.91,-391.03"/>
<text text-anchor="middle" x="848.91" y="-405.33" font-family="Arial" font-size="14.00">lcBackground</text>
</g>
<!-- p&#45;&gt;lcBackground -->
<g id="edge48" class="edge">
<title>p&#45;&gt;lcBackground</title>
<path fill="none" stroke="#1f78b4" d="M748.31,-278.59C768.43,-304.67 805.53,-352.79 828.62,-382.73"/>
<polygon fill="#a6cee3" stroke="#1f78b4" points="825.85,-384.87 834.73,-390.65 831.4,-380.6 825.85,-384.87"/>
</g>
<!-- lcSkills -->
<g id="node50" class="node">
<title>lcSkills</title>
<path fill="#1afabc" stroke="black" d="M602.03,-130.45C602.03,-130.45 636.03,-130.45 636.03,-130.45 642.03,-130.45 648.03,-136.45 648.03,-142.45 648.03,-142.45 648.03,-154.45 648.03,-154.45 648.03,-160.45 642.03,-166.45 636.03,-166.45 636.03,-166.45 602.03,-166.45 602.03,-166.45 596.03,-166.45 590.03,-160.45 590.03,-154.45 590.03,-154.45 590.03,-142.45 590.03,-142.45 590.03,-136.45 596.03,-130.45 602.03,-130.45"/>
<text text-anchor="middle" x="619.03" y="-144.75" font-family="Arial" font-size="14.00">lcSkills</text>
</g>
<!-- p&#45;&gt;lcSkills -->
<g id="edge49" class="edge">
<title>p&#45;&gt;lcSkills</title>
<path fill="none" stroke="#1f78b4" d="M715.49,-242.13C696.32,-223.52 666.41,-194.47 644.98,-173.66"/>
<polygon fill="#a6cee3" stroke="#1f78b4" points="647.4,-171.13 637.79,-166.67 642.52,-176.15 647.4,-171.13"/>
</g>
<!-- lcKnowledge -->
<g id="node51" class="node">
<title>lcKnowledge</title>
<path fill="#1afabc" stroke="black" d="M798.73,-120.69C798.73,-120.69 867.73,-120.69 867.73,-120.69 873.73,-120.69 879.73,-126.69 879.73,-132.69 879.73,-132.69 879.73,-144.69 879.73,-144.69 879.73,-150.69 873.73,-156.69 867.73,-156.69 867.73,-156.69 798.73,-156.69 798.73,-156.69 792.73,-156.69 786.73,-150.69 786.73,-144.69 786.73,-144.69 786.73,-132.69 786.73,-132.69 786.73,-126.69 792.73,-120.69 798.73,-120.69"/>
<text text-anchor="middle" x="833.23" y="-134.99" font-family="Arial" font-size="14.00">lcKnowledge</text>
</g>
<!-- p&#45;&gt;lcKnowledge -->
<g id="edge50" class="edge">
<title>p&#45;&gt;lcKnowledge</title>
<path fill="none" stroke="#1f78b4" d="M749.07,-242.15C765.76,-221.63 793.03,-188.11 811.98,-164.81"/>
<polygon fill="#a6cee3" stroke="#1f78b4" points="814.71,-167 818.31,-157.03 809.28,-162.58 814.71,-167"/>
</g>
<!-- lcMotivation -->
<g id="node52" class="node">
<title>lcMotivation</title>
<path fill="#1afabc" stroke="black" d="M503.82,-154.57C503.82,-154.57 568.82,-154.57 568.82,-154.57 574.82,-154.57 580.82,-160.57 580.82,-166.57 580.82,-166.57 580.82,-178.57 580.82,-178.57 580.82,-184.57 574.82,-190.57 568.82,-190.57 568.82,-190.57 503.82,-190.57 503.82,-190.57 497.82,-190.57 491.82,-184.57 491.82,-178.57 491.82,-178.57 491.82,-166.57 491.82,-166.57 491.82,-160.57 497.82,-154.57 503.82,-154.57"/>
<text text-anchor="middle" x="536.32" y="-168.87" font-family="Arial" font-size="14.00">lcMotivation</text>
</g>
<!-- p&#45;&gt;lcMotivation -->
<g id="edge51" class="edge">
<title>p&#45;&gt;lcMotivation</title>
<path fill="none" stroke="#1f78b4" d="M707.15,-248.34C676.21,-234.62 624.93,-211.87 586.62,-194.88"/>
<polygon fill="#a6cee3" stroke="#1f78b4" points="587.74,-191.55 577.18,-190.69 584.9,-197.95 587.74,-191.55"/>
</g>
<!-- lcSpecChars -->
<g id="node53" class="node">
<title>lcSpecChars</title>
<path fill="#1afabc" stroke="black" d="M540.76,-83.83C540.76,-83.83 609.76,-83.83 609.76,-83.83 615.76,-83.83 621.76,-89.83 621.76,-95.83 621.76,-95.83 621.76,-107.83 621.76,-107.83 621.76,-113.83 615.76,-119.83 609.76,-119.83 609.76,-119.83 540.76,-119.83 540.76,-119.83 534.76,-119.83 528.76,-113.83 528.76,-107.83 528.76,-107.83 528.76,-95.83 528.76,-95.83 528.76,-89.83 534.76,-83.83 540.76,-83.83"/>
<text text-anchor="middle" x="575.26" y="-98.13" font-family="Arial" font-size="14.00">lcSpecChars</text>
</g>
<!-- p&#45;&gt;lcSpecChars -->
<g id="edge52" class="edge">
<title>p&#45;&gt;lcSpecChars</title>
<path fill="none" stroke="#1f78b4" d="M716.02,-242.18C687.78,-214.02 633.36,-159.76 601.09,-127.58"/>
<polygon fill="#a6cee3" stroke="#1f78b4" points="603.33,-124.88 593.78,-120.3 598.39,-129.84 603.33,-124.88"/>
</g>
<!-- lcWorkEnvDescription -->
<g id="node54" class="node">
<title>lcWorkEnvDescription</title>
<path fill="#1afabc" stroke="black" d="M912.5,-300.78C912.5,-300.78 1037.5,-300.78 1037.5,-300.78 1043.5,-300.78 1049.5,-306.78 1049.5,-312.78 1049.5,-312.78 1049.5,-324.78 1049.5,-324.78 1049.5,-330.78 1043.5,-336.78 1037.5,-336.78 1037.5,-336.78 912.5,-336.78 912.5,-336.78 906.5,-336.78 900.5,-330.78 900.5,-324.78 900.5,-324.78 900.5,-312.78 900.5,-312.78 900.5,-306.78 906.5,-300.78 912.5,-300.78"/>
<text text-anchor="middle" x="975" y="-315.08" font-family="Arial" font-size="14.00">lcWorkEnvDescription</text>
</g>
<!-- p&#45;&gt;lcWorkEnvDescription -->
<g id="edge53" class="edge">
<title>p&#45;&gt;lcWorkEnvDescription</title>
<path fill="none" stroke="#1f78b4" d="M761.4,-266.95C792.68,-274.54 845.59,-287.38 890.92,-298.38"/>
<polygon fill="#a6cee3" stroke="#1f78b4" points="890.23,-301.81 900.77,-300.77 891.88,-295.01 890.23,-301.81"/>
</g>
<!-- lcPlanResources -->
<g id="node55" class="node">
<title>lcPlanResources</title>
<path fill="#1afabc" stroke="black" d="M766.83,-436.35C766.83,-436.35 860.83,-436.35 860.83,-436.35 866.83,-436.35 872.83,-442.35 872.83,-448.35 872.83,-448.35 872.83,-460.35 872.83,-460.35 872.83,-466.35 866.83,-472.35 860.83,-472.35 860.83,-472.35 766.83,-472.35 766.83,-472.35 760.83,-472.35 754.83,-466.35 754.83,-460.35 754.83,-460.35 754.83,-448.35 754.83,-448.35 754.83,-442.35 760.83,-436.35 766.83,-436.35"/>
<text text-anchor="middle" x="813.83" y="-450.65" font-family="Arial" font-size="14.00">lcPlanResources</text>
</g>
<!-- p&#45;&gt;lcPlanResources -->
<g id="edge54" class="edge">
<title>p&#45;&gt;lcPlanResources</title>
<path fill="none" stroke="#1f78b4" d="M741.74,-278.61C755.76,-312.78 786.03,-386.59 802.54,-426.82"/>
<polygon fill="#a6cee3" stroke="#1f78b4" points="799.38,-428.36 806.42,-436.29 805.86,-425.71 799.38,-428.36"/>
</g>
<!-- lcProcesses -->
<g id="node56" class="node">
<title>lcProcesses</title>
<path fill="#1afabc" stroke="black" d="M731.45,-75.65C731.45,-75.65 796.45,-75.65 796.45,-75.65 802.45,-75.65 808.45,-81.65 808.45,-87.65 808.45,-87.65 808.45,-99.65 808.45,-99.65 808.45,-105.65 802.45,-111.65 796.45,-111.65 796.45,-111.65 731.45,-111.65 731.45,-111.65 725.45,-111.65 719.45,-105.65 719.45,-99.65 719.45,-99.65 719.45,-87.65 719.45,-87.65 719.45,-81.65 725.45,-75.65 731.45,-75.65"/>
<text text-anchor="middle" x="763.95" y="-89.95" font-family="Arial" font-size="14.00">lcProcesses</text>
</g>
<!-- p&#45;&gt;lcProcesses -->
<g id="edge55" class="edge">
<title>p&#45;&gt;lcProcesses</title>
<path fill="none" stroke="#1f78b4" d="M737.49,-242.2C742.67,-213.14 752.85,-155.97 758.96,-121.65"/>
<polygon fill="#a6cee3" stroke="#1f78b4" points="762.41,-122.25 760.72,-111.79 755.52,-121.02 762.41,-122.25"/>
</g>
<!-- lcTaskItem -->
<g id="node57" class="node">
<title>lcTaskItem</title>
<path fill="#1afabc" stroke="black" d="M642.39,-65.55C642.39,-65.55 699.39,-65.55 699.39,-65.55 705.39,-65.55 711.39,-71.55 711.39,-77.55 711.39,-77.55 711.39,-89.55 711.39,-89.55 711.39,-95.55 705.39,-101.55 699.39,-101.55 699.39,-101.55 642.39,-101.55 642.39,-101.55 636.39,-101.55 630.39,-95.55 630.39,-89.55 630.39,-89.55 630.39,-77.55 630.39,-77.55 630.39,-71.55 636.39,-65.55 642.39,-65.55"/>
<text text-anchor="middle" x="670.89" y="-79.85" font-family="Arial" font-size="14.00">lcTaskItem</text>
</g>
<!-- p&#45;&gt;lcTaskItem -->
<g id="edge56" class="edge">
<title>p&#45;&gt;lcTaskItem</title>
<path fill="none" stroke="#1f78b4" d="M727.71,-242.11C716.59,-211.06 693.91,-147.79 680.82,-111.26"/>
<polygon fill="#a6cee3" stroke="#1f78b4" points="684.07,-109.94 677.4,-101.71 677.48,-112.31 684.07,-109.94"/>
</g>
<!-- lcAttitude -->
<g id="node58" class="node">
<title>lcAttitude</title>
<path fill="#1afabc" stroke="black" d="M669.26,-124.06C669.26,-124.06 717.26,-124.06 717.26,-124.06 723.26,-124.06 729.26,-130.06 729.26,-136.06 729.26,-136.06 729.26,-148.06 729.26,-148.06 729.26,-154.06 723.26,-160.06 717.26,-160.06 717.26,-160.06 669.26,-160.06 669.26,-160.06 663.26,-160.06 657.26,-154.06 657.26,-148.06 657.26,-148.06 657.26,-136.06 657.26,-136.06 657.26,-130.06 663.26,-124.06 669.26,-124.06"/>
<text text-anchor="middle" x="693.26" y="-138.36" font-family="Arial" font-size="14.00">lcAttitude</text>
</g>
<!-- p&#45;&gt;lcAttitude -->
<g id="edge57" class="edge">
<title>p&#45;&gt;lcAttitude</title>
<path fill="none" stroke="#1f78b4" d="M727.94,-242.14C721.24,-222.8 710.58,-192.02 702.84,-169.7"/>
<polygon fill="#a6cee3" stroke="#1f78b4" points="706.1,-168.41 699.52,-160.11 699.48,-170.7 706.1,-168.41"/>
</g>
<!-- lcPlanObjective -->
<g id="node59" class="node">
<title>lcPlanObjective</title>
<path fill="#1afabc" stroke="black" d="M870.3,-255.73C870.3,-255.73 956.3,-255.73 956.3,-255.73 962.3,-255.73 968.3,-261.73 968.3,-267.73 968.3,-267.73 968.3,-279.73 968.3,-279.73 968.3,-285.73 962.3,-291.73 956.3,-291.73 956.3,-291.73 870.3,-291.73 870.3,-291.73 864.3,-291.73 858.3,-285.73 858.3,-279.73 858.3,-279.73 858.3,-267.73 858.3,-267.73 858.3,-261.73 864.3,-255.73 870.3,-255.73"/>
<text text-anchor="middle" x="913.3" y="-270.03" font-family="Arial" font-size="14.00">lcPlanObjective</text>
</g>
<!-- p&#45;&gt;lcPlanObjective -->
<g id="edge58" class="edge">
<title>p&#45;&gt;lcPlanObjective</title>
<path fill="none" stroke="#1f78b4" d="M761.45,-262.39C784.29,-264.1 817.88,-266.61 847.66,-268.83"/>
<polygon fill="#a6cee3" stroke="#1f78b4" points="847.78,-272.35 858.01,-269.6 848.3,-265.37 847.78,-272.35"/>
</g>
<!-- lcJtaItem -->
<g id="node60" class="node">
<title>lcJtaItem</title>
<path fill="#1afabc" stroke="black" d="M661.6,-380.23C661.6,-380.23 708.6,-380.23 708.6,-380.23 714.6,-380.23 720.6,-386.23 720.6,-392.23 720.6,-392.23 720.6,-404.23 720.6,-404.23 720.6,-410.23 714.6,-416.23 708.6,-416.23 708.6,-416.23 661.6,-416.23 661.6,-416.23 655.6,-416.23 649.6,-410.23 649.6,-404.23 649.6,-404.23 649.6,-392.23 649.6,-392.23 649.6,-386.23 655.6,-380.23 661.6,-380.23"/>
<text text-anchor="middle" x="685.1" y="-394.53" font-family="Arial" font-size="14.00">lcJtaItem</text>
</g>
<!-- p&#45;&gt;lcJtaItem -->
<g id="edge59" class="edge">
<title>p&#45;&gt;lcJtaItem</title>
<path fill="none" stroke="#1f78b4" d="M727.83,-278.39C719.44,-301.92 704.67,-343.34 694.88,-370.78"/>
<polygon fill="#a6cee3" stroke="#1f78b4" points="691.59,-369.61 691.53,-380.2 698.18,-371.96 691.59,-369.61"/>
</g>
<!-- lcGapItemDelta -->
<g id="node61" class="node">
<title>lcGapItemDelta</title>
<path fill="#1afabc" stroke="black" d="M835.1,-165.69C835.1,-165.69 922.1,-165.69 922.1,-165.69 928.1,-165.69 934.1,-171.69 934.1,-177.69 934.1,-177.69 934.1,-189.69 934.1,-189.69 934.1,-195.69 928.1,-201.69 922.1,-201.69 922.1,-201.69 835.1,-201.69 835.1,-201.69 829.1,-201.69 823.1,-195.69 823.1,-189.69 823.1,-189.69 823.1,-177.69 823.1,-177.69 823.1,-171.69 829.1,-165.69 835.1,-165.69"/>
<text text-anchor="middle" x="878.6" y="-179.99" font-family="Arial" font-size="14.00">lcGapItemDelta</text>
</g>
<!-- p&#45;&gt;lcGapItemDelta -->
<g id="edge60" class="edge">
<title>p&#45;&gt;lcGapItemDelta</title>
<path fill="none" stroke="#1f78b4" d="M761.41,-245.94C782.33,-234.83 811.67,-219.24 835.76,-206.45"/>
<polygon fill="#a6cee3" stroke="#1f78b4" points="837.51,-209.48 844.7,-201.7 834.23,-203.3 837.51,-209.48"/>
</g>
<!-- lcLearnStrat -->
<g id="node62" class="node">
<title>lcLearnStrat</title>
<path fill="#1afabc" stroke="black" d="M668.09,-448.63C668.09,-448.63 733.09,-448.63 733.09,-448.63 739.09,-448.63 745.09,-454.63 745.09,-460.63 745.09,-460.63 745.09,-472.63 745.09,-472.63 745.09,-478.63 739.09,-484.63 733.09,-484.63 733.09,-484.63 668.09,-484.63 668.09,-484.63 662.09,-484.63 656.09,-478.63 656.09,-472.63 656.09,-472.63 656.09,-460.63 656.09,-460.63 656.09,-454.63 662.09,-448.63 668.09,-448.63"/>
<text text-anchor="middle" x="700.59" y="-462.93" font-family="Arial" font-size="14.00">lcLearnStrat</text>
</g>
<!-- p&#45;&gt;lcLearnStrat -->
<g id="edge61" class="edge">
<title>p&#45;&gt;lcLearnStrat</title>
<path fill="none" stroke="#1f78b4" d="M731.27,-278.67C725.38,-314.75 712.23,-395.29 705.21,-438.29"/>
<polygon fill="#a6cee3" stroke="#1f78b4" points="701.72,-437.93 703.57,-448.36 708.63,-439.06 701.72,-437.93"/>
</g>
<!-- lcAssessment -->
<g id="node63" class="node">
<title>lcAssessment</title>
<path fill="#1afabc" stroke="black" d="M803.17,-300.74C803.17,-300.74 880.17,-300.74 880.17,-300.74 886.17,-300.74 892.17,-306.74 892.17,-312.74 892.17,-312.74 892.17,-324.74 892.17,-324.74 892.17,-330.74 886.17,-336.74 880.17,-336.74 880.17,-336.74 803.17,-336.74 803.17,-336.74 797.17,-336.74 791.17,-330.74 791.17,-324.74 791.17,-324.74 791.17,-312.74 791.17,-312.74 791.17,-306.74 797.17,-300.74 803.17,-300.74"/>
<text text-anchor="middle" x="841.67" y="-315.04" font-family="Arial" font-size="14.00">lcAssessment</text>
</g>
<!-- p&#45;&gt;lcAssessment -->
<g id="edge62" class="edge">
<title>p&#45;&gt;lcAssessment</title>
<path fill="none" stroke="#1f78b4" d="M761.36,-275.09C772.86,-281.34 786.54,-288.78 799.33,-295.72"/>
<polygon fill="#a6cee3" stroke="#1f78b4" points="797.97,-298.97 808.43,-300.67 801.31,-292.82 797.97,-298.97"/>
</g>
<!-- lcDelivery -->
<g id="node64" class="node">
<title>lcDelivery</title>
<path fill="#1afabc" stroke="black" d="M584.26,-333.45C584.26,-333.45 635.26,-333.45 635.26,-333.45 641.26,-333.45 647.26,-339.45 647.26,-345.45 647.26,-345.45 647.26,-357.45 647.26,-357.45 647.26,-363.45 641.26,-369.45 635.26,-369.45 635.26,-369.45 584.26,-369.45 584.26,-369.45 578.26,-369.45 572.26,-363.45 572.26,-357.45 572.26,-357.45 572.26,-345.45 572.26,-345.45 572.26,-339.45 578.26,-333.45 584.26,-333.45"/>
<text text-anchor="middle" x="609.76" y="-347.75" font-family="Arial" font-size="14.00">lcDelivery</text>
</g>
<!-- p&#45;&gt;lcDelivery -->
<g id="edge63" class="edge">
<title>p&#45;&gt;lcDelivery</title>
<path fill="none" stroke="#1f78b4" d="M709.36,-278.58C690.28,-292.54 663.76,-311.94 642.88,-327.22"/>
<polygon fill="#a6cee3" stroke="#1f78b4" points="640.61,-324.54 634.61,-333.27 644.75,-330.19 640.61,-324.54"/>
</g>
</g>
</svg>
