<?xml version="1.0" encoding="UTF-8" standalone="no"?>
<!DOCTYPE svg PUBLIC "-//W3C//DTD SVG 1.1//EN"
 "http://www.w3.org/Graphics/SVG/1.1/DTD/svg11.dtd">
<!-- Generated by graphviz version 6.0.1 (20220911.1526)
 -->
<!-- Pages: 1 -->
<svg width="791pt" height="678pt"
 viewBox="0.00 0.00 791.00 678.00" xmlns="http://www.w3.org/2000/svg" xmlns:xlink="http://www.w3.org/1999/xlink">
<g id="graph0" class="graph" transform="scale(1 1) rotate(0) translate(4 674)">
<polygon fill="white" stroke="none" points="-4,4 -4,-674 787,-674 787,4 -4,4"/>
<!-- learningBaseModule -->
<g id="node1" class="node">
<title>learningBaseModule</title>
<path fill="#dddddd" stroke="black" d="M323.87,-294.96C323.87,-294.96 439.87,-294.96 439.87,-294.96 445.87,-294.96 451.87,-300.96 451.87,-306.96 451.87,-306.96 451.87,-318.96 451.87,-318.96 451.87,-324.96 445.87,-330.96 439.87,-330.96 439.87,-330.96 323.87,-330.96 323.87,-330.96 317.87,-330.96 311.87,-324.96 311.87,-318.96 311.87,-318.96 311.87,-306.96 311.87,-306.96 311.87,-300.96 317.87,-294.96 323.87,-294.96"/>
<text text-anchor="middle" x="381.87" y="-309.26" font-family="Arial" font-size="14.00">learningBaseModule</text>
</g>
<!-- topic -->
<g id="node2" class="node">
<title>topic</title>
<path fill="#afa7f4" stroke="black" d="M225.25,-166.76C225.25,-166.76 255.25,-166.76 255.25,-166.76 261.25,-166.76 267.25,-172.76 267.25,-178.76 267.25,-178.76 267.25,-190.76 267.25,-190.76 267.25,-196.76 261.25,-202.76 255.25,-202.76 255.25,-202.76 225.25,-202.76 225.25,-202.76 219.25,-202.76 213.25,-196.76 213.25,-190.76 213.25,-190.76 213.25,-178.76 213.25,-178.76 213.25,-172.76 219.25,-166.76 225.25,-166.76"/>
<text text-anchor="middle" x="240.25" y="-181.06" font-family="Arial" font-size="14.00">topic</text>
</g>
<!-- learningBaseModule&#45;&gt;topic -->
<g id="edge1" class="edge">
<title>learningBaseModule&#45;&gt;topic</title>
<path fill="none" stroke="#1f78b4" d="M361.88,-294.87C337.32,-272.63 295.5,-234.78 267.88,-209.77"/>
<polygon fill="#a6cee3" stroke="#1f78b4" points="269.9,-206.88 260.14,-202.76 265.21,-212.07 269.9,-206.88"/>
</g>
<!-- body -->
<g id="node4" class="node">
<title>body</title>
<path fill="#afa7f4" stroke="black" d="M450.95,-467.5C450.95,-467.5 480.95,-467.5 480.95,-467.5 486.95,-467.5 492.95,-473.5 492.95,-479.5 492.95,-479.5 492.95,-491.5 492.95,-491.5 492.95,-497.5 486.95,-503.5 480.95,-503.5 480.95,-503.5 450.95,-503.5 450.95,-503.5 444.95,-503.5 438.95,-497.5 438.95,-491.5 438.95,-491.5 438.95,-479.5 438.95,-479.5 438.95,-473.5 444.95,-467.5 450.95,-467.5"/>
<text text-anchor="middle" x="465.95" y="-481.8" font-family="Arial" font-size="14.00">body</text>
</g>
<!-- learningBaseModule&#45;&gt;body -->
<g id="edge3" class="edge">
<title>learningBaseModule&#45;&gt;body</title>
<path fill="none" stroke="#1f78b4" d="M390.71,-331.1C405.47,-361.39 435.22,-422.44 452.56,-458.03"/>
<polygon fill="#a6cee3" stroke="#1f78b4" points="449.58,-459.89 457.1,-467.35 455.87,-456.82 449.58,-459.89"/>
</g>
<!-- section -->
<g id="node6" class="node">
<title>section</title>
<path fill="#afa7f4" stroke="black" d="M562.72,-153.76C562.72,-153.76 597.72,-153.76 597.72,-153.76 603.72,-153.76 609.72,-159.76 609.72,-165.76 609.72,-165.76 609.72,-177.76 609.72,-177.76 609.72,-183.76 603.72,-189.76 597.72,-189.76 597.72,-189.76 562.72,-189.76 562.72,-189.76 556.72,-189.76 550.72,-183.76 550.72,-177.76 550.72,-177.76 550.72,-165.76 550.72,-165.76 550.72,-159.76 556.72,-153.76 562.72,-153.76"/>
<text text-anchor="middle" x="580.22" y="-168.06" font-family="Arial" font-size="14.00">section</text>
</g>
<!-- learningBaseModule&#45;&gt;section -->
<g id="edge5" class="edge">
<title>learningBaseModule&#45;&gt;section</title>
<path fill="none" stroke="#1f78b4" d="M407.4,-294.79C442.81,-269.59 506.91,-223.96 546.31,-195.91"/>
<polygon fill="#a6cee3" stroke="#1f78b4" points="548.68,-198.52 554.8,-189.86 544.62,-192.81 548.68,-198.52"/>
</g>
<!-- ph -->
<g id="node19" class="node">
<title>ph</title>
<path fill="#afa7f4" stroke="black" d="M273.77,-456.38C273.77,-456.38 303.77,-456.38 303.77,-456.38 309.77,-456.38 315.77,-462.38 315.77,-468.38 315.77,-468.38 315.77,-480.38 315.77,-480.38 315.77,-486.38 309.77,-492.38 303.77,-492.38 303.77,-492.38 273.77,-492.38 273.77,-492.38 267.77,-492.38 261.77,-486.38 261.77,-480.38 261.77,-480.38 261.77,-468.38 261.77,-468.38 261.77,-462.38 267.77,-456.38 273.77,-456.38"/>
<text text-anchor="middle" x="288.77" y="-470.68" font-family="Arial" font-size="14.00">ph</text>
</g>
<!-- learningBaseModule&#45;&gt;ph -->
<g id="edge18" class="edge">
<title>learningBaseModule&#45;&gt;ph</title>
<path fill="none" stroke="#1f78b4" d="M371.37,-331.17C355.03,-359.5 323.41,-414.33 304.38,-447.31"/>
<polygon fill="#a6cee3" stroke="#1f78b4" points="301.34,-445.58 299.37,-456 307.4,-449.08 301.34,-445.58"/>
</g>
<!-- ul -->
<g id="node21" class="node">
<title>ul</title>
<path fill="#afa7f4" stroke="black" d="M202.37,-380.04C202.37,-380.04 232.37,-380.04 232.37,-380.04 238.37,-380.04 244.37,-386.04 244.37,-392.04 244.37,-392.04 244.37,-404.04 244.37,-404.04 244.37,-410.04 238.37,-416.04 232.37,-416.04 232.37,-416.04 202.37,-416.04 202.37,-416.04 196.37,-416.04 190.37,-410.04 190.37,-404.04 190.37,-404.04 190.37,-392.04 190.37,-392.04 190.37,-386.04 196.37,-380.04 202.37,-380.04"/>
<text text-anchor="middle" x="217.37" y="-394.34" font-family="Arial" font-size="14.00">ul</text>
</g>
<!-- learningBaseModule&#45;&gt;ul -->
<g id="edge20" class="edge">
<title>learningBaseModule&#45;&gt;ul</title>
<path fill="none" stroke="#1f78b4" d="M346.99,-331.01C319.53,-345.21 281.4,-364.93 253.6,-379.3"/>
<polygon fill="#a6cee3" stroke="#1f78b4" points="251.88,-376.26 244.6,-383.96 255.09,-382.47 251.88,-376.26"/>
</g>
<!-- li -->
<g id="node23" class="node">
<title>li</title>
<path fill="#afa7f4" stroke="black" d="M358.9,-362.66C358.9,-362.66 388.9,-362.66 388.9,-362.66 394.9,-362.66 400.9,-368.66 400.9,-374.66 400.9,-374.66 400.9,-386.66 400.9,-386.66 400.9,-392.66 394.9,-398.66 388.9,-398.66 388.9,-398.66 358.9,-398.66 358.9,-398.66 352.9,-398.66 346.9,-392.66 346.9,-386.66 346.9,-386.66 346.9,-374.66 346.9,-374.66 346.9,-368.66 352.9,-362.66 358.9,-362.66"/>
<text text-anchor="middle" x="373.9" y="-376.96" font-family="Arial" font-size="14.00">li</text>
</g>
<!-- learningBaseModule&#45;&gt;li -->
<g id="edge22" class="edge">
<title>learningBaseModule&#45;&gt;li</title>
<path fill="none" stroke="#1f78b4" d="M379.74,-331.1C378.97,-337.63 378.08,-345.16 377.24,-352.34"/>
<polygon fill="#a6cee3" stroke="#1f78b4" points="373.74,-352.13 376.04,-362.47 380.69,-352.94 373.74,-352.13"/>
</g>
<!-- data -->
<g id="node25" class="node">
<title>data</title>
<path fill="#afa7f4" stroke="black" d="M181.12,-273.32C181.12,-273.32 211.12,-273.32 211.12,-273.32 217.12,-273.32 223.12,-279.32 223.12,-285.32 223.12,-285.32 223.12,-297.32 223.12,-297.32 223.12,-303.32 217.12,-309.32 211.12,-309.32 211.12,-309.32 181.12,-309.32 181.12,-309.32 175.12,-309.32 169.12,-303.32 169.12,-297.32 169.12,-297.32 169.12,-285.32 169.12,-285.32 169.12,-279.32 175.12,-273.32 181.12,-273.32"/>
<text text-anchor="middle" x="196.12" y="-287.62" font-family="Arial" font-size="14.00">data</text>
</g>
<!-- learningBaseModule&#45;&gt;data -->
<g id="edge24" class="edge">
<title>learningBaseModule&#45;&gt;data</title>
<path fill="none" stroke="#1f78b4" d="M311.65,-304.78C285.04,-301.68 255.79,-298.27 233.38,-295.66"/>
<polygon fill="#a6cee3" stroke="#1f78b4" points="233.62,-292.17 223.28,-294.48 232.81,-299.12 233.62,-292.17"/>
</g>
<!-- learningBase -->
<g id="node3" class="node">
<title>learningBase</title>
<path fill="#1afabc" stroke="black" d="M92.17,-77.14C92.17,-77.14 163.17,-77.14 163.17,-77.14 169.17,-77.14 175.17,-83.14 175.17,-89.14 175.17,-89.14 175.17,-101.14 175.17,-101.14 175.17,-107.14 169.17,-113.14 163.17,-113.14 163.17,-113.14 92.17,-113.14 92.17,-113.14 86.17,-113.14 80.17,-107.14 80.17,-101.14 80.17,-101.14 80.17,-89.14 80.17,-89.14 80.17,-83.14 86.17,-77.14 92.17,-77.14"/>
<text text-anchor="middle" x="127.67" y="-91.44" font-family="Arial" font-size="14.00">learningBase</text>
</g>
<!-- topic&#45;&gt;learningBase -->
<g id="edge2" class="edge">
<title>topic&#45;&gt;learningBase</title>
<path fill="none" stroke="#1f78b4" d="M217.47,-166.62C200.46,-153.08 177.02,-134.42 158.35,-119.56"/>
<polygon fill="#a6cee3" stroke="#1f78b4" points="160.42,-116.74 150.42,-113.25 156.06,-122.21 160.42,-116.74"/>
</g>
<!-- learningBasebody -->
<g id="node5" class="node">
<title>learningBasebody</title>
<path fill="#1afabc" stroke="black" d="M466.4,-633.84C466.4,-633.84 567.4,-633.84 567.4,-633.84 573.4,-633.84 579.4,-639.84 579.4,-645.84 579.4,-645.84 579.4,-657.84 579.4,-657.84 579.4,-663.84 573.4,-669.84 567.4,-669.84 567.4,-669.84 466.4,-669.84 466.4,-669.84 460.4,-669.84 454.4,-663.84 454.4,-657.84 454.4,-657.84 454.4,-645.84 454.4,-645.84 454.4,-639.84 460.4,-633.84 466.4,-633.84"/>
<text text-anchor="middle" x="516.9" y="-648.14" font-family="Arial" font-size="14.00">learningBasebody</text>
</g>
<!-- body&#45;&gt;learningBasebody -->
<g id="edge4" class="edge">
<title>body&#45;&gt;learningBasebody</title>
<path fill="none" stroke="#1f78b4" d="M471.5,-503.62C480.38,-532.62 497.85,-589.66 508.34,-623.91"/>
<polygon fill="#a6cee3" stroke="#1f78b4" points="505.08,-625.21 511.36,-633.75 511.78,-623.16 505.08,-625.21"/>
</g>
<!-- lcIntro -->
<g id="node7" class="node">
<title>lcIntro</title>
<path fill="#1afabc" stroke="black" d="M568.11,-0.65C568.11,-0.65 598.11,-0.65 598.11,-0.65 604.11,-0.65 610.11,-6.65 610.11,-12.65 610.11,-12.65 610.11,-24.65 610.11,-24.65 610.11,-30.65 604.11,-36.65 598.11,-36.65 598.11,-36.65 568.11,-36.65 568.11,-36.65 562.11,-36.65 556.11,-30.65 556.11,-24.65 556.11,-24.65 556.11,-12.65 556.11,-12.65 556.11,-6.65 562.11,-0.65 568.11,-0.65"/>
<text text-anchor="middle" x="583.11" y="-14.95" font-family="Arial" font-size="14.00">lcIntro</text>
</g>
<!-- section&#45;&gt;lcIntro -->
<g id="edge6" class="edge">
<title>section&#45;&gt;lcIntro</title>
<path fill="none" stroke="#1f78b4" d="M580.57,-153.6C581.06,-127.24 581.99,-78.14 582.58,-47"/>
<polygon fill="#a6cee3" stroke="#1f78b4" points="586.08,-46.86 582.77,-36.79 579.08,-46.73 586.08,-46.86"/>
</g>
<!-- lcObjectives -->
<g id="node8" class="node">
<title>lcObjectives</title>
<path fill="#1afabc" stroke="black" d="M704.79,-139.34C704.79,-139.34 770.79,-139.34 770.79,-139.34 776.79,-139.34 782.79,-145.34 782.79,-151.34 782.79,-151.34 782.79,-163.34 782.79,-163.34 782.79,-169.34 776.79,-175.34 770.79,-175.34 770.79,-175.34 704.79,-175.34 704.79,-175.34 698.79,-175.34 692.79,-169.34 692.79,-163.34 692.79,-163.34 692.79,-151.34 692.79,-151.34 692.79,-145.34 698.79,-139.34 704.79,-139.34"/>
<text text-anchor="middle" x="737.79" y="-153.64" font-family="Arial" font-size="14.00">lcObjectives</text>
</g>
<!-- section&#45;&gt;lcObjectives -->
<g id="edge7" class="edge">
<title>section&#45;&gt;lcObjectives</title>
<path fill="none" stroke="#1f78b4" d="M609.86,-169.05C630.3,-167.18 658.08,-164.64 682.54,-162.4"/>
<polygon fill="#a6cee3" stroke="#1f78b4" points="683.14,-165.86 692.78,-161.46 682.5,-158.88 683.14,-165.86"/>
</g>
<!-- lcAudience -->
<g id="node9" class="node">
<title>lcAudience</title>
<path fill="#1afabc" stroke="black" d="M505.33,-100.19C505.33,-100.19 564.33,-100.19 564.33,-100.19 570.33,-100.19 576.33,-106.19 576.33,-112.19 576.33,-112.19 576.33,-124.19 576.33,-124.19 576.33,-130.19 570.33,-136.19 564.33,-136.19 564.33,-136.19 505.33,-136.19 505.33,-136.19 499.33,-136.19 493.33,-130.19 493.33,-124.19 493.33,-124.19 493.33,-112.19 493.33,-112.19 493.33,-106.19 499.33,-100.19 505.33,-100.19"/>
<text text-anchor="middle" x="534.83" y="-114.49" font-family="Arial" font-size="14.00">lcAudience</text>
</g>
<!-- section&#45;&gt;lcAudience -->
<g id="edge8" class="edge">
<title>section&#45;&gt;lcAudience</title>
<path fill="none" stroke="#1f78b4" d="M564.86,-153.63C562.27,-150.57 559.54,-147.35 556.82,-144.14"/>
<polygon fill="#a6cee3" stroke="#1f78b4" points="559.32,-141.67 550.18,-136.31 553.98,-146.2 559.32,-141.67"/>
</g>
<!-- lcDuration -->
<g id="node10" class="node">
<title>lcDuration</title>
<path fill="#1afabc" stroke="black" d="M610.07,-66.09C610.07,-66.09 663.07,-66.09 663.07,-66.09 669.07,-66.09 675.07,-72.09 675.07,-78.09 675.07,-78.09 675.07,-90.09 675.07,-90.09 675.07,-96.09 669.07,-102.09 663.07,-102.09 663.07,-102.09 610.07,-102.09 610.07,-102.09 604.07,-102.09 598.07,-96.09 598.07,-90.09 598.07,-90.09 598.07,-78.09 598.07,-78.09 598.07,-72.09 604.07,-66.09 610.07,-66.09"/>
<text text-anchor="middle" x="636.57" y="-80.39" font-family="Arial" font-size="14.00">lcDuration</text>
</g>
<!-- section&#45;&gt;lcDuration -->
<g id="edge9" class="edge">
<title>section&#45;&gt;lcDuration</title>
<path fill="none" stroke="#1f78b4" d="M591.9,-153.6C599.83,-141.25 610.46,-124.72 619.36,-110.87"/>
<polygon fill="#a6cee3" stroke="#1f78b4" points="622.45,-112.53 624.91,-102.23 616.56,-108.75 622.45,-112.53"/>
</g>
<!-- lcPrereqs -->
<g id="node11" class="node">
<title>lcPrereqs</title>
<path fill="#1afabc" stroke="black" d="M696.75,-86.86C696.75,-86.86 746.75,-86.86 746.75,-86.86 752.75,-86.86 758.75,-92.86 758.75,-98.86 758.75,-98.86 758.75,-110.86 758.75,-110.86 758.75,-116.86 752.75,-122.86 746.75,-122.86 746.75,-122.86 696.75,-122.86 696.75,-122.86 690.75,-122.86 684.75,-116.86 684.75,-110.86 684.75,-110.86 684.75,-98.86 684.75,-98.86 684.75,-92.86 690.75,-86.86 696.75,-86.86"/>
<text text-anchor="middle" x="721.75" y="-101.16" font-family="Arial" font-size="14.00">lcPrereqs</text>
</g>
<!-- section&#45;&gt;lcPrereqs -->
<g id="edge10" class="edge">
<title>section&#45;&gt;lcPrereqs</title>
<path fill="none" stroke="#1f78b4" d="M609.89,-157.74C628.81,-148.79 653.74,-137.01 675.25,-126.84"/>
<polygon fill="#a6cee3" stroke="#1f78b4" points="677,-129.88 684.55,-122.44 674.01,-123.55 677,-129.88"/>
</g>
<!-- lcSummary -->
<g id="node12" class="node">
<title>lcSummary</title>
<path fill="#1afabc" stroke="black" d="M464.26,-5.98C464.26,-5.98 526.26,-5.98 526.26,-5.98 532.26,-5.98 538.26,-11.98 538.26,-17.98 538.26,-17.98 538.26,-29.98 538.26,-29.98 538.26,-35.98 532.26,-41.98 526.26,-41.98 526.26,-41.98 464.26,-41.98 464.26,-41.98 458.26,-41.98 452.26,-35.98 452.26,-29.98 452.26,-29.98 452.26,-17.98 452.26,-17.98 452.26,-11.98 458.26,-5.98 464.26,-5.98"/>
<text text-anchor="middle" x="495.26" y="-20.28" font-family="Arial" font-size="14.00">lcSummary</text>
</g>
<!-- section&#45;&gt;lcSummary -->
<g id="edge11" class="edge">
<title>section&#45;&gt;lcSummary</title>
<path fill="none" stroke="#1f78b4" d="M569.81,-153.64C555.09,-128.05 528.11,-81.11 510.96,-51.28"/>
<polygon fill="#a6cee3" stroke="#1f78b4" points="513.79,-49.17 505.77,-42.25 507.72,-52.66 513.79,-49.17"/>
</g>
<!-- lcNextSteps -->
<g id="node13" class="node">
<title>lcNextSteps</title>
<path fill="#1afabc" stroke="black" d="M696.07,-194.21C696.07,-194.21 761.07,-194.21 761.07,-194.21 767.07,-194.21 773.07,-200.21 773.07,-206.21 773.07,-206.21 773.07,-218.21 773.07,-218.21 773.07,-224.21 767.07,-230.21 761.07,-230.21 761.07,-230.21 696.07,-230.21 696.07,-230.21 690.07,-230.21 684.07,-224.21 684.07,-218.21 684.07,-218.21 684.07,-206.21 684.07,-206.21 684.07,-200.21 690.07,-194.21 696.07,-194.21"/>
<text text-anchor="middle" x="728.57" y="-208.51" font-family="Arial" font-size="14.00">lcNextSteps</text>
</g>
<!-- section&#45;&gt;lcNextSteps -->
<g id="edge12" class="edge">
<title>section&#45;&gt;lcNextSteps</title>
<path fill="none" stroke="#1f78b4" d="M609.89,-179.85C628.29,-184.87 652.5,-191.47 674.24,-197.4"/>
<polygon fill="#a6cee3" stroke="#1f78b4" points="673.47,-200.81 684.03,-200.07 675.31,-194.06 673.47,-200.81"/>
</g>
<!-- lcReview -->
<g id="node14" class="node">
<title>lcReview</title>
<path fill="#1afabc" stroke="black" d="M572.07,-288.36C572.07,-288.36 619.07,-288.36 619.07,-288.36 625.07,-288.36 631.07,-294.36 631.07,-300.36 631.07,-300.36 631.07,-312.36 631.07,-312.36 631.07,-318.36 625.07,-324.36 619.07,-324.36 619.07,-324.36 572.07,-324.36 572.07,-324.36 566.07,-324.36 560.07,-318.36 560.07,-312.36 560.07,-312.36 560.07,-300.36 560.07,-300.36 560.07,-294.36 566.07,-288.36 572.07,-288.36"/>
<text text-anchor="middle" x="595.57" y="-302.66" font-family="Arial" font-size="14.00">lcReview</text>
</g>
<!-- section&#45;&gt;lcReview -->
<g id="edge13" class="edge">
<title>section&#45;&gt;lcReview</title>
<path fill="none" stroke="#1f78b4" d="M582.29,-189.92C584.87,-212.49 589.29,-251.3 592.32,-277.86"/>
<polygon fill="#a6cee3" stroke="#1f78b4" points="588.87,-278.53 593.48,-288.07 595.83,-277.73 588.87,-278.53"/>
</g>
<!-- lcResources -->
<g id="node15" class="node">
<title>lcResources</title>
<path fill="#1afabc" stroke="black" d="M532.34,-209.05C532.34,-209.05 599.34,-209.05 599.34,-209.05 605.34,-209.05 611.34,-215.05 611.34,-221.05 611.34,-221.05 611.34,-233.05 611.34,-233.05 611.34,-239.05 605.34,-245.05 599.34,-245.05 599.34,-245.05 532.34,-245.05 532.34,-245.05 526.34,-245.05 520.34,-239.05 520.34,-233.05 520.34,-233.05 520.34,-221.05 520.34,-221.05 520.34,-215.05 526.34,-209.05 532.34,-209.05"/>
<text text-anchor="middle" x="565.84" y="-223.35" font-family="Arial" font-size="14.00">lcResources</text>
</g>
<!-- section&#45;&gt;lcResources -->
<g id="edge14" class="edge">
<title>section&#45;&gt;lcResources</title>
<path fill="none" stroke="#1f78b4" d="M575.51,-189.87C574.75,-192.79 573.95,-195.89 573.14,-198.98"/>
<polygon fill="#a6cee3" stroke="#1f78b4" points="569.74,-198.16 570.61,-208.71 576.52,-199.92 569.74,-198.16"/>
</g>
<!-- lcChallenge -->
<g id="node16" class="node">
<title>lcChallenge</title>
<path fill="#1afabc" stroke="black" d="M658.61,-253.25C658.61,-253.25 721.61,-253.25 721.61,-253.25 727.61,-253.25 733.61,-259.25 733.61,-265.25 733.61,-265.25 733.61,-277.25 733.61,-277.25 733.61,-283.25 727.61,-289.25 721.61,-289.25 721.61,-289.25 658.61,-289.25 658.61,-289.25 652.61,-289.25 646.61,-283.25 646.61,-277.25 646.61,-277.25 646.61,-265.25 646.61,-265.25 646.61,-259.25 652.61,-253.25 658.61,-253.25"/>
<text text-anchor="middle" x="690.11" y="-267.55" font-family="Arial" font-size="14.00">lcChallenge</text>
</g>
<!-- section&#45;&gt;lcChallenge -->
<g id="edge15" class="edge">
<title>section&#45;&gt;lcChallenge</title>
<path fill="none" stroke="#1f78b4" d="M600.12,-189.78C617.52,-205.53 642.96,-228.56 662.35,-246.12"/>
<polygon fill="#a6cee3" stroke="#1f78b4" points="660.23,-248.91 669.99,-253.03 664.93,-243.72 660.23,-248.91"/>
</g>
<!-- lcInstruction -->
<g id="node17" class="node">
<title>lcInstruction</title>
<path fill="#1afabc" stroke="black" d="M645.34,-12.69C645.34,-12.69 710.34,-12.69 710.34,-12.69 716.34,-12.69 722.34,-18.69 722.34,-24.69 722.34,-24.69 722.34,-36.69 722.34,-36.69 722.34,-42.69 716.34,-48.69 710.34,-48.69 710.34,-48.69 645.34,-48.69 645.34,-48.69 639.34,-48.69 633.34,-42.69 633.34,-36.69 633.34,-36.69 633.34,-24.69 633.34,-24.69 633.34,-18.69 639.34,-12.69 645.34,-12.69"/>
<text text-anchor="middle" x="677.84" y="-26.99" font-family="Arial" font-size="14.00">lcInstruction</text>
</g>
<!-- section&#45;&gt;lcInstruction -->
<g id="edge16" class="edge">
<title>section&#45;&gt;lcInstruction</title>
<path fill="none" stroke="#1f78b4" d="M592.79,-153.61C609.7,-129.17 639.91,-85.5 659.4,-57.33"/>
<polygon fill="#a6cee3" stroke="#1f78b4" points="662.51,-58.99 665.32,-48.77 656.76,-55.01 662.51,-58.99"/>
</g>
<!-- lcInteraction -->
<g id="node18" class="node">
<title>lcInteraction</title>
<path fill="#1afabc" stroke="black" d="M404.92,-66.25C404.92,-66.25 469.92,-66.25 469.92,-66.25 475.92,-66.25 481.92,-72.25 481.92,-78.25 481.92,-78.25 481.92,-90.25 481.92,-90.25 481.92,-96.25 475.92,-102.25 469.92,-102.25 469.92,-102.25 404.92,-102.25 404.92,-102.25 398.92,-102.25 392.92,-96.25 392.92,-90.25 392.92,-90.25 392.92,-78.25 392.92,-78.25 392.92,-72.25 398.92,-66.25 404.92,-66.25"/>
<text text-anchor="middle" x="437.42" y="-80.55" font-family="Arial" font-size="14.00">lcInteraction</text>
</g>
<!-- section&#45;&gt;lcInteraction -->
<g id="edge17" class="edge">
<title>section&#45;&gt;lcInteraction</title>
<path fill="none" stroke="#1f78b4" d="M550.63,-153.63C528.9,-140.31 499.19,-122.11 475.66,-107.69"/>
<polygon fill="#a6cee3" stroke="#1f78b4" points="477.32,-104.6 466.97,-102.36 473.67,-110.57 477.32,-104.6"/>
</g>
<!-- lcObjectivesStem -->
<g id="node20" class="node">
<title>lcObjectivesStem</title>
<path fill="#1afabc" stroke="black" d="M159.11,-609.34C159.11,-609.34 257.11,-609.34 257.11,-609.34 263.11,-609.34 269.11,-615.34 269.11,-621.34 269.11,-621.34 269.11,-633.34 269.11,-633.34 269.11,-639.34 263.11,-645.34 257.11,-645.34 257.11,-645.34 159.11,-645.34 159.11,-645.34 153.11,-645.34 147.11,-639.34 147.11,-633.34 147.11,-633.34 147.11,-621.34 147.11,-621.34 147.11,-615.34 153.11,-609.34 159.11,-609.34"/>
<text text-anchor="middle" x="208.11" y="-623.64" font-family="Arial" font-size="14.00">lcObjectivesStem</text>
</g>
<!-- ph&#45;&gt;lcObjectivesStem -->
<g id="edge19" class="edge">
<title>ph&#45;&gt;lcObjectivesStem</title>
<path fill="none" stroke="#1f78b4" d="M279.2,-492.53C265.13,-519.2 238.77,-569.2 222.4,-600.24"/>
<polygon fill="#a6cee3" stroke="#1f78b4" points="219.23,-598.74 217.67,-609.21 225.43,-602 219.23,-598.74"/>
</g>
<!-- lcObjectivesGroup -->
<g id="node22" class="node">
<title>lcObjectivesGroup</title>
<path fill="#1afabc" stroke="black" d="M11.86,-458.15C11.86,-458.15 115.86,-458.15 115.86,-458.15 121.86,-458.15 127.86,-464.15 127.86,-470.15 127.86,-470.15 127.86,-482.15 127.86,-482.15 127.86,-488.15 121.86,-494.15 115.86,-494.15 115.86,-494.15 11.86,-494.15 11.86,-494.15 5.86,-494.15 -0.14,-488.15 -0.14,-482.15 -0.14,-482.15 -0.14,-470.15 -0.14,-470.15 -0.14,-464.15 5.86,-458.15 11.86,-458.15"/>
<text text-anchor="middle" x="63.86" y="-472.45" font-family="Arial" font-size="14.00">lcObjectivesGroup</text>
</g>
<!-- ul&#45;&gt;lcObjectivesGroup -->
<g id="edge21" class="edge">
<title>ul&#45;&gt;lcObjectivesGroup</title>
<path fill="none" stroke="#1f78b4" d="M190.28,-411.83C167.64,-423.35 134.91,-440 108.42,-453.48"/>
<polygon fill="#a6cee3" stroke="#1f78b4" points="106.66,-450.45 99.34,-458.1 109.83,-456.69 106.66,-450.45"/>
</g>
<!-- lcObjective -->
<g id="node24" class="node">
<title>lcObjective</title>
<path fill="#1afabc" stroke="black" d="M341.54,-496.24C341.54,-496.24 400.54,-496.24 400.54,-496.24 406.54,-496.24 412.54,-502.24 412.54,-508.24 412.54,-508.24 412.54,-520.24 412.54,-520.24 412.54,-526.24 406.54,-532.24 400.54,-532.24 400.54,-532.24 341.54,-532.24 341.54,-532.24 335.54,-532.24 329.54,-526.24 329.54,-520.24 329.54,-520.24 329.54,-508.24 329.54,-508.24 329.54,-502.24 335.54,-496.24 341.54,-496.24"/>
<text text-anchor="middle" x="371.04" y="-510.54" font-family="Arial" font-size="14.00">lcObjective</text>
</g>
<!-- li&#45;&gt;lcObjective -->
<g id="edge23" class="edge">
<title>li&#45;&gt;lcObjective</title>
<path fill="none" stroke="#1f78b4" d="M373.52,-398.67C373.04,-421.08 372.21,-459.59 371.65,-485.95"/>
<polygon fill="#a6cee3" stroke="#1f78b4" points="368.15,-486.01 371.43,-496.08 375.15,-486.16 368.15,-486.01"/>
</g>
<!-- lcTime -->
<g id="node26" class="node">
<title>lcTime</title>
<path fill="#1afabc" stroke="black" d="M49.64,-261.04C49.64,-261.04 82.64,-261.04 82.64,-261.04 88.64,-261.04 94.64,-267.04 94.64,-273.04 94.64,-273.04 94.64,-285.04 94.64,-285.04 94.64,-291.04 88.64,-297.04 82.64,-297.04 82.64,-297.04 49.64,-297.04 49.64,-297.04 43.64,-297.04 37.64,-291.04 37.64,-285.04 37.64,-285.04 37.64,-273.04 37.64,-273.04 37.64,-267.04 43.64,-261.04 49.64,-261.04"/>
<text text-anchor="middle" x="66.14" y="-275.34" font-family="Arial" font-size="14.00">lcTime</text>
</g>
<!-- data&#45;&gt;lcTime -->
<g id="edge25" class="edge">
<title>data&#45;&gt;lcTime</title>
<path fill="none" stroke="#1f78b4" d="M168.87,-288.75C150.28,-286.99 125.37,-284.64 104.74,-282.69"/>
<polygon fill="#a6cee3" stroke="#1f78b4" points="104.99,-279.19 94.7,-281.74 104.33,-286.16 104.99,-279.19"/>
</g>
</g>
</svg>
