<?xml version="1.0" encoding="UTF-8" standalone="no"?>
<!DOCTYPE svg PUBLIC "-//W3C//DTD SVG 1.1//EN"
 "http://www.w3.org/Graphics/SVG/1.1/DTD/svg11.dtd">
<!-- Generated by graphviz version 6.0.1 (20220911.1526)
 -->
<!-- Pages: 1 -->
<svg width="771pt" height="581pt"
 viewBox="0.00 0.00 771.00 581.00" xmlns="http://www.w3.org/2000/svg" xmlns:xlink="http://www.w3.org/1999/xlink">
<g id="graph0" class="graph" transform="scale(1 1) rotate(0) translate(4 577)">
<polygon fill="white" stroke="none" points="-4,4 -4,-577 767,-577 767,4 -4,4"/>
<!-- subjectSchemeModule -->
<g id="node1" class="node">
<title>subjectSchemeModule</title>
<path fill="#dddddd" stroke="black" d="M288.04,-258.95C288.04,-258.95 419.04,-258.95 419.04,-258.95 425.04,-258.95 431.04,-264.95 431.04,-270.95 431.04,-270.95 431.04,-282.95 431.04,-282.95 431.04,-288.95 425.04,-294.95 419.04,-294.95 419.04,-294.95 288.04,-294.95 288.04,-294.95 282.04,-294.95 276.04,-288.95 276.04,-282.95 276.04,-282.95 276.04,-270.95 276.04,-270.95 276.04,-264.95 282.04,-258.95 288.04,-258.95"/>
<text text-anchor="middle" x="353.54" y="-273.25" font-family="Arial" font-size="14.00">subjectSchemeModule</text>
</g>
<!-- map -->
<g id="node2" class="node">
<title>map</title>
<path fill="#afa7f4" stroke="black" d="M269.25,-93.26C269.25,-93.26 299.25,-93.26 299.25,-93.26 305.25,-93.26 311.25,-99.26 311.25,-105.26 311.25,-105.26 311.25,-117.26 311.25,-117.26 311.25,-123.26 305.25,-129.26 299.25,-129.26 299.25,-129.26 269.25,-129.26 269.25,-129.26 263.25,-129.26 257.25,-123.26 257.25,-117.26 257.25,-117.26 257.25,-105.26 257.25,-105.26 257.25,-99.26 263.25,-93.26 269.25,-93.26"/>
<text text-anchor="middle" x="284.25" y="-107.56" font-family="Arial" font-size="14.00">map</text>
</g>
<!-- subjectSchemeModule&#45;&gt;map -->
<g id="edge1" class="edge">
<title>subjectSchemeModule&#45;&gt;map</title>
<path fill="none" stroke="#1f78b4" d="M346,-258.9C333.86,-229.89 309.95,-172.7 295.71,-138.64"/>
<polygon fill="#a6cee3" stroke="#1f78b4" points="298.88,-137.16 291.79,-129.28 292.42,-139.86 298.88,-137.16"/>
</g>
<!-- topicref -->
<g id="node4" class="node">
<title>topicref</title>
<path fill="#afa7f4" stroke="black" d="M536.27,-382.82C536.27,-382.82 573.27,-382.82 573.27,-382.82 579.27,-382.82 585.27,-388.82 585.27,-394.82 585.27,-394.82 585.27,-406.82 585.27,-406.82 585.27,-412.82 579.27,-418.82 573.27,-418.82 573.27,-418.82 536.27,-418.82 536.27,-418.82 530.27,-418.82 524.27,-412.82 524.27,-406.82 524.27,-406.82 524.27,-394.82 524.27,-394.82 524.27,-388.82 530.27,-382.82 536.27,-382.82"/>
<text text-anchor="middle" x="554.77" y="-397.12" font-family="Arial" font-size="14.00">topicref</text>
</g>
<!-- subjectSchemeModule&#45;&gt;topicref -->
<g id="edge3" class="edge">
<title>subjectSchemeModule&#45;&gt;topicref</title>
<path fill="none" stroke="#1f78b4" d="M382.8,-294.96C418.12,-316.7 477.61,-353.32 516.53,-377.28"/>
<polygon fill="#a6cee3" stroke="#1f78b4" points="515.12,-380.53 525.47,-382.79 518.79,-374.57 515.12,-380.53"/>
</g>
<!-- topicmeta -->
<g id="node16" class="node">
<title>topicmeta</title>
<path fill="#afa7f4" stroke="black" d="M355.23,-202.8C355.23,-202.8 407.23,-202.8 407.23,-202.8 413.23,-202.8 419.23,-208.8 419.23,-214.8 419.23,-214.8 419.23,-226.8 419.23,-226.8 419.23,-232.8 413.23,-238.8 407.23,-238.8 407.23,-238.8 355.23,-238.8 355.23,-238.8 349.23,-238.8 343.23,-232.8 343.23,-226.8 343.23,-226.8 343.23,-214.8 343.23,-214.8 343.23,-208.8 349.23,-202.8 355.23,-202.8"/>
<text text-anchor="middle" x="381.23" y="-217.1" font-family="Arial" font-size="14.00">topicmeta</text>
</g>
<!-- subjectSchemeModule&#45;&gt;topicmeta -->
<g id="edge15" class="edge">
<title>subjectSchemeModule&#45;&gt;topicmeta</title>
<path fill="none" stroke="#1f78b4" d="M362.46,-258.87C364.18,-255.37 366.03,-251.62 367.87,-247.9"/>
<polygon fill="#a6cee3" stroke="#1f78b4" points="371.05,-249.36 372.33,-238.84 364.77,-246.26 371.05,-249.36"/>
</g>
<!-- data -->
<g id="node18" class="node">
<title>data</title>
<path fill="#afa7f4" stroke="black" d="M147.89,-256.12C147.89,-256.12 177.89,-256.12 177.89,-256.12 183.89,-256.12 189.89,-262.12 189.89,-268.12 189.89,-268.12 189.89,-280.12 189.89,-280.12 189.89,-286.12 183.89,-292.12 177.89,-292.12 177.89,-292.12 147.89,-292.12 147.89,-292.12 141.89,-292.12 135.89,-286.12 135.89,-280.12 135.89,-280.12 135.89,-268.12 135.89,-268.12 135.89,-262.12 141.89,-256.12 147.89,-256.12"/>
<text text-anchor="middle" x="162.89" y="-270.42" font-family="Arial" font-size="14.00">data</text>
</g>
<!-- subjectSchemeModule&#45;&gt;data -->
<g id="edge17" class="edge">
<title>subjectSchemeModule&#45;&gt;data</title>
<path fill="none" stroke="#1f78b4" d="M276,-275.8C249.78,-275.41 221.69,-274.99 200.07,-274.67"/>
<polygon fill="#a6cee3" stroke="#1f78b4" points="200.06,-271.17 190.01,-274.52 199.95,-278.17 200.06,-271.17"/>
</g>
<!-- reltable -->
<g id="node21" class="node">
<title>reltable</title>
<path fill="#afa7f4" stroke="black" d="M183.76,-145.16C183.76,-145.16 220.76,-145.16 220.76,-145.16 226.76,-145.16 232.76,-151.16 232.76,-157.16 232.76,-157.16 232.76,-169.16 232.76,-169.16 232.76,-175.16 226.76,-181.16 220.76,-181.16 220.76,-181.16 183.76,-181.16 183.76,-181.16 177.76,-181.16 171.76,-175.16 171.76,-169.16 171.76,-169.16 171.76,-157.16 171.76,-157.16 171.76,-151.16 177.76,-145.16 183.76,-145.16"/>
<text text-anchor="middle" x="202.26" y="-159.46" font-family="Arial" font-size="14.00">reltable</text>
</g>
<!-- subjectSchemeModule&#45;&gt;reltable -->
<g id="edge20" class="edge">
<title>subjectSchemeModule&#45;&gt;reltable</title>
<path fill="none" stroke="#1f78b4" d="M329.57,-258.92C303.86,-239.58 262.91,-208.78 234.41,-187.35"/>
<polygon fill="#a6cee3" stroke="#1f78b4" points="236.46,-184.51 226.37,-181.29 232.26,-190.1 236.46,-184.51"/>
</g>
<!-- relrow -->
<g id="node23" class="node">
<title>relrow</title>
<path fill="#afa7f4" stroke="black" d="M215.33,-397.72C215.33,-397.72 245.33,-397.72 245.33,-397.72 251.33,-397.72 257.33,-403.72 257.33,-409.72 257.33,-409.72 257.33,-421.72 257.33,-421.72 257.33,-427.72 251.33,-433.72 245.33,-433.72 245.33,-433.72 215.33,-433.72 215.33,-433.72 209.33,-433.72 203.33,-427.72 203.33,-421.72 203.33,-421.72 203.33,-409.72 203.33,-409.72 203.33,-403.72 209.33,-397.72 215.33,-397.72"/>
<text text-anchor="middle" x="230.33" y="-412.02" font-family="Arial" font-size="14.00">relrow</text>
</g>
<!-- subjectSchemeModule&#45;&gt;relrow -->
<g id="edge22" class="edge">
<title>subjectSchemeModule&#45;&gt;relrow</title>
<path fill="none" stroke="#1f78b4" d="M337.43,-295.09C315.94,-319.3 277.76,-362.3 253.26,-389.89"/>
<polygon fill="#a6cee3" stroke="#1f78b4" points="250.46,-387.77 246.44,-397.57 255.7,-392.42 250.46,-387.77"/>
</g>
<!-- relcell -->
<g id="node26" class="node">
<title>relcell</title>
<path fill="#afa7f4" stroke="black" d="M456.73,-101.88C456.73,-101.88 486.73,-101.88 486.73,-101.88 492.73,-101.88 498.73,-107.88 498.73,-113.88 498.73,-113.88 498.73,-125.88 498.73,-125.88 498.73,-131.88 492.73,-137.88 486.73,-137.88 486.73,-137.88 456.73,-137.88 456.73,-137.88 450.73,-137.88 444.73,-131.88 444.73,-125.88 444.73,-125.88 444.73,-113.88 444.73,-113.88 444.73,-107.88 450.73,-101.88 456.73,-101.88"/>
<text text-anchor="middle" x="471.73" y="-116.18" font-family="Arial" font-size="14.00">relcell</text>
</g>
<!-- subjectSchemeModule&#45;&gt;relcell -->
<g id="edge25" class="edge">
<title>subjectSchemeModule&#45;&gt;relcell</title>
<path fill="none" stroke="#1f78b4" d="M367.1,-258.93C387.92,-231.26 427.86,-178.18 451.92,-146.2"/>
<polygon fill="#a6cee3" stroke="#1f78b4" points="454.75,-148.27 457.96,-138.17 449.15,-144.06 454.75,-148.27"/>
</g>
<!-- subjectScheme -->
<g id="node3" class="node">
<title>subjectScheme</title>
<path fill="#1afabc" stroke="black" d="M207.3,-22.13C207.3,-22.13 293.3,-22.13 293.3,-22.13 299.3,-22.13 305.3,-28.13 305.3,-34.13 305.3,-34.13 305.3,-46.13 305.3,-46.13 305.3,-52.13 299.3,-58.13 293.3,-58.13 293.3,-58.13 207.3,-58.13 207.3,-58.13 201.3,-58.13 195.3,-52.13 195.3,-46.13 195.3,-46.13 195.3,-34.13 195.3,-34.13 195.3,-28.13 201.3,-22.13 207.3,-22.13"/>
<text text-anchor="middle" x="250.3" y="-36.43" font-family="Arial" font-size="14.00">subjectScheme</text>
</g>
<!-- map&#45;&gt;subjectScheme -->
<g id="edge2" class="edge">
<title>map&#45;&gt;subjectScheme</title>
<path fill="none" stroke="#1f78b4" d="M275.51,-92.94C271.8,-85.16 267.39,-75.94 263.31,-67.39"/>
<polygon fill="#a6cee3" stroke="#1f78b4" points="266.36,-65.65 258.89,-58.14 260.04,-68.67 266.36,-65.65"/>
</g>
<!-- schemeref -->
<g id="node5" class="node">
<title>schemeref</title>
<path fill="#1afabc" stroke="black" d="M490.89,-444.97C490.89,-444.97 546.89,-444.97 546.89,-444.97 552.89,-444.97 558.89,-450.97 558.89,-456.97 558.89,-456.97 558.89,-468.97 558.89,-468.97 558.89,-474.97 552.89,-480.97 546.89,-480.97 546.89,-480.97 490.89,-480.97 490.89,-480.97 484.89,-480.97 478.89,-474.97 478.89,-468.97 478.89,-468.97 478.89,-456.97 478.89,-456.97 478.89,-450.97 484.89,-444.97 490.89,-444.97"/>
<text text-anchor="middle" x="518.89" y="-459.27" font-family="Arial" font-size="14.00">schemeref</text>
</g>
<!-- topicref&#45;&gt;schemeref -->
<g id="edge4" class="edge">
<title>topicref&#45;&gt;schemeref</title>
<path fill="none" stroke="#1f78b4" d="M544.2,-419.13C541.23,-424.27 537.94,-429.97 534.74,-435.52"/>
<polygon fill="#a6cee3" stroke="#1f78b4" points="531.48,-434.17 529.51,-444.58 537.54,-437.67 531.48,-434.17"/>
</g>
<!-- hasNarrower -->
<g id="node6" class="node">
<title>hasNarrower</title>
<path fill="#1afabc" stroke="black" d="M655.74,-375.02C655.74,-375.02 725.74,-375.02 725.74,-375.02 731.74,-375.02 737.74,-381.02 737.74,-387.02 737.74,-387.02 737.74,-399.02 737.74,-399.02 737.74,-405.02 731.74,-411.02 725.74,-411.02 725.74,-411.02 655.74,-411.02 655.74,-411.02 649.74,-411.02 643.74,-405.02 643.74,-399.02 643.74,-399.02 643.74,-387.02 643.74,-387.02 643.74,-381.02 649.74,-375.02 655.74,-375.02"/>
<text text-anchor="middle" x="690.74" y="-389.32" font-family="Arial" font-size="14.00">hasNarrower</text>
</g>
<!-- topicref&#45;&gt;hasNarrower -->
<g id="edge5" class="edge">
<title>topicref&#45;&gt;hasNarrower</title>
<path fill="none" stroke="#1f78b4" d="M585.28,-399.07C599.48,-398.26 616.86,-397.26 633.37,-396.31"/>
<polygon fill="#a6cee3" stroke="#1f78b4" points="633.72,-399.8 643.51,-395.73 633.32,-392.81 633.72,-399.8"/>
</g>
<!-- hasKind -->
<g id="node7" class="node">
<title>hasKind</title>
<path fill="#1afabc" stroke="black" d="M420.94,-399.66C420.94,-399.66 461.94,-399.66 461.94,-399.66 467.94,-399.66 473.94,-405.66 473.94,-411.66 473.94,-411.66 473.94,-423.66 473.94,-423.66 473.94,-429.66 467.94,-435.66 461.94,-435.66 461.94,-435.66 420.94,-435.66 420.94,-435.66 414.94,-435.66 408.94,-429.66 408.94,-423.66 408.94,-423.66 408.94,-411.66 408.94,-411.66 408.94,-405.66 414.94,-399.66 420.94,-399.66"/>
<text text-anchor="middle" x="441.44" y="-413.96" font-family="Arial" font-size="14.00">hasKind</text>
</g>
<!-- topicref&#45;&gt;hasKind -->
<g id="edge6" class="edge">
<title>topicref&#45;&gt;hasKind</title>
<path fill="none" stroke="#1f78b4" d="M524.1,-405.38C511.77,-407.21 497.35,-409.36 484.03,-411.33"/>
<polygon fill="#a6cee3" stroke="#1f78b4" points="483.49,-407.88 474.12,-412.81 484.52,-414.8 483.49,-407.88"/>
</g>
<!-- hasPart -->
<g id="node8" class="node">
<title>hasPart</title>
<path fill="#1afabc" stroke="black" d="M593.15,-478.58C593.15,-478.58 632.15,-478.58 632.15,-478.58 638.15,-478.58 644.15,-484.58 644.15,-490.58 644.15,-490.58 644.15,-502.58 644.15,-502.58 644.15,-508.58 638.15,-514.58 632.15,-514.58 632.15,-514.58 593.15,-514.58 593.15,-514.58 587.15,-514.58 581.15,-508.58 581.15,-502.58 581.15,-502.58 581.15,-490.58 581.15,-490.58 581.15,-484.58 587.15,-478.58 593.15,-478.58"/>
<text text-anchor="middle" x="612.65" y="-492.88" font-family="Arial" font-size="14.00">hasPart</text>
</g>
<!-- topicref&#45;&gt;hasPart -->
<g id="edge7" class="edge">
<title>topicref&#45;&gt;hasPart</title>
<path fill="none" stroke="#1f78b4" d="M565.66,-418.84C574.25,-433.06 586.39,-453.13 596.17,-469.32"/>
<polygon fill="#a6cee3" stroke="#1f78b4" points="593.45,-471.58 601.62,-478.33 599.44,-467.96 593.45,-471.58"/>
</g>
<!-- hasInstance -->
<g id="node9" class="node">
<title>hasInstance</title>
<path fill="#1afabc" stroke="black" d="M541.03,-335.65C541.03,-335.65 606.03,-335.65 606.03,-335.65 612.03,-335.65 618.03,-341.65 618.03,-347.65 618.03,-347.65 618.03,-359.65 618.03,-359.65 618.03,-365.65 612.03,-371.65 606.03,-371.65 606.03,-371.65 541.03,-371.65 541.03,-371.65 535.03,-371.65 529.03,-365.65 529.03,-359.65 529.03,-359.65 529.03,-347.65 529.03,-347.65 529.03,-341.65 535.03,-335.65 541.03,-335.65"/>
<text text-anchor="middle" x="573.53" y="-349.95" font-family="Arial" font-size="14.00">hasInstance</text>
</g>
<!-- topicref&#45;&gt;hasInstance -->
<g id="edge8" class="edge">
<title>topicref&#45;&gt;hasInstance</title>
<path fill="none" stroke="#1f78b4" d="M561.97,-382.72C562.14,-382.28 562.32,-381.83 562.5,-381.39"/>
<polygon fill="#a6cee3" stroke="#1f78b4" points="565.81,-382.53 566.26,-371.94 559.31,-379.94 565.81,-382.53"/>
</g>
<!-- hasRelated -->
<g id="node10" class="node">
<title>hasRelated</title>
<path fill="#1afabc" stroke="black" d="M654.14,-321.2C654.14,-321.2 715.14,-321.2 715.14,-321.2 721.14,-321.2 727.14,-327.2 727.14,-333.2 727.14,-333.2 727.14,-345.2 727.14,-345.2 727.14,-351.2 721.14,-357.2 715.14,-357.2 715.14,-357.2 654.14,-357.2 654.14,-357.2 648.14,-357.2 642.14,-351.2 642.14,-345.2 642.14,-345.2 642.14,-333.2 642.14,-333.2 642.14,-327.2 648.14,-321.2 654.14,-321.2"/>
<text text-anchor="middle" x="684.64" y="-335.5" font-family="Arial" font-size="14.00">hasRelated</text>
</g>
<!-- topicref&#45;&gt;hasRelated -->
<g id="edge9" class="edge">
<title>topicref&#45;&gt;hasRelated</title>
<path fill="none" stroke="#1f78b4" d="M585.55,-386.22C600.99,-378.89 620.04,-369.86 637.29,-361.67"/>
<polygon fill="#a6cee3" stroke="#1f78b4" points="639.12,-364.67 646.66,-357.22 636.12,-358.35 639.12,-364.67"/>
</g>
<!-- subjectdef -->
<g id="node11" class="node">
<title>subjectdef</title>
<path fill="#1afabc" stroke="black" d="M589.72,-276.07C589.72,-276.07 643.72,-276.07 643.72,-276.07 649.72,-276.07 655.72,-282.07 655.72,-288.07 655.72,-288.07 655.72,-300.07 655.72,-300.07 655.72,-306.07 649.72,-312.07 643.72,-312.07 643.72,-312.07 589.72,-312.07 589.72,-312.07 583.72,-312.07 577.72,-306.07 577.72,-300.07 577.72,-300.07 577.72,-288.07 577.72,-288.07 577.72,-282.07 583.72,-276.07 589.72,-276.07"/>
<text text-anchor="middle" x="616.72" y="-290.37" font-family="Arial" font-size="14.00">subjectdef</text>
</g>
<!-- topicref&#45;&gt;subjectdef -->
<g id="edge10" class="edge">
<title>topicref&#45;&gt;subjectdef</title>
<path fill="none" stroke="#1f78b4" d="M565.28,-382.71C575.11,-365.77 589.93,-340.23 601.14,-320.92"/>
<polygon fill="#a6cee3" stroke="#1f78b4" points="604.16,-322.67 606.16,-312.27 598.11,-319.16 604.16,-322.67"/>
</g>
<!-- subjectHead -->
<g id="node12" class="node">
<title>subjectHead</title>
<path fill="#1afabc" stroke="black" d="M521.38,-536.63C521.38,-536.63 589.38,-536.63 589.38,-536.63 595.38,-536.63 601.38,-542.63 601.38,-548.63 601.38,-548.63 601.38,-560.63 601.38,-560.63 601.38,-566.63 595.38,-572.63 589.38,-572.63 589.38,-572.63 521.38,-572.63 521.38,-572.63 515.38,-572.63 509.38,-566.63 509.38,-560.63 509.38,-560.63 509.38,-548.63 509.38,-548.63 509.38,-542.63 515.38,-536.63 521.38,-536.63"/>
<text text-anchor="middle" x="555.38" y="-550.93" font-family="Arial" font-size="14.00">subjectHead</text>
</g>
<!-- topicref&#45;&gt;subjectHead -->
<g id="edge11" class="edge">
<title>topicref&#45;&gt;subjectHead</title>
<path fill="none" stroke="#1f78b4" d="M554.84,-419.07C554.95,-445.55 555.14,-494.87 555.27,-526.16"/>
<polygon fill="#a6cee3" stroke="#1f78b4" points="551.77,-526.42 555.31,-536.41 558.77,-526.39 551.77,-526.42"/>
</g>
<!-- enumerationdef -->
<g id="node13" class="node">
<title>enumerationdef</title>
<path fill="#1afabc" stroke="black" d="M655.1,-422.71C655.1,-422.71 742.1,-422.71 742.1,-422.71 748.1,-422.71 754.1,-428.71 754.1,-434.71 754.1,-434.71 754.1,-446.71 754.1,-446.71 754.1,-452.71 748.1,-458.71 742.1,-458.71 742.1,-458.71 655.1,-458.71 655.1,-458.71 649.1,-458.71 643.1,-452.71 643.1,-446.71 643.1,-446.71 643.1,-434.71 643.1,-434.71 643.1,-428.71 649.1,-422.71 655.1,-422.71"/>
<text text-anchor="middle" x="698.6" y="-437.01" font-family="Arial" font-size="14.00">enumerationdef</text>
</g>
<!-- topicref&#45;&gt;enumerationdef -->
<g id="edge12" class="edge">
<title>topicref&#45;&gt;enumerationdef</title>
<path fill="none" stroke="#1f78b4" d="M585.27,-409.28C599.26,-413.16 616.43,-417.92 633.13,-422.55"/>
<polygon fill="#a6cee3" stroke="#1f78b4" points="632.31,-425.96 642.88,-425.26 634.18,-419.21 632.31,-425.96"/>
</g>
<!-- defaultSubject -->
<g id="node14" class="node">
<title>defaultSubject</title>
<path fill="#1afabc" stroke="black" d="M410.27,-490.47C410.27,-490.47 488.27,-490.47 488.27,-490.47 494.27,-490.47 500.27,-496.47 500.27,-502.47 500.27,-502.47 500.27,-514.47 500.27,-514.47 500.27,-520.47 494.27,-526.47 488.27,-526.47 488.27,-526.47 410.27,-526.47 410.27,-526.47 404.27,-526.47 398.27,-520.47 398.27,-514.47 398.27,-514.47 398.27,-502.47 398.27,-502.47 398.27,-496.47 404.27,-490.47 410.27,-490.47"/>
<text text-anchor="middle" x="449.27" y="-504.77" font-family="Arial" font-size="14.00">defaultSubject</text>
</g>
<!-- topicref&#45;&gt;defaultSubject -->
<g id="edge13" class="edge">
<title>topicref&#45;&gt;defaultSubject</title>
<path fill="none" stroke="#1f78b4" d="M536.87,-419.08C519.67,-436.64 493.52,-463.32 474.26,-482.97"/>
<polygon fill="#a6cee3" stroke="#1f78b4" points="471.75,-480.53 467.25,-490.12 476.75,-485.43 471.75,-480.53"/>
</g>
<!-- relatedSubjects -->
<g id="node15" class="node">
<title>relatedSubjects</title>
<path fill="#1afabc" stroke="black" d="M665.03,-476.68C665.03,-476.68 751.03,-476.68 751.03,-476.68 757.03,-476.68 763.03,-482.68 763.03,-488.68 763.03,-488.68 763.03,-500.68 763.03,-500.68 763.03,-506.68 757.03,-512.68 751.03,-512.68 751.03,-512.68 665.03,-512.68 665.03,-512.68 659.03,-512.68 653.03,-506.68 653.03,-500.68 653.03,-500.68 653.03,-488.68 653.03,-488.68 653.03,-482.68 659.03,-476.68 665.03,-476.68"/>
<text text-anchor="middle" x="708.03" y="-490.98" font-family="Arial" font-size="14.00">relatedSubjects</text>
</g>
<!-- topicref&#45;&gt;relatedSubjects -->
<g id="edge14" class="edge">
<title>topicref&#45;&gt;relatedSubjects</title>
<path fill="none" stroke="#1f78b4" d="M584.32,-418.92C608.7,-433.85 643.47,-455.14 669.94,-471.35"/>
<polygon fill="#a6cee3" stroke="#1f78b4" points="668.22,-474.4 678.57,-476.64 671.87,-468.43 668.22,-474.4"/>
</g>
<!-- subjectHeadMeta -->
<g id="node17" class="node">
<title>subjectHeadMeta</title>
<path fill="#1afabc" stroke="black" d="M327.12,-156.19C327.12,-156.19 425.12,-156.19 425.12,-156.19 431.12,-156.19 437.12,-162.19 437.12,-168.19 437.12,-168.19 437.12,-180.19 437.12,-180.19 437.12,-186.19 431.12,-192.19 425.12,-192.19 425.12,-192.19 327.12,-192.19 327.12,-192.19 321.12,-192.19 315.12,-186.19 315.12,-180.19 315.12,-180.19 315.12,-168.19 315.12,-168.19 315.12,-162.19 321.12,-156.19 327.12,-156.19"/>
<text text-anchor="middle" x="376.12" y="-170.49" font-family="Arial" font-size="14.00">subjectHeadMeta</text>
</g>
<!-- topicmeta&#45;&gt;subjectHeadMeta -->
<g id="edge16" class="edge">
<title>topicmeta&#45;&gt;subjectHeadMeta</title>
<path fill="none" stroke="#1f78b4" d="M379.24,-202.65C379.23,-202.54 379.22,-202.44 379.21,-202.33"/>
<polygon fill="#a6cee3" stroke="#1f78b4" points="382.68,-201.93 378.12,-192.37 375.73,-202.69 382.68,-201.93"/>
</g>
<!-- elementdef -->
<g id="node19" class="node">
<title>elementdef</title>
<path fill="#1afabc" stroke="black" d="M12.61,-295.38C12.61,-295.38 72.61,-295.38 72.61,-295.38 78.61,-295.38 84.61,-301.38 84.61,-307.38 84.61,-307.38 84.61,-319.38 84.61,-319.38 84.61,-325.38 78.61,-331.38 72.61,-331.38 72.61,-331.38 12.61,-331.38 12.61,-331.38 6.61,-331.38 0.61,-325.38 0.61,-319.38 0.61,-319.38 0.61,-307.38 0.61,-307.38 0.61,-301.38 6.61,-295.38 12.61,-295.38"/>
<text text-anchor="middle" x="42.61" y="-309.68" font-family="Arial" font-size="14.00">elementdef</text>
</g>
<!-- data&#45;&gt;elementdef -->
<g id="edge18" class="edge">
<title>data&#45;&gt;elementdef</title>
<path fill="none" stroke="#1f78b4" d="M135.6,-283.03C123.43,-287 108.68,-291.82 94.55,-296.43"/>
<polygon fill="#a6cee3" stroke="#1f78b4" points="93.32,-293.15 84.9,-299.58 95.49,-299.8 93.32,-293.15"/>
</g>
<!-- attributedef -->
<g id="node20" class="node">
<title>attributedef</title>
<path fill="#1afabc" stroke="black" d="M12.26,-218.08C12.26,-218.08 72.26,-218.08 72.26,-218.08 78.26,-218.08 84.26,-224.08 84.26,-230.08 84.26,-230.08 84.26,-242.08 84.26,-242.08 84.26,-248.08 78.26,-254.08 72.26,-254.08 72.26,-254.08 12.26,-254.08 12.26,-254.08 6.26,-254.08 0.26,-248.08 0.26,-242.08 0.26,-242.08 0.26,-230.08 0.26,-230.08 0.26,-224.08 6.26,-218.08 12.26,-218.08"/>
<text text-anchor="middle" x="42.26" y="-232.38" font-family="Arial" font-size="14.00">attributedef</text>
</g>
<!-- data&#45;&gt;attributedef -->
<g id="edge19" class="edge">
<title>data&#45;&gt;attributedef</title>
<path fill="none" stroke="#1f78b4" d="M135.82,-265.58C123.52,-261.7 108.53,-256.98 94.18,-252.45"/>
<polygon fill="#a6cee3" stroke="#1f78b4" points="94.99,-249.04 84.4,-249.37 92.88,-255.71 94.99,-249.04"/>
</g>
<!-- subjectRelTable -->
<g id="node22" class="node">
<title>subjectRelTable</title>
<path fill="#1afabc" stroke="black" d="M46.31,-55.03C46.31,-55.03 134.31,-55.03 134.31,-55.03 140.31,-55.03 146.31,-61.03 146.31,-67.03 146.31,-67.03 146.31,-79.03 146.31,-79.03 146.31,-85.03 140.31,-91.03 134.31,-91.03 134.31,-91.03 46.31,-91.03 46.31,-91.03 40.31,-91.03 34.31,-85.03 34.31,-79.03 34.31,-79.03 34.31,-67.03 34.31,-67.03 34.31,-61.03 40.31,-55.03 46.31,-55.03"/>
<text text-anchor="middle" x="90.31" y="-69.33" font-family="Arial" font-size="14.00">subjectRelTable</text>
</g>
<!-- reltable&#45;&gt;subjectRelTable -->
<g id="edge21" class="edge">
<title>reltable&#45;&gt;subjectRelTable</title>
<path fill="none" stroke="#1f78b4" d="M179.87,-145.14C162.97,-131.53 139.6,-112.71 120.96,-97.71"/>
<polygon fill="#a6cee3" stroke="#1f78b4" points="123.02,-94.87 113.04,-91.33 118.63,-100.32 123.02,-94.87"/>
</g>
<!-- subjectRelHeader -->
<g id="node24" class="node">
<title>subjectRelHeader</title>
<path fill="#1afabc" stroke="black" d="M186.95,-458.78C186.95,-458.78 286.95,-458.78 286.95,-458.78 292.95,-458.78 298.95,-464.78 298.95,-470.78 298.95,-470.78 298.95,-482.78 298.95,-482.78 298.95,-488.78 292.95,-494.78 286.95,-494.78 286.95,-494.78 186.95,-494.78 186.95,-494.78 180.95,-494.78 174.95,-488.78 174.95,-482.78 174.95,-482.78 174.95,-470.78 174.95,-470.78 174.95,-464.78 180.95,-458.78 186.95,-458.78"/>
<text text-anchor="middle" x="236.95" y="-473.08" font-family="Arial" font-size="14.00">subjectRelHeader</text>
</g>
<!-- relrow&#45;&gt;subjectRelHeader -->
<g id="edge23" class="edge">
<title>relrow&#45;&gt;subjectRelHeader</title>
<path fill="none" stroke="#1f78b4" d="M232.31,-434.04C232.8,-438.51 233.33,-443.39 233.85,-448.22"/>
<polygon fill="#a6cee3" stroke="#1f78b4" points="230.41,-448.91 234.96,-458.48 237.37,-448.16 230.41,-448.91"/>
</g>
<!-- subjectRel -->
<g id="node25" class="node">
<title>subjectRel</title>
<path fill="#1afabc" stroke="black" d="M89.39,-471.66C89.39,-471.66 145.39,-471.66 145.39,-471.66 151.39,-471.66 157.39,-477.66 157.39,-483.66 157.39,-483.66 157.39,-495.66 157.39,-495.66 157.39,-501.66 151.39,-507.66 145.39,-507.66 145.39,-507.66 89.39,-507.66 89.39,-507.66 83.39,-507.66 77.39,-501.66 77.39,-495.66 77.39,-495.66 77.39,-483.66 77.39,-483.66 77.39,-477.66 83.39,-471.66 89.39,-471.66"/>
<text text-anchor="middle" x="117.39" y="-485.96" font-family="Arial" font-size="14.00">subjectRel</text>
</g>
<!-- relrow&#45;&gt;subjectRel -->
<g id="edge24" class="edge">
<title>relrow&#45;&gt;subjectRel</title>
<path fill="none" stroke="#1f78b4" d="M203.28,-433.43C188.41,-443.16 169.77,-455.37 153.66,-465.92"/>
<polygon fill="#a6cee3" stroke="#1f78b4" points="151.46,-463.17 145.01,-471.58 155.29,-469.03 151.46,-463.17"/>
</g>
<!-- subjectRole -->
<g id="node27" class="node">
<title>subjectRole</title>
<path fill="#1afabc" stroke="black" d="M511.84,-0.18C511.84,-0.18 574.84,-0.18 574.84,-0.18 580.84,-0.18 586.84,-6.18 586.84,-12.18 586.84,-12.18 586.84,-24.18 586.84,-24.18 586.84,-30.18 580.84,-36.18 574.84,-36.18 574.84,-36.18 511.84,-36.18 511.84,-36.18 505.84,-36.18 499.84,-30.18 499.84,-24.18 499.84,-24.18 499.84,-12.18 499.84,-12.18 499.84,-6.18 505.84,-0.18 511.84,-0.18"/>
<text text-anchor="middle" x="543.34" y="-14.48" font-family="Arial" font-size="14.00">subjectRole</text>
</g>
<!-- relcell&#45;&gt;subjectRole -->
<g id="edge26" class="edge">
<title>relcell&#45;&gt;subjectRole</title>
<path fill="none" stroke="#1f78b4" d="M484.53,-101.7C495.73,-85.79 512.14,-62.48 524.78,-44.53"/>
<polygon fill="#a6cee3" stroke="#1f78b4" points="527.75,-46.39 530.65,-36.2 522.03,-42.36 527.75,-46.39"/>
</g>
</g>
</svg>
