<?xml version="1.0" encoding="UTF-8" standalone="no"?>
<!DOCTYPE svg PUBLIC "-//W3C//DTD SVG 1.1//EN"
 "http://www.w3.org/Graphics/SVG/1.1/DTD/svg11.dtd">
<!-- Generated by graphviz version 6.0.1 (20220911.1526)
 -->
<!-- Pages: 1 -->
<svg width="194pt" height="142pt"
 viewBox="0.00 0.00 194.00 142.00" xmlns="http://www.w3.org/2000/svg" xmlns:xlink="http://www.w3.org/1999/xlink">
<g id="graph0" class="graph" transform="scale(1 1) rotate(0) translate(4 138)">
<polygon fill="white" stroke="none" points="-4,4 -4,-138 190,-138 190,4 -4,4"/>
<!-- hw&#45;d -->
<g id="node1" class="node">
<title>hw&#45;d</title>
<path fill="#dddddd" stroke="black" d="M11.74,-30.72C11.74,-30.72 41.74,-30.72 41.74,-30.72 47.74,-30.72 53.74,-36.72 53.74,-42.72 53.74,-42.72 53.74,-54.72 53.74,-54.72 53.74,-60.72 47.74,-66.72 41.74,-66.72 41.74,-66.72 11.74,-66.72 11.74,-66.72 5.74,-66.72 -0.26,-60.72 -0.26,-54.72 -0.26,-54.72 -0.26,-42.72 -0.26,-42.72 -0.26,-36.72 5.74,-30.72 11.74,-30.72"/>
<text text-anchor="middle" x="26.74" y="-45.02" font-family="Arial" font-size="14.00">hw&#45;d</text>
</g>
<!-- ph -->
<g id="node2" class="node">
<title>ph</title>
<path fill="#afa7f4" stroke="black" d="M77.1,-48.25C77.1,-48.25 107.1,-48.25 107.1,-48.25 113.1,-48.25 119.1,-54.25 119.1,-60.25 119.1,-60.25 119.1,-72.25 119.1,-72.25 119.1,-78.25 113.1,-84.25 107.1,-84.25 107.1,-84.25 77.1,-84.25 77.1,-84.25 71.1,-84.25 65.1,-78.25 65.1,-72.25 65.1,-72.25 65.1,-60.25 65.1,-60.25 65.1,-54.25 71.1,-48.25 77.1,-48.25"/>
<text text-anchor="middle" x="92.1" y="-62.55" font-family="Arial" font-size="14.00">ph</text>
</g>
<!-- hw&#45;d&#45;&gt;ph -->
<g id="edge1" class="edge">
<title>hw&#45;d&#45;&gt;ph</title>
<path fill="none" stroke="#1f78b4" d="M54.08,-56.05C54.42,-56.15 54.76,-56.24 55.11,-56.33"/>
<polygon fill="#a6cee3" stroke="#1f78b4" points="54.51,-59.79 65.08,-59 56.33,-53.03 54.51,-59.79"/>
</g>
<!-- hwcontrol -->
<g id="node3" class="node">
<title>hwcontrol</title>
<path fill="#1afabc" stroke="black" d="M123.75,-0.07C123.75,-0.07 173.75,-0.07 173.75,-0.07 179.75,-0.07 185.75,-6.07 185.75,-12.07 185.75,-12.07 185.75,-24.07 185.75,-24.07 185.75,-30.07 179.75,-36.07 173.75,-36.07 173.75,-36.07 123.75,-36.07 123.75,-36.07 117.75,-36.07 111.75,-30.07 111.75,-24.07 111.75,-24.07 111.75,-12.07 111.75,-12.07 111.75,-6.07 117.75,-0.07 123.75,-0.07"/>
<text text-anchor="middle" x="148.75" y="-14.37" font-family="Arial" font-size="14.00">hwcontrol</text>
</g>
<!-- ph&#45;&gt;hwcontrol -->
<g id="edge2" class="edge">
<title>ph&#45;&gt;hwcontrol</title>
<path fill="none" stroke="#1f78b4" d="M113.52,-48.03C115.49,-46.36 117.51,-44.64 119.54,-42.91"/>
<polygon fill="#a6cee3" stroke="#1f78b4" points="121.95,-45.45 127.3,-36.31 117.42,-40.12 121.95,-45.45"/>
</g>
<!-- partno -->
<g id="node4" class="node">
<title>partno</title>
<path fill="#1afabc" stroke="black" d="M103.39,-97.23C103.39,-97.23 134.39,-97.23 134.39,-97.23 140.39,-97.23 146.39,-103.23 146.39,-109.23 146.39,-109.23 146.39,-121.23 146.39,-121.23 146.39,-127.23 140.39,-133.23 134.39,-133.23 134.39,-133.23 103.39,-133.23 103.39,-133.23 97.39,-133.23 91.39,-127.23 91.39,-121.23 91.39,-121.23 91.39,-109.23 91.39,-109.23 91.39,-103.23 97.39,-97.23 103.39,-97.23"/>
<text text-anchor="middle" x="118.89" y="-111.53" font-family="Arial" font-size="14.00">partno</text>
</g>
<!-- ph&#45;&gt;partno -->
<g id="edge3" class="edge">
<title>ph&#45;&gt;partno</title>
<path fill="none" stroke="#1f78b4" d="M102.08,-84.49C102.72,-85.65 103.36,-86.83 104.01,-88.02"/>
<polygon fill="#a6cee3" stroke="#1f78b4" points="101.13,-90.04 109,-97.14 107.27,-86.68 101.13,-90.04"/>
</g>
</g>
</svg>
