<?xml version="1.0" encoding="UTF-8" standalone="no"?>
<!DOCTYPE svg PUBLIC "-//W3C//DTD SVG 1.1//EN"
 "http://www.w3.org/Graphics/SVG/1.1/DTD/svg11.dtd">
<!-- Generated by graphviz version 6.0.1 (20220911.1526)
 -->
<!-- Pages: 1 -->
<svg width="192pt" height="227pt"
 viewBox="0.00 0.00 192.00 227.00" xmlns="http://www.w3.org/2000/svg" xmlns:xlink="http://www.w3.org/1999/xlink">
<g id="graph0" class="graph" transform="scale(1 1) rotate(0) translate(4 223)">
<polygon fill="white" stroke="none" points="-4,4 -4,-223 188,-223 188,4 -4,4"/>
<!-- mathml&#45;d -->
<g id="node1" class="node">
<title>mathml&#45;d</title>
<path fill="#dddddd" stroke="black" d="M11.98,-82.74C11.98,-82.74 61.98,-82.74 61.98,-82.74 67.98,-82.74 73.98,-88.74 73.98,-94.74 73.98,-94.74 73.98,-106.74 73.98,-106.74 73.98,-112.74 67.98,-118.74 61.98,-118.74 61.98,-118.74 11.98,-118.74 11.98,-118.74 5.98,-118.74 -0.02,-112.74 -0.02,-106.74 -0.02,-106.74 -0.02,-94.74 -0.02,-94.74 -0.02,-88.74 5.98,-82.74 11.98,-82.74"/>
<text text-anchor="middle" x="36.98" y="-97.04" font-family="Arial" font-size="14.00">mathml&#45;d</text>
</g>
<!-- include -->
<g id="node2" class="node">
<title>include</title>
<path fill="#afa7f4" stroke="black" d="M123,-46.89C123,-46.89 158,-46.89 158,-46.89 164,-46.89 170,-52.89 170,-58.89 170,-58.89 170,-70.89 170,-70.89 170,-76.89 164,-82.89 158,-82.89 158,-82.89 123,-82.89 123,-82.89 117,-82.89 111,-76.89 111,-70.89 111,-70.89 111,-58.89 111,-58.89 111,-52.89 117,-46.89 123,-46.89"/>
<text text-anchor="middle" x="140.5" y="-61.19" font-family="Arial" font-size="14.00">include</text>
</g>
<!-- mathml&#45;d&#45;&gt;include -->
<g id="edge1" class="edge">
<title>mathml&#45;d&#45;&gt;include</title>
<path fill="none" stroke="#1f78b4" d="M74.06,-87.9C82.83,-84.86 92.21,-81.61 101.07,-78.54"/>
<polygon fill="#a6cee3" stroke="#1f78b4" points="102.5,-81.75 110.81,-75.17 100.21,-75.14 102.5,-81.75"/>
</g>
<!-- foreign -->
<g id="node4" class="node">
<title>foreign</title>
<path fill="#afa7f4" stroke="black" d="M27.99,-133.62C27.99,-133.62 61.99,-133.62 61.99,-133.62 67.99,-133.62 73.99,-139.62 73.99,-145.62 73.99,-145.62 73.99,-157.62 73.99,-157.62 73.99,-163.62 67.99,-169.62 61.99,-169.62 61.99,-169.62 27.99,-169.62 27.99,-169.62 21.99,-169.62 15.99,-163.62 15.99,-157.62 15.99,-157.62 15.99,-145.62 15.99,-145.62 15.99,-139.62 21.99,-133.62 27.99,-133.62"/>
<text text-anchor="middle" x="44.99" y="-147.92" font-family="Arial" font-size="14.00">foreign</text>
</g>
<!-- mathml&#45;d&#45;&gt;foreign -->
<g id="edge3" class="edge">
<title>mathml&#45;d&#45;&gt;foreign</title>
<path fill="none" stroke="#1f78b4" d="M39.83,-118.82C40.06,-120.32 40.3,-121.86 40.55,-123.41"/>
<polygon fill="#a6cee3" stroke="#1f78b4" points="37.14,-124.26 42.15,-133.59 44.05,-123.17 37.14,-124.26"/>
</g>
<!-- mathmlref -->
<g id="node3" class="node">
<title>mathmlref</title>
<path fill="#1afabc" stroke="black" d="M117.75,-0.23C117.75,-0.23 171.75,-0.23 171.75,-0.23 177.75,-0.23 183.75,-6.23 183.75,-12.23 183.75,-12.23 183.75,-24.23 183.75,-24.23 183.75,-30.23 177.75,-36.23 171.75,-36.23 171.75,-36.23 117.75,-36.23 117.75,-36.23 111.75,-36.23 105.75,-30.23 105.75,-24.23 105.75,-24.23 105.75,-12.23 105.75,-12.23 105.75,-6.23 111.75,-0.23 117.75,-0.23"/>
<text text-anchor="middle" x="144.75" y="-14.53" font-family="Arial" font-size="14.00">mathmlref</text>
</g>
<!-- include&#45;&gt;mathmlref -->
<g id="edge2" class="edge">
<title>include&#45;&gt;mathmlref</title>
<path fill="none" stroke="#1f78b4" d="M142.16,-46.71C142.17,-46.61 142.17,-46.5 142.18,-46.4"/>
<polygon fill="#a6cee3" stroke="#1f78b4" points="145.67,-46.7 143.09,-36.43 138.7,-46.07 145.67,-46.7"/>
</g>
<!-- mathml -->
<g id="node5" class="node">
<title>mathml</title>
<path fill="#1afabc" stroke="black" d="M118.56,-182.87C118.56,-182.87 156.56,-182.87 156.56,-182.87 162.56,-182.87 168.56,-188.87 168.56,-194.87 168.56,-194.87 168.56,-206.87 168.56,-206.87 168.56,-212.87 162.56,-218.87 156.56,-218.87 156.56,-218.87 118.56,-218.87 118.56,-218.87 112.56,-218.87 106.56,-212.87 106.56,-206.87 106.56,-206.87 106.56,-194.87 106.56,-194.87 106.56,-188.87 112.56,-182.87 118.56,-182.87"/>
<text text-anchor="middle" x="137.56" y="-197.17" font-family="Arial" font-size="14.00">mathml</text>
</g>
<!-- foreign&#45;&gt;mathml -->
<g id="edge4" class="edge">
<title>foreign&#45;&gt;mathml</title>
<path fill="none" stroke="#1f78b4" d="M74.03,-167.07C81.42,-171 89.5,-175.3 97.34,-179.47"/>
<polygon fill="#a6cee3" stroke="#1f78b4" points="95.91,-182.68 106.39,-184.28 99.2,-176.5 95.91,-182.68"/>
</g>
</g>
</svg>
