<?xml version="1.0" encoding="UTF-8" standalone="no"?>
<!DOCTYPE svg PUBLIC "-//W3C//DTD SVG 1.1//EN"
 "http://www.w3.org/Graphics/SVG/1.1/DTD/svg11.dtd">
<!-- Generated by graphviz version 6.0.1 (20220911.1526)
 -->
<!-- Pages: 1 -->
<svg width="599pt" height="537pt"
 viewBox="0.00 0.00 599.00 537.00" xmlns="http://www.w3.org/2000/svg" xmlns:xlink="http://www.w3.org/1999/xlink">
<g id="graph0" class="graph" transform="scale(1 1) rotate(0) translate(4 533)">
<polygon fill="white" stroke="none" points="-4,4 -4,-533 595,-533 595,4 -4,4"/>
<!-- syntaxdiagram&#45;d -->
<g id="node1" class="node">
<title>syntaxdiagram&#45;d</title>
<path fill="#dddddd" stroke="black" d="M269.76,-219.88C269.76,-219.88 362.76,-219.88 362.76,-219.88 368.76,-219.88 374.76,-225.88 374.76,-231.88 374.76,-231.88 374.76,-243.88 374.76,-243.88 374.76,-249.88 368.76,-255.88 362.76,-255.88 362.76,-255.88 269.76,-255.88 269.76,-255.88 263.76,-255.88 257.76,-249.88 257.76,-243.88 257.76,-243.88 257.76,-231.88 257.76,-231.88 257.76,-225.88 263.76,-219.88 269.76,-219.88"/>
<text text-anchor="middle" x="316.26" y="-234.18" font-family="Arial" font-size="14.00">syntaxdiagram&#45;d</text>
</g>
<!-- ph -->
<g id="node2" class="node">
<title>ph</title>
<path fill="#afa7f4" stroke="black" d="M440.87,-111.71C440.87,-111.71 470.87,-111.71 470.87,-111.71 476.87,-111.71 482.87,-117.71 482.87,-123.71 482.87,-123.71 482.87,-135.71 482.87,-135.71 482.87,-141.71 476.87,-147.71 470.87,-147.71 470.87,-147.71 440.87,-147.71 440.87,-147.71 434.87,-147.71 428.87,-141.71 428.87,-135.71 428.87,-135.71 428.87,-123.71 428.87,-123.71 428.87,-117.71 434.87,-111.71 440.87,-111.71"/>
<text text-anchor="middle" x="455.87" y="-126.01" font-family="Arial" font-size="14.00">ph</text>
</g>
<!-- syntaxdiagram&#45;d&#45;&gt;ph -->
<g id="edge1" class="edge">
<title>syntaxdiagram&#45;d&#45;&gt;ph</title>
<path fill="none" stroke="#1f78b4" d="M339.62,-219.77C362.88,-201.76 398.72,-173.99 424.45,-154.05"/>
<polygon fill="#a6cee3" stroke="#1f78b4" points="426.66,-156.76 432.42,-147.87 422.37,-151.23 426.66,-156.76"/>
</g>
<!-- fig -->
<g id="node9" class="node">
<title>fig</title>
<path fill="#afa7f4" stroke="black" d="M182.98,-110.83C182.98,-110.83 212.98,-110.83 212.98,-110.83 218.98,-110.83 224.98,-116.83 224.98,-122.83 224.98,-122.83 224.98,-134.83 224.98,-134.83 224.98,-140.83 218.98,-146.83 212.98,-146.83 212.98,-146.83 182.98,-146.83 182.98,-146.83 176.98,-146.83 170.98,-140.83 170.98,-134.83 170.98,-134.83 170.98,-122.83 170.98,-122.83 170.98,-116.83 176.98,-110.83 182.98,-110.83"/>
<text text-anchor="middle" x="197.98" y="-125.13" font-family="Arial" font-size="14.00">fig</text>
</g>
<!-- syntaxdiagram&#45;d&#45;&gt;fig -->
<g id="edge8" class="edge">
<title>syntaxdiagram&#45;d&#45;&gt;fig</title>
<path fill="none" stroke="#1f78b4" d="M296.73,-219.87C277.12,-201.8 246.77,-173.82 224.9,-153.65"/>
<polygon fill="#a6cee3" stroke="#1f78b4" points="227.27,-151.07 217.54,-146.87 222.52,-156.22 227.27,-151.07"/>
</g>
<!-- figgroup -->
<g id="node11" class="node">
<title>figgroup</title>
<path fill="#afa7f4" stroke="black" d="M377.66,-345.36C377.66,-345.36 418.66,-345.36 418.66,-345.36 424.66,-345.36 430.66,-351.36 430.66,-357.36 430.66,-357.36 430.66,-369.36 430.66,-369.36 430.66,-375.36 424.66,-381.36 418.66,-381.36 418.66,-381.36 377.66,-381.36 377.66,-381.36 371.66,-381.36 365.66,-375.36 365.66,-369.36 365.66,-369.36 365.66,-357.36 365.66,-357.36 365.66,-351.36 371.66,-345.36 377.66,-345.36"/>
<text text-anchor="middle" x="398.16" y="-359.66" font-family="Arial" font-size="14.00">figgroup</text>
</g>
<!-- syntaxdiagram&#45;d&#45;&gt;figgroup -->
<g id="edge10" class="edge">
<title>syntaxdiagram&#45;d&#45;&gt;figgroup</title>
<path fill="none" stroke="#1f78b4" d="M328.16,-256.12C341.99,-277.31 364.93,-312.45 380.75,-336.7"/>
<polygon fill="#a6cee3" stroke="#1f78b4" points="377.84,-338.63 386.23,-345.09 383.7,-334.81 377.84,-338.63"/>
</g>
<!-- xref -->
<g id="node17" class="node">
<title>xref</title>
<path fill="#afa7f4" stroke="black" d="M136.15,-220.22C136.15,-220.22 166.15,-220.22 166.15,-220.22 172.15,-220.22 178.15,-226.22 178.15,-232.22 178.15,-232.22 178.15,-244.22 178.15,-244.22 178.15,-250.22 172.15,-256.22 166.15,-256.22 166.15,-256.22 136.15,-256.22 136.15,-256.22 130.15,-256.22 124.15,-250.22 124.15,-244.22 124.15,-244.22 124.15,-232.22 124.15,-232.22 124.15,-226.22 130.15,-220.22 136.15,-220.22"/>
<text text-anchor="middle" x="151.15" y="-234.52" font-family="Arial" font-size="14.00">xref</text>
</g>
<!-- syntaxdiagram&#45;d&#45;&gt;xref -->
<g id="edge16" class="edge">
<title>syntaxdiagram&#45;d&#45;&gt;xref</title>
<path fill="none" stroke="#1f78b4" d="M257.58,-238C234.53,-238.05 208.77,-238.1 188.36,-238.14"/>
<polygon fill="#a6cee3" stroke="#1f78b4" points="188.22,-234.64 178.22,-238.17 188.23,-241.64 188.22,-234.64"/>
</g>
<!-- fn -->
<g id="node20" class="node">
<title>fn</title>
<path fill="#afa7f4" stroke="black" d="M285.69,-171.11C285.69,-171.11 315.69,-171.11 315.69,-171.11 321.69,-171.11 327.69,-177.11 327.69,-183.11 327.69,-183.11 327.69,-195.11 327.69,-195.11 327.69,-201.11 321.69,-207.11 315.69,-207.11 315.69,-207.11 285.69,-207.11 285.69,-207.11 279.69,-207.11 273.69,-201.11 273.69,-195.11 273.69,-195.11 273.69,-183.11 273.69,-183.11 273.69,-177.11 279.69,-171.11 285.69,-171.11"/>
<text text-anchor="middle" x="300.69" y="-185.41" font-family="Arial" font-size="14.00">fn</text>
</g>
<!-- syntaxdiagram&#45;d&#45;&gt;fn -->
<g id="edge19" class="edge">
<title>syntaxdiagram&#45;d&#45;&gt;fn</title>
<path fill="none" stroke="#1f78b4" d="M310.46,-219.72C310.17,-218.82 309.88,-217.91 309.59,-216.99"/>
<polygon fill="#a6cee3" stroke="#1f78b4" points="312.82,-215.59 306.44,-207.12 306.15,-217.71 312.82,-215.59"/>
</g>
<!-- keyword -->
<g id="node22" class="node">
<title>keyword</title>
<path fill="#afa7f4" stroke="black" d="M185.89,-330.13C185.89,-330.13 228.89,-330.13 228.89,-330.13 234.89,-330.13 240.89,-336.13 240.89,-342.13 240.89,-342.13 240.89,-354.13 240.89,-354.13 240.89,-360.13 234.89,-366.13 228.89,-366.13 228.89,-366.13 185.89,-366.13 185.89,-366.13 179.89,-366.13 173.89,-360.13 173.89,-354.13 173.89,-354.13 173.89,-342.13 173.89,-342.13 173.89,-336.13 179.89,-330.13 185.89,-330.13"/>
<text text-anchor="middle" x="207.39" y="-344.43" font-family="Arial" font-size="14.00">keyword</text>
</g>
<!-- syntaxdiagram&#45;d&#45;&gt;keyword -->
<g id="edge21" class="edge">
<title>syntaxdiagram&#45;d&#45;&gt;keyword</title>
<path fill="none" stroke="#1f78b4" d="M298.28,-256.08C280.31,-274.28 252.54,-302.4 232.42,-322.78"/>
<polygon fill="#a6cee3" stroke="#1f78b4" points="229.93,-320.32 225.39,-329.9 234.91,-325.24 229.93,-320.32"/>
</g>
<!-- var -->
<g id="node3" class="node">
<title>var</title>
<path fill="#1afabc" stroke="black" d="M448.7,-0.3C448.7,-0.3 478.7,-0.3 478.7,-0.3 484.7,-0.3 490.7,-6.3 490.7,-12.3 490.7,-12.3 490.7,-24.3 490.7,-24.3 490.7,-30.3 484.7,-36.3 478.7,-36.3 478.7,-36.3 448.7,-36.3 448.7,-36.3 442.7,-36.3 436.7,-30.3 436.7,-24.3 436.7,-24.3 436.7,-12.3 436.7,-12.3 436.7,-6.3 442.7,-0.3 448.7,-0.3"/>
<text text-anchor="middle" x="463.7" y="-14.6" font-family="Arial" font-size="14.00">var</text>
</g>
<!-- ph&#45;&gt;var -->
<g id="edge2" class="edge">
<title>ph&#45;&gt;var</title>
<path fill="none" stroke="#1f78b4" d="M457.16,-111.31C458.4,-93.71 460.28,-66.91 461.71,-46.59"/>
<polygon fill="#a6cee3" stroke="#1f78b4" points="465.22,-46.57 462.43,-36.35 458.23,-46.08 465.22,-46.57"/>
</g>
<!-- synph -->
<g id="node4" class="node">
<title>synph</title>
<path fill="#1afabc" stroke="black" d="M503.86,-205.09C503.86,-205.09 533.86,-205.09 533.86,-205.09 539.86,-205.09 545.86,-211.09 545.86,-217.09 545.86,-217.09 545.86,-229.09 545.86,-229.09 545.86,-235.09 539.86,-241.09 533.86,-241.09 533.86,-241.09 503.86,-241.09 503.86,-241.09 497.86,-241.09 491.86,-235.09 491.86,-229.09 491.86,-229.09 491.86,-217.09 491.86,-217.09 491.86,-211.09 497.86,-205.09 503.86,-205.09"/>
<text text-anchor="middle" x="518.86" y="-219.39" font-family="Arial" font-size="14.00">synph</text>
</g>
<!-- ph&#45;&gt;synph -->
<g id="edge3" class="edge">
<title>ph&#45;&gt;synph</title>
<path fill="none" stroke="#1f78b4" d="M468.01,-147.71C477.28,-161.45 490.19,-180.59 500.68,-196.14"/>
<polygon fill="#a6cee3" stroke="#1f78b4" points="498.04,-198.49 506.54,-204.82 503.85,-194.57 498.04,-198.49"/>
</g>
<!-- oper -->
<g id="node5" class="node">
<title>oper</title>
<path fill="#1afabc" stroke="black" d="M544.18,-89.23C544.18,-89.23 574.18,-89.23 574.18,-89.23 580.18,-89.23 586.18,-95.23 586.18,-101.23 586.18,-101.23 586.18,-113.23 586.18,-113.23 586.18,-119.23 580.18,-125.23 574.18,-125.23 574.18,-125.23 544.18,-125.23 544.18,-125.23 538.18,-125.23 532.18,-119.23 532.18,-113.23 532.18,-113.23 532.18,-101.23 532.18,-101.23 532.18,-95.23 538.18,-89.23 544.18,-89.23"/>
<text text-anchor="middle" x="559.18" y="-103.53" font-family="Arial" font-size="14.00">oper</text>
</g>
<!-- ph&#45;&gt;oper -->
<g id="edge4" class="edge">
<title>ph&#45;&gt;oper</title>
<path fill="none" stroke="#1f78b4" d="M483.01,-123.8C494.9,-121.21 509.04,-118.14 521.89,-115.34"/>
<polygon fill="#a6cee3" stroke="#1f78b4" points="522.83,-118.72 531.85,-113.17 521.34,-111.88 522.83,-118.72"/>
</g>
<!-- delim -->
<g id="node6" class="node">
<title>delim</title>
<path fill="#1afabc" stroke="black" d="M549.04,-147.24C549.04,-147.24 579.04,-147.24 579.04,-147.24 585.04,-147.24 591.04,-153.24 591.04,-159.24 591.04,-159.24 591.04,-171.24 591.04,-171.24 591.04,-177.24 585.04,-183.24 579.04,-183.24 579.04,-183.24 549.04,-183.24 549.04,-183.24 543.04,-183.24 537.04,-177.24 537.04,-171.24 537.04,-171.24 537.04,-159.24 537.04,-159.24 537.04,-153.24 543.04,-147.24 549.04,-147.24"/>
<text text-anchor="middle" x="564.04" y="-161.54" font-family="Arial" font-size="14.00">delim</text>
</g>
<!-- ph&#45;&gt;delim -->
<g id="edge5" class="edge">
<title>ph&#45;&gt;delim</title>
<path fill="none" stroke="#1f78b4" d="M482.88,-138.58C496.31,-142.99 512.73,-148.38 527.28,-153.16"/>
<polygon fill="#a6cee3" stroke="#1f78b4" points="526.4,-156.56 536.99,-156.35 528.58,-149.91 526.4,-156.56"/>
</g>
<!-- sep -->
<g id="node7" class="node">
<title>sep</title>
<path fill="#1afabc" stroke="black" d="M374.35,-23.46C374.35,-23.46 404.35,-23.46 404.35,-23.46 410.35,-23.46 416.35,-29.46 416.35,-35.46 416.35,-35.46 416.35,-47.46 416.35,-47.46 416.35,-53.46 410.35,-59.46 404.35,-59.46 404.35,-59.46 374.35,-59.46 374.35,-59.46 368.35,-59.46 362.35,-53.46 362.35,-47.46 362.35,-47.46 362.35,-35.46 362.35,-35.46 362.35,-29.46 368.35,-23.46 374.35,-23.46"/>
<text text-anchor="middle" x="389.35" y="-37.76" font-family="Arial" font-size="14.00">sep</text>
</g>
<!-- ph&#45;&gt;sep -->
<g id="edge6" class="edge">
<title>ph&#45;&gt;sep</title>
<path fill="none" stroke="#1f78b4" d="M442.08,-111.42C432.63,-98.88 419.93,-82.04 409.37,-68.02"/>
<polygon fill="#a6cee3" stroke="#1f78b4" points="411.92,-65.6 403.11,-59.72 406.34,-69.82 411.92,-65.6"/>
</g>
<!-- repsep -->
<g id="node8" class="node">
<title>repsep</title>
<path fill="#1afabc" stroke="black" d="M517.58,-33.12C517.58,-33.12 551.58,-33.12 551.58,-33.12 557.58,-33.12 563.58,-39.12 563.58,-45.12 563.58,-45.12 563.58,-57.12 563.58,-57.12 563.58,-63.12 557.58,-69.12 551.58,-69.12 551.58,-69.12 517.58,-69.12 517.58,-69.12 511.58,-69.12 505.58,-63.12 505.58,-57.12 505.58,-57.12 505.58,-45.12 505.58,-45.12 505.58,-39.12 511.58,-33.12 517.58,-33.12"/>
<text text-anchor="middle" x="534.58" y="-47.42" font-family="Arial" font-size="14.00">repsep</text>
</g>
<!-- ph&#45;&gt;repsep -->
<g id="edge7" class="edge">
<title>ph&#45;&gt;repsep</title>
<path fill="none" stroke="#1f78b4" d="M474.12,-111.48C484.55,-101.07 497.79,-87.85 509.22,-76.44"/>
<polygon fill="#a6cee3" stroke="#1f78b4" points="511.82,-78.79 516.42,-69.25 506.87,-73.84 511.82,-78.79"/>
</g>
<!-- syntaxdiagram -->
<g id="node10" class="node">
<title>syntaxdiagram</title>
<path fill="#1afabc" stroke="black" d="M69.67,-14.37C69.67,-14.37 150.67,-14.37 150.67,-14.37 156.67,-14.37 162.67,-20.37 162.67,-26.37 162.67,-26.37 162.67,-38.37 162.67,-38.37 162.67,-44.37 156.67,-50.37 150.67,-50.37 150.67,-50.37 69.67,-50.37 69.67,-50.37 63.67,-50.37 57.67,-44.37 57.67,-38.37 57.67,-38.37 57.67,-26.37 57.67,-26.37 57.67,-20.37 63.67,-14.37 69.67,-14.37"/>
<text text-anchor="middle" x="110.17" y="-28.67" font-family="Arial" font-size="14.00">syntaxdiagram</text>
</g>
<!-- fig&#45;&gt;syntaxdiagram -->
<g id="edge9" class="edge">
<title>fig&#45;&gt;syntaxdiagram</title>
<path fill="none" stroke="#1f78b4" d="M181.47,-110.69C167.98,-95.87 148.74,-74.74 133.65,-58.16"/>
<polygon fill="#a6cee3" stroke="#1f78b4" points="135.94,-55.47 126.62,-50.44 130.76,-60.19 135.94,-55.47"/>
</g>
<!-- synblk -->
<g id="node12" class="node">
<title>synblk</title>
<path fill="#1afabc" stroke="black" d="M286.02,-437.65C286.02,-437.65 317.02,-437.65 317.02,-437.65 323.02,-437.65 329.02,-443.65 329.02,-449.65 329.02,-449.65 329.02,-461.65 329.02,-461.65 329.02,-467.65 323.02,-473.65 317.02,-473.65 317.02,-473.65 286.02,-473.65 286.02,-473.65 280.02,-473.65 274.02,-467.65 274.02,-461.65 274.02,-461.65 274.02,-449.65 274.02,-449.65 274.02,-443.65 280.02,-437.65 286.02,-437.65"/>
<text text-anchor="middle" x="301.52" y="-451.95" font-family="Arial" font-size="14.00">synblk</text>
</g>
<!-- figgroup&#45;&gt;synblk -->
<g id="edge11" class="edge">
<title>figgroup&#45;&gt;synblk</title>
<path fill="none" stroke="#1f78b4" d="M379.06,-381.6C364.5,-395.5 344.27,-414.82 328.13,-430.24"/>
<polygon fill="#a6cee3" stroke="#1f78b4" points="325.38,-428.02 320.57,-437.46 330.22,-433.08 325.38,-428.02"/>
</g>
<!-- groupseq -->
<g id="node13" class="node">
<title>groupseq</title>
<path fill="#1afabc" stroke="black" d="M497.35,-379.98C497.35,-379.98 546.35,-379.98 546.35,-379.98 552.35,-379.98 558.35,-385.98 558.35,-391.98 558.35,-391.98 558.35,-403.98 558.35,-403.98 558.35,-409.98 552.35,-415.98 546.35,-415.98 546.35,-415.98 497.35,-415.98 497.35,-415.98 491.35,-415.98 485.35,-409.98 485.35,-403.98 485.35,-403.98 485.35,-391.98 485.35,-391.98 485.35,-385.98 491.35,-379.98 497.35,-379.98"/>
<text text-anchor="middle" x="521.85" y="-394.28" font-family="Arial" font-size="14.00">groupseq</text>
</g>
<!-- figgroup&#45;&gt;groupseq -->
<g id="edge12" class="edge">
<title>figgroup&#45;&gt;groupseq</title>
<path fill="none" stroke="#1f78b4" d="M430.98,-372.55C444.47,-376.33 460.35,-380.77 475.02,-384.88"/>
<polygon fill="#a6cee3" stroke="#1f78b4" points="474.37,-388.33 484.94,-387.65 476.26,-381.59 474.37,-388.33"/>
</g>
<!-- groupchoice -->
<g id="node14" class="node">
<title>groupchoice</title>
<path fill="#1afabc" stroke="black" d="M360.66,-408.41C360.66,-408.41 426.66,-408.41 426.66,-408.41 432.66,-408.41 438.66,-414.41 438.66,-420.41 438.66,-420.41 438.66,-432.41 438.66,-432.41 438.66,-438.41 432.66,-444.41 426.66,-444.41 426.66,-444.41 360.66,-444.41 360.66,-444.41 354.66,-444.41 348.66,-438.41 348.66,-432.41 348.66,-432.41 348.66,-420.41 348.66,-420.41 348.66,-414.41 354.66,-408.41 360.66,-408.41"/>
<text text-anchor="middle" x="393.66" y="-422.71" font-family="Arial" font-size="14.00">groupchoice</text>
</g>
<!-- figgroup&#45;&gt;groupchoice -->
<g id="edge13" class="edge">
<title>figgroup&#45;&gt;groupchoice</title>
<path fill="none" stroke="#1f78b4" d="M396.86,-381.6C396.5,-386.65 396.1,-392.26 395.7,-397.76"/>
<polygon fill="#a6cee3" stroke="#1f78b4" points="392.19,-397.78 394.97,-408 399.18,-398.27 392.19,-397.78"/>
</g>
<!-- groupcomp -->
<g id="node15" class="node">
<title>groupcomp</title>
<path fill="#1afabc" stroke="black" d="M376.63,-492.62C376.63,-492.62 437.63,-492.62 437.63,-492.62 443.63,-492.62 449.63,-498.62 449.63,-504.62 449.63,-504.62 449.63,-516.62 449.63,-516.62 449.63,-522.62 443.63,-528.62 437.63,-528.62 437.63,-528.62 376.63,-528.62 376.63,-528.62 370.63,-528.62 364.63,-522.62 364.63,-516.62 364.63,-516.62 364.63,-504.62 364.63,-504.62 364.63,-498.62 370.63,-492.62 376.63,-492.62"/>
<text text-anchor="middle" x="407.13" y="-506.92" font-family="Arial" font-size="14.00">groupcomp</text>
</g>
<!-- figgroup&#45;&gt;groupcomp -->
<g id="edge14" class="edge">
<title>figgroup&#45;&gt;groupcomp</title>
<path fill="none" stroke="#1f78b4" d="M399.26,-381.42C400.79,-406.59 403.59,-452.48 405.4,-482.24"/>
<polygon fill="#a6cee3" stroke="#1f78b4" points="401.92,-482.64 406.02,-492.41 408.91,-482.22 401.92,-482.64"/>
</g>
<!-- fragment -->
<g id="node16" class="node">
<title>fragment</title>
<path fill="#1afabc" stroke="black" d="M473.33,-440.56C473.33,-440.56 520.33,-440.56 520.33,-440.56 526.33,-440.56 532.33,-446.56 532.33,-452.56 532.33,-452.56 532.33,-464.56 532.33,-464.56 532.33,-470.56 526.33,-476.56 520.33,-476.56 520.33,-476.56 473.33,-476.56 473.33,-476.56 467.33,-476.56 461.33,-470.56 461.33,-464.56 461.33,-464.56 461.33,-452.56 461.33,-452.56 461.33,-446.56 467.33,-440.56 473.33,-440.56"/>
<text text-anchor="middle" x="496.83" y="-454.86" font-family="Arial" font-size="14.00">fragment</text>
</g>
<!-- figgroup&#45;&gt;fragment -->
<g id="edge15" class="edge">
<title>figgroup&#45;&gt;fragment</title>
<path fill="none" stroke="#1f78b4" d="M417.18,-381.72C432.33,-396.33 453.71,-416.96 470.51,-433.16"/>
<polygon fill="#a6cee3" stroke="#1f78b4" points="468.24,-435.83 477.86,-440.26 473.1,-430.8 468.24,-435.83"/>
</g>
<!-- fragref -->
<g id="node18" class="node">
<title>fragref</title>
<path fill="#1afabc" stroke="black" d="M36.95,-261.39C36.95,-261.39 68.95,-261.39 68.95,-261.39 74.95,-261.39 80.95,-267.39 80.95,-273.39 80.95,-273.39 80.95,-285.39 80.95,-285.39 80.95,-291.39 74.95,-297.39 68.95,-297.39 68.95,-297.39 36.95,-297.39 36.95,-297.39 30.95,-297.39 24.95,-291.39 24.95,-285.39 24.95,-285.39 24.95,-273.39 24.95,-273.39 24.95,-267.39 30.95,-261.39 36.95,-261.39"/>
<text text-anchor="middle" x="52.95" y="-275.69" font-family="Arial" font-size="14.00">fragref</text>
</g>
<!-- xref&#45;&gt;fragref -->
<g id="edge17" class="edge">
<title>xref&#45;&gt;fragref</title>
<path fill="none" stroke="#1f78b4" d="M124.06,-249.58C113.69,-253.92 101.68,-258.96 90.52,-263.64"/>
<polygon fill="#a6cee3" stroke="#1f78b4" points="88.85,-260.55 80.98,-267.64 91.56,-267 88.85,-260.55"/>
</g>
<!-- synnoteref -->
<g id="node19" class="node">
<title>synnoteref</title>
<path fill="#1afabc" stroke="black" d="M12.05,-178.94C12.05,-178.94 68.05,-178.94 68.05,-178.94 74.05,-178.94 80.05,-184.94 80.05,-190.94 80.05,-190.94 80.05,-202.94 80.05,-202.94 80.05,-208.94 74.05,-214.94 68.05,-214.94 68.05,-214.94 12.05,-214.94 12.05,-214.94 6.05,-214.94 0.05,-208.94 0.05,-202.94 0.05,-202.94 0.05,-190.94 0.05,-190.94 0.05,-184.94 6.05,-178.94 12.05,-178.94"/>
<text text-anchor="middle" x="40.05" y="-193.24" font-family="Arial" font-size="14.00">synnoteref</text>
</g>
<!-- xref&#45;&gt;synnoteref -->
<g id="edge18" class="edge">
<title>xref&#45;&gt;synnoteref</title>
<path fill="none" stroke="#1f78b4" d="M123.97,-228.12C113.73,-224.32 101.74,-219.86 90.07,-215.53"/>
<polygon fill="#a6cee3" stroke="#1f78b4" points="90.98,-212.13 80.39,-211.93 88.55,-218.69 90.98,-212.13"/>
</g>
<!-- synnote -->
<g id="node21" class="node">
<title>synnote</title>
<path fill="#1afabc" stroke="black" d="M248.96,-64.37C248.96,-64.37 288.96,-64.37 288.96,-64.37 294.96,-64.37 300.96,-70.37 300.96,-76.37 300.96,-76.37 300.96,-88.37 300.96,-88.37 300.96,-94.37 294.96,-100.37 288.96,-100.37 288.96,-100.37 248.96,-100.37 248.96,-100.37 242.96,-100.37 236.96,-94.37 236.96,-88.37 236.96,-88.37 236.96,-76.37 236.96,-76.37 236.96,-70.37 242.96,-64.37 248.96,-64.37"/>
<text text-anchor="middle" x="268.96" y="-78.67" font-family="Arial" font-size="14.00">synnote</text>
</g>
<!-- fn&#45;&gt;synnote -->
<g id="edge20" class="edge">
<title>fn&#45;&gt;synnote</title>
<path fill="none" stroke="#1f78b4" d="M295.31,-171C290.36,-154.36 282.96,-129.45 277.26,-110.27"/>
<polygon fill="#a6cee3" stroke="#1f78b4" points="280.58,-109.15 274.37,-100.56 273.87,-111.15 280.58,-109.15"/>
</g>
<!-- kwd -->
<g id="node23" class="node">
<title>kwd</title>
<path fill="#1afabc" stroke="black" d="M109.02,-414.11C109.02,-414.11 139.02,-414.11 139.02,-414.11 145.02,-414.11 151.02,-420.11 151.02,-426.11 151.02,-426.11 151.02,-438.11 151.02,-438.11 151.02,-444.11 145.02,-450.11 139.02,-450.11 139.02,-450.11 109.02,-450.11 109.02,-450.11 103.02,-450.11 97.02,-444.11 97.02,-438.11 97.02,-438.11 97.02,-426.11 97.02,-426.11 97.02,-420.11 103.02,-414.11 109.02,-414.11"/>
<text text-anchor="middle" x="124.02" y="-428.41" font-family="Arial" font-size="14.00">kwd</text>
</g>
<!-- keyword&#45;&gt;kwd -->
<g id="edge22" class="edge">
<title>keyword&#45;&gt;kwd</title>
<path fill="none" stroke="#1f78b4" d="M189.3,-366.36C177.61,-378.13 162.23,-393.62 149.33,-406.61"/>
<polygon fill="#a6cee3" stroke="#1f78b4" points="146.64,-404.36 142.07,-413.93 151.6,-409.3 146.64,-404.36"/>
</g>
</g>
</svg>
