<?xml version="1.0" encoding="UTF-8" standalone="no"?>
<!DOCTYPE svg PUBLIC "-//W3C//DTD SVG 1.1//EN"
 "http://www.w3.org/Graphics/SVG/1.1/DTD/svg11.dtd">
<!-- Generated by graphviz version 6.0.1 (20220911.1526)
 -->
<!-- Pages: 1 -->
<svg width="741pt" height="755pt"
 viewBox="0.00 0.00 741.00 755.00" xmlns="http://www.w3.org/2000/svg" xmlns:xlink="http://www.w3.org/1999/xlink">
<g id="graph0" class="graph" transform="scale(1 1) rotate(0) translate(4 751)">
<polygon fill="white" stroke="none" points="-4,4 -4,-751 737,-751 737,4 -4,4"/>
<!-- pr&#45;d -->
<g id="node1" class="node">
<title>pr&#45;d</title>
<path fill="#dddddd" stroke="black" d="M350.72,-376.96C350.72,-376.96 380.72,-376.96 380.72,-376.96 386.72,-376.96 392.72,-382.96 392.72,-388.96 392.72,-388.96 392.72,-400.96 392.72,-400.96 392.72,-406.96 386.72,-412.96 380.72,-412.96 380.72,-412.96 350.72,-412.96 350.72,-412.96 344.72,-412.96 338.72,-406.96 338.72,-400.96 338.72,-400.96 338.72,-388.96 338.72,-388.96 338.72,-382.96 344.72,-376.96 350.72,-376.96"/>
<text text-anchor="middle" x="365.72" y="-391.26" font-family="Arial" font-size="14.00">pr&#45;d</text>
</g>
<!-- ph -->
<g id="node2" class="node">
<title>ph</title>
<path fill="#afa7f4" stroke="black" d="M432.85,-163.56C432.85,-163.56 462.85,-163.56 462.85,-163.56 468.85,-163.56 474.85,-169.56 474.85,-175.56 474.85,-175.56 474.85,-187.56 474.85,-187.56 474.85,-193.56 468.85,-199.56 462.85,-199.56 462.85,-199.56 432.85,-199.56 432.85,-199.56 426.85,-199.56 420.85,-193.56 420.85,-187.56 420.85,-187.56 420.85,-175.56 420.85,-175.56 420.85,-169.56 426.85,-163.56 432.85,-163.56"/>
<text text-anchor="middle" x="447.85" y="-177.86" font-family="Arial" font-size="14.00">ph</text>
</g>
<!-- pr&#45;d&#45;&gt;ph -->
<g id="edge1" class="edge">
<title>pr&#45;d&#45;&gt;ph</title>
<path fill="none" stroke="#1f78b4" d="M372.72,-376.76C387.12,-339.36 420.11,-253.63 437.18,-209.28"/>
<polygon fill="#a6cee3" stroke="#1f78b4" points="440.54,-210.3 440.86,-199.71 434,-207.78 440.54,-210.3"/>
</g>
<!-- pre -->
<g id="node10" class="node">
<title>pre</title>
<path fill="#afa7f4" stroke="black" d="M476.23,-325.09C476.23,-325.09 506.23,-325.09 506.23,-325.09 512.23,-325.09 518.23,-331.09 518.23,-337.09 518.23,-337.09 518.23,-349.09 518.23,-349.09 518.23,-355.09 512.23,-361.09 506.23,-361.09 506.23,-361.09 476.23,-361.09 476.23,-361.09 470.23,-361.09 464.23,-355.09 464.23,-349.09 464.23,-349.09 464.23,-337.09 464.23,-337.09 464.23,-331.09 470.23,-325.09 476.23,-325.09"/>
<text text-anchor="middle" x="491.23" y="-339.39" font-family="Arial" font-size="14.00">pre</text>
</g>
<!-- pr&#45;d&#45;&gt;pre -->
<g id="edge9" class="edge">
<title>pr&#45;d&#45;&gt;pre</title>
<path fill="none" stroke="#1f78b4" d="M392.96,-383.7C411.05,-376.22 435.01,-366.32 454.75,-358.16"/>
<polygon fill="#a6cee3" stroke="#1f78b4" points="456.15,-361.37 464.05,-354.32 453.47,-354.9 456.15,-361.37"/>
</g>
<!-- xref -->
<g id="node12" class="node">
<title>xref</title>
<path fill="#afa7f4" stroke="black" d="M281.71,-563.4C281.71,-563.4 311.71,-563.4 311.71,-563.4 317.71,-563.4 323.71,-569.4 323.71,-575.4 323.71,-575.4 323.71,-587.4 323.71,-587.4 323.71,-593.4 317.71,-599.4 311.71,-599.4 311.71,-599.4 281.71,-599.4 281.71,-599.4 275.71,-599.4 269.71,-593.4 269.71,-587.4 269.71,-587.4 269.71,-575.4 269.71,-575.4 269.71,-569.4 275.71,-563.4 281.71,-563.4"/>
<text text-anchor="middle" x="296.71" y="-577.7" font-family="Arial" font-size="14.00">xref</text>
</g>
<!-- pr&#45;d&#45;&gt;xref -->
<g id="edge11" class="edge">
<title>pr&#45;d&#45;&gt;xref</title>
<path fill="none" stroke="#1f78b4" d="M358.98,-413.17C346.84,-445.98 321.23,-515.15 306.93,-553.8"/>
<polygon fill="#a6cee3" stroke="#1f78b4" points="303.57,-552.79 303.38,-563.38 310.13,-555.22 303.57,-552.79"/>
</g>
<!-- keyword -->
<g id="node16" class="node">
<title>keyword</title>
<path fill="#afa7f4" stroke="black" d="M160.36,-294.43C160.36,-294.43 203.36,-294.43 203.36,-294.43 209.36,-294.43 215.36,-300.43 215.36,-306.43 215.36,-306.43 215.36,-318.43 215.36,-318.43 215.36,-324.43 209.36,-330.43 203.36,-330.43 203.36,-330.43 160.36,-330.43 160.36,-330.43 154.36,-330.43 148.36,-324.43 148.36,-318.43 148.36,-318.43 148.36,-306.43 148.36,-306.43 148.36,-300.43 154.36,-294.43 160.36,-294.43"/>
<text text-anchor="middle" x="181.86" y="-308.73" font-family="Arial" font-size="14.00">keyword</text>
</g>
<!-- pr&#45;d&#45;&gt;keyword -->
<g id="edge15" class="edge">
<title>pr&#45;d&#45;&gt;keyword</title>
<path fill="none" stroke="#1f78b4" d="M338.59,-382.78C308.74,-369.38 260.32,-347.65 225.2,-331.88"/>
<polygon fill="#a6cee3" stroke="#1f78b4" points="226.22,-328.5 215.67,-327.6 223.36,-334.89 226.22,-328.5"/>
</g>
<!-- dl -->
<g id="node21" class="node">
<title>dl</title>
<path fill="#afa7f4" stroke="black" d="M196.46,-377.31C196.46,-377.31 226.46,-377.31 226.46,-377.31 232.46,-377.31 238.46,-383.31 238.46,-389.31 238.46,-389.31 238.46,-401.31 238.46,-401.31 238.46,-407.31 232.46,-413.31 226.46,-413.31 226.46,-413.31 196.46,-413.31 196.46,-413.31 190.46,-413.31 184.46,-407.31 184.46,-401.31 184.46,-401.31 184.46,-389.31 184.46,-389.31 184.46,-383.31 190.46,-377.31 196.46,-377.31"/>
<text text-anchor="middle" x="211.46" y="-391.61" font-family="Arial" font-size="14.00">dl</text>
</g>
<!-- pr&#45;d&#45;&gt;dl -->
<g id="edge20" class="edge">
<title>pr&#45;d&#45;&gt;dl</title>
<path fill="none" stroke="#1f78b4" d="M338.5,-395.02C313.57,-395.08 276.46,-395.16 248.78,-395.23"/>
<polygon fill="#a6cee3" stroke="#1f78b4" points="248.66,-391.73 238.67,-395.25 248.68,-398.73 248.66,-391.73"/>
</g>
<!-- dlentry -->
<g id="node23" class="node">
<title>dlentry</title>
<path fill="#afa7f4" stroke="black" d="M383.87,-522.16C383.87,-522.16 416.87,-522.16 416.87,-522.16 422.87,-522.16 428.87,-528.16 428.87,-534.16 428.87,-534.16 428.87,-546.16 428.87,-546.16 428.87,-552.16 422.87,-558.16 416.87,-558.16 416.87,-558.16 383.87,-558.16 383.87,-558.16 377.87,-558.16 371.87,-552.16 371.87,-546.16 371.87,-546.16 371.87,-534.16 371.87,-534.16 371.87,-528.16 377.87,-522.16 383.87,-522.16"/>
<text text-anchor="middle" x="400.37" y="-536.46" font-family="Arial" font-size="14.00">dlentry</text>
</g>
<!-- pr&#45;d&#45;&gt;dlentry -->
<g id="edge22" class="edge">
<title>pr&#45;d&#45;&gt;dlentry</title>
<path fill="none" stroke="#1f78b4" d="M370.04,-413.05C375.96,-437.83 386.63,-482.58 393.61,-511.83"/>
<polygon fill="#a6cee3" stroke="#1f78b4" points="390.27,-512.92 396,-521.84 397.08,-511.3 390.27,-512.92"/>
</g>
<!-- dt -->
<g id="node25" class="node">
<title>dt</title>
<path fill="#afa7f4" stroke="black" d="M326.72,-232.02C326.72,-232.02 356.72,-232.02 356.72,-232.02 362.72,-232.02 368.72,-238.02 368.72,-244.02 368.72,-244.02 368.72,-256.02 368.72,-256.02 368.72,-262.02 362.72,-268.02 356.72,-268.02 356.72,-268.02 326.72,-268.02 326.72,-268.02 320.72,-268.02 314.72,-262.02 314.72,-256.02 314.72,-256.02 314.72,-244.02 314.72,-244.02 314.72,-238.02 320.72,-232.02 326.72,-232.02"/>
<text text-anchor="middle" x="341.72" y="-246.32" font-family="Arial" font-size="14.00">dt</text>
</g>
<!-- pr&#45;d&#45;&gt;dt -->
<g id="edge24" class="edge">
<title>pr&#45;d&#45;&gt;dt</title>
<path fill="none" stroke="#1f78b4" d="M362.73,-376.89C358.63,-352.16 351.23,-307.49 346.4,-278.3"/>
<polygon fill="#a6cee3" stroke="#1f78b4" points="349.83,-277.61 344.74,-268.31 342.93,-278.75 349.83,-277.61"/>
</g>
<!-- dd -->
<g id="node27" class="node">
<title>dd</title>
<path fill="#afa7f4" stroke="black" d="M209.04,-437.41C209.04,-437.41 239.04,-437.41 239.04,-437.41 245.04,-437.41 251.04,-443.41 251.04,-449.41 251.04,-449.41 251.04,-461.41 251.04,-461.41 251.04,-467.41 245.04,-473.41 239.04,-473.41 239.04,-473.41 209.04,-473.41 209.04,-473.41 203.04,-473.41 197.04,-467.41 197.04,-461.41 197.04,-461.41 197.04,-449.41 197.04,-449.41 197.04,-443.41 203.04,-437.41 209.04,-437.41"/>
<text text-anchor="middle" x="224.04" y="-451.71" font-family="Arial" font-size="14.00">dd</text>
</g>
<!-- pr&#45;d&#45;&gt;dd -->
<g id="edge26" class="edge">
<title>pr&#45;d&#45;&gt;dd</title>
<path fill="none" stroke="#1f78b4" d="M338.41,-406.61C316.26,-416.07 284.84,-429.47 260.54,-439.84"/>
<polygon fill="#a6cee3" stroke="#1f78b4" points="259.1,-436.65 251.28,-443.79 261.85,-443.09 259.1,-436.65"/>
</g>
<!-- fig -->
<g id="node29" class="node">
<title>fig</title>
<path fill="#afa7f4" stroke="black" d="M489.34,-389.94C489.34,-389.94 519.34,-389.94 519.34,-389.94 525.34,-389.94 531.34,-395.94 531.34,-401.94 531.34,-401.94 531.34,-413.94 531.34,-413.94 531.34,-419.94 525.34,-425.94 519.34,-425.94 519.34,-425.94 489.34,-425.94 489.34,-425.94 483.34,-425.94 477.34,-419.94 477.34,-413.94 477.34,-413.94 477.34,-401.94 477.34,-401.94 477.34,-395.94 483.34,-389.94 489.34,-389.94"/>
<text text-anchor="middle" x="504.34" y="-404.24" font-family="Arial" font-size="14.00">fig</text>
</g>
<!-- pr&#45;d&#45;&gt;fig -->
<g id="edge28" class="edge">
<title>pr&#45;d&#45;&gt;fig</title>
<path fill="none" stroke="#1f78b4" d="M392.78,-397.49C413.82,-399.46 443.27,-402.22 466.63,-404.4"/>
<polygon fill="#a6cee3" stroke="#1f78b4" points="466.59,-407.92 476.88,-405.36 467.25,-400.95 466.59,-407.92"/>
</g>
<!-- figgroup -->
<g id="node31" class="node">
<title>figgroup</title>
<path fill="#afa7f4" stroke="black" d="M515.97,-511.69C515.97,-511.69 556.97,-511.69 556.97,-511.69 562.97,-511.69 568.97,-517.69 568.97,-523.69 568.97,-523.69 568.97,-535.69 568.97,-535.69 568.97,-541.69 562.97,-547.69 556.97,-547.69 556.97,-547.69 515.97,-547.69 515.97,-547.69 509.97,-547.69 503.97,-541.69 503.97,-535.69 503.97,-535.69 503.97,-523.69 503.97,-523.69 503.97,-517.69 509.97,-511.69 515.97,-511.69"/>
<text text-anchor="middle" x="536.47" y="-525.99" font-family="Arial" font-size="14.00">figgroup</text>
</g>
<!-- pr&#45;d&#45;&gt;figgroup -->
<g id="edge30" class="edge">
<title>pr&#45;d&#45;&gt;figgroup</title>
<path fill="none" stroke="#1f78b4" d="M388.75,-413.13C418.88,-436.9 471.78,-478.64 505.42,-505.19"/>
<polygon fill="#a6cee3" stroke="#1f78b4" points="503.52,-508.15 513.53,-511.59 507.85,-502.65 503.52,-508.15"/>
</g>
<!-- fn -->
<g id="node37" class="node">
<title>fn</title>
<path fill="#afa7f4" stroke="black" d="M247.94,-485.71C247.94,-485.71 277.94,-485.71 277.94,-485.71 283.94,-485.71 289.94,-491.71 289.94,-497.71 289.94,-497.71 289.94,-509.71 289.94,-509.71 289.94,-515.71 283.94,-521.71 277.94,-521.71 277.94,-521.71 247.94,-521.71 247.94,-521.71 241.94,-521.71 235.94,-515.71 235.94,-509.71 235.94,-509.71 235.94,-497.71 235.94,-497.71 235.94,-491.71 241.94,-485.71 247.94,-485.71"/>
<text text-anchor="middle" x="262.94" y="-500.01" font-family="Arial" font-size="14.00">fn</text>
</g>
<!-- pr&#45;d&#45;&gt;fn -->
<g id="edge36" class="edge">
<title>pr&#45;d&#45;&gt;fn</title>
<path fill="none" stroke="#1f78b4" d="M348.29,-413.41C331.5,-431.17 305.96,-458.19 287.2,-478.05"/>
<polygon fill="#a6cee3" stroke="#1f78b4" points="284.44,-475.87 280.12,-485.54 289.53,-480.67 284.44,-475.87"/>
</g>
<!-- codeph -->
<g id="node3" class="node">
<title>codeph</title>
<path fill="#1afabc" stroke="black" d="M343.97,-55.2C343.97,-55.2 380.97,-55.2 380.97,-55.2 386.97,-55.2 392.97,-61.2 392.97,-67.2 392.97,-67.2 392.97,-79.2 392.97,-79.2 392.97,-85.2 386.97,-91.2 380.97,-91.2 380.97,-91.2 343.97,-91.2 343.97,-91.2 337.97,-91.2 331.97,-85.2 331.97,-79.2 331.97,-79.2 331.97,-67.2 331.97,-67.2 331.97,-61.2 337.97,-55.2 343.97,-55.2"/>
<text text-anchor="middle" x="362.47" y="-69.5" font-family="Arial" font-size="14.00">codeph</text>
</g>
<!-- ph&#45;&gt;codeph -->
<g id="edge2" class="edge">
<title>ph&#45;&gt;codeph</title>
<path fill="none" stroke="#1f78b4" d="M433.36,-163.18C419.54,-145.64 398.58,-119.04 383.03,-99.3"/>
<polygon fill="#a6cee3" stroke="#1f78b4" points="385.67,-97 376.74,-91.31 380.18,-101.33 385.67,-97"/>
</g>
<!-- var -->
<g id="node4" class="node">
<title>var</title>
<path fill="#1afabc" stroke="black" d="M538.5,-48.01C538.5,-48.01 568.5,-48.01 568.5,-48.01 574.5,-48.01 580.5,-54.01 580.5,-60.01 580.5,-60.01 580.5,-72.01 580.5,-72.01 580.5,-78.01 574.5,-84.01 568.5,-84.01 568.5,-84.01 538.5,-84.01 538.5,-84.01 532.5,-84.01 526.5,-78.01 526.5,-72.01 526.5,-72.01 526.5,-60.01 526.5,-60.01 526.5,-54.01 532.5,-48.01 538.5,-48.01"/>
<text text-anchor="middle" x="553.5" y="-62.31" font-family="Arial" font-size="14.00">var</text>
</g>
<!-- ph&#45;&gt;var -->
<g id="edge3" class="edge">
<title>ph&#45;&gt;var</title>
<path fill="none" stroke="#1f78b4" d="M464.35,-163.5C481.93,-144.29 509.9,-113.7 529.82,-91.91"/>
<polygon fill="#a6cee3" stroke="#1f78b4" points="532.6,-94.06 536.76,-84.32 527.43,-89.34 532.6,-94.06"/>
</g>
<!-- synph -->
<g id="node5" class="node">
<title>synph</title>
<path fill="#1afabc" stroke="black" d="M563.98,-149.41C563.98,-149.41 593.98,-149.41 593.98,-149.41 599.98,-149.41 605.98,-155.41 605.98,-161.41 605.98,-161.41 605.98,-173.41 605.98,-173.41 605.98,-179.41 599.98,-185.41 593.98,-185.41 593.98,-185.41 563.98,-185.41 563.98,-185.41 557.98,-185.41 551.98,-179.41 551.98,-173.41 551.98,-173.41 551.98,-161.41 551.98,-161.41 551.98,-155.41 557.98,-149.41 563.98,-149.41"/>
<text text-anchor="middle" x="578.98" y="-163.71" font-family="Arial" font-size="14.00">synph</text>
</g>
<!-- ph&#45;&gt;synph -->
<g id="edge4" class="edge">
<title>ph&#45;&gt;synph</title>
<path fill="none" stroke="#1f78b4" d="M475.02,-178.63C494.36,-176.54 520.58,-173.71 541.85,-171.42"/>
<polygon fill="#a6cee3" stroke="#1f78b4" points="542.28,-174.89 551.85,-170.34 541.53,-167.93 542.28,-174.89"/>
</g>
<!-- oper -->
<g id="node6" class="node">
<title>oper</title>
<path fill="#1afabc" stroke="black" d="M474.83,-52.58C474.83,-52.58 504.83,-52.58 504.83,-52.58 510.83,-52.58 516.83,-58.58 516.83,-64.58 516.83,-64.58 516.83,-76.58 516.83,-76.58 516.83,-82.58 510.83,-88.58 504.83,-88.58 504.83,-88.58 474.83,-88.58 474.83,-88.58 468.83,-88.58 462.83,-82.58 462.83,-76.58 462.83,-76.58 462.83,-64.58 462.83,-64.58 462.83,-58.58 468.83,-52.58 474.83,-52.58"/>
<text text-anchor="middle" x="489.83" y="-66.88" font-family="Arial" font-size="14.00">oper</text>
</g>
<!-- ph&#45;&gt;oper -->
<g id="edge5" class="edge">
<title>ph&#45;&gt;oper</title>
<path fill="none" stroke="#1f78b4" d="M454.78,-163.23C461.46,-145.56 471.67,-118.59 479.34,-98.29"/>
<polygon fill="#a6cee3" stroke="#1f78b4" points="482.62,-99.53 482.88,-88.94 476.07,-97.05 482.62,-99.53"/>
</g>
<!-- delim -->
<g id="node7" class="node">
<title>delim</title>
<path fill="#1afabc" stroke="black" d="M403.06,-6.79C403.06,-6.79 433.06,-6.79 433.06,-6.79 439.06,-6.79 445.06,-12.79 445.06,-18.79 445.06,-18.79 445.06,-30.79 445.06,-30.79 445.06,-36.79 439.06,-42.79 433.06,-42.79 433.06,-42.79 403.06,-42.79 403.06,-42.79 397.06,-42.79 391.06,-36.79 391.06,-30.79 391.06,-30.79 391.06,-18.79 391.06,-18.79 391.06,-12.79 397.06,-6.79 403.06,-6.79"/>
<text text-anchor="middle" x="418.06" y="-21.09" font-family="Arial" font-size="14.00">delim</text>
</g>
<!-- ph&#45;&gt;delim -->
<g id="edge6" class="edge">
<title>ph&#45;&gt;delim</title>
<path fill="none" stroke="#1f78b4" d="M444.37,-163.27C439.21,-136.13 429.49,-84.97 423.42,-53"/>
<polygon fill="#a6cee3" stroke="#1f78b4" points="426.82,-52.13 421.51,-42.96 419.94,-53.44 426.82,-52.13"/>
</g>
<!-- sep -->
<g id="node8" class="node">
<title>sep</title>
<path fill="#1afabc" stroke="black" d="M556.27,-93.71C556.27,-93.71 586.27,-93.71 586.27,-93.71 592.27,-93.71 598.27,-99.71 598.27,-105.71 598.27,-105.71 598.27,-117.71 598.27,-117.71 598.27,-123.71 592.27,-129.71 586.27,-129.71 586.27,-129.71 556.27,-129.71 556.27,-129.71 550.27,-129.71 544.27,-123.71 544.27,-117.71 544.27,-117.71 544.27,-105.71 544.27,-105.71 544.27,-99.71 550.27,-93.71 556.27,-93.71"/>
<text text-anchor="middle" x="571.27" y="-108.01" font-family="Arial" font-size="14.00">sep</text>
</g>
<!-- ph&#45;&gt;sep -->
<g id="edge7" class="edge">
<title>ph&#45;&gt;sep</title>
<path fill="none" stroke="#1f78b4" d="M474.93,-166.23C492.7,-156.17 516.12,-142.92 535.43,-131.99"/>
<polygon fill="#a6cee3" stroke="#1f78b4" points="537.27,-134.97 544.25,-127 533.82,-128.88 537.27,-134.97"/>
</g>
<!-- repsep -->
<g id="node9" class="node">
<title>repsep</title>
<path fill="#1afabc" stroke="black" d="M465.82,-0.97C465.82,-0.97 499.82,-0.97 499.82,-0.97 505.82,-0.97 511.82,-6.97 511.82,-12.97 511.82,-12.97 511.82,-24.97 511.82,-24.97 511.82,-30.97 505.82,-36.97 499.82,-36.97 499.82,-36.97 465.82,-36.97 465.82,-36.97 459.82,-36.97 453.82,-30.97 453.82,-24.97 453.82,-24.97 453.82,-12.97 453.82,-12.97 453.82,-6.97 459.82,-0.97 465.82,-0.97"/>
<text text-anchor="middle" x="482.82" y="-15.27" font-family="Arial" font-size="14.00">repsep</text>
</g>
<!-- ph&#45;&gt;repsep -->
<g id="edge8" class="edge">
<title>ph&#45;&gt;repsep</title>
<path fill="none" stroke="#1f78b4" d="M451.72,-163.54C457.79,-135.34 469.57,-80.55 476.76,-47.11"/>
<polygon fill="#a6cee3" stroke="#1f78b4" points="480.24,-47.58 478.92,-37.07 473.4,-46.11 480.24,-47.58"/>
</g>
<!-- codeblock -->
<g id="node11" class="node">
<title>codeblock</title>
<path fill="#1afabc" stroke="black" d="M607.58,-281.07C607.58,-281.07 660.58,-281.07 660.58,-281.07 666.58,-281.07 672.58,-287.07 672.58,-293.07 672.58,-293.07 672.58,-305.07 672.58,-305.07 672.58,-311.07 666.58,-317.07 660.58,-317.07 660.58,-317.07 607.58,-317.07 607.58,-317.07 601.58,-317.07 595.58,-311.07 595.58,-305.07 595.58,-305.07 595.58,-293.07 595.58,-293.07 595.58,-287.07 601.58,-281.07 607.58,-281.07"/>
<text text-anchor="middle" x="634.08" y="-295.37" font-family="Arial" font-size="14.00">codeblock</text>
</g>
<!-- pre&#45;&gt;codeblock -->
<g id="edge10" class="edge">
<title>pre&#45;&gt;codeblock</title>
<path fill="none" stroke="#1f78b4" d="M518.44,-334.7C537.41,-328.86 563.23,-320.9 585.67,-313.99"/>
<polygon fill="#a6cee3" stroke="#1f78b4" points="586.85,-317.29 595.38,-311 584.79,-310.6 586.85,-317.29"/>
</g>
<!-- coderef -->
<g id="node13" class="node">
<title>coderef</title>
<path fill="#1afabc" stroke="black" d="M302.42,-695.02C302.42,-695.02 340.42,-695.02 340.42,-695.02 346.42,-695.02 352.42,-701.02 352.42,-707.02 352.42,-707.02 352.42,-719.02 352.42,-719.02 352.42,-725.02 346.42,-731.02 340.42,-731.02 340.42,-731.02 302.42,-731.02 302.42,-731.02 296.42,-731.02 290.42,-725.02 290.42,-719.02 290.42,-719.02 290.42,-707.02 290.42,-707.02 290.42,-701.02 296.42,-695.02 302.42,-695.02"/>
<text text-anchor="middle" x="321.42" y="-709.32" font-family="Arial" font-size="14.00">coderef</text>
</g>
<!-- xref&#45;&gt;coderef -->
<g id="edge12" class="edge">
<title>xref&#45;&gt;coderef</title>
<path fill="none" stroke="#1f78b4" d="M300.09,-599.42C304.23,-621.45 311.27,-658.98 316.13,-684.84"/>
<polygon fill="#a6cee3" stroke="#1f78b4" points="312.71,-685.61 318,-694.79 319.59,-684.32 312.71,-685.61"/>
</g>
<!-- fragref -->
<g id="node14" class="node">
<title>fragref</title>
<path fill="#1afabc" stroke="black" d="M237.96,-710.35C237.96,-710.35 269.96,-710.35 269.96,-710.35 275.96,-710.35 281.96,-716.35 281.96,-722.35 281.96,-722.35 281.96,-734.35 281.96,-734.35 281.96,-740.35 275.96,-746.35 269.96,-746.35 269.96,-746.35 237.96,-746.35 237.96,-746.35 231.96,-746.35 225.96,-740.35 225.96,-734.35 225.96,-734.35 225.96,-722.35 225.96,-722.35 225.96,-716.35 231.96,-710.35 237.96,-710.35"/>
<text text-anchor="middle" x="253.96" y="-724.65" font-family="Arial" font-size="14.00">fragref</text>
</g>
<!-- xref&#45;&gt;fragref -->
<g id="edge13" class="edge">
<title>xref&#45;&gt;fragref</title>
<path fill="none" stroke="#1f78b4" d="M291.47,-599.42C284.13,-624.65 270.72,-670.73 262.08,-700.43"/>
<polygon fill="#a6cee3" stroke="#1f78b4" points="258.67,-699.61 259.24,-710.19 265.4,-701.56 258.67,-699.61"/>
</g>
<!-- synnoteref -->
<g id="node15" class="node">
<title>synnoteref</title>
<path fill="#1afabc" stroke="black" d="M148.92,-660.46C148.92,-660.46 204.92,-660.46 204.92,-660.46 210.92,-660.46 216.92,-666.46 216.92,-672.46 216.92,-672.46 216.92,-684.46 216.92,-684.46 216.92,-690.46 210.92,-696.46 204.92,-696.46 204.92,-696.46 148.92,-696.46 148.92,-696.46 142.92,-696.46 136.92,-690.46 136.92,-684.46 136.92,-684.46 136.92,-672.46 136.92,-672.46 136.92,-666.46 142.92,-660.46 148.92,-660.46"/>
<text text-anchor="middle" x="176.92" y="-674.76" font-family="Arial" font-size="14.00">synnoteref</text>
</g>
<!-- xref&#45;&gt;synnoteref -->
<g id="edge14" class="edge">
<title>xref&#45;&gt;synnoteref</title>
<path fill="none" stroke="#1f78b4" d="M274.46,-599.43C255.59,-614.72 228.32,-636.81 207.42,-653.75"/>
<polygon fill="#a6cee3" stroke="#1f78b4" points="205.03,-651.18 199.46,-660.2 209.43,-656.62 205.03,-651.18"/>
</g>
<!-- option -->
<g id="node17" class="node">
<title>option</title>
<path fill="#1afabc" stroke="black" d="M83.08,-181.54C83.08,-181.54 113.08,-181.54 113.08,-181.54 119.08,-181.54 125.08,-187.54 125.08,-193.54 125.08,-193.54 125.08,-205.54 125.08,-205.54 125.08,-211.54 119.08,-217.54 113.08,-217.54 113.08,-217.54 83.08,-217.54 83.08,-217.54 77.08,-217.54 71.08,-211.54 71.08,-205.54 71.08,-205.54 71.08,-193.54 71.08,-193.54 71.08,-187.54 77.08,-181.54 83.08,-181.54"/>
<text text-anchor="middle" x="98.08" y="-195.84" font-family="Arial" font-size="14.00">option</text>
</g>
<!-- keyword&#45;&gt;option -->
<g id="edge16" class="edge">
<title>keyword&#45;&gt;option</title>
<path fill="none" stroke="#1f78b4" d="M168.4,-294.29C154.66,-275.78 133.19,-246.85 117.58,-225.83"/>
<polygon fill="#a6cee3" stroke="#1f78b4" points="120.27,-223.58 111.5,-217.64 114.65,-227.75 120.27,-223.58"/>
</g>
<!-- parmname -->
<g id="node18" class="node">
<title>parmname</title>
<path fill="#1afabc" stroke="black" d="M237.92,-282.52C237.92,-282.52 296.92,-282.52 296.92,-282.52 302.92,-282.52 308.92,-288.52 308.92,-294.52 308.92,-294.52 308.92,-306.52 308.92,-306.52 308.92,-312.52 302.92,-318.52 296.92,-318.52 296.92,-318.52 237.92,-318.52 237.92,-318.52 231.92,-318.52 225.92,-312.52 225.92,-306.52 225.92,-306.52 225.92,-294.52 225.92,-294.52 225.92,-288.52 231.92,-282.52 237.92,-282.52"/>
<text text-anchor="middle" x="267.42" y="-296.82" font-family="Arial" font-size="14.00">parmname</text>
</g>
<!-- keyword&#45;&gt;parmname -->
<g id="edge17" class="edge">
<title>keyword&#45;&gt;parmname</title>
<path fill="none" stroke="#1f78b4" d="M215.68,-307.72C215.78,-307.7 215.89,-307.69 215.99,-307.67"/>
<polygon fill="#a6cee3" stroke="#1f78b4" points="216.49,-311.14 225.91,-306.29 215.52,-304.21 216.49,-311.14"/>
</g>
<!-- apiname -->
<g id="node19" class="node">
<title>apiname</title>
<path fill="#1afabc" stroke="black" d="M11.61,-281.38C11.61,-281.38 56.61,-281.38 56.61,-281.38 62.61,-281.38 68.61,-287.38 68.61,-293.38 68.61,-293.38 68.61,-305.38 68.61,-305.38 68.61,-311.38 62.61,-317.38 56.61,-317.38 56.61,-317.38 11.61,-317.38 11.61,-317.38 5.61,-317.38 -0.39,-311.38 -0.39,-305.38 -0.39,-305.38 -0.39,-293.38 -0.39,-293.38 -0.39,-287.38 5.61,-281.38 11.61,-281.38"/>
<text text-anchor="middle" x="34.11" y="-295.68" font-family="Arial" font-size="14.00">apiname</text>
</g>
<!-- keyword&#45;&gt;apiname -->
<g id="edge18" class="edge">
<title>keyword&#45;&gt;apiname</title>
<path fill="none" stroke="#1f78b4" d="M148.34,-309.47C127.83,-307.66 101.34,-305.32 79.03,-303.35"/>
<polygon fill="#a6cee3" stroke="#1f78b4" points="79.06,-299.84 68.79,-302.45 78.44,-306.81 79.06,-299.84"/>
</g>
<!-- kwd -->
<g id="node20" class="node">
<title>kwd</title>
<path fill="#1afabc" stroke="black" d="M43.82,-227.59C43.82,-227.59 73.82,-227.59 73.82,-227.59 79.82,-227.59 85.82,-233.59 85.82,-239.59 85.82,-239.59 85.82,-251.59 85.82,-251.59 85.82,-257.59 79.82,-263.59 73.82,-263.59 73.82,-263.59 43.82,-263.59 43.82,-263.59 37.82,-263.59 31.82,-257.59 31.82,-251.59 31.82,-251.59 31.82,-239.59 31.82,-239.59 31.82,-233.59 37.82,-227.59 43.82,-227.59"/>
<text text-anchor="middle" x="58.82" y="-241.89" font-family="Arial" font-size="14.00">kwd</text>
</g>
<!-- keyword&#45;&gt;kwd -->
<g id="edge19" class="edge">
<title>keyword&#45;&gt;kwd</title>
<path fill="none" stroke="#1f78b4" d="M148.56,-294.34C131.99,-285.34 111.93,-274.44 94.98,-265.23"/>
<polygon fill="#a6cee3" stroke="#1f78b4" points="96.38,-262.01 85.92,-260.31 93.04,-268.16 96.38,-262.01"/>
</g>
<!-- parml -->
<g id="node22" class="node">
<title>parml</title>
<path fill="#1afabc" stroke="black" d="M66.14,-387.86C66.14,-387.86 96.14,-387.86 96.14,-387.86 102.14,-387.86 108.14,-393.86 108.14,-399.86 108.14,-399.86 108.14,-411.86 108.14,-411.86 108.14,-417.86 102.14,-423.86 96.14,-423.86 96.14,-423.86 66.14,-423.86 66.14,-423.86 60.14,-423.86 54.14,-417.86 54.14,-411.86 54.14,-411.86 54.14,-399.86 54.14,-399.86 54.14,-393.86 60.14,-387.86 66.14,-387.86"/>
<text text-anchor="middle" x="81.14" y="-402.16" font-family="Arial" font-size="14.00">parml</text>
</g>
<!-- dl&#45;&gt;parml -->
<g id="edge21" class="edge">
<title>dl&#45;&gt;parml</title>
<path fill="none" stroke="#1f78b4" d="M184.46,-397.5C165.45,-399.04 139.76,-401.12 118.75,-402.82"/>
<polygon fill="#a6cee3" stroke="#1f78b4" points="118.24,-399.35 108.55,-403.64 118.8,-406.33 118.24,-399.35"/>
</g>
<!-- plentry -->
<g id="node24" class="node">
<title>plentry</title>
<path fill="#1afabc" stroke="black" d="M408.89,-650.29C408.89,-650.29 441.89,-650.29 441.89,-650.29 447.89,-650.29 453.89,-656.29 453.89,-662.29 453.89,-662.29 453.89,-674.29 453.89,-674.29 453.89,-680.29 447.89,-686.29 441.89,-686.29 441.89,-686.29 408.89,-686.29 408.89,-686.29 402.89,-686.29 396.89,-680.29 396.89,-674.29 396.89,-674.29 396.89,-662.29 396.89,-662.29 396.89,-656.29 402.89,-650.29 408.89,-650.29"/>
<text text-anchor="middle" x="425.39" y="-664.59" font-family="Arial" font-size="14.00">plentry</text>
</g>
<!-- dlentry&#45;&gt;plentry -->
<g id="edge23" class="edge">
<title>dlentry&#45;&gt;plentry</title>
<path fill="none" stroke="#1f78b4" d="M403.9,-558.25C408.05,-579.49 414.99,-615 419.85,-639.92"/>
<polygon fill="#a6cee3" stroke="#1f78b4" points="416.45,-640.74 421.8,-649.88 423.32,-639.4 416.45,-640.74"/>
</g>
<!-- pt -->
<g id="node26" class="node">
<title>pt</title>
<path fill="#1afabc" stroke="black" d="M252.44,-120.83C252.44,-120.83 282.44,-120.83 282.44,-120.83 288.44,-120.83 294.44,-126.83 294.44,-132.83 294.44,-132.83 294.44,-144.83 294.44,-144.83 294.44,-150.83 288.44,-156.83 282.44,-156.83 282.44,-156.83 252.44,-156.83 252.44,-156.83 246.44,-156.83 240.44,-150.83 240.44,-144.83 240.44,-144.83 240.44,-132.83 240.44,-132.83 240.44,-126.83 246.44,-120.83 252.44,-120.83"/>
<text text-anchor="middle" x="267.44" y="-135.13" font-family="Arial" font-size="14.00">pt</text>
</g>
<!-- dt&#45;&gt;pt -->
<g id="edge25" class="edge">
<title>dt&#45;&gt;pt</title>
<path fill="none" stroke="#1f78b4" d="M329.45,-231.66C317.39,-213.61 298.86,-185.86 285.19,-165.4"/>
<polygon fill="#a6cee3" stroke="#1f78b4" points="287.94,-163.22 279.48,-156.85 282.12,-167.11 287.94,-163.22"/>
</g>
<!-- pd -->
<g id="node28" class="node">
<title>pd</title>
<path fill="#1afabc" stroke="black" d="M86.4,-486.47C86.4,-486.47 116.4,-486.47 116.4,-486.47 122.4,-486.47 128.4,-492.47 128.4,-498.47 128.4,-498.47 128.4,-510.47 128.4,-510.47 128.4,-516.47 122.4,-522.47 116.4,-522.47 116.4,-522.47 86.4,-522.47 86.4,-522.47 80.4,-522.47 74.4,-516.47 74.4,-510.47 74.4,-510.47 74.4,-498.47 74.4,-498.47 74.4,-492.47 80.4,-486.47 86.4,-486.47"/>
<text text-anchor="middle" x="101.4" y="-500.77" font-family="Arial" font-size="14.00">pd</text>
</g>
<!-- dd&#45;&gt;pd -->
<g id="edge27" class="edge">
<title>dd&#45;&gt;pd</title>
<path fill="none" stroke="#1f78b4" d="M196.82,-466.3C179.52,-473.23 156.89,-482.27 138.02,-489.82"/>
<polygon fill="#a6cee3" stroke="#1f78b4" points="136.52,-486.65 128.54,-493.62 139.12,-493.15 136.52,-486.65"/>
</g>
<!-- syntaxdiagram -->
<g id="node30" class="node">
<title>syntaxdiagram</title>
<path fill="#1afabc" stroke="black" d="M629.52,-383.11C629.52,-383.11 710.52,-383.11 710.52,-383.11 716.52,-383.11 722.52,-389.11 722.52,-395.11 722.52,-395.11 722.52,-407.11 722.52,-407.11 722.52,-413.11 716.52,-419.11 710.52,-419.11 710.52,-419.11 629.52,-419.11 629.52,-419.11 623.52,-419.11 617.52,-413.11 617.52,-407.11 617.52,-407.11 617.52,-395.11 617.52,-395.11 617.52,-389.11 623.52,-383.11 629.52,-383.11"/>
<text text-anchor="middle" x="670.02" y="-397.41" font-family="Arial" font-size="14.00">syntaxdiagram</text>
</g>
<!-- fig&#45;&gt;syntaxdiagram -->
<g id="edge29" class="edge">
<title>fig&#45;&gt;syntaxdiagram</title>
<path fill="none" stroke="#1f78b4" d="M531.7,-406.81C552.23,-405.96 581.17,-404.77 607.27,-403.7"/>
<polygon fill="#a6cee3" stroke="#1f78b4" points="607.65,-407.19 617.5,-403.28 607.36,-400.19 607.65,-407.19"/>
</g>
<!-- synblk -->
<g id="node32" class="node">
<title>synblk</title>
<path fill="#1afabc" stroke="black" d="M559.48,-648.5C559.48,-648.5 590.48,-648.5 590.48,-648.5 596.48,-648.5 602.48,-654.5 602.48,-660.5 602.48,-660.5 602.48,-672.5 602.48,-672.5 602.48,-678.5 596.48,-684.5 590.48,-684.5 590.48,-684.5 559.48,-684.5 559.48,-684.5 553.48,-684.5 547.48,-678.5 547.48,-672.5 547.48,-672.5 547.48,-660.5 547.48,-660.5 547.48,-654.5 553.48,-648.5 559.48,-648.5"/>
<text text-anchor="middle" x="574.98" y="-662.8" font-family="Arial" font-size="14.00">synblk</text>
</g>
<!-- figgroup&#45;&gt;synblk -->
<g id="edge31" class="edge">
<title>figgroup&#45;&gt;synblk</title>
<path fill="none" stroke="#1f78b4" d="M541.58,-547.86C548.12,-571.06 559.48,-611.45 567.12,-638.57"/>
<polygon fill="#a6cee3" stroke="#1f78b4" points="563.77,-639.58 569.85,-648.26 570.51,-637.68 563.77,-639.58"/>
</g>
<!-- groupseq -->
<g id="node33" class="node">
<title>groupseq</title>
<path fill="#1afabc" stroke="black" d="M634.04,-621.37C634.04,-621.37 683.04,-621.37 683.04,-621.37 689.04,-621.37 695.04,-627.37 695.04,-633.37 695.04,-633.37 695.04,-645.37 695.04,-645.37 695.04,-651.37 689.04,-657.37 683.04,-657.37 683.04,-657.37 634.04,-657.37 634.04,-657.37 628.04,-657.37 622.04,-651.37 622.04,-645.37 622.04,-645.37 622.04,-633.37 622.04,-633.37 622.04,-627.37 628.04,-621.37 634.04,-621.37"/>
<text text-anchor="middle" x="658.54" y="-635.67" font-family="Arial" font-size="14.00">groupseq</text>
</g>
<!-- figgroup&#45;&gt;groupseq -->
<g id="edge32" class="edge">
<title>figgroup&#45;&gt;groupseq</title>
<path fill="none" stroke="#1f78b4" d="M556.63,-547.8C576.86,-565.98 608.18,-594.13 630.76,-614.42"/>
<polygon fill="#a6cee3" stroke="#1f78b4" points="628.58,-617.16 638.35,-621.24 633.25,-611.95 628.58,-617.16"/>
</g>
<!-- groupchoice -->
<g id="node34" class="node">
<title>groupchoice</title>
<path fill="#1afabc" stroke="black" d="M651.3,-570.91C651.3,-570.91 717.3,-570.91 717.3,-570.91 723.3,-570.91 729.3,-576.91 729.3,-582.91 729.3,-582.91 729.3,-594.91 729.3,-594.91 729.3,-600.91 723.3,-606.91 717.3,-606.91 717.3,-606.91 651.3,-606.91 651.3,-606.91 645.3,-606.91 639.3,-600.91 639.3,-594.91 639.3,-594.91 639.3,-582.91 639.3,-582.91 639.3,-576.91 645.3,-570.91 651.3,-570.91"/>
<text text-anchor="middle" x="684.3" y="-585.21" font-family="Arial" font-size="14.00">groupchoice</text>
</g>
<!-- figgroup&#45;&gt;groupchoice -->
<g id="edge33" class="edge">
<title>figgroup&#45;&gt;groupchoice</title>
<path fill="none" stroke="#1f78b4" d="M569.28,-542.83C587.05,-549.95 609.47,-558.93 629.78,-567.07"/>
<polygon fill="#a6cee3" stroke="#1f78b4" points="628.67,-570.39 639.25,-570.86 631.27,-563.9 628.67,-570.39"/>
</g>
<!-- groupcomp -->
<g id="node35" class="node">
<title>groupcomp</title>
<path fill="#1afabc" stroke="black" d="M659.65,-512.66C659.65,-512.66 720.65,-512.66 720.65,-512.66 726.65,-512.66 732.65,-518.66 732.65,-524.66 732.65,-524.66 732.65,-536.66 732.65,-536.66 732.65,-542.66 726.65,-548.66 720.65,-548.66 720.65,-548.66 659.65,-548.66 659.65,-548.66 653.65,-548.66 647.65,-542.66 647.65,-536.66 647.65,-536.66 647.65,-524.66 647.65,-524.66 647.65,-518.66 653.65,-512.66 659.65,-512.66"/>
<text text-anchor="middle" x="690.15" y="-526.96" font-family="Arial" font-size="14.00">groupcomp</text>
</g>
<!-- figgroup&#45;&gt;groupcomp -->
<g id="edge34" class="edge">
<title>figgroup&#45;&gt;groupcomp</title>
<path fill="none" stroke="#1f78b4" d="M569.06,-529.89C588.85,-530.02 614.58,-530.18 637.23,-530.32"/>
<polygon fill="#a6cee3" stroke="#1f78b4" points="637.36,-533.82 647.39,-530.39 637.41,-526.82 637.36,-533.82"/>
</g>
<!-- fragment -->
<g id="node36" class="node">
<title>fragment</title>
<path fill="#1afabc" stroke="black" d="M542.94,-602.8C542.94,-602.8 589.94,-602.8 589.94,-602.8 595.94,-602.8 601.94,-608.8 601.94,-614.8 601.94,-614.8 601.94,-626.8 601.94,-626.8 601.94,-632.8 595.94,-638.8 589.94,-638.8 589.94,-638.8 542.94,-638.8 542.94,-638.8 536.94,-638.8 530.94,-632.8 530.94,-626.8 530.94,-626.8 530.94,-614.8 530.94,-614.8 530.94,-608.8 536.94,-602.8 542.94,-602.8"/>
<text text-anchor="middle" x="566.44" y="-617.1" font-family="Arial" font-size="14.00">fragment</text>
</g>
<!-- figgroup&#45;&gt;fragment -->
<g id="edge35" class="edge">
<title>figgroup&#45;&gt;fragment</title>
<path fill="none" stroke="#1f78b4" d="M542.39,-547.69C546.63,-560.58 552.42,-578.2 557.26,-592.9"/>
<polygon fill="#a6cee3" stroke="#1f78b4" points="553.98,-594.12 560.43,-602.53 560.63,-591.93 553.98,-594.12"/>
</g>
<!-- synnote -->
<g id="node38" class="node">
<title>synnote</title>
<path fill="#1afabc" stroke="black" d="M136.95,-569.5C136.95,-569.5 176.95,-569.5 176.95,-569.5 182.95,-569.5 188.95,-575.5 188.95,-581.5 188.95,-581.5 188.95,-593.5 188.95,-593.5 188.95,-599.5 182.95,-605.5 176.95,-605.5 176.95,-605.5 136.95,-605.5 136.95,-605.5 130.95,-605.5 124.95,-599.5 124.95,-593.5 124.95,-593.5 124.95,-581.5 124.95,-581.5 124.95,-575.5 130.95,-569.5 136.95,-569.5"/>
<text text-anchor="middle" x="156.95" y="-583.8" font-family="Arial" font-size="14.00">synnote</text>
</g>
<!-- fn&#45;&gt;synnote -->
<g id="edge37" class="edge">
<title>fn&#45;&gt;synnote</title>
<path fill="none" stroke="#1f78b4" d="M239.94,-521.89C224.66,-533.97 204.43,-549.97 187.76,-563.14"/>
<polygon fill="#a6cee3" stroke="#1f78b4" points="185.58,-560.41 179.9,-569.35 189.92,-565.9 185.58,-560.41"/>
</g>
</g>
</svg>
