<?xml version="1.0" encoding="UTF-8" standalone="no"?>
<!DOCTYPE svg PUBLIC "-//W3C//DTD SVG 1.1//EN"
 "http://www.w3.org/Graphics/SVG/1.1/DTD/svg11.dtd">
<!-- Generated by graphviz version 6.0.1 (20220911.1526)
 -->
<!-- Pages: 1 -->
<svg width="459pt" height="346pt"
 viewBox="0.00 0.00 459.00 346.00" xmlns="http://www.w3.org/2000/svg" xmlns:xlink="http://www.w3.org/1999/xlink">
<g id="graph0" class="graph" transform="scale(1 1) rotate(0) translate(4 342)">
<polygon fill="white" stroke="none" points="-4,4 -4,-342 455,-342 455,4 -4,4"/>
<!-- classify&#45;d -->
<g id="node1" class="node">
<title>classify&#45;d</title>
<path fill="#dddddd" stroke="black" d="M239.97,-135.31C239.97,-135.31 288.97,-135.31 288.97,-135.31 294.97,-135.31 300.97,-141.31 300.97,-147.31 300.97,-147.31 300.97,-159.31 300.97,-159.31 300.97,-165.31 294.97,-171.31 288.97,-171.31 288.97,-171.31 239.97,-171.31 239.97,-171.31 233.97,-171.31 227.97,-165.31 227.97,-159.31 227.97,-159.31 227.97,-147.31 227.97,-147.31 227.97,-141.31 233.97,-135.31 239.97,-135.31"/>
<text text-anchor="middle" x="264.47" y="-149.61" font-family="Arial" font-size="14.00">classify&#45;d</text>
</g>
<!-- topicref -->
<g id="node2" class="node">
<title>topicref</title>
<path fill="#afa7f4" stroke="black" d="M234.97,-184.58C234.97,-184.58 271.97,-184.58 271.97,-184.58 277.97,-184.58 283.97,-190.58 283.97,-196.58 283.97,-196.58 283.97,-208.58 283.97,-208.58 283.97,-214.58 277.97,-220.58 271.97,-220.58 271.97,-220.58 234.97,-220.58 234.97,-220.58 228.97,-220.58 222.97,-214.58 222.97,-208.58 222.97,-208.58 222.97,-196.58 222.97,-196.58 222.97,-190.58 228.97,-184.58 234.97,-184.58"/>
<text text-anchor="middle" x="253.47" y="-198.88" font-family="Arial" font-size="14.00">topicref</text>
</g>
<!-- classify&#45;d&#45;&gt;topicref -->
<g id="edge1" class="edge">
<title>classify&#45;d&#45;&gt;topicref</title>
<path fill="none" stroke="#1f78b4" d="M260.43,-171.38C260.19,-172.45 259.95,-173.54 259.71,-174.64"/>
<polygon fill="#a6cee3" stroke="#1f78b4" points="256.26,-173.99 257.5,-184.52 263.1,-175.52 256.26,-173.99"/>
</g>
<!-- reltable -->
<g id="node6" class="node">
<title>reltable</title>
<path fill="#afa7f4" stroke="black" d="M144.17,-178.96C144.17,-178.96 181.17,-178.96 181.17,-178.96 187.17,-178.96 193.17,-184.96 193.17,-190.96 193.17,-190.96 193.17,-202.96 193.17,-202.96 193.17,-208.96 187.17,-214.96 181.17,-214.96 181.17,-214.96 144.17,-214.96 144.17,-214.96 138.17,-214.96 132.17,-208.96 132.17,-202.96 132.17,-202.96 132.17,-190.96 132.17,-190.96 132.17,-184.96 138.17,-178.96 144.17,-178.96"/>
<text text-anchor="middle" x="162.67" y="-193.26" font-family="Arial" font-size="14.00">reltable</text>
</g>
<!-- classify&#45;d&#45;&gt;reltable -->
<g id="edge5" class="edge">
<title>classify&#45;d&#45;&gt;reltable</title>
<path fill="none" stroke="#1f78b4" d="M227.72,-169.07C219.61,-172.55 210.99,-176.25 202.76,-179.77"/>
<polygon fill="#a6cee3" stroke="#1f78b4" points="201.15,-176.66 193.33,-183.82 203.9,-183.09 201.15,-176.66"/>
</g>
<!-- relrow -->
<g id="node8" class="node">
<title>relrow</title>
<path fill="#afa7f4" stroke="black" d="M260.83,-73.68C260.83,-73.68 290.83,-73.68 290.83,-73.68 296.83,-73.68 302.83,-79.68 302.83,-85.68 302.83,-85.68 302.83,-97.68 302.83,-97.68 302.83,-103.68 296.83,-109.68 290.83,-109.68 290.83,-109.68 260.83,-109.68 260.83,-109.68 254.83,-109.68 248.83,-103.68 248.83,-97.68 248.83,-97.68 248.83,-85.68 248.83,-85.68 248.83,-79.68 254.83,-73.68 260.83,-73.68"/>
<text text-anchor="middle" x="275.83" y="-87.98" font-family="Arial" font-size="14.00">relrow</text>
</g>
<!-- classify&#45;d&#45;&gt;relrow -->
<g id="edge7" class="edge">
<title>classify&#45;d&#45;&gt;relrow</title>
<path fill="none" stroke="#1f78b4" d="M267.82,-135.15C268.69,-130.43 269.65,-125.23 270.59,-120.11"/>
<polygon fill="#a6cee3" stroke="#1f78b4" points="274.1,-120.39 272.47,-109.92 267.21,-119.12 274.1,-120.39"/>
</g>
<!-- relcell -->
<g id="node11" class="node">
<title>relcell</title>
<path fill="#afa7f4" stroke="black" d="M308.67,-202.72C308.67,-202.72 338.67,-202.72 338.67,-202.72 344.67,-202.72 350.67,-208.72 350.67,-214.72 350.67,-214.72 350.67,-226.72 350.67,-226.72 350.67,-232.72 344.67,-238.72 338.67,-238.72 338.67,-238.72 308.67,-238.72 308.67,-238.72 302.67,-238.72 296.67,-232.72 296.67,-226.72 296.67,-226.72 296.67,-214.72 296.67,-214.72 296.67,-208.72 302.67,-202.72 308.67,-202.72"/>
<text text-anchor="middle" x="323.67" y="-217.02" font-family="Arial" font-size="14.00">relcell</text>
</g>
<!-- classify&#45;d&#45;&gt;relcell -->
<g id="edge10" class="edge">
<title>classify&#45;d&#45;&gt;relcell</title>
<path fill="none" stroke="#1f78b4" d="M280.33,-171.38C286.7,-178.63 294.17,-187.13 301.08,-195.01"/>
<polygon fill="#a6cee3" stroke="#1f78b4" points="298.53,-197.41 307.76,-202.61 303.79,-192.79 298.53,-197.41"/>
</g>
<!-- topicsubject -->
<g id="node3" class="node">
<title>topicsubject</title>
<path fill="#1afabc" stroke="black" d="M146.75,-85.33C146.75,-85.33 210.75,-85.33 210.75,-85.33 216.75,-85.33 222.75,-91.33 222.75,-97.33 222.75,-97.33 222.75,-109.33 222.75,-109.33 222.75,-115.33 216.75,-121.33 210.75,-121.33 210.75,-121.33 146.75,-121.33 146.75,-121.33 140.75,-121.33 134.75,-115.33 134.75,-109.33 134.75,-109.33 134.75,-97.33 134.75,-97.33 134.75,-91.33 140.75,-85.33 146.75,-85.33"/>
<text text-anchor="middle" x="178.75" y="-99.63" font-family="Arial" font-size="14.00">topicsubject</text>
</g>
<!-- topicref&#45;&gt;topicsubject -->
<g id="edge2" class="edge">
<title>topicref&#45;&gt;topicsubject</title>
<path fill="none" stroke="#1f78b4" d="M239.76,-184.38C228.18,-168.99 211.43,-146.75 198.42,-129.46"/>
<polygon fill="#a6cee3" stroke="#1f78b4" points="201.18,-127.3 192.36,-121.42 195.58,-131.51 201.18,-127.3"/>
</g>
<!-- topicapply -->
<g id="node4" class="node">
<title>topicapply</title>
<path fill="#1afabc" stroke="black" d="M323.01,-251.53C323.01,-251.53 376.01,-251.53 376.01,-251.53 382.01,-251.53 388.01,-257.53 388.01,-263.53 388.01,-263.53 388.01,-275.53 388.01,-275.53 388.01,-281.53 382.01,-287.53 376.01,-287.53 376.01,-287.53 323.01,-287.53 323.01,-287.53 317.01,-287.53 311.01,-281.53 311.01,-275.53 311.01,-275.53 311.01,-263.53 311.01,-263.53 311.01,-257.53 317.01,-251.53 323.01,-251.53"/>
<text text-anchor="middle" x="349.51" y="-265.83" font-family="Arial" font-size="14.00">topicapply</text>
</g>
<!-- topicref&#45;&gt;topicapply -->
<g id="edge3" class="edge">
<title>topicref&#45;&gt;topicapply</title>
<path fill="none" stroke="#1f78b4" d="M279.46,-220.7C290.46,-228.36 303.42,-237.4 315.19,-245.6"/>
<polygon fill="#a6cee3" stroke="#1f78b4" points="313.3,-248.55 323.5,-251.4 317.3,-242.81 313.3,-248.55"/>
</g>
<!-- subjectref -->
<g id="node5" class="node">
<title>subjectref</title>
<path fill="#1afabc" stroke="black" d="M221.07,-301.73C221.07,-301.73 272.07,-301.73 272.07,-301.73 278.07,-301.73 284.07,-307.73 284.07,-313.73 284.07,-313.73 284.07,-325.73 284.07,-325.73 284.07,-331.73 278.07,-337.73 272.07,-337.73 272.07,-337.73 221.07,-337.73 221.07,-337.73 215.07,-337.73 209.07,-331.73 209.07,-325.73 209.07,-325.73 209.07,-313.73 209.07,-313.73 209.07,-307.73 215.07,-301.73 221.07,-301.73"/>
<text text-anchor="middle" x="246.57" y="-316.03" font-family="Arial" font-size="14.00">subjectref</text>
</g>
<!-- topicref&#45;&gt;subjectref -->
<g id="edge4" class="edge">
<title>topicref&#45;&gt;subjectref</title>
<path fill="none" stroke="#1f78b4" d="M252.4,-220.63C251.29,-239.49 249.53,-269.36 248.24,-291.37"/>
<polygon fill="#a6cee3" stroke="#1f78b4" points="244.74,-291.28 247.64,-301.47 251.72,-291.69 244.74,-291.28"/>
</g>
<!-- topicSubjectTable -->
<g id="node7" class="node">
<title>topicSubjectTable</title>
<path fill="#1afabc" stroke="black" d="M12.37,-128.5C12.37,-128.5 110.37,-128.5 110.37,-128.5 116.37,-128.5 122.37,-134.5 122.37,-140.5 122.37,-140.5 122.37,-152.5 122.37,-152.5 122.37,-158.5 116.37,-164.5 110.37,-164.5 110.37,-164.5 12.37,-164.5 12.37,-164.5 6.37,-164.5 0.37,-158.5 0.37,-152.5 0.37,-152.5 0.37,-140.5 0.37,-140.5 0.37,-134.5 6.37,-128.5 12.37,-128.5"/>
<text text-anchor="middle" x="61.37" y="-142.8" font-family="Arial" font-size="14.00">topicSubjectTable</text>
</g>
<!-- reltable&#45;&gt;topicSubjectTable -->
<g id="edge6" class="edge">
<title>reltable&#45;&gt;topicSubjectTable</title>
<path fill="none" stroke="#1f78b4" d="M132,-181.69C124.05,-177.72 115.31,-173.37 106.77,-169.12"/>
<polygon fill="#a6cee3" stroke="#1f78b4" points="108.15,-165.89 97.63,-164.57 105.03,-172.16 108.15,-165.89"/>
</g>
<!-- topicSubjectHeader -->
<g id="node9" class="node">
<title>topicSubjectHeader</title>
<path fill="#1afabc" stroke="black" d="M179.12,-21.74C179.12,-21.74 289.12,-21.74 289.12,-21.74 295.12,-21.74 301.12,-27.74 301.12,-33.74 301.12,-33.74 301.12,-45.74 301.12,-45.74 301.12,-51.74 295.12,-57.74 289.12,-57.74 289.12,-57.74 179.12,-57.74 179.12,-57.74 173.12,-57.74 167.12,-51.74 167.12,-45.74 167.12,-45.74 167.12,-33.74 167.12,-33.74 167.12,-27.74 173.12,-21.74 179.12,-21.74"/>
<text text-anchor="middle" x="234.12" y="-36.04" font-family="Arial" font-size="14.00">topicSubjectHeader</text>
</g>
<!-- relrow&#45;&gt;topicSubjectHeader -->
<g id="edge8" class="edge">
<title>relrow&#45;&gt;topicSubjectHeader</title>
<path fill="none" stroke="#1f78b4" d="M261.24,-73.51C259.35,-71.15 257.38,-68.7 255.41,-66.24"/>
<polygon fill="#a6cee3" stroke="#1f78b4" points="257.76,-63.59 248.77,-57.98 252.31,-67.97 257.76,-63.59"/>
</g>
<!-- topicSubjectRow -->
<g id="node10" class="node">
<title>topicSubjectRow</title>
<path fill="#1afabc" stroke="black" d="M330.57,-0.56C330.57,-0.56 423.57,-0.56 423.57,-0.56 429.57,-0.56 435.57,-6.56 435.57,-12.56 435.57,-12.56 435.57,-24.56 435.57,-24.56 435.57,-30.56 429.57,-36.56 423.57,-36.56 423.57,-36.56 330.57,-36.56 330.57,-36.56 324.57,-36.56 318.57,-30.56 318.57,-24.56 318.57,-24.56 318.57,-12.56 318.57,-12.56 318.57,-6.56 324.57,-0.56 330.57,-0.56"/>
<text text-anchor="middle" x="377.07" y="-14.86" font-family="Arial" font-size="14.00">topicSubjectRow</text>
</g>
<!-- relrow&#45;&gt;topicSubjectRow -->
<g id="edge9" class="edge">
<title>relrow&#45;&gt;topicSubjectRow</title>
<path fill="none" stroke="#1f78b4" d="M300.86,-73.6C313.75,-64.29 329.66,-52.8 343.6,-42.73"/>
<polygon fill="#a6cee3" stroke="#1f78b4" points="345.92,-45.37 351.98,-36.68 341.82,-39.7 345.92,-45.37"/>
</g>
<!-- topicCell -->
<g id="node12" class="node">
<title>topicCell</title>
<path fill="#1afabc" stroke="black" d="M205.22,-247.52C205.22,-247.52 249.22,-247.52 249.22,-247.52 255.22,-247.52 261.22,-253.52 261.22,-259.52 261.22,-259.52 261.22,-271.52 261.22,-271.52 261.22,-277.52 255.22,-283.52 249.22,-283.52 249.22,-283.52 205.22,-283.52 205.22,-283.52 199.22,-283.52 193.22,-277.52 193.22,-271.52 193.22,-271.52 193.22,-259.52 193.22,-259.52 193.22,-253.52 199.22,-247.52 205.22,-247.52"/>
<text text-anchor="middle" x="227.22" y="-261.82" font-family="Arial" font-size="14.00">topicCell</text>
</g>
<!-- relcell&#45;&gt;topicCell -->
<g id="edge11" class="edge">
<title>relcell&#45;&gt;topicCell</title>
<path fill="none" stroke="#1f78b4" d="M296.55,-233.32C288.44,-237.09 279.35,-241.31 270.48,-245.43"/>
<polygon fill="#a6cee3" stroke="#1f78b4" points="268.96,-242.28 261.37,-249.66 271.91,-248.62 268.96,-242.28"/>
</g>
<!-- subjectCell -->
<g id="node13" class="node">
<title>subjectCell</title>
<path fill="#1afabc" stroke="black" d="M379.76,-133.3C379.76,-133.3 438.76,-133.3 438.76,-133.3 444.76,-133.3 450.76,-139.3 450.76,-145.3 450.76,-145.3 450.76,-157.3 450.76,-157.3 450.76,-163.3 444.76,-169.3 438.76,-169.3 438.76,-169.3 379.76,-169.3 379.76,-169.3 373.76,-169.3 367.76,-163.3 367.76,-157.3 367.76,-157.3 367.76,-145.3 367.76,-145.3 367.76,-139.3 373.76,-133.3 379.76,-133.3"/>
<text text-anchor="middle" x="409.26" y="-147.6" font-family="Arial" font-size="14.00">subjectCell</text>
</g>
<!-- relcell&#45;&gt;subjectCell -->
<g id="edge12" class="edge">
<title>relcell&#45;&gt;subjectCell</title>
<path fill="none" stroke="#1f78b4" d="M346.16,-202.48C356.19,-194.35 368.15,-184.65 378.95,-175.89"/>
<polygon fill="#a6cee3" stroke="#1f78b4" points="381.36,-178.44 386.93,-169.42 376.95,-173 381.36,-178.44"/>
</g>
</g>
</svg>
