<?xml version="1.0" encoding="UTF-8" standalone="no"?>
<!DOCTYPE svg PUBLIC "-//W3C//DTD SVG 1.1//EN"
 "http://www.w3.org/Graphics/SVG/1.1/DTD/svg11.dtd">
<!-- Generated by graphviz version 6.0.1 (20220911.1526)
 -->
<!-- Pages: 1 -->
<svg width="1168pt" height="1378pt"
 viewBox="0.00 0.00 1168.00 1378.00" xmlns="http://www.w3.org/2000/svg" xmlns:xlink="http://www.w3.org/1999/xlink">
<g id="graph0" class="graph" transform="scale(1 1) rotate(0) translate(4 1374)">
<polygon fill="white" stroke="none" points="-4,4 -4,-1374 1164,-1374 1164,4 -4,4"/>
<!-- learning&#45;d -->
<g id="node1" class="node">
<title>learning&#45;d</title>
<path fill="#dddddd" stroke="black" d="M530.97,-706.76C530.97,-706.76 583.97,-706.76 583.97,-706.76 589.97,-706.76 595.97,-712.76 595.97,-718.76 595.97,-718.76 595.97,-730.76 595.97,-730.76 595.97,-736.76 589.97,-742.76 583.97,-742.76 583.97,-742.76 530.97,-742.76 530.97,-742.76 524.97,-742.76 518.97,-736.76 518.97,-730.76 518.97,-730.76 518.97,-718.76 518.97,-718.76 518.97,-712.76 524.97,-706.76 530.97,-706.76"/>
<text text-anchor="middle" x="557.47" y="-721.06" font-family="Arial" font-size="14.00">learning&#45;d</text>
</g>
<!-- note -->
<g id="node2" class="node">
<title>note</title>
<path fill="#afa7f4" stroke="black" d="M382.16,-554.95C382.16,-554.95 412.16,-554.95 412.16,-554.95 418.16,-554.95 424.16,-560.95 424.16,-566.95 424.16,-566.95 424.16,-578.95 424.16,-578.95 424.16,-584.95 418.16,-590.95 412.16,-590.95 412.16,-590.95 382.16,-590.95 382.16,-590.95 376.16,-590.95 370.16,-584.95 370.16,-578.95 370.16,-578.95 370.16,-566.95 370.16,-566.95 370.16,-560.95 376.16,-554.95 382.16,-554.95"/>
<text text-anchor="middle" x="397.16" y="-569.25" font-family="Arial" font-size="14.00">note</text>
</g>
<!-- learning&#45;d&#45;&gt;note -->
<g id="edge1" class="edge">
<title>learning&#45;d&#45;&gt;note</title>
<path fill="none" stroke="#1f78b4" d="M538.45,-706.75C510.04,-679.85 456.41,-629.06 424.01,-598.38"/>
<polygon fill="#a6cee3" stroke="#1f78b4" points="426.32,-595.75 416.66,-591.41 421.51,-600.83 426.32,-595.75"/>
</g>
<!-- lcInteractionBase -->
<g id="node4" class="node">
<title>lcInteractionBase</title>
<path fill="#afa7f4" stroke="black" d="M483.08,-258.82C483.08,-258.82 579.08,-258.82 579.08,-258.82 585.08,-258.82 591.08,-264.82 591.08,-270.82 591.08,-270.82 591.08,-282.82 591.08,-282.82 591.08,-288.82 585.08,-294.82 579.08,-294.82 579.08,-294.82 483.08,-294.82 483.08,-294.82 477.08,-294.82 471.08,-288.82 471.08,-282.82 471.08,-282.82 471.08,-270.82 471.08,-270.82 471.08,-264.82 477.08,-258.82 483.08,-258.82"/>
<text text-anchor="middle" x="531.08" y="-273.12" font-family="Arial" font-size="14.00">lcInteractionBase</text>
</g>
<!-- learning&#45;d&#45;&gt;lcInteractionBase -->
<g id="edge3" class="edge">
<title>learning&#45;d&#45;&gt;lcInteractionBase</title>
<path fill="none" stroke="#1f78b4" d="M556.41,-706.65C552.33,-637.5 537.74,-389.8 532.76,-305.3"/>
<polygon fill="#a6cee3" stroke="#1f78b4" points="536.24,-304.94 532.16,-295.16 529.26,-305.35 536.24,-304.94"/>
</g>
<!-- lcQuestionBase -->
<g id="node12" class="node">
<title>lcQuestionBase</title>
<path fill="#afa7f4" stroke="black" d="M642.04,-919.7C642.04,-919.7 730.04,-919.7 730.04,-919.7 736.04,-919.7 742.04,-925.7 742.04,-931.7 742.04,-931.7 742.04,-943.7 742.04,-943.7 742.04,-949.7 736.04,-955.7 730.04,-955.7 730.04,-955.7 642.04,-955.7 642.04,-955.7 636.04,-955.7 630.04,-949.7 630.04,-943.7 630.04,-943.7 630.04,-931.7 630.04,-931.7 630.04,-925.7 636.04,-919.7 642.04,-919.7"/>
<text text-anchor="middle" x="686.04" y="-934" font-family="Arial" font-size="14.00">lcQuestionBase</text>
</g>
<!-- learning&#45;d&#45;&gt;lcQuestionBase -->
<g id="edge11" class="edge">
<title>learning&#45;d&#45;&gt;lcQuestionBase</title>
<path fill="none" stroke="#1f78b4" d="M568.44,-742.92C591.11,-780.47 643.27,-866.86 669.84,-910.87"/>
<polygon fill="#a6cee3" stroke="#1f78b4" points="666.94,-912.84 675.1,-919.59 672.93,-909.22 666.94,-912.84"/>
</g>
<!-- p -->
<g id="node14" class="node">
<title>p</title>
<path fill="#afa7f4" stroke="black" d="M517.92,-1064.83C517.92,-1064.83 547.92,-1064.83 547.92,-1064.83 553.92,-1064.83 559.92,-1070.83 559.92,-1076.83 559.92,-1076.83 559.92,-1088.83 559.92,-1088.83 559.92,-1094.83 553.92,-1100.83 547.92,-1100.83 547.92,-1100.83 517.92,-1100.83 517.92,-1100.83 511.92,-1100.83 505.92,-1094.83 505.92,-1088.83 505.92,-1088.83 505.92,-1076.83 505.92,-1076.83 505.92,-1070.83 511.92,-1064.83 517.92,-1064.83"/>
<text text-anchor="middle" x="532.92" y="-1079.13" font-family="Arial" font-size="14.00">p</text>
</g>
<!-- learning&#45;d&#45;&gt;p -->
<g id="edge13" class="edge">
<title>learning&#45;d&#45;&gt;p</title>
<path fill="none" stroke="#1f78b4" d="M556.22,-743.01C552.22,-801.32 539.74,-983.41 534.88,-1054.24"/>
<polygon fill="#a6cee3" stroke="#1f78b4" points="531.36,-1054.4 534.17,-1064.62 538.35,-1054.88 531.36,-1054.4"/>
</g>
<!-- ul -->
<g id="node21" class="node">
<title>ul</title>
<path fill="#afa7f4" stroke="black" d="M339.81,-623.16C339.81,-623.16 369.81,-623.16 369.81,-623.16 375.81,-623.16 381.81,-629.16 381.81,-635.16 381.81,-635.16 381.81,-647.16 381.81,-647.16 381.81,-653.16 375.81,-659.16 369.81,-659.16 369.81,-659.16 339.81,-659.16 339.81,-659.16 333.81,-659.16 327.81,-653.16 327.81,-647.16 327.81,-647.16 327.81,-635.16 327.81,-635.16 327.81,-629.16 333.81,-623.16 339.81,-623.16"/>
<text text-anchor="middle" x="354.81" y="-637.46" font-family="Arial" font-size="14.00">ul</text>
</g>
<!-- learning&#45;d&#45;&gt;ul -->
<g id="edge20" class="edge">
<title>learning&#45;d&#45;&gt;ul</title>
<path fill="none" stroke="#1f78b4" d="M518.88,-708.84C482.24,-693.73 427.57,-671.17 391.55,-656.31"/>
<polygon fill="#a6cee3" stroke="#1f78b4" points="392.5,-652.92 381.92,-652.34 389.83,-659.39 392.5,-652.92"/>
</g>
<!-- ol -->
<g id="node23" class="node">
<title>ol</title>
<path fill="#afa7f4" stroke="black" d="M446.15,-889.27C446.15,-889.27 476.15,-889.27 476.15,-889.27 482.15,-889.27 488.15,-895.27 488.15,-901.27 488.15,-901.27 488.15,-913.27 488.15,-913.27 488.15,-919.27 482.15,-925.27 476.15,-925.27 476.15,-925.27 446.15,-925.27 446.15,-925.27 440.15,-925.27 434.15,-919.27 434.15,-913.27 434.15,-913.27 434.15,-901.27 434.15,-901.27 434.15,-895.27 440.15,-889.27 446.15,-889.27"/>
<text text-anchor="middle" x="461.15" y="-903.57" font-family="Arial" font-size="14.00">ol</text>
</g>
<!-- learning&#45;d&#45;&gt;ol -->
<g id="edge22" class="edge">
<title>learning&#45;d&#45;&gt;ol</title>
<path fill="none" stroke="#1f78b4" d="M547.89,-742.93C530.86,-775.18 495.29,-842.58 475.4,-880.27"/>
<polygon fill="#a6cee3" stroke="#1f78b4" points="472.27,-878.7 470.7,-889.18 478.46,-881.97 472.27,-878.7"/>
</g>
<!-- li -->
<g id="node25" class="node">
<title>li</title>
<path fill="#afa7f4" stroke="black" d="M766.66,-539.44C766.66,-539.44 796.66,-539.44 796.66,-539.44 802.66,-539.44 808.66,-545.44 808.66,-551.44 808.66,-551.44 808.66,-563.44 808.66,-563.44 808.66,-569.44 802.66,-575.44 796.66,-575.44 796.66,-575.44 766.66,-575.44 766.66,-575.44 760.66,-575.44 754.66,-569.44 754.66,-563.44 754.66,-563.44 754.66,-551.44 754.66,-551.44 754.66,-545.44 760.66,-539.44 766.66,-539.44"/>
<text text-anchor="middle" x="781.66" y="-553.74" font-family="Arial" font-size="14.00">li</text>
</g>
<!-- learning&#45;d&#45;&gt;li -->
<g id="edge24" class="edge">
<title>learning&#45;d&#45;&gt;li</title>
<path fill="none" stroke="#1f78b4" d="M581.89,-706.54C622.49,-676.24 703.88,-615.49 749.24,-581.63"/>
<polygon fill="#a6cee3" stroke="#1f78b4" points="751.35,-584.43 757.27,-575.64 747.16,-578.82 751.35,-584.43"/>
</g>
<!-- simpletable -->
<g id="node28" class="node">
<title>simpletable</title>
<path fill="#afa7f4" stroke="black" d="M637.89,-494.56C637.89,-494.56 699.89,-494.56 699.89,-494.56 705.89,-494.56 711.89,-500.56 711.89,-506.56 711.89,-506.56 711.89,-518.56 711.89,-518.56 711.89,-524.56 705.89,-530.56 699.89,-530.56 699.89,-530.56 637.89,-530.56 637.89,-530.56 631.89,-530.56 625.89,-524.56 625.89,-518.56 625.89,-518.56 625.89,-506.56 625.89,-506.56 625.89,-500.56 631.89,-494.56 637.89,-494.56"/>
<text text-anchor="middle" x="668.89" y="-508.86" font-family="Arial" font-size="14.00">simpletable</text>
</g>
<!-- learning&#45;d&#45;&gt;simpletable -->
<g id="edge27" class="edge">
<title>learning&#45;d&#45;&gt;simpletable</title>
<path fill="none" stroke="#1f78b4" d="M566.97,-706.67C586.58,-669.32 631.64,-583.51 654.71,-539.57"/>
<polygon fill="#a6cee3" stroke="#1f78b4" points="657.87,-541.09 659.42,-530.61 651.67,-537.84 657.87,-541.09"/>
</g>
<!-- sthead -->
<g id="node30" class="node">
<title>sthead</title>
<path fill="#afa7f4" stroke="black" d="M757.62,-750.31C757.62,-750.31 790.62,-750.31 790.62,-750.31 796.62,-750.31 802.62,-756.31 802.62,-762.31 802.62,-762.31 802.62,-774.31 802.62,-774.31 802.62,-780.31 796.62,-786.31 790.62,-786.31 790.62,-786.31 757.62,-786.31 757.62,-786.31 751.62,-786.31 745.62,-780.31 745.62,-774.31 745.62,-774.31 745.62,-762.31 745.62,-762.31 745.62,-756.31 751.62,-750.31 757.62,-750.31"/>
<text text-anchor="middle" x="774.12" y="-764.61" font-family="Arial" font-size="14.00">sthead</text>
</g>
<!-- learning&#45;d&#45;&gt;sthead -->
<g id="edge29" class="edge">
<title>learning&#45;d&#45;&gt;sthead</title>
<path fill="none" stroke="#1f78b4" d="M596.21,-732.55C635.53,-740.45 696.08,-752.62 735.4,-760.53"/>
<polygon fill="#a6cee3" stroke="#1f78b4" points="734.91,-764 745.4,-762.54 736.29,-757.14 734.91,-764"/>
</g>
<!-- strow -->
<g id="node32" class="node">
<title>strow</title>
<path fill="#afa7f4" stroke="black" d="M459.77,-505.25C459.77,-505.25 489.77,-505.25 489.77,-505.25 495.77,-505.25 501.77,-511.25 501.77,-517.25 501.77,-517.25 501.77,-529.25 501.77,-529.25 501.77,-535.25 495.77,-541.25 489.77,-541.25 489.77,-541.25 459.77,-541.25 459.77,-541.25 453.77,-541.25 447.77,-535.25 447.77,-529.25 447.77,-529.25 447.77,-517.25 447.77,-517.25 447.77,-511.25 453.77,-505.25 459.77,-505.25"/>
<text text-anchor="middle" x="474.77" y="-519.55" font-family="Arial" font-size="14.00">strow</text>
</g>
<!-- learning&#45;d&#45;&gt;strow -->
<g id="edge31" class="edge">
<title>learning&#45;d&#45;&gt;strow</title>
<path fill="none" stroke="#1f78b4" d="M549.99,-706.52C535.41,-671.01 503.14,-592.39 485.99,-550.6"/>
<polygon fill="#a6cee3" stroke="#1f78b4" points="489.21,-549.22 482.18,-541.3 482.74,-551.88 489.21,-549.22"/>
</g>
<!-- stentry -->
<g id="node34" class="node">
<title>stentry</title>
<path fill="#afa7f4" stroke="black" d="M808.32,-871.71C808.32,-871.71 841.32,-871.71 841.32,-871.71 847.32,-871.71 853.32,-877.71 853.32,-883.71 853.32,-883.71 853.32,-895.71 853.32,-895.71 853.32,-901.71 847.32,-907.71 841.32,-907.71 841.32,-907.71 808.32,-907.71 808.32,-907.71 802.32,-907.71 796.32,-901.71 796.32,-895.71 796.32,-895.71 796.32,-883.71 796.32,-883.71 796.32,-877.71 802.32,-871.71 808.32,-871.71"/>
<text text-anchor="middle" x="824.82" y="-886.01" font-family="Arial" font-size="14.00">stentry</text>
</g>
<!-- learning&#45;d&#45;&gt;stentry -->
<g id="edge33" class="edge">
<title>learning&#45;d&#45;&gt;stentry</title>
<path fill="none" stroke="#1f78b4" d="M586.85,-742.89C635.8,-773.09 733.99,-833.66 787.67,-866.79"/>
<polygon fill="#a6cee3" stroke="#1f78b4" points="785.86,-869.78 796.2,-872.05 789.53,-863.82 785.86,-869.78"/>
</g>
<!-- figgroup -->
<g id="node38" class="node">
<title>figgroup</title>
<path fill="#afa7f4" stroke="black" d="M267.45,-701.52C267.45,-701.52 308.45,-701.52 308.45,-701.52 314.45,-701.52 320.45,-707.52 320.45,-713.52 320.45,-713.52 320.45,-725.52 320.45,-725.52 320.45,-731.52 314.45,-737.52 308.45,-737.52 308.45,-737.52 267.45,-737.52 267.45,-737.52 261.45,-737.52 255.45,-731.52 255.45,-725.52 255.45,-725.52 255.45,-713.52 255.45,-713.52 255.45,-707.52 261.45,-701.52 267.45,-701.52"/>
<text text-anchor="middle" x="287.95" y="-715.82" font-family="Arial" font-size="14.00">figgroup</text>
</g>
<!-- learning&#45;d&#45;&gt;figgroup -->
<g id="edge37" class="edge">
<title>learning&#45;d&#45;&gt;figgroup</title>
<path fill="none" stroke="#1f78b4" d="M518.86,-724.01C469.02,-723.04 382.57,-721.36 330.77,-720.36"/>
<polygon fill="#a6cee3" stroke="#1f78b4" points="330.64,-716.85 320.58,-720.16 330.51,-723.85 330.64,-716.85"/>
</g>
<!-- keyword -->
<g id="node41" class="node">
<title>keyword</title>
<path fill="#afa7f4" stroke="black" d="M327.57,-779.07C327.57,-779.07 370.57,-779.07 370.57,-779.07 376.57,-779.07 382.57,-785.07 382.57,-791.07 382.57,-791.07 382.57,-803.07 382.57,-803.07 382.57,-809.07 376.57,-815.07 370.57,-815.07 370.57,-815.07 327.57,-815.07 327.57,-815.07 321.57,-815.07 315.57,-809.07 315.57,-803.07 315.57,-803.07 315.57,-791.07 315.57,-791.07 315.57,-785.07 321.57,-779.07 327.57,-779.07"/>
<text text-anchor="middle" x="349.07" y="-793.37" font-family="Arial" font-size="14.00">keyword</text>
</g>
<!-- learning&#45;d&#45;&gt;keyword -->
<g id="edge40" class="edge">
<title>learning&#45;d&#45;&gt;keyword</title>
<path fill="none" stroke="#1f78b4" d="M518.76,-738.19C482.89,-750.64 429.6,-769.13 392.33,-782.06"/>
<polygon fill="#a6cee3" stroke="#1f78b4" points="391.05,-778.8 382.75,-785.38 393.35,-785.41 391.05,-778.8"/>
</g>
<!-- ph -->
<g id="node43" class="node">
<title>ph</title>
<path fill="#afa7f4" stroke="black" d="M384.8,-838.7C384.8,-838.7 414.8,-838.7 414.8,-838.7 420.8,-838.7 426.8,-844.7 426.8,-850.7 426.8,-850.7 426.8,-862.7 426.8,-862.7 426.8,-868.7 420.8,-874.7 414.8,-874.7 414.8,-874.7 384.8,-874.7 384.8,-874.7 378.8,-874.7 372.8,-868.7 372.8,-862.7 372.8,-862.7 372.8,-850.7 372.8,-850.7 372.8,-844.7 378.8,-838.7 384.8,-838.7"/>
<text text-anchor="middle" x="399.8" y="-853" font-family="Arial" font-size="14.00">ph</text>
</g>
<!-- learning&#45;d&#45;&gt;ph -->
<g id="edge42" class="edge">
<title>learning&#45;d&#45;&gt;ph</title>
<path fill="none" stroke="#1f78b4" d="M535.88,-742.83C508.24,-765.96 460.24,-806.13 429.26,-832.05"/>
<polygon fill="#a6cee3" stroke="#1f78b4" points="426.81,-829.53 421.39,-838.64 431.3,-834.9 426.81,-829.53"/>
</g>
<!-- data -->
<g id="node45" class="node">
<title>data</title>
<path fill="#afa7f4" stroke="black" d="M808.77,-657.03C808.77,-657.03 838.77,-657.03 838.77,-657.03 844.77,-657.03 850.77,-663.03 850.77,-669.03 850.77,-669.03 850.77,-681.03 850.77,-681.03 850.77,-687.03 844.77,-693.03 838.77,-693.03 838.77,-693.03 808.77,-693.03 808.77,-693.03 802.77,-693.03 796.77,-687.03 796.77,-681.03 796.77,-681.03 796.77,-669.03 796.77,-669.03 796.77,-663.03 802.77,-657.03 808.77,-657.03"/>
<text text-anchor="middle" x="823.77" y="-671.33" font-family="Arial" font-size="14.00">data</text>
</g>
<!-- learning&#45;d&#45;&gt;data -->
<g id="edge44" class="edge">
<title>learning&#45;d&#45;&gt;data</title>
<path fill="none" stroke="#1f78b4" d="M596.2,-717.53C647.24,-708 736.42,-691.34 786.65,-681.96"/>
<polygon fill="#a6cee3" stroke="#1f78b4" points="787.56,-685.35 796.75,-680.08 786.28,-678.47 787.56,-685.35"/>
</g>
<!-- lcInstructornote -->
<g id="node3" class="node">
<title>lcInstructornote</title>
<path fill="#1afabc" stroke="black" d="M168.79,-421.74C168.79,-421.74 253.79,-421.74 253.79,-421.74 259.79,-421.74 265.79,-427.74 265.79,-433.74 265.79,-433.74 265.79,-445.74 265.79,-445.74 265.79,-451.74 259.79,-457.74 253.79,-457.74 253.79,-457.74 168.79,-457.74 168.79,-457.74 162.79,-457.74 156.79,-451.74 156.79,-445.74 156.79,-445.74 156.79,-433.74 156.79,-433.74 156.79,-427.74 162.79,-421.74 168.79,-421.74"/>
<text text-anchor="middle" x="211.29" y="-436.04" font-family="Arial" font-size="14.00">lcInstructornote</text>
</g>
<!-- note&#45;&gt;lcInstructornote -->
<g id="edge2" class="edge">
<title>note&#45;&gt;lcInstructornote</title>
<path fill="none" stroke="#1f78b4" d="M371.71,-554.71C338.75,-531.09 281.25,-489.87 244.78,-463.74"/>
<polygon fill="#a6cee3" stroke="#1f78b4" points="246.61,-460.74 236.44,-457.76 242.53,-466.43 246.61,-460.74"/>
</g>
<!-- lcTrueFalse -->
<g id="node5" class="node">
<title>lcTrueFalse</title>
<path fill="#1afabc" stroke="black" d="M310.13,-123.06C310.13,-123.06 373.13,-123.06 373.13,-123.06 379.13,-123.06 385.13,-129.06 385.13,-135.06 385.13,-135.06 385.13,-147.06 385.13,-147.06 385.13,-153.06 379.13,-159.06 373.13,-159.06 373.13,-159.06 310.13,-159.06 310.13,-159.06 304.13,-159.06 298.13,-153.06 298.13,-147.06 298.13,-147.06 298.13,-135.06 298.13,-135.06 298.13,-129.06 304.13,-123.06 310.13,-123.06"/>
<text text-anchor="middle" x="341.63" y="-137.36" font-family="Arial" font-size="14.00">lcTrueFalse</text>
</g>
<!-- lcInteractionBase&#45;&gt;lcTrueFalse -->
<g id="edge4" class="edge">
<title>lcInteractionBase&#45;&gt;lcTrueFalse</title>
<path fill="none" stroke="#1f78b4" d="M505.92,-258.79C472.38,-234.76 412.89,-192.13 375.45,-165.3"/>
<polygon fill="#a6cee3" stroke="#1f78b4" points="377.06,-162.15 366.89,-159.17 372.98,-167.84 377.06,-162.15"/>
</g>
<!-- lcSingleSelect -->
<g id="node6" class="node">
<title>lcSingleSelect</title>
<path fill="#1afabc" stroke="black" d="M474.11,-50.23C474.11,-50.23 551.11,-50.23 551.11,-50.23 557.11,-50.23 563.11,-56.23 563.11,-62.23 563.11,-62.23 563.11,-74.23 563.11,-74.23 563.11,-80.23 557.11,-86.23 551.11,-86.23 551.11,-86.23 474.11,-86.23 474.11,-86.23 468.11,-86.23 462.11,-80.23 462.11,-74.23 462.11,-74.23 462.11,-62.23 462.11,-62.23 462.11,-56.23 468.11,-50.23 474.11,-50.23"/>
<text text-anchor="middle" x="512.61" y="-64.53" font-family="Arial" font-size="14.00">lcSingleSelect</text>
</g>
<!-- lcInteractionBase&#45;&gt;lcSingleSelect -->
<g id="edge5" class="edge">
<title>lcInteractionBase&#45;&gt;lcSingleSelect</title>
<path fill="none" stroke="#1f78b4" d="M529.47,-258.68C526.25,-222.31 518.99,-140.26 515.13,-96.68"/>
<polygon fill="#a6cee3" stroke="#1f78b4" points="518.59,-96.13 514.22,-86.48 511.62,-96.75 518.59,-96.13"/>
</g>
<!-- lcMultipleSelect -->
<g id="node7" class="node">
<title>lcMultipleSelect</title>
<path fill="#1afabc" stroke="black" d="M620.25,-26.06C620.25,-26.06 707.25,-26.06 707.25,-26.06 713.25,-26.06 719.25,-32.06 719.25,-38.06 719.25,-38.06 719.25,-50.06 719.25,-50.06 719.25,-56.06 713.25,-62.06 707.25,-62.06 707.25,-62.06 620.25,-62.06 620.25,-62.06 614.25,-62.06 608.25,-56.06 608.25,-50.06 608.25,-50.06 608.25,-38.06 608.25,-38.06 608.25,-32.06 614.25,-26.06 620.25,-26.06"/>
<text text-anchor="middle" x="663.75" y="-40.36" font-family="Arial" font-size="14.00">lcMultipleSelect</text>
</g>
<!-- lcInteractionBase&#45;&gt;lcMultipleSelect -->
<g id="edge6" class="edge">
<title>lcInteractionBase&#45;&gt;lcMultipleSelect</title>
<path fill="none" stroke="#1f78b4" d="M541.49,-258.56C564.74,-217.77 620.99,-119.08 648.33,-71.12"/>
<polygon fill="#a6cee3" stroke="#1f78b4" points="651.48,-72.66 653.39,-62.24 645.4,-69.2 651.48,-72.66"/>
</g>
<!-- lcSequencing -->
<g id="node8" class="node">
<title>lcSequencing</title>
<path fill="#1afabc" stroke="black" d="M337.16,-57.1C337.16,-57.1 411.16,-57.1 411.16,-57.1 417.16,-57.1 423.16,-63.1 423.16,-69.1 423.16,-69.1 423.16,-81.1 423.16,-81.1 423.16,-87.1 417.16,-93.1 411.16,-93.1 411.16,-93.1 337.16,-93.1 337.16,-93.1 331.16,-93.1 325.16,-87.1 325.16,-81.1 325.16,-81.1 325.16,-69.1 325.16,-69.1 325.16,-63.1 331.16,-57.1 337.16,-57.1"/>
<text text-anchor="middle" x="374.16" y="-71.4" font-family="Arial" font-size="14.00">lcSequencing</text>
</g>
<!-- lcInteractionBase&#45;&gt;lcSequencing -->
<g id="edge7" class="edge">
<title>lcInteractionBase&#45;&gt;lcSequencing</title>
<path fill="none" stroke="#1f78b4" d="M516.88,-258.56C488.93,-222.63 426.7,-142.64 394.43,-101.16"/>
<polygon fill="#a6cee3" stroke="#1f78b4" points="397.12,-98.91 388.21,-93.17 391.59,-103.21 397.12,-98.91"/>
</g>
<!-- lcMatching -->
<g id="node9" class="node">
<title>lcMatching</title>
<path fill="#1afabc" stroke="black" d="M429.29,-3.13C429.29,-3.13 487.29,-3.13 487.29,-3.13 493.29,-3.13 499.29,-9.13 499.29,-15.13 499.29,-15.13 499.29,-27.13 499.29,-27.13 499.29,-33.13 493.29,-39.13 487.29,-39.13 487.29,-39.13 429.29,-39.13 429.29,-39.13 423.29,-39.13 417.29,-33.13 417.29,-27.13 417.29,-27.13 417.29,-15.13 417.29,-15.13 417.29,-9.13 423.29,-3.13 429.29,-3.13"/>
<text text-anchor="middle" x="458.29" y="-17.43" font-family="Arial" font-size="14.00">lcMatching</text>
</g>
<!-- lcInteractionBase&#45;&gt;lcMatching -->
<g id="edge8" class="edge">
<title>lcInteractionBase&#45;&gt;lcMatching</title>
<path fill="none" stroke="#1f78b4" d="M525.85,-258.43C513.26,-214.2 481.21,-101.65 466.24,-49.03"/>
<polygon fill="#a6cee3" stroke="#1f78b4" points="469.58,-48.01 463.48,-39.35 462.85,-49.92 469.58,-48.01"/>
</g>
<!-- lcHotspot -->
<g id="node10" class="node">
<title>lcHotspot</title>
<path fill="#1afabc" stroke="black" d="M523.76,-0.31C523.76,-0.31 572.76,-0.31 572.76,-0.31 578.76,-0.31 584.76,-6.31 584.76,-12.31 584.76,-12.31 584.76,-24.31 584.76,-24.31 584.76,-30.31 578.76,-36.31 572.76,-36.31 572.76,-36.31 523.76,-36.31 523.76,-36.31 517.76,-36.31 511.76,-30.31 511.76,-24.31 511.76,-24.31 511.76,-12.31 511.76,-12.31 511.76,-6.31 517.76,-0.31 523.76,-0.31"/>
<text text-anchor="middle" x="548.26" y="-14.61" font-family="Arial" font-size="14.00">lcHotspot</text>
</g>
<!-- lcInteractionBase&#45;&gt;lcHotspot -->
<g id="edge9" class="edge">
<title>lcInteractionBase&#45;&gt;lcHotspot</title>
<path fill="none" stroke="#1f78b4" d="M532.29,-258.64C535.24,-214.24 542.84,-99.98 546.38,-46.59"/>
<polygon fill="#a6cee3" stroke="#1f78b4" points="549.89,-46.67 547.06,-36.46 542.9,-46.21 549.89,-46.67"/>
</g>
<!-- lcOpenQuestion -->
<g id="node11" class="node">
<title>lcOpenQuestion</title>
<path fill="#1afabc" stroke="black" d="M663.46,-83.09C663.46,-83.09 754.46,-83.09 754.46,-83.09 760.46,-83.09 766.46,-89.09 766.46,-95.09 766.46,-95.09 766.46,-107.09 766.46,-107.09 766.46,-113.09 760.46,-119.09 754.46,-119.09 754.46,-119.09 663.46,-119.09 663.46,-119.09 657.46,-119.09 651.46,-113.09 651.46,-107.09 651.46,-107.09 651.46,-95.09 651.46,-95.09 651.46,-89.09 657.46,-83.09 663.46,-83.09"/>
<text text-anchor="middle" x="708.96" y="-97.39" font-family="Arial" font-size="14.00">lcOpenQuestion</text>
</g>
<!-- lcInteractionBase&#45;&gt;lcOpenQuestion -->
<g id="edge10" class="edge">
<title>lcInteractionBase&#45;&gt;lcOpenQuestion</title>
<path fill="none" stroke="#1f78b4" d="M549.45,-258.68C581.35,-227.16 647.08,-162.23 683.41,-126.33"/>
<polygon fill="#a6cee3" stroke="#1f78b4" points="686.04,-128.65 690.7,-119.13 681.12,-123.67 686.04,-128.65"/>
</g>
<!-- lcQuestion -->
<g id="node13" class="node">
<title>lcQuestion</title>
<path fill="#1afabc" stroke="black" d="M787.61,-1124.42C787.61,-1124.42 844.61,-1124.42 844.61,-1124.42 850.61,-1124.42 856.61,-1130.42 856.61,-1136.42 856.61,-1136.42 856.61,-1148.42 856.61,-1148.42 856.61,-1154.42 850.61,-1160.42 844.61,-1160.42 844.61,-1160.42 787.61,-1160.42 787.61,-1160.42 781.61,-1160.42 775.61,-1154.42 775.61,-1148.42 775.61,-1148.42 775.61,-1136.42 775.61,-1136.42 775.61,-1130.42 781.61,-1124.42 787.61,-1124.42"/>
<text text-anchor="middle" x="816.11" y="-1138.72" font-family="Arial" font-size="14.00">lcQuestion</text>
</g>
<!-- lcQuestionBase&#45;&gt;lcQuestion -->
<g id="edge12" class="edge">
<title>lcQuestionBase&#45;&gt;lcQuestion</title>
<path fill="none" stroke="#1f78b4" d="M697.58,-955.86C720.58,-992.06 772.2,-1073.31 799.09,-1115.64"/>
<polygon fill="#a6cee3" stroke="#1f78b4" points="796.28,-1117.73 804.59,-1124.3 802.18,-1113.98 796.28,-1117.73"/>
</g>
<!-- lcOpenAnswer -->
<g id="node15" class="node">
<title>lcOpenAnswer</title>
<path fill="#1afabc" stroke="black" d="M340.09,-1222.12C340.09,-1222.12 421.09,-1222.12 421.09,-1222.12 427.09,-1222.12 433.09,-1228.12 433.09,-1234.12 433.09,-1234.12 433.09,-1246.12 433.09,-1246.12 433.09,-1252.12 427.09,-1258.12 421.09,-1258.12 421.09,-1258.12 340.09,-1258.12 340.09,-1258.12 334.09,-1258.12 328.09,-1252.12 328.09,-1246.12 328.09,-1246.12 328.09,-1234.12 328.09,-1234.12 328.09,-1228.12 334.09,-1222.12 340.09,-1222.12"/>
<text text-anchor="middle" x="380.59" y="-1236.42" font-family="Arial" font-size="14.00">lcOpenAnswer</text>
</g>
<!-- p&#45;&gt;lcOpenAnswer -->
<g id="edge14" class="edge">
<title>p&#45;&gt;lcOpenAnswer</title>
<path fill="none" stroke="#1f78b4" d="M515.45,-1100.87C488.39,-1128.81 436.25,-1182.64 405.33,-1214.57"/>
<polygon fill="#a6cee3" stroke="#1f78b4" points="402.77,-1212.18 398.33,-1221.8 407.8,-1217.05 402.77,-1212.18"/>
</g>
<!-- lcAsset -->
<g id="node16" class="node">
<title>lcAsset</title>
<path fill="#1afabc" stroke="black" d="M600.43,-1224.72C600.43,-1224.72 636.43,-1224.72 636.43,-1224.72 642.43,-1224.72 648.43,-1230.72 648.43,-1236.72 648.43,-1236.72 648.43,-1248.72 648.43,-1248.72 648.43,-1254.72 642.43,-1260.72 636.43,-1260.72 636.43,-1260.72 600.43,-1260.72 600.43,-1260.72 594.43,-1260.72 588.43,-1254.72 588.43,-1248.72 588.43,-1248.72 588.43,-1236.72 588.43,-1236.72 588.43,-1230.72 594.43,-1224.72 600.43,-1224.72"/>
<text text-anchor="middle" x="618.43" y="-1239.02" font-family="Arial" font-size="14.00">lcAsset</text>
</g>
<!-- p&#45;&gt;lcAsset -->
<g id="edge15" class="edge">
<title>p&#45;&gt;lcAsset</title>
<path fill="none" stroke="#1f78b4" d="M542.56,-1100.86C557.51,-1128.81 586.37,-1182.77 603.86,-1215.49"/>
<polygon fill="#a6cee3" stroke="#1f78b4" points="600.89,-1217.34 608.69,-1224.51 607.06,-1214.04 600.89,-1217.34"/>
</g>
<!-- lcFeedback -->
<g id="node17" class="node">
<title>lcFeedback</title>
<path fill="#1afabc" stroke="black" d="M490.76,-1266.01C490.76,-1266.01 552.76,-1266.01 552.76,-1266.01 558.76,-1266.01 564.76,-1272.01 564.76,-1278.01 564.76,-1278.01 564.76,-1290.01 564.76,-1290.01 564.76,-1296.01 558.76,-1302.01 552.76,-1302.01 552.76,-1302.01 490.76,-1302.01 490.76,-1302.01 484.76,-1302.01 478.76,-1296.01 478.76,-1290.01 478.76,-1290.01 478.76,-1278.01 478.76,-1278.01 478.76,-1272.01 484.76,-1266.01 490.76,-1266.01"/>
<text text-anchor="middle" x="521.76" y="-1280.31" font-family="Arial" font-size="14.00">lcFeedback</text>
</g>
<!-- p&#45;&gt;lcFeedback -->
<g id="edge16" class="edge">
<title>p&#45;&gt;lcFeedback</title>
<path fill="none" stroke="#1f78b4" d="M531.91,-1101.04C529.96,-1136.27 525.64,-1214 523.32,-1255.91"/>
<polygon fill="#a6cee3" stroke="#1f78b4" points="519.82,-1255.81 522.76,-1265.99 526.81,-1256.2 519.82,-1255.81"/>
</g>
<!-- lcFeedbackCorrect -->
<g id="node18" class="node">
<title>lcFeedbackCorrect</title>
<path fill="#1afabc" stroke="black" d="M464.99,-1333.35C464.99,-1333.35 570.99,-1333.35 570.99,-1333.35 576.99,-1333.35 582.99,-1339.35 582.99,-1345.35 582.99,-1345.35 582.99,-1357.35 582.99,-1357.35 582.99,-1363.35 576.99,-1369.35 570.99,-1369.35 570.99,-1369.35 464.99,-1369.35 464.99,-1369.35 458.99,-1369.35 452.99,-1363.35 452.99,-1357.35 452.99,-1357.35 452.99,-1345.35 452.99,-1345.35 452.99,-1339.35 458.99,-1333.35 464.99,-1333.35"/>
<text text-anchor="middle" x="517.99" y="-1347.65" font-family="Arial" font-size="14.00">lcFeedbackCorrect</text>
</g>
<!-- p&#45;&gt;lcFeedbackCorrect -->
<g id="edge17" class="edge">
<title>p&#45;&gt;lcFeedbackCorrect</title>
<path fill="none" stroke="#1f78b4" d="M531.92,-1100.86C529.38,-1146.61 522.66,-1267.47 519.58,-1322.87"/>
<polygon fill="#a6cee3" stroke="#1f78b4" points="516.07,-1322.86 519.01,-1333.04 523.06,-1323.24 516.07,-1322.86"/>
</g>
<!-- lcFeedbackIncorrect -->
<g id="node19" class="node">
<title>lcFeedbackIncorrect</title>
<path fill="#1afabc" stroke="black" d="M603.85,-1285.25C603.85,-1285.25 717.85,-1285.25 717.85,-1285.25 723.85,-1285.25 729.85,-1291.25 729.85,-1297.25 729.85,-1297.25 729.85,-1309.25 729.85,-1309.25 729.85,-1315.25 723.85,-1321.25 717.85,-1321.25 717.85,-1321.25 603.85,-1321.25 603.85,-1321.25 597.85,-1321.25 591.85,-1315.25 591.85,-1309.25 591.85,-1309.25 591.85,-1297.25 591.85,-1297.25 591.85,-1291.25 597.85,-1285.25 603.85,-1285.25"/>
<text text-anchor="middle" x="660.85" y="-1299.55" font-family="Arial" font-size="14.00">lcFeedbackIncorrect</text>
</g>
<!-- p&#45;&gt;lcFeedbackIncorrect -->
<g id="edge18" class="edge">
<title>p&#45;&gt;lcFeedbackIncorrect</title>
<path fill="none" stroke="#1f78b4" d="M543.39,-1100.87C565.83,-1139.53 618.68,-1230.59 645.15,-1276.21"/>
<polygon fill="#a6cee3" stroke="#1f78b4" points="642.19,-1278.07 650.23,-1284.96 648.24,-1274.55 642.19,-1278.07"/>
</g>
<!-- lcAnswerContent -->
<g id="node20" class="node">
<title>lcAnswerContent</title>
<path fill="#1afabc" stroke="black" d="M351.64,-1274.8C351.64,-1274.8 446.64,-1274.8 446.64,-1274.8 452.64,-1274.8 458.64,-1280.8 458.64,-1286.8 458.64,-1286.8 458.64,-1298.8 458.64,-1298.8 458.64,-1304.8 452.64,-1310.8 446.64,-1310.8 446.64,-1310.8 351.64,-1310.8 351.64,-1310.8 345.64,-1310.8 339.64,-1304.8 339.64,-1298.8 339.64,-1298.8 339.64,-1286.8 339.64,-1286.8 339.64,-1280.8 345.64,-1274.8 351.64,-1274.8"/>
<text text-anchor="middle" x="399.14" y="-1289.1" font-family="Arial" font-size="14.00">lcAnswerContent</text>
</g>
<!-- p&#45;&gt;lcAnswerContent -->
<g id="edge19" class="edge">
<title>p&#45;&gt;lcAnswerContent</title>
<path fill="none" stroke="#1f78b4" d="M521.28,-1101.09C497.6,-1138.26 443.73,-1222.82 416.13,-1266.14"/>
<polygon fill="#a6cee3" stroke="#1f78b4" points="413.08,-1264.41 410.66,-1274.72 418.98,-1268.17 413.08,-1264.41"/>
</g>
<!-- lcAnswerOptionGroup -->
<g id="node22" class="node">
<title>lcAnswerOptionGroup</title>
<path fill="#1afabc" stroke="black" d="M50.47,-527.27C50.47,-527.27 176.47,-527.27 176.47,-527.27 182.47,-527.27 188.47,-533.27 188.47,-539.27 188.47,-539.27 188.47,-551.27 188.47,-551.27 188.47,-557.27 182.47,-563.27 176.47,-563.27 176.47,-563.27 50.47,-563.27 50.47,-563.27 44.47,-563.27 38.47,-557.27 38.47,-551.27 38.47,-551.27 38.47,-539.27 38.47,-539.27 38.47,-533.27 44.47,-527.27 50.47,-527.27"/>
<text text-anchor="middle" x="113.47" y="-541.57" font-family="Arial" font-size="14.00">lcAnswerOptionGroup</text>
</g>
<!-- ul&#45;&gt;lcAnswerOptionGroup -->
<g id="edge21" class="edge">
<title>ul&#45;&gt;lcAnswerOptionGroup</title>
<path fill="none" stroke="#1f78b4" d="M327.6,-630.34C289.15,-615.07 218.08,-586.83 168.41,-567.1"/>
<polygon fill="#a6cee3" stroke="#1f78b4" points="169.67,-563.83 159.09,-563.39 167.09,-570.34 169.67,-563.83"/>
</g>
<!-- lcSequenceOptionGroup -->
<g id="node24" class="node">
<title>lcSequenceOptionGroup</title>
<path fill="#1afabc" stroke="black" d="M211.73,-1081.55C211.73,-1081.55 353.73,-1081.55 353.73,-1081.55 359.73,-1081.55 365.73,-1087.55 365.73,-1093.55 365.73,-1093.55 365.73,-1105.55 365.73,-1105.55 365.73,-1111.55 359.73,-1117.55 353.73,-1117.55 353.73,-1117.55 211.73,-1117.55 211.73,-1117.55 205.73,-1117.55 199.73,-1111.55 199.73,-1105.55 199.73,-1105.55 199.73,-1093.55 199.73,-1093.55 199.73,-1087.55 205.73,-1081.55 211.73,-1081.55"/>
<text text-anchor="middle" x="282.73" y="-1095.85" font-family="Arial" font-size="14.00">lcSequenceOptionGroup</text>
</g>
<!-- ol&#45;&gt;lcSequenceOptionGroup -->
<g id="edge23" class="edge">
<title>ol&#45;&gt;lcSequenceOptionGroup</title>
<path fill="none" stroke="#1f78b4" d="M444.36,-925.36C412.48,-959.72 343.09,-1034.5 306.46,-1073.97"/>
<polygon fill="#a6cee3" stroke="#1f78b4" points="303.83,-1071.66 299.6,-1081.37 308.96,-1076.42 303.83,-1071.66"/>
</g>
<!-- lcSequenceOption -->
<g id="node26" class="node">
<title>lcSequenceOption</title>
<path fill="#1afabc" stroke="black" d="M933.33,-443.62C933.33,-443.62 1037.33,-443.62 1037.33,-443.62 1043.33,-443.62 1049.33,-449.62 1049.33,-455.62 1049.33,-455.62 1049.33,-467.62 1049.33,-467.62 1049.33,-473.62 1043.33,-479.62 1037.33,-479.62 1037.33,-479.62 933.33,-479.62 933.33,-479.62 927.33,-479.62 921.33,-473.62 921.33,-467.62 921.33,-467.62 921.33,-455.62 921.33,-455.62 921.33,-449.62 927.33,-443.62 933.33,-443.62"/>
<text text-anchor="middle" x="985.33" y="-457.92" font-family="Arial" font-size="14.00">lcSequenceOption</text>
</g>
<!-- li&#45;&gt;lcSequenceOption -->
<g id="edge25" class="edge">
<title>li&#45;&gt;lcSequenceOption</title>
<path fill="none" stroke="#1f78b4" d="M808.7,-544.71C841.63,-529.22 897.81,-502.79 937.97,-483.9"/>
<polygon fill="#a6cee3" stroke="#1f78b4" points="939.48,-487.05 947.04,-479.63 936.5,-480.72 939.48,-487.05"/>
</g>
<!-- lcAnswerOption -->
<g id="node27" class="node">
<title>lcAnswerOption</title>
<path fill="#1afabc" stroke="black" d="M879.57,-384.93C879.57,-384.93 967.57,-384.93 967.57,-384.93 973.57,-384.93 979.57,-390.93 979.57,-396.93 979.57,-396.93 979.57,-408.93 979.57,-408.93 979.57,-414.93 973.57,-420.93 967.57,-420.93 967.57,-420.93 879.57,-420.93 879.57,-420.93 873.57,-420.93 867.57,-414.93 867.57,-408.93 867.57,-408.93 867.57,-396.93 867.57,-396.93 867.57,-390.93 873.57,-384.93 879.57,-384.93"/>
<text text-anchor="middle" x="923.57" y="-399.23" font-family="Arial" font-size="14.00">lcAnswerOption</text>
</g>
<!-- li&#45;&gt;lcAnswerOption -->
<g id="edge26" class="edge">
<title>li&#45;&gt;lcAnswerOption</title>
<path fill="none" stroke="#1f78b4" d="M798.22,-539.41C823.29,-512.11 871.01,-460.15 899.8,-428.81"/>
<polygon fill="#a6cee3" stroke="#1f78b4" points="902.49,-431.05 906.68,-421.32 897.34,-426.32 902.49,-431.05"/>
</g>
<!-- lcMatchTable -->
<g id="node29" class="node">
<title>lcMatchTable</title>
<path fill="#1afabc" stroke="black" d="M745.25,-319.35C745.25,-319.35 817.25,-319.35 817.25,-319.35 823.25,-319.35 829.25,-325.35 829.25,-331.35 829.25,-331.35 829.25,-343.35 829.25,-343.35 829.25,-349.35 823.25,-355.35 817.25,-355.35 817.25,-355.35 745.25,-355.35 745.25,-355.35 739.25,-355.35 733.25,-349.35 733.25,-343.35 733.25,-343.35 733.25,-331.35 733.25,-331.35 733.25,-325.35 739.25,-319.35 745.25,-319.35"/>
<text text-anchor="middle" x="781.25" y="-333.65" font-family="Arial" font-size="14.00">lcMatchTable</text>
</g>
<!-- simpletable&#45;&gt;lcMatchTable -->
<g id="edge28" class="edge">
<title>simpletable&#45;&gt;lcMatchTable</title>
<path fill="none" stroke="#1f78b4" d="M680.49,-494.47C700.34,-463.52 740.91,-400.26 764.06,-364.16"/>
<polygon fill="#a6cee3" stroke="#1f78b4" points="767.09,-365.92 769.54,-355.61 761.2,-362.14 767.09,-365.92"/>
</g>
<!-- lcMatchingHeader -->
<g id="node31" class="node">
<title>lcMatchingHeader</title>
<path fill="#1afabc" stroke="black" d="M934.18,-787.15C934.18,-787.15 1036.18,-787.15 1036.18,-787.15 1042.18,-787.15 1048.18,-793.15 1048.18,-799.15 1048.18,-799.15 1048.18,-811.15 1048.18,-811.15 1048.18,-817.15 1042.18,-823.15 1036.18,-823.15 1036.18,-823.15 934.18,-823.15 934.18,-823.15 928.18,-823.15 922.18,-817.15 922.18,-811.15 922.18,-811.15 922.18,-799.15 922.18,-799.15 922.18,-793.15 928.18,-787.15 934.18,-787.15"/>
<text text-anchor="middle" x="985.18" y="-801.45" font-family="Arial" font-size="14.00">lcMatchingHeader</text>
</g>
<!-- sthead&#45;&gt;lcMatchingHeader -->
<g id="edge30" class="edge">
<title>sthead&#45;&gt;lcMatchingHeader</title>
<path fill="none" stroke="#1f78b4" d="M803.02,-773.36C831,-778.24 874.58,-785.84 912.1,-792.39"/>
<polygon fill="#a6cee3" stroke="#1f78b4" points="911.54,-795.85 921.99,-794.12 912.75,-788.95 911.54,-795.85"/>
</g>
<!-- lcMatchingPair -->
<g id="node33" class="node">
<title>lcMatchingPair</title>
<path fill="#1afabc" stroke="black" d="M314.38,-351.36C314.38,-351.36 396.38,-351.36 396.38,-351.36 402.38,-351.36 408.38,-357.36 408.38,-363.36 408.38,-363.36 408.38,-375.36 408.38,-375.36 408.38,-381.36 402.38,-387.36 396.38,-387.36 396.38,-387.36 314.38,-387.36 314.38,-387.36 308.38,-387.36 302.38,-381.36 302.38,-375.36 302.38,-375.36 302.38,-363.36 302.38,-363.36 302.38,-357.36 308.38,-351.36 314.38,-351.36"/>
<text text-anchor="middle" x="355.38" y="-365.66" font-family="Arial" font-size="14.00">lcMatchingPair</text>
</g>
<!-- strow&#45;&gt;lcMatchingPair -->
<g id="edge32" class="edge">
<title>strow&#45;&gt;lcMatchingPair</title>
<path fill="none" stroke="#1f78b4" d="M460.6,-504.99C439.6,-477.92 400.08,-426.99 375.91,-395.82"/>
<polygon fill="#a6cee3" stroke="#1f78b4" points="378.42,-393.35 369.52,-387.6 372.89,-397.64 378.42,-393.35"/>
</g>
<!-- lcItem -->
<g id="node35" class="node">
<title>lcItem</title>
<path fill="#1afabc" stroke="black" d="M905.86,-1027.89C905.86,-1027.89 935.86,-1027.89 935.86,-1027.89 941.86,-1027.89 947.86,-1033.89 947.86,-1039.89 947.86,-1039.89 947.86,-1051.89 947.86,-1051.89 947.86,-1057.89 941.86,-1063.89 935.86,-1063.89 935.86,-1063.89 905.86,-1063.89 905.86,-1063.89 899.86,-1063.89 893.86,-1057.89 893.86,-1051.89 893.86,-1051.89 893.86,-1039.89 893.86,-1039.89 893.86,-1033.89 899.86,-1027.89 905.86,-1027.89"/>
<text text-anchor="middle" x="920.86" y="-1042.19" font-family="Arial" font-size="14.00">lcItem</text>
</g>
<!-- stentry&#45;&gt;lcItem -->
<g id="edge34" class="edge">
<title>stentry&#45;&gt;lcItem</title>
<path fill="none" stroke="#1f78b4" d="M836.02,-907.93C852.87,-935.32 884.81,-987.27 904.34,-1019.02"/>
<polygon fill="#a6cee3" stroke="#1f78b4" points="901.51,-1021.1 909.73,-1027.79 907.47,-1017.44 901.51,-1021.1"/>
</g>
<!-- lcMatchingItem -->
<g id="node36" class="node">
<title>lcMatchingItem</title>
<path fill="#1afabc" stroke="black" d="M986.79,-983.07C986.79,-983.07 1071.79,-983.07 1071.79,-983.07 1077.79,-983.07 1083.79,-989.07 1083.79,-995.07 1083.79,-995.07 1083.79,-1007.07 1083.79,-1007.07 1083.79,-1013.07 1077.79,-1019.07 1071.79,-1019.07 1071.79,-1019.07 986.79,-1019.07 986.79,-1019.07 980.79,-1019.07 974.79,-1013.07 974.79,-1007.07 974.79,-1007.07 974.79,-995.07 974.79,-995.07 974.79,-989.07 980.79,-983.07 986.79,-983.07"/>
<text text-anchor="middle" x="1029.29" y="-997.37" font-family="Arial" font-size="14.00">lcMatchingItem</text>
</g>
<!-- stentry&#45;&gt;lcMatchingItem -->
<g id="edge35" class="edge">
<title>stentry&#45;&gt;lcMatchingItem</title>
<path fill="none" stroke="#1f78b4" d="M853.68,-905.43C888.51,-924.39 947.34,-956.44 987.22,-978.16"/>
<polygon fill="#a6cee3" stroke="#1f78b4" points="985.72,-981.32 996.17,-983.03 989.06,-975.18 985.72,-981.32"/>
</g>
<!-- lcMatchingItemFeedback -->
<g id="node37" class="node">
<title>lcMatchingItemFeedback</title>
<path fill="#1afabc" stroke="black" d="M1003.76,-932.81C1003.76,-932.81 1147.76,-932.81 1147.76,-932.81 1153.76,-932.81 1159.76,-938.81 1159.76,-944.81 1159.76,-944.81 1159.76,-956.81 1159.76,-956.81 1159.76,-962.81 1153.76,-968.81 1147.76,-968.81 1147.76,-968.81 1003.76,-968.81 1003.76,-968.81 997.76,-968.81 991.76,-962.81 991.76,-956.81 991.76,-956.81 991.76,-944.81 991.76,-944.81 991.76,-938.81 997.76,-932.81 1003.76,-932.81"/>
<text text-anchor="middle" x="1075.76" y="-947.11" font-family="Arial" font-size="14.00">lcMatchingItemFeedback</text>
</g>
<!-- stentry&#45;&gt;lcMatchingItemFeedback -->
<g id="edge36" class="edge">
<title>stentry&#45;&gt;lcMatchingItemFeedback</title>
<path fill="none" stroke="#1f78b4" d="M853.61,-896.72C887.15,-904.88 944.08,-918.75 991.91,-930.39"/>
<polygon fill="#a6cee3" stroke="#1f78b4" points="991.12,-933.8 1001.66,-932.77 992.77,-927 991.12,-933.8"/>
</g>
<!-- lcHotspotMap -->
<g id="node39" class="node">
<title>lcHotspotMap</title>
<path fill="#1afabc" stroke="black" d="M11.91,-744.77C11.91,-744.77 87.91,-744.77 87.91,-744.77 93.91,-744.77 99.91,-750.77 99.91,-756.77 99.91,-756.77 99.91,-768.77 99.91,-768.77 99.91,-774.77 93.91,-780.77 87.91,-780.77 87.91,-780.77 11.91,-780.77 11.91,-780.77 5.91,-780.77 -0.09,-774.77 -0.09,-768.77 -0.09,-768.77 -0.09,-756.77 -0.09,-756.77 -0.09,-750.77 5.91,-744.77 11.91,-744.77"/>
<text text-anchor="middle" x="49.91" y="-759.07" font-family="Arial" font-size="14.00">lcHotspotMap</text>
</g>
<!-- figgroup&#45;&gt;lcHotspotMap -->
<g id="edge38" class="edge">
<title>figgroup&#45;&gt;lcHotspotMap</title>
<path fill="none" stroke="#1f78b4" d="M255.35,-725.45C217.99,-732.24 155.96,-743.51 109.82,-751.89"/>
<polygon fill="#a6cee3" stroke="#1f78b4" points="109.15,-748.45 99.94,-753.68 110.4,-755.34 109.15,-748.45"/>
</g>
<!-- lcArea -->
<g id="node40" class="node">
<title>lcArea</title>
<path fill="#1afabc" stroke="black" d="M68.36,-665.81C68.36,-665.81 99.36,-665.81 99.36,-665.81 105.36,-665.81 111.36,-671.81 111.36,-677.81 111.36,-677.81 111.36,-689.81 111.36,-689.81 111.36,-695.81 105.36,-701.81 99.36,-701.81 99.36,-701.81 68.36,-701.81 68.36,-701.81 62.36,-701.81 56.36,-695.81 56.36,-689.81 56.36,-689.81 56.36,-677.81 56.36,-677.81 56.36,-671.81 62.36,-665.81 68.36,-665.81"/>
<text text-anchor="middle" x="83.86" y="-680.11" font-family="Arial" font-size="14.00">lcArea</text>
</g>
<!-- figgroup&#45;&gt;lcArea -->
<g id="edge39" class="edge">
<title>figgroup&#45;&gt;lcArea</title>
<path fill="none" stroke="#1f78b4" d="M255.16,-713.79C218.81,-707.43 160.24,-697.18 121.9,-690.47"/>
<polygon fill="#a6cee3" stroke="#1f78b4" points="122.11,-686.95 111.66,-688.68 120.9,-693.85 122.11,-686.95"/>
</g>
<!-- lcAreaShape -->
<g id="node42" class="node">
<title>lcAreaShape</title>
<path fill="#1afabc" stroke="black" d="M99.1,-865.02C99.1,-865.02 169.1,-865.02 169.1,-865.02 175.1,-865.02 181.1,-871.02 181.1,-877.02 181.1,-877.02 181.1,-889.02 181.1,-889.02 181.1,-895.02 175.1,-901.02 169.1,-901.02 169.1,-901.02 99.1,-901.02 99.1,-901.02 93.1,-901.02 87.1,-895.02 87.1,-889.02 87.1,-889.02 87.1,-877.02 87.1,-877.02 87.1,-871.02 93.1,-865.02 99.1,-865.02"/>
<text text-anchor="middle" x="134.1" y="-879.32" font-family="Arial" font-size="14.00">lcAreaShape</text>
</g>
<!-- keyword&#45;&gt;lcAreaShape -->
<g id="edge41" class="edge">
<title>keyword&#45;&gt;lcAreaShape</title>
<path fill="none" stroke="#1f78b4" d="M315.48,-810.5C281.59,-824.05 228.7,-845.2 188.76,-861.17"/>
<polygon fill="#a6cee3" stroke="#1f78b4" points="187.41,-857.94 179.42,-864.9 190.01,-864.44 187.41,-857.94"/>
</g>
<!-- lcAreaCoords -->
<g id="node44" class="node">
<title>lcAreaCoords</title>
<path fill="#1afabc" stroke="black" d="M180.82,-967.93C180.82,-967.93 254.82,-967.93 254.82,-967.93 260.82,-967.93 266.82,-973.93 266.82,-979.93 266.82,-979.93 266.82,-991.93 266.82,-991.93 266.82,-997.93 260.82,-1003.93 254.82,-1003.93 254.82,-1003.93 180.82,-1003.93 180.82,-1003.93 174.82,-1003.93 168.82,-997.93 168.82,-991.93 168.82,-991.93 168.82,-979.93 168.82,-979.93 168.82,-973.93 174.82,-967.93 180.82,-967.93"/>
<text text-anchor="middle" x="217.82" y="-982.23" font-family="Arial" font-size="14.00">lcAreaCoords</text>
</g>
<!-- ph&#45;&gt;lcAreaCoords -->
<g id="edge43" class="edge">
<title>ph&#45;&gt;lcAreaCoords</title>
<path fill="none" stroke="#1f78b4" d="M374.12,-874.94C342.14,-897.64 287.43,-936.5 251.96,-961.69"/>
<polygon fill="#a6cee3" stroke="#1f78b4" points="249.51,-959.13 243.38,-967.78 253.56,-964.84 249.51,-959.13"/>
</g>
<!-- lcCorrectResponse -->
<g id="node46" class="node">
<title>lcCorrectResponse</title>
<path fill="#1afabc" stroke="black" d="M1022.91,-654.74C1022.91,-654.74 1129.91,-654.74 1129.91,-654.74 1135.91,-654.74 1141.91,-660.74 1141.91,-666.74 1141.91,-666.74 1141.91,-678.74 1141.91,-678.74 1141.91,-684.74 1135.91,-690.74 1129.91,-690.74 1129.91,-690.74 1022.91,-690.74 1022.91,-690.74 1016.91,-690.74 1010.91,-684.74 1010.91,-678.74 1010.91,-678.74 1010.91,-666.74 1010.91,-666.74 1010.91,-660.74 1016.91,-654.74 1022.91,-654.74"/>
<text text-anchor="middle" x="1076.41" y="-669.04" font-family="Arial" font-size="14.00">lcCorrectResponse</text>
</g>
<!-- data&#45;&gt;lcCorrectResponse -->
<g id="edge45" class="edge">
<title>data&#45;&gt;lcCorrectResponse</title>
<path fill="none" stroke="#1f78b4" d="M850.81,-674.79C886.24,-674.46 949.81,-673.89 1000.47,-673.43"/>
<polygon fill="#a6cee3" stroke="#1f78b4" points="1000.77,-676.93 1010.74,-673.34 1000.71,-669.93 1000.77,-676.93"/>
</g>
<!-- lcSequence -->
<g id="node47" class="node">
<title>lcSequence</title>
<path fill="#1afabc" stroke="black" d="M992.28,-584.89C992.28,-584.89 1055.28,-584.89 1055.28,-584.89 1061.28,-584.89 1067.28,-590.89 1067.28,-596.89 1067.28,-596.89 1067.28,-608.89 1067.28,-608.89 1067.28,-614.89 1061.28,-620.89 1055.28,-620.89 1055.28,-620.89 992.28,-620.89 992.28,-620.89 986.28,-620.89 980.28,-614.89 980.28,-608.89 980.28,-608.89 980.28,-596.89 980.28,-596.89 980.28,-590.89 986.28,-584.89 992.28,-584.89"/>
<text text-anchor="middle" x="1023.78" y="-599.19" font-family="Arial" font-size="14.00">lcSequence</text>
</g>
<!-- data&#45;&gt;lcSequence -->
<g id="edge46" class="edge">
<title>data&#45;&gt;lcSequence</title>
<path fill="none" stroke="#1f78b4" d="M851.16,-665.15C881.84,-654.09 932.28,-635.89 970.74,-622.02"/>
<polygon fill="#a6cee3" stroke="#1f78b4" points="972.02,-625.28 980.24,-618.59 969.65,-618.69 972.02,-625.28"/>
</g>
</g>
</svg>
