<?xml version="1.0" encoding="UTF-8" standalone="no"?>
<!DOCTYPE svg PUBLIC "-//W3C//DTD SVG 1.1//EN"
 "http://www.w3.org/Graphics/SVG/1.1/DTD/svg11.dtd">
<!-- Generated by graphviz version 6.0.1 (20220911.1526)
 -->
<!-- Pages: 1 -->
<svg width="810pt" height="713pt"
 viewBox="0.00 0.00 810.00 713.00" xmlns="http://www.w3.org/2000/svg" xmlns:xlink="http://www.w3.org/1999/xlink">
<g id="graph0" class="graph" transform="scale(1 1) rotate(0) translate(4 709)">
<polygon fill="white" stroke="none" points="-4,4 -4,-709 806,-709 806,4 -4,4"/>
<!-- taskreq&#45;d -->
<g id="node1" class="node">
<title>taskreq&#45;d</title>
<path fill="#dddddd" stroke="black" d="M419.72,-362.65C419.72,-362.65 468.72,-362.65 468.72,-362.65 474.72,-362.65 480.72,-368.65 480.72,-374.65 480.72,-374.65 480.72,-386.65 480.72,-386.65 480.72,-392.65 474.72,-398.65 468.72,-398.65 468.72,-398.65 419.72,-398.65 419.72,-398.65 413.72,-398.65 407.72,-392.65 407.72,-386.65 407.72,-386.65 407.72,-374.65 407.72,-374.65 407.72,-368.65 413.72,-362.65 419.72,-362.65"/>
<text text-anchor="middle" x="444.22" y="-376.95" font-family="Arial" font-size="14.00">taskreq&#45;d</text>
</g>
<!-- prereq -->
<g id="node2" class="node">
<title>prereq</title>
<path fill="#afa7f4" stroke="black" d="M572.36,-293.95C572.36,-293.95 604.36,-293.95 604.36,-293.95 610.36,-293.95 616.36,-299.95 616.36,-305.95 616.36,-305.95 616.36,-317.95 616.36,-317.95 616.36,-323.95 610.36,-329.95 604.36,-329.95 604.36,-329.95 572.36,-329.95 572.36,-329.95 566.36,-329.95 560.36,-323.95 560.36,-317.95 560.36,-317.95 560.36,-305.95 560.36,-305.95 560.36,-299.95 566.36,-293.95 572.36,-293.95"/>
<text text-anchor="middle" x="588.36" y="-308.25" font-family="Arial" font-size="14.00">prereq</text>
</g>
<!-- taskreq&#45;d&#45;&gt;prereq -->
<g id="edge1" class="edge">
<title>taskreq&#45;d&#45;&gt;prereq</title>
<path fill="none" stroke="#1f78b4" d="M480.96,-363.13C502.47,-352.88 529.55,-339.97 551.14,-329.69"/>
<polygon fill="#a6cee3" stroke="#1f78b4" points="552.8,-332.77 560.32,-325.31 549.79,-326.45 552.8,-332.77"/>
</g>
<!-- postreq -->
<g id="node4" class="node">
<title>postreq</title>
<path fill="#afa7f4" stroke="black" d="M429.38,-530.12C429.38,-530.12 467.38,-530.12 467.38,-530.12 473.38,-530.12 479.38,-536.12 479.38,-542.12 479.38,-542.12 479.38,-554.12 479.38,-554.12 479.38,-560.12 473.38,-566.12 467.38,-566.12 467.38,-566.12 429.38,-566.12 429.38,-566.12 423.38,-566.12 417.38,-560.12 417.38,-554.12 417.38,-554.12 417.38,-542.12 417.38,-542.12 417.38,-536.12 423.38,-530.12 429.38,-530.12"/>
<text text-anchor="middle" x="448.38" y="-544.42" font-family="Arial" font-size="14.00">postreq</text>
</g>
<!-- taskreq&#45;d&#45;&gt;postreq -->
<g id="edge3" class="edge">
<title>taskreq&#45;d&#45;&gt;postreq</title>
<path fill="none" stroke="#1f78b4" d="M444.67,-398.89C445.4,-427.96 446.82,-485.02 447.67,-519.55"/>
<polygon fill="#a6cee3" stroke="#1f78b4" points="444.18,-519.99 447.93,-529.9 451.18,-519.82 444.18,-519.99"/>
</g>
<!-- ul -->
<g id="node6" class="node">
<title>ul</title>
<path fill="#afa7f4" stroke="black" d="M517.49,-163.02C517.49,-163.02 547.49,-163.02 547.49,-163.02 553.49,-163.02 559.49,-169.02 559.49,-175.02 559.49,-175.02 559.49,-187.02 559.49,-187.02 559.49,-193.02 553.49,-199.02 547.49,-199.02 547.49,-199.02 517.49,-199.02 517.49,-199.02 511.49,-199.02 505.49,-193.02 505.49,-187.02 505.49,-187.02 505.49,-175.02 505.49,-175.02 505.49,-169.02 511.49,-163.02 517.49,-163.02"/>
<text text-anchor="middle" x="532.49" y="-177.32" font-family="Arial" font-size="14.00">ul</text>
</g>
<!-- taskreq&#45;d&#45;&gt;ul -->
<g id="edge5" class="edge">
<title>taskreq&#45;d&#45;&gt;ul</title>
<path fill="none" stroke="#1f78b4" d="M452.21,-362.58C467.73,-327.48 502.03,-249.9 520.37,-208.43"/>
<polygon fill="#a6cee3" stroke="#1f78b4" points="523.61,-209.75 524.45,-199.19 517.21,-206.92 523.61,-209.75"/>
</g>
<!-- li -->
<g id="node12" class="node">
<title>li</title>
<path fill="#afa7f4" stroke="black" d="M206.67,-421.43C206.67,-421.43 236.67,-421.43 236.67,-421.43 242.67,-421.43 248.67,-427.43 248.67,-433.43 248.67,-433.43 248.67,-445.43 248.67,-445.43 248.67,-451.43 242.67,-457.43 236.67,-457.43 236.67,-457.43 206.67,-457.43 206.67,-457.43 200.67,-457.43 194.67,-451.43 194.67,-445.43 194.67,-445.43 194.67,-433.43 194.67,-433.43 194.67,-427.43 200.67,-421.43 206.67,-421.43"/>
<text text-anchor="middle" x="221.67" y="-435.73" font-family="Arial" font-size="14.00">li</text>
</g>
<!-- taskreq&#45;d&#45;&gt;li -->
<g id="edge11" class="edge">
<title>taskreq&#45;d&#45;&gt;li</title>
<path fill="none" stroke="#1f78b4" d="M407.47,-390.36C366.3,-401.23 299.93,-418.76 258.66,-429.66"/>
<polygon fill="#a6cee3" stroke="#1f78b4" points="257.76,-426.28 248.99,-432.22 259.55,-433.05 257.76,-426.28"/>
</g>
<!-- p -->
<g id="node25" class="node">
<title>p</title>
<path fill="#afa7f4" stroke="black" d="M545.97,-520.73C545.97,-520.73 575.97,-520.73 575.97,-520.73 581.97,-520.73 587.97,-526.73 587.97,-532.73 587.97,-532.73 587.97,-544.73 587.97,-544.73 587.97,-550.73 581.97,-556.73 575.97,-556.73 575.97,-556.73 545.97,-556.73 545.97,-556.73 539.97,-556.73 533.97,-550.73 533.97,-544.73 533.97,-544.73 533.97,-532.73 533.97,-532.73 533.97,-526.73 539.97,-520.73 545.97,-520.73"/>
<text text-anchor="middle" x="560.97" y="-535.03" font-family="Arial" font-size="14.00">p</text>
</g>
<!-- taskreq&#45;d&#45;&gt;p -->
<g id="edge24" class="edge">
<title>taskreq&#45;d&#45;&gt;p</title>
<path fill="none" stroke="#1f78b4" d="M457.61,-398.78C478.18,-426.63 517.63,-480.06 541.4,-512.24"/>
<polygon fill="#a6cee3" stroke="#1f78b4" points="538.62,-514.36 547.37,-520.32 544.25,-510.2 538.62,-514.36"/>
</g>
<!-- data -->
<g id="node29" class="node">
<title>data</title>
<path fill="#afa7f4" stroke="black" d="M616.14,-392C616.14,-392 646.14,-392 646.14,-392 652.14,-392 658.14,-398 658.14,-404 658.14,-404 658.14,-416 658.14,-416 658.14,-422 652.14,-428 646.14,-428 646.14,-428 616.14,-428 616.14,-428 610.14,-428 604.14,-422 604.14,-416 604.14,-416 604.14,-404 604.14,-404 604.14,-398 610.14,-392 616.14,-392"/>
<text text-anchor="middle" x="631.14" y="-406.3" font-family="Arial" font-size="14.00">data</text>
</g>
<!-- taskreq&#45;d&#45;&gt;data -->
<g id="edge28" class="edge">
<title>taskreq&#45;d&#45;&gt;data</title>
<path fill="none" stroke="#1f78b4" d="M481.15,-386.45C513.79,-391.57 561.17,-399.01 593.91,-404.15"/>
<polygon fill="#a6cee3" stroke="#1f78b4" points="593.56,-407.64 603.98,-405.73 594.65,-400.72 593.56,-407.64"/>
</g>
<!-- ol -->
<g id="node33" class="node">
<title>ol</title>
<path fill="#afa7f4" stroke="black" d="M373.95,-226.19C373.95,-226.19 403.95,-226.19 403.95,-226.19 409.95,-226.19 415.95,-232.19 415.95,-238.19 415.95,-238.19 415.95,-250.19 415.95,-250.19 415.95,-256.19 409.95,-262.19 403.95,-262.19 403.95,-262.19 373.95,-262.19 373.95,-262.19 367.95,-262.19 361.95,-256.19 361.95,-250.19 361.95,-250.19 361.95,-238.19 361.95,-238.19 361.95,-232.19 367.95,-226.19 373.95,-226.19"/>
<text text-anchor="middle" x="388.95" y="-240.49" font-family="Arial" font-size="14.00">ol</text>
</g>
<!-- taskreq&#45;d&#45;&gt;ol -->
<g id="edge32" class="edge">
<title>taskreq&#45;d&#45;&gt;ol</title>
<path fill="none" stroke="#1f78b4" d="M436.88,-362.53C427.47,-339.28 411.04,-298.75 400.09,-271.69"/>
<polygon fill="#a6cee3" stroke="#1f78b4" points="403.32,-270.34 396.32,-262.39 396.83,-272.97 403.32,-270.34"/>
</g>
<!-- prelreqs -->
<g id="node3" class="node">
<title>prelreqs</title>
<path fill="#1afabc" stroke="black" d="M686.48,-242.31C686.48,-242.31 727.48,-242.31 727.48,-242.31 733.48,-242.31 739.48,-248.31 739.48,-254.31 739.48,-254.31 739.48,-266.31 739.48,-266.31 739.48,-272.31 733.48,-278.31 727.48,-278.31 727.48,-278.31 686.48,-278.31 686.48,-278.31 680.48,-278.31 674.48,-272.31 674.48,-266.31 674.48,-266.31 674.48,-254.31 674.48,-254.31 674.48,-248.31 680.48,-242.31 686.48,-242.31"/>
<text text-anchor="middle" x="706.98" y="-256.61" font-family="Arial" font-size="14.00">prelreqs</text>
</g>
<!-- prereq&#45;&gt;prelreqs -->
<g id="edge2" class="edge">
<title>prereq&#45;&gt;prelreqs</title>
<path fill="none" stroke="#1f78b4" d="M616.47,-299.71C631.01,-293.38 649.06,-285.52 665.2,-278.49"/>
<polygon fill="#a6cee3" stroke="#1f78b4" points="666.68,-281.67 674.45,-274.47 663.88,-275.25 666.68,-281.67"/>
</g>
<!-- closereqs -->
<g id="node5" class="node">
<title>closereqs</title>
<path fill="#1afabc" stroke="black" d="M416.72,-668.83C416.72,-668.83 466.72,-668.83 466.72,-668.83 472.72,-668.83 478.72,-674.83 478.72,-680.83 478.72,-680.83 478.72,-692.83 478.72,-692.83 478.72,-698.83 472.72,-704.83 466.72,-704.83 466.72,-704.83 416.72,-704.83 416.72,-704.83 410.72,-704.83 404.72,-698.83 404.72,-692.83 404.72,-692.83 404.72,-680.83 404.72,-680.83 404.72,-674.83 410.72,-668.83 416.72,-668.83"/>
<text text-anchor="middle" x="441.72" y="-683.13" font-family="Arial" font-size="14.00">closereqs</text>
</g>
<!-- postreq&#45;&gt;closereqs -->
<g id="edge4" class="edge">
<title>postreq&#45;&gt;closereqs</title>
<path fill="none" stroke="#1f78b4" d="M447.51,-566.25C446.38,-589.72 444.41,-630.87 443.08,-658.48"/>
<polygon fill="#a6cee3" stroke="#1f78b4" points="439.57,-658.54 442.59,-668.69 446.57,-658.87 439.57,-658.54"/>
</g>
<!-- reqconds -->
<g id="node7" class="node">
<title>reqconds</title>
<path fill="#1afabc" stroke="black" d="M505.11,-0.61C505.11,-0.61 553.11,-0.61 553.11,-0.61 559.11,-0.61 565.11,-6.61 565.11,-12.61 565.11,-12.61 565.11,-24.61 565.11,-24.61 565.11,-30.61 559.11,-36.61 553.11,-36.61 553.11,-36.61 505.11,-36.61 505.11,-36.61 499.11,-36.61 493.11,-30.61 493.11,-24.61 493.11,-24.61 493.11,-12.61 493.11,-12.61 493.11,-6.61 499.11,-0.61 505.11,-0.61"/>
<text text-anchor="middle" x="529.11" y="-14.91" font-family="Arial" font-size="14.00">reqconds</text>
</g>
<!-- ul&#45;&gt;reqconds -->
<g id="edge6" class="edge">
<title>ul&#45;&gt;reqconds</title>
<path fill="none" stroke="#1f78b4" d="M532.11,-163.02C531.53,-134.85 530.39,-80.12 529.7,-46.72"/>
<polygon fill="#a6cee3" stroke="#1f78b4" points="533.2,-46.61 529.49,-36.69 526.2,-46.76 533.2,-46.61"/>
</g>
<!-- reqpers -->
<g id="node8" class="node">
<title>reqpers</title>
<path fill="#1afabc" stroke="black" d="M634.64,-118.85C634.64,-118.85 672.64,-118.85 672.64,-118.85 678.64,-118.85 684.64,-124.85 684.64,-130.85 684.64,-130.85 684.64,-142.85 684.64,-142.85 684.64,-148.85 678.64,-154.85 672.64,-154.85 672.64,-154.85 634.64,-154.85 634.64,-154.85 628.64,-154.85 622.64,-148.85 622.64,-142.85 622.64,-142.85 622.64,-130.85 622.64,-130.85 622.64,-124.85 628.64,-118.85 634.64,-118.85"/>
<text text-anchor="middle" x="653.64" y="-133.15" font-family="Arial" font-size="14.00">reqpers</text>
</g>
<!-- ul&#45;&gt;reqpers -->
<g id="edge7" class="edge">
<title>ul&#45;&gt;reqpers</title>
<path fill="none" stroke="#1f78b4" d="M559.68,-171.1C575.33,-165.4 595.32,-158.11 612.83,-151.72"/>
<polygon fill="#a6cee3" stroke="#1f78b4" points="614.06,-155 622.26,-148.29 611.67,-148.42 614.06,-155"/>
</g>
<!-- supeqli -->
<g id="node9" class="node">
<title>supeqli</title>
<path fill="#1afabc" stroke="black" d="M555.15,-61.66C555.15,-61.66 590.15,-61.66 590.15,-61.66 596.15,-61.66 602.15,-67.66 602.15,-73.66 602.15,-73.66 602.15,-85.66 602.15,-85.66 602.15,-91.66 596.15,-97.66 590.15,-97.66 590.15,-97.66 555.15,-97.66 555.15,-97.66 549.15,-97.66 543.15,-91.66 543.15,-85.66 543.15,-85.66 543.15,-73.66 543.15,-73.66 543.15,-67.66 549.15,-61.66 555.15,-61.66"/>
<text text-anchor="middle" x="572.65" y="-75.96" font-family="Arial" font-size="14.00">supeqli</text>
</g>
<!-- ul&#45;&gt;supeqli -->
<g id="edge8" class="edge">
<title>ul&#45;&gt;supeqli</title>
<path fill="none" stroke="#1f78b4" d="M539.67,-162.9C545.74,-147.57 554.54,-125.35 561.53,-107.73"/>
<polygon fill="#a6cee3" stroke="#1f78b4" points="564.97,-108.56 565.4,-97.97 558.46,-105.98 564.97,-108.56"/>
</g>
<!-- supplyli -->
<g id="node10" class="node">
<title>supplyli</title>
<path fill="#1afabc" stroke="black" d="M632.37,-68.95C632.37,-68.95 670.37,-68.95 670.37,-68.95 676.37,-68.95 682.37,-74.95 682.37,-80.95 682.37,-80.95 682.37,-92.95 682.37,-92.95 682.37,-98.95 676.37,-104.95 670.37,-104.95 670.37,-104.95 632.37,-104.95 632.37,-104.95 626.37,-104.95 620.37,-98.95 620.37,-92.95 620.37,-92.95 620.37,-80.95 620.37,-80.95 620.37,-74.95 626.37,-68.95 632.37,-68.95"/>
<text text-anchor="middle" x="651.37" y="-83.25" font-family="Arial" font-size="14.00">supplyli</text>
</g>
<!-- ul&#45;&gt;supplyli -->
<g id="edge9" class="edge">
<title>ul&#45;&gt;supplyli</title>
<path fill="none" stroke="#1f78b4" d="M555.41,-162.88C573.91,-148.24 600.12,-127.5 620.48,-111.4"/>
<polygon fill="#a6cee3" stroke="#1f78b4" points="622.85,-113.98 628.52,-105.03 618.51,-108.49 622.85,-113.98"/>
</g>
<!-- sparesli -->
<g id="node11" class="node">
<title>sparesli</title>
<path fill="#1afabc" stroke="black" d="M428.23,-57.27C428.23,-57.27 467.23,-57.27 467.23,-57.27 473.23,-57.27 479.23,-63.27 479.23,-69.27 479.23,-69.27 479.23,-81.27 479.23,-81.27 479.23,-87.27 473.23,-93.27 467.23,-93.27 467.23,-93.27 428.23,-93.27 428.23,-93.27 422.23,-93.27 416.23,-87.27 416.23,-81.27 416.23,-81.27 416.23,-69.27 416.23,-69.27 416.23,-63.27 422.23,-57.27 428.23,-57.27"/>
<text text-anchor="middle" x="447.73" y="-71.57" font-family="Arial" font-size="14.00">sparesli</text>
</g>
<!-- ul&#45;&gt;sparesli -->
<g id="edge10" class="edge">
<title>ul&#45;&gt;sparesli</title>
<path fill="none" stroke="#1f78b4" d="M517.72,-162.6C504.17,-145.69 483.95,-120.46 468.72,-101.46"/>
<polygon fill="#a6cee3" stroke="#1f78b4" points="471.31,-99.09 462.32,-93.48 465.85,-103.47 471.31,-99.09"/>
</g>
<!-- noconds -->
<g id="node13" class="node">
<title>noconds</title>
<path fill="#1afabc" stroke="black" d="M182.62,-278.42C182.62,-278.42 226.62,-278.42 226.62,-278.42 232.62,-278.42 238.62,-284.42 238.62,-290.42 238.62,-290.42 238.62,-302.42 238.62,-302.42 238.62,-308.42 232.62,-314.42 226.62,-314.42 226.62,-314.42 182.62,-314.42 182.62,-314.42 176.62,-314.42 170.62,-308.42 170.62,-302.42 170.62,-302.42 170.62,-290.42 170.62,-290.42 170.62,-284.42 176.62,-278.42 182.62,-278.42"/>
<text text-anchor="middle" x="204.62" y="-292.72" font-family="Arial" font-size="14.00">noconds</text>
</g>
<!-- li&#45;&gt;noconds -->
<g id="edge12" class="edge">
<title>li&#45;&gt;noconds</title>
<path fill="none" stroke="#1f78b4" d="M219.51,-421.32C216.61,-397.06 211.45,-353.75 208.03,-325.05"/>
<polygon fill="#a6cee3" stroke="#1f78b4" points="211.47,-324.35 206.81,-314.84 204.52,-325.18 211.47,-324.35"/>
</g>
<!-- reqcond -->
<g id="node14" class="node">
<title>reqcond</title>
<path fill="#1afabc" stroke="black" d="M271.99,-513.28C271.99,-513.28 312.99,-513.28 312.99,-513.28 318.99,-513.28 324.99,-519.28 324.99,-525.28 324.99,-525.28 324.99,-537.28 324.99,-537.28 324.99,-543.28 318.99,-549.28 312.99,-549.28 312.99,-549.28 271.99,-549.28 271.99,-549.28 265.99,-549.28 259.99,-543.28 259.99,-537.28 259.99,-537.28 259.99,-525.28 259.99,-525.28 259.99,-519.28 265.99,-513.28 271.99,-513.28"/>
<text text-anchor="middle" x="292.49" y="-527.58" font-family="Arial" font-size="14.00">reqcond</text>
</g>
<!-- li&#45;&gt;reqcond -->
<g id="edge13" class="edge">
<title>li&#45;&gt;reqcond</title>
<path fill="none" stroke="#1f78b4" d="M235.66,-457.58C246.14,-471.17 260.62,-489.95 272.34,-505.15"/>
<polygon fill="#a6cee3" stroke="#1f78b4" points="269.65,-507.39 278.53,-513.17 275.19,-503.12 269.65,-507.39"/>
</g>
<!-- reqcontp -->
<g id="node15" class="node">
<title>reqcontp</title>
<path fill="#1afabc" stroke="black" d="M45.82,-464.67C45.82,-464.67 90.82,-464.67 90.82,-464.67 96.82,-464.67 102.82,-470.67 102.82,-476.67 102.82,-476.67 102.82,-488.67 102.82,-488.67 102.82,-494.67 96.82,-500.67 90.82,-500.67 90.82,-500.67 45.82,-500.67 45.82,-500.67 39.82,-500.67 33.82,-494.67 33.82,-488.67 33.82,-488.67 33.82,-476.67 33.82,-476.67 33.82,-470.67 39.82,-464.67 45.82,-464.67"/>
<text text-anchor="middle" x="68.32" y="-478.97" font-family="Arial" font-size="14.00">reqcontp</text>
</g>
<!-- li&#45;&gt;reqcontp -->
<g id="edge14" class="edge">
<title>li&#45;&gt;reqcontp</title>
<path fill="none" stroke="#1f78b4" d="M194.6,-447.06C171.96,-453.45 139.2,-462.69 112.72,-470.15"/>
<polygon fill="#a6cee3" stroke="#1f78b4" points="111.59,-466.83 102.91,-472.92 113.49,-473.57 111.59,-466.83"/>
</g>
<!-- personnel -->
<g id="node16" class="node">
<title>personnel</title>
<path fill="#1afabc" stroke="black" d="M11.79,-412.04C11.79,-412.04 63.79,-412.04 63.79,-412.04 69.79,-412.04 75.79,-418.04 75.79,-424.04 75.79,-424.04 75.79,-436.04 75.79,-436.04 75.79,-442.04 69.79,-448.04 63.79,-448.04 63.79,-448.04 11.79,-448.04 11.79,-448.04 5.79,-448.04 -0.21,-442.04 -0.21,-436.04 -0.21,-436.04 -0.21,-424.04 -0.21,-424.04 -0.21,-418.04 5.79,-412.04 11.79,-412.04"/>
<text text-anchor="middle" x="37.79" y="-426.34" font-family="Arial" font-size="14.00">personnel</text>
</g>
<!-- li&#45;&gt;personnel -->
<g id="edge15" class="edge">
<title>li&#45;&gt;personnel</title>
<path fill="none" stroke="#1f78b4" d="M194.53,-438.05C166.11,-436.59 120.86,-434.28 86.27,-432.51"/>
<polygon fill="#a6cee3" stroke="#1f78b4" points="86.07,-429 75.91,-431.98 85.72,-435.99 86.07,-429"/>
</g>
<!-- perscat -->
<g id="node17" class="node">
<title>perscat</title>
<path fill="#1afabc" stroke="black" d="M209.12,-568.32C209.12,-568.32 246.12,-568.32 246.12,-568.32 252.12,-568.32 258.12,-574.32 258.12,-580.32 258.12,-580.32 258.12,-592.32 258.12,-592.32 258.12,-598.32 252.12,-604.32 246.12,-604.32 246.12,-604.32 209.12,-604.32 209.12,-604.32 203.12,-604.32 197.12,-598.32 197.12,-592.32 197.12,-592.32 197.12,-580.32 197.12,-580.32 197.12,-574.32 203.12,-568.32 209.12,-568.32"/>
<text text-anchor="middle" x="227.62" y="-582.62" font-family="Arial" font-size="14.00">perscat</text>
</g>
<!-- li&#45;&gt;perscat -->
<g id="edge16" class="edge">
<title>li&#45;&gt;perscat</title>
<path fill="none" stroke="#1f78b4" d="M222.4,-457.45C223.42,-482.55 225.27,-528.33 226.48,-558.02"/>
<polygon fill="#a6cee3" stroke="#1f78b4" points="222.98,-558.31 226.89,-568.16 229.98,-558.03 222.98,-558.31"/>
</g>
<!-- perskill -->
<g id="node18" class="node">
<title>perskill</title>
<path fill="#1afabc" stroke="black" d="M75.49,-510.62C75.49,-510.62 110.49,-510.62 110.49,-510.62 116.49,-510.62 122.49,-516.62 122.49,-522.62 122.49,-522.62 122.49,-534.62 122.49,-534.62 122.49,-540.62 116.49,-546.62 110.49,-546.62 110.49,-546.62 75.49,-546.62 75.49,-546.62 69.49,-546.62 63.49,-540.62 63.49,-534.62 63.49,-534.62 63.49,-522.62 63.49,-522.62 63.49,-516.62 69.49,-510.62 75.49,-510.62"/>
<text text-anchor="middle" x="92.99" y="-524.92" font-family="Arial" font-size="14.00">perskill</text>
</g>
<!-- li&#45;&gt;perskill -->
<g id="edge17" class="edge">
<title>li&#45;&gt;perskill</title>
<path fill="none" stroke="#1f78b4" d="M195.63,-457.48C176,-471.08 148.91,-489.86 127.49,-504.71"/>
<polygon fill="#a6cee3" stroke="#1f78b4" points="125.21,-502.02 118.99,-510.6 129.2,-507.78 125.21,-502.02"/>
</g>
<!-- esttime -->
<g id="node19" class="node">
<title>esttime</title>
<path fill="#1afabc" stroke="black" d="M107.02,-408.8C107.02,-408.8 144.02,-408.8 144.02,-408.8 150.02,-408.8 156.02,-414.8 156.02,-420.8 156.02,-420.8 156.02,-432.8 156.02,-432.8 156.02,-438.8 150.02,-444.8 144.02,-444.8 144.02,-444.8 107.02,-444.8 107.02,-444.8 101.02,-444.8 95.02,-438.8 95.02,-432.8 95.02,-432.8 95.02,-420.8 95.02,-420.8 95.02,-414.8 101.02,-408.8 107.02,-408.8"/>
<text text-anchor="middle" x="125.52" y="-423.1" font-family="Arial" font-size="14.00">esttime</text>
</g>
<!-- li&#45;&gt;esttime -->
<g id="edge18" class="edge">
<title>li&#45;&gt;esttime</title>
<path fill="none" stroke="#1f78b4" d="M194.63,-435.88C185.82,-434.72 175.83,-433.41 166.25,-432.15"/>
<polygon fill="#a6cee3" stroke="#1f78b4" points="166.45,-428.65 156.08,-430.81 165.54,-435.59 166.45,-428.65"/>
</g>
<!-- supequi -->
<g id="node20" class="node">
<title>supequi</title>
<path fill="#1afabc" stroke="black" d="M180.48,-334.95C180.48,-334.95 220.48,-334.95 220.48,-334.95 226.48,-334.95 232.48,-340.95 232.48,-346.95 232.48,-346.95 232.48,-358.95 232.48,-358.95 232.48,-364.95 226.48,-370.95 220.48,-370.95 220.48,-370.95 180.48,-370.95 180.48,-370.95 174.48,-370.95 168.48,-364.95 168.48,-358.95 168.48,-358.95 168.48,-346.95 168.48,-346.95 168.48,-340.95 174.48,-334.95 180.48,-334.95"/>
<text text-anchor="middle" x="200.48" y="-349.25" font-family="Arial" font-size="14.00">supequi</text>
</g>
<!-- li&#45;&gt;supequi -->
<g id="edge19" class="edge">
<title>li&#45;&gt;supequi</title>
<path fill="none" stroke="#1f78b4" d="M217.17,-421.09C214.32,-409.43 210.56,-394.11 207.34,-380.95"/>
<polygon fill="#a6cee3" stroke="#1f78b4" points="210.67,-379.85 204.9,-370.97 203.87,-381.51 210.67,-379.85"/>
</g>
<!-- supply -->
<g id="node21" class="node">
<title>supply</title>
<path fill="#1afabc" stroke="black" d="M143.69,-509.01C143.69,-509.01 175.69,-509.01 175.69,-509.01 181.69,-509.01 187.69,-515.01 187.69,-521.01 187.69,-521.01 187.69,-533.01 187.69,-533.01 187.69,-539.01 181.69,-545.01 175.69,-545.01 175.69,-545.01 143.69,-545.01 143.69,-545.01 137.69,-545.01 131.69,-539.01 131.69,-533.01 131.69,-533.01 131.69,-521.01 131.69,-521.01 131.69,-515.01 137.69,-509.01 143.69,-509.01"/>
<text text-anchor="middle" x="159.69" y="-523.31" font-family="Arial" font-size="14.00">supply</text>
</g>
<!-- li&#45;&gt;supply -->
<g id="edge20" class="edge">
<title>li&#45;&gt;supply</title>
<path fill="none" stroke="#1f78b4" d="M208.83,-457.58C200.02,-470.03 188.19,-486.74 178.35,-500.65"/>
<polygon fill="#a6cee3" stroke="#1f78b4" points="175.44,-498.7 172.52,-508.89 181.15,-502.75 175.44,-498.7"/>
</g>
<!-- spare -->
<g id="node22" class="node">
<title>spare</title>
<path fill="#1afabc" stroke="black" d="M106.43,-308.22C106.43,-308.22 136.43,-308.22 136.43,-308.22 142.43,-308.22 148.43,-314.22 148.43,-320.22 148.43,-320.22 148.43,-332.22 148.43,-332.22 148.43,-338.22 142.43,-344.22 136.43,-344.22 136.43,-344.22 106.43,-344.22 106.43,-344.22 100.43,-344.22 94.43,-338.22 94.43,-332.22 94.43,-332.22 94.43,-320.22 94.43,-320.22 94.43,-314.22 100.43,-308.22 106.43,-308.22"/>
<text text-anchor="middle" x="121.43" y="-322.52" font-family="Arial" font-size="14.00">spare</text>
</g>
<!-- li&#45;&gt;spare -->
<g id="edge21" class="edge">
<title>li&#45;&gt;spare</title>
<path fill="none" stroke="#1f78b4" d="M205.56,-421.24C188.98,-402.51 162.98,-373.15 144.27,-352.02"/>
<polygon fill="#a6cee3" stroke="#1f78b4" points="146.75,-349.53 137.5,-344.37 141.51,-354.17 146.75,-349.53"/>
</g>
<!-- nosafety -->
<g id="node23" class="node">
<title>nosafety</title>
<path fill="#1afabc" stroke="black" d="M55.03,-353.73C55.03,-353.73 99.03,-353.73 99.03,-353.73 105.03,-353.73 111.03,-359.73 111.03,-365.73 111.03,-365.73 111.03,-377.73 111.03,-377.73 111.03,-383.73 105.03,-389.73 99.03,-389.73 99.03,-389.73 55.03,-389.73 55.03,-389.73 49.03,-389.73 43.03,-383.73 43.03,-377.73 43.03,-377.73 43.03,-365.73 43.03,-365.73 43.03,-359.73 49.03,-353.73 55.03,-353.73"/>
<text text-anchor="middle" x="77.03" y="-368.03" font-family="Arial" font-size="14.00">nosafety</text>
</g>
<!-- li&#45;&gt;nosafety -->
<g id="edge22" class="edge">
<title>li&#45;&gt;nosafety</title>
<path fill="none" stroke="#1f78b4" d="M194.46,-426.7C173.66,-416.96 144.56,-403.34 120.53,-392.09"/>
<polygon fill="#a6cee3" stroke="#1f78b4" points="121.8,-388.82 111.26,-387.75 118.83,-395.16 121.8,-388.82"/>
</g>
<!-- safecond -->
<g id="node24" class="node">
<title>safecond</title>
<path fill="#1afabc" stroke="black" d="M112.68,-570.77C112.68,-570.77 159.68,-570.77 159.68,-570.77 165.68,-570.77 171.68,-576.77 171.68,-582.77 171.68,-582.77 171.68,-594.77 171.68,-594.77 171.68,-600.77 165.68,-606.77 159.68,-606.77 159.68,-606.77 112.68,-606.77 112.68,-606.77 106.68,-606.77 100.68,-600.77 100.68,-594.77 100.68,-594.77 100.68,-582.77 100.68,-582.77 100.68,-576.77 106.68,-570.77 112.68,-570.77"/>
<text text-anchor="middle" x="136.18" y="-585.07" font-family="Arial" font-size="14.00">safecond</text>
</g>
<!-- li&#45;&gt;safecond -->
<g id="edge23" class="edge">
<title>li&#45;&gt;safecond</title>
<path fill="none" stroke="#1f78b4" d="M211.36,-457.45C196.47,-483.46 168.84,-531.72 151.54,-561.94"/>
<polygon fill="#a6cee3" stroke="#1f78b4" points="148.46,-560.27 146.53,-570.69 154.54,-563.75 148.46,-560.27"/>
</g>
<!-- supequip -->
<g id="node26" class="node">
<title>supequip</title>
<path fill="#1afabc" stroke="black" d="M669.65,-580.66C669.65,-580.66 716.65,-580.66 716.65,-580.66 722.65,-580.66 728.65,-586.66 728.65,-592.66 728.65,-592.66 728.65,-604.66 728.65,-604.66 728.65,-610.66 722.65,-616.66 716.65,-616.66 716.65,-616.66 669.65,-616.66 669.65,-616.66 663.65,-616.66 657.65,-610.66 657.65,-604.66 657.65,-604.66 657.65,-592.66 657.65,-592.66 657.65,-586.66 663.65,-580.66 669.65,-580.66"/>
<text text-anchor="middle" x="693.15" y="-594.96" font-family="Arial" font-size="14.00">supequip</text>
</g>
<!-- p&#45;&gt;supequip -->
<g id="edge25" class="edge">
<title>p&#45;&gt;supequip</title>
<path fill="none" stroke="#1f78b4" d="M588.04,-551.01C605.38,-558.87 628.31,-569.26 648.33,-578.34"/>
<polygon fill="#a6cee3" stroke="#1f78b4" points="647.03,-581.59 657.59,-582.54 649.92,-575.22 647.03,-581.59"/>
</g>
<!-- supplies -->
<g id="node27" class="node">
<title>supplies</title>
<path fill="#1afabc" stroke="black" d="M613.75,-639.48C613.75,-639.48 655.75,-639.48 655.75,-639.48 661.75,-639.48 667.75,-645.48 667.75,-651.48 667.75,-651.48 667.75,-663.48 667.75,-663.48 667.75,-669.48 661.75,-675.48 655.75,-675.48 655.75,-675.48 613.75,-675.48 613.75,-675.48 607.75,-675.48 601.75,-669.48 601.75,-663.48 601.75,-663.48 601.75,-651.48 601.75,-651.48 601.75,-645.48 607.75,-639.48 613.75,-639.48"/>
<text text-anchor="middle" x="634.75" y="-653.78" font-family="Arial" font-size="14.00">supplies</text>
</g>
<!-- p&#45;&gt;supplies -->
<g id="edge26" class="edge">
<title>p&#45;&gt;supplies</title>
<path fill="none" stroke="#1f78b4" d="M572.17,-556.77C584.36,-576.38 603.98,-607.95 618,-630.52"/>
<polygon fill="#a6cee3" stroke="#1f78b4" points="615.19,-632.63 623.44,-639.27 621.14,-628.93 615.19,-632.63"/>
</g>
<!-- spares -->
<g id="node28" class="node">
<title>spares</title>
<path fill="#1afabc" stroke="black" d="M544.96,-646.96C544.96,-646.96 577.96,-646.96 577.96,-646.96 583.96,-646.96 589.96,-652.96 589.96,-658.96 589.96,-658.96 589.96,-670.96 589.96,-670.96 589.96,-676.96 583.96,-682.96 577.96,-682.96 577.96,-682.96 544.96,-682.96 544.96,-682.96 538.96,-682.96 532.96,-676.96 532.96,-670.96 532.96,-670.96 532.96,-658.96 532.96,-658.96 532.96,-652.96 538.96,-646.96 544.96,-646.96"/>
<text text-anchor="middle" x="561.46" y="-661.26" font-family="Arial" font-size="14.00">spares</text>
</g>
<!-- p&#45;&gt;spares -->
<g id="edge27" class="edge">
<title>p&#45;&gt;spares</title>
<path fill="none" stroke="#1f78b4" d="M561.04,-556.82C561.12,-577.72 561.26,-612.37 561.35,-636.81"/>
<polygon fill="#a6cee3" stroke="#1f78b4" points="557.85,-636.92 561.39,-646.91 564.85,-636.89 557.85,-636.92"/>
</g>
<!-- nosupeq -->
<g id="node30" class="node">
<title>nosupeq</title>
<path fill="#1afabc" stroke="black" d="M736.1,-352.32C736.1,-352.32 780.1,-352.32 780.1,-352.32 786.1,-352.32 792.1,-358.32 792.1,-364.32 792.1,-364.32 792.1,-376.32 792.1,-376.32 792.1,-382.32 786.1,-388.32 780.1,-388.32 780.1,-388.32 736.1,-388.32 736.1,-388.32 730.1,-388.32 724.1,-382.32 724.1,-376.32 724.1,-376.32 724.1,-364.32 724.1,-364.32 724.1,-358.32 730.1,-352.32 736.1,-352.32"/>
<text text-anchor="middle" x="758.1" y="-366.62" font-family="Arial" font-size="14.00">nosupeq</text>
</g>
<!-- data&#45;&gt;nosupeq -->
<g id="edge29" class="edge">
<title>data&#45;&gt;nosupeq</title>
<path fill="none" stroke="#1f78b4" d="M658.38,-401.48C674.56,-396.43 695.47,-389.9 713.96,-384.12"/>
<polygon fill="#a6cee3" stroke="#1f78b4" points="715.15,-387.41 723.65,-381.09 713.06,-380.73 715.15,-387.41"/>
</g>
<!-- nosupply -->
<g id="node31" class="node">
<title>nosupply</title>
<path fill="#1afabc" stroke="black" d="M719.16,-466.47C719.16,-466.47 766.16,-466.47 766.16,-466.47 772.16,-466.47 778.16,-472.47 778.16,-478.47 778.16,-478.47 778.16,-490.47 778.16,-490.47 778.16,-496.47 772.16,-502.47 766.16,-502.47 766.16,-502.47 719.16,-502.47 719.16,-502.47 713.16,-502.47 707.16,-496.47 707.16,-490.47 707.16,-490.47 707.16,-478.47 707.16,-478.47 707.16,-472.47 713.16,-466.47 719.16,-466.47"/>
<text text-anchor="middle" x="742.66" y="-480.77" font-family="Arial" font-size="14.00">nosupply</text>
</g>
<!-- data&#45;&gt;nosupply -->
<g id="edge30" class="edge">
<title>data&#45;&gt;nosupply</title>
<path fill="none" stroke="#1f78b4" d="M658.14,-428.02C672.82,-437.83 691.17,-450.09 707.02,-460.67"/>
<polygon fill="#a6cee3" stroke="#1f78b4" points="705.27,-463.71 715.53,-466.35 709.16,-457.88 705.27,-463.71"/>
</g>
<!-- nospares -->
<g id="node32" class="node">
<title>nospares</title>
<path fill="#1afabc" stroke="black" d="M742.38,-411.41C742.38,-411.41 790.38,-411.41 790.38,-411.41 796.38,-411.41 802.38,-417.41 802.38,-423.41 802.38,-423.41 802.38,-435.41 802.38,-435.41 802.38,-441.41 796.38,-447.41 790.38,-447.41 790.38,-447.41 742.38,-447.41 742.38,-447.41 736.38,-447.41 730.38,-441.41 730.38,-435.41 730.38,-435.41 730.38,-423.41 730.38,-423.41 730.38,-417.41 736.38,-411.41 742.38,-411.41"/>
<text text-anchor="middle" x="766.38" y="-425.71" font-family="Arial" font-size="14.00">nospares</text>
</g>
<!-- data&#45;&gt;nospares -->
<g id="edge31" class="edge">
<title>data&#45;&gt;nospares</title>
<path fill="none" stroke="#1f78b4" d="M658.19,-413.88C675.86,-416.42 699.4,-419.8 720.01,-422.75"/>
<polygon fill="#a6cee3" stroke="#1f78b4" points="719.76,-426.25 730.16,-424.21 720.76,-419.33 719.76,-426.25"/>
</g>
<!-- safety -->
<g id="node34" class="node">
<title>safety</title>
<path fill="#1afabc" stroke="black" d="M309.09,-100.14C309.09,-100.14 339.09,-100.14 339.09,-100.14 345.09,-100.14 351.09,-106.14 351.09,-112.14 351.09,-112.14 351.09,-124.14 351.09,-124.14 351.09,-130.14 345.09,-136.14 339.09,-136.14 339.09,-136.14 309.09,-136.14 309.09,-136.14 303.09,-136.14 297.09,-130.14 297.09,-124.14 297.09,-124.14 297.09,-112.14 297.09,-112.14 297.09,-106.14 303.09,-100.14 309.09,-100.14"/>
<text text-anchor="middle" x="324.09" y="-114.44" font-family="Arial" font-size="14.00">safety</text>
</g>
<!-- ol&#45;&gt;safety -->
<g id="edge33" class="edge">
<title>ol&#45;&gt;safety</title>
<path fill="none" stroke="#1f78b4" d="M379.66,-226.13C368.77,-204.98 350.63,-169.72 338.05,-145.28"/>
<polygon fill="#a6cee3" stroke="#1f78b4" points="341.06,-143.46 333.37,-136.17 334.83,-146.66 341.06,-143.46"/>
</g>
</g>
</svg>
